%TF.GenerationSoftware,KiCad,Pcbnew,6.0.10+dfsg-1~bpo11+1*%
%TF.CreationDate,2023-02-14T07:57:33+00:00*%
%TF.ProjectId,PCRD04B,50435244-3034-4422-9e6b-696361645f70,REV*%
%TF.SameCoordinates,Original*%
%TF.FileFunction,Legend,Top*%
%TF.FilePolarity,Positive*%
%FSLAX46Y46*%
G04 Gerber Fmt 4.6, Leading zero omitted, Abs format (unit mm)*
G04 Created by KiCad (PCBNEW 6.0.10+dfsg-1~bpo11+1) date 2023-02-14 07:57:33*
%MOMM*%
%LPD*%
G01*
G04 APERTURE LIST*
%ADD10C,0.300000*%
%ADD11C,0.150000*%
%ADD12C,0.050000*%
%ADD13C,0.100000*%
G04 APERTURE END LIST*
D10*
X161524417Y-112499519D02*
X160224417Y-112499519D01*
X160224417Y-112004281D01*
X160286322Y-111880472D01*
X160348226Y-111818567D01*
X160472036Y-111756662D01*
X160657750Y-111756662D01*
X160781560Y-111818567D01*
X160843464Y-111880472D01*
X160905369Y-112004281D01*
X160905369Y-112499519D01*
X160224417Y-110951900D02*
X160224417Y-110704281D01*
X160286322Y-110580472D01*
X160410131Y-110456662D01*
X160657750Y-110394758D01*
X161091083Y-110394758D01*
X161338702Y-110456662D01*
X161462512Y-110580472D01*
X161524417Y-110704281D01*
X161524417Y-110951900D01*
X161462512Y-111075710D01*
X161338702Y-111199519D01*
X161091083Y-111261424D01*
X160657750Y-111261424D01*
X160410131Y-111199519D01*
X160286322Y-111075710D01*
X160224417Y-110951900D01*
X160224417Y-109961424D02*
X161524417Y-109651900D01*
X160595845Y-109404281D01*
X161524417Y-109156662D01*
X160224417Y-108847139D01*
X160843464Y-108351900D02*
X160843464Y-107918567D01*
X161524417Y-107732853D02*
X161524417Y-108351900D01*
X160224417Y-108351900D01*
X160224417Y-107732853D01*
X161524417Y-106432853D02*
X160905369Y-106866186D01*
X161524417Y-107175710D02*
X160224417Y-107175710D01*
X160224417Y-106680472D01*
X160286322Y-106556662D01*
X160348226Y-106494758D01*
X160472036Y-106432853D01*
X160657750Y-106432853D01*
X160781560Y-106494758D01*
X160843464Y-106556662D01*
X160905369Y-106680472D01*
X160905369Y-107175710D01*
X158159179Y-93545234D02*
X158902036Y-93545234D01*
X158530607Y-94845234D02*
X158530607Y-93545234D01*
X160078226Y-94845234D02*
X159644893Y-94226186D01*
X159335369Y-94845234D02*
X159335369Y-93545234D01*
X159830607Y-93545234D01*
X159954417Y-93607139D01*
X160016322Y-93669043D01*
X160078226Y-93792853D01*
X160078226Y-93978567D01*
X160016322Y-94102377D01*
X159954417Y-94164281D01*
X159830607Y-94226186D01*
X159335369Y-94226186D01*
X160573464Y-94473805D02*
X161192512Y-94473805D01*
X160449655Y-94845234D02*
X160882988Y-93545234D01*
X161316322Y-94845234D01*
X162492512Y-94721424D02*
X162430607Y-94783329D01*
X162244893Y-94845234D01*
X162121083Y-94845234D01*
X161935369Y-94783329D01*
X161811560Y-94659519D01*
X161749655Y-94535710D01*
X161687750Y-94288091D01*
X161687750Y-94102377D01*
X161749655Y-93854758D01*
X161811560Y-93730948D01*
X161935369Y-93607139D01*
X162121083Y-93545234D01*
X162244893Y-93545234D01*
X162430607Y-93607139D01*
X162492512Y-93669043D01*
X163049655Y-94164281D02*
X163482988Y-94164281D01*
X163668702Y-94845234D02*
X163049655Y-94845234D01*
X163049655Y-93545234D01*
X163668702Y-93545234D01*
X160944893Y-91067139D02*
X160821083Y-91005234D01*
X160635369Y-91005234D01*
X160449655Y-91067139D01*
X160325845Y-91190948D01*
X160263941Y-91314758D01*
X160202036Y-91562377D01*
X160202036Y-91748091D01*
X160263941Y-91995710D01*
X160325845Y-92119519D01*
X160449655Y-92243329D01*
X160635369Y-92305234D01*
X160759179Y-92305234D01*
X160944893Y-92243329D01*
X161006798Y-92181424D01*
X161006798Y-91748091D01*
X160759179Y-91748091D01*
X161563941Y-92305234D02*
X161563941Y-91005234D01*
X162306798Y-92305234D01*
X162306798Y-91005234D01*
X162925845Y-92305234D02*
X162925845Y-91005234D01*
X163235369Y-91005234D01*
X163421083Y-91067139D01*
X163544893Y-91190948D01*
X163606798Y-91314758D01*
X163668702Y-91562377D01*
X163668702Y-91748091D01*
X163606798Y-91995710D01*
X163544893Y-92119519D01*
X163421083Y-92243329D01*
X163235369Y-92305234D01*
X162925845Y-92305234D01*
X160944893Y-85987139D02*
X160821083Y-85925234D01*
X160635369Y-85925234D01*
X160449655Y-85987139D01*
X160325845Y-86110948D01*
X160263941Y-86234758D01*
X160202036Y-86482377D01*
X160202036Y-86668091D01*
X160263941Y-86915710D01*
X160325845Y-87039519D01*
X160449655Y-87163329D01*
X160635369Y-87225234D01*
X160759179Y-87225234D01*
X160944893Y-87163329D01*
X161006798Y-87101424D01*
X161006798Y-86668091D01*
X160759179Y-86668091D01*
X161563941Y-87225234D02*
X161563941Y-85925234D01*
X162306798Y-87225234D01*
X162306798Y-85925234D01*
X162925845Y-87225234D02*
X162925845Y-85925234D01*
X163235369Y-85925234D01*
X163421083Y-85987139D01*
X163544893Y-86110948D01*
X163606798Y-86234758D01*
X163668702Y-86482377D01*
X163668702Y-86668091D01*
X163606798Y-86915710D01*
X163544893Y-87039519D01*
X163421083Y-87163329D01*
X163235369Y-87225234D01*
X162925845Y-87225234D01*
X160944893Y-96147139D02*
X160821083Y-96085234D01*
X160635369Y-96085234D01*
X160449655Y-96147139D01*
X160325845Y-96270948D01*
X160263941Y-96394758D01*
X160202036Y-96642377D01*
X160202036Y-96828091D01*
X160263941Y-97075710D01*
X160325845Y-97199519D01*
X160449655Y-97323329D01*
X160635369Y-97385234D01*
X160759179Y-97385234D01*
X160944893Y-97323329D01*
X161006798Y-97261424D01*
X161006798Y-96828091D01*
X160759179Y-96828091D01*
X161563941Y-97385234D02*
X161563941Y-96085234D01*
X162306798Y-97385234D01*
X162306798Y-96085234D01*
X162925845Y-97385234D02*
X162925845Y-96085234D01*
X163235369Y-96085234D01*
X163421083Y-96147139D01*
X163544893Y-96270948D01*
X163606798Y-96394758D01*
X163668702Y-96642377D01*
X163668702Y-96828091D01*
X163606798Y-97075710D01*
X163544893Y-97199519D01*
X163421083Y-97323329D01*
X163235369Y-97385234D01*
X162925845Y-97385234D01*
X160944893Y-101227139D02*
X160821083Y-101165234D01*
X160635369Y-101165234D01*
X160449655Y-101227139D01*
X160325845Y-101350948D01*
X160263941Y-101474758D01*
X160202036Y-101722377D01*
X160202036Y-101908091D01*
X160263941Y-102155710D01*
X160325845Y-102279519D01*
X160449655Y-102403329D01*
X160635369Y-102465234D01*
X160759179Y-102465234D01*
X160944893Y-102403329D01*
X161006798Y-102341424D01*
X161006798Y-101908091D01*
X160759179Y-101908091D01*
X161563941Y-102465234D02*
X161563941Y-101165234D01*
X162306798Y-102465234D01*
X162306798Y-101165234D01*
X162925845Y-102465234D02*
X162925845Y-101165234D01*
X163235369Y-101165234D01*
X163421083Y-101227139D01*
X163544893Y-101350948D01*
X163606798Y-101474758D01*
X163668702Y-101722377D01*
X163668702Y-101908091D01*
X163606798Y-102155710D01*
X163544893Y-102279519D01*
X163421083Y-102403329D01*
X163235369Y-102465234D01*
X162925845Y-102465234D01*
X160387750Y-89393805D02*
X161006798Y-89393805D01*
X160263941Y-89765234D02*
X160697274Y-88465234D01*
X161130607Y-89765234D01*
X162492512Y-88403329D02*
X161378226Y-90074758D01*
X162925845Y-89765234D02*
X162925845Y-88465234D01*
X163235369Y-88465234D01*
X163421083Y-88527139D01*
X163544893Y-88650948D01*
X163606798Y-88774758D01*
X163668702Y-89022377D01*
X163668702Y-89208091D01*
X163606798Y-89455710D01*
X163544893Y-89579519D01*
X163421083Y-89703329D01*
X163235369Y-89765234D01*
X162925845Y-89765234D01*
X161378226Y-99925234D02*
X160944893Y-99306186D01*
X160635369Y-99925234D02*
X160635369Y-98625234D01*
X161130607Y-98625234D01*
X161254417Y-98687139D01*
X161316322Y-98749043D01*
X161378226Y-98872853D01*
X161378226Y-99058567D01*
X161316322Y-99182377D01*
X161254417Y-99244281D01*
X161130607Y-99306186D01*
X160635369Y-99306186D01*
X161935369Y-99244281D02*
X162368702Y-99244281D01*
X162554417Y-99925234D02*
X161935369Y-99925234D01*
X161935369Y-98625234D01*
X162554417Y-98625234D01*
X163544893Y-99244281D02*
X163111560Y-99244281D01*
X163111560Y-99925234D02*
X163111560Y-98625234D01*
X163730607Y-98625234D01*
X131516322Y-108040710D02*
X131516322Y-109112139D01*
X131444893Y-109326424D01*
X131302036Y-109469281D01*
X131087750Y-109540710D01*
X130944893Y-109540710D01*
X132159179Y-109112139D02*
X132873464Y-109112139D01*
X132016322Y-109540710D02*
X132516322Y-108040710D01*
X133016322Y-109540710D01*
X134373464Y-109397853D02*
X134302036Y-109469281D01*
X134087750Y-109540710D01*
X133944893Y-109540710D01*
X133730607Y-109469281D01*
X133587750Y-109326424D01*
X133516322Y-109183567D01*
X133444893Y-108897853D01*
X133444893Y-108683567D01*
X133516322Y-108397853D01*
X133587750Y-108254996D01*
X133730607Y-108112139D01*
X133944893Y-108040710D01*
X134087750Y-108040710D01*
X134302036Y-108112139D01*
X134373464Y-108183567D01*
X135016322Y-109540710D02*
X135016322Y-108040710D01*
X135016322Y-108754996D02*
X135873464Y-108754996D01*
X135873464Y-109540710D02*
X135873464Y-108040710D01*
X136873464Y-108040710D02*
X137159179Y-108040710D01*
X137302036Y-108112139D01*
X137444893Y-108254996D01*
X137516322Y-108540710D01*
X137516322Y-109040710D01*
X137444893Y-109326424D01*
X137302036Y-109469281D01*
X137159179Y-109540710D01*
X136873464Y-109540710D01*
X136730607Y-109469281D01*
X136587750Y-109326424D01*
X136516322Y-109040710D01*
X136516322Y-108540710D01*
X136587750Y-108254996D01*
X136730607Y-108112139D01*
X136873464Y-108040710D01*
X131694893Y-110723567D02*
X131766322Y-110652139D01*
X131909179Y-110580710D01*
X132266322Y-110580710D01*
X132409179Y-110652139D01*
X132480607Y-110723567D01*
X132552036Y-110866424D01*
X132552036Y-111009281D01*
X132480607Y-111223567D01*
X131623464Y-112080710D01*
X132552036Y-112080710D01*
X133480607Y-110580710D02*
X133623464Y-110580710D01*
X133766322Y-110652139D01*
X133837750Y-110723567D01*
X133909179Y-110866424D01*
X133980607Y-111152139D01*
X133980607Y-111509281D01*
X133909179Y-111794996D01*
X133837750Y-111937853D01*
X133766322Y-112009281D01*
X133623464Y-112080710D01*
X133480607Y-112080710D01*
X133337750Y-112009281D01*
X133266322Y-111937853D01*
X133194893Y-111794996D01*
X133123464Y-111509281D01*
X133123464Y-111152139D01*
X133194893Y-110866424D01*
X133266322Y-110723567D01*
X133337750Y-110652139D01*
X133480607Y-110580710D01*
X135409179Y-112080710D02*
X134552036Y-112080710D01*
X134980607Y-112080710D02*
X134980607Y-110580710D01*
X134837750Y-110794996D01*
X134694893Y-110937853D01*
X134552036Y-111009281D01*
X136266322Y-111223567D02*
X136123464Y-111152139D01*
X136052036Y-111080710D01*
X135980607Y-110937853D01*
X135980607Y-110866424D01*
X136052036Y-110723567D01*
X136123464Y-110652139D01*
X136266322Y-110580710D01*
X136552036Y-110580710D01*
X136694893Y-110652139D01*
X136766322Y-110723567D01*
X136837750Y-110866424D01*
X136837750Y-110937853D01*
X136766322Y-111080710D01*
X136694893Y-111152139D01*
X136552036Y-111223567D01*
X136266322Y-111223567D01*
X136123464Y-111294996D01*
X136052036Y-111366424D01*
X135980607Y-111509281D01*
X135980607Y-111794996D01*
X136052036Y-111937853D01*
X136123464Y-112009281D01*
X136266322Y-112080710D01*
X136552036Y-112080710D01*
X136694893Y-112009281D01*
X136766322Y-111937853D01*
X136837750Y-111794996D01*
X136837750Y-111509281D01*
X136766322Y-111366424D01*
X136694893Y-111294996D01*
X136552036Y-111223567D01*
X114624893Y-90958567D02*
X113124893Y-90958567D01*
X114196322Y-90458567D01*
X113124893Y-89958567D01*
X114624893Y-89958567D01*
X114624893Y-88529996D02*
X114624893Y-89244281D01*
X113124893Y-89244281D01*
X114196322Y-88101424D02*
X114196322Y-87387139D01*
X114624893Y-88244281D02*
X113124893Y-87744281D01*
X114624893Y-87244281D01*
X113839179Y-86244281D02*
X113910607Y-86029996D01*
X113982036Y-85958567D01*
X114124893Y-85887139D01*
X114339179Y-85887139D01*
X114482036Y-85958567D01*
X114553464Y-86029996D01*
X114624893Y-86172853D01*
X114624893Y-86744281D01*
X113124893Y-86744281D01*
X113124893Y-86244281D01*
X113196322Y-86101424D01*
X113267750Y-86029996D01*
X113410607Y-85958567D01*
X113553464Y-85958567D01*
X113696322Y-86029996D01*
X113767750Y-86101424D01*
X113839179Y-86244281D01*
X113839179Y-86744281D01*
X114482036Y-85244281D02*
X114553464Y-85172853D01*
X114624893Y-85244281D01*
X114553464Y-85315710D01*
X114482036Y-85244281D01*
X114624893Y-85244281D01*
X114482036Y-83672853D02*
X114553464Y-83744281D01*
X114624893Y-83958567D01*
X114624893Y-84101424D01*
X114553464Y-84315710D01*
X114410607Y-84458567D01*
X114267750Y-84529996D01*
X113982036Y-84601424D01*
X113767750Y-84601424D01*
X113482036Y-84529996D01*
X113339179Y-84458567D01*
X113196322Y-84315710D01*
X113124893Y-84101424D01*
X113124893Y-83958567D01*
X113196322Y-83744281D01*
X113267750Y-83672853D01*
X113124893Y-83172853D02*
X113124893Y-82172853D01*
X114624893Y-83172853D01*
X114624893Y-82172853D01*
X112084893Y-91458567D02*
X110584893Y-91458567D01*
X110584893Y-90887139D01*
X110656322Y-90744281D01*
X110727750Y-90672853D01*
X110870607Y-90601424D01*
X111084893Y-90601424D01*
X111227750Y-90672853D01*
X111299179Y-90744281D01*
X111370607Y-90887139D01*
X111370607Y-91458567D01*
X111942036Y-89101424D02*
X112013464Y-89172853D01*
X112084893Y-89387139D01*
X112084893Y-89529996D01*
X112013464Y-89744281D01*
X111870607Y-89887139D01*
X111727750Y-89958567D01*
X111442036Y-90029996D01*
X111227750Y-90029996D01*
X110942036Y-89958567D01*
X110799179Y-89887139D01*
X110656322Y-89744281D01*
X110584893Y-89529996D01*
X110584893Y-89387139D01*
X110656322Y-89172853D01*
X110727750Y-89101424D01*
X112084893Y-87601424D02*
X111370607Y-88101424D01*
X112084893Y-88458567D02*
X110584893Y-88458567D01*
X110584893Y-87887139D01*
X110656322Y-87744281D01*
X110727750Y-87672853D01*
X110870607Y-87601424D01*
X111084893Y-87601424D01*
X111227750Y-87672853D01*
X111299179Y-87744281D01*
X111370607Y-87887139D01*
X111370607Y-88458567D01*
X112084893Y-86958567D02*
X110584893Y-86958567D01*
X110584893Y-86601424D01*
X110656322Y-86387139D01*
X110799179Y-86244281D01*
X110942036Y-86172853D01*
X111227750Y-86101424D01*
X111442036Y-86101424D01*
X111727750Y-86172853D01*
X111870607Y-86244281D01*
X112013464Y-86387139D01*
X112084893Y-86601424D01*
X112084893Y-86958567D01*
X110584893Y-85172853D02*
X110584893Y-85029996D01*
X110656322Y-84887139D01*
X110727750Y-84815710D01*
X110870607Y-84744281D01*
X111156322Y-84672853D01*
X111513464Y-84672853D01*
X111799179Y-84744281D01*
X111942036Y-84815710D01*
X112013464Y-84887139D01*
X112084893Y-85029996D01*
X112084893Y-85172853D01*
X112013464Y-85315710D01*
X111942036Y-85387139D01*
X111799179Y-85458567D01*
X111513464Y-85529996D01*
X111156322Y-85529996D01*
X110870607Y-85458567D01*
X110727750Y-85387139D01*
X110656322Y-85315710D01*
X110584893Y-85172853D01*
X111084893Y-83387139D02*
X112084893Y-83387139D01*
X110513464Y-83744281D02*
X111584893Y-84101424D01*
X111584893Y-83172853D01*
X111299179Y-82101424D02*
X111370607Y-81887139D01*
X111442036Y-81815710D01*
X111584893Y-81744281D01*
X111799179Y-81744281D01*
X111942036Y-81815710D01*
X112013464Y-81887139D01*
X112084893Y-82029996D01*
X112084893Y-82601424D01*
X110584893Y-82601424D01*
X110584893Y-82101424D01*
X110656322Y-81958567D01*
X110727750Y-81887139D01*
X110870607Y-81815710D01*
X111013464Y-81815710D01*
X111156322Y-81887139D01*
X111227750Y-81958567D01*
X111299179Y-82101424D01*
X111299179Y-82601424D01*
D11*
%TO.C,BT1*%
X148299893Y-92742853D02*
X148347512Y-92599996D01*
X148395131Y-92552377D01*
X148490369Y-92504758D01*
X148633226Y-92504758D01*
X148728464Y-92552377D01*
X148776083Y-92599996D01*
X148823702Y-92695234D01*
X148823702Y-93076186D01*
X147823702Y-93076186D01*
X147823702Y-92742853D01*
X147871322Y-92647615D01*
X147918941Y-92599996D01*
X148014179Y-92552377D01*
X148109417Y-92552377D01*
X148204655Y-92599996D01*
X148252274Y-92647615D01*
X148299893Y-92742853D01*
X148299893Y-93076186D01*
X147823702Y-92219043D02*
X147823702Y-91647615D01*
X148823702Y-91933329D02*
X147823702Y-91933329D01*
X148823702Y-90790472D02*
X148823702Y-91361900D01*
X148823702Y-91076186D02*
X147823702Y-91076186D01*
X147966560Y-91171424D01*
X148061798Y-91266662D01*
X148109417Y-91361900D01*
X149166579Y-82279643D02*
X149166579Y-80755834D01*
X149928483Y-81517739D02*
X148404674Y-81517739D01*
D12*
%TO.C,J1*%
X158622512Y-107068281D02*
X158622512Y-107353996D01*
X158622512Y-107211139D02*
X158122512Y-107211139D01*
X158193941Y-107258758D01*
X158241560Y-107306377D01*
X158265369Y-107353996D01*
D11*
%TO.C,C24*%
X143656464Y-76072281D02*
X143608845Y-76119900D01*
X143465988Y-76167519D01*
X143370750Y-76167519D01*
X143227893Y-76119900D01*
X143132655Y-76024662D01*
X143085036Y-75929424D01*
X143037417Y-75738948D01*
X143037417Y-75596091D01*
X143085036Y-75405615D01*
X143132655Y-75310377D01*
X143227893Y-75215139D01*
X143370750Y-75167519D01*
X143465988Y-75167519D01*
X143608845Y-75215139D01*
X143656464Y-75262758D01*
X144037417Y-75262758D02*
X144085036Y-75215139D01*
X144180274Y-75167519D01*
X144418369Y-75167519D01*
X144513607Y-75215139D01*
X144561226Y-75262758D01*
X144608845Y-75357996D01*
X144608845Y-75453234D01*
X144561226Y-75596091D01*
X143989798Y-76167519D01*
X144608845Y-76167519D01*
X145465988Y-75500853D02*
X145465988Y-76167519D01*
X145227893Y-75119900D02*
X144989798Y-75834186D01*
X145608845Y-75834186D01*
%TO.C,C25*%
X158626464Y-105313996D02*
X158674083Y-105361615D01*
X158721702Y-105504472D01*
X158721702Y-105599710D01*
X158674083Y-105742567D01*
X158578845Y-105837805D01*
X158483607Y-105885424D01*
X158293131Y-105933043D01*
X158150274Y-105933043D01*
X157959798Y-105885424D01*
X157864560Y-105837805D01*
X157769322Y-105742567D01*
X157721702Y-105599710D01*
X157721702Y-105504472D01*
X157769322Y-105361615D01*
X157816941Y-105313996D01*
X157816941Y-104933043D02*
X157769322Y-104885424D01*
X157721702Y-104790186D01*
X157721702Y-104552091D01*
X157769322Y-104456853D01*
X157816941Y-104409234D01*
X157912179Y-104361615D01*
X158007417Y-104361615D01*
X158150274Y-104409234D01*
X158721702Y-104980662D01*
X158721702Y-104361615D01*
X157721702Y-103456853D02*
X157721702Y-103933043D01*
X158197893Y-103980662D01*
X158150274Y-103933043D01*
X158102655Y-103837805D01*
X158102655Y-103599710D01*
X158150274Y-103504472D01*
X158197893Y-103456853D01*
X158293131Y-103409234D01*
X158531226Y-103409234D01*
X158626464Y-103456853D01*
X158674083Y-103504472D01*
X158721702Y-103599710D01*
X158721702Y-103837805D01*
X158674083Y-103933043D01*
X158626464Y-103980662D01*
%TO.C,M5*%
X122628702Y-102216662D02*
X121628702Y-102216662D01*
X122342988Y-101883329D01*
X121628702Y-101549996D01*
X122628702Y-101549996D01*
X121628702Y-100597615D02*
X121628702Y-101073805D01*
X122104893Y-101121424D01*
X122057274Y-101073805D01*
X122009655Y-100978567D01*
X122009655Y-100740472D01*
X122057274Y-100645234D01*
X122104893Y-100597615D01*
X122200131Y-100549996D01*
X122438226Y-100549996D01*
X122533464Y-100597615D01*
X122581083Y-100645234D01*
X122628702Y-100740472D01*
X122628702Y-100978567D01*
X122581083Y-101073805D01*
X122533464Y-101121424D01*
%TO.C,D2*%
X127813226Y-88239519D02*
X127813226Y-87239519D01*
X128051322Y-87239519D01*
X128194179Y-87287139D01*
X128289417Y-87382377D01*
X128337036Y-87477615D01*
X128384655Y-87668091D01*
X128384655Y-87810948D01*
X128337036Y-88001424D01*
X128289417Y-88096662D01*
X128194179Y-88191900D01*
X128051322Y-88239519D01*
X127813226Y-88239519D01*
X128765607Y-87334758D02*
X128813226Y-87287139D01*
X128908464Y-87239519D01*
X129146560Y-87239519D01*
X129241798Y-87287139D01*
X129289417Y-87334758D01*
X129337036Y-87429996D01*
X129337036Y-87525234D01*
X129289417Y-87668091D01*
X128717988Y-88239519D01*
X129337036Y-88239519D01*
X132099417Y-84429519D02*
X132099417Y-83429519D01*
X132670845Y-84429519D02*
X132242274Y-83858091D01*
X132670845Y-83429519D02*
X132099417Y-84000948D01*
%TO.C,BT1*%
X140871322Y-77957139D02*
X156871322Y-77957139D01*
X156871322Y-77957139D02*
X156871322Y-105957139D01*
X156871322Y-105957139D02*
X140871322Y-105957139D01*
X140871322Y-105957139D02*
X140871322Y-77957139D01*
%TO.C,J1*%
X159666322Y-107592139D02*
X159666322Y-112672139D01*
X159666322Y-112672139D02*
X152046322Y-112672139D01*
X152046322Y-107592139D02*
X159666322Y-107592139D01*
X152046322Y-112672139D02*
X152046322Y-107592139D01*
%TO.C,J2*%
X164111322Y-92733139D02*
X164111322Y-90447139D01*
X169191322Y-90447139D02*
X169191322Y-92733139D01*
X164111322Y-90447139D02*
X169191322Y-90447139D01*
%TO.C,J3*%
X164111322Y-92987139D02*
X169191322Y-92987139D01*
X164111322Y-95273139D02*
X164111322Y-92987139D01*
X169191322Y-92987139D02*
X169191322Y-95273139D01*
%TO.C,J4*%
X169191322Y-95527139D02*
X169191322Y-97813139D01*
X164111322Y-97813139D02*
X164111322Y-95527139D01*
X164111322Y-95527139D02*
X169191322Y-95527139D01*
%TO.C,J5*%
X164111322Y-85367139D02*
X169191322Y-85367139D01*
X164111322Y-87653139D02*
X164111322Y-85367139D01*
X169191322Y-85367139D02*
X169191322Y-87653139D01*
%TO.C,J6*%
X169191322Y-87907139D02*
X169191322Y-90193139D01*
X164111322Y-90193139D02*
X164111322Y-87907139D01*
X164111322Y-87907139D02*
X169191322Y-87907139D01*
%TO.C,J7*%
X164111322Y-100607139D02*
X169191322Y-100607139D01*
X164111322Y-102893139D02*
X164111322Y-100607139D01*
X169191322Y-100607139D02*
X169191322Y-102893139D01*
%TO.C,C24*%
X142187322Y-76477139D02*
X142187322Y-74953139D01*
X142187322Y-74953139D02*
X146251322Y-74953139D01*
X146251322Y-76477139D02*
X142187322Y-76477139D01*
X146251322Y-76477139D02*
X146251322Y-76350139D01*
X146251322Y-74953139D02*
X146251322Y-76477139D01*
%TO.C,C25*%
X157507322Y-106703139D02*
X157634322Y-106703139D01*
X159031322Y-102639139D02*
X159031322Y-106703139D01*
X157507322Y-106703139D02*
X157507322Y-102639139D01*
X157507322Y-102639139D02*
X159031322Y-102639139D01*
X159031322Y-106703139D02*
X157507322Y-106703139D01*
%TO.C,J11*%
X164111322Y-100607139D02*
X164111322Y-98321139D01*
X169191322Y-100607139D02*
X164111322Y-100607139D01*
X169191322Y-98321139D02*
X169191322Y-100607139D01*
D13*
%TO.C,D2*%
X135651322Y-80167139D02*
X121451322Y-80167139D01*
X121451322Y-107167139D02*
X121451322Y-80167139D01*
X135651322Y-107167139D02*
X135651322Y-80167139D01*
X135651322Y-107167139D02*
X121451322Y-107167139D01*
%TD*%
M02*
