M48
; DRILL file {KiCad 6.0.11+dfsg-1~bpo11+1} date Thu May 25 08:41:55 2023
; FORMAT={-:-/ absolute / metric / decimal}
; #@! TF.CreationDate,2023-05-25T08:41:55+00:00
; #@! TF.GenerationSoftware,Kicad,Pcbnew,6.0.11+dfsg-1~bpo11+1
; #@! TF.FileFunction,Plated,1,2,PTH
FMAT,2
METRIC
; #@! TA.AperFunction,Plated,PTH,ViaDrill
T1C0.400
; #@! TA.AperFunction,Plated,PTH,ComponentDrill
T2C0.762
; #@! TA.AperFunction,Plated,PTH,ComponentDrill
T3C0.889
; #@! TA.AperFunction,Plated,PTH,ComponentDrill
T4C3.000
%
G90
G05
T1
X117.883Y-86.891
X118.391Y-88.923
X120.677Y-89.939
X120.677Y-91.209
X120.931Y-100.607
X122.201Y-86.002
X122.836Y-100.607
X123.471Y-81.557
X123.471Y-84.097
X123.471Y-86.002
X124.995Y-94.765
X125.376Y-80.922
X125.376Y-100.607
X126.011Y-86.657
X126.011Y-87.907
X126.011Y-89.177
X126.011Y-91.082
X126.011Y-94.892
X127.281Y-80.922
X127.281Y-100.607
X127.916Y-85.367
X127.916Y-94.892
X128.551Y-92.987
X129.186Y-80.922
X129.186Y-84.097
X129.186Y-85.367
X129.186Y-100.607
X129.821Y-94.892
X130.456Y-101.877
X131.354Y-95.403
X132.361Y-85.113
X132.996Y-80.922
X132.996Y-101.877
X133.631Y-95.527
X134.266Y-80.922
X134.901Y-95.527
X135.409Y-85.875
X135.409Y-87.145
X135.536Y-101.242
X136.171Y-95.527
X136.806Y-99.337
X137.441Y-85.875
X137.441Y-87.145
X138.33Y-92.733
X138.33Y-94.003
X138.33Y-95.273
X139.473Y-95.527
X140.616Y-84.732
X140.616Y-102.512
X140.616Y-104.417
X140.743Y-95.527
X140.997Y-78.001
X141.251Y-79.525
X141.886Y-84.097
X141.886Y-86.002
X141.886Y-102.512
X141.886Y-104.417
X141.886Y-108.227
X141.886Y-109.497
X141.886Y-111.402
X142.013Y-95.527
X142.775Y-77.747
X143.156Y-98.067
X143.156Y-99.337
X143.156Y-101.242
X143.156Y-111.402
X143.791Y-79.525
X143.791Y-82.065
X144.426Y-111.402
X144.553Y-84.351
X144.553Y-96.797
X145.553Y-88.034
X145.569Y-79.525
X146.331Y-80.795
X146.331Y-86.637
X146.331Y-94.511
X146.331Y-95.4
X146.331Y-98.067
X146.331Y-111.402
X146.458Y-88.034
X147.309Y-92.225
X147.601Y-86.637
X148.071Y-99.337
X148.071Y-101.242
X148.236Y-80.922
X148.909Y-89.177
X149.12Y-88.155
X149.125Y-92.225
X149.379Y-93.749
X149.506Y-90.447
X149.887Y-98.321
X150.141Y-80.922
X150.141Y-87.437
X151.411Y-80.922
X151.471Y-106.957
X151.471Y-108.227
X152.046Y-79.017
X153.316Y-80.287
X153.316Y-94.892
X153.316Y-101.242
X154.459Y-90.955
X154.586Y-79.017
X154.586Y-86.637
X154.586Y-94.892
X155.221Y-87.272
X155.856Y-79.017
X156.237Y-103.401
X159.666Y-86.637
X159.666Y-108.227
X160.047Y-84.097
X160.301Y-92.987
X160.936Y-90.447
X161.825Y-83.843
X162.206Y-92.987
X163.857Y-84.097
T2
X131.051Y-82.667
T3
X126.051Y-82.667
X126.051Y-85.207
X153.316Y-108.862
X153.316Y-111.402
X155.856Y-108.862
X155.856Y-111.402
X158.396Y-108.862
X158.396Y-111.402
X165.381Y-86.637
X165.381Y-89.177
X165.381Y-91.717
X165.381Y-94.257
X165.381Y-96.797
X165.381Y-99.337
X165.381Y-101.877
X167.921Y-86.637
X167.921Y-89.177
X167.921Y-91.717
X167.921Y-94.257
X167.921Y-96.797
X167.921Y-99.337
X167.921Y-101.877
T4
X114.581Y-77.747
X114.581Y-108.227
X165.381Y-77.747
X165.381Y-108.227
T0
M30
