%TF.GenerationSoftware,KiCad,Pcbnew,6.0.11+dfsg-1~bpo11+1*%
%TF.CreationDate,2023-04-12T15:22:02+00:00*%
%TF.ProjectId,PCRD04B,50435244-3034-4422-9e6b-696361645f70,REV*%
%TF.SameCoordinates,Original*%
%TF.FileFunction,Copper,L1,Top*%
%TF.FilePolarity,Positive*%
%FSLAX46Y46*%
G04 Gerber Fmt 4.6, Leading zero omitted, Abs format (unit mm)*
G04 Created by KiCad (PCBNEW 6.0.11+dfsg-1~bpo11+1) date 2023-04-12 15:22:02*
%MOMM*%
%LPD*%
G01*
G04 APERTURE LIST*
%TA.AperFunction,SMDPad,CuDef*%
%ADD10R,4.000000X5.000000*%
%TD*%
%TA.AperFunction,ComponentPad*%
%ADD11R,1.524000X1.524000*%
%TD*%
%TA.AperFunction,ComponentPad*%
%ADD12C,6.000000*%
%TD*%
%TA.AperFunction,SMDPad,CuDef*%
%ADD13R,1.300000X1.500000*%
%TD*%
%TA.AperFunction,SMDPad,CuDef*%
%ADD14R,0.700000X3.000000*%
%TD*%
%TA.AperFunction,SMDPad,CuDef*%
%ADD15R,1.500000X1.300000*%
%TD*%
%TA.AperFunction,SMDPad,CuDef*%
%ADD16R,3.000000X0.700000*%
%TD*%
%TA.AperFunction,SMDPad,CuDef*%
%ADD17R,2.000000X29.000000*%
%TD*%
%TA.AperFunction,SMDPad,CuDef*%
%ADD18R,20.100000X2.000000*%
%TD*%
%TA.AperFunction,ComponentPad*%
%ADD19C,1.524000*%
%TD*%
%TA.AperFunction,ComponentPad*%
%ADD20C,1.700000*%
%TD*%
%TA.AperFunction,ViaPad*%
%ADD21C,0.800000*%
%TD*%
%TA.AperFunction,Conductor*%
%ADD22C,0.250000*%
%TD*%
%TA.AperFunction,Conductor*%
%ADD23C,0.400000*%
%TD*%
%TA.AperFunction,Conductor*%
%ADD24C,0.800000*%
%TD*%
G04 APERTURE END LIST*
D10*
%TO.P,BT1,1*%
%TO.N,Net-(BT1-Pad1)*%
X148871322Y-76957139D03*
%TO.P,BT1,2*%
%TO.N,Net-(BT1-Pad2)*%
X148871322Y-106957139D03*
%TD*%
D11*
%TO.P,J1,1*%
%TO.N,GND*%
X158396322Y-108862139D03*
%TO.P,J1,2*%
X158396322Y-111402139D03*
%TO.P,J1,3*%
%TO.N,Net-(C21-Pad3)*%
X155856322Y-108862139D03*
%TO.P,J1,4*%
X155856322Y-111402139D03*
%TO.P,J1,5*%
%TO.N,GND*%
X153316322Y-108862139D03*
%TO.P,J1,6*%
X153316322Y-111402139D03*
%TD*%
%TO.P,J2,1*%
%TO.N,GND*%
X167921322Y-91717139D03*
%TO.P,J2,2*%
X165381322Y-91717139D03*
%TD*%
%TO.P,J3,1*%
%TO.N,/#PeakDetect/Trace*%
X167921322Y-94257139D03*
%TO.P,J3,2*%
X165381322Y-94257139D03*
%TD*%
%TO.P,J4,1*%
%TO.N,GND*%
X167921322Y-96797139D03*
%TO.P,J4,2*%
X165381322Y-96797139D03*
%TD*%
%TO.P,J5,1*%
%TO.N,GND*%
X167921322Y-86637139D03*
%TO.P,J5,2*%
X165381322Y-86637139D03*
%TD*%
%TO.P,J6,1*%
%TO.N,/A/D*%
X167921322Y-89177139D03*
%TO.P,J6,2*%
X165381322Y-89177139D03*
%TD*%
%TO.P,J7,1*%
%TO.N,GND*%
X167921322Y-101877139D03*
%TO.P,J7,2*%
X165381322Y-101877139D03*
%TD*%
D12*
%TO.P,M1,1*%
%TO.N,GND*%
X114581322Y-77747139D03*
%TD*%
%TO.P,M2,1*%
%TO.N,GND*%
X165381322Y-77747139D03*
%TD*%
%TO.P,M3,1*%
%TO.N,GND*%
X165381322Y-108227139D03*
%TD*%
%TO.P,M4,1*%
%TO.N,GND*%
X114581322Y-108227139D03*
%TD*%
D13*
%TO.P,C24,1*%
%TO.N,Net-(BT1-Pad1)*%
X145569322Y-75715139D03*
D14*
%TO.P,C24,2*%
%TO.N,GND*%
X144219322Y-75715139D03*
D13*
%TO.P,C24,3*%
%TO.N,/K*%
X142869322Y-75715139D03*
%TD*%
D15*
%TO.P,C25,1*%
%TO.N,Net-(BT1-Pad2)*%
X158269322Y-106021139D03*
D16*
%TO.P,C25,2*%
%TO.N,GND*%
X158269322Y-104671139D03*
D15*
%TO.P,C25,3*%
%TO.N,/REF*%
X158269322Y-103321139D03*
%TD*%
D11*
%TO.P,J11,1*%
%TO.N,Net-(C23-Pad3)*%
X165381322Y-99337139D03*
%TO.P,J11,2*%
X167921322Y-99337139D03*
%TD*%
D17*
%TO.P,M5,1*%
%TO.N,GND*%
X119636322Y-92517139D03*
D18*
X129186322Y-79017139D03*
D17*
X138736322Y-92517139D03*
D18*
X129186322Y-106017139D03*
%TD*%
D19*
%TO.P,D2,1*%
%TO.N,/K*%
X131051322Y-82667139D03*
D20*
X126051322Y-85207139D03*
%TO.P,D2,2*%
%TO.N,/A*%
X126051322Y-82667139D03*
%TD*%
D21*
%TO.N,GND*%
X127281322Y-100607139D03*
X151471324Y-106957139D03*
X146458322Y-88034139D03*
X149125322Y-92225139D03*
X135409322Y-85875139D03*
X149887322Y-98321139D03*
X148909322Y-89177139D03*
X150141322Y-80922139D03*
X139473322Y-95527139D03*
X126011322Y-87907139D03*
X140616322Y-102512139D03*
X155221322Y-87272139D03*
X145569322Y-79525139D03*
X140743322Y-95527139D03*
X127916322Y-94892139D03*
X155856322Y-79017139D03*
X137441322Y-87145139D03*
X140616322Y-104417139D03*
X143156322Y-101242139D03*
X122201322Y-86002139D03*
X143791322Y-79525139D03*
X129186322Y-100607139D03*
X143156322Y-98067139D03*
X141886322Y-108227139D03*
X141886322Y-104417139D03*
X150141322Y-87437139D03*
X125376322Y-80922139D03*
X143156322Y-111402139D03*
X129186322Y-85367139D03*
X117883322Y-86891139D03*
X127916322Y-85367139D03*
X137441322Y-85875139D03*
X133631322Y-95527139D03*
X132996322Y-101877139D03*
X146331322Y-86637139D03*
X147601322Y-86637139D03*
X163857322Y-84097139D03*
X140616322Y-84732139D03*
X123471322Y-84097139D03*
X160047322Y-84097139D03*
X159666322Y-108227139D03*
X141251322Y-79525139D03*
X146331322Y-98067139D03*
X123471322Y-86002139D03*
X151411322Y-80922139D03*
X145553322Y-88034139D03*
X126011322Y-89177139D03*
X141886322Y-84097139D03*
X120677322Y-91209139D03*
X132996322Y-80922139D03*
X134901322Y-95527139D03*
X148071322Y-99337139D03*
X141886322Y-111402139D03*
X138330322Y-95273139D03*
X146331322Y-111402139D03*
X127281322Y-80922139D03*
X149119508Y-88155325D03*
X129821322Y-94892139D03*
X120677322Y-89939139D03*
X124995322Y-94765139D03*
X144426322Y-111402139D03*
X146331322Y-80795139D03*
X129186322Y-84097139D03*
X160936322Y-90447139D03*
X130456322Y-101877139D03*
X118391322Y-88923139D03*
X126010779Y-86656574D03*
X160301322Y-92987139D03*
X126011322Y-91082139D03*
X125376322Y-100607139D03*
X146331322Y-95400139D03*
X148071322Y-101242139D03*
X129186322Y-80922139D03*
X154586322Y-94892139D03*
X149379322Y-93749139D03*
X122836322Y-100607139D03*
X153316322Y-101242139D03*
X146331322Y-94511139D03*
X120931322Y-100607139D03*
X136806322Y-99337139D03*
X135536322Y-101242139D03*
X152046322Y-79017139D03*
X161825322Y-83843139D03*
X126011322Y-94892139D03*
X142013322Y-95527139D03*
X123471322Y-81557139D03*
X135409322Y-87145139D03*
X154459322Y-90955139D03*
X154586322Y-79017139D03*
X159666322Y-86637139D03*
X141886322Y-86002139D03*
X136171322Y-95527139D03*
X143156322Y-99337139D03*
X141886322Y-102512139D03*
X138330322Y-92733139D03*
X141886322Y-109497139D03*
X128551322Y-92987139D03*
X151471324Y-108227139D03*
X143791322Y-82065139D03*
X140997322Y-78001139D03*
X148236322Y-80922139D03*
X162206322Y-92987139D03*
X138330322Y-94003139D03*
X153316322Y-94892139D03*
X134266322Y-80922139D03*
X154586322Y-86637139D03*
%TO.N,VCC*%
X144553322Y-96797139D03*
X144553322Y-84351139D03*
%TO.N,/K*%
X142775322Y-77747139D03*
%TO.N,/REF*%
X132361322Y-85113139D03*
X156237322Y-103401139D03*
X131354386Y-95402704D03*
X147309322Y-92225139D03*
%TO.N,Net-(R1-Pad2)*%
X149506322Y-90447139D03*
X153316322Y-80287139D03*
%TD*%
D22*
%TO.N,GND*%
X146331322Y-92214833D02*
X146331322Y-95400139D01*
D23*
X138330322Y-94003139D02*
X138330322Y-92733139D01*
D22*
X165381322Y-85625139D02*
X165381322Y-86637139D01*
D23*
X147601322Y-86637139D02*
X146331322Y-86637139D01*
D22*
X132996322Y-101877139D02*
X134901322Y-101877139D01*
X150141322Y-80922139D02*
X151411322Y-80922139D01*
X138330322Y-95273139D02*
X139219322Y-95273139D01*
X146326320Y-111397137D02*
X146331322Y-111402139D01*
D23*
X155221322Y-87272139D02*
X155221322Y-90193139D01*
D22*
X147855322Y-90955139D02*
X146077322Y-91463139D01*
X148236322Y-83462139D02*
X148871322Y-83462139D01*
X140616322Y-102512139D02*
X140616322Y-104417139D01*
X146077322Y-91463139D02*
X146331322Y-92214833D01*
X136806322Y-83462139D02*
X148236322Y-83462139D01*
X123471322Y-84097139D02*
X123471322Y-81557139D01*
X143156322Y-98067139D02*
X143156322Y-99337139D01*
X129186322Y-80922139D02*
X132996322Y-80922139D01*
X145553322Y-88034139D02*
X146458322Y-88034139D01*
X129186322Y-85367139D02*
X127896887Y-86656574D01*
X120677322Y-91209139D02*
X120677322Y-89939139D01*
D23*
X150141322Y-87437139D02*
X150141322Y-87945139D01*
D22*
X129186322Y-84097139D02*
X127916322Y-85367139D01*
X149125322Y-92225139D02*
X149125322Y-93495139D01*
X135409322Y-85875139D02*
X135409322Y-87145139D01*
X134266322Y-80922139D02*
X136806322Y-83462139D01*
X163857322Y-84097139D02*
X164428573Y-84672390D01*
X151471324Y-106957139D02*
X151471324Y-108227139D01*
X140616322Y-84732139D02*
X138584322Y-84732139D01*
X134901322Y-101877139D02*
X135536322Y-101242139D01*
X160936322Y-92352139D02*
X160301322Y-92987139D01*
X160301322Y-83843139D02*
X160047322Y-84097139D01*
X164428573Y-84672390D02*
X165381322Y-85625139D01*
D23*
X143791322Y-82065139D02*
X143791322Y-81303139D01*
D22*
X122201322Y-86002139D02*
X123471322Y-86002139D01*
X141886322Y-104417139D02*
X141886322Y-102512139D01*
X152046322Y-79017139D02*
X154586322Y-79017139D01*
D23*
X155221322Y-90193139D02*
X154459322Y-90955139D01*
D22*
X149671322Y-93607441D02*
X147855322Y-90955139D01*
D23*
X146458322Y-80922139D02*
X146331322Y-80795139D01*
D22*
X125376322Y-80922139D02*
X127281322Y-80922139D01*
D23*
X141886322Y-86002139D02*
X140616322Y-84732139D01*
D22*
X149887322Y-98321139D02*
X149671322Y-93607441D01*
X122201322Y-86002139D02*
X118772322Y-86002139D01*
D23*
X143791322Y-79525139D02*
X141251322Y-79525139D01*
D22*
X146331322Y-95400139D02*
X146331322Y-98067139D01*
X138584322Y-84732139D02*
X137441322Y-85875139D01*
X148871322Y-81557139D02*
X148236322Y-80922139D01*
X149125322Y-93495139D02*
X149379322Y-93749139D01*
X143791322Y-106962141D02*
X143791322Y-103782139D01*
X133631322Y-95527139D02*
X134901322Y-95527139D01*
X125376322Y-100607139D02*
X127281322Y-100607139D01*
X127916322Y-94892139D02*
X129821322Y-94892139D01*
X126011322Y-87907139D02*
X126011322Y-89177139D01*
D23*
X154586322Y-94892139D02*
X153316322Y-94892139D01*
X149837694Y-87437139D02*
X149119508Y-88155325D01*
D22*
X127896887Y-86656574D02*
X126010779Y-86656574D01*
X129186322Y-100607139D02*
X130456322Y-101877139D01*
X140743322Y-95527139D02*
X142013322Y-95527139D01*
X125376322Y-100607139D02*
X122836322Y-100607139D01*
X141886322Y-108227139D02*
X141886322Y-109497139D01*
X148871322Y-83462139D02*
X148871322Y-81557139D01*
X146326320Y-109497139D02*
X143791322Y-106962141D01*
D23*
X150141322Y-87945139D02*
X148909322Y-89177139D01*
D22*
X160936322Y-90447139D02*
X160936322Y-92352139D01*
X146331322Y-94511139D02*
X146331322Y-95400139D01*
X146326320Y-109497139D02*
X146326320Y-111397137D01*
D23*
X150141322Y-87437139D02*
X149837694Y-87437139D01*
D22*
X148071322Y-101242139D02*
X148071322Y-99337139D01*
D23*
X148236322Y-80922139D02*
X146458322Y-80922139D01*
D22*
X118772322Y-86002139D02*
X117883322Y-86891139D01*
D23*
X143791322Y-81303139D02*
X145569322Y-79525139D01*
D22*
X144426322Y-111402139D02*
X143156322Y-111402139D01*
X139219322Y-95273139D02*
X139473322Y-95527139D01*
X161825322Y-83843139D02*
X160301322Y-83843139D01*
D24*
%TO.N,VCC*%
X144553322Y-84351139D02*
X144553322Y-96797139D01*
D23*
%TO.N,/K*%
X142869322Y-75715139D02*
X142869322Y-77653139D01*
X142869322Y-77653139D02*
X142775322Y-77747139D01*
%TO.N,/REF*%
X132361322Y-85113139D02*
X132361322Y-94395768D01*
X148871322Y-96279141D02*
X148871322Y-100099139D01*
X132361322Y-94395768D02*
X131354386Y-95402704D01*
X158269322Y-103321139D02*
X156317322Y-103321139D01*
X147309322Y-92225139D02*
X147309322Y-94717141D01*
X147309322Y-94717141D02*
X148871322Y-96279141D01*
X148871322Y-100099139D02*
X152173322Y-103401139D01*
X156317322Y-103321139D02*
X156237322Y-103401139D01*
X155671637Y-103401139D02*
X156237322Y-103401139D01*
X152173322Y-103401139D02*
X155671637Y-103401139D01*
%TO.N,Net-(BT1-Pad1)*%
X147629322Y-75715139D02*
X148871322Y-76957139D01*
X145569322Y-75715139D02*
X147629322Y-75715139D01*
%TO.N,Net-(BT1-Pad2)*%
X148871322Y-106957139D02*
X148871322Y-106457139D01*
X148871322Y-106457139D02*
X150149322Y-105179139D01*
X149807322Y-106021139D02*
X148871322Y-106957139D01*
X158269322Y-106021139D02*
X149807322Y-106021139D01*
%TO.N,Net-(R1-Pad2)*%
X153316322Y-86637139D02*
X153316322Y-80287139D01*
X149506322Y-90447139D02*
X153316322Y-86637139D01*
%TD*%
%TA.AperFunction,Conductor*%
%TO.N,GND*%
G36*
X169641443Y-73449141D02*
G01*
X169687936Y-73502797D01*
X169699322Y-73555139D01*
X169699322Y-112419139D01*
X169679320Y-112487260D01*
X169625664Y-112533753D01*
X169573322Y-112545139D01*
X157200390Y-112545139D01*
X157132269Y-112525137D01*
X157085776Y-112471481D01*
X157075672Y-112401207D01*
X157082408Y-112374909D01*
X157117293Y-112281854D01*
X157120067Y-112274455D01*
X157126822Y-112212273D01*
X157126822Y-110592005D01*
X157120067Y-110529823D01*
X157068937Y-110393434D01*
X156981583Y-110276878D01*
X156922990Y-110232965D01*
X156880475Y-110176106D01*
X156875449Y-110105287D01*
X156909509Y-110042994D01*
X156922990Y-110031313D01*
X156974403Y-109992781D01*
X156981583Y-109987400D01*
X157068937Y-109870844D01*
X157120067Y-109734455D01*
X157126822Y-109672273D01*
X157126822Y-108052005D01*
X157120067Y-107989823D01*
X157068937Y-107853434D01*
X156981583Y-107736878D01*
X156865027Y-107649524D01*
X156728638Y-107598394D01*
X156666456Y-107591639D01*
X155046188Y-107591639D01*
X154984006Y-107598394D01*
X154847617Y-107649524D01*
X154731061Y-107736878D01*
X154643707Y-107853434D01*
X154592577Y-107989823D01*
X154585822Y-108052005D01*
X154585822Y-109672273D01*
X154592577Y-109734455D01*
X154643707Y-109870844D01*
X154731061Y-109987400D01*
X154738241Y-109992781D01*
X154789654Y-110031313D01*
X154832169Y-110088172D01*
X154837195Y-110158991D01*
X154803135Y-110221284D01*
X154789655Y-110232964D01*
X154731061Y-110276878D01*
X154643707Y-110393434D01*
X154592577Y-110529823D01*
X154585822Y-110592005D01*
X154585822Y-112212273D01*
X154592577Y-112274455D01*
X154595351Y-112281854D01*
X154630236Y-112374909D01*
X154635419Y-112445716D01*
X154601498Y-112508085D01*
X154539243Y-112542215D01*
X154512254Y-112545139D01*
X110389322Y-112545139D01*
X110321201Y-112525137D01*
X110274708Y-112471481D01*
X110263322Y-112419139D01*
X110263322Y-109505273D01*
X146362822Y-109505273D01*
X146369577Y-109567455D01*
X146420707Y-109703844D01*
X146508061Y-109820400D01*
X146624617Y-109907754D01*
X146761006Y-109958884D01*
X146823188Y-109965639D01*
X150919456Y-109965639D01*
X150981638Y-109958884D01*
X151118027Y-109907754D01*
X151234583Y-109820400D01*
X151321937Y-109703844D01*
X151373067Y-109567455D01*
X151379822Y-109505273D01*
X151379822Y-106855639D01*
X151399824Y-106787518D01*
X151453480Y-106741025D01*
X151505822Y-106729639D01*
X156910824Y-106729639D01*
X156978945Y-106749641D01*
X157025438Y-106803297D01*
X157028806Y-106811409D01*
X157068707Y-106917844D01*
X157156061Y-107034400D01*
X157272617Y-107121754D01*
X157409006Y-107172884D01*
X157471188Y-107179639D01*
X159067456Y-107179639D01*
X159129638Y-107172884D01*
X159266027Y-107121754D01*
X159382583Y-107034400D01*
X159469937Y-106917844D01*
X159521067Y-106781455D01*
X159527822Y-106719273D01*
X159527822Y-105323005D01*
X159521067Y-105260823D01*
X159469937Y-105124434D01*
X159382583Y-105007878D01*
X159266027Y-104920524D01*
X159129638Y-104869394D01*
X159067456Y-104862639D01*
X157471188Y-104862639D01*
X157409006Y-104869394D01*
X157272617Y-104920524D01*
X157156061Y-105007878D01*
X157068707Y-105124434D01*
X157065555Y-105132842D01*
X157028806Y-105230869D01*
X156986164Y-105287633D01*
X156919603Y-105312333D01*
X156910824Y-105312639D01*
X151505822Y-105312639D01*
X151437701Y-105292637D01*
X151391208Y-105238981D01*
X151379822Y-105186639D01*
X151379822Y-104409005D01*
X151373067Y-104346823D01*
X151321937Y-104210434D01*
X151234583Y-104093878D01*
X151118027Y-104006524D01*
X150981638Y-103955394D01*
X150919456Y-103948639D01*
X146823188Y-103948639D01*
X146761006Y-103955394D01*
X146624617Y-104006524D01*
X146508061Y-104093878D01*
X146420707Y-104210434D01*
X146369577Y-104346823D01*
X146362822Y-104409005D01*
X146362822Y-109505273D01*
X110263322Y-109505273D01*
X110263322Y-96797139D01*
X143639818Y-96797139D01*
X143644822Y-96844749D01*
X143659780Y-96987067D01*
X143718795Y-97168695D01*
X143814282Y-97334083D01*
X143942069Y-97476005D01*
X144096570Y-97588257D01*
X144102598Y-97590941D01*
X144102600Y-97590942D01*
X144265003Y-97663248D01*
X144271034Y-97665933D01*
X144364434Y-97685786D01*
X144451378Y-97704267D01*
X144451383Y-97704267D01*
X144457835Y-97705639D01*
X144648809Y-97705639D01*
X144655261Y-97704267D01*
X144655266Y-97704267D01*
X144742210Y-97685786D01*
X144835610Y-97665933D01*
X144841641Y-97663248D01*
X145004044Y-97590942D01*
X145004046Y-97590941D01*
X145010074Y-97588257D01*
X145164575Y-97476005D01*
X145292362Y-97334083D01*
X145387849Y-97168695D01*
X145446864Y-96987067D01*
X145461822Y-96844749D01*
X145466826Y-96797139D01*
X145462512Y-96756094D01*
X145461822Y-96742923D01*
X145461822Y-92225139D01*
X146395818Y-92225139D01*
X146415780Y-92415067D01*
X146474795Y-92596695D01*
X146570282Y-92762083D01*
X146574701Y-92766991D01*
X146576758Y-92769822D01*
X146600617Y-92836690D01*
X146600822Y-92843883D01*
X146600822Y-94688229D01*
X146600530Y-94696799D01*
X146596597Y-94754493D01*
X146597902Y-94761970D01*
X146597902Y-94761971D01*
X146607583Y-94817440D01*
X146608545Y-94823962D01*
X146616220Y-94887383D01*
X146618903Y-94894484D01*
X146619544Y-94897093D01*
X146624007Y-94913403D01*
X146624772Y-94915939D01*
X146626079Y-94923425D01*
X146629133Y-94930382D01*
X146651764Y-94981936D01*
X146654255Y-94988040D01*
X146676835Y-95047797D01*
X146681139Y-95054060D01*
X146682376Y-95056426D01*
X146690621Y-95071238D01*
X146691954Y-95073492D01*
X146695007Y-95080446D01*
X146726586Y-95121599D01*
X146733901Y-95131132D01*
X146737781Y-95136473D01*
X146769661Y-95182861D01*
X146769666Y-95182866D01*
X146773965Y-95189122D01*
X146779635Y-95194173D01*
X146779636Y-95194175D01*
X146820492Y-95230576D01*
X146825768Y-95235557D01*
X148125917Y-96535706D01*
X148159943Y-96598018D01*
X148162822Y-96624801D01*
X148162822Y-100070227D01*
X148162530Y-100078797D01*
X148158597Y-100136491D01*
X148159902Y-100143968D01*
X148159902Y-100143969D01*
X148169583Y-100199438D01*
X148170545Y-100205960D01*
X148178220Y-100269381D01*
X148180903Y-100276482D01*
X148181544Y-100279091D01*
X148186007Y-100295401D01*
X148186772Y-100297937D01*
X148188079Y-100305423D01*
X148191133Y-100312380D01*
X148213764Y-100363934D01*
X148216255Y-100370038D01*
X148238835Y-100429795D01*
X148243139Y-100436058D01*
X148244376Y-100438424D01*
X148252621Y-100453236D01*
X148253954Y-100455490D01*
X148257007Y-100462444D01*
X148261629Y-100468467D01*
X148295901Y-100513130D01*
X148299781Y-100518471D01*
X148331661Y-100564859D01*
X148331666Y-100564864D01*
X148335965Y-100571120D01*
X148341635Y-100576171D01*
X148341636Y-100576173D01*
X148382492Y-100612574D01*
X148387768Y-100617555D01*
X151651879Y-103881667D01*
X151657733Y-103887932D01*
X151695761Y-103931524D01*
X151748051Y-103968275D01*
X151753293Y-103972167D01*
X151803604Y-104011615D01*
X151810523Y-104014739D01*
X151812815Y-104016127D01*
X151827487Y-104024496D01*
X151829847Y-104025761D01*
X151836061Y-104030129D01*
X151843140Y-104032889D01*
X151843142Y-104032890D01*
X151895597Y-104053341D01*
X151901666Y-104055892D01*
X151959895Y-104082184D01*
X151967368Y-104083569D01*
X151969934Y-104084373D01*
X151986157Y-104088994D01*
X151988749Y-104089659D01*
X151995831Y-104092421D01*
X152003366Y-104093413D01*
X152059183Y-104100761D01*
X152065699Y-104101793D01*
X152104092Y-104108909D01*
X152128508Y-104113434D01*
X152136088Y-104112997D01*
X152136089Y-104112997D01*
X152190702Y-104109848D01*
X152197955Y-104109639D01*
X155625917Y-104109639D01*
X155694038Y-104129641D01*
X155699978Y-104133703D01*
X155780570Y-104192257D01*
X155786598Y-104194941D01*
X155786600Y-104194942D01*
X155949003Y-104267248D01*
X155955034Y-104269933D01*
X156048435Y-104289786D01*
X156135378Y-104308267D01*
X156135383Y-104308267D01*
X156141835Y-104309639D01*
X156332809Y-104309639D01*
X156339261Y-104308267D01*
X156339266Y-104308267D01*
X156426209Y-104289786D01*
X156519610Y-104269933D01*
X156525641Y-104267248D01*
X156688044Y-104194942D01*
X156688046Y-104194941D01*
X156694074Y-104192257D01*
X156847042Y-104081118D01*
X156913908Y-104057261D01*
X156983060Y-104073341D01*
X157032540Y-104124254D01*
X157039084Y-104138825D01*
X157068707Y-104217844D01*
X157156061Y-104334400D01*
X157272617Y-104421754D01*
X157409006Y-104472884D01*
X157471188Y-104479639D01*
X159067456Y-104479639D01*
X159129638Y-104472884D01*
X159266027Y-104421754D01*
X159382583Y-104334400D01*
X159469937Y-104217844D01*
X159521067Y-104081455D01*
X159527822Y-104019273D01*
X159527822Y-102623005D01*
X159521067Y-102560823D01*
X159469937Y-102424434D01*
X159382583Y-102307878D01*
X159266027Y-102220524D01*
X159129638Y-102169394D01*
X159067456Y-102162639D01*
X157471188Y-102162639D01*
X157409006Y-102169394D01*
X157272617Y-102220524D01*
X157156061Y-102307878D01*
X157068707Y-102424434D01*
X157065555Y-102432842D01*
X157028806Y-102530869D01*
X156986164Y-102587633D01*
X156919603Y-102612333D01*
X156910824Y-102612639D01*
X156726737Y-102612639D01*
X156675488Y-102601746D01*
X156525641Y-102535030D01*
X156525640Y-102535030D01*
X156519610Y-102532345D01*
X156426209Y-102512492D01*
X156339266Y-102494011D01*
X156339261Y-102494011D01*
X156332809Y-102492639D01*
X156141835Y-102492639D01*
X156135383Y-102494011D01*
X156135378Y-102494011D01*
X156048435Y-102512492D01*
X155955034Y-102532345D01*
X155949004Y-102535030D01*
X155949003Y-102535030D01*
X155786600Y-102607336D01*
X155786598Y-102607337D01*
X155780570Y-102610021D01*
X155775229Y-102613901D01*
X155775228Y-102613902D01*
X155699978Y-102668575D01*
X155633111Y-102692433D01*
X155625917Y-102692639D01*
X152518982Y-102692639D01*
X152450861Y-102672637D01*
X152429887Y-102655734D01*
X149921426Y-100147273D01*
X164110822Y-100147273D01*
X164117577Y-100209455D01*
X164168707Y-100345844D01*
X164256061Y-100462400D01*
X164372617Y-100549754D01*
X164509006Y-100600884D01*
X164571188Y-100607639D01*
X166191456Y-100607639D01*
X166253638Y-100600884D01*
X166390027Y-100549754D01*
X166506583Y-100462400D01*
X166550496Y-100403807D01*
X166607355Y-100361292D01*
X166678174Y-100356266D01*
X166740467Y-100390326D01*
X166752147Y-100403806D01*
X166796061Y-100462400D01*
X166912617Y-100549754D01*
X167049006Y-100600884D01*
X167111188Y-100607639D01*
X168731456Y-100607639D01*
X168793638Y-100600884D01*
X168930027Y-100549754D01*
X169046583Y-100462400D01*
X169133937Y-100345844D01*
X169185067Y-100209455D01*
X169191822Y-100147273D01*
X169191822Y-98527005D01*
X169185067Y-98464823D01*
X169133937Y-98328434D01*
X169046583Y-98211878D01*
X168930027Y-98124524D01*
X168793638Y-98073394D01*
X168731456Y-98066639D01*
X167111188Y-98066639D01*
X167049006Y-98073394D01*
X166912617Y-98124524D01*
X166796061Y-98211878D01*
X166790680Y-98219058D01*
X166752148Y-98270471D01*
X166695289Y-98312986D01*
X166624470Y-98318012D01*
X166562177Y-98283952D01*
X166550496Y-98270471D01*
X166511964Y-98219058D01*
X166506583Y-98211878D01*
X166390027Y-98124524D01*
X166253638Y-98073394D01*
X166191456Y-98066639D01*
X164571188Y-98066639D01*
X164509006Y-98073394D01*
X164372617Y-98124524D01*
X164256061Y-98211878D01*
X164168707Y-98328434D01*
X164117577Y-98464823D01*
X164110822Y-98527005D01*
X164110822Y-100147273D01*
X149921426Y-100147273D01*
X149616727Y-99842574D01*
X149582701Y-99780262D01*
X149579822Y-99753479D01*
X149579822Y-96308068D01*
X149580114Y-96299499D01*
X149583532Y-96249366D01*
X149583532Y-96249362D01*
X149584048Y-96241789D01*
X149573058Y-96178822D01*
X149572097Y-96172306D01*
X149565336Y-96116439D01*
X149564424Y-96108899D01*
X149561741Y-96101798D01*
X149561100Y-96099189D01*
X149556635Y-96082869D01*
X149555870Y-96080336D01*
X149554565Y-96072858D01*
X149528874Y-96014331D01*
X149526389Y-96008243D01*
X149506494Y-95955590D01*
X149506493Y-95955588D01*
X149503809Y-95948485D01*
X149499508Y-95942226D01*
X149498271Y-95939861D01*
X149490049Y-95925089D01*
X149488694Y-95922797D01*
X149485638Y-95915836D01*
X149481013Y-95909809D01*
X149481011Y-95909805D01*
X149446729Y-95865128D01*
X149442851Y-95859791D01*
X149410981Y-95813419D01*
X149410980Y-95813418D01*
X149406679Y-95807160D01*
X149360160Y-95765713D01*
X149354885Y-95760733D01*
X148661424Y-95067273D01*
X164110822Y-95067273D01*
X164117577Y-95129455D01*
X164168707Y-95265844D01*
X164256061Y-95382400D01*
X164372617Y-95469754D01*
X164509006Y-95520884D01*
X164571188Y-95527639D01*
X166191456Y-95527639D01*
X166253638Y-95520884D01*
X166390027Y-95469754D01*
X166506583Y-95382400D01*
X166550496Y-95323807D01*
X166607355Y-95281292D01*
X166678174Y-95276266D01*
X166740467Y-95310326D01*
X166752147Y-95323806D01*
X166796061Y-95382400D01*
X166912617Y-95469754D01*
X167049006Y-95520884D01*
X167111188Y-95527639D01*
X168731456Y-95527639D01*
X168793638Y-95520884D01*
X168930027Y-95469754D01*
X169046583Y-95382400D01*
X169133937Y-95265844D01*
X169185067Y-95129455D01*
X169191822Y-95067273D01*
X169191822Y-93447005D01*
X169185067Y-93384823D01*
X169133937Y-93248434D01*
X169046583Y-93131878D01*
X168930027Y-93044524D01*
X168793638Y-92993394D01*
X168731456Y-92986639D01*
X167111188Y-92986639D01*
X167049006Y-92993394D01*
X166912617Y-93044524D01*
X166796061Y-93131878D01*
X166790680Y-93139058D01*
X166752148Y-93190471D01*
X166695289Y-93232986D01*
X166624470Y-93238012D01*
X166562177Y-93203952D01*
X166550496Y-93190471D01*
X166511964Y-93139058D01*
X166506583Y-93131878D01*
X166390027Y-93044524D01*
X166253638Y-92993394D01*
X166191456Y-92986639D01*
X164571188Y-92986639D01*
X164509006Y-92993394D01*
X164372617Y-93044524D01*
X164256061Y-93131878D01*
X164168707Y-93248434D01*
X164117577Y-93384823D01*
X164110822Y-93447005D01*
X164110822Y-95067273D01*
X148661424Y-95067273D01*
X148054727Y-94460576D01*
X148020702Y-94398264D01*
X148017822Y-94371481D01*
X148017822Y-92843883D01*
X148037824Y-92775762D01*
X148041886Y-92769822D01*
X148043943Y-92766991D01*
X148048362Y-92762083D01*
X148143849Y-92596695D01*
X148202864Y-92415067D01*
X148222826Y-92225139D01*
X148202864Y-92035211D01*
X148143849Y-91853583D01*
X148048362Y-91688195D01*
X147920575Y-91546273D01*
X147766074Y-91434021D01*
X147760046Y-91431337D01*
X147760044Y-91431336D01*
X147597641Y-91359030D01*
X147597640Y-91359030D01*
X147591610Y-91356345D01*
X147498209Y-91336492D01*
X147411266Y-91318011D01*
X147411261Y-91318011D01*
X147404809Y-91316639D01*
X147213835Y-91316639D01*
X147207383Y-91318011D01*
X147207378Y-91318011D01*
X147120435Y-91336492D01*
X147027034Y-91356345D01*
X147021004Y-91359030D01*
X147021003Y-91359030D01*
X146858600Y-91431336D01*
X146858598Y-91431337D01*
X146852570Y-91434021D01*
X146698069Y-91546273D01*
X146570282Y-91688195D01*
X146474795Y-91853583D01*
X146415780Y-92035211D01*
X146395818Y-92225139D01*
X145461822Y-92225139D01*
X145461822Y-90447139D01*
X148592818Y-90447139D01*
X148612780Y-90637067D01*
X148671795Y-90818695D01*
X148767282Y-90984083D01*
X148895069Y-91126005D01*
X149049570Y-91238257D01*
X149055598Y-91240941D01*
X149055600Y-91240942D01*
X149218003Y-91313248D01*
X149224034Y-91315933D01*
X149317435Y-91335786D01*
X149404378Y-91354267D01*
X149404383Y-91354267D01*
X149410835Y-91355639D01*
X149601809Y-91355639D01*
X149608261Y-91354267D01*
X149608266Y-91354267D01*
X149695209Y-91335786D01*
X149788610Y-91315933D01*
X149794641Y-91313248D01*
X149957044Y-91240942D01*
X149957046Y-91240941D01*
X149963074Y-91238257D01*
X150117575Y-91126005D01*
X150245362Y-90984083D01*
X150340849Y-90818695D01*
X150399864Y-90637067D01*
X150404772Y-90590369D01*
X150431785Y-90524712D01*
X150440987Y-90514444D01*
X150968158Y-89987273D01*
X164110822Y-89987273D01*
X164117577Y-90049455D01*
X164168707Y-90185844D01*
X164256061Y-90302400D01*
X164372617Y-90389754D01*
X164509006Y-90440884D01*
X164571188Y-90447639D01*
X166191456Y-90447639D01*
X166253638Y-90440884D01*
X166390027Y-90389754D01*
X166506583Y-90302400D01*
X166550496Y-90243807D01*
X166607355Y-90201292D01*
X166678174Y-90196266D01*
X166740467Y-90230326D01*
X166752147Y-90243806D01*
X166796061Y-90302400D01*
X166912617Y-90389754D01*
X167049006Y-90440884D01*
X167111188Y-90447639D01*
X168731456Y-90447639D01*
X168793638Y-90440884D01*
X168930027Y-90389754D01*
X169046583Y-90302400D01*
X169133937Y-90185844D01*
X169185067Y-90049455D01*
X169191822Y-89987273D01*
X169191822Y-88367005D01*
X169185067Y-88304823D01*
X169133937Y-88168434D01*
X169046583Y-88051878D01*
X168930027Y-87964524D01*
X168793638Y-87913394D01*
X168731456Y-87906639D01*
X167111188Y-87906639D01*
X167049006Y-87913394D01*
X166912617Y-87964524D01*
X166796061Y-88051878D01*
X166790680Y-88059058D01*
X166752148Y-88110471D01*
X166695289Y-88152986D01*
X166624470Y-88158012D01*
X166562177Y-88123952D01*
X166550496Y-88110471D01*
X166511964Y-88059058D01*
X166506583Y-88051878D01*
X166390027Y-87964524D01*
X166253638Y-87913394D01*
X166191456Y-87906639D01*
X164571188Y-87906639D01*
X164509006Y-87913394D01*
X164372617Y-87964524D01*
X164256061Y-88051878D01*
X164168707Y-88168434D01*
X164117577Y-88304823D01*
X164110822Y-88367005D01*
X164110822Y-89987273D01*
X150968158Y-89987273D01*
X153796842Y-87158589D01*
X153803107Y-87152735D01*
X153840982Y-87119694D01*
X153846707Y-87114700D01*
X153883436Y-87062439D01*
X153887368Y-87057144D01*
X153922113Y-87012833D01*
X153926799Y-87006857D01*
X153929924Y-86999935D01*
X153931286Y-86997687D01*
X153939690Y-86982954D01*
X153940944Y-86980615D01*
X153945312Y-86974400D01*
X153948071Y-86967324D01*
X153948073Y-86967320D01*
X153968522Y-86914870D01*
X153971071Y-86908805D01*
X153997367Y-86850566D01*
X153998751Y-86843101D01*
X153999548Y-86840557D01*
X154004181Y-86824291D01*
X154004843Y-86821711D01*
X154007604Y-86814630D01*
X154015944Y-86751282D01*
X154016975Y-86744768D01*
X154027234Y-86689417D01*
X154028618Y-86681952D01*
X154025031Y-86619741D01*
X154024822Y-86612488D01*
X154024822Y-80905883D01*
X154044824Y-80837762D01*
X154048886Y-80831822D01*
X154050943Y-80828991D01*
X154055362Y-80824083D01*
X154150849Y-80658695D01*
X154209864Y-80477067D01*
X154229826Y-80287139D01*
X154209864Y-80097211D01*
X154150849Y-79915583D01*
X154055362Y-79750195D01*
X154013628Y-79703844D01*
X153931997Y-79613184D01*
X153931996Y-79613183D01*
X153927575Y-79608273D01*
X153773074Y-79496021D01*
X153767046Y-79493337D01*
X153767044Y-79493336D01*
X153604641Y-79421030D01*
X153604640Y-79421030D01*
X153598610Y-79418345D01*
X153505209Y-79398492D01*
X153418266Y-79380011D01*
X153418261Y-79380011D01*
X153411809Y-79378639D01*
X153220835Y-79378639D01*
X153214383Y-79380011D01*
X153214378Y-79380011D01*
X153127435Y-79398492D01*
X153034034Y-79418345D01*
X153028004Y-79421030D01*
X153028003Y-79421030D01*
X152865600Y-79493336D01*
X152865598Y-79493337D01*
X152859570Y-79496021D01*
X152705069Y-79608273D01*
X152700648Y-79613183D01*
X152700647Y-79613184D01*
X152619017Y-79703844D01*
X152577282Y-79750195D01*
X152481795Y-79915583D01*
X152422780Y-80097211D01*
X152402818Y-80287139D01*
X152422780Y-80477067D01*
X152481795Y-80658695D01*
X152577282Y-80824083D01*
X152581701Y-80828991D01*
X152583758Y-80831822D01*
X152607617Y-80898690D01*
X152607822Y-80905883D01*
X152607822Y-86291478D01*
X152587820Y-86359599D01*
X152570917Y-86380573D01*
X149439789Y-89511702D01*
X149376891Y-89545854D01*
X149224034Y-89578345D01*
X149218004Y-89581030D01*
X149218003Y-89581030D01*
X149055600Y-89653336D01*
X149055598Y-89653337D01*
X149049570Y-89656021D01*
X148895069Y-89768273D01*
X148767282Y-89910195D01*
X148671795Y-90075583D01*
X148612780Y-90257211D01*
X148612090Y-90263772D01*
X148612090Y-90263774D01*
X148607465Y-90307781D01*
X148592818Y-90447139D01*
X145461822Y-90447139D01*
X145461822Y-84405355D01*
X145462512Y-84392184D01*
X145466136Y-84357704D01*
X145466826Y-84351139D01*
X145455602Y-84244345D01*
X145447554Y-84167774D01*
X145447554Y-84167772D01*
X145446864Y-84161211D01*
X145387849Y-83979583D01*
X145378724Y-83963777D01*
X145322850Y-83867002D01*
X145292362Y-83814195D01*
X145164575Y-83672273D01*
X145010074Y-83560021D01*
X145004046Y-83557337D01*
X145004044Y-83557336D01*
X144841641Y-83485030D01*
X144841640Y-83485030D01*
X144835610Y-83482345D01*
X144742210Y-83462492D01*
X144655266Y-83444011D01*
X144655261Y-83444011D01*
X144648809Y-83442639D01*
X144457835Y-83442639D01*
X144451383Y-83444011D01*
X144451378Y-83444011D01*
X144364434Y-83462492D01*
X144271034Y-83482345D01*
X144265004Y-83485030D01*
X144265003Y-83485030D01*
X144102600Y-83557336D01*
X144102598Y-83557337D01*
X144096570Y-83560021D01*
X143942069Y-83672273D01*
X143814282Y-83814195D01*
X143783794Y-83867002D01*
X143727921Y-83963777D01*
X143718795Y-83979583D01*
X143659780Y-84161211D01*
X143659090Y-84167772D01*
X143659090Y-84167774D01*
X143651042Y-84244345D01*
X143639818Y-84351139D01*
X143640508Y-84357704D01*
X143644132Y-84392184D01*
X143644822Y-84405355D01*
X143644822Y-96742923D01*
X143644132Y-96756094D01*
X143639818Y-96797139D01*
X110263322Y-96797139D01*
X110263322Y-95402704D01*
X130440882Y-95402704D01*
X130441572Y-95409269D01*
X130453012Y-95518110D01*
X130460844Y-95592632D01*
X130519859Y-95774260D01*
X130523162Y-95779982D01*
X130523163Y-95779983D01*
X130557072Y-95838714D01*
X130615346Y-95939648D01*
X130743133Y-96081570D01*
X130897634Y-96193822D01*
X130903662Y-96196506D01*
X130903664Y-96196507D01*
X130988576Y-96234312D01*
X131072098Y-96271498D01*
X131165499Y-96291351D01*
X131252442Y-96309832D01*
X131252447Y-96309832D01*
X131258899Y-96311204D01*
X131449873Y-96311204D01*
X131456325Y-96309832D01*
X131456330Y-96309832D01*
X131543274Y-96291351D01*
X131636674Y-96271498D01*
X131720196Y-96234312D01*
X131805108Y-96196507D01*
X131805110Y-96196506D01*
X131811138Y-96193822D01*
X131965639Y-96081570D01*
X132093426Y-95939648D01*
X132151700Y-95838714D01*
X132185609Y-95779983D01*
X132185610Y-95779982D01*
X132188913Y-95774260D01*
X132247928Y-95592632D01*
X132252836Y-95545934D01*
X132279849Y-95480277D01*
X132289051Y-95470009D01*
X132841842Y-94917218D01*
X132848107Y-94911364D01*
X132864466Y-94897093D01*
X132891707Y-94873329D01*
X132928436Y-94821068D01*
X132932368Y-94815773D01*
X132967113Y-94771462D01*
X132971799Y-94765486D01*
X132974924Y-94758564D01*
X132976286Y-94756316D01*
X132984690Y-94741583D01*
X132985944Y-94739244D01*
X132990312Y-94733029D01*
X132993071Y-94725953D01*
X132993073Y-94725949D01*
X133013524Y-94673494D01*
X133016080Y-94667414D01*
X133039240Y-94616119D01*
X133042367Y-94609194D01*
X133043751Y-94601723D01*
X133044552Y-94599169D01*
X133049189Y-94582890D01*
X133049845Y-94580335D01*
X133052604Y-94573259D01*
X133060943Y-94509917D01*
X133061975Y-94503401D01*
X133072234Y-94448048D01*
X133073618Y-94440581D01*
X133070031Y-94378370D01*
X133069822Y-94371117D01*
X133069822Y-85731883D01*
X133089824Y-85663762D01*
X133093886Y-85657822D01*
X133095943Y-85654991D01*
X133100362Y-85650083D01*
X133117982Y-85619564D01*
X133192545Y-85490418D01*
X133192546Y-85490417D01*
X133195849Y-85484695D01*
X133254864Y-85303067D01*
X133274826Y-85113139D01*
X133254864Y-84923211D01*
X133195849Y-84741583D01*
X133100362Y-84576195D01*
X132972575Y-84434273D01*
X132850445Y-84345540D01*
X132823416Y-84325902D01*
X132823415Y-84325901D01*
X132818074Y-84322021D01*
X132812046Y-84319337D01*
X132812044Y-84319336D01*
X132649641Y-84247030D01*
X132649640Y-84247030D01*
X132643610Y-84244345D01*
X132550210Y-84224492D01*
X132463266Y-84206011D01*
X132463261Y-84206011D01*
X132456809Y-84204639D01*
X132265835Y-84204639D01*
X132259383Y-84206011D01*
X132259378Y-84206011D01*
X132172434Y-84224492D01*
X132079034Y-84244345D01*
X132073004Y-84247030D01*
X132073003Y-84247030D01*
X131910600Y-84319336D01*
X131910598Y-84319337D01*
X131904570Y-84322021D01*
X131899229Y-84325901D01*
X131899228Y-84325902D01*
X131872199Y-84345540D01*
X131750069Y-84434273D01*
X131622282Y-84576195D01*
X131526795Y-84741583D01*
X131467780Y-84923211D01*
X131447818Y-85113139D01*
X131467780Y-85303067D01*
X131526795Y-85484695D01*
X131530098Y-85490417D01*
X131530099Y-85490418D01*
X131604662Y-85619564D01*
X131622282Y-85650083D01*
X131626701Y-85654991D01*
X131628758Y-85657822D01*
X131652617Y-85724690D01*
X131652822Y-85731883D01*
X131652822Y-94050106D01*
X131632820Y-94118227D01*
X131615918Y-94139201D01*
X131287853Y-94467267D01*
X131224954Y-94501419D01*
X131172281Y-94512615D01*
X131072098Y-94533910D01*
X131066068Y-94536595D01*
X131066067Y-94536595D01*
X130903664Y-94608901D01*
X130903662Y-94608902D01*
X130897634Y-94611586D01*
X130743133Y-94723838D01*
X130738712Y-94728748D01*
X130738711Y-94728749D01*
X130721034Y-94748382D01*
X130615346Y-94865760D01*
X130519859Y-95031148D01*
X130460844Y-95212776D01*
X130460154Y-95219337D01*
X130460154Y-95219339D01*
X130456150Y-95257436D01*
X130440882Y-95402704D01*
X110263322Y-95402704D01*
X110263322Y-85173834D01*
X124688573Y-85173834D01*
X124688870Y-85178987D01*
X124688870Y-85178990D01*
X124694333Y-85273729D01*
X124701432Y-85396854D01*
X124702569Y-85401900D01*
X124702570Y-85401906D01*
X124719812Y-85478410D01*
X124750544Y-85614778D01*
X124834588Y-85821755D01*
X124951309Y-86012227D01*
X125097572Y-86181077D01*
X125269448Y-86323771D01*
X125462322Y-86436477D01*
X125671014Y-86516169D01*
X125676082Y-86517200D01*
X125676085Y-86517201D01*
X125783339Y-86539022D01*
X125889919Y-86560706D01*
X125895094Y-86560896D01*
X125895096Y-86560896D01*
X126107995Y-86568703D01*
X126107999Y-86568703D01*
X126113159Y-86568892D01*
X126118279Y-86568236D01*
X126118281Y-86568236D01*
X126329610Y-86541164D01*
X126329611Y-86541164D01*
X126334738Y-86540507D01*
X126339688Y-86539022D01*
X126543751Y-86477800D01*
X126543756Y-86477798D01*
X126548706Y-86476313D01*
X126749316Y-86378035D01*
X126931182Y-86248312D01*
X127089418Y-86090628D01*
X127148916Y-86007828D01*
X127216757Y-85913416D01*
X127219775Y-85909216D01*
X127318752Y-85708950D01*
X127383692Y-85495208D01*
X127412851Y-85273729D01*
X127414478Y-85207139D01*
X127396174Y-84984500D01*
X127341753Y-84767841D01*
X127252676Y-84562979D01*
X127213228Y-84502001D01*
X127134144Y-84379756D01*
X127134142Y-84379753D01*
X127131336Y-84375416D01*
X126980992Y-84210190D01*
X126976941Y-84206991D01*
X126976937Y-84206987D01*
X126809736Y-84074939D01*
X126809732Y-84074937D01*
X126805681Y-84071737D01*
X126764375Y-84048935D01*
X126714406Y-83998503D01*
X126699634Y-83929060D01*
X126724750Y-83862655D01*
X126752102Y-83836048D01*
X126795925Y-83804789D01*
X126931182Y-83708312D01*
X127089418Y-83550628D01*
X127148916Y-83467828D01*
X127216757Y-83373416D01*
X127219775Y-83369216D01*
X127249376Y-83309324D01*
X127316458Y-83173592D01*
X127316459Y-83173590D01*
X127318752Y-83168950D01*
X127383692Y-82955208D01*
X127412851Y-82733729D01*
X127414478Y-82667139D01*
X129775969Y-82667139D01*
X129795344Y-82888602D01*
X129796768Y-82893915D01*
X129846513Y-83079564D01*
X129852882Y-83103335D01*
X129855204Y-83108316D01*
X129855205Y-83108317D01*
X129944508Y-83299828D01*
X129944511Y-83299833D01*
X129946834Y-83304815D01*
X129949990Y-83309322D01*
X129949991Y-83309324D01*
X130071142Y-83482345D01*
X130074345Y-83486920D01*
X130231541Y-83644116D01*
X130236049Y-83647273D01*
X130236052Y-83647275D01*
X130271753Y-83672273D01*
X130413645Y-83771627D01*
X130418627Y-83773950D01*
X130418632Y-83773953D01*
X130608855Y-83862655D01*
X130615126Y-83865579D01*
X130620434Y-83867001D01*
X130620436Y-83867002D01*
X130686271Y-83884642D01*
X130829859Y-83923117D01*
X131051322Y-83942492D01*
X131272785Y-83923117D01*
X131416373Y-83884642D01*
X131482208Y-83867002D01*
X131482210Y-83867001D01*
X131487518Y-83865579D01*
X131493789Y-83862655D01*
X131684012Y-83773953D01*
X131684017Y-83773950D01*
X131688999Y-83771627D01*
X131830891Y-83672273D01*
X131866592Y-83647275D01*
X131866595Y-83647273D01*
X131871103Y-83644116D01*
X132028299Y-83486920D01*
X132031503Y-83482345D01*
X132152653Y-83309324D01*
X132152654Y-83309322D01*
X132155810Y-83304815D01*
X132158133Y-83299833D01*
X132158136Y-83299828D01*
X132247439Y-83108317D01*
X132247440Y-83108316D01*
X132249762Y-83103335D01*
X132256132Y-83079564D01*
X132305876Y-82893915D01*
X132307300Y-82888602D01*
X132326675Y-82667139D01*
X132307300Y-82445676D01*
X132249762Y-82230943D01*
X132247439Y-82225961D01*
X132158136Y-82034450D01*
X132158133Y-82034445D01*
X132155810Y-82029463D01*
X132151270Y-82022979D01*
X132031458Y-81851869D01*
X132031456Y-81851866D01*
X132028299Y-81847358D01*
X131871103Y-81690162D01*
X131866595Y-81687005D01*
X131866592Y-81687003D01*
X131790827Y-81633952D01*
X131688999Y-81562651D01*
X131684017Y-81560328D01*
X131684012Y-81560325D01*
X131492500Y-81471022D01*
X131492499Y-81471021D01*
X131487518Y-81468699D01*
X131482210Y-81467277D01*
X131482208Y-81467276D01*
X131329194Y-81426276D01*
X131272785Y-81411161D01*
X131051322Y-81391786D01*
X130829859Y-81411161D01*
X130773450Y-81426276D01*
X130620436Y-81467276D01*
X130620434Y-81467277D01*
X130615126Y-81468699D01*
X130610145Y-81471021D01*
X130610144Y-81471022D01*
X130418633Y-81560325D01*
X130418628Y-81560328D01*
X130413646Y-81562651D01*
X130409139Y-81565807D01*
X130409137Y-81565808D01*
X130236052Y-81687003D01*
X130236049Y-81687005D01*
X130231541Y-81690162D01*
X130074345Y-81847358D01*
X130071188Y-81851866D01*
X130071186Y-81851869D01*
X129951374Y-82022979D01*
X129946834Y-82029463D01*
X129944511Y-82034445D01*
X129944508Y-82034450D01*
X129855205Y-82225961D01*
X129852882Y-82230943D01*
X129795344Y-82445676D01*
X129775969Y-82667139D01*
X127414478Y-82667139D01*
X127396174Y-82444500D01*
X127341753Y-82227841D01*
X127252676Y-82022979D01*
X127131336Y-81835416D01*
X126980992Y-81670190D01*
X126976941Y-81666991D01*
X126976937Y-81666987D01*
X126809736Y-81534939D01*
X126809732Y-81534937D01*
X126805681Y-81531737D01*
X126610111Y-81423777D01*
X126605242Y-81422053D01*
X126605238Y-81422051D01*
X126404409Y-81350934D01*
X126404405Y-81350933D01*
X126399534Y-81349208D01*
X126394441Y-81348301D01*
X126394438Y-81348300D01*
X126184695Y-81310939D01*
X126184689Y-81310938D01*
X126179606Y-81310033D01*
X126105774Y-81309131D01*
X125961403Y-81307367D01*
X125961401Y-81307367D01*
X125956233Y-81307304D01*
X125735413Y-81341094D01*
X125523078Y-81410496D01*
X125324929Y-81513646D01*
X125320796Y-81516749D01*
X125320793Y-81516751D01*
X125150422Y-81644669D01*
X125146287Y-81647774D01*
X124991951Y-81809277D01*
X124866065Y-81993819D01*
X124772010Y-82196444D01*
X124712311Y-82411709D01*
X124688573Y-82633834D01*
X124688870Y-82638987D01*
X124688870Y-82638990D01*
X124694333Y-82733729D01*
X124701432Y-82856854D01*
X124702569Y-82861900D01*
X124702570Y-82861906D01*
X124709784Y-82893915D01*
X124750544Y-83074778D01*
X124834588Y-83281755D01*
X124837287Y-83286159D01*
X124933178Y-83442639D01*
X124951309Y-83472227D01*
X125097572Y-83641077D01*
X125269448Y-83783771D01*
X125313114Y-83809287D01*
X125342767Y-83826615D01*
X125391491Y-83878253D01*
X125404562Y-83948036D01*
X125377831Y-84013808D01*
X125337377Y-84047166D01*
X125324929Y-84053646D01*
X125320796Y-84056749D01*
X125320793Y-84056751D01*
X125150422Y-84184669D01*
X125146287Y-84187774D01*
X124991951Y-84349277D01*
X124866065Y-84533819D01*
X124772010Y-84736444D01*
X124712311Y-84951709D01*
X124688573Y-85173834D01*
X110263322Y-85173834D01*
X110263322Y-76513273D01*
X141710822Y-76513273D01*
X141717577Y-76575455D01*
X141768707Y-76711844D01*
X141856061Y-76828400D01*
X141972617Y-76915754D01*
X141981026Y-76918906D01*
X141981027Y-76918907D01*
X142045309Y-76943005D01*
X142102074Y-76985646D01*
X142126774Y-77052207D01*
X142111567Y-77121556D01*
X142094720Y-77145293D01*
X142036282Y-77210195D01*
X141940795Y-77375583D01*
X141881780Y-77557211D01*
X141861818Y-77747139D01*
X141881780Y-77937067D01*
X141940795Y-78118695D01*
X142036282Y-78284083D01*
X142164069Y-78426005D01*
X142318570Y-78538257D01*
X142324598Y-78540941D01*
X142324600Y-78540942D01*
X142487003Y-78613248D01*
X142493034Y-78615933D01*
X142586435Y-78635786D01*
X142673378Y-78654267D01*
X142673383Y-78654267D01*
X142679835Y-78655639D01*
X142870809Y-78655639D01*
X142877261Y-78654267D01*
X142877266Y-78654267D01*
X142964209Y-78635786D01*
X143057610Y-78615933D01*
X143063641Y-78613248D01*
X143226044Y-78540942D01*
X143226046Y-78540941D01*
X143232074Y-78538257D01*
X143386575Y-78426005D01*
X143514362Y-78284083D01*
X143609849Y-78118695D01*
X143668864Y-77937067D01*
X143688826Y-77747139D01*
X143668864Y-77557211D01*
X143609849Y-77375583D01*
X143594702Y-77349348D01*
X143577822Y-77286350D01*
X143577822Y-77073637D01*
X143597824Y-77005516D01*
X143651480Y-76959023D01*
X143659592Y-76955655D01*
X143757619Y-76918906D01*
X143766027Y-76915754D01*
X143882583Y-76828400D01*
X143969937Y-76711844D01*
X144021067Y-76575455D01*
X144027822Y-76513273D01*
X144410822Y-76513273D01*
X144417577Y-76575455D01*
X144468707Y-76711844D01*
X144556061Y-76828400D01*
X144672617Y-76915754D01*
X144809006Y-76966884D01*
X144871188Y-76973639D01*
X146236822Y-76973639D01*
X146304943Y-76993641D01*
X146351436Y-77047297D01*
X146362822Y-77099639D01*
X146362822Y-79505273D01*
X146369577Y-79567455D01*
X146420707Y-79703844D01*
X146508061Y-79820400D01*
X146624617Y-79907754D01*
X146761006Y-79958884D01*
X146823188Y-79965639D01*
X150919456Y-79965639D01*
X150981638Y-79958884D01*
X151118027Y-79907754D01*
X151234583Y-79820400D01*
X151321937Y-79703844D01*
X151373067Y-79567455D01*
X151379822Y-79505273D01*
X151379822Y-74409005D01*
X151373067Y-74346823D01*
X151321937Y-74210434D01*
X151234583Y-74093878D01*
X151118027Y-74006524D01*
X150981638Y-73955394D01*
X150919456Y-73948639D01*
X146823188Y-73948639D01*
X146761006Y-73955394D01*
X146624617Y-74006524D01*
X146508061Y-74093878D01*
X146420707Y-74210434D01*
X146369577Y-74346823D01*
X146368724Y-74354674D01*
X146367508Y-74359788D01*
X146332290Y-74421433D01*
X146269334Y-74454252D01*
X146244926Y-74456639D01*
X144871188Y-74456639D01*
X144809006Y-74463394D01*
X144672617Y-74514524D01*
X144556061Y-74601878D01*
X144468707Y-74718434D01*
X144417577Y-74854823D01*
X144410822Y-74917005D01*
X144410822Y-76513273D01*
X144027822Y-76513273D01*
X144027822Y-74917005D01*
X144021067Y-74854823D01*
X143969937Y-74718434D01*
X143882583Y-74601878D01*
X143766027Y-74514524D01*
X143629638Y-74463394D01*
X143567456Y-74456639D01*
X142171188Y-74456639D01*
X142109006Y-74463394D01*
X141972617Y-74514524D01*
X141856061Y-74601878D01*
X141768707Y-74718434D01*
X141717577Y-74854823D01*
X141710822Y-74917005D01*
X141710822Y-76513273D01*
X110263322Y-76513273D01*
X110263322Y-73555139D01*
X110283324Y-73487018D01*
X110336980Y-73440525D01*
X110389322Y-73429139D01*
X169573322Y-73429139D01*
X169641443Y-73449141D01*
G37*
%TD.AperFunction*%
%TD*%
M02*
