%TF.GenerationSoftware,KiCad,Pcbnew,6.0.4-6f826c9f35~116~ubuntu20.04.1*%
%TF.CreationDate,2022-04-06T13:45:02+00:00*%
%TF.ProjectId,PCRD04B,50435244-3034-4422-9e6b-696361645f70,REV*%
%TF.SameCoordinates,Original*%
%TF.FileFunction,Soldermask,Top*%
%TF.FilePolarity,Negative*%
%FSLAX46Y46*%
G04 Gerber Fmt 4.6, Leading zero omitted, Abs format (unit mm)*
G04 Created by KiCad (PCBNEW 6.0.4-6f826c9f35~116~ubuntu20.04.1) date 2022-04-06 13:45:02*
%MOMM*%
%LPD*%
G01*
G04 APERTURE LIST*
%ADD10C,0.150000*%
%ADD11R,4.000000X5.000000*%
%ADD12R,1.524000X1.524000*%
%ADD13C,6.000000*%
%ADD14R,1.300000X1.500000*%
%ADD15R,0.700000X3.000000*%
%ADD16R,1.500000X1.300000*%
%ADD17R,3.000000X0.700000*%
%ADD18R,2.000000X29.000000*%
%ADD19R,20.100000X2.000000*%
%ADD20C,1.524000*%
%ADD21C,1.700000*%
G04 APERTURE END LIST*
D10*
G36*
X130456322Y-112672139D02*
G01*
X115851322Y-112672139D01*
X115851322Y-73302139D01*
X130456322Y-73302139D01*
X130456322Y-112672139D01*
G37*
X130456322Y-112672139D02*
X115851322Y-112672139D01*
X115851322Y-73302139D01*
X130456322Y-73302139D01*
X130456322Y-112672139D01*
D11*
%TO.C,BT1*%
X148871322Y-76957139D03*
X148871322Y-106957139D03*
%TD*%
D12*
%TO.C,J1*%
X158396322Y-108862139D03*
X158396322Y-111402139D03*
X155856322Y-108862139D03*
X155856322Y-111402139D03*
X153316322Y-108862139D03*
X153316322Y-111402139D03*
%TD*%
%TO.C,J2*%
X167921322Y-91717139D03*
X165381322Y-91717139D03*
%TD*%
%TO.C,J3*%
X167921322Y-94257139D03*
X165381322Y-94257139D03*
%TD*%
%TO.C,J4*%
X167921322Y-96797139D03*
X165381322Y-96797139D03*
%TD*%
%TO.C,J5*%
X167921322Y-86637139D03*
X165381322Y-86637139D03*
%TD*%
%TO.C,J6*%
X167921322Y-89177139D03*
X165381322Y-89177139D03*
%TD*%
%TO.C,J7*%
X167921322Y-101877139D03*
X165381322Y-101877139D03*
%TD*%
D13*
%TO.C,M1*%
X114581322Y-77747139D03*
%TD*%
%TO.C,M2*%
X165381322Y-77747139D03*
%TD*%
%TO.C,M3*%
X165381322Y-108227139D03*
%TD*%
%TO.C,M4*%
X114581322Y-108227139D03*
%TD*%
D14*
%TO.C,C24*%
X145569322Y-75715139D03*
D15*
X144219322Y-75715139D03*
D14*
X142869322Y-75715139D03*
%TD*%
D16*
%TO.C,C25*%
X158269322Y-106021139D03*
D17*
X158269322Y-104671139D03*
D16*
X158269322Y-103321139D03*
%TD*%
D12*
%TO.C,J11*%
X165381322Y-99337139D03*
X167921322Y-99337139D03*
%TD*%
D18*
%TO.C,M5*%
X119636322Y-92517139D03*
D19*
X129186322Y-79017139D03*
D18*
X138736322Y-92517139D03*
D19*
X129186322Y-106017139D03*
%TD*%
D20*
%TO.C,D2*%
X131051322Y-82667139D03*
D21*
X126051322Y-85207139D03*
X126051322Y-82667139D03*
%TD*%
M02*
