%TF.GenerationSoftware,KiCad,Pcbnew,6.0.10+dfsg-1~bpo11+1*%
%TF.CreationDate,2023-02-14T07:57:33+00:00*%
%TF.ProjectId,PCRD04B,50435244-3034-4422-9e6b-696361645f70,REV*%
%TF.SameCoordinates,Original*%
%TF.FileFunction,Copper,L2,Bot*%
%TF.FilePolarity,Positive*%
%FSLAX46Y46*%
G04 Gerber Fmt 4.6, Leading zero omitted, Abs format (unit mm)*
G04 Created by KiCad (PCBNEW 6.0.10+dfsg-1~bpo11+1) date 2023-02-14 07:57:33*
%MOMM*%
%LPD*%
G01*
G04 APERTURE LIST*
%ADD10C,0.300000*%
%TA.AperFunction,NonConductor*%
%ADD11C,0.300000*%
%TD*%
%TA.AperFunction,ComponentPad*%
%ADD12R,1.524000X1.524000*%
%TD*%
%TA.AperFunction,ComponentPad*%
%ADD13C,6.000000*%
%TD*%
%TA.AperFunction,ComponentPad*%
%ADD14C,1.524000*%
%TD*%
%TA.AperFunction,ComponentPad*%
%ADD15C,1.700000*%
%TD*%
%TA.AperFunction,SMDPad,CuDef*%
%ADD16R,1.397000X0.889000*%
%TD*%
%TA.AperFunction,SMDPad,CuDef*%
%ADD17R,0.900000X0.800000*%
%TD*%
%TA.AperFunction,SMDPad,CuDef*%
%ADD18R,2.550160X2.499360*%
%TD*%
%TA.AperFunction,SMDPad,CuDef*%
%ADD19R,0.889000X1.397000*%
%TD*%
%TA.AperFunction,SMDPad,CuDef*%
%ADD20R,2.499360X1.800860*%
%TD*%
%TA.AperFunction,SMDPad,CuDef*%
%ADD21R,1.550000X0.600000*%
%TD*%
%TA.AperFunction,SMDPad,CuDef*%
%ADD22R,0.650000X1.560000*%
%TD*%
%TA.AperFunction,SMDPad,CuDef*%
%ADD23R,1.560000X0.650000*%
%TD*%
%TA.AperFunction,SMDPad,CuDef*%
%ADD24R,1.400000X0.899000*%
%TD*%
%TA.AperFunction,SMDPad,CuDef*%
%ADD25R,1.400000X0.889000*%
%TD*%
%TA.AperFunction,SMDPad,CuDef*%
%ADD26R,1.500000X1.300000*%
%TD*%
%TA.AperFunction,SMDPad,CuDef*%
%ADD27R,3.000000X0.700000*%
%TD*%
%TA.AperFunction,SMDPad,CuDef*%
%ADD28R,1.300000X1.500000*%
%TD*%
%TA.AperFunction,SMDPad,CuDef*%
%ADD29R,0.700000X3.000000*%
%TD*%
%TA.AperFunction,SMDPad,CuDef*%
%ADD30R,3.800000X1.000000*%
%TD*%
%TA.AperFunction,SMDPad,CuDef*%
%ADD31R,1.000000X3.800000*%
%TD*%
%TA.AperFunction,SMDPad,CuDef*%
%ADD32R,3.300000X2.550000*%
%TD*%
%TA.AperFunction,ViaPad*%
%ADD33C,0.800000*%
%TD*%
%TA.AperFunction,Conductor*%
%ADD34C,0.250000*%
%TD*%
%TA.AperFunction,Conductor*%
%ADD35C,0.400000*%
%TD*%
%TA.AperFunction,Conductor*%
%ADD36C,0.800000*%
%TD*%
%TA.AperFunction,Conductor*%
%ADD37C,0.500000*%
%TD*%
G04 APERTURE END LIST*
D10*
D11*
X113989893Y-83585710D02*
X112489893Y-83585710D01*
X113561322Y-84085710D01*
X112489893Y-84585710D01*
X113989893Y-84585710D01*
X113989893Y-86014281D02*
X113989893Y-85299996D01*
X112489893Y-85299996D01*
X113561322Y-86442853D02*
X113561322Y-87157139D01*
X113989893Y-86299996D02*
X112489893Y-86799996D01*
X113989893Y-87299996D01*
X113204179Y-88299996D02*
X113275607Y-88514281D01*
X113347036Y-88585710D01*
X113489893Y-88657139D01*
X113704179Y-88657139D01*
X113847036Y-88585710D01*
X113918464Y-88514281D01*
X113989893Y-88371424D01*
X113989893Y-87799996D01*
X112489893Y-87799996D01*
X112489893Y-88299996D01*
X112561322Y-88442853D01*
X112632750Y-88514281D01*
X112775607Y-88585710D01*
X112918464Y-88585710D01*
X113061322Y-88514281D01*
X113132750Y-88442853D01*
X113204179Y-88299996D01*
X113204179Y-87799996D01*
X113847036Y-89299996D02*
X113918464Y-89371424D01*
X113989893Y-89299996D01*
X113918464Y-89228567D01*
X113847036Y-89299996D01*
X113989893Y-89299996D01*
X113847036Y-90871424D02*
X113918464Y-90799996D01*
X113989893Y-90585710D01*
X113989893Y-90442853D01*
X113918464Y-90228567D01*
X113775607Y-90085710D01*
X113632750Y-90014281D01*
X113347036Y-89942853D01*
X113132750Y-89942853D01*
X112847036Y-90014281D01*
X112704179Y-90085710D01*
X112561322Y-90228567D01*
X112489893Y-90442853D01*
X112489893Y-90585710D01*
X112561322Y-90799996D01*
X112632750Y-90871424D01*
X112489893Y-91371424D02*
X112489893Y-92371424D01*
X113989893Y-91371424D01*
X113989893Y-92371424D01*
D12*
%TO.P,J1,1*%
%TO.N,GND*%
X158396322Y-108862139D03*
%TO.P,J1,2*%
X158396322Y-111402139D03*
%TO.P,J1,3*%
%TO.N,Net-(C21-Pad3)*%
X155856322Y-108862139D03*
%TO.P,J1,4*%
X155856322Y-111402139D03*
%TO.P,J1,5*%
%TO.N,GND*%
X153316322Y-108862139D03*
%TO.P,J1,6*%
X153316322Y-111402139D03*
%TD*%
%TO.P,J2,1*%
%TO.N,GND*%
X167921322Y-91717139D03*
%TO.P,J2,2*%
X165381322Y-91717139D03*
%TD*%
%TO.P,J3,1*%
%TO.N,/#PeakDetect/Trace*%
X167921322Y-94257139D03*
%TO.P,J3,2*%
X165381322Y-94257139D03*
%TD*%
%TO.P,J4,1*%
%TO.N,GND*%
X167921322Y-96797139D03*
%TO.P,J4,2*%
X165381322Y-96797139D03*
%TD*%
%TO.P,J5,1*%
%TO.N,GND*%
X167921322Y-86637139D03*
%TO.P,J5,2*%
X165381322Y-86637139D03*
%TD*%
%TO.P,J6,1*%
%TO.N,/A/D*%
X167921322Y-89177139D03*
%TO.P,J6,2*%
X165381322Y-89177139D03*
%TD*%
%TO.P,J7,1*%
%TO.N,GND*%
X167921322Y-101877139D03*
%TO.P,J7,2*%
X165381322Y-101877139D03*
%TD*%
D13*
%TO.P,M1,1*%
%TO.N,GND*%
X114581322Y-77747139D03*
%TD*%
%TO.P,M2,1*%
%TO.N,GND*%
X165381322Y-77747139D03*
%TD*%
%TO.P,M3,1*%
%TO.N,GND*%
X165381322Y-108227139D03*
%TD*%
%TO.P,M4,1*%
%TO.N,GND*%
X114581322Y-108227139D03*
%TD*%
D12*
%TO.P,J11,1*%
%TO.N,Net-(C23-Pad3)*%
X165381322Y-99337139D03*
%TO.P,J11,2*%
X167921322Y-99337139D03*
%TD*%
D14*
%TO.P,D2,1*%
%TO.N,/K*%
X131051322Y-82667139D03*
D15*
X126051322Y-85207139D03*
%TO.P,D2,2*%
%TO.N,/A*%
X126051322Y-82667139D03*
%TD*%
D16*
%TO.P,C20,1*%
%TO.N,/REF*%
X125757322Y-96352639D03*
%TO.P,C20,2*%
%TO.N,GND*%
X125757322Y-98257639D03*
%TD*%
%TO.P,R15,1*%
%TO.N,/REF*%
X128043322Y-96416139D03*
%TO.P,R15,2*%
%TO.N,VCC*%
X128043322Y-98321139D03*
%TD*%
D17*
%TO.P,U3,1*%
%TO.N,VCC*%
X130107322Y-98255139D03*
%TO.P,U3,2*%
%TO.N,/REF*%
X130107322Y-96355139D03*
%TO.P,U3,3*%
%TO.N,GND*%
X132107322Y-97305139D03*
%TD*%
%TO.P,U6,1*%
%TO.N,/REF*%
X123836322Y-97752139D03*
%TO.P,U6,2*%
%TO.N,GND*%
X123836322Y-99652139D03*
%TO.P,U6,3*%
%TO.N,N/C*%
X121836322Y-98702139D03*
%TD*%
D18*
%TO.P,C1,1*%
%TO.N,VCC*%
X145681082Y-100607139D03*
%TO.P,C1,2*%
%TO.N,GND*%
X140631562Y-100607139D03*
%TD*%
D16*
%TO.P,C3,1*%
%TO.N,/REF*%
X120931322Y-87907139D03*
%TO.P,C3,2*%
%TO.N,GND*%
X120931322Y-86002139D03*
%TD*%
D19*
%TO.P,C4,1*%
%TO.N,VCC*%
X145696322Y-103782139D03*
%TO.P,C4,2*%
%TO.N,GND*%
X143791322Y-103782139D03*
%TD*%
%TO.P,C5,1*%
%TO.N,Net-(C10-Pad2)*%
X123471322Y-92987139D03*
%TO.P,C5,2*%
%TO.N,/A*%
X121566322Y-92987139D03*
%TD*%
D16*
%TO.P,C6,1*%
%TO.N,/VCC1*%
X135409322Y-92098139D03*
%TO.P,C6,2*%
%TO.N,GND*%
X135409322Y-94003139D03*
%TD*%
%TO.P,C7,1*%
%TO.N,/VCC2*%
X155729322Y-92923639D03*
%TO.P,C7,2*%
%TO.N,GND*%
X155729322Y-91018639D03*
%TD*%
%TO.P,C8,1*%
%TO.N,/VCC3*%
X148871322Y-84795639D03*
%TO.P,C8,2*%
%TO.N,GND*%
X148871322Y-82890639D03*
%TD*%
%TO.P,C9,1*%
%TO.N,/VCC4*%
X155856322Y-99019639D03*
%TO.P,C9,2*%
%TO.N,GND*%
X155856322Y-100924639D03*
%TD*%
D19*
%TO.P,C10,1*%
%TO.N,Net-(C10-Pad1)*%
X126963822Y-92987139D03*
%TO.P,C10,2*%
%TO.N,Net-(C10-Pad2)*%
X125058822Y-92987139D03*
%TD*%
D16*
%TO.P,C11,1*%
%TO.N,/VCC1*%
X133377322Y-92098139D03*
%TO.P,C11,2*%
%TO.N,GND*%
X133377322Y-94003139D03*
%TD*%
%TO.P,C12,1*%
%TO.N,/VCC2*%
X153443322Y-92923639D03*
%TO.P,C12,2*%
%TO.N,GND*%
X153443322Y-91018639D03*
%TD*%
%TO.P,C13,1*%
%TO.N,/VCC3*%
X151157322Y-84795639D03*
%TO.P,C13,2*%
%TO.N,GND*%
X151157322Y-82890639D03*
%TD*%
%TO.P,C14,1*%
%TO.N,/VCC4*%
X158396322Y-99019639D03*
%TO.P,C14,2*%
%TO.N,GND*%
X158396322Y-100924639D03*
%TD*%
%TO.P,C15,1*%
%TO.N,Net-(C15-Pad1)*%
X135917322Y-90447139D03*
%TO.P,C15,2*%
%TO.N,Net-(C15-Pad2)*%
X135917322Y-88542139D03*
%TD*%
%TO.P,C16,1*%
%TO.N,Net-(C16-Pad1)*%
X138457322Y-88415139D03*
%TO.P,C16,2*%
%TO.N,Net-(C15-Pad1)*%
X138457322Y-90320139D03*
%TD*%
%TO.P,C17,1*%
%TO.N,/REF*%
X143029322Y-89494639D03*
%TO.P,C17,2*%
%TO.N,GND*%
X143029322Y-87589639D03*
%TD*%
%TO.P,C18,1*%
%TO.N,Net-(C18-Pad1)*%
X142775322Y-94003139D03*
%TO.P,C18,2*%
%TO.N,Net-(C18-Pad2)*%
X142775322Y-92098139D03*
%TD*%
%TO.P,C19,1*%
%TO.N,Net-(C19-Pad1)*%
X153443322Y-89113639D03*
%TO.P,C19,2*%
%TO.N,GND*%
X153443322Y-87208639D03*
%TD*%
D20*
%TO.P,D1,1*%
%TO.N,VCC*%
X150047342Y-103147139D03*
%TO.P,D1,2*%
%TO.N,GND*%
X154045302Y-103147139D03*
%TD*%
D16*
%TO.P,R3,1*%
%TO.N,/VCC2*%
X151411322Y-95209639D03*
%TO.P,R3,2*%
%TO.N,VCC*%
X151411322Y-97114639D03*
%TD*%
%TO.P,R4,1*%
%TO.N,/VCC3*%
X146585322Y-84795639D03*
%TO.P,R4,2*%
%TO.N,VCC*%
X146585322Y-82890639D03*
%TD*%
D19*
%TO.P,R5,1*%
%TO.N,/VCC4*%
X153633822Y-99337139D03*
%TO.P,R5,2*%
%TO.N,VCC*%
X151728822Y-99337139D03*
%TD*%
%TO.P,R6,1*%
%TO.N,Net-(C10-Pad2)*%
X123471322Y-95527139D03*
%TO.P,R6,2*%
%TO.N,/A*%
X121566322Y-95527139D03*
%TD*%
D16*
%TO.P,R7,1*%
%TO.N,/REF*%
X131091322Y-85049639D03*
%TO.P,R7,2*%
%TO.N,Net-(C10-Pad1)*%
X131091322Y-86954639D03*
%TD*%
%TO.P,R8,1*%
%TO.N,Net-(C15-Pad2)*%
X133631322Y-86891139D03*
%TO.P,R8,2*%
%TO.N,/REF*%
X133631322Y-84986139D03*
%TD*%
%TO.P,R9,1*%
%TO.N,Net-(C15-Pad1)*%
X133631322Y-90447139D03*
%TO.P,R9,2*%
%TO.N,Net-(C15-Pad2)*%
X133631322Y-88542139D03*
%TD*%
%TO.P,R10,1*%
%TO.N,Net-(C18-Pad2)*%
X140489322Y-90320139D03*
%TO.P,R10,2*%
%TO.N,Net-(C16-Pad1)*%
X140489322Y-88415139D03*
%TD*%
%TO.P,R11,1*%
%TO.N,Net-(C18-Pad1)*%
X140489322Y-94003139D03*
%TO.P,R11,2*%
%TO.N,Net-(C18-Pad2)*%
X140489322Y-92098139D03*
%TD*%
%TO.P,R12,1*%
%TO.N,Net-(C2-Pad1)*%
X158396322Y-93304639D03*
%TO.P,R12,2*%
%TO.N,Net-(R12-Pad2)*%
X158396322Y-91399639D03*
%TD*%
D19*
%TO.P,R13,1*%
%TO.N,Net-(C19-Pad1)*%
X155284822Y-88923139D03*
%TO.P,R13,2*%
%TO.N,Net-(R13-Pad2)*%
X157189822Y-88923139D03*
%TD*%
D21*
%TO.P,U1,1*%
%TO.N,Net-(C10-Pad2)*%
X123311322Y-91082139D03*
%TO.P,U1,2*%
%TO.N,/A*%
X123311322Y-89812139D03*
%TO.P,U1,3*%
%TO.N,/REF*%
X123311322Y-88542139D03*
%TO.P,U1,4*%
%TO.N,GND*%
X123311322Y-87272139D03*
%TO.P,U1,5*%
%TO.N,Net-(C10-Pad1)*%
X128711322Y-87272139D03*
%TO.P,U1,6*%
%TO.N,Net-(C15-Pad2)*%
X128711322Y-88542139D03*
%TO.P,U1,7*%
%TO.N,Net-(C15-Pad1)*%
X128711322Y-89812139D03*
%TO.P,U1,8*%
%TO.N,/VCC1*%
X128711322Y-91082139D03*
%TD*%
D22*
%TO.P,U4,1*%
%TO.N,Net-(R12-Pad2)*%
X155409322Y-84685139D03*
%TO.P,U4,2*%
%TO.N,/VCC3*%
X154459322Y-84685139D03*
%TO.P,U4,3*%
%TO.N,Net-(C18-Pad1)*%
X153509322Y-84685139D03*
%TO.P,U4,4*%
%TO.N,Net-(R1-Pad2)*%
X153509322Y-81985139D03*
%TO.P,U4,5*%
%TO.N,GND*%
X155409322Y-81985139D03*
%TD*%
D23*
%TO.P,U5,1*%
%TO.N,Net-(C18-Pad1)*%
X155776322Y-97112139D03*
%TO.P,U5,2*%
%TO.N,Net-(R13-Pad2)*%
X155776322Y-96162139D03*
%TO.P,U5,3*%
%TO.N,GND*%
X155776322Y-95212139D03*
%TO.P,U5,4*%
%TO.N,Net-(C2-Pad1)*%
X158476322Y-95212139D03*
%TO.P,U5,5*%
%TO.N,/VCC4*%
X158476322Y-97112139D03*
%TD*%
D16*
%TO.P,R2,1*%
%TO.N,/VCC1*%
X131091322Y-91082139D03*
%TO.P,R2,2*%
%TO.N,VCC*%
X131091322Y-92987139D03*
%TD*%
D21*
%TO.P,U2,1*%
%TO.N,Net-(C18-Pad1)*%
X145663322Y-93114139D03*
%TO.P,U2,2*%
%TO.N,Net-(C18-Pad2)*%
X145663322Y-91844139D03*
%TO.P,U2,3*%
%TO.N,/REF*%
X145663322Y-90574139D03*
%TO.P,U2,4*%
%TO.N,GND*%
X145663322Y-89304139D03*
%TO.P,U2,5*%
%TO.N,Net-(C19-Pad1)*%
X151063322Y-89304139D03*
%TO.P,U2,6*%
%TO.N,Net-(R1-Pad2)*%
X151063322Y-90574139D03*
%TO.P,U2,7*%
X151063322Y-91844139D03*
%TO.P,U2,8*%
%TO.N,/VCC2*%
X151063322Y-93114139D03*
%TD*%
D24*
%TO.P,R1,1*%
%TO.N,Net-(C22-Pad1)*%
X158015322Y-83271639D03*
D25*
%TO.P,R1,2*%
%TO.N,Net-(R1-Pad2)*%
X158015322Y-81366639D03*
%TD*%
D26*
%TO.P,C2,1*%
%TO.N,Net-(C2-Pad1)*%
X162841322Y-97512139D03*
D27*
%TO.P,C2,2*%
%TO.N,GND*%
X162841322Y-96162139D03*
D26*
%TO.P,C2,3*%
%TO.N,/#PeakDetect/Trace*%
X162841322Y-94812139D03*
%TD*%
D28*
%TO.P,C21,1*%
%TO.N,VCC*%
X144981322Y-109497139D03*
D29*
%TO.P,C21,2*%
%TO.N,GND*%
X146331322Y-109497139D03*
D28*
%TO.P,C21,3*%
%TO.N,Net-(C21-Pad3)*%
X147681322Y-109497139D03*
%TD*%
D26*
%TO.P,C22,1*%
%TO.N,Net-(C22-Pad1)*%
X162841322Y-85922139D03*
D27*
%TO.P,C22,2*%
%TO.N,GND*%
X162841322Y-87272139D03*
D26*
%TO.P,C22,3*%
%TO.N,/A/D*%
X162841322Y-88622139D03*
%TD*%
%TO.P,C23,1*%
%TO.N,/REF*%
X162841322Y-103227139D03*
D27*
%TO.P,C23,2*%
%TO.N,GND*%
X162841322Y-101877139D03*
D26*
%TO.P,C23,3*%
%TO.N,Net-(C23-Pad3)*%
X162841322Y-100527139D03*
%TD*%
D30*
%TO.P,M6,1*%
%TO.N,GND*%
X153886322Y-106457139D03*
X147886322Y-76157139D03*
D31*
X116986322Y-88307139D03*
X160786322Y-82307139D03*
D30*
X153886322Y-76157139D03*
X135886322Y-106457139D03*
D32*
X118136322Y-105682139D03*
D30*
X141886322Y-106457139D03*
X123886322Y-76157139D03*
D32*
X159636322Y-105682139D03*
D31*
X116986322Y-94307139D03*
X116986322Y-100307139D03*
D30*
X141886322Y-76157139D03*
X129886322Y-106457139D03*
X129886322Y-76157139D03*
D32*
X118136322Y-76932139D03*
X159636322Y-76932139D03*
D30*
X123886322Y-106457139D03*
X135886322Y-76157139D03*
X147886322Y-106457139D03*
D31*
X160786322Y-94307139D03*
X116986322Y-82307139D03*
X160786322Y-100307139D03*
X160786322Y-88307139D03*
%TD*%
D33*
%TO.N,GND*%
X127281322Y-100607139D03*
X151471324Y-106957139D03*
X146458322Y-88034139D03*
X149125322Y-92225139D03*
X135409322Y-85875139D03*
X149887322Y-98321139D03*
X148909322Y-89177139D03*
X150141322Y-80922139D03*
X139473322Y-95527139D03*
X126011322Y-87907139D03*
X140616322Y-102512139D03*
X155221322Y-87272139D03*
X145569322Y-79525139D03*
X140743322Y-95527139D03*
X127916322Y-94892139D03*
X155856322Y-79017139D03*
X137441322Y-87145139D03*
X140616322Y-104417139D03*
X143156322Y-101242139D03*
X122201322Y-86002139D03*
X143791322Y-79525139D03*
X129186322Y-100607139D03*
X143156322Y-98067139D03*
X141886322Y-108227139D03*
X141886322Y-104417139D03*
X150141322Y-87437139D03*
X125376322Y-80922139D03*
X143156322Y-111402139D03*
X129186322Y-85367139D03*
X117883322Y-86891139D03*
X127916322Y-85367139D03*
X137441322Y-85875139D03*
X133631322Y-95527139D03*
X132996322Y-101877139D03*
X146331322Y-86637139D03*
X147601322Y-86637139D03*
X163857322Y-84097139D03*
X140616322Y-84732139D03*
X123471322Y-84097139D03*
X160047322Y-84097139D03*
X159666322Y-108227139D03*
X141251322Y-79525139D03*
X146331322Y-98067139D03*
X123471322Y-86002139D03*
X151411322Y-80922139D03*
X145553322Y-88034139D03*
X126011322Y-89177139D03*
X141886322Y-84097139D03*
X120677322Y-91209139D03*
X132996322Y-80922139D03*
X134901322Y-95527139D03*
X148071322Y-99337139D03*
X141886322Y-111402139D03*
X138330322Y-95273139D03*
X146331322Y-111402139D03*
X127281322Y-80922139D03*
X149119508Y-88155325D03*
X129821322Y-94892139D03*
X120677322Y-89939139D03*
X124995322Y-94765139D03*
X144426322Y-111402139D03*
X146331322Y-80795139D03*
X129186322Y-84097139D03*
X160936322Y-90447139D03*
X130456322Y-101877139D03*
X118391322Y-88923139D03*
X126010779Y-86656574D03*
X160301322Y-92987139D03*
X126011322Y-91082139D03*
X125376322Y-100607139D03*
X146331322Y-95400139D03*
X148071322Y-101242139D03*
X129186322Y-80922139D03*
X154586322Y-94892139D03*
X149379322Y-93749139D03*
X122836322Y-100607139D03*
X153316322Y-101242139D03*
X146331322Y-94511139D03*
X120931322Y-100607139D03*
X136806322Y-99337139D03*
X135536322Y-101242139D03*
X152046322Y-79017139D03*
X161825322Y-83843139D03*
X126011322Y-94892139D03*
X142013322Y-95527139D03*
X123471322Y-81557139D03*
X135409322Y-87145139D03*
X154459322Y-90955139D03*
X154586322Y-79017139D03*
X159666322Y-86637139D03*
X141886322Y-86002139D03*
X136171322Y-95527139D03*
X143156322Y-99337139D03*
X141886322Y-102512139D03*
X138330322Y-92733139D03*
X141886322Y-109497139D03*
X128551322Y-92987139D03*
X151471324Y-108227139D03*
X143791322Y-82065139D03*
X140997322Y-78001139D03*
X148236322Y-80922139D03*
X162206322Y-92987139D03*
X138330322Y-94003139D03*
X153316322Y-94892139D03*
X134266322Y-80922139D03*
X154586322Y-86637139D03*
%TO.N,VCC*%
X144553322Y-96797139D03*
X144553322Y-84351139D03*
%TO.N,/K*%
X142775322Y-77747139D03*
%TO.N,/REF*%
X132361322Y-85113139D03*
X156237322Y-103401139D03*
X131354386Y-95402704D03*
X147309322Y-92225139D03*
%TO.N,Net-(R1-Pad2)*%
X149506322Y-90447139D03*
X153316322Y-80287139D03*
%TD*%
D34*
%TO.N,GND*%
X154045302Y-101971119D02*
X153316322Y-101242139D01*
D35*
X143029322Y-87145139D02*
X141886322Y-86002139D01*
D34*
X151411322Y-80922139D02*
X151411322Y-79652139D01*
D35*
X141251322Y-84732139D02*
X141886322Y-84097139D01*
D34*
X129821322Y-94892139D02*
X129821322Y-94257139D01*
X125122322Y-94892139D02*
X124995322Y-94765139D01*
D35*
X155157822Y-87208639D02*
X155221322Y-87272139D01*
D34*
X154522822Y-91018639D02*
X154459322Y-90955139D01*
X148909322Y-89177139D02*
X148909322Y-89742824D01*
X130456322Y-101877139D02*
X132996322Y-101877139D01*
X163857322Y-84097139D02*
X162654573Y-84672390D01*
X155729322Y-91018639D02*
X154522822Y-91018639D01*
X132107322Y-97051139D02*
X133631322Y-95527139D01*
X135409322Y-87145139D02*
X137441322Y-87145139D01*
X126011322Y-94892139D02*
X125445637Y-94892139D01*
X154045302Y-103147139D02*
X154045302Y-101971119D01*
X122836322Y-100607139D02*
X120931322Y-100607139D01*
D35*
X153443322Y-87208639D02*
X155157822Y-87208639D01*
D34*
X126011322Y-94892139D02*
X127916322Y-94892139D01*
X135536322Y-101242139D02*
X135536322Y-100607139D01*
X132996322Y-80922139D02*
X134266322Y-80922139D01*
X124741322Y-81557139D02*
X125376322Y-80922139D01*
X127281322Y-100607139D02*
X129186322Y-100607139D01*
X137060322Y-94003139D02*
X138330322Y-95273139D01*
X159636322Y-108197139D02*
X159666322Y-108227139D01*
X149887322Y-98321139D02*
X148309924Y-101003537D01*
X135536322Y-100607139D02*
X136806322Y-99337139D01*
X120423322Y-94765139D02*
X120423322Y-89939139D01*
X148781321Y-89870825D02*
X148781321Y-91881138D01*
X145663322Y-89304139D02*
X145663322Y-88144139D01*
D35*
X155776322Y-95212139D02*
X154906322Y-95212139D01*
D34*
X136806322Y-99337139D02*
X141886322Y-99337139D01*
X123471322Y-81557139D02*
X124741322Y-81557139D01*
D35*
X146331322Y-80795139D02*
X145061322Y-80795139D01*
D34*
X154586322Y-79017139D02*
X155856322Y-79017139D01*
X148781321Y-91881138D02*
X149125322Y-92225139D01*
X148909322Y-89742824D02*
X148781321Y-89870825D01*
X126011322Y-94892139D02*
X125122322Y-94892139D01*
X120423322Y-96181663D02*
X120423322Y-94765139D01*
X125757322Y-98257639D02*
X125757322Y-100226139D01*
X160301322Y-87272139D02*
X159666322Y-86637139D01*
X123886322Y-76157139D02*
X123886322Y-84317139D01*
D35*
X154906322Y-95212139D02*
X154586322Y-94892139D01*
D34*
X140616322Y-84732139D02*
X139638323Y-83754140D01*
D35*
X150306322Y-87272139D02*
X150141322Y-87437139D01*
D34*
X159636322Y-105682139D02*
X159636322Y-108197139D01*
X121038798Y-96797139D02*
X120423322Y-96181663D01*
X141886322Y-106457139D02*
X141886322Y-108227139D01*
X151411322Y-79652139D02*
X152046322Y-79017139D01*
X141886322Y-106457139D02*
X141886322Y-104417139D01*
X123471322Y-86002139D02*
X123471322Y-84097139D01*
X141886322Y-99337139D02*
X143156322Y-98067139D01*
D35*
X146458322Y-87780139D02*
X147601322Y-86637139D01*
X146458322Y-88034139D02*
X146458322Y-87780139D01*
D34*
X125445637Y-94892139D02*
X125318637Y-95019139D01*
X127916322Y-85367139D02*
X129186322Y-85367139D01*
X132107322Y-97305139D02*
X132107322Y-97051139D01*
X129821322Y-94257139D02*
X128551322Y-92987139D01*
D35*
X141251322Y-79525139D02*
X141251322Y-78255139D01*
D34*
X120423322Y-94765139D02*
X120423322Y-91463139D01*
X124733821Y-95603955D02*
X124733821Y-95992642D01*
X124733821Y-95992642D02*
X123929324Y-96797139D01*
X148236322Y-80922139D02*
X150141322Y-80922139D01*
X123886322Y-84317139D02*
X122201322Y-86002139D01*
X117883322Y-86891139D02*
X117883322Y-88415139D01*
X146331322Y-111402139D02*
X144426322Y-111402139D01*
X162654573Y-84672390D02*
X161825322Y-83843139D01*
D35*
X140616322Y-84732139D02*
X141251322Y-84732139D01*
D34*
X147886322Y-106457139D02*
X150971324Y-106457139D01*
X139473322Y-95527139D02*
X140743322Y-95527139D01*
X125318637Y-95019139D02*
X124733821Y-95603955D01*
X126010779Y-87906596D02*
X126011322Y-87907139D01*
X148071322Y-99337139D02*
X149671322Y-99337139D01*
X132069321Y-83754140D02*
X131726322Y-84097139D01*
X160786322Y-88307139D02*
X160786322Y-90297139D01*
D35*
X141251322Y-78255139D02*
X140997322Y-78001139D01*
X145061322Y-80795139D02*
X143791322Y-82065139D01*
D34*
X160786322Y-90297139D02*
X160936322Y-90447139D01*
X148309924Y-101003537D02*
X148071322Y-101242139D01*
X135409322Y-94003139D02*
X137060322Y-94003139D01*
X143156322Y-111402139D02*
X141886322Y-111402139D01*
X134901322Y-95527139D02*
X136171322Y-95527139D01*
X143156322Y-99337139D02*
X143156322Y-101242139D01*
X125757322Y-100226139D02*
X125376322Y-100607139D01*
X141886322Y-102512139D02*
X140616322Y-102512139D01*
D35*
X143029322Y-87589639D02*
X143029322Y-87145139D01*
D34*
X160301322Y-92987139D02*
X162206322Y-92987139D01*
X126011322Y-89177139D02*
X126011322Y-91082139D01*
X126010779Y-86656574D02*
X126010779Y-87906596D01*
X139638323Y-83754140D02*
X132069321Y-83754140D01*
X123929324Y-96797139D02*
X121038798Y-96797139D01*
X127281322Y-80922139D02*
X129186322Y-80922139D01*
D35*
X145569322Y-79525139D02*
X143791322Y-79525139D01*
X155221322Y-87272139D02*
X154586322Y-86637139D01*
D34*
X120423322Y-91463139D02*
X120677322Y-91209139D01*
X145663322Y-88144139D02*
X145553322Y-88034139D01*
X142013322Y-95527139D02*
X145315322Y-95527139D01*
X150971324Y-106457139D02*
X151471324Y-106957139D01*
D35*
X138330322Y-95273139D02*
X138330322Y-94003139D01*
D34*
X137441322Y-85875139D02*
X135409322Y-85875139D01*
X162841322Y-87272139D02*
X160301322Y-87272139D01*
X145315322Y-95527139D02*
X146331322Y-94511139D01*
X117883322Y-88415139D02*
X118391322Y-88923139D01*
X131726322Y-84097139D02*
X129186322Y-84097139D01*
X126011322Y-94892139D02*
X126011322Y-91082139D01*
D35*
X155221322Y-87272139D02*
X150306322Y-87272139D01*
D36*
%TO.N,VCC*%
X151728822Y-97432139D02*
X151411322Y-97114639D01*
X151728822Y-99337139D02*
X151728822Y-101465659D01*
X150047342Y-103147139D02*
X146331322Y-103147139D01*
X144553322Y-99479379D02*
X145681082Y-100607139D01*
X144553322Y-96797139D02*
X144553322Y-99479379D01*
X130157322Y-98255139D02*
X130107322Y-98255139D01*
D35*
X131091322Y-96797139D02*
X131091322Y-97321139D01*
D36*
X131357322Y-99455139D02*
X130157322Y-98255139D01*
X144981322Y-109497139D02*
X144981322Y-104497139D01*
D35*
X132278821Y-94174638D02*
X132278821Y-95609640D01*
D36*
X145696322Y-103782139D02*
X145696322Y-100622379D01*
X151728822Y-101465659D02*
X150047342Y-103147139D01*
D35*
X128043322Y-98321139D02*
X130041322Y-98321139D01*
D36*
X145696322Y-100622379D02*
X145681082Y-100607139D01*
X144981322Y-104497139D02*
X145696322Y-103782139D01*
X146331322Y-103147139D02*
X145696322Y-103782139D01*
D35*
X130041322Y-98321139D02*
X130107322Y-98255139D01*
D36*
X136679322Y-96797139D02*
X134021322Y-99455139D01*
D35*
X132278821Y-95609640D02*
X131091322Y-96797139D01*
D36*
X151728822Y-99337139D02*
X151728822Y-97432139D01*
X134021322Y-99455139D02*
X131357322Y-99455139D01*
X146585322Y-82890639D02*
X146013822Y-82890639D01*
D35*
X131091322Y-92987139D02*
X132278821Y-94174638D01*
D36*
X144553322Y-96797139D02*
X136679322Y-96797139D01*
X146013822Y-82890639D02*
X144553322Y-84351139D01*
D35*
X130157322Y-98255139D02*
X131091322Y-97321139D01*
%TO.N,Net-(C10-Pad2)*%
X123471322Y-95527139D02*
X123471322Y-92987139D01*
X123311322Y-91082139D02*
X123311322Y-92827139D01*
X123311322Y-92827139D02*
X123471322Y-92987139D01*
X125058822Y-92987139D02*
X123471322Y-92987139D01*
%TO.N,/VCC1*%
X131726322Y-91463139D02*
X132361322Y-91463139D01*
X132996322Y-92098139D02*
X132361322Y-91463139D01*
X128711322Y-91082139D02*
X131091322Y-91082139D01*
X133377322Y-92098139D02*
X135409322Y-92098139D01*
X133377322Y-92098139D02*
X132996322Y-92098139D01*
X131091322Y-91082139D02*
X131345322Y-91082139D01*
X131345322Y-91082139D02*
X131726322Y-91463139D01*
%TO.N,/VCC2*%
X151063322Y-93114139D02*
X151063322Y-94861639D01*
X153443322Y-92923639D02*
X155729322Y-92923639D01*
X151063322Y-93114139D02*
X153252822Y-93114139D01*
X151063322Y-94861639D02*
X151411322Y-95209639D01*
X153252822Y-93114139D02*
X153443322Y-92923639D01*
%TO.N,/VCC3*%
X152871822Y-83335139D02*
X154289322Y-83335139D01*
X148871322Y-84795639D02*
X151157322Y-84795639D01*
X154459322Y-83505139D02*
X154289322Y-83335139D01*
X146585322Y-84795639D02*
X148871322Y-84795639D01*
X151411322Y-84795639D02*
X152871822Y-83335139D01*
X154459322Y-84685139D02*
X154459322Y-83505139D01*
X151157322Y-84795639D02*
X151411322Y-84795639D01*
%TO.N,/VCC4*%
X153633822Y-99337139D02*
X155538822Y-99337139D01*
X155856322Y-99019639D02*
X158396322Y-99019639D01*
X155538822Y-99337139D02*
X155856322Y-99019639D01*
X158476322Y-98939639D02*
X158396322Y-99019639D01*
X158476322Y-97112139D02*
X158476322Y-98939639D01*
%TO.N,Net-(C10-Pad1)*%
X126963822Y-92987139D02*
X126963822Y-87844639D01*
X126963822Y-87844639D02*
X127536322Y-87272139D01*
X130773822Y-87272139D02*
X131091322Y-86954639D01*
X128711322Y-87272139D02*
X127536322Y-87272139D01*
X128711322Y-87272139D02*
X130773822Y-87272139D01*
%TO.N,Net-(C15-Pad1)*%
X132996322Y-89812139D02*
X133631322Y-90447139D01*
X128711322Y-89812139D02*
X132996322Y-89812139D01*
X136044322Y-90320139D02*
X135917322Y-90447139D01*
X138457322Y-90320139D02*
X136044322Y-90320139D01*
X135917322Y-90447139D02*
X133631322Y-90447139D01*
%TO.N,Net-(C15-Pad2)*%
X133631322Y-88542139D02*
X133631322Y-86891139D01*
X128711322Y-88542139D02*
X133631322Y-88542139D01*
X133631322Y-88542139D02*
X135917322Y-88542139D01*
%TO.N,Net-(C16-Pad1)*%
X138457322Y-88415139D02*
X140489322Y-88415139D01*
%TO.N,Net-(C18-Pad1)*%
X147982322Y-93114139D02*
X148109322Y-92987139D01*
X148109322Y-94130139D02*
X148109322Y-92987139D01*
X143664322Y-93114139D02*
X142775322Y-94003139D01*
X154596322Y-97112139D02*
X153646322Y-96162139D01*
X153509322Y-85140139D02*
X152012322Y-86637139D01*
X145663322Y-93114139D02*
X143664322Y-93114139D01*
X153646322Y-96162139D02*
X150141322Y-96162139D01*
X153509322Y-85140139D02*
X153509322Y-84685139D01*
X148109322Y-92987139D02*
X148109322Y-89177139D01*
X148109322Y-88034139D02*
X148109322Y-89177139D01*
X147474322Y-93114139D02*
X147982322Y-93114139D01*
X152012322Y-86637139D02*
X149506322Y-86637139D01*
X145663322Y-93114139D02*
X147474322Y-93114139D01*
X149506322Y-86637139D02*
X148109322Y-88034139D01*
X155776322Y-97112139D02*
X154596322Y-97112139D01*
X140489322Y-94003139D02*
X142775322Y-94003139D01*
X148871322Y-94892139D02*
X148109322Y-94130139D01*
X150141322Y-96162139D02*
X148871322Y-94892139D01*
%TO.N,Net-(C18-Pad2)*%
X143029322Y-91844139D02*
X142775322Y-92098139D01*
X145663322Y-91844139D02*
X143029322Y-91844139D01*
X140489322Y-92098139D02*
X142775322Y-92098139D01*
X140489322Y-90320139D02*
X140489322Y-92098139D01*
%TO.N,Net-(C19-Pad1)*%
X153443322Y-89113639D02*
X155094322Y-89113639D01*
X153252822Y-89304139D02*
X153443322Y-89113639D01*
X155094322Y-89113639D02*
X155284822Y-88923139D01*
X151063322Y-89304139D02*
X153252822Y-89304139D01*
%TO.N,/#PeakDetect/Trace*%
X167921322Y-94257139D02*
X165381322Y-94257139D01*
X163396322Y-94257139D02*
X162841322Y-94812139D01*
X165381322Y-94257139D02*
X163396322Y-94257139D01*
%TO.N,/A/D*%
X165381322Y-89177139D02*
X167921322Y-89177139D01*
X162841322Y-88622139D02*
X164826322Y-88622139D01*
X164826322Y-88622139D02*
X165381322Y-89177139D01*
%TO.N,Net-(R12-Pad2)*%
X157761322Y-87272139D02*
X158396322Y-87907139D01*
X155409322Y-85865139D02*
X156816322Y-87272139D01*
X155409322Y-84685139D02*
X155409322Y-85865139D01*
X156816322Y-87272139D02*
X157761322Y-87272139D01*
X158396322Y-87907139D02*
X158396322Y-91399639D01*
%TO.N,Net-(R13-Pad2)*%
X156956322Y-96162139D02*
X155776322Y-96162139D01*
X157189822Y-88923139D02*
X157189822Y-95928639D01*
X157189822Y-95928639D02*
X156956322Y-96162139D01*
%TO.N,Net-(C2-Pad1)*%
X158396322Y-93304639D02*
X158396322Y-95132139D01*
X159886321Y-96167138D02*
X159886321Y-97017138D01*
X158396322Y-95132139D02*
X158476322Y-95212139D01*
X159886321Y-97017138D02*
X160381322Y-97512139D01*
X158476322Y-95212139D02*
X158931322Y-95212139D01*
X160381322Y-97512139D02*
X162841322Y-97512139D01*
X158931322Y-95212139D02*
X159886321Y-96167138D01*
%TO.N,/A*%
X123311322Y-89812139D02*
X122201322Y-89812139D01*
X121566322Y-90447139D02*
X121566322Y-92987139D01*
X121566322Y-95527139D02*
X121566322Y-92987139D01*
X122201322Y-89812139D02*
X121566322Y-90447139D01*
X124741322Y-83977139D02*
X126051322Y-82667139D01*
X123311322Y-89812139D02*
X124486322Y-89812139D01*
X124486322Y-89812139D02*
X124741322Y-89557139D01*
X124741322Y-89557139D02*
X124741322Y-83977139D01*
%TO.N,/K*%
X142775322Y-77747139D02*
X142775322Y-81049139D01*
X128591322Y-82667139D02*
X131051322Y-82667139D01*
X142775322Y-81049139D02*
X141157322Y-82667139D01*
X126051322Y-85207139D02*
X128591322Y-82667139D01*
X141157322Y-82667139D02*
X131051322Y-82667139D01*
%TO.N,/REF*%
X120931322Y-87907139D02*
X119661322Y-89177139D01*
X125757322Y-96352639D02*
X125235822Y-96352639D01*
X162667322Y-103401139D02*
X162841322Y-103227139D01*
X123311322Y-88542139D02*
X121947322Y-88542139D01*
X131154822Y-85113139D02*
X131091322Y-85049639D01*
X134729822Y-84986139D02*
X133631322Y-84986139D01*
X141930822Y-89494639D02*
X141759322Y-89323139D01*
X127979822Y-96352639D02*
X128043322Y-96416139D01*
X132361322Y-85113139D02*
X133504322Y-85113139D01*
X144108822Y-90574139D02*
X143029322Y-89494639D01*
X138923324Y-84986139D02*
X134729822Y-84986139D01*
X145663322Y-90574139D02*
X144108822Y-90574139D01*
X132361322Y-85113139D02*
X131154822Y-85113139D01*
X130401951Y-96355139D02*
X131354386Y-95402704D01*
X121947322Y-88542139D02*
X121566322Y-88542139D01*
X141759322Y-87822137D02*
X138923324Y-84986139D01*
X125757322Y-96352639D02*
X127979822Y-96352639D01*
X130046322Y-96416139D02*
X130107322Y-96355139D01*
X143029322Y-89494639D02*
X141930822Y-89494639D01*
X125235822Y-96352639D02*
X123836322Y-97752139D01*
X146138322Y-90574139D02*
X147309322Y-91745139D01*
X145663322Y-90574139D02*
X146138322Y-90574139D01*
X141759322Y-89323139D02*
X141759322Y-87822137D01*
X128043322Y-96416139D02*
X130046322Y-96416139D01*
X121251322Y-97752139D02*
X123836322Y-97752139D01*
X121566322Y-88542139D02*
X120931322Y-87907139D01*
X147309322Y-91745139D02*
X147309322Y-92225139D01*
X133504322Y-85113139D02*
X133631322Y-84986139D01*
X119661322Y-96162139D02*
X121251322Y-97752139D01*
X119661322Y-89177139D02*
X119661322Y-96162139D01*
X130107322Y-96355139D02*
X130401951Y-96355139D01*
X156237322Y-103401139D02*
X162667322Y-103401139D01*
D36*
%TO.N,Net-(C21-Pad3)*%
X149131322Y-109497139D02*
X149766322Y-110132139D01*
D35*
X155856322Y-110132139D02*
X155856322Y-108862139D01*
D37*
X155856322Y-111402139D02*
X155856322Y-108862139D01*
D36*
X149766322Y-110132139D02*
X151411322Y-110132139D01*
X147681322Y-109497139D02*
X149131322Y-109497139D01*
D35*
X155856322Y-111402139D02*
X155856322Y-110132139D01*
D37*
X155856322Y-110132139D02*
X151411322Y-110132139D01*
D35*
%TO.N,Net-(C22-Pad1)*%
X158523322Y-85367139D02*
X158015322Y-84859139D01*
X158015322Y-84859139D02*
X158015322Y-83271639D01*
X162841322Y-85922139D02*
X160688320Y-85922139D01*
X160133320Y-85367139D02*
X158523322Y-85367139D01*
X160688320Y-85922139D02*
X160133320Y-85367139D01*
%TO.N,Net-(C23-Pad3)*%
X167921322Y-99337139D02*
X165381322Y-99337139D01*
X165381322Y-99337139D02*
X164031322Y-99337139D01*
X164031322Y-99337139D02*
X162841322Y-100527139D01*
%TO.N,Net-(R1-Pad2)*%
X158015322Y-81366639D02*
X157759822Y-81366639D01*
X149633322Y-90574139D02*
X149506322Y-90447139D01*
X156680322Y-80287139D02*
X153882007Y-80287139D01*
X151063322Y-91844139D02*
X151063322Y-90574139D01*
X153882007Y-80287139D02*
X153316322Y-80287139D01*
X157759822Y-81366639D02*
X156680322Y-80287139D01*
X153316322Y-80287139D02*
X153316322Y-81792139D01*
X153316322Y-81792139D02*
X153509322Y-81985139D01*
X151063322Y-90574139D02*
X149633322Y-90574139D01*
%TD*%
%TA.AperFunction,Conductor*%
%TO.N,GND*%
G36*
X169641443Y-73449141D02*
G01*
X169687936Y-73502797D01*
X169699322Y-73555139D01*
X169699322Y-112419139D01*
X169679320Y-112487260D01*
X169625664Y-112533753D01*
X169573322Y-112545139D01*
X157200390Y-112545139D01*
X157132269Y-112525137D01*
X157085776Y-112471481D01*
X157075672Y-112401207D01*
X157082408Y-112374909D01*
X157117293Y-112281854D01*
X157120067Y-112274455D01*
X157126822Y-112212273D01*
X157126822Y-110592005D01*
X157120067Y-110529823D01*
X157068937Y-110393434D01*
X156981583Y-110276878D01*
X156922990Y-110232965D01*
X156880475Y-110176106D01*
X156875449Y-110105287D01*
X156909509Y-110042994D01*
X156922990Y-110031313D01*
X156974403Y-109992781D01*
X156981583Y-109987400D01*
X157068937Y-109870844D01*
X157120067Y-109734455D01*
X157126822Y-109672273D01*
X157126822Y-108052005D01*
X157120067Y-107989823D01*
X157068937Y-107853434D01*
X156981583Y-107736878D01*
X156865027Y-107649524D01*
X156728638Y-107598394D01*
X156666456Y-107591639D01*
X155046188Y-107591639D01*
X154984006Y-107598394D01*
X154847617Y-107649524D01*
X154731061Y-107736878D01*
X154643707Y-107853434D01*
X154592577Y-107989823D01*
X154585822Y-108052005D01*
X154585822Y-109247639D01*
X154565820Y-109315760D01*
X154512164Y-109362253D01*
X154459822Y-109373639D01*
X151948321Y-109373639D01*
X151885321Y-109356758D01*
X151788601Y-109300916D01*
X151788600Y-109300915D01*
X151782878Y-109297612D01*
X151601250Y-109238597D01*
X151594689Y-109237907D01*
X151594687Y-109237907D01*
X151541433Y-109232310D01*
X151458932Y-109223639D01*
X150194825Y-109223639D01*
X150126704Y-109203637D01*
X150105730Y-109186734D01*
X149831303Y-108912307D01*
X149818462Y-108897274D01*
X149814068Y-108891226D01*
X149814067Y-108891225D01*
X149810188Y-108885886D01*
X149759363Y-108840123D01*
X149754578Y-108835582D01*
X149740063Y-108821067D01*
X149732604Y-108815027D01*
X149724106Y-108808145D01*
X149719091Y-108803861D01*
X149673177Y-108762520D01*
X149673172Y-108762516D01*
X149668266Y-108758099D01*
X149662550Y-108754799D01*
X149662546Y-108754796D01*
X149656085Y-108751066D01*
X149639788Y-108739866D01*
X149633982Y-108735164D01*
X149633980Y-108735163D01*
X149628852Y-108731010D01*
X149567899Y-108699953D01*
X149562104Y-108696806D01*
X149508601Y-108665916D01*
X149508600Y-108665915D01*
X149502878Y-108662612D01*
X149496596Y-108660571D01*
X149496594Y-108660570D01*
X149489496Y-108658264D01*
X149471229Y-108650698D01*
X149458692Y-108644310D01*
X149392621Y-108626606D01*
X149386319Y-108624739D01*
X149321250Y-108603597D01*
X149314685Y-108602907D01*
X149314676Y-108602905D01*
X149307247Y-108602124D01*
X149287813Y-108598522D01*
X149280608Y-108596592D01*
X149280606Y-108596592D01*
X149274225Y-108594882D01*
X149267634Y-108594537D01*
X149267630Y-108594536D01*
X149205938Y-108591303D01*
X149199364Y-108590786D01*
X149182206Y-108588983D01*
X149182204Y-108588983D01*
X149178932Y-108588639D01*
X149158396Y-108588639D01*
X149151802Y-108588466D01*
X149090104Y-108585232D01*
X149090099Y-108585232D01*
X149083512Y-108584887D01*
X149069614Y-108587088D01*
X149049905Y-108588639D01*
X148902331Y-108588639D01*
X148834210Y-108568637D01*
X148787717Y-108514981D01*
X148785419Y-108509445D01*
X148785089Y-108508842D01*
X148781937Y-108500434D01*
X148694583Y-108383878D01*
X148578027Y-108296524D01*
X148441638Y-108245394D01*
X148379456Y-108238639D01*
X146983188Y-108238639D01*
X146921006Y-108245394D01*
X146784617Y-108296524D01*
X146668061Y-108383878D01*
X146580707Y-108500434D01*
X146529577Y-108636823D01*
X146522822Y-108699005D01*
X146522822Y-110295273D01*
X146529577Y-110357455D01*
X146580707Y-110493844D01*
X146668061Y-110610400D01*
X146784617Y-110697754D01*
X146921006Y-110748884D01*
X146983188Y-110755639D01*
X148379456Y-110755639D01*
X148441638Y-110748884D01*
X148578027Y-110697754D01*
X148694583Y-110610400D01*
X148721031Y-110575110D01*
X148777888Y-110532596D01*
X148848706Y-110527570D01*
X148910951Y-110561581D01*
X149066341Y-110716971D01*
X149079182Y-110732004D01*
X149087456Y-110743392D01*
X149094503Y-110749737D01*
X149138281Y-110789155D01*
X149143066Y-110793696D01*
X149157581Y-110808211D01*
X149160145Y-110810287D01*
X149173538Y-110821133D01*
X149178553Y-110825417D01*
X149224467Y-110866758D01*
X149224472Y-110866762D01*
X149229378Y-110871179D01*
X149235094Y-110874479D01*
X149235098Y-110874482D01*
X149241559Y-110878212D01*
X149257855Y-110889412D01*
X149268792Y-110898268D01*
X149274670Y-110901263D01*
X149274673Y-110901265D01*
X149329748Y-110929327D01*
X149335545Y-110932475D01*
X149389043Y-110963362D01*
X149394766Y-110966666D01*
X149408148Y-110971014D01*
X149426407Y-110978577D01*
X149438952Y-110984969D01*
X149445322Y-110986676D01*
X149445325Y-110986677D01*
X149484396Y-110997146D01*
X149505034Y-111002676D01*
X149511347Y-111004546D01*
X149576394Y-111025681D01*
X149590397Y-111027153D01*
X149609826Y-111030754D01*
X149623419Y-111034396D01*
X149630016Y-111034742D01*
X149630018Y-111034742D01*
X149691706Y-111037975D01*
X149698280Y-111038492D01*
X149715438Y-111040295D01*
X149715440Y-111040295D01*
X149718712Y-111040639D01*
X149739248Y-111040639D01*
X149745842Y-111040812D01*
X149807540Y-111044046D01*
X149807545Y-111044046D01*
X149814132Y-111044391D01*
X149820648Y-111043359D01*
X149820649Y-111043359D01*
X149828029Y-111042190D01*
X149847739Y-111040639D01*
X151458932Y-111040639D01*
X151552964Y-111030756D01*
X151594687Y-111026371D01*
X151594689Y-111026371D01*
X151601250Y-111025681D01*
X151782878Y-110966666D01*
X151885322Y-110907520D01*
X151948321Y-110890639D01*
X154459822Y-110890639D01*
X154527943Y-110910641D01*
X154574436Y-110964297D01*
X154585822Y-111016639D01*
X154585822Y-112212273D01*
X154592577Y-112274455D01*
X154595351Y-112281854D01*
X154630236Y-112374909D01*
X154635419Y-112445716D01*
X154601498Y-112508085D01*
X154539243Y-112542215D01*
X154512254Y-112545139D01*
X110389322Y-112545139D01*
X110321201Y-112525137D01*
X110274708Y-112471481D01*
X110263322Y-112419139D01*
X110263322Y-96199491D01*
X118948597Y-96199491D01*
X118959192Y-96260195D01*
X118959583Y-96262438D01*
X118960545Y-96268960D01*
X118968220Y-96332381D01*
X118970903Y-96339482D01*
X118971544Y-96342091D01*
X118976007Y-96358401D01*
X118976772Y-96360937D01*
X118978079Y-96368423D01*
X119000660Y-96419862D01*
X119003764Y-96426934D01*
X119006257Y-96433043D01*
X119022923Y-96477148D01*
X119028835Y-96492795D01*
X119033139Y-96499058D01*
X119034376Y-96501424D01*
X119042621Y-96516236D01*
X119043954Y-96518490D01*
X119047007Y-96525444D01*
X119079629Y-96567956D01*
X119085901Y-96576130D01*
X119089781Y-96581471D01*
X119121661Y-96627859D01*
X119121666Y-96627864D01*
X119125965Y-96634120D01*
X119131635Y-96639171D01*
X119131636Y-96639173D01*
X119172492Y-96675574D01*
X119177768Y-96680555D01*
X120729872Y-98232659D01*
X120735726Y-98238924D01*
X120773761Y-98282524D01*
X120824274Y-98318025D01*
X120868504Y-98373556D01*
X120877822Y-98421110D01*
X120877822Y-99150273D01*
X120884577Y-99212455D01*
X120935707Y-99348844D01*
X121023061Y-99465400D01*
X121139617Y-99552754D01*
X121276006Y-99603884D01*
X121338188Y-99610639D01*
X122334456Y-99610639D01*
X122396638Y-99603884D01*
X122533027Y-99552754D01*
X122649583Y-99465400D01*
X122736937Y-99348844D01*
X122788067Y-99212455D01*
X122794822Y-99150273D01*
X122794822Y-98589080D01*
X122814824Y-98520959D01*
X122868480Y-98474466D01*
X122938754Y-98464362D01*
X123003334Y-98493856D01*
X123011056Y-98502144D01*
X123011330Y-98501870D01*
X123017680Y-98508220D01*
X123023061Y-98515400D01*
X123139617Y-98602754D01*
X123276006Y-98653884D01*
X123338188Y-98660639D01*
X124334456Y-98660639D01*
X124396638Y-98653884D01*
X124533027Y-98602754D01*
X124649583Y-98515400D01*
X124736937Y-98398844D01*
X124788067Y-98262455D01*
X124794822Y-98200273D01*
X124794822Y-97847799D01*
X124814824Y-97779678D01*
X124831727Y-97758704D01*
X125247887Y-97342544D01*
X125310199Y-97308518D01*
X125336982Y-97305639D01*
X126503956Y-97305639D01*
X126566138Y-97298884D01*
X126702527Y-97247754D01*
X126791824Y-97180830D01*
X126858329Y-97155982D01*
X126927712Y-97171035D01*
X126968214Y-97206091D01*
X126981561Y-97223900D01*
X127031293Y-97261172D01*
X127040154Y-97267813D01*
X127082669Y-97324672D01*
X127087695Y-97395491D01*
X127053635Y-97457784D01*
X127040155Y-97469464D01*
X126981561Y-97513378D01*
X126894207Y-97629934D01*
X126843077Y-97766323D01*
X126836322Y-97828505D01*
X126836322Y-98813773D01*
X126843077Y-98875955D01*
X126894207Y-99012344D01*
X126981561Y-99128900D01*
X127098117Y-99216254D01*
X127234506Y-99267384D01*
X127296688Y-99274139D01*
X128789956Y-99274139D01*
X128852138Y-99267384D01*
X128988527Y-99216254D01*
X129105083Y-99128900D01*
X129141676Y-99080074D01*
X129198535Y-99037559D01*
X129242502Y-99029639D01*
X129267082Y-99029639D01*
X129335203Y-99049641D01*
X129342641Y-99054809D01*
X129410617Y-99105754D01*
X129547006Y-99156884D01*
X129609188Y-99163639D01*
X129728819Y-99163639D01*
X129796940Y-99183641D01*
X129817914Y-99200544D01*
X130657341Y-100039971D01*
X130670182Y-100055004D01*
X130678456Y-100066392D01*
X130683365Y-100070812D01*
X130729281Y-100112155D01*
X130734066Y-100116696D01*
X130748581Y-100131211D01*
X130751145Y-100133287D01*
X130764538Y-100144133D01*
X130769553Y-100148417D01*
X130815467Y-100189758D01*
X130815472Y-100189762D01*
X130820378Y-100194179D01*
X130826094Y-100197479D01*
X130826098Y-100197482D01*
X130832559Y-100201212D01*
X130848855Y-100212412D01*
X130859792Y-100221268D01*
X130920743Y-100252324D01*
X130926537Y-100255470D01*
X130985766Y-100289666D01*
X130992048Y-100291707D01*
X130992050Y-100291708D01*
X130999148Y-100294014D01*
X131017414Y-100301579D01*
X131029952Y-100307968D01*
X131036328Y-100309677D01*
X131036332Y-100309678D01*
X131096007Y-100325668D01*
X131102332Y-100327541D01*
X131167394Y-100348681D01*
X131173962Y-100349371D01*
X131173966Y-100349372D01*
X131181383Y-100350151D01*
X131200830Y-100353755D01*
X131214418Y-100357396D01*
X131221017Y-100357742D01*
X131221018Y-100357742D01*
X131282707Y-100360975D01*
X131289282Y-100361492D01*
X131303544Y-100362991D01*
X131309712Y-100363639D01*
X131330247Y-100363639D01*
X131336841Y-100363812D01*
X131398539Y-100367046D01*
X131398544Y-100367046D01*
X131405131Y-100367391D01*
X131419029Y-100365190D01*
X131438738Y-100363639D01*
X133939905Y-100363639D01*
X133959614Y-100365190D01*
X133973512Y-100367391D01*
X133980099Y-100367046D01*
X133980104Y-100367046D01*
X134041802Y-100363812D01*
X134048396Y-100363639D01*
X134068932Y-100363639D01*
X134072204Y-100363295D01*
X134072206Y-100363295D01*
X134089364Y-100361492D01*
X134095938Y-100360975D01*
X134157630Y-100357742D01*
X134157634Y-100357741D01*
X134164225Y-100357396D01*
X134170606Y-100355686D01*
X134170608Y-100355686D01*
X134177813Y-100353756D01*
X134197247Y-100350154D01*
X134204676Y-100349373D01*
X134204685Y-100349371D01*
X134211250Y-100348681D01*
X134276319Y-100327539D01*
X134282621Y-100325672D01*
X134324174Y-100314538D01*
X134342318Y-100309676D01*
X134342319Y-100309676D01*
X134348692Y-100307968D01*
X134361230Y-100301579D01*
X134379496Y-100294014D01*
X134386594Y-100291708D01*
X134386596Y-100291707D01*
X134392878Y-100289666D01*
X134452107Y-100255470D01*
X134457901Y-100252324D01*
X134518852Y-100221268D01*
X134529789Y-100212412D01*
X134546085Y-100201212D01*
X134552546Y-100197482D01*
X134552550Y-100197479D01*
X134558266Y-100194179D01*
X134563172Y-100189762D01*
X134563177Y-100189758D01*
X134609091Y-100148417D01*
X134614106Y-100144133D01*
X134627499Y-100133287D01*
X134630063Y-100131211D01*
X134644578Y-100116696D01*
X134649363Y-100112155D01*
X134695279Y-100070812D01*
X134700188Y-100066392D01*
X134708462Y-100055004D01*
X134721303Y-100039971D01*
X137018730Y-97742544D01*
X137081042Y-97708518D01*
X137107825Y-97705639D01*
X143518822Y-97705639D01*
X143586943Y-97725641D01*
X143633436Y-97779297D01*
X143644822Y-97831639D01*
X143644822Y-99397962D01*
X143643271Y-99417671D01*
X143641070Y-99431569D01*
X143641415Y-99438156D01*
X143641415Y-99438161D01*
X143644649Y-99499859D01*
X143644822Y-99506453D01*
X143644822Y-99526989D01*
X143645166Y-99530261D01*
X143645166Y-99530263D01*
X143646969Y-99547421D01*
X143647486Y-99553995D01*
X143650455Y-99610639D01*
X143651065Y-99622282D01*
X143652775Y-99628663D01*
X143652775Y-99628665D01*
X143654705Y-99635870D01*
X143658307Y-99655304D01*
X143659088Y-99662733D01*
X143659090Y-99662742D01*
X143659780Y-99669307D01*
X143680922Y-99734376D01*
X143682789Y-99740678D01*
X143700493Y-99806749D01*
X143706881Y-99819286D01*
X143714447Y-99837552D01*
X143718795Y-99850935D01*
X143722098Y-99856657D01*
X143722099Y-99856658D01*
X143752989Y-99910161D01*
X143756136Y-99915956D01*
X143787193Y-99976909D01*
X143791346Y-99982037D01*
X143791347Y-99982039D01*
X143796049Y-99987845D01*
X143807249Y-100004142D01*
X143810979Y-100010603D01*
X143810982Y-100010607D01*
X143814282Y-100016323D01*
X143818699Y-100021229D01*
X143818703Y-100021234D01*
X143860044Y-100067148D01*
X143864325Y-100072159D01*
X143869419Y-100078449D01*
X143896747Y-100143976D01*
X143897502Y-100157748D01*
X143897502Y-101904953D01*
X143904257Y-101967135D01*
X143955387Y-102103524D01*
X144042741Y-102220080D01*
X144159297Y-102307434D01*
X144295686Y-102358564D01*
X144357868Y-102365319D01*
X144661822Y-102365319D01*
X144729943Y-102385321D01*
X144776436Y-102438977D01*
X144787822Y-102491319D01*
X144787822Y-102849797D01*
X144779804Y-102894026D01*
X144750077Y-102973323D01*
X144743322Y-103035505D01*
X144743322Y-103398136D01*
X144723320Y-103466257D01*
X144706417Y-103487231D01*
X144396490Y-103797158D01*
X144381457Y-103809999D01*
X144370069Y-103818273D01*
X144365649Y-103823182D01*
X144324306Y-103869098D01*
X144319765Y-103873883D01*
X144305250Y-103888398D01*
X144303174Y-103890962D01*
X144292328Y-103904355D01*
X144288044Y-103909370D01*
X144246703Y-103955284D01*
X144246699Y-103955289D01*
X144242282Y-103960195D01*
X144238982Y-103965911D01*
X144238979Y-103965915D01*
X144235249Y-103972376D01*
X144224049Y-103988672D01*
X144215193Y-103999609D01*
X144186644Y-104055639D01*
X144184137Y-104060560D01*
X144180991Y-104066354D01*
X144146795Y-104125583D01*
X144144754Y-104131865D01*
X144144753Y-104131867D01*
X144142447Y-104138965D01*
X144134882Y-104157231D01*
X144128493Y-104169769D01*
X144126785Y-104176142D01*
X144126785Y-104176143D01*
X144110791Y-104235834D01*
X144108922Y-104242142D01*
X144087780Y-104307211D01*
X144087090Y-104313776D01*
X144087088Y-104313785D01*
X144086307Y-104321214D01*
X144082705Y-104340648D01*
X144080775Y-104347853D01*
X144079065Y-104354236D01*
X144078720Y-104360827D01*
X144078719Y-104360831D01*
X144075486Y-104422523D01*
X144074969Y-104429097D01*
X144073166Y-104446255D01*
X144072822Y-104449529D01*
X144072822Y-104470065D01*
X144072649Y-104476659D01*
X144069740Y-104532170D01*
X144069070Y-104544949D01*
X144070102Y-104551464D01*
X144071271Y-104558844D01*
X144072822Y-104578556D01*
X144072822Y-108242337D01*
X144052820Y-108310458D01*
X144022387Y-108343163D01*
X143968061Y-108383878D01*
X143880707Y-108500434D01*
X143829577Y-108636823D01*
X143822822Y-108699005D01*
X143822822Y-110295273D01*
X143829577Y-110357455D01*
X143880707Y-110493844D01*
X143968061Y-110610400D01*
X144084617Y-110697754D01*
X144221006Y-110748884D01*
X144283188Y-110755639D01*
X145679456Y-110755639D01*
X145741638Y-110748884D01*
X145878027Y-110697754D01*
X145994583Y-110610400D01*
X146081937Y-110493844D01*
X146133067Y-110357455D01*
X146139822Y-110295273D01*
X146139822Y-108699005D01*
X146133067Y-108636823D01*
X146081937Y-108500434D01*
X145994583Y-108383878D01*
X145940257Y-108343163D01*
X145897742Y-108286304D01*
X145889822Y-108242337D01*
X145889822Y-105115139D01*
X145909824Y-105047018D01*
X145963480Y-105000525D01*
X146015822Y-104989139D01*
X146188956Y-104989139D01*
X146251138Y-104982384D01*
X146387527Y-104931254D01*
X146504083Y-104843900D01*
X146591437Y-104727344D01*
X146642567Y-104590955D01*
X146649322Y-104528773D01*
X146649322Y-104181639D01*
X146669324Y-104113518D01*
X146722980Y-104067025D01*
X146775322Y-104055639D01*
X148173066Y-104055639D01*
X148241187Y-104075641D01*
X148287680Y-104129297D01*
X148295184Y-104151140D01*
X148295917Y-104157885D01*
X148298688Y-104165276D01*
X148298689Y-104165281D01*
X148327510Y-104242160D01*
X148347047Y-104294274D01*
X148434401Y-104410830D01*
X148550957Y-104498184D01*
X148687346Y-104549314D01*
X148749528Y-104556069D01*
X151345156Y-104556069D01*
X151407338Y-104549314D01*
X151543727Y-104498184D01*
X151660283Y-104410830D01*
X151747637Y-104294274D01*
X151798767Y-104157885D01*
X151805522Y-104095703D01*
X151805522Y-103401139D01*
X155323818Y-103401139D01*
X155324508Y-103407704D01*
X155332867Y-103487231D01*
X155343780Y-103591067D01*
X155402795Y-103772695D01*
X155406098Y-103778417D01*
X155406099Y-103778418D01*
X155431944Y-103823182D01*
X155498282Y-103938083D01*
X155502700Y-103942990D01*
X155502701Y-103942991D01*
X155535663Y-103979599D01*
X155626069Y-104080005D01*
X155694387Y-104129641D01*
X155765956Y-104181639D01*
X155780570Y-104192257D01*
X155786598Y-104194941D01*
X155786600Y-104194942D01*
X155900787Y-104245781D01*
X155955034Y-104269933D01*
X156048435Y-104289786D01*
X156135378Y-104308267D01*
X156135383Y-104308267D01*
X156141835Y-104309639D01*
X156332809Y-104309639D01*
X156339261Y-104308267D01*
X156339266Y-104308267D01*
X156426209Y-104289786D01*
X156519610Y-104269933D01*
X156573857Y-104245781D01*
X156688044Y-104194942D01*
X156688046Y-104194941D01*
X156694074Y-104192257D01*
X156708689Y-104181639D01*
X156774666Y-104133703D01*
X156841533Y-104109845D01*
X156848727Y-104109639D01*
X161567034Y-104109639D01*
X161635155Y-104129641D01*
X161667860Y-104160074D01*
X161728061Y-104240400D01*
X161844617Y-104327754D01*
X161981006Y-104378884D01*
X162043188Y-104385639D01*
X163639456Y-104385639D01*
X163701638Y-104378884D01*
X163838027Y-104327754D01*
X163954583Y-104240400D01*
X164041937Y-104123844D01*
X164093067Y-103987455D01*
X164099822Y-103925273D01*
X164099822Y-102529005D01*
X164093067Y-102466823D01*
X164041937Y-102330434D01*
X163954583Y-102213878D01*
X163838027Y-102126524D01*
X163701638Y-102075394D01*
X163639456Y-102068639D01*
X162043188Y-102068639D01*
X161981006Y-102075394D01*
X161844617Y-102126524D01*
X161728061Y-102213878D01*
X161640707Y-102330434D01*
X161589577Y-102466823D01*
X161582822Y-102529005D01*
X161582822Y-102566639D01*
X161562820Y-102634760D01*
X161509164Y-102681253D01*
X161456822Y-102692639D01*
X156848727Y-102692639D01*
X156780606Y-102672637D01*
X156774666Y-102668575D01*
X156699416Y-102613902D01*
X156699415Y-102613901D01*
X156694074Y-102610021D01*
X156688046Y-102607337D01*
X156688044Y-102607336D01*
X156525641Y-102535030D01*
X156525640Y-102535030D01*
X156519610Y-102532345D01*
X156426209Y-102512492D01*
X156339266Y-102494011D01*
X156339261Y-102494011D01*
X156332809Y-102492639D01*
X156141835Y-102492639D01*
X156135383Y-102494011D01*
X156135378Y-102494011D01*
X156048435Y-102512492D01*
X155955034Y-102532345D01*
X155949004Y-102535030D01*
X155949003Y-102535030D01*
X155786600Y-102607336D01*
X155786598Y-102607337D01*
X155780570Y-102610021D01*
X155626069Y-102722273D01*
X155498282Y-102864195D01*
X155402795Y-103029583D01*
X155343780Y-103211211D01*
X155323818Y-103401139D01*
X151805522Y-103401139D01*
X151805522Y-102725962D01*
X151825524Y-102657841D01*
X151842427Y-102636867D01*
X152313654Y-102165640D01*
X152328687Y-102152799D01*
X152334735Y-102148405D01*
X152334736Y-102148404D01*
X152340075Y-102144525D01*
X152385838Y-102093700D01*
X152390379Y-102088915D01*
X152404894Y-102074400D01*
X152417816Y-102058443D01*
X152422100Y-102053428D01*
X152463441Y-102007514D01*
X152463445Y-102007509D01*
X152467862Y-102002603D01*
X152471162Y-101996887D01*
X152471165Y-101996883D01*
X152474895Y-101990422D01*
X152486095Y-101974125D01*
X152490797Y-101968319D01*
X152490798Y-101968317D01*
X152494951Y-101963189D01*
X152526010Y-101902233D01*
X152529158Y-101896436D01*
X152560046Y-101842936D01*
X152563349Y-101837215D01*
X152567697Y-101823833D01*
X152575260Y-101805574D01*
X152581652Y-101793029D01*
X152599359Y-101726947D01*
X152601231Y-101720628D01*
X152620323Y-101661869D01*
X152620323Y-101661868D01*
X152622364Y-101655587D01*
X152623836Y-101641584D01*
X152627437Y-101622155D01*
X152631079Y-101608562D01*
X152634658Y-101540275D01*
X152635175Y-101533701D01*
X152636978Y-101516543D01*
X152636978Y-101516541D01*
X152637322Y-101513269D01*
X152637322Y-101492733D01*
X152637495Y-101486139D01*
X152640729Y-101424441D01*
X152640729Y-101424436D01*
X152641074Y-101417849D01*
X152638873Y-101403951D01*
X152637322Y-101384242D01*
X152637322Y-100509339D01*
X152657324Y-100441218D01*
X152710980Y-100394725D01*
X152781254Y-100384621D01*
X152838887Y-100408513D01*
X152935430Y-100480868D01*
X152942617Y-100486254D01*
X153079006Y-100537384D01*
X153141188Y-100544139D01*
X154126456Y-100544139D01*
X154188638Y-100537384D01*
X154325027Y-100486254D01*
X154441583Y-100398900D01*
X154528937Y-100282344D01*
X154580067Y-100145955D01*
X154580576Y-100141267D01*
X154615095Y-100080845D01*
X154678051Y-100048026D01*
X154702459Y-100045639D01*
X155509910Y-100045639D01*
X155518480Y-100045931D01*
X155568598Y-100049348D01*
X155568602Y-100049348D01*
X155576174Y-100049864D01*
X155583651Y-100048559D01*
X155583652Y-100048559D01*
X155610130Y-100043938D01*
X155639125Y-100038877D01*
X155645643Y-100037916D01*
X155709064Y-100030241D01*
X155716165Y-100027558D01*
X155718774Y-100026917D01*
X155735084Y-100022454D01*
X155737620Y-100021688D01*
X155745106Y-100020382D01*
X155752061Y-100017329D01*
X155752064Y-100017328D01*
X155803611Y-99994700D01*
X155809719Y-99992207D01*
X155839978Y-99980773D01*
X155884516Y-99972639D01*
X156602956Y-99972639D01*
X156665138Y-99965884D01*
X156801527Y-99914754D01*
X156918083Y-99827400D01*
X156954676Y-99778574D01*
X157011535Y-99736059D01*
X157055502Y-99728139D01*
X157197142Y-99728139D01*
X157265263Y-99748141D01*
X157297968Y-99778574D01*
X157334561Y-99827400D01*
X157451117Y-99914754D01*
X157587506Y-99965884D01*
X157649688Y-99972639D01*
X159142956Y-99972639D01*
X159205138Y-99965884D01*
X159341527Y-99914754D01*
X159458083Y-99827400D01*
X159545437Y-99710844D01*
X159596567Y-99574455D01*
X159603322Y-99512273D01*
X159603322Y-98527005D01*
X159596567Y-98464823D01*
X159545437Y-98328434D01*
X159458083Y-98211878D01*
X159368952Y-98145078D01*
X159326437Y-98088219D01*
X159321411Y-98017400D01*
X159355471Y-97955107D01*
X159400287Y-97926270D01*
X159494619Y-97890906D01*
X159503027Y-97887754D01*
X159559621Y-97845339D01*
X159626127Y-97820491D01*
X159695510Y-97835544D01*
X159724281Y-97857070D01*
X159859886Y-97992675D01*
X159865740Y-97998940D01*
X159903761Y-98042524D01*
X159956051Y-98079275D01*
X159961293Y-98083167D01*
X160011604Y-98122615D01*
X160018523Y-98125739D01*
X160020815Y-98127127D01*
X160035487Y-98135496D01*
X160037847Y-98136761D01*
X160044061Y-98141129D01*
X160051140Y-98143889D01*
X160051142Y-98143890D01*
X160103597Y-98164341D01*
X160109666Y-98166892D01*
X160167895Y-98193184D01*
X160175368Y-98194569D01*
X160177934Y-98195373D01*
X160194157Y-98199994D01*
X160196749Y-98200659D01*
X160203831Y-98203421D01*
X160211366Y-98204413D01*
X160267183Y-98211761D01*
X160273699Y-98212793D01*
X160307502Y-98219058D01*
X160336508Y-98224434D01*
X160344088Y-98223997D01*
X160344089Y-98223997D01*
X160398702Y-98220848D01*
X160405955Y-98220639D01*
X161482824Y-98220639D01*
X161550945Y-98240641D01*
X161597438Y-98294297D01*
X161600806Y-98302409D01*
X161617560Y-98347099D01*
X161640707Y-98408844D01*
X161728061Y-98525400D01*
X161844617Y-98612754D01*
X161981006Y-98663884D01*
X162043188Y-98670639D01*
X163391662Y-98670639D01*
X163459783Y-98690641D01*
X163506276Y-98744297D01*
X163516380Y-98814571D01*
X163486886Y-98879151D01*
X163480757Y-98885734D01*
X163034757Y-99331734D01*
X162972445Y-99365760D01*
X162945662Y-99368639D01*
X162043188Y-99368639D01*
X161981006Y-99375394D01*
X161844617Y-99426524D01*
X161728061Y-99513878D01*
X161640707Y-99630434D01*
X161589577Y-99766823D01*
X161582822Y-99829005D01*
X161582822Y-101225273D01*
X161589577Y-101287455D01*
X161640707Y-101423844D01*
X161728061Y-101540400D01*
X161844617Y-101627754D01*
X161981006Y-101678884D01*
X162043188Y-101685639D01*
X163639456Y-101685639D01*
X163701638Y-101678884D01*
X163838027Y-101627754D01*
X163954583Y-101540400D01*
X164041937Y-101423844D01*
X164093067Y-101287455D01*
X164099822Y-101225273D01*
X164099822Y-100597196D01*
X164119824Y-100529075D01*
X164173480Y-100482582D01*
X164243754Y-100472478D01*
X164301387Y-100496370D01*
X164372617Y-100549754D01*
X164509006Y-100600884D01*
X164571188Y-100607639D01*
X166191456Y-100607639D01*
X166253638Y-100600884D01*
X166390027Y-100549754D01*
X166506583Y-100462400D01*
X166550496Y-100403807D01*
X166607355Y-100361292D01*
X166678174Y-100356266D01*
X166740467Y-100390326D01*
X166752147Y-100403806D01*
X166796061Y-100462400D01*
X166912617Y-100549754D01*
X167049006Y-100600884D01*
X167111188Y-100607639D01*
X168731456Y-100607639D01*
X168793638Y-100600884D01*
X168930027Y-100549754D01*
X169046583Y-100462400D01*
X169133937Y-100345844D01*
X169185067Y-100209455D01*
X169191822Y-100147273D01*
X169191822Y-98527005D01*
X169185067Y-98464823D01*
X169133937Y-98328434D01*
X169046583Y-98211878D01*
X168930027Y-98124524D01*
X168793638Y-98073394D01*
X168731456Y-98066639D01*
X167111188Y-98066639D01*
X167049006Y-98073394D01*
X166912617Y-98124524D01*
X166796061Y-98211878D01*
X166778204Y-98235704D01*
X166752148Y-98270471D01*
X166695289Y-98312986D01*
X166624470Y-98318012D01*
X166562177Y-98283952D01*
X166550496Y-98270471D01*
X166524440Y-98235704D01*
X166506583Y-98211878D01*
X166390027Y-98124524D01*
X166253638Y-98073394D01*
X166191456Y-98066639D01*
X164571188Y-98066639D01*
X164509006Y-98073394D01*
X164372617Y-98124524D01*
X164317892Y-98165538D01*
X164301387Y-98177908D01*
X164234881Y-98202756D01*
X164165498Y-98187703D01*
X164115268Y-98137529D01*
X164099822Y-98077082D01*
X164099822Y-96814005D01*
X164093067Y-96751823D01*
X164041937Y-96615434D01*
X163954583Y-96498878D01*
X163838027Y-96411524D01*
X163701638Y-96360394D01*
X163639456Y-96353639D01*
X162043188Y-96353639D01*
X161981006Y-96360394D01*
X161844617Y-96411524D01*
X161728061Y-96498878D01*
X161640707Y-96615434D01*
X161637555Y-96623842D01*
X161600806Y-96721869D01*
X161558164Y-96778633D01*
X161491603Y-96803333D01*
X161482824Y-96803639D01*
X160726982Y-96803639D01*
X160658861Y-96783637D01*
X160637887Y-96766734D01*
X160631726Y-96760573D01*
X160597700Y-96698261D01*
X160594821Y-96671478D01*
X160594821Y-96196065D01*
X160595113Y-96187496D01*
X160598531Y-96137363D01*
X160598531Y-96137359D01*
X160599047Y-96129786D01*
X160588057Y-96066819D01*
X160587096Y-96060303D01*
X160585378Y-96046107D01*
X160579423Y-95996896D01*
X160576740Y-95989795D01*
X160576099Y-95987186D01*
X160571634Y-95970866D01*
X160570869Y-95968333D01*
X160569564Y-95960855D01*
X160543873Y-95902328D01*
X160541388Y-95896240D01*
X160521493Y-95843587D01*
X160521492Y-95843585D01*
X160518808Y-95836482D01*
X160514507Y-95830223D01*
X160513270Y-95827858D01*
X160505048Y-95813086D01*
X160503693Y-95810794D01*
X160500637Y-95803833D01*
X160496012Y-95797806D01*
X160496010Y-95797802D01*
X160461728Y-95753125D01*
X160457850Y-95747788D01*
X160443442Y-95726823D01*
X160421678Y-95695157D01*
X160406484Y-95681619D01*
X160375168Y-95653718D01*
X160369892Y-95648738D01*
X160231427Y-95510273D01*
X161582822Y-95510273D01*
X161589577Y-95572455D01*
X161640707Y-95708844D01*
X161728061Y-95825400D01*
X161844617Y-95912754D01*
X161981006Y-95963884D01*
X162043188Y-95970639D01*
X163639456Y-95970639D01*
X163701638Y-95963884D01*
X163838027Y-95912754D01*
X163954583Y-95825400D01*
X164041937Y-95708844D01*
X164093067Y-95572455D01*
X164097834Y-95528573D01*
X164099455Y-95513655D01*
X164099455Y-95513648D01*
X164099822Y-95510273D01*
X164099822Y-95509611D01*
X164123307Y-95443168D01*
X164179400Y-95399647D01*
X164250118Y-95393362D01*
X164301026Y-95416100D01*
X164372617Y-95469754D01*
X164509006Y-95520884D01*
X164571188Y-95527639D01*
X166191456Y-95527639D01*
X166253638Y-95520884D01*
X166390027Y-95469754D01*
X166506583Y-95382400D01*
X166550496Y-95323807D01*
X166607355Y-95281292D01*
X166678174Y-95276266D01*
X166740467Y-95310326D01*
X166752147Y-95323806D01*
X166796061Y-95382400D01*
X166912617Y-95469754D01*
X167049006Y-95520884D01*
X167111188Y-95527639D01*
X168731456Y-95527639D01*
X168793638Y-95520884D01*
X168930027Y-95469754D01*
X169046583Y-95382400D01*
X169133937Y-95265844D01*
X169185067Y-95129455D01*
X169191822Y-95067273D01*
X169191822Y-93447005D01*
X169185067Y-93384823D01*
X169133937Y-93248434D01*
X169046583Y-93131878D01*
X168930027Y-93044524D01*
X168793638Y-92993394D01*
X168731456Y-92986639D01*
X167111188Y-92986639D01*
X167049006Y-92993394D01*
X166912617Y-93044524D01*
X166796061Y-93131878D01*
X166790680Y-93139058D01*
X166752148Y-93190471D01*
X166695289Y-93232986D01*
X166624470Y-93238012D01*
X166562177Y-93203952D01*
X166550496Y-93190471D01*
X166511964Y-93139058D01*
X166506583Y-93131878D01*
X166390027Y-93044524D01*
X166253638Y-92993394D01*
X166191456Y-92986639D01*
X164571188Y-92986639D01*
X164509006Y-92993394D01*
X164372617Y-93044524D01*
X164256061Y-93131878D01*
X164168707Y-93248434D01*
X164117577Y-93384823D01*
X164116724Y-93392675D01*
X164116723Y-93392679D01*
X164111991Y-93436246D01*
X164084750Y-93501808D01*
X164026387Y-93542235D01*
X163986728Y-93548639D01*
X163425249Y-93548639D01*
X163416680Y-93548347D01*
X163366547Y-93544929D01*
X163366543Y-93544929D01*
X163358970Y-93544413D01*
X163296003Y-93555403D01*
X163289491Y-93556363D01*
X163226080Y-93564037D01*
X163218979Y-93566720D01*
X163216370Y-93567361D01*
X163200050Y-93571826D01*
X163197517Y-93572591D01*
X163190039Y-93573896D01*
X163131512Y-93599587D01*
X163125430Y-93602069D01*
X163105075Y-93609761D01*
X163072771Y-93621967D01*
X163072769Y-93621968D01*
X163065666Y-93624652D01*
X163059407Y-93628953D01*
X163057042Y-93630190D01*
X163039297Y-93640066D01*
X163033017Y-93642823D01*
X163033016Y-93642824D01*
X163033013Y-93642825D01*
X163031793Y-93640046D01*
X162982052Y-93653639D01*
X162043188Y-93653639D01*
X161981006Y-93660394D01*
X161844617Y-93711524D01*
X161728061Y-93798878D01*
X161640707Y-93915434D01*
X161589577Y-94051823D01*
X161582822Y-94114005D01*
X161582822Y-95510273D01*
X160231427Y-95510273D01*
X160096374Y-95375220D01*
X159801727Y-95080574D01*
X159767702Y-95018261D01*
X159764822Y-94991478D01*
X159764822Y-94839005D01*
X159758067Y-94776823D01*
X159706937Y-94640434D01*
X159619583Y-94523878D01*
X159503027Y-94436524D01*
X159481484Y-94428448D01*
X159400287Y-94398008D01*
X159343523Y-94355366D01*
X159318823Y-94288804D01*
X159334031Y-94219456D01*
X159368952Y-94179200D01*
X159372557Y-94176498D01*
X159458083Y-94112400D01*
X159545437Y-93995844D01*
X159596567Y-93859455D01*
X159603322Y-93797273D01*
X159603322Y-92812005D01*
X159596567Y-92749823D01*
X159545437Y-92613434D01*
X159458083Y-92496878D01*
X159399490Y-92452965D01*
X159356975Y-92396106D01*
X159351949Y-92325287D01*
X159386009Y-92262994D01*
X159399490Y-92251313D01*
X159450903Y-92212781D01*
X159458083Y-92207400D01*
X159545437Y-92090844D01*
X159596567Y-91954455D01*
X159603322Y-91892273D01*
X159603322Y-90907005D01*
X159596567Y-90844823D01*
X159545437Y-90708434D01*
X159458083Y-90591878D01*
X159341527Y-90504524D01*
X159205138Y-90453394D01*
X159200450Y-90452885D01*
X159140028Y-90418366D01*
X159107209Y-90355410D01*
X159104822Y-90331002D01*
X159104822Y-89320273D01*
X161582822Y-89320273D01*
X161589577Y-89382455D01*
X161640707Y-89518844D01*
X161728061Y-89635400D01*
X161844617Y-89722754D01*
X161981006Y-89773884D01*
X162043188Y-89780639D01*
X163639456Y-89780639D01*
X163701638Y-89773884D01*
X163838027Y-89722754D01*
X163909257Y-89669370D01*
X163975763Y-89644522D01*
X164045146Y-89659575D01*
X164095376Y-89709749D01*
X164110822Y-89770196D01*
X164110822Y-89987273D01*
X164117577Y-90049455D01*
X164168707Y-90185844D01*
X164256061Y-90302400D01*
X164372617Y-90389754D01*
X164509006Y-90440884D01*
X164571188Y-90447639D01*
X166191456Y-90447639D01*
X166253638Y-90440884D01*
X166390027Y-90389754D01*
X166506583Y-90302400D01*
X166550496Y-90243807D01*
X166607355Y-90201292D01*
X166678174Y-90196266D01*
X166740467Y-90230326D01*
X166752147Y-90243806D01*
X166796061Y-90302400D01*
X166912617Y-90389754D01*
X167049006Y-90440884D01*
X167111188Y-90447639D01*
X168731456Y-90447639D01*
X168793638Y-90440884D01*
X168930027Y-90389754D01*
X169046583Y-90302400D01*
X169133937Y-90185844D01*
X169185067Y-90049455D01*
X169191822Y-89987273D01*
X169191822Y-88367005D01*
X169185067Y-88304823D01*
X169133937Y-88168434D01*
X169046583Y-88051878D01*
X168930027Y-87964524D01*
X168793638Y-87913394D01*
X168731456Y-87906639D01*
X167111188Y-87906639D01*
X167049006Y-87913394D01*
X166912617Y-87964524D01*
X166796061Y-88051878D01*
X166790680Y-88059058D01*
X166752148Y-88110471D01*
X166695289Y-88152986D01*
X166624470Y-88158012D01*
X166562177Y-88123952D01*
X166550496Y-88110471D01*
X166511964Y-88059058D01*
X166506583Y-88051878D01*
X166390027Y-87964524D01*
X166253638Y-87913394D01*
X166191456Y-87906639D01*
X164571188Y-87906639D01*
X164567791Y-87907008D01*
X164513535Y-87912902D01*
X164499927Y-87913639D01*
X164199820Y-87913639D01*
X164131699Y-87893637D01*
X164085206Y-87839981D01*
X164081838Y-87831869D01*
X164045089Y-87733842D01*
X164041937Y-87725434D01*
X163954583Y-87608878D01*
X163838027Y-87521524D01*
X163701638Y-87470394D01*
X163639456Y-87463639D01*
X162043188Y-87463639D01*
X161981006Y-87470394D01*
X161844617Y-87521524D01*
X161728061Y-87608878D01*
X161640707Y-87725434D01*
X161589577Y-87861823D01*
X161582822Y-87924005D01*
X161582822Y-89320273D01*
X159104822Y-89320273D01*
X159104822Y-87936066D01*
X159105114Y-87927497D01*
X159108532Y-87877364D01*
X159108532Y-87877360D01*
X159109048Y-87869787D01*
X159098058Y-87806820D01*
X159097097Y-87800304D01*
X159096136Y-87792362D01*
X159089424Y-87736897D01*
X159086741Y-87729796D01*
X159086100Y-87727187D01*
X159081635Y-87710867D01*
X159080870Y-87708334D01*
X159079565Y-87700856D01*
X159053874Y-87642329D01*
X159051389Y-87636241D01*
X159031494Y-87583588D01*
X159031493Y-87583586D01*
X159028809Y-87576483D01*
X159024508Y-87570224D01*
X159023271Y-87567859D01*
X159015049Y-87553087D01*
X159013694Y-87550795D01*
X159010638Y-87543834D01*
X159006013Y-87537807D01*
X159006011Y-87537803D01*
X158971729Y-87493126D01*
X158967851Y-87487789D01*
X158965332Y-87484123D01*
X158943808Y-87452806D01*
X158935981Y-87441417D01*
X158935980Y-87441416D01*
X158931679Y-87435158D01*
X158919889Y-87424653D01*
X158885169Y-87393719D01*
X158879893Y-87388739D01*
X158282757Y-86791604D01*
X158276903Y-86785337D01*
X158243878Y-86747479D01*
X158243875Y-86747476D01*
X158238883Y-86741754D01*
X158186602Y-86705010D01*
X158181308Y-86701078D01*
X158137015Y-86666348D01*
X158131040Y-86661663D01*
X158124124Y-86658540D01*
X158121838Y-86657156D01*
X158107157Y-86648782D01*
X158104797Y-86647517D01*
X158098583Y-86643149D01*
X158091504Y-86640389D01*
X158091502Y-86640388D01*
X158039047Y-86619937D01*
X158032978Y-86617386D01*
X157974749Y-86591094D01*
X157967282Y-86589710D01*
X157964727Y-86588909D01*
X157948474Y-86584280D01*
X157945894Y-86583617D01*
X157938813Y-86580857D01*
X157931282Y-86579866D01*
X157931280Y-86579865D01*
X157898411Y-86575538D01*
X157875461Y-86572517D01*
X157868963Y-86571487D01*
X157806136Y-86559843D01*
X157798556Y-86560280D01*
X157798555Y-86560280D01*
X157743930Y-86563430D01*
X157736676Y-86563639D01*
X157161982Y-86563639D01*
X157093861Y-86543637D01*
X157072887Y-86526734D01*
X156262221Y-85716068D01*
X156228195Y-85653756D01*
X156232750Y-85590842D01*
X156231467Y-85590537D01*
X156233295Y-85582849D01*
X156236067Y-85575455D01*
X156242822Y-85513273D01*
X156242822Y-83857005D01*
X156236067Y-83794823D01*
X156184937Y-83658434D01*
X156097583Y-83541878D01*
X155981027Y-83454524D01*
X155844638Y-83403394D01*
X155782456Y-83396639D01*
X155264709Y-83396639D01*
X155196588Y-83376637D01*
X155150095Y-83322981D01*
X155144086Y-83307053D01*
X155143869Y-83306336D01*
X155142564Y-83298855D01*
X155117853Y-83242560D01*
X155116883Y-83240351D01*
X155114391Y-83234244D01*
X155094495Y-83181591D01*
X155094495Y-83181590D01*
X155091809Y-83174483D01*
X155087506Y-83168222D01*
X155086269Y-83165856D01*
X155078042Y-83151076D01*
X155076691Y-83148791D01*
X155073637Y-83141834D01*
X155069017Y-83135814D01*
X155069014Y-83135808D01*
X155034743Y-83091148D01*
X155030863Y-83085807D01*
X154998983Y-83039419D01*
X154998978Y-83039414D01*
X154994679Y-83033158D01*
X154948151Y-82991703D01*
X154942876Y-82986723D01*
X154810772Y-82854619D01*
X154804918Y-82848354D01*
X154803134Y-82846309D01*
X154766883Y-82804754D01*
X154714602Y-82768010D01*
X154709308Y-82764078D01*
X154665015Y-82729348D01*
X154659040Y-82724663D01*
X154652124Y-82721540D01*
X154649838Y-82720156D01*
X154635157Y-82711782D01*
X154632797Y-82710517D01*
X154626583Y-82706149D01*
X154619504Y-82703389D01*
X154619502Y-82703388D01*
X154567047Y-82682937D01*
X154560978Y-82680386D01*
X154502749Y-82654094D01*
X154495282Y-82652710D01*
X154492727Y-82651909D01*
X154476474Y-82647280D01*
X154473895Y-82646618D01*
X154466813Y-82643857D01*
X154452373Y-82641956D01*
X154387446Y-82613232D01*
X154348356Y-82553966D01*
X154342822Y-82517034D01*
X154342822Y-81157005D01*
X154340458Y-81135247D01*
X154352985Y-81065366D01*
X154401305Y-81013350D01*
X154465721Y-80995639D01*
X156334662Y-80995639D01*
X156402783Y-81015641D01*
X156423757Y-81032544D01*
X156769917Y-81378704D01*
X156803943Y-81441016D01*
X156806822Y-81467799D01*
X156806822Y-81859273D01*
X156813577Y-81921455D01*
X156864707Y-82057844D01*
X156952061Y-82174400D01*
X156959241Y-82179781D01*
X156959242Y-82179782D01*
X157007318Y-82215813D01*
X157049833Y-82272672D01*
X157054859Y-82343491D01*
X157020799Y-82405784D01*
X157007318Y-82417465D01*
X156964361Y-82449660D01*
X156952061Y-82458878D01*
X156864707Y-82575434D01*
X156813577Y-82711823D01*
X156806822Y-82774005D01*
X156806822Y-83769273D01*
X156813577Y-83831455D01*
X156864707Y-83967844D01*
X156952061Y-84084400D01*
X157068617Y-84171754D01*
X157077025Y-84174906D01*
X157197608Y-84220111D01*
X157197611Y-84220112D01*
X157205006Y-84222884D01*
X157210775Y-84223511D01*
X157271613Y-84258265D01*
X157304435Y-84321220D01*
X157306822Y-84345632D01*
X157306822Y-84830227D01*
X157306530Y-84838797D01*
X157303149Y-84888397D01*
X157302597Y-84896491D01*
X157303902Y-84903968D01*
X157303902Y-84903969D01*
X157313583Y-84959438D01*
X157314545Y-84965960D01*
X157322220Y-85029381D01*
X157324903Y-85036482D01*
X157325544Y-85039091D01*
X157330007Y-85055401D01*
X157330772Y-85057937D01*
X157332079Y-85065423D01*
X157347308Y-85100114D01*
X157357764Y-85123934D01*
X157360255Y-85130038D01*
X157382835Y-85189795D01*
X157387139Y-85196058D01*
X157388376Y-85198424D01*
X157396621Y-85213236D01*
X157397954Y-85215490D01*
X157401007Y-85222444D01*
X157432428Y-85263391D01*
X157439901Y-85273130D01*
X157443781Y-85278471D01*
X157475661Y-85324859D01*
X157475666Y-85324864D01*
X157479965Y-85331120D01*
X157485635Y-85336171D01*
X157485636Y-85336173D01*
X157526483Y-85372566D01*
X157531760Y-85377547D01*
X158001887Y-85847675D01*
X158007740Y-85853940D01*
X158015453Y-85862781D01*
X158045761Y-85897524D01*
X158098051Y-85934275D01*
X158103293Y-85938167D01*
X158153604Y-85977615D01*
X158160523Y-85980739D01*
X158162815Y-85982127D01*
X158177487Y-85990496D01*
X158179847Y-85991761D01*
X158186061Y-85996129D01*
X158193140Y-85998889D01*
X158193142Y-85998890D01*
X158245597Y-86019341D01*
X158251666Y-86021892D01*
X158309895Y-86048184D01*
X158317368Y-86049569D01*
X158319934Y-86050373D01*
X158336157Y-86054994D01*
X158338749Y-86055659D01*
X158345831Y-86058421D01*
X158353366Y-86059413D01*
X158409183Y-86066761D01*
X158415699Y-86067793D01*
X158435285Y-86071423D01*
X158478508Y-86079434D01*
X158486088Y-86078997D01*
X158486089Y-86078997D01*
X158540702Y-86075848D01*
X158547955Y-86075639D01*
X159787660Y-86075639D01*
X159855781Y-86095641D01*
X159876755Y-86112544D01*
X160166870Y-86402659D01*
X160172724Y-86408924D01*
X160210759Y-86452524D01*
X160216977Y-86456894D01*
X160263017Y-86489251D01*
X160268313Y-86493184D01*
X160318602Y-86532616D01*
X160325524Y-86535741D01*
X160327772Y-86537103D01*
X160342505Y-86545507D01*
X160344844Y-86546761D01*
X160351059Y-86551129D01*
X160358135Y-86553888D01*
X160358139Y-86553890D01*
X160410594Y-86574341D01*
X160416672Y-86576896D01*
X160474894Y-86603184D01*
X160482365Y-86604568D01*
X160484919Y-86605369D01*
X160501198Y-86610006D01*
X160503753Y-86610662D01*
X160510829Y-86613421D01*
X160529683Y-86615903D01*
X160574171Y-86621760D01*
X160580687Y-86622792D01*
X160623026Y-86630639D01*
X160643507Y-86634435D01*
X160651087Y-86633998D01*
X160651088Y-86633998D01*
X160705718Y-86630848D01*
X160712971Y-86630639D01*
X161482824Y-86630639D01*
X161550945Y-86650641D01*
X161597438Y-86704297D01*
X161600806Y-86712409D01*
X161628146Y-86785337D01*
X161640707Y-86818844D01*
X161728061Y-86935400D01*
X161844617Y-87022754D01*
X161981006Y-87073884D01*
X162043188Y-87080639D01*
X163639456Y-87080639D01*
X163701638Y-87073884D01*
X163838027Y-87022754D01*
X163954583Y-86935400D01*
X164041937Y-86818844D01*
X164093067Y-86682455D01*
X164099822Y-86620273D01*
X164099822Y-85224005D01*
X164093067Y-85161823D01*
X164041937Y-85025434D01*
X163954583Y-84908878D01*
X163838027Y-84821524D01*
X163701638Y-84770394D01*
X163639456Y-84763639D01*
X162043188Y-84763639D01*
X161981006Y-84770394D01*
X161844617Y-84821524D01*
X161728061Y-84908878D01*
X161640707Y-85025434D01*
X161637555Y-85033842D01*
X161600806Y-85131869D01*
X161558164Y-85188633D01*
X161491603Y-85213333D01*
X161482824Y-85213639D01*
X161033982Y-85213639D01*
X160965861Y-85193637D01*
X160944887Y-85176735D01*
X160654755Y-84886604D01*
X160648901Y-84880337D01*
X160615876Y-84842479D01*
X160615873Y-84842476D01*
X160610881Y-84836754D01*
X160558600Y-84800010D01*
X160553306Y-84796078D01*
X160509013Y-84761348D01*
X160503038Y-84756663D01*
X160496122Y-84753540D01*
X160493836Y-84752156D01*
X160479155Y-84743782D01*
X160476795Y-84742517D01*
X160470581Y-84738149D01*
X160463502Y-84735389D01*
X160463500Y-84735388D01*
X160411045Y-84714937D01*
X160404976Y-84712386D01*
X160346747Y-84686094D01*
X160339280Y-84684710D01*
X160336725Y-84683909D01*
X160320472Y-84679280D01*
X160317892Y-84678617D01*
X160310811Y-84675857D01*
X160303280Y-84674866D01*
X160303278Y-84674865D01*
X160273659Y-84670966D01*
X160247459Y-84667517D01*
X160240961Y-84666487D01*
X160178134Y-84654843D01*
X160170554Y-84655280D01*
X160170553Y-84655280D01*
X160115928Y-84658430D01*
X160108674Y-84658639D01*
X158868982Y-84658639D01*
X158800861Y-84638637D01*
X158779887Y-84621734D01*
X158760727Y-84602574D01*
X158726701Y-84540262D01*
X158723822Y-84513479D01*
X158723822Y-84345632D01*
X158743824Y-84277511D01*
X158797480Y-84231018D01*
X158819085Y-84223596D01*
X158825638Y-84222884D01*
X158833033Y-84220112D01*
X158833036Y-84220111D01*
X158953619Y-84174906D01*
X158962027Y-84171754D01*
X159078583Y-84084400D01*
X159165937Y-83967844D01*
X159217067Y-83831455D01*
X159223822Y-83769273D01*
X159223822Y-82774005D01*
X159217067Y-82711823D01*
X159165937Y-82575434D01*
X159078583Y-82458878D01*
X159066284Y-82449660D01*
X159023326Y-82417465D01*
X158980811Y-82360606D01*
X158975785Y-82289787D01*
X159009845Y-82227494D01*
X159023326Y-82215813D01*
X159071402Y-82179782D01*
X159071403Y-82179781D01*
X159078583Y-82174400D01*
X159165937Y-82057844D01*
X159217067Y-81921455D01*
X159223822Y-81859273D01*
X159223822Y-80874005D01*
X159217067Y-80811823D01*
X159165937Y-80675434D01*
X159078583Y-80558878D01*
X158962027Y-80471524D01*
X158825638Y-80420394D01*
X158763456Y-80413639D01*
X157860984Y-80413639D01*
X157792863Y-80393637D01*
X157771889Y-80376735D01*
X157201757Y-79806604D01*
X157195903Y-79800337D01*
X157162878Y-79762479D01*
X157162875Y-79762476D01*
X157157883Y-79756754D01*
X157105602Y-79720010D01*
X157100308Y-79716078D01*
X157056015Y-79681348D01*
X157050040Y-79676663D01*
X157043124Y-79673540D01*
X157040838Y-79672156D01*
X157026157Y-79663782D01*
X157023797Y-79662517D01*
X157017583Y-79658149D01*
X157010504Y-79655389D01*
X157010502Y-79655388D01*
X156958047Y-79634937D01*
X156951978Y-79632386D01*
X156893749Y-79606094D01*
X156886282Y-79604710D01*
X156883727Y-79603909D01*
X156867474Y-79599280D01*
X156864894Y-79598617D01*
X156857813Y-79595857D01*
X156850282Y-79594866D01*
X156850280Y-79594865D01*
X156820661Y-79590966D01*
X156794461Y-79587517D01*
X156787963Y-79586487D01*
X156725136Y-79574843D01*
X156717556Y-79575280D01*
X156717555Y-79575280D01*
X156662930Y-79578430D01*
X156655676Y-79578639D01*
X153927727Y-79578639D01*
X153859606Y-79558637D01*
X153853666Y-79554575D01*
X153778416Y-79499902D01*
X153778415Y-79499901D01*
X153773074Y-79496021D01*
X153767046Y-79493337D01*
X153767044Y-79493336D01*
X153604641Y-79421030D01*
X153604640Y-79421030D01*
X153598610Y-79418345D01*
X153505209Y-79398492D01*
X153418266Y-79380011D01*
X153418261Y-79380011D01*
X153411809Y-79378639D01*
X153220835Y-79378639D01*
X153214383Y-79380011D01*
X153214378Y-79380011D01*
X153127435Y-79398492D01*
X153034034Y-79418345D01*
X153028004Y-79421030D01*
X153028003Y-79421030D01*
X152865600Y-79493336D01*
X152865598Y-79493337D01*
X152859570Y-79496021D01*
X152705069Y-79608273D01*
X152700648Y-79613183D01*
X152700647Y-79613184D01*
X152647549Y-79672156D01*
X152577282Y-79750195D01*
X152481795Y-79915583D01*
X152422780Y-80097211D01*
X152402818Y-80287139D01*
X152403508Y-80293704D01*
X152416114Y-80413639D01*
X152422780Y-80477067D01*
X152481795Y-80658695D01*
X152485098Y-80664417D01*
X152485099Y-80664418D01*
X152546980Y-80771599D01*
X152577282Y-80824083D01*
X152581701Y-80828991D01*
X152583758Y-80831822D01*
X152607617Y-80898690D01*
X152607822Y-80905883D01*
X152607822Y-81763227D01*
X152607530Y-81771797D01*
X152604684Y-81813550D01*
X152603597Y-81829491D01*
X152604902Y-81836968D01*
X152604902Y-81836969D01*
X152614583Y-81892438D01*
X152615545Y-81898960D01*
X152623220Y-81962381D01*
X152625903Y-81969482D01*
X152626544Y-81972091D01*
X152631007Y-81988401D01*
X152631772Y-81990937D01*
X152633079Y-81998423D01*
X152655473Y-82049436D01*
X152658764Y-82056934D01*
X152661248Y-82063018D01*
X152667689Y-82080067D01*
X152675822Y-82124600D01*
X152675822Y-82564685D01*
X152655820Y-82632806D01*
X152602164Y-82679299D01*
X152594361Y-82682550D01*
X152548278Y-82699964D01*
X152548274Y-82699966D01*
X152541166Y-82702652D01*
X152534905Y-82706955D01*
X152532539Y-82708192D01*
X152517759Y-82716419D01*
X152515474Y-82717770D01*
X152508517Y-82720824D01*
X152502497Y-82725444D01*
X152502491Y-82725447D01*
X152471364Y-82749333D01*
X152457820Y-82759726D01*
X152452490Y-82763598D01*
X152406102Y-82795478D01*
X152406097Y-82795483D01*
X152399841Y-82799782D01*
X152394790Y-82805452D01*
X152394788Y-82805453D01*
X152358387Y-82846309D01*
X152353406Y-82851585D01*
X151399257Y-83805734D01*
X151336945Y-83839760D01*
X151310162Y-83842639D01*
X150410688Y-83842639D01*
X150348506Y-83849394D01*
X150212117Y-83900524D01*
X150095561Y-83987878D01*
X150094621Y-83986624D01*
X150041105Y-84015847D01*
X149970290Y-84010782D01*
X149933593Y-83987198D01*
X149933083Y-83987878D01*
X149816527Y-83900524D01*
X149680138Y-83849394D01*
X149617956Y-83842639D01*
X148124688Y-83842639D01*
X148062506Y-83849394D01*
X147926117Y-83900524D01*
X147809561Y-83987878D01*
X147808621Y-83986624D01*
X147755105Y-84015847D01*
X147684290Y-84010782D01*
X147647593Y-83987198D01*
X147647083Y-83987878D01*
X147609133Y-83959436D01*
X147588490Y-83943965D01*
X147545975Y-83887106D01*
X147540949Y-83816287D01*
X147575009Y-83753994D01*
X147588490Y-83742313D01*
X147647083Y-83698400D01*
X147734437Y-83581844D01*
X147785567Y-83445455D01*
X147792322Y-83383273D01*
X147792322Y-82398005D01*
X147785567Y-82335823D01*
X147734437Y-82199434D01*
X147647083Y-82082878D01*
X147530527Y-81995524D01*
X147394138Y-81944394D01*
X147331956Y-81937639D01*
X145838688Y-81937639D01*
X145776506Y-81944394D01*
X145640117Y-81995524D01*
X145523561Y-82082878D01*
X145515430Y-82093728D01*
X145469431Y-82155104D01*
X145452917Y-82173174D01*
X145426039Y-82197374D01*
X145421041Y-82201643D01*
X145405081Y-82214567D01*
X145390566Y-82229082D01*
X145385781Y-82233623D01*
X145334956Y-82279386D01*
X145331077Y-82284725D01*
X145331076Y-82284726D01*
X145326682Y-82290774D01*
X145313841Y-82305807D01*
X143968490Y-83651158D01*
X143953457Y-83663999D01*
X143942069Y-83672273D01*
X143937649Y-83677182D01*
X143896306Y-83723098D01*
X143891765Y-83727883D01*
X143877250Y-83742398D01*
X143875174Y-83744962D01*
X143864328Y-83758355D01*
X143860044Y-83763370D01*
X143818703Y-83809284D01*
X143818699Y-83809289D01*
X143814282Y-83814195D01*
X143810982Y-83819911D01*
X143810979Y-83819915D01*
X143807249Y-83826376D01*
X143796049Y-83842672D01*
X143787193Y-83853609D01*
X143769605Y-83888127D01*
X143756137Y-83914560D01*
X143752991Y-83920354D01*
X143718795Y-83979583D01*
X143716754Y-83985865D01*
X143716753Y-83985867D01*
X143714447Y-83992965D01*
X143706882Y-84011231D01*
X143700493Y-84023769D01*
X143698785Y-84030142D01*
X143698785Y-84030143D01*
X143682791Y-84089834D01*
X143680922Y-84096142D01*
X143659780Y-84161211D01*
X143659090Y-84167776D01*
X143659088Y-84167785D01*
X143658307Y-84175214D01*
X143654705Y-84194648D01*
X143652775Y-84201853D01*
X143651065Y-84208236D01*
X143650720Y-84214827D01*
X143650719Y-84214831D01*
X143647486Y-84276523D01*
X143646969Y-84283098D01*
X143641895Y-84331380D01*
X143639818Y-84351139D01*
X143640508Y-84357705D01*
X143640508Y-84357707D01*
X143641289Y-84365140D01*
X143641806Y-84384898D01*
X143641070Y-84398949D01*
X143651772Y-84466522D01*
X143652630Y-84473039D01*
X143658944Y-84533109D01*
X143659780Y-84541067D01*
X143661820Y-84547344D01*
X143661820Y-84547346D01*
X143664128Y-84554450D01*
X143668743Y-84573673D01*
X143669911Y-84581045D01*
X143670945Y-84587571D01*
X143690548Y-84638637D01*
X143695456Y-84651423D01*
X143697657Y-84657640D01*
X143718795Y-84722695D01*
X143725673Y-84734608D01*
X143725829Y-84734878D01*
X143734341Y-84752725D01*
X143737015Y-84759691D01*
X143737018Y-84759696D01*
X143739384Y-84765861D01*
X143742981Y-84771400D01*
X143776643Y-84823235D01*
X143780088Y-84828858D01*
X143814282Y-84888083D01*
X143818700Y-84892990D01*
X143818701Y-84892991D01*
X143823694Y-84898536D01*
X143835730Y-84914222D01*
X143839144Y-84919479D01*
X143843396Y-84926026D01*
X143891765Y-84974395D01*
X143896306Y-84979180D01*
X143942069Y-85030005D01*
X143947408Y-85033884D01*
X143947409Y-85033885D01*
X143953457Y-85038279D01*
X143968490Y-85051120D01*
X143978435Y-85061065D01*
X143983973Y-85064662D01*
X143983975Y-85064663D01*
X144035797Y-85098317D01*
X144041232Y-85102052D01*
X144065410Y-85119618D01*
X144096570Y-85142257D01*
X144102600Y-85144942D01*
X144102604Y-85144944D01*
X144109428Y-85147982D01*
X144126800Y-85157414D01*
X144138600Y-85165077D01*
X144144761Y-85167442D01*
X144144765Y-85167444D01*
X144202455Y-85189589D01*
X144208528Y-85192104D01*
X144271034Y-85219933D01*
X144277488Y-85221305D01*
X144277492Y-85221306D01*
X144284795Y-85222858D01*
X144303754Y-85228473D01*
X144316890Y-85233516D01*
X144384455Y-85244217D01*
X144390908Y-85245413D01*
X144457835Y-85259639D01*
X144471905Y-85259639D01*
X144491614Y-85261190D01*
X144505512Y-85263391D01*
X144512099Y-85263046D01*
X144512104Y-85263046D01*
X144573802Y-85259812D01*
X144580396Y-85259639D01*
X144648809Y-85259639D01*
X144662575Y-85256713D01*
X144682179Y-85254132D01*
X144689631Y-85253742D01*
X144689635Y-85253741D01*
X144696225Y-85253396D01*
X144702596Y-85251689D01*
X144702602Y-85251688D01*
X144762300Y-85235692D01*
X144768712Y-85234153D01*
X144782834Y-85231151D01*
X144835610Y-85219933D01*
X144841639Y-85217249D01*
X144841641Y-85217248D01*
X144848469Y-85214208D01*
X144867101Y-85207610D01*
X144874314Y-85205677D01*
X144874315Y-85205677D01*
X144880692Y-85203968D01*
X144886571Y-85200973D01*
X144886575Y-85200971D01*
X144941618Y-85172925D01*
X144947571Y-85170085D01*
X145004044Y-85144942D01*
X145004046Y-85144941D01*
X145010074Y-85142257D01*
X145015412Y-85138379D01*
X145015415Y-85138377D01*
X145021458Y-85133986D01*
X145038315Y-85123656D01*
X145039560Y-85123022D01*
X145050852Y-85117268D01*
X145055984Y-85113112D01*
X145055989Y-85113109D01*
X145104013Y-85074220D01*
X145109246Y-85070204D01*
X145159231Y-85033888D01*
X145159233Y-85033886D01*
X145164575Y-85030005D01*
X145168339Y-85025825D01*
X145232019Y-84995265D01*
X145302472Y-85004028D01*
X145357004Y-85049491D01*
X145378322Y-85119618D01*
X145378322Y-85288273D01*
X145385077Y-85350455D01*
X145436207Y-85486844D01*
X145523561Y-85603400D01*
X145640117Y-85690754D01*
X145776506Y-85741884D01*
X145838688Y-85748639D01*
X147331956Y-85748639D01*
X147394138Y-85741884D01*
X147530527Y-85690754D01*
X147647083Y-85603400D01*
X147648023Y-85604654D01*
X147701539Y-85575431D01*
X147772354Y-85580496D01*
X147809051Y-85604080D01*
X147809561Y-85603400D01*
X147926117Y-85690754D01*
X148062506Y-85741884D01*
X148124688Y-85748639D01*
X149163274Y-85748639D01*
X149231395Y-85768641D01*
X149277888Y-85822297D01*
X149287992Y-85892571D01*
X149258498Y-85957151D01*
X149207812Y-85992505D01*
X149190915Y-85998890D01*
X149175666Y-86004652D01*
X149169405Y-86008955D01*
X149167039Y-86010192D01*
X149152259Y-86018419D01*
X149149974Y-86019770D01*
X149143017Y-86022824D01*
X149136997Y-86027444D01*
X149136991Y-86027447D01*
X149114043Y-86045057D01*
X149092320Y-86061726D01*
X149086990Y-86065598D01*
X149040602Y-86097478D01*
X149040597Y-86097483D01*
X149034341Y-86101782D01*
X149029290Y-86107452D01*
X149029288Y-86107453D01*
X148992887Y-86148309D01*
X148987906Y-86153585D01*
X147628802Y-87512689D01*
X147622537Y-87518543D01*
X147578937Y-87556578D01*
X147555780Y-87589527D01*
X147542194Y-87608858D01*
X147538261Y-87614153D01*
X147498846Y-87664421D01*
X147495723Y-87671337D01*
X147494339Y-87673623D01*
X147485965Y-87688304D01*
X147484700Y-87690664D01*
X147480332Y-87696878D01*
X147477572Y-87703957D01*
X147477571Y-87703959D01*
X147457120Y-87756414D01*
X147454569Y-87762483D01*
X147428277Y-87820712D01*
X147426893Y-87828179D01*
X147426092Y-87830734D01*
X147421463Y-87846987D01*
X147420800Y-87849567D01*
X147418040Y-87856648D01*
X147417049Y-87864179D01*
X147417048Y-87864181D01*
X147409701Y-87919991D01*
X147408670Y-87926498D01*
X147397026Y-87989325D01*
X147397463Y-87996905D01*
X147397463Y-87996906D01*
X147400613Y-88051531D01*
X147400822Y-88058785D01*
X147400822Y-90530479D01*
X147380820Y-90598600D01*
X147327164Y-90645093D01*
X147256890Y-90655197D01*
X147192310Y-90625703D01*
X147185727Y-90619574D01*
X146983727Y-90417574D01*
X146949701Y-90355262D01*
X146946822Y-90328479D01*
X146946822Y-90226005D01*
X146940067Y-90163823D01*
X146888937Y-90027434D01*
X146801583Y-89910878D01*
X146685027Y-89823524D01*
X146548638Y-89772394D01*
X146486456Y-89765639D01*
X144840188Y-89765639D01*
X144778006Y-89772394D01*
X144641617Y-89823524D01*
X144619011Y-89840466D01*
X144552507Y-89865313D01*
X144543448Y-89865639D01*
X144454483Y-89865639D01*
X144386362Y-89845637D01*
X144365388Y-89828734D01*
X144273227Y-89736573D01*
X144239201Y-89674261D01*
X144236322Y-89647478D01*
X144236322Y-89002005D01*
X144229567Y-88939823D01*
X144178437Y-88803434D01*
X144091083Y-88686878D01*
X143974527Y-88599524D01*
X143838138Y-88548394D01*
X143775956Y-88541639D01*
X142593822Y-88541639D01*
X142525701Y-88521637D01*
X142479208Y-88467981D01*
X142467822Y-88415639D01*
X142467822Y-87851064D01*
X142468114Y-87842495D01*
X142471532Y-87792362D01*
X142471532Y-87792358D01*
X142472048Y-87784785D01*
X142461058Y-87721818D01*
X142460097Y-87715302D01*
X142458112Y-87698900D01*
X142452424Y-87651895D01*
X142449741Y-87644794D01*
X142449100Y-87642185D01*
X142444631Y-87625852D01*
X142443870Y-87623332D01*
X142442565Y-87615854D01*
X142437141Y-87603497D01*
X142416881Y-87557341D01*
X142414390Y-87551236D01*
X142394497Y-87498593D01*
X142394495Y-87498589D01*
X142391809Y-87491481D01*
X142387506Y-87485220D01*
X142386269Y-87482854D01*
X142378042Y-87468074D01*
X142376691Y-87465789D01*
X142373637Y-87458832D01*
X142369017Y-87452812D01*
X142369014Y-87452806D01*
X142334743Y-87408146D01*
X142330863Y-87402805D01*
X142298983Y-87356417D01*
X142298978Y-87356412D01*
X142294679Y-87350156D01*
X142273351Y-87331153D01*
X142248152Y-87308702D01*
X142242876Y-87303721D01*
X139444774Y-84505619D01*
X139438920Y-84499354D01*
X139428513Y-84487424D01*
X139400885Y-84455754D01*
X139348604Y-84419010D01*
X139343310Y-84415078D01*
X139299017Y-84380348D01*
X139293042Y-84375663D01*
X139286126Y-84372540D01*
X139283840Y-84371156D01*
X139269159Y-84362782D01*
X139266799Y-84361517D01*
X139260585Y-84357149D01*
X139253506Y-84354389D01*
X139253504Y-84354388D01*
X139201049Y-84333937D01*
X139194980Y-84331386D01*
X139136751Y-84305094D01*
X139129284Y-84303710D01*
X139126729Y-84302909D01*
X139110476Y-84298280D01*
X139107896Y-84297617D01*
X139100815Y-84294857D01*
X139093284Y-84293866D01*
X139093282Y-84293865D01*
X139063663Y-84289966D01*
X139037463Y-84286517D01*
X139030965Y-84285487D01*
X138968138Y-84273843D01*
X138960558Y-84274280D01*
X138960557Y-84274280D01*
X138905932Y-84277430D01*
X138898678Y-84277639D01*
X134830502Y-84277639D01*
X134762381Y-84257637D01*
X134729676Y-84227204D01*
X134714311Y-84206702D01*
X134693083Y-84178378D01*
X134576527Y-84091024D01*
X134440138Y-84039894D01*
X134377956Y-84033139D01*
X132884688Y-84033139D01*
X132822506Y-84039894D01*
X132686117Y-84091024D01*
X132569561Y-84178378D01*
X132568481Y-84176937D01*
X132515686Y-84205766D01*
X132469924Y-84205876D01*
X132469837Y-84206702D01*
X132463266Y-84206011D01*
X132456809Y-84204639D01*
X132265835Y-84204639D01*
X132259380Y-84206011D01*
X132259371Y-84206012D01*
X132195259Y-84219640D01*
X132124468Y-84214239D01*
X132093496Y-84197220D01*
X132043713Y-84159910D01*
X132036527Y-84154524D01*
X131900138Y-84103394D01*
X131837956Y-84096639D01*
X131560358Y-84096639D01*
X131492237Y-84076637D01*
X131445744Y-84022981D01*
X131435640Y-83952707D01*
X131465134Y-83888127D01*
X131507108Y-83856444D01*
X131684012Y-83773953D01*
X131684017Y-83773950D01*
X131688999Y-83771627D01*
X131838647Y-83666842D01*
X131866592Y-83647275D01*
X131866595Y-83647273D01*
X131871103Y-83644116D01*
X132028299Y-83486920D01*
X132031457Y-83482410D01*
X132031462Y-83482404D01*
X132068597Y-83429369D01*
X132124054Y-83385040D01*
X132171810Y-83375639D01*
X141128410Y-83375639D01*
X141136980Y-83375931D01*
X141187098Y-83379348D01*
X141187102Y-83379348D01*
X141194674Y-83379864D01*
X141202151Y-83378559D01*
X141202152Y-83378559D01*
X141228630Y-83373938D01*
X141257625Y-83368877D01*
X141264143Y-83367916D01*
X141327564Y-83360241D01*
X141334665Y-83357558D01*
X141337274Y-83356917D01*
X141353584Y-83352454D01*
X141356120Y-83351689D01*
X141363606Y-83350382D01*
X141422122Y-83324695D01*
X141428226Y-83322204D01*
X141480870Y-83302312D01*
X141480871Y-83302311D01*
X141487978Y-83299626D01*
X141494241Y-83295322D01*
X141496607Y-83294085D01*
X141511419Y-83285840D01*
X141513673Y-83284507D01*
X141520627Y-83281454D01*
X141571324Y-83242552D01*
X141576654Y-83238680D01*
X141623042Y-83206800D01*
X141623047Y-83206795D01*
X141629303Y-83202496D01*
X141670758Y-83155968D01*
X141675738Y-83150693D01*
X143255842Y-81570589D01*
X143262107Y-81564735D01*
X143267162Y-81560325D01*
X143305707Y-81526700D01*
X143342436Y-81474439D01*
X143346368Y-81469144D01*
X143381113Y-81424833D01*
X143385799Y-81418857D01*
X143388924Y-81411935D01*
X143390286Y-81409687D01*
X143398690Y-81394954D01*
X143399944Y-81392615D01*
X143404312Y-81386400D01*
X143407071Y-81379324D01*
X143407073Y-81379320D01*
X143427524Y-81326865D01*
X143430080Y-81320785D01*
X143453240Y-81269490D01*
X143456367Y-81262565D01*
X143457751Y-81255094D01*
X143458552Y-81252540D01*
X143463189Y-81236261D01*
X143463845Y-81233706D01*
X143466604Y-81226630D01*
X143474943Y-81163288D01*
X143475975Y-81156772D01*
X143486234Y-81101419D01*
X143487618Y-81093952D01*
X143484031Y-81031741D01*
X143483822Y-81024488D01*
X143483822Y-78365883D01*
X143503824Y-78297762D01*
X143507886Y-78291822D01*
X143509943Y-78288991D01*
X143514362Y-78284083D01*
X143609849Y-78118695D01*
X143668864Y-77937067D01*
X143688826Y-77747139D01*
X143668864Y-77557211D01*
X143609849Y-77375583D01*
X143514362Y-77210195D01*
X143386575Y-77068273D01*
X143232074Y-76956021D01*
X143226046Y-76953337D01*
X143226044Y-76953336D01*
X143063641Y-76881030D01*
X143063640Y-76881030D01*
X143057610Y-76878345D01*
X142964210Y-76858492D01*
X142877266Y-76840011D01*
X142877261Y-76840011D01*
X142870809Y-76838639D01*
X142679835Y-76838639D01*
X142673383Y-76840011D01*
X142673378Y-76840011D01*
X142586434Y-76858492D01*
X142493034Y-76878345D01*
X142487004Y-76881030D01*
X142487003Y-76881030D01*
X142324600Y-76953336D01*
X142324598Y-76953337D01*
X142318570Y-76956021D01*
X142164069Y-77068273D01*
X142036282Y-77210195D01*
X141940795Y-77375583D01*
X141881780Y-77557211D01*
X141861818Y-77747139D01*
X141881780Y-77937067D01*
X141940795Y-78118695D01*
X142036282Y-78284083D01*
X142040701Y-78288991D01*
X142042758Y-78291822D01*
X142066617Y-78358690D01*
X142066822Y-78365883D01*
X142066822Y-80703478D01*
X142046820Y-80771599D01*
X142029917Y-80792573D01*
X140900757Y-81921734D01*
X140838445Y-81955759D01*
X140811662Y-81958639D01*
X132171810Y-81958639D01*
X132103689Y-81938637D01*
X132068597Y-81904909D01*
X132031462Y-81851874D01*
X132031457Y-81851868D01*
X132028299Y-81847358D01*
X131871103Y-81690162D01*
X131866595Y-81687005D01*
X131866592Y-81687003D01*
X131790827Y-81633952D01*
X131688999Y-81562651D01*
X131684017Y-81560328D01*
X131684012Y-81560325D01*
X131492500Y-81471022D01*
X131492499Y-81471021D01*
X131487518Y-81468699D01*
X131482210Y-81467277D01*
X131482208Y-81467276D01*
X131329194Y-81426276D01*
X131272785Y-81411161D01*
X131051322Y-81391786D01*
X130829859Y-81411161D01*
X130773450Y-81426276D01*
X130620436Y-81467276D01*
X130620434Y-81467277D01*
X130615126Y-81468699D01*
X130610145Y-81471021D01*
X130610144Y-81471022D01*
X130418633Y-81560325D01*
X130418628Y-81560328D01*
X130413646Y-81562651D01*
X130409139Y-81565807D01*
X130409137Y-81565808D01*
X130236052Y-81687003D01*
X130236049Y-81687005D01*
X130231541Y-81690162D01*
X130074345Y-81847358D01*
X130071187Y-81851868D01*
X130071182Y-81851874D01*
X130034047Y-81904909D01*
X129978590Y-81949238D01*
X129930834Y-81958639D01*
X128620233Y-81958639D01*
X128611664Y-81958347D01*
X128561545Y-81954930D01*
X128561541Y-81954930D01*
X128553969Y-81954414D01*
X128491007Y-81965403D01*
X128484517Y-81966360D01*
X128421080Y-81974037D01*
X128413971Y-81976723D01*
X128411400Y-81977355D01*
X128395094Y-81981815D01*
X128392526Y-81982590D01*
X128385038Y-81983897D01*
X128362435Y-81993819D01*
X128326534Y-82009578D01*
X128320427Y-82012070D01*
X128278987Y-82027729D01*
X128260666Y-82034652D01*
X128254405Y-82038955D01*
X128252039Y-82040192D01*
X128237259Y-82048419D01*
X128234974Y-82049770D01*
X128228017Y-82052824D01*
X128221997Y-82057444D01*
X128221991Y-82057447D01*
X128195863Y-82077497D01*
X128177320Y-82091726D01*
X128171990Y-82095598D01*
X128125602Y-82127478D01*
X128125597Y-82127483D01*
X128119341Y-82131782D01*
X128114290Y-82137452D01*
X128114288Y-82137453D01*
X128077887Y-82178309D01*
X128072906Y-82183585D01*
X127620142Y-82636349D01*
X127557830Y-82670375D01*
X127487015Y-82665310D01*
X127430179Y-82622763D01*
X127405471Y-82557579D01*
X127397356Y-82458878D01*
X127396174Y-82444500D01*
X127341753Y-82227841D01*
X127252676Y-82022979D01*
X127168225Y-81892438D01*
X127134144Y-81839756D01*
X127134142Y-81839753D01*
X127131336Y-81835416D01*
X126980992Y-81670190D01*
X126976941Y-81666991D01*
X126976937Y-81666987D01*
X126809736Y-81534939D01*
X126809732Y-81534937D01*
X126805681Y-81531737D01*
X126796557Y-81526700D01*
X126696983Y-81471733D01*
X126610111Y-81423777D01*
X126605242Y-81422053D01*
X126605238Y-81422051D01*
X126404409Y-81350934D01*
X126404405Y-81350933D01*
X126399534Y-81349208D01*
X126394441Y-81348301D01*
X126394438Y-81348300D01*
X126184695Y-81310939D01*
X126184689Y-81310938D01*
X126179606Y-81310033D01*
X126105774Y-81309131D01*
X125961403Y-81307367D01*
X125961401Y-81307367D01*
X125956233Y-81307304D01*
X125735413Y-81341094D01*
X125523078Y-81410496D01*
X125324929Y-81513646D01*
X125320796Y-81516749D01*
X125320793Y-81516751D01*
X125150422Y-81644669D01*
X125146287Y-81647774D01*
X124991951Y-81809277D01*
X124866065Y-81993819D01*
X124842177Y-82045281D01*
X124799393Y-82137453D01*
X124772010Y-82196444D01*
X124712311Y-82411709D01*
X124688573Y-82633834D01*
X124688870Y-82638987D01*
X124688870Y-82638990D01*
X124692860Y-82708192D01*
X124701432Y-82856854D01*
X124702569Y-82861900D01*
X124702570Y-82861906D01*
X124715268Y-82918249D01*
X124710732Y-82989101D01*
X124681446Y-83035045D01*
X124260802Y-83455689D01*
X124254537Y-83461543D01*
X124210937Y-83499578D01*
X124206570Y-83505792D01*
X124174194Y-83551858D01*
X124170261Y-83557153D01*
X124130846Y-83607421D01*
X124127723Y-83614337D01*
X124126339Y-83616623D01*
X124117965Y-83631304D01*
X124116700Y-83633664D01*
X124112332Y-83639878D01*
X124109572Y-83646957D01*
X124109571Y-83646959D01*
X124089120Y-83699414D01*
X124086569Y-83705483D01*
X124060277Y-83763712D01*
X124058893Y-83771179D01*
X124058092Y-83773734D01*
X124053463Y-83789987D01*
X124052800Y-83792567D01*
X124050040Y-83799648D01*
X124049049Y-83807179D01*
X124049048Y-83807181D01*
X124041701Y-83862991D01*
X124040670Y-83869498D01*
X124029026Y-83932325D01*
X124029463Y-83939905D01*
X124029463Y-83939906D01*
X124032613Y-83994531D01*
X124032822Y-84001785D01*
X124032822Y-87607639D01*
X124012820Y-87675760D01*
X123959164Y-87722253D01*
X123906822Y-87733639D01*
X122488188Y-87733639D01*
X122426006Y-87740394D01*
X122308551Y-87784426D01*
X122237745Y-87789609D01*
X122175376Y-87755688D01*
X122141246Y-87693433D01*
X122138322Y-87666444D01*
X122138322Y-87414505D01*
X122131567Y-87352323D01*
X122080437Y-87215934D01*
X121993083Y-87099378D01*
X121876527Y-87012024D01*
X121740138Y-86960894D01*
X121677956Y-86954139D01*
X120184688Y-86954139D01*
X120122506Y-86960894D01*
X119986117Y-87012024D01*
X119869561Y-87099378D01*
X119782207Y-87215934D01*
X119731077Y-87352323D01*
X119724322Y-87414505D01*
X119724322Y-88059979D01*
X119704320Y-88128100D01*
X119687417Y-88149074D01*
X119180802Y-88655689D01*
X119174537Y-88661543D01*
X119130937Y-88699578D01*
X119094194Y-88751858D01*
X119090261Y-88757153D01*
X119050846Y-88807421D01*
X119047723Y-88814337D01*
X119046339Y-88816623D01*
X119037965Y-88831304D01*
X119036700Y-88833664D01*
X119032332Y-88839878D01*
X119029572Y-88846957D01*
X119029571Y-88846959D01*
X119009120Y-88899414D01*
X119006569Y-88905483D01*
X118980277Y-88963712D01*
X118978893Y-88971179D01*
X118978092Y-88973734D01*
X118973463Y-88989987D01*
X118972800Y-88992567D01*
X118970040Y-88999648D01*
X118969049Y-89007179D01*
X118969048Y-89007181D01*
X118961701Y-89062991D01*
X118960670Y-89069498D01*
X118949026Y-89132325D01*
X118949463Y-89139905D01*
X118949463Y-89139906D01*
X118952613Y-89194531D01*
X118952822Y-89201785D01*
X118952822Y-96133227D01*
X118952530Y-96141797D01*
X118949123Y-96191778D01*
X118948597Y-96199491D01*
X110263322Y-96199491D01*
X110263322Y-93393710D01*
X110995822Y-93393710D01*
X115626822Y-93393710D01*
X115626822Y-82420567D01*
X110995822Y-82420567D01*
X110995822Y-93393710D01*
X110263322Y-93393710D01*
X110263322Y-73555139D01*
X110283324Y-73487018D01*
X110336980Y-73440525D01*
X110389322Y-73429139D01*
X169573322Y-73429139D01*
X169641443Y-73449141D01*
G37*
%TD.AperFunction*%
%TA.AperFunction,Conductor*%
G36*
X137326263Y-91048641D02*
G01*
X137358968Y-91079074D01*
X137395561Y-91127900D01*
X137512117Y-91215254D01*
X137648506Y-91266384D01*
X137710688Y-91273139D01*
X139203956Y-91273139D01*
X139203956Y-91273567D01*
X139270948Y-91289356D01*
X139320276Y-91340417D01*
X139334167Y-91410041D01*
X139326644Y-91443112D01*
X139289077Y-91543323D01*
X139282322Y-91605505D01*
X139282322Y-92590773D01*
X139289077Y-92652955D01*
X139340207Y-92789344D01*
X139427561Y-92905900D01*
X139434741Y-92911281D01*
X139486154Y-92949813D01*
X139528669Y-93006672D01*
X139533695Y-93077491D01*
X139499635Y-93139784D01*
X139486155Y-93151464D01*
X139427561Y-93195378D01*
X139340207Y-93311934D01*
X139289077Y-93448323D01*
X139282322Y-93510505D01*
X139282322Y-94495773D01*
X139289077Y-94557955D01*
X139340207Y-94694344D01*
X139427561Y-94810900D01*
X139544117Y-94898254D01*
X139680506Y-94949384D01*
X139742688Y-94956139D01*
X141235956Y-94956139D01*
X141298138Y-94949384D01*
X141434527Y-94898254D01*
X141551083Y-94810900D01*
X141552023Y-94812154D01*
X141605539Y-94782931D01*
X141676354Y-94787996D01*
X141713051Y-94811580D01*
X141713561Y-94810900D01*
X141830117Y-94898254D01*
X141966506Y-94949384D01*
X142028688Y-94956139D01*
X143521956Y-94956139D01*
X143584138Y-94949384D01*
X143720527Y-94898254D01*
X143837083Y-94810900D01*
X143924437Y-94694344D01*
X143975567Y-94557955D01*
X143982322Y-94495773D01*
X143982322Y-93948639D01*
X144002324Y-93880518D01*
X144055980Y-93834025D01*
X144108322Y-93822639D01*
X144543448Y-93822639D01*
X144611569Y-93842641D01*
X144618995Y-93847800D01*
X144641617Y-93864754D01*
X144778006Y-93915884D01*
X144840188Y-93922639D01*
X146486456Y-93922639D01*
X146548638Y-93915884D01*
X146685027Y-93864754D01*
X146707633Y-93847812D01*
X146774137Y-93822965D01*
X146783196Y-93822639D01*
X147274822Y-93822639D01*
X147342943Y-93842641D01*
X147389436Y-93896297D01*
X147400822Y-93948639D01*
X147400822Y-94101227D01*
X147400530Y-94109797D01*
X147398140Y-94144862D01*
X147396597Y-94167491D01*
X147397902Y-94174968D01*
X147397902Y-94174969D01*
X147407583Y-94230438D01*
X147408545Y-94236960D01*
X147416220Y-94300381D01*
X147418903Y-94307482D01*
X147419544Y-94310091D01*
X147424007Y-94326401D01*
X147424772Y-94328937D01*
X147426079Y-94336423D01*
X147429133Y-94343380D01*
X147451764Y-94394934D01*
X147454255Y-94401038D01*
X147476835Y-94460795D01*
X147481139Y-94467058D01*
X147482376Y-94469424D01*
X147490621Y-94484236D01*
X147491954Y-94486490D01*
X147495007Y-94493444D01*
X147528777Y-94537452D01*
X147533901Y-94544130D01*
X147537781Y-94549471D01*
X147569661Y-94595859D01*
X147569666Y-94595864D01*
X147573965Y-94602120D01*
X147579635Y-94607171D01*
X147579636Y-94607173D01*
X147620492Y-94643574D01*
X147625768Y-94648555D01*
X148337311Y-95360098D01*
X149619879Y-96642667D01*
X149625733Y-96648932D01*
X149636515Y-96661291D01*
X149663761Y-96692524D01*
X149716051Y-96729275D01*
X149721293Y-96733167D01*
X149771604Y-96772615D01*
X149778523Y-96775739D01*
X149780815Y-96777127D01*
X149795487Y-96785496D01*
X149797847Y-96786761D01*
X149804061Y-96791129D01*
X149811140Y-96793889D01*
X149811142Y-96793890D01*
X149863597Y-96814341D01*
X149869666Y-96816892D01*
X149927895Y-96843184D01*
X149935368Y-96844569D01*
X149937934Y-96845373D01*
X149954157Y-96849994D01*
X149956749Y-96850659D01*
X149963831Y-96853421D01*
X149971366Y-96854413D01*
X150027183Y-96861761D01*
X150033699Y-96862793D01*
X150096508Y-96874434D01*
X150096131Y-96876470D01*
X150152954Y-96897105D01*
X150195992Y-96953570D01*
X150204322Y-96998624D01*
X150204322Y-97607273D01*
X150211077Y-97669455D01*
X150262207Y-97805844D01*
X150349561Y-97922400D01*
X150466117Y-98009754D01*
X150602506Y-98060884D01*
X150664688Y-98067639D01*
X150694322Y-98067639D01*
X150762443Y-98087641D01*
X150808936Y-98141297D01*
X150820322Y-98193639D01*
X150820322Y-98404797D01*
X150812304Y-98449026D01*
X150787422Y-98515400D01*
X150782577Y-98528323D01*
X150775822Y-98590505D01*
X150775822Y-100083773D01*
X150776191Y-100087170D01*
X150780722Y-100128875D01*
X150782577Y-100145955D01*
X150785349Y-100153348D01*
X150785349Y-100153350D01*
X150812304Y-100225252D01*
X150820322Y-100269481D01*
X150820322Y-101037156D01*
X150800320Y-101105277D01*
X150783417Y-101126251D01*
X150208364Y-101701304D01*
X150146052Y-101735330D01*
X150119269Y-101738209D01*
X148749528Y-101738209D01*
X148687346Y-101744964D01*
X148550957Y-101796094D01*
X148434401Y-101883448D01*
X148347047Y-102000004D01*
X148343895Y-102008412D01*
X148298689Y-102128997D01*
X148298688Y-102129002D01*
X148295917Y-102136393D01*
X148295256Y-102142473D01*
X148260429Y-102203433D01*
X148197474Y-102236252D01*
X148173066Y-102238639D01*
X147537923Y-102238639D01*
X147469802Y-102218637D01*
X147423309Y-102164981D01*
X147413205Y-102094707D01*
X147419941Y-102068409D01*
X147442433Y-102008412D01*
X147457907Y-101967135D01*
X147464662Y-101904953D01*
X147464662Y-99309325D01*
X147457907Y-99247143D01*
X147406777Y-99110754D01*
X147319423Y-98994198D01*
X147202867Y-98906844D01*
X147066478Y-98855714D01*
X147004296Y-98848959D01*
X145587822Y-98848959D01*
X145519701Y-98828957D01*
X145473208Y-98775301D01*
X145461822Y-98722959D01*
X145461822Y-96851355D01*
X145462512Y-96838184D01*
X145466136Y-96803704D01*
X145466826Y-96797139D01*
X145462512Y-96756094D01*
X145461822Y-96742923D01*
X145461822Y-96701652D01*
X145453240Y-96661275D01*
X145451178Y-96648261D01*
X145447554Y-96613774D01*
X145447554Y-96613772D01*
X145446864Y-96607211D01*
X145444825Y-96600937D01*
X145444824Y-96600930D01*
X145434110Y-96567956D01*
X145430697Y-96555219D01*
X145423489Y-96521308D01*
X145423488Y-96521304D01*
X145422116Y-96514851D01*
X145405323Y-96477133D01*
X145400603Y-96464835D01*
X145389891Y-96431867D01*
X145389890Y-96431866D01*
X145387849Y-96425583D01*
X145367217Y-96389847D01*
X145361230Y-96378098D01*
X145356923Y-96368423D01*
X145344440Y-96340387D01*
X145340561Y-96335048D01*
X145340558Y-96335043D01*
X145320176Y-96306990D01*
X145312997Y-96295937D01*
X145292362Y-96260195D01*
X145287942Y-96255286D01*
X145287939Y-96255282D01*
X145264747Y-96229525D01*
X145256451Y-96219282D01*
X145232188Y-96185886D01*
X145227284Y-96181470D01*
X145201516Y-96158268D01*
X145192193Y-96148945D01*
X145168991Y-96123177D01*
X145168989Y-96123175D01*
X145164575Y-96118273D01*
X145131179Y-96094010D01*
X145120936Y-96085714D01*
X145095179Y-96062522D01*
X145095175Y-96062519D01*
X145090266Y-96058099D01*
X145054524Y-96037464D01*
X145043471Y-96030285D01*
X145015418Y-96009903D01*
X145015413Y-96009900D01*
X145010074Y-96006021D01*
X145000300Y-96001669D01*
X144972363Y-95989231D01*
X144960612Y-95983243D01*
X144953861Y-95979345D01*
X144924878Y-95962612D01*
X144885624Y-95949857D01*
X144873328Y-95945138D01*
X144835610Y-95928345D01*
X144829157Y-95926973D01*
X144829153Y-95926972D01*
X144795242Y-95919764D01*
X144782505Y-95916351D01*
X144749531Y-95905637D01*
X144749524Y-95905636D01*
X144743250Y-95903597D01*
X144736689Y-95902907D01*
X144736687Y-95902907D01*
X144722632Y-95901430D01*
X144702194Y-95899282D01*
X144689186Y-95897221D01*
X144648809Y-95888639D01*
X136760739Y-95888639D01*
X136741029Y-95887088D01*
X136733649Y-95885919D01*
X136733648Y-95885919D01*
X136727132Y-95884887D01*
X136720545Y-95885232D01*
X136720540Y-95885232D01*
X136658842Y-95888466D01*
X136652248Y-95888639D01*
X136631712Y-95888639D01*
X136628440Y-95888983D01*
X136628438Y-95888983D01*
X136611280Y-95890786D01*
X136604706Y-95891303D01*
X136543018Y-95894536D01*
X136543016Y-95894536D01*
X136536419Y-95894882D01*
X136522826Y-95898524D01*
X136503397Y-95902125D01*
X136489394Y-95903597D01*
X136424347Y-95924732D01*
X136418034Y-95926602D01*
X136411530Y-95928345D01*
X136358325Y-95942601D01*
X136358322Y-95942602D01*
X136351952Y-95944309D01*
X136339407Y-95950701D01*
X136321148Y-95958264D01*
X136307766Y-95962612D01*
X136302045Y-95965915D01*
X136248545Y-95996803D01*
X136242748Y-95999951D01*
X136187673Y-96028013D01*
X136187670Y-96028015D01*
X136181792Y-96031010D01*
X136176664Y-96035163D01*
X136176662Y-96035164D01*
X136170856Y-96039866D01*
X136154559Y-96051066D01*
X136148098Y-96054796D01*
X136148094Y-96054799D01*
X136142378Y-96058099D01*
X136137472Y-96062516D01*
X136137467Y-96062520D01*
X136091553Y-96103861D01*
X136086538Y-96108145D01*
X136081569Y-96112169D01*
X136070581Y-96121067D01*
X136056066Y-96135582D01*
X136051281Y-96140123D01*
X136000456Y-96185886D01*
X135996577Y-96191225D01*
X135996576Y-96191226D01*
X135992182Y-96197274D01*
X135979341Y-96212307D01*
X133681914Y-98509734D01*
X133619602Y-98543760D01*
X133592819Y-98546639D01*
X131785825Y-98546639D01*
X131717704Y-98526637D01*
X131696730Y-98509734D01*
X131389809Y-98202813D01*
X131355783Y-98140501D01*
X131360848Y-98069686D01*
X131389809Y-98024623D01*
X131571850Y-97842582D01*
X131578115Y-97836728D01*
X131615986Y-97803691D01*
X131615987Y-97803690D01*
X131621707Y-97798700D01*
X131658458Y-97746410D01*
X131662350Y-97741168D01*
X131701798Y-97690857D01*
X131704922Y-97683938D01*
X131706310Y-97681646D01*
X131714679Y-97666974D01*
X131715944Y-97664614D01*
X131720312Y-97658400D01*
X131731411Y-97629934D01*
X131743524Y-97598864D01*
X131746081Y-97592781D01*
X131746137Y-97592659D01*
X131772367Y-97534566D01*
X131773752Y-97527093D01*
X131774556Y-97524527D01*
X131779177Y-97508304D01*
X131779842Y-97505712D01*
X131782604Y-97498630D01*
X131790944Y-97435278D01*
X131791976Y-97428762D01*
X131802233Y-97373420D01*
X131803617Y-97365953D01*
X131800031Y-97303759D01*
X131799822Y-97296506D01*
X131799822Y-97142800D01*
X131819824Y-97074679D01*
X131836727Y-97053704D01*
X132282184Y-96608248D01*
X132759357Y-96131075D01*
X132765622Y-96125222D01*
X132803485Y-96092192D01*
X132803486Y-96092191D01*
X132809206Y-96087201D01*
X132845957Y-96034911D01*
X132849849Y-96029669D01*
X132889297Y-95979358D01*
X132892421Y-95972439D01*
X132893809Y-95970147D01*
X132902178Y-95955475D01*
X132903443Y-95953115D01*
X132907811Y-95946901D01*
X132915725Y-95926604D01*
X132931023Y-95887365D01*
X132933580Y-95881282D01*
X132939276Y-95868669D01*
X132959866Y-95823067D01*
X132961251Y-95815594D01*
X132962055Y-95813028D01*
X132966676Y-95796805D01*
X132967341Y-95794213D01*
X132970103Y-95787131D01*
X132978443Y-95723779D01*
X132979475Y-95717263D01*
X132989732Y-95661921D01*
X132991116Y-95654454D01*
X132987530Y-95592260D01*
X132987321Y-95585007D01*
X132987321Y-94203550D01*
X132987613Y-94194980D01*
X132991030Y-94144862D01*
X132991030Y-94144858D01*
X132991546Y-94137286D01*
X132980560Y-94074341D01*
X132979598Y-94067820D01*
X132977662Y-94051823D01*
X132971923Y-94004396D01*
X132969237Y-93997288D01*
X132968600Y-93994694D01*
X132964139Y-93978388D01*
X132963369Y-93975837D01*
X132962063Y-93968354D01*
X132947087Y-93934237D01*
X132936382Y-93909850D01*
X132933890Y-93903743D01*
X132913994Y-93851090D01*
X132913994Y-93851089D01*
X132911308Y-93843982D01*
X132907005Y-93837721D01*
X132905768Y-93835355D01*
X132897541Y-93820575D01*
X132896190Y-93818290D01*
X132893136Y-93811333D01*
X132888516Y-93805313D01*
X132888513Y-93805307D01*
X132854242Y-93760647D01*
X132850362Y-93755306D01*
X132818482Y-93708918D01*
X132818477Y-93708913D01*
X132814178Y-93702657D01*
X132767650Y-93661202D01*
X132762375Y-93656222D01*
X132335227Y-93229074D01*
X132301201Y-93166762D01*
X132298322Y-93139979D01*
X132298322Y-93124895D01*
X132318324Y-93056774D01*
X132371980Y-93010281D01*
X132442254Y-93000177D01*
X132468551Y-93006913D01*
X132561104Y-93041610D01*
X132561110Y-93041612D01*
X132568506Y-93044384D01*
X132630688Y-93051139D01*
X134123956Y-93051139D01*
X134186138Y-93044384D01*
X134322527Y-92993254D01*
X134329707Y-92987873D01*
X134332814Y-92986172D01*
X134402171Y-92971003D01*
X134453830Y-92986172D01*
X134456937Y-92987873D01*
X134464117Y-92993254D01*
X134600506Y-93044384D01*
X134662688Y-93051139D01*
X136155956Y-93051139D01*
X136218138Y-93044384D01*
X136354527Y-92993254D01*
X136471083Y-92905900D01*
X136558437Y-92789344D01*
X136609567Y-92652955D01*
X136616322Y-92590773D01*
X136616322Y-91605505D01*
X136610421Y-91551179D01*
X136610420Y-91551176D01*
X136609567Y-91543323D01*
X136610084Y-91543267D01*
X136613506Y-91477696D01*
X136654950Y-91420051D01*
X136710911Y-91397373D01*
X136710600Y-91396064D01*
X136718282Y-91394237D01*
X136726138Y-91393384D01*
X136862527Y-91342254D01*
X136979083Y-91254900D01*
X137066437Y-91138344D01*
X137076909Y-91110409D01*
X137119549Y-91053646D01*
X137186111Y-91028945D01*
X137194891Y-91028639D01*
X137258142Y-91028639D01*
X137326263Y-91048641D01*
G37*
%TD.AperFunction*%
%TA.AperFunction,Conductor*%
G36*
X154630354Y-93708496D02*
G01*
X154667051Y-93732080D01*
X154667561Y-93731400D01*
X154784117Y-93818754D01*
X154920506Y-93869884D01*
X154982688Y-93876639D01*
X156355322Y-93876639D01*
X156423443Y-93896641D01*
X156469936Y-93950297D01*
X156481322Y-94002639D01*
X156481322Y-95202639D01*
X156461320Y-95270760D01*
X156407664Y-95317253D01*
X156355322Y-95328639D01*
X154948188Y-95328639D01*
X154886006Y-95335394D01*
X154749617Y-95386524D01*
X154633061Y-95473878D01*
X154545707Y-95590434D01*
X154494577Y-95726823D01*
X154493724Y-95734679D01*
X154493481Y-95735699D01*
X154458265Y-95797346D01*
X154395310Y-95830167D01*
X154324605Y-95823743D01*
X154281803Y-95795650D01*
X154167772Y-95681619D01*
X154161918Y-95675354D01*
X154161523Y-95674901D01*
X154123883Y-95631754D01*
X154071602Y-95595010D01*
X154066308Y-95591078D01*
X154022015Y-95556348D01*
X154016040Y-95551663D01*
X154009124Y-95548540D01*
X154006838Y-95547156D01*
X153992157Y-95538782D01*
X153989797Y-95537517D01*
X153983583Y-95533149D01*
X153976504Y-95530389D01*
X153976502Y-95530388D01*
X153924909Y-95510273D01*
X153924045Y-95509936D01*
X153917978Y-95507386D01*
X153859749Y-95481094D01*
X153852282Y-95479710D01*
X153849727Y-95478909D01*
X153833474Y-95474280D01*
X153830894Y-95473617D01*
X153823813Y-95470857D01*
X153816282Y-95469866D01*
X153816280Y-95469865D01*
X153786661Y-95465966D01*
X153760461Y-95462517D01*
X153753963Y-95461487D01*
X153691136Y-95449843D01*
X153683556Y-95450280D01*
X153683555Y-95450280D01*
X153628930Y-95453430D01*
X153621676Y-95453639D01*
X152744322Y-95453639D01*
X152676201Y-95433637D01*
X152629708Y-95379981D01*
X152618322Y-95327639D01*
X152618322Y-94717005D01*
X152611567Y-94654823D01*
X152560437Y-94518434D01*
X152473083Y-94401878D01*
X152356527Y-94314524D01*
X152220138Y-94263394D01*
X152157956Y-94256639D01*
X151897822Y-94256639D01*
X151829701Y-94236637D01*
X151783208Y-94182981D01*
X151771822Y-94130639D01*
X151771822Y-94048023D01*
X151791824Y-93979902D01*
X151845480Y-93933409D01*
X151886529Y-93923313D01*
X151886456Y-93922639D01*
X151948638Y-93915884D01*
X152085027Y-93864754D01*
X152107633Y-93847812D01*
X152174137Y-93822965D01*
X152183196Y-93822639D01*
X152485639Y-93822639D01*
X152529868Y-93830657D01*
X152627111Y-93867112D01*
X152627113Y-93867112D01*
X152634506Y-93869884D01*
X152642354Y-93870737D01*
X152642356Y-93870737D01*
X152691321Y-93876056D01*
X152696688Y-93876639D01*
X154189956Y-93876639D01*
X154252138Y-93869884D01*
X154388527Y-93818754D01*
X154505083Y-93731400D01*
X154506023Y-93732654D01*
X154559539Y-93703431D01*
X154630354Y-93708496D01*
G37*
%TD.AperFunction*%
%TA.AperFunction,Conductor*%
G36*
X129960263Y-91810641D02*
G01*
X129992968Y-91841074D01*
X130029561Y-91889900D01*
X130036741Y-91895281D01*
X130088154Y-91933813D01*
X130130669Y-91990672D01*
X130135695Y-92061491D01*
X130101635Y-92123784D01*
X130088155Y-92135464D01*
X130029561Y-92179378D01*
X129942207Y-92295934D01*
X129891077Y-92432323D01*
X129884322Y-92494505D01*
X129884322Y-93479773D01*
X129891077Y-93541955D01*
X129942207Y-93678344D01*
X130029561Y-93794900D01*
X130146117Y-93882254D01*
X130282506Y-93933384D01*
X130344688Y-93940139D01*
X130990161Y-93940139D01*
X131058282Y-93960141D01*
X131079257Y-93977044D01*
X131381321Y-94279109D01*
X131415346Y-94341421D01*
X131410281Y-94412237D01*
X131367734Y-94469072D01*
X131301214Y-94493883D01*
X131292225Y-94494204D01*
X131258899Y-94494204D01*
X131252447Y-94495576D01*
X131252442Y-94495576D01*
X131165499Y-94514057D01*
X131072098Y-94533910D01*
X131066068Y-94536595D01*
X131066067Y-94536595D01*
X130903664Y-94608901D01*
X130903662Y-94608902D01*
X130897634Y-94611586D01*
X130743133Y-94723838D01*
X130738712Y-94728748D01*
X130738711Y-94728749D01*
X130636360Y-94842422D01*
X130615346Y-94865760D01*
X130612045Y-94871478D01*
X130542763Y-94991478D01*
X130519859Y-95031148D01*
X130460844Y-95212776D01*
X130460154Y-95219341D01*
X130455936Y-95259474D01*
X130428923Y-95325131D01*
X130419721Y-95335399D01*
X130345386Y-95409734D01*
X130283074Y-95443760D01*
X130256291Y-95446639D01*
X129609188Y-95446639D01*
X129547006Y-95453394D01*
X129410617Y-95504524D01*
X129294061Y-95591878D01*
X129288680Y-95599058D01*
X129282330Y-95605408D01*
X129280157Y-95603235D01*
X129235565Y-95636579D01*
X129164747Y-95641606D01*
X129105880Y-95609441D01*
X129105083Y-95608378D01*
X128988527Y-95521024D01*
X128852138Y-95469894D01*
X128789956Y-95463139D01*
X127296688Y-95463139D01*
X127234506Y-95469894D01*
X127098117Y-95521024D01*
X127015092Y-95583248D01*
X127008821Y-95587948D01*
X126942315Y-95612796D01*
X126872932Y-95597743D01*
X126832430Y-95562687D01*
X126824464Y-95552058D01*
X126819083Y-95544878D01*
X126702527Y-95457524D01*
X126566138Y-95406394D01*
X126503956Y-95399639D01*
X125010688Y-95399639D01*
X124948506Y-95406394D01*
X124812117Y-95457524D01*
X124695561Y-95544878D01*
X124690180Y-95552058D01*
X124651148Y-95604138D01*
X124594289Y-95646653D01*
X124523470Y-95651679D01*
X124461177Y-95617619D01*
X124427187Y-95555288D01*
X124424322Y-95528573D01*
X124424322Y-94780505D01*
X124417567Y-94718323D01*
X124366437Y-94581934D01*
X124279083Y-94465378D01*
X124230257Y-94428785D01*
X124187742Y-94371926D01*
X124179822Y-94327959D01*
X124179822Y-94244619D01*
X124199824Y-94176498D01*
X124253480Y-94130005D01*
X124323754Y-94119901D01*
X124363469Y-94133145D01*
X124367617Y-94136254D01*
X124376018Y-94139403D01*
X124376019Y-94139404D01*
X124430733Y-94159915D01*
X124504006Y-94187384D01*
X124566188Y-94194139D01*
X125551456Y-94194139D01*
X125613638Y-94187384D01*
X125750027Y-94136254D01*
X125866583Y-94048900D01*
X125910496Y-93990307D01*
X125967355Y-93947792D01*
X126038174Y-93942766D01*
X126100467Y-93976826D01*
X126112147Y-93990306D01*
X126156061Y-94048900D01*
X126272617Y-94136254D01*
X126409006Y-94187384D01*
X126471188Y-94194139D01*
X127456456Y-94194139D01*
X127518638Y-94187384D01*
X127655027Y-94136254D01*
X127771583Y-94048900D01*
X127858937Y-93932344D01*
X127910067Y-93795955D01*
X127916822Y-93733773D01*
X127916822Y-92240505D01*
X127910067Y-92178323D01*
X127866035Y-92060868D01*
X127860852Y-91990062D01*
X127894773Y-91927693D01*
X127957028Y-91893563D01*
X127984017Y-91890639D01*
X129534456Y-91890639D01*
X129596638Y-91883884D01*
X129733027Y-91832754D01*
X129755633Y-91815812D01*
X129822137Y-91790965D01*
X129831196Y-91790639D01*
X129892142Y-91790639D01*
X129960263Y-91810641D01*
G37*
%TD.AperFunction*%
%TA.AperFunction,Conductor*%
G36*
X149017883Y-91215235D02*
G01*
X149022248Y-91218406D01*
X149049570Y-91238257D01*
X149055598Y-91240941D01*
X149055600Y-91240942D01*
X149182484Y-91297434D01*
X149224034Y-91315933D01*
X149317435Y-91335786D01*
X149404378Y-91354267D01*
X149404383Y-91354267D01*
X149410835Y-91355639D01*
X149601809Y-91355639D01*
X149608266Y-91354267D01*
X149608271Y-91354266D01*
X149629382Y-91349779D01*
X149700173Y-91355182D01*
X149756805Y-91397999D01*
X149781297Y-91464637D01*
X149780840Y-91486634D01*
X149779822Y-91496005D01*
X149779822Y-92192273D01*
X149786577Y-92254455D01*
X149837707Y-92390844D01*
X149847248Y-92403574D01*
X149872096Y-92470078D01*
X149857044Y-92539461D01*
X149847252Y-92554698D01*
X149837707Y-92567434D01*
X149786577Y-92703823D01*
X149779822Y-92766005D01*
X149779822Y-93462273D01*
X149786577Y-93524455D01*
X149837707Y-93660844D01*
X149925061Y-93777400D01*
X150041617Y-93864754D01*
X150178006Y-93915884D01*
X150236791Y-93922270D01*
X150240188Y-93922639D01*
X150240064Y-93923778D01*
X150302556Y-93945850D01*
X150346090Y-94001933D01*
X150354822Y-94048023D01*
X150354822Y-94352883D01*
X150334820Y-94421004D01*
X150329650Y-94428445D01*
X150262207Y-94518434D01*
X150211077Y-94654823D01*
X150204322Y-94717005D01*
X150204322Y-94918979D01*
X150184320Y-94987100D01*
X150130664Y-95033593D01*
X150060390Y-95043697D01*
X149995810Y-95014203D01*
X149989227Y-95008074D01*
X148854727Y-93873574D01*
X148820701Y-93811262D01*
X148817822Y-93784479D01*
X148817822Y-93064006D01*
X148819932Y-93041043D01*
X148820233Y-93039418D01*
X148821617Y-93031953D01*
X148820368Y-93010281D01*
X148818031Y-92969759D01*
X148817822Y-92962506D01*
X148817822Y-91317171D01*
X148837824Y-91249050D01*
X148891480Y-91202557D01*
X148961754Y-91192453D01*
X149017883Y-91215235D01*
G37*
%TD.AperFunction*%
%TA.AperFunction,Conductor*%
G36*
X120578334Y-93718578D02*
G01*
X120618405Y-93784656D01*
X120619224Y-93788098D01*
X120620077Y-93795955D01*
X120671207Y-93932344D01*
X120758561Y-94048900D01*
X120783806Y-94067820D01*
X120807387Y-94085493D01*
X120849902Y-94142352D01*
X120857822Y-94186319D01*
X120857822Y-94327959D01*
X120837820Y-94396080D01*
X120807387Y-94428785D01*
X120758561Y-94465378D01*
X120671207Y-94581934D01*
X120620077Y-94718323D01*
X120619224Y-94726179D01*
X120618405Y-94729622D01*
X120583188Y-94791268D01*
X120520232Y-94824089D01*
X120449527Y-94817663D01*
X120393520Y-94774031D01*
X120369822Y-94700476D01*
X120369822Y-93813802D01*
X120389824Y-93745681D01*
X120443480Y-93699188D01*
X120513754Y-93689084D01*
X120578334Y-93718578D01*
G37*
%TD.AperFunction*%
%TA.AperFunction,Conductor*%
G36*
X120975354Y-88969243D02*
G01*
X121020417Y-88998204D01*
X121044872Y-89022659D01*
X121050726Y-89028924D01*
X121088761Y-89072524D01*
X121103521Y-89082897D01*
X121141019Y-89109251D01*
X121146315Y-89113184D01*
X121196604Y-89152616D01*
X121203526Y-89155741D01*
X121205774Y-89157103D01*
X121220507Y-89165507D01*
X121222846Y-89166761D01*
X121229061Y-89171129D01*
X121236137Y-89173888D01*
X121236141Y-89173890D01*
X121288596Y-89194341D01*
X121294674Y-89196896D01*
X121352896Y-89223184D01*
X121360367Y-89224568D01*
X121362921Y-89225369D01*
X121379200Y-89230006D01*
X121381755Y-89230662D01*
X121388831Y-89233421D01*
X121417284Y-89237167D01*
X121452173Y-89241760D01*
X121458689Y-89242792D01*
X121484749Y-89247622D01*
X121548084Y-89279703D01*
X121584020Y-89340933D01*
X121581148Y-89411872D01*
X121550883Y-89460607D01*
X121085787Y-89925704D01*
X121079520Y-89931558D01*
X121041662Y-89964583D01*
X121041659Y-89964586D01*
X121035937Y-89969578D01*
X120999194Y-90021858D01*
X120995261Y-90027153D01*
X120955846Y-90077421D01*
X120952723Y-90084337D01*
X120951339Y-90086623D01*
X120942965Y-90101304D01*
X120941700Y-90103664D01*
X120937332Y-90109878D01*
X120934572Y-90116957D01*
X120934571Y-90116959D01*
X120914120Y-90169414D01*
X120911569Y-90175483D01*
X120885277Y-90233712D01*
X120883893Y-90241179D01*
X120883092Y-90243734D01*
X120878463Y-90259987D01*
X120877800Y-90262567D01*
X120875040Y-90269648D01*
X120874049Y-90277179D01*
X120874048Y-90277181D01*
X120866701Y-90332991D01*
X120865670Y-90339498D01*
X120854026Y-90402325D01*
X120854463Y-90409905D01*
X120854463Y-90409906D01*
X120857613Y-90464531D01*
X120857822Y-90471785D01*
X120857822Y-91787959D01*
X120837820Y-91856080D01*
X120807387Y-91888785D01*
X120758561Y-91925378D01*
X120671207Y-92041934D01*
X120620077Y-92178323D01*
X120619224Y-92186179D01*
X120618405Y-92189622D01*
X120583188Y-92251268D01*
X120520232Y-92284089D01*
X120449527Y-92277663D01*
X120393520Y-92234031D01*
X120369822Y-92160476D01*
X120369822Y-89522799D01*
X120389824Y-89454678D01*
X120406727Y-89433704D01*
X120842227Y-88998204D01*
X120904539Y-88964178D01*
X120975354Y-88969243D01*
G37*
%TD.AperFunction*%
%TA.AperFunction,Conductor*%
G36*
X156326467Y-89912826D02*
G01*
X156338147Y-89926306D01*
X156382061Y-89984900D01*
X156430887Y-90021493D01*
X156473402Y-90078352D01*
X156481322Y-90122319D01*
X156481322Y-91844639D01*
X156461320Y-91912760D01*
X156407664Y-91959253D01*
X156355322Y-91970639D01*
X154982688Y-91970639D01*
X154920506Y-91977394D01*
X154784117Y-92028524D01*
X154667561Y-92115878D01*
X154666621Y-92114624D01*
X154613105Y-92143847D01*
X154542290Y-92138782D01*
X154505593Y-92115198D01*
X154505083Y-92115878D01*
X154388527Y-92028524D01*
X154252138Y-91977394D01*
X154189956Y-91970639D01*
X152696688Y-91970639D01*
X152634506Y-91977394D01*
X152517051Y-92021426D01*
X152446245Y-92026609D01*
X152383876Y-91992688D01*
X152349746Y-91930433D01*
X152346822Y-91903444D01*
X152346822Y-91496005D01*
X152340067Y-91433823D01*
X152288937Y-91297434D01*
X152279396Y-91284704D01*
X152254548Y-91218200D01*
X152269600Y-91148817D01*
X152279392Y-91133580D01*
X152288937Y-91120844D01*
X152340067Y-90984455D01*
X152346822Y-90922273D01*
X152346822Y-90226005D01*
X152340067Y-90163823D01*
X152340202Y-90163808D01*
X152343699Y-90096881D01*
X152385146Y-90039239D01*
X152451178Y-90013156D01*
X152462578Y-90012639D01*
X152485639Y-90012639D01*
X152529868Y-90020657D01*
X152627111Y-90057112D01*
X152627113Y-90057112D01*
X152634506Y-90059884D01*
X152642354Y-90060737D01*
X152642356Y-90060737D01*
X152693291Y-90066270D01*
X152696688Y-90066639D01*
X154189956Y-90066639D01*
X154252138Y-90059884D01*
X154339448Y-90027153D01*
X154380125Y-90011904D01*
X154380126Y-90011903D01*
X154388527Y-90008754D01*
X154389572Y-90007971D01*
X154455160Y-89993625D01*
X154521876Y-90018487D01*
X154593617Y-90072254D01*
X154730006Y-90123384D01*
X154792188Y-90130139D01*
X155777456Y-90130139D01*
X155839638Y-90123384D01*
X155976027Y-90072254D01*
X156092583Y-89984900D01*
X156136496Y-89926307D01*
X156193355Y-89883792D01*
X156264174Y-89878766D01*
X156326467Y-89912826D01*
G37*
%TD.AperFunction*%
%TA.AperFunction,Conductor*%
G36*
X129998955Y-83395641D02*
G01*
X130034047Y-83429369D01*
X130071182Y-83482404D01*
X130071187Y-83482410D01*
X130074345Y-83486920D01*
X130231541Y-83644116D01*
X130236049Y-83647273D01*
X130236052Y-83647275D01*
X130263997Y-83666842D01*
X130413645Y-83771627D01*
X130418627Y-83773950D01*
X130418632Y-83773953D01*
X130595536Y-83856444D01*
X130648821Y-83903361D01*
X130668282Y-83971638D01*
X130647740Y-84039598D01*
X130593717Y-84085664D01*
X130542286Y-84096639D01*
X130344688Y-84096639D01*
X130282506Y-84103394D01*
X130146117Y-84154524D01*
X130029561Y-84241878D01*
X129942207Y-84358434D01*
X129891077Y-84494823D01*
X129884322Y-84557005D01*
X129884322Y-85542273D01*
X129891077Y-85604455D01*
X129942207Y-85740844D01*
X130029561Y-85857400D01*
X130083098Y-85897524D01*
X130088154Y-85901313D01*
X130130669Y-85958172D01*
X130135695Y-86028991D01*
X130101635Y-86091284D01*
X130088155Y-86102964D01*
X130029561Y-86146878D01*
X129942207Y-86263434D01*
X129891077Y-86399823D01*
X129889769Y-86411859D01*
X129889716Y-86412351D01*
X129862473Y-86477913D01*
X129804110Y-86518339D01*
X129733156Y-86520793D01*
X129720223Y-86516724D01*
X129713821Y-86514324D01*
X129596638Y-86470394D01*
X129534456Y-86463639D01*
X127888188Y-86463639D01*
X127826006Y-86470394D01*
X127689617Y-86521524D01*
X127667011Y-86538466D01*
X127600507Y-86563313D01*
X127591448Y-86563639D01*
X127565234Y-86563639D01*
X127556664Y-86563347D01*
X127506546Y-86559930D01*
X127506542Y-86559930D01*
X127498970Y-86559414D01*
X127491493Y-86560719D01*
X127491492Y-86560719D01*
X127474762Y-86563639D01*
X127436025Y-86570400D01*
X127429508Y-86571361D01*
X127366080Y-86579037D01*
X127358972Y-86581723D01*
X127356378Y-86582360D01*
X127340072Y-86586821D01*
X127337521Y-86587591D01*
X127330038Y-86588897D01*
X127323086Y-86591949D01*
X127323085Y-86591949D01*
X127271534Y-86614578D01*
X127265427Y-86617070D01*
X127247961Y-86623670D01*
X127205666Y-86639652D01*
X127199405Y-86643955D01*
X127197039Y-86645192D01*
X127182259Y-86653419D01*
X127179974Y-86654770D01*
X127173017Y-86657824D01*
X127166997Y-86662444D01*
X127166991Y-86662447D01*
X127140918Y-86682455D01*
X127122320Y-86696726D01*
X127116990Y-86700598D01*
X127070602Y-86732478D01*
X127070597Y-86732483D01*
X127064341Y-86736782D01*
X127059290Y-86742452D01*
X127059288Y-86742453D01*
X127022887Y-86783309D01*
X127017906Y-86788585D01*
X126483302Y-87323189D01*
X126477037Y-87329043D01*
X126433437Y-87367078D01*
X126408328Y-87402805D01*
X126396694Y-87419358D01*
X126392761Y-87424653D01*
X126353346Y-87474921D01*
X126350223Y-87481837D01*
X126348839Y-87484123D01*
X126340465Y-87498804D01*
X126339200Y-87501164D01*
X126334832Y-87507378D01*
X126332072Y-87514457D01*
X126332071Y-87514459D01*
X126311620Y-87566914D01*
X126309069Y-87572983D01*
X126282777Y-87631212D01*
X126281393Y-87638679D01*
X126280592Y-87641234D01*
X126275963Y-87657487D01*
X126275300Y-87660067D01*
X126272540Y-87667148D01*
X126271549Y-87674679D01*
X126271548Y-87674681D01*
X126268626Y-87696878D01*
X126264398Y-87728997D01*
X126264201Y-87730491D01*
X126263170Y-87736998D01*
X126251526Y-87799825D01*
X126251963Y-87807405D01*
X126251963Y-87807406D01*
X126255113Y-87862031D01*
X126255322Y-87869285D01*
X126255322Y-91787959D01*
X126235320Y-91856080D01*
X126204887Y-91888785D01*
X126156061Y-91925378D01*
X126150680Y-91932558D01*
X126112148Y-91983971D01*
X126055289Y-92026486D01*
X125984470Y-92031512D01*
X125922177Y-91997452D01*
X125910496Y-91983971D01*
X125871964Y-91932558D01*
X125866583Y-91925378D01*
X125750027Y-91838024D01*
X125613638Y-91786894D01*
X125551456Y-91780139D01*
X124662017Y-91780139D01*
X124593896Y-91760137D01*
X124547403Y-91706481D01*
X124537299Y-91636207D01*
X124544035Y-91609909D01*
X124546960Y-91602108D01*
X124588067Y-91492455D01*
X124594822Y-91430273D01*
X124594822Y-90734005D01*
X124588067Y-90671823D01*
X124585293Y-90664423D01*
X124583466Y-90656739D01*
X124585252Y-90656314D01*
X124580797Y-90595449D01*
X124614718Y-90533080D01*
X124659424Y-90504160D01*
X124662980Y-90502817D01*
X124682591Y-90497452D01*
X124685120Y-90496688D01*
X124692606Y-90495382D01*
X124751122Y-90469695D01*
X124757226Y-90467204D01*
X124809870Y-90447312D01*
X124809871Y-90447311D01*
X124816978Y-90444626D01*
X124823241Y-90440322D01*
X124825607Y-90439085D01*
X124840419Y-90430840D01*
X124842673Y-90429507D01*
X124849627Y-90426454D01*
X124900324Y-90387552D01*
X124905654Y-90383680D01*
X124952042Y-90351800D01*
X124952047Y-90351795D01*
X124958303Y-90347496D01*
X124971227Y-90332991D01*
X124999756Y-90300970D01*
X125004738Y-90295693D01*
X125221857Y-90078575D01*
X125228122Y-90072722D01*
X125265986Y-90039691D01*
X125265987Y-90039690D01*
X125271707Y-90034700D01*
X125308458Y-89982410D01*
X125312350Y-89977168D01*
X125351798Y-89926857D01*
X125354922Y-89919938D01*
X125356310Y-89917646D01*
X125364679Y-89902974D01*
X125365944Y-89900614D01*
X125370312Y-89894400D01*
X125376408Y-89878766D01*
X125393524Y-89834864D01*
X125396081Y-89828781D01*
X125396103Y-89828734D01*
X125422367Y-89770566D01*
X125423752Y-89763093D01*
X125424556Y-89760527D01*
X125429177Y-89744304D01*
X125429842Y-89741712D01*
X125432604Y-89734630D01*
X125433753Y-89725906D01*
X125440944Y-89671278D01*
X125441976Y-89664762D01*
X125452233Y-89609420D01*
X125453617Y-89601953D01*
X125451268Y-89561204D01*
X125450031Y-89539759D01*
X125449822Y-89532506D01*
X125449822Y-86614693D01*
X125469824Y-86546572D01*
X125523480Y-86500079D01*
X125593754Y-86489975D01*
X125620771Y-86496983D01*
X125671014Y-86516169D01*
X125676082Y-86517200D01*
X125676085Y-86517201D01*
X125751853Y-86532616D01*
X125889919Y-86560706D01*
X125895094Y-86560896D01*
X125895096Y-86560896D01*
X126107995Y-86568703D01*
X126107999Y-86568703D01*
X126113159Y-86568892D01*
X126118279Y-86568236D01*
X126118281Y-86568236D01*
X126329610Y-86541164D01*
X126329611Y-86541164D01*
X126334738Y-86540507D01*
X126339688Y-86539022D01*
X126543751Y-86477800D01*
X126543756Y-86477798D01*
X126548706Y-86476313D01*
X126749316Y-86378035D01*
X126931182Y-86248312D01*
X126935590Y-86243920D01*
X127084387Y-86095641D01*
X127089418Y-86090628D01*
X127100039Y-86075848D01*
X127216757Y-85913416D01*
X127219775Y-85909216D01*
X127228002Y-85892571D01*
X127316458Y-85713592D01*
X127316459Y-85713590D01*
X127318752Y-85708950D01*
X127361696Y-85567605D01*
X127382187Y-85500162D01*
X127382187Y-85500160D01*
X127383692Y-85495208D01*
X127412851Y-85273729D01*
X127413129Y-85262359D01*
X127414396Y-85210504D01*
X127414396Y-85210500D01*
X127414478Y-85207139D01*
X127396174Y-84984500D01*
X127394787Y-84978979D01*
X127389436Y-84957673D01*
X127392242Y-84886732D01*
X127422546Y-84837886D01*
X128847888Y-83412544D01*
X128910200Y-83378518D01*
X128936983Y-83375639D01*
X129930834Y-83375639D01*
X129998955Y-83395641D01*
G37*
%TD.AperFunction*%
%TA.AperFunction,Conductor*%
G36*
X154016607Y-85964110D02*
G01*
X154024006Y-85966884D01*
X154086188Y-85973639D01*
X154603934Y-85973639D01*
X154672055Y-85993641D01*
X154718548Y-86047297D01*
X154724556Y-86063221D01*
X154724773Y-86063940D01*
X154726079Y-86071423D01*
X154729131Y-86078375D01*
X154729132Y-86078379D01*
X154751764Y-86129934D01*
X154754255Y-86136038D01*
X154776835Y-86195795D01*
X154781139Y-86202058D01*
X154782376Y-86204424D01*
X154790621Y-86219236D01*
X154791954Y-86221490D01*
X154795007Y-86228444D01*
X154828309Y-86271842D01*
X154833901Y-86279130D01*
X154837781Y-86284471D01*
X154869661Y-86330859D01*
X154869666Y-86330864D01*
X154873965Y-86337120D01*
X154879635Y-86342171D01*
X154879636Y-86342173D01*
X154920492Y-86378574D01*
X154925768Y-86383555D01*
X156109043Y-87566831D01*
X156143069Y-87629143D01*
X156138004Y-87699959D01*
X156095457Y-87756794D01*
X156028937Y-87781605D01*
X155975719Y-87773908D01*
X155847040Y-87725668D01*
X155847034Y-87725666D01*
X155839638Y-87722894D01*
X155777456Y-87716139D01*
X154792188Y-87716139D01*
X154730006Y-87722894D01*
X154593617Y-87774024D01*
X154477061Y-87861378D01*
X154389707Y-87977934D01*
X154386555Y-87986342D01*
X154350416Y-88082742D01*
X154307774Y-88139506D01*
X154241213Y-88164206D01*
X154218827Y-88163775D01*
X154193355Y-88161008D01*
X154193351Y-88161008D01*
X154189956Y-88160639D01*
X152696688Y-88160639D01*
X152634506Y-88167394D01*
X152498117Y-88218524D01*
X152381561Y-88305878D01*
X152294207Y-88422434D01*
X152291055Y-88430842D01*
X152268374Y-88491343D01*
X152225732Y-88548107D01*
X152159171Y-88572807D01*
X152090770Y-88557828D01*
X152085027Y-88553524D01*
X151948638Y-88502394D01*
X151886456Y-88495639D01*
X150240188Y-88495639D01*
X150178006Y-88502394D01*
X150041617Y-88553524D01*
X149925061Y-88640878D01*
X149837707Y-88757434D01*
X149786577Y-88893823D01*
X149779822Y-88956005D01*
X149779822Y-89420879D01*
X149759820Y-89489000D01*
X149706164Y-89535493D01*
X149635890Y-89545597D01*
X149627627Y-89544126D01*
X149608271Y-89540012D01*
X149608266Y-89540011D01*
X149601809Y-89538639D01*
X149410835Y-89538639D01*
X149404383Y-89540011D01*
X149404378Y-89540011D01*
X149317434Y-89558492D01*
X149224034Y-89578345D01*
X149218004Y-89581030D01*
X149218003Y-89581030D01*
X149055600Y-89653336D01*
X149055598Y-89653337D01*
X149049570Y-89656021D01*
X149044229Y-89659901D01*
X149044228Y-89659902D01*
X149017883Y-89679043D01*
X148951015Y-89702902D01*
X148881864Y-89686821D01*
X148832384Y-89635907D01*
X148817822Y-89577107D01*
X148817822Y-88379799D01*
X148837824Y-88311678D01*
X148854723Y-88290708D01*
X149762890Y-87382542D01*
X149825200Y-87348518D01*
X149851983Y-87345639D01*
X151983410Y-87345639D01*
X151991980Y-87345931D01*
X152042098Y-87349348D01*
X152042102Y-87349348D01*
X152049674Y-87349864D01*
X152057151Y-87348559D01*
X152057152Y-87348559D01*
X152083630Y-87343938D01*
X152112625Y-87338877D01*
X152119143Y-87337916D01*
X152182564Y-87330241D01*
X152189665Y-87327558D01*
X152192274Y-87326917D01*
X152208584Y-87322454D01*
X152211120Y-87321689D01*
X152218606Y-87320382D01*
X152277122Y-87294695D01*
X152283226Y-87292204D01*
X152335870Y-87272312D01*
X152335871Y-87272311D01*
X152342978Y-87269626D01*
X152349241Y-87265322D01*
X152351607Y-87264085D01*
X152366419Y-87255840D01*
X152368673Y-87254507D01*
X152375627Y-87251454D01*
X152426324Y-87212552D01*
X152431654Y-87208680D01*
X152478042Y-87176800D01*
X152478047Y-87176795D01*
X152484303Y-87172496D01*
X152525758Y-87125968D01*
X152530738Y-87120693D01*
X153640887Y-86010544D01*
X153703199Y-85976518D01*
X153729982Y-85973639D01*
X153882456Y-85973639D01*
X153944638Y-85966884D01*
X153952037Y-85964110D01*
X153955176Y-85963364D01*
X154013468Y-85963364D01*
X154016607Y-85964110D01*
G37*
%TD.AperFunction*%
%TA.AperFunction,Conductor*%
G36*
X138645785Y-85714641D02*
G01*
X138666759Y-85731544D01*
X140182259Y-87247044D01*
X140216285Y-87309356D01*
X140211220Y-87380171D01*
X140168673Y-87437007D01*
X140102153Y-87461818D01*
X140093164Y-87462139D01*
X139742688Y-87462139D01*
X139680506Y-87468894D01*
X139544117Y-87520024D01*
X139536937Y-87525405D01*
X139533830Y-87527106D01*
X139464473Y-87542275D01*
X139412814Y-87527106D01*
X139409707Y-87525405D01*
X139402527Y-87520024D01*
X139266138Y-87468894D01*
X139203956Y-87462139D01*
X137710688Y-87462139D01*
X137648506Y-87468894D01*
X137512117Y-87520024D01*
X137395561Y-87607378D01*
X137308207Y-87723934D01*
X137305055Y-87732342D01*
X137276645Y-87808125D01*
X137234003Y-87864889D01*
X137167442Y-87889589D01*
X137098093Y-87874381D01*
X137057839Y-87839462D01*
X136979083Y-87734378D01*
X136862527Y-87647024D01*
X136726138Y-87595894D01*
X136663956Y-87589139D01*
X135170688Y-87589139D01*
X135108506Y-87595894D01*
X135101110Y-87598666D01*
X135101104Y-87598668D01*
X134980371Y-87643929D01*
X134909564Y-87649112D01*
X134847195Y-87615191D01*
X134813066Y-87552935D01*
X134818160Y-87481719D01*
X134831567Y-87445955D01*
X134838322Y-87383773D01*
X134838322Y-86398505D01*
X134831567Y-86336323D01*
X134780437Y-86199934D01*
X134693083Y-86083378D01*
X134634490Y-86039465D01*
X134591975Y-85982606D01*
X134586949Y-85911787D01*
X134621009Y-85849494D01*
X134634490Y-85837813D01*
X134685903Y-85799281D01*
X134693083Y-85793900D01*
X134729676Y-85745074D01*
X134786535Y-85702559D01*
X134830502Y-85694639D01*
X138577664Y-85694639D01*
X138645785Y-85714641D01*
G37*
%TD.AperFunction*%
%TD*%
M02*
