%TF.GenerationSoftware,KiCad,Pcbnew,6.0.4-6f826c9f35~116~ubuntu20.04.1*%
%TF.CreationDate,2022-04-06T13:45:02+00:00*%
%TF.ProjectId,PCRD04B,50435244-3034-4422-9e6b-696361645f70,REV*%
%TF.SameCoordinates,Original*%
%TF.FileFunction,Soldermask,Bot*%
%TF.FilePolarity,Negative*%
%FSLAX46Y46*%
G04 Gerber Fmt 4.6, Leading zero omitted, Abs format (unit mm)*
G04 Created by KiCad (PCBNEW 6.0.4-6f826c9f35~116~ubuntu20.04.1) date 2022-04-06 13:45:02*
%MOMM*%
%LPD*%
G01*
G04 APERTURE LIST*
%ADD10R,1.524000X1.524000*%
%ADD11C,6.000000*%
%ADD12C,1.524000*%
%ADD13C,1.700000*%
%ADD14R,1.397000X0.889000*%
%ADD15R,0.900000X0.800000*%
%ADD16R,2.550160X2.499360*%
%ADD17R,0.889000X1.397000*%
%ADD18R,2.499360X1.800860*%
%ADD19R,1.550000X0.600000*%
%ADD20R,0.650000X1.560000*%
%ADD21R,1.560000X0.650000*%
%ADD22R,1.400000X0.899000*%
%ADD23R,1.400000X0.889000*%
%ADD24R,1.500000X1.300000*%
%ADD25R,3.000000X0.700000*%
%ADD26R,1.300000X1.500000*%
%ADD27R,0.700000X3.000000*%
%ADD28R,3.800000X1.000000*%
%ADD29R,1.000000X3.800000*%
%ADD30R,3.300000X2.550000*%
G04 APERTURE END LIST*
D10*
%TO.C,J1*%
X158396322Y-108862139D03*
X158396322Y-111402139D03*
X155856322Y-108862139D03*
X155856322Y-111402139D03*
X153316322Y-108862139D03*
X153316322Y-111402139D03*
%TD*%
%TO.C,J2*%
X167921322Y-91717139D03*
X165381322Y-91717139D03*
%TD*%
%TO.C,J3*%
X167921322Y-94257139D03*
X165381322Y-94257139D03*
%TD*%
%TO.C,J4*%
X167921322Y-96797139D03*
X165381322Y-96797139D03*
%TD*%
%TO.C,J5*%
X167921322Y-86637139D03*
X165381322Y-86637139D03*
%TD*%
%TO.C,J6*%
X167921322Y-89177139D03*
X165381322Y-89177139D03*
%TD*%
%TO.C,J7*%
X167921322Y-101877139D03*
X165381322Y-101877139D03*
%TD*%
D11*
%TO.C,M1*%
X114581322Y-77747139D03*
%TD*%
%TO.C,M2*%
X165381322Y-77747139D03*
%TD*%
%TO.C,M3*%
X165381322Y-108227139D03*
%TD*%
%TO.C,M4*%
X114581322Y-108227139D03*
%TD*%
D10*
%TO.C,J11*%
X165381322Y-99337139D03*
X167921322Y-99337139D03*
%TD*%
D12*
%TO.C,D2*%
X131051322Y-82667139D03*
D13*
X126051322Y-85207139D03*
X126051322Y-82667139D03*
%TD*%
D14*
%TO.C,C20*%
X125757322Y-96352639D03*
X125757322Y-98257639D03*
%TD*%
%TO.C,R15*%
X128043322Y-96416139D03*
X128043322Y-98321139D03*
%TD*%
D15*
%TO.C,U3*%
X130107322Y-98255139D03*
X130107322Y-96355139D03*
X132107322Y-97305139D03*
%TD*%
%TO.C,U6*%
X123836322Y-97752139D03*
X123836322Y-99652139D03*
X121836322Y-98702139D03*
%TD*%
D16*
%TO.C,C1*%
X145681082Y-100607139D03*
X140631562Y-100607139D03*
%TD*%
D14*
%TO.C,C3*%
X120931322Y-87907139D03*
X120931322Y-86002139D03*
%TD*%
D17*
%TO.C,C4*%
X145696322Y-103782139D03*
X143791322Y-103782139D03*
%TD*%
%TO.C,C5*%
X123471322Y-92987139D03*
X121566322Y-92987139D03*
%TD*%
D14*
%TO.C,C6*%
X135409322Y-92098139D03*
X135409322Y-94003139D03*
%TD*%
%TO.C,C7*%
X155729322Y-92923639D03*
X155729322Y-91018639D03*
%TD*%
%TO.C,C8*%
X148871322Y-84795639D03*
X148871322Y-82890639D03*
%TD*%
%TO.C,C9*%
X155856322Y-99019639D03*
X155856322Y-100924639D03*
%TD*%
D17*
%TO.C,C10*%
X126963822Y-92987139D03*
X125058822Y-92987139D03*
%TD*%
D14*
%TO.C,C11*%
X133377322Y-92098139D03*
X133377322Y-94003139D03*
%TD*%
%TO.C,C12*%
X153443322Y-92923639D03*
X153443322Y-91018639D03*
%TD*%
%TO.C,C13*%
X151157322Y-84795639D03*
X151157322Y-82890639D03*
%TD*%
%TO.C,C14*%
X158396322Y-99019639D03*
X158396322Y-100924639D03*
%TD*%
%TO.C,C15*%
X135917322Y-90447139D03*
X135917322Y-88542139D03*
%TD*%
%TO.C,C16*%
X138457322Y-88415139D03*
X138457322Y-90320139D03*
%TD*%
%TO.C,C17*%
X143029322Y-89494639D03*
X143029322Y-87589639D03*
%TD*%
%TO.C,C18*%
X142775322Y-94003139D03*
X142775322Y-92098139D03*
%TD*%
%TO.C,C19*%
X153443322Y-89113639D03*
X153443322Y-87208639D03*
%TD*%
D18*
%TO.C,D1*%
X150047342Y-103147139D03*
X154045302Y-103147139D03*
%TD*%
D14*
%TO.C,R3*%
X151411322Y-95209639D03*
X151411322Y-97114639D03*
%TD*%
%TO.C,R4*%
X146585322Y-84795639D03*
X146585322Y-82890639D03*
%TD*%
D17*
%TO.C,R5*%
X153633822Y-99337139D03*
X151728822Y-99337139D03*
%TD*%
%TO.C,R6*%
X123471322Y-95527139D03*
X121566322Y-95527139D03*
%TD*%
D14*
%TO.C,R7*%
X131091322Y-85049639D03*
X131091322Y-86954639D03*
%TD*%
%TO.C,R8*%
X133631322Y-86891139D03*
X133631322Y-84986139D03*
%TD*%
%TO.C,R9*%
X133631322Y-90447139D03*
X133631322Y-88542139D03*
%TD*%
%TO.C,R10*%
X140489322Y-90320139D03*
X140489322Y-88415139D03*
%TD*%
%TO.C,R11*%
X140489322Y-94003139D03*
X140489322Y-92098139D03*
%TD*%
%TO.C,R12*%
X158396322Y-93304639D03*
X158396322Y-91399639D03*
%TD*%
D17*
%TO.C,R13*%
X155284822Y-88923139D03*
X157189822Y-88923139D03*
%TD*%
D19*
%TO.C,U1*%
X123311322Y-91082139D03*
X123311322Y-89812139D03*
X123311322Y-88542139D03*
X123311322Y-87272139D03*
X128711322Y-87272139D03*
X128711322Y-88542139D03*
X128711322Y-89812139D03*
X128711322Y-91082139D03*
%TD*%
D20*
%TO.C,U4*%
X155409322Y-84685139D03*
X154459322Y-84685139D03*
X153509322Y-84685139D03*
X153509322Y-81985139D03*
X155409322Y-81985139D03*
%TD*%
D21*
%TO.C,U5*%
X155776322Y-97112139D03*
X155776322Y-96162139D03*
X155776322Y-95212139D03*
X158476322Y-95212139D03*
X158476322Y-97112139D03*
%TD*%
D14*
%TO.C,R2*%
X131091322Y-91082139D03*
X131091322Y-92987139D03*
%TD*%
D19*
%TO.C,U2*%
X145663322Y-93114139D03*
X145663322Y-91844139D03*
X145663322Y-90574139D03*
X145663322Y-89304139D03*
X151063322Y-89304139D03*
X151063322Y-90574139D03*
X151063322Y-91844139D03*
X151063322Y-93114139D03*
%TD*%
D22*
%TO.C,R1*%
X158015322Y-83271639D03*
D23*
X158015322Y-81366639D03*
%TD*%
D24*
%TO.C,C2*%
X162841322Y-97512139D03*
D25*
X162841322Y-96162139D03*
D24*
X162841322Y-94812139D03*
%TD*%
D26*
%TO.C,C21*%
X144981322Y-109497139D03*
D27*
X146331322Y-109497139D03*
D26*
X147681322Y-109497139D03*
%TD*%
D24*
%TO.C,C22*%
X162841322Y-85922139D03*
D25*
X162841322Y-87272139D03*
D24*
X162841322Y-88622139D03*
%TD*%
%TO.C,C23*%
X162841322Y-103227139D03*
D25*
X162841322Y-101877139D03*
D24*
X162841322Y-100527139D03*
%TD*%
D28*
%TO.C,M6*%
X153886322Y-106457139D03*
X147886322Y-76157139D03*
D29*
X116986322Y-88307139D03*
X160786322Y-82307139D03*
D28*
X153886322Y-76157139D03*
X135886322Y-106457139D03*
D30*
X118136322Y-105682139D03*
D28*
X141886322Y-106457139D03*
X123886322Y-76157139D03*
D30*
X159636322Y-105682139D03*
D29*
X116986322Y-94307139D03*
X116986322Y-100307139D03*
D28*
X141886322Y-76157139D03*
X129886322Y-106457139D03*
X129886322Y-76157139D03*
D30*
X118136322Y-76932139D03*
X159636322Y-76932139D03*
D28*
X123886322Y-106457139D03*
X135886322Y-76157139D03*
X147886322Y-106457139D03*
D29*
X160786322Y-94307139D03*
X116986322Y-82307139D03*
X160786322Y-100307139D03*
X160786322Y-88307139D03*
%TD*%
M02*
