%TF.GenerationSoftware,KiCad,Pcbnew,6.0.11+dfsg-1~bpo11+1*%
%TF.CreationDate,2023-04-12T15:22:02+00:00*%
%TF.ProjectId,PCRD04B,50435244-3034-4422-9e6b-696361645f70,REV*%
%TF.SameCoordinates,Original*%
%TF.FileFunction,Legend,Bot*%
%TF.FilePolarity,Positive*%
%FSLAX46Y46*%
G04 Gerber Fmt 4.6, Leading zero omitted, Abs format (unit mm)*
G04 Created by KiCad (PCBNEW 6.0.11+dfsg-1~bpo11+1) date 2023-04-12 15:22:02*
%MOMM*%
%LPD*%
G01*
G04 APERTURE LIST*
%ADD10C,0.109220*%
%ADD11C,0.150000*%
%ADD12C,0.304800*%
%ADD13C,0.099060*%
%ADD14C,0.120000*%
G04 APERTURE END LIST*
D10*
%TO.C,C20*%
X125618529Y-96983466D02*
X125642356Y-96959638D01*
X125666184Y-96888155D01*
X125666184Y-96840500D01*
X125642356Y-96769017D01*
X125594701Y-96721362D01*
X125547046Y-96697534D01*
X125451735Y-96673707D01*
X125380252Y-96673707D01*
X125284942Y-96697534D01*
X125237287Y-96721362D01*
X125189632Y-96769017D01*
X125165804Y-96840500D01*
X125165804Y-96888155D01*
X125189632Y-96959638D01*
X125213459Y-96983466D01*
X125213459Y-97174087D02*
X125189632Y-97197914D01*
X125165804Y-97245569D01*
X125165804Y-97364708D01*
X125189632Y-97412363D01*
X125213459Y-97436190D01*
X125261114Y-97460018D01*
X125308770Y-97460018D01*
X125380252Y-97436190D01*
X125666184Y-97150259D01*
X125666184Y-97460018D01*
X125165804Y-97769777D02*
X125165804Y-97817432D01*
X125189632Y-97865088D01*
X125213459Y-97888915D01*
X125261114Y-97912743D01*
X125356425Y-97936570D01*
X125475563Y-97936570D01*
X125570873Y-97912743D01*
X125618529Y-97888915D01*
X125642356Y-97865088D01*
X125666184Y-97817432D01*
X125666184Y-97769777D01*
X125642356Y-97722122D01*
X125618529Y-97698294D01*
X125570873Y-97674467D01*
X125475563Y-97650639D01*
X125356425Y-97650639D01*
X125261114Y-97674467D01*
X125213459Y-97698294D01*
X125189632Y-97722122D01*
X125165804Y-97769777D01*
X126364684Y-96657741D02*
X126364684Y-96371809D01*
X126364684Y-96514775D02*
X125864304Y-96514775D01*
X125935787Y-96467120D01*
X125983442Y-96419465D01*
X126007270Y-96371809D01*
X125864304Y-96967500D02*
X125864304Y-97015155D01*
X125888132Y-97062810D01*
X125911959Y-97086638D01*
X125959614Y-97110466D01*
X126054925Y-97134293D01*
X126174063Y-97134293D01*
X126269373Y-97110466D01*
X126317029Y-97086638D01*
X126340856Y-97062810D01*
X126364684Y-97015155D01*
X126364684Y-96967500D01*
X126340856Y-96919845D01*
X126317029Y-96896017D01*
X126269373Y-96872189D01*
X126174063Y-96848362D01*
X126054925Y-96848362D01*
X125959614Y-96872189D01*
X125911959Y-96896017D01*
X125888132Y-96919845D01*
X125864304Y-96967500D01*
X125864304Y-97444052D02*
X125864304Y-97491708D01*
X125888132Y-97539363D01*
X125911959Y-97563190D01*
X125959614Y-97587018D01*
X126054925Y-97610846D01*
X126174063Y-97610846D01*
X126269373Y-97587018D01*
X126317029Y-97563190D01*
X126340856Y-97539363D01*
X126364684Y-97491708D01*
X126364684Y-97444052D01*
X126340856Y-97396397D01*
X126317029Y-97372569D01*
X126269373Y-97348742D01*
X126174063Y-97324914D01*
X126054925Y-97324914D01*
X125959614Y-97348742D01*
X125911959Y-97372569D01*
X125888132Y-97396397D01*
X125864304Y-97444052D01*
X126031097Y-97825294D02*
X126364684Y-97825294D01*
X126078752Y-97825294D02*
X126054925Y-97849122D01*
X126031097Y-97896777D01*
X126031097Y-97968260D01*
X126054925Y-98015915D01*
X126102580Y-98039743D01*
X126364684Y-98039743D01*
X126102580Y-98444812D02*
X126102580Y-98278019D01*
X126364684Y-98278019D02*
X125864304Y-98278019D01*
X125864304Y-98516295D01*
%TO.C,R15*%
X127952184Y-97046966D02*
X127713908Y-96880172D01*
X127952184Y-96761034D02*
X127451804Y-96761034D01*
X127451804Y-96951655D01*
X127475632Y-96999310D01*
X127499459Y-97023138D01*
X127547114Y-97046966D01*
X127618597Y-97046966D01*
X127666252Y-97023138D01*
X127690080Y-96999310D01*
X127713908Y-96951655D01*
X127713908Y-96761034D01*
X127952184Y-97523518D02*
X127952184Y-97237587D01*
X127952184Y-97380552D02*
X127451804Y-97380552D01*
X127523287Y-97332897D01*
X127570942Y-97285242D01*
X127594770Y-97237587D01*
X127451804Y-97976243D02*
X127451804Y-97737967D01*
X127690080Y-97714139D01*
X127666252Y-97737967D01*
X127642425Y-97785622D01*
X127642425Y-97904760D01*
X127666252Y-97952415D01*
X127690080Y-97976243D01*
X127737735Y-98000070D01*
X127856873Y-98000070D01*
X127904529Y-97976243D01*
X127928356Y-97952415D01*
X127952184Y-97904760D01*
X127952184Y-97785622D01*
X127928356Y-97737967D01*
X127904529Y-97714139D01*
X128460063Y-97305018D02*
X128460063Y-97686259D01*
D11*
%TO.C,U3*%
X131345226Y-96757519D02*
X131345226Y-97567043D01*
X131297607Y-97662281D01*
X131249988Y-97709900D01*
X131154750Y-97757519D01*
X130964274Y-97757519D01*
X130869036Y-97709900D01*
X130821417Y-97662281D01*
X130773798Y-97567043D01*
X130773798Y-96757519D01*
X130392845Y-96757519D02*
X129773798Y-96757519D01*
X130107131Y-97138472D01*
X129964274Y-97138472D01*
X129869036Y-97186091D01*
X129821417Y-97233710D01*
X129773798Y-97328948D01*
X129773798Y-97567043D01*
X129821417Y-97662281D01*
X129869036Y-97709900D01*
X129964274Y-97757519D01*
X130249988Y-97757519D01*
X130345226Y-97709900D01*
X130392845Y-97662281D01*
%TO.C,U6*%
X124106226Y-98154519D02*
X124106226Y-98964043D01*
X124058607Y-99059281D01*
X124010988Y-99106900D01*
X123915750Y-99154519D01*
X123725274Y-99154519D01*
X123630036Y-99106900D01*
X123582417Y-99059281D01*
X123534798Y-98964043D01*
X123534798Y-98154519D01*
X122630036Y-98154519D02*
X122820512Y-98154519D01*
X122915750Y-98202139D01*
X122963369Y-98249758D01*
X123058607Y-98392615D01*
X123106226Y-98583091D01*
X123106226Y-98964043D01*
X123058607Y-99059281D01*
X123010988Y-99106900D01*
X122915750Y-99154519D01*
X122725274Y-99154519D01*
X122630036Y-99106900D01*
X122582417Y-99059281D01*
X122534798Y-98964043D01*
X122534798Y-98725948D01*
X122582417Y-98630710D01*
X122630036Y-98583091D01*
X122725274Y-98535472D01*
X122915750Y-98535472D01*
X123010988Y-98583091D01*
X123058607Y-98630710D01*
X123106226Y-98725948D01*
D12*
%TO.C,C1*%
X143410322Y-101151424D02*
X143482893Y-101223996D01*
X143700607Y-101296567D01*
X143845750Y-101296567D01*
X144063464Y-101223996D01*
X144208607Y-101078853D01*
X144281179Y-100933710D01*
X144353750Y-100643424D01*
X144353750Y-100425710D01*
X144281179Y-100135424D01*
X144208607Y-99990281D01*
X144063464Y-99845139D01*
X143845750Y-99772567D01*
X143700607Y-99772567D01*
X143482893Y-99845139D01*
X143410322Y-99917710D01*
X141958893Y-101296567D02*
X142829750Y-101296567D01*
X142394322Y-101296567D02*
X142394322Y-99772567D01*
X142539464Y-99990281D01*
X142684607Y-100135424D01*
X142829750Y-100207996D01*
X148735613Y-98165836D02*
X147574470Y-98165836D01*
X148155042Y-98746407D02*
X148155042Y-97585264D01*
D10*
%TO.C,C3*%
X121427529Y-86871242D02*
X121451356Y-86847414D01*
X121475184Y-86775931D01*
X121475184Y-86728276D01*
X121451356Y-86656793D01*
X121403701Y-86609138D01*
X121356046Y-86585310D01*
X121260735Y-86561483D01*
X121189252Y-86561483D01*
X121093942Y-86585310D01*
X121046287Y-86609138D01*
X120998632Y-86656793D01*
X120974804Y-86728276D01*
X120974804Y-86775931D01*
X120998632Y-86847414D01*
X121022459Y-86871242D01*
X120974804Y-87038035D02*
X120974804Y-87347794D01*
X121165425Y-87181001D01*
X121165425Y-87252484D01*
X121189252Y-87300139D01*
X121213080Y-87323967D01*
X121260735Y-87347794D01*
X121379873Y-87347794D01*
X121427529Y-87323967D01*
X121451356Y-87300139D01*
X121475184Y-87252484D01*
X121475184Y-87109518D01*
X121451356Y-87061863D01*
X121427529Y-87038035D01*
X120443097Y-86458310D02*
X120776684Y-86458310D01*
X120252476Y-86339172D02*
X120609891Y-86220034D01*
X120609891Y-86529793D01*
X120443097Y-86934863D02*
X120776684Y-86934863D01*
X120443097Y-86720414D02*
X120705201Y-86720414D01*
X120752856Y-86744242D01*
X120776684Y-86791897D01*
X120776684Y-86863380D01*
X120752856Y-86911035D01*
X120729029Y-86934863D01*
X120276304Y-87125484D02*
X120276304Y-87459070D01*
X120776684Y-87244622D01*
%TO.C,C4*%
X144827218Y-103643346D02*
X144851046Y-103667173D01*
X144922529Y-103691001D01*
X144970184Y-103691001D01*
X145041667Y-103667173D01*
X145089322Y-103619518D01*
X145113150Y-103571863D01*
X145136977Y-103476552D01*
X145136977Y-103405069D01*
X145113150Y-103309759D01*
X145089322Y-103262104D01*
X145041667Y-103214449D01*
X144970184Y-103190621D01*
X144922529Y-103190621D01*
X144851046Y-103214449D01*
X144827218Y-103238276D01*
X144398321Y-103357414D02*
X144398321Y-103691001D01*
X144517459Y-103166793D02*
X144636597Y-103524208D01*
X144326838Y-103524208D01*
X145152943Y-104389501D02*
X145438874Y-104389501D01*
X145295909Y-104389501D02*
X145295909Y-103889121D01*
X145343564Y-103960604D01*
X145391219Y-104008259D01*
X145438874Y-104032087D01*
X144843184Y-103889121D02*
X144795529Y-103889121D01*
X144747873Y-103912949D01*
X144724046Y-103936776D01*
X144700218Y-103984431D01*
X144676391Y-104079742D01*
X144676391Y-104198880D01*
X144700218Y-104294190D01*
X144724046Y-104341846D01*
X144747873Y-104365673D01*
X144795529Y-104389501D01*
X144843184Y-104389501D01*
X144890839Y-104365673D01*
X144914667Y-104341846D01*
X144938494Y-104294190D01*
X144962322Y-104198880D01*
X144962322Y-104079742D01*
X144938494Y-103984431D01*
X144914667Y-103936776D01*
X144890839Y-103912949D01*
X144843184Y-103889121D01*
X144247493Y-104055914D02*
X144247493Y-104389501D01*
X144461942Y-104055914D02*
X144461942Y-104318018D01*
X144438114Y-104365673D01*
X144390459Y-104389501D01*
X144318976Y-104389501D01*
X144271321Y-104365673D01*
X144247493Y-104341846D01*
X143842424Y-104127397D02*
X144009217Y-104127397D01*
X144009217Y-104389501D02*
X144009217Y-103889121D01*
X143770941Y-103889121D01*
%TO.C,C5*%
X122602218Y-92848346D02*
X122626046Y-92872173D01*
X122697529Y-92896001D01*
X122745184Y-92896001D01*
X122816667Y-92872173D01*
X122864322Y-92824518D01*
X122888150Y-92776863D01*
X122911977Y-92681552D01*
X122911977Y-92610069D01*
X122888150Y-92514759D01*
X122864322Y-92467104D01*
X122816667Y-92419449D01*
X122745184Y-92395621D01*
X122697529Y-92395621D01*
X122626046Y-92419449D01*
X122602218Y-92443276D01*
X122149493Y-92395621D02*
X122387770Y-92395621D01*
X122411597Y-92633897D01*
X122387770Y-92610069D01*
X122340114Y-92586242D01*
X122220976Y-92586242D01*
X122173321Y-92610069D01*
X122149493Y-92633897D01*
X122125666Y-92681552D01*
X122125666Y-92800690D01*
X122149493Y-92848346D01*
X122173321Y-92872173D01*
X122220976Y-92896001D01*
X122340114Y-92896001D01*
X122387770Y-92872173D01*
X122411597Y-92848346D01*
X126930983Y-93594501D02*
X127216914Y-93594501D01*
X127073949Y-93594501D02*
X127073949Y-93094121D01*
X127121604Y-93165604D01*
X127169259Y-93213259D01*
X127216914Y-93237087D01*
X126716534Y-93260914D02*
X126716534Y-93761294D01*
X126716534Y-93284742D02*
X126668879Y-93260914D01*
X126573569Y-93260914D01*
X126525913Y-93284742D01*
X126502086Y-93308569D01*
X126478258Y-93356225D01*
X126478258Y-93499190D01*
X126502086Y-93546846D01*
X126525913Y-93570673D01*
X126573569Y-93594501D01*
X126668879Y-93594501D01*
X126716534Y-93570673D01*
X126097016Y-93332397D02*
X126263810Y-93332397D01*
X126263810Y-93594501D02*
X126263810Y-93094121D01*
X126025533Y-93094121D01*
X125834912Y-93594501D02*
X125834912Y-93094121D01*
X125548981Y-93594501D01*
X125548981Y-93094121D01*
X125310705Y-93594501D02*
X125310705Y-93094121D01*
X125120084Y-93094121D01*
X125072429Y-93117949D01*
X125048601Y-93141776D01*
X125024773Y-93189431D01*
X125024773Y-93260914D01*
X125048601Y-93308569D01*
X125072429Y-93332397D01*
X125120084Y-93356225D01*
X125310705Y-93356225D01*
X124715014Y-93094121D02*
X124667359Y-93094121D01*
X124619704Y-93117949D01*
X124595876Y-93141776D01*
X124572049Y-93189431D01*
X124548221Y-93284742D01*
X124548221Y-93403880D01*
X124572049Y-93499190D01*
X124595876Y-93546846D01*
X124619704Y-93570673D01*
X124667359Y-93594501D01*
X124715014Y-93594501D01*
X124762670Y-93570673D01*
X124786497Y-93546846D01*
X124810325Y-93499190D01*
X124834152Y-93403880D01*
X124834152Y-93284742D01*
X124810325Y-93189431D01*
X124786497Y-93141776D01*
X124762670Y-93117949D01*
X124715014Y-93094121D01*
X123976358Y-93141776D02*
X123952531Y-93117949D01*
X123904875Y-93094121D01*
X123785737Y-93094121D01*
X123738082Y-93117949D01*
X123714254Y-93141776D01*
X123690427Y-93189431D01*
X123690427Y-93237087D01*
X123714254Y-93308569D01*
X124000186Y-93594501D01*
X123690427Y-93594501D01*
X123237702Y-93094121D02*
X123475978Y-93094121D01*
X123499806Y-93332397D01*
X123475978Y-93308569D01*
X123428323Y-93284742D01*
X123309185Y-93284742D01*
X123261530Y-93308569D01*
X123237702Y-93332397D01*
X123213874Y-93380052D01*
X123213874Y-93499190D01*
X123237702Y-93546846D01*
X123261530Y-93570673D01*
X123309185Y-93594501D01*
X123428323Y-93594501D01*
X123475978Y-93570673D01*
X123499806Y-93546846D01*
X122737322Y-93594501D02*
X123023253Y-93594501D01*
X122880288Y-93594501D02*
X122880288Y-93094121D01*
X122927943Y-93165604D01*
X122975598Y-93213259D01*
X123023253Y-93237087D01*
X122236942Y-93594501D02*
X122403735Y-93356225D01*
X122522873Y-93594501D02*
X122522873Y-93094121D01*
X122332252Y-93094121D01*
X122284597Y-93117949D01*
X122260770Y-93141776D01*
X122236942Y-93189431D01*
X122236942Y-93260914D01*
X122260770Y-93308569D01*
X122284597Y-93332397D01*
X122332252Y-93356225D01*
X122522873Y-93356225D01*
X121760390Y-93594501D02*
X122046321Y-93594501D01*
X121903355Y-93594501D02*
X121903355Y-93094121D01*
X121951011Y-93165604D01*
X121998666Y-93213259D01*
X122046321Y-93237087D01*
X121307665Y-93094121D02*
X121545941Y-93094121D01*
X121569769Y-93332397D01*
X121545941Y-93308569D01*
X121498286Y-93284742D01*
X121379148Y-93284742D01*
X121331492Y-93308569D01*
X121307665Y-93332397D01*
X121283837Y-93380052D01*
X121283837Y-93499190D01*
X121307665Y-93546846D01*
X121331492Y-93570673D01*
X121379148Y-93594501D01*
X121498286Y-93594501D01*
X121545941Y-93570673D01*
X121569769Y-93546846D01*
X121093216Y-93570673D02*
X121021733Y-93594501D01*
X120902595Y-93594501D01*
X120854940Y-93570673D01*
X120831112Y-93546846D01*
X120807285Y-93499190D01*
X120807285Y-93451535D01*
X120831112Y-93403880D01*
X120854940Y-93380052D01*
X120902595Y-93356225D01*
X120997906Y-93332397D01*
X121045561Y-93308569D01*
X121069389Y-93284742D01*
X121093216Y-93237087D01*
X121093216Y-93189431D01*
X121069389Y-93141776D01*
X121045561Y-93117949D01*
X120997906Y-93094121D01*
X120878768Y-93094121D01*
X120807285Y-93117949D01*
X120330732Y-93594501D02*
X120616664Y-93594501D01*
X120473698Y-93594501D02*
X120473698Y-93094121D01*
X120521353Y-93165604D01*
X120569009Y-93213259D01*
X120616664Y-93237087D01*
X119830352Y-93594501D02*
X119997146Y-93356225D01*
X120116284Y-93594501D02*
X120116284Y-93094121D01*
X119925663Y-93094121D01*
X119878008Y-93117949D01*
X119854180Y-93141776D01*
X119830352Y-93189431D01*
X119830352Y-93260914D01*
X119854180Y-93308569D01*
X119878008Y-93332397D01*
X119925663Y-93356225D01*
X120116284Y-93356225D01*
X119520593Y-93094121D02*
X119472938Y-93094121D01*
X119425283Y-93117949D01*
X119401455Y-93141776D01*
X119377628Y-93189431D01*
X119353800Y-93284742D01*
X119353800Y-93403880D01*
X119377628Y-93499190D01*
X119401455Y-93546846D01*
X119425283Y-93570673D01*
X119472938Y-93594501D01*
X119520593Y-93594501D01*
X119568249Y-93570673D01*
X119592076Y-93546846D01*
X119615904Y-93499190D01*
X119639732Y-93403880D01*
X119639732Y-93284742D01*
X119615904Y-93189431D01*
X119592076Y-93141776D01*
X119568249Y-93117949D01*
X119520593Y-93094121D01*
X119163179Y-93451535D02*
X118924903Y-93451535D01*
X119210834Y-93594501D02*
X119044041Y-93094121D01*
X118877248Y-93594501D01*
X118781937Y-93094121D02*
X118615144Y-93594501D01*
X118448351Y-93094121D01*
X118067109Y-93260914D02*
X118067109Y-93594501D01*
X118186247Y-93070293D02*
X118305385Y-93427708D01*
X117995626Y-93427708D01*
X117805005Y-93332397D02*
X117638212Y-93332397D01*
X117566729Y-93594501D02*
X117805005Y-93594501D01*
X117805005Y-93094121D01*
X117566729Y-93094121D01*
%TO.C,C6*%
X135270529Y-92967242D02*
X135294356Y-92943414D01*
X135318184Y-92871931D01*
X135318184Y-92824276D01*
X135294356Y-92752793D01*
X135246701Y-92705138D01*
X135199046Y-92681310D01*
X135103735Y-92657483D01*
X135032252Y-92657483D01*
X134936942Y-92681310D01*
X134889287Y-92705138D01*
X134841632Y-92752793D01*
X134817804Y-92824276D01*
X134817804Y-92871931D01*
X134841632Y-92943414D01*
X134865459Y-92967242D01*
X134817804Y-93396139D02*
X134817804Y-93300829D01*
X134841632Y-93253173D01*
X134865459Y-93229346D01*
X134936942Y-93181690D01*
X135032252Y-93157863D01*
X135222873Y-93157863D01*
X135270529Y-93181690D01*
X135294356Y-93205518D01*
X135318184Y-93253173D01*
X135318184Y-93348484D01*
X135294356Y-93396139D01*
X135270529Y-93419967D01*
X135222873Y-93443794D01*
X135103735Y-93443794D01*
X135056080Y-93419967D01*
X135032252Y-93396139D01*
X135008425Y-93348484D01*
X135008425Y-93253173D01*
X135032252Y-93205518D01*
X135056080Y-93181690D01*
X135103735Y-93157863D01*
X136016684Y-92641517D02*
X136016684Y-92355586D01*
X136016684Y-92498551D02*
X135516304Y-92498551D01*
X135587787Y-92450896D01*
X135635442Y-92403241D01*
X135659270Y-92355586D01*
X135516304Y-92951276D02*
X135516304Y-92998931D01*
X135540132Y-93046587D01*
X135563959Y-93070414D01*
X135611614Y-93094242D01*
X135706925Y-93118069D01*
X135826063Y-93118069D01*
X135921373Y-93094242D01*
X135969029Y-93070414D01*
X135992856Y-93046587D01*
X136016684Y-92998931D01*
X136016684Y-92951276D01*
X135992856Y-92903621D01*
X135969029Y-92879793D01*
X135921373Y-92855966D01*
X135826063Y-92832138D01*
X135706925Y-92832138D01*
X135611614Y-92855966D01*
X135563959Y-92879793D01*
X135540132Y-92903621D01*
X135516304Y-92951276D01*
X135683097Y-93546967D02*
X136016684Y-93546967D01*
X135683097Y-93332518D02*
X135945201Y-93332518D01*
X135992856Y-93356346D01*
X136016684Y-93404001D01*
X136016684Y-93475484D01*
X135992856Y-93523139D01*
X135969029Y-93546967D01*
X135754580Y-93952036D02*
X135754580Y-93785243D01*
X136016684Y-93785243D02*
X135516304Y-93785243D01*
X135516304Y-94023519D01*
%TO.C,C7*%
X156225529Y-91887742D02*
X156249356Y-91863914D01*
X156273184Y-91792431D01*
X156273184Y-91744776D01*
X156249356Y-91673293D01*
X156201701Y-91625638D01*
X156154046Y-91601810D01*
X156058735Y-91577983D01*
X155987252Y-91577983D01*
X155891942Y-91601810D01*
X155844287Y-91625638D01*
X155796632Y-91673293D01*
X155772804Y-91744776D01*
X155772804Y-91792431D01*
X155796632Y-91863914D01*
X155820459Y-91887742D01*
X155772804Y-92054535D02*
X155772804Y-92388122D01*
X156273184Y-92173673D01*
X155574684Y-91308017D02*
X155574684Y-91022086D01*
X155574684Y-91165051D02*
X155074304Y-91165051D01*
X155145787Y-91117396D01*
X155193442Y-91069741D01*
X155217270Y-91022086D01*
X155074304Y-91617776D02*
X155074304Y-91665431D01*
X155098132Y-91713087D01*
X155121959Y-91736914D01*
X155169614Y-91760742D01*
X155264925Y-91784569D01*
X155384063Y-91784569D01*
X155479373Y-91760742D01*
X155527029Y-91736914D01*
X155550856Y-91713087D01*
X155574684Y-91665431D01*
X155574684Y-91617776D01*
X155550856Y-91570121D01*
X155527029Y-91546293D01*
X155479373Y-91522466D01*
X155384063Y-91498638D01*
X155264925Y-91498638D01*
X155169614Y-91522466D01*
X155121959Y-91546293D01*
X155098132Y-91570121D01*
X155074304Y-91617776D01*
X155241097Y-92213467D02*
X155574684Y-92213467D01*
X155241097Y-91999018D02*
X155503201Y-91999018D01*
X155550856Y-92022846D01*
X155574684Y-92070501D01*
X155574684Y-92141984D01*
X155550856Y-92189639D01*
X155527029Y-92213467D01*
X155312580Y-92618536D02*
X155312580Y-92451743D01*
X155574684Y-92451743D02*
X155074304Y-92451743D01*
X155074304Y-92690019D01*
%TO.C,C8*%
X149367529Y-83759742D02*
X149391356Y-83735914D01*
X149415184Y-83664431D01*
X149415184Y-83616776D01*
X149391356Y-83545293D01*
X149343701Y-83497638D01*
X149296046Y-83473810D01*
X149200735Y-83449983D01*
X149129252Y-83449983D01*
X149033942Y-83473810D01*
X148986287Y-83497638D01*
X148938632Y-83545293D01*
X148914804Y-83616776D01*
X148914804Y-83664431D01*
X148938632Y-83735914D01*
X148962459Y-83759742D01*
X149129252Y-84045673D02*
X149105425Y-83998018D01*
X149081597Y-83974190D01*
X149033942Y-83950363D01*
X149010114Y-83950363D01*
X148962459Y-83974190D01*
X148938632Y-83998018D01*
X148914804Y-84045673D01*
X148914804Y-84140984D01*
X148938632Y-84188639D01*
X148962459Y-84212467D01*
X149010114Y-84236294D01*
X149033942Y-84236294D01*
X149081597Y-84212467D01*
X149105425Y-84188639D01*
X149129252Y-84140984D01*
X149129252Y-84045673D01*
X149153080Y-83998018D01*
X149176908Y-83974190D01*
X149224563Y-83950363D01*
X149319873Y-83950363D01*
X149367529Y-83974190D01*
X149391356Y-83998018D01*
X149415184Y-84045673D01*
X149415184Y-84140984D01*
X149391356Y-84188639D01*
X149367529Y-84212467D01*
X149319873Y-84236294D01*
X149224563Y-84236294D01*
X149176908Y-84212467D01*
X149153080Y-84188639D01*
X149129252Y-84140984D01*
X148716684Y-83180017D02*
X148716684Y-82894086D01*
X148716684Y-83037051D02*
X148216304Y-83037051D01*
X148287787Y-82989396D01*
X148335442Y-82941741D01*
X148359270Y-82894086D01*
X148216304Y-83489776D02*
X148216304Y-83537431D01*
X148240132Y-83585087D01*
X148263959Y-83608914D01*
X148311614Y-83632742D01*
X148406925Y-83656569D01*
X148526063Y-83656569D01*
X148621373Y-83632742D01*
X148669029Y-83608914D01*
X148692856Y-83585087D01*
X148716684Y-83537431D01*
X148716684Y-83489776D01*
X148692856Y-83442121D01*
X148669029Y-83418293D01*
X148621373Y-83394466D01*
X148526063Y-83370638D01*
X148406925Y-83370638D01*
X148311614Y-83394466D01*
X148263959Y-83418293D01*
X148240132Y-83442121D01*
X148216304Y-83489776D01*
X148383097Y-84085467D02*
X148716684Y-84085467D01*
X148383097Y-83871018D02*
X148645201Y-83871018D01*
X148692856Y-83894846D01*
X148716684Y-83942501D01*
X148716684Y-84013984D01*
X148692856Y-84061639D01*
X148669029Y-84085467D01*
X148454580Y-84490536D02*
X148454580Y-84323743D01*
X148716684Y-84323743D02*
X148216304Y-84323743D01*
X148216304Y-84562019D01*
%TO.C,C9*%
X155717529Y-99888742D02*
X155741356Y-99864914D01*
X155765184Y-99793431D01*
X155765184Y-99745776D01*
X155741356Y-99674293D01*
X155693701Y-99626638D01*
X155646046Y-99602810D01*
X155550735Y-99578983D01*
X155479252Y-99578983D01*
X155383942Y-99602810D01*
X155336287Y-99626638D01*
X155288632Y-99674293D01*
X155264804Y-99745776D01*
X155264804Y-99793431D01*
X155288632Y-99864914D01*
X155312459Y-99888742D01*
X155765184Y-100127018D02*
X155765184Y-100222329D01*
X155741356Y-100269984D01*
X155717529Y-100293811D01*
X155646046Y-100341467D01*
X155550735Y-100365294D01*
X155360114Y-100365294D01*
X155312459Y-100341467D01*
X155288632Y-100317639D01*
X155264804Y-100269984D01*
X155264804Y-100174673D01*
X155288632Y-100127018D01*
X155312459Y-100103190D01*
X155360114Y-100079363D01*
X155479252Y-100079363D01*
X155526908Y-100103190D01*
X155550735Y-100127018D01*
X155574563Y-100174673D01*
X155574563Y-100269984D01*
X155550735Y-100317639D01*
X155526908Y-100341467D01*
X155479252Y-100365294D01*
X156463684Y-99563017D02*
X156463684Y-99277086D01*
X156463684Y-99420051D02*
X155963304Y-99420051D01*
X156034787Y-99372396D01*
X156082442Y-99324741D01*
X156106270Y-99277086D01*
X155963304Y-99872776D02*
X155963304Y-99920431D01*
X155987132Y-99968087D01*
X156010959Y-99991914D01*
X156058614Y-100015742D01*
X156153925Y-100039569D01*
X156273063Y-100039569D01*
X156368373Y-100015742D01*
X156416029Y-99991914D01*
X156439856Y-99968087D01*
X156463684Y-99920431D01*
X156463684Y-99872776D01*
X156439856Y-99825121D01*
X156416029Y-99801293D01*
X156368373Y-99777466D01*
X156273063Y-99753638D01*
X156153925Y-99753638D01*
X156058614Y-99777466D01*
X156010959Y-99801293D01*
X155987132Y-99825121D01*
X155963304Y-99872776D01*
X156130097Y-100468467D02*
X156463684Y-100468467D01*
X156130097Y-100254018D02*
X156392201Y-100254018D01*
X156439856Y-100277846D01*
X156463684Y-100325501D01*
X156463684Y-100396984D01*
X156439856Y-100444639D01*
X156416029Y-100468467D01*
X156201580Y-100873536D02*
X156201580Y-100706743D01*
X156463684Y-100706743D02*
X155963304Y-100706743D01*
X155963304Y-100945019D01*
%TO.C,C10*%
X126332994Y-92848346D02*
X126356822Y-92872173D01*
X126428305Y-92896001D01*
X126475960Y-92896001D01*
X126547443Y-92872173D01*
X126595098Y-92824518D01*
X126618926Y-92776863D01*
X126642753Y-92681552D01*
X126642753Y-92610069D01*
X126618926Y-92514759D01*
X126595098Y-92467104D01*
X126547443Y-92419449D01*
X126475960Y-92395621D01*
X126428305Y-92395621D01*
X126356822Y-92419449D01*
X126332994Y-92443276D01*
X125856442Y-92896001D02*
X126142373Y-92896001D01*
X125999408Y-92896001D02*
X125999408Y-92395621D01*
X126047063Y-92467104D01*
X126094718Y-92514759D01*
X126142373Y-92538587D01*
X125546683Y-92395621D02*
X125499028Y-92395621D01*
X125451372Y-92419449D01*
X125427545Y-92443276D01*
X125403717Y-92490931D01*
X125379890Y-92586242D01*
X125379890Y-92705380D01*
X125403717Y-92800690D01*
X125427545Y-92848346D01*
X125451372Y-92872173D01*
X125499028Y-92896001D01*
X125546683Y-92896001D01*
X125594338Y-92872173D01*
X125618166Y-92848346D01*
X125641993Y-92800690D01*
X125665821Y-92705380D01*
X125665821Y-92586242D01*
X125641993Y-92490931D01*
X125618166Y-92443276D01*
X125594338Y-92419449D01*
X125546683Y-92395621D01*
X126658719Y-93594501D02*
X126944651Y-93594501D01*
X126801685Y-93594501D02*
X126801685Y-93094121D01*
X126849340Y-93165604D01*
X126896995Y-93213259D01*
X126944651Y-93237087D01*
X126348960Y-93094121D02*
X126301305Y-93094121D01*
X126253650Y-93117949D01*
X126229822Y-93141776D01*
X126205994Y-93189431D01*
X126182167Y-93284742D01*
X126182167Y-93403880D01*
X126205994Y-93499190D01*
X126229822Y-93546846D01*
X126253650Y-93570673D01*
X126301305Y-93594501D01*
X126348960Y-93594501D01*
X126396615Y-93570673D01*
X126420443Y-93546846D01*
X126444271Y-93499190D01*
X126468098Y-93403880D01*
X126468098Y-93284742D01*
X126444271Y-93189431D01*
X126420443Y-93141776D01*
X126396615Y-93117949D01*
X126348960Y-93094121D01*
X125872408Y-93094121D02*
X125824752Y-93094121D01*
X125777097Y-93117949D01*
X125753270Y-93141776D01*
X125729442Y-93189431D01*
X125705614Y-93284742D01*
X125705614Y-93403880D01*
X125729442Y-93499190D01*
X125753270Y-93546846D01*
X125777097Y-93570673D01*
X125824752Y-93594501D01*
X125872408Y-93594501D01*
X125920063Y-93570673D01*
X125943891Y-93546846D01*
X125967718Y-93499190D01*
X125991546Y-93403880D01*
X125991546Y-93284742D01*
X125967718Y-93189431D01*
X125943891Y-93141776D01*
X125920063Y-93117949D01*
X125872408Y-93094121D01*
X125491166Y-93260914D02*
X125491166Y-93594501D01*
X125491166Y-93308569D02*
X125467338Y-93284742D01*
X125419683Y-93260914D01*
X125348200Y-93260914D01*
X125300545Y-93284742D01*
X125276717Y-93332397D01*
X125276717Y-93594501D01*
X124871648Y-93332397D02*
X125038441Y-93332397D01*
X125038441Y-93594501D02*
X125038441Y-93094121D01*
X124800165Y-93094121D01*
%TO.C,C11*%
X133238529Y-92728966D02*
X133262356Y-92705138D01*
X133286184Y-92633655D01*
X133286184Y-92586000D01*
X133262356Y-92514517D01*
X133214701Y-92466862D01*
X133167046Y-92443034D01*
X133071735Y-92419207D01*
X133000252Y-92419207D01*
X132904942Y-92443034D01*
X132857287Y-92466862D01*
X132809632Y-92514517D01*
X132785804Y-92586000D01*
X132785804Y-92633655D01*
X132809632Y-92705138D01*
X132833459Y-92728966D01*
X133286184Y-93205518D02*
X133286184Y-92919587D01*
X133286184Y-93062552D02*
X132785804Y-93062552D01*
X132857287Y-93014897D01*
X132904942Y-92967242D01*
X132928770Y-92919587D01*
X133286184Y-93682070D02*
X133286184Y-93396139D01*
X133286184Y-93539105D02*
X132785804Y-93539105D01*
X132857287Y-93491449D01*
X132904942Y-93443794D01*
X132928770Y-93396139D01*
X133984684Y-92403241D02*
X133984684Y-92117309D01*
X133984684Y-92260275D02*
X133484304Y-92260275D01*
X133555787Y-92212620D01*
X133603442Y-92164965D01*
X133627270Y-92117309D01*
X133484304Y-92713000D02*
X133484304Y-92760655D01*
X133508132Y-92808310D01*
X133531959Y-92832138D01*
X133579614Y-92855966D01*
X133674925Y-92879793D01*
X133794063Y-92879793D01*
X133889373Y-92855966D01*
X133937029Y-92832138D01*
X133960856Y-92808310D01*
X133984684Y-92760655D01*
X133984684Y-92713000D01*
X133960856Y-92665345D01*
X133937029Y-92641517D01*
X133889373Y-92617689D01*
X133794063Y-92593862D01*
X133674925Y-92593862D01*
X133579614Y-92617689D01*
X133531959Y-92641517D01*
X133508132Y-92665345D01*
X133484304Y-92713000D01*
X133484304Y-93189552D02*
X133484304Y-93237208D01*
X133508132Y-93284863D01*
X133531959Y-93308690D01*
X133579614Y-93332518D01*
X133674925Y-93356346D01*
X133794063Y-93356346D01*
X133889373Y-93332518D01*
X133937029Y-93308690D01*
X133960856Y-93284863D01*
X133984684Y-93237208D01*
X133984684Y-93189552D01*
X133960856Y-93141897D01*
X133937029Y-93118069D01*
X133889373Y-93094242D01*
X133794063Y-93070414D01*
X133674925Y-93070414D01*
X133579614Y-93094242D01*
X133531959Y-93118069D01*
X133508132Y-93141897D01*
X133484304Y-93189552D01*
X133651097Y-93570794D02*
X133984684Y-93570794D01*
X133698752Y-93570794D02*
X133674925Y-93594622D01*
X133651097Y-93642277D01*
X133651097Y-93713760D01*
X133674925Y-93761415D01*
X133722580Y-93785243D01*
X133984684Y-93785243D01*
X133722580Y-94190312D02*
X133722580Y-94023519D01*
X133984684Y-94023519D02*
X133484304Y-94023519D01*
X133484304Y-94261795D01*
%TO.C,C12*%
X153939529Y-91649466D02*
X153963356Y-91625638D01*
X153987184Y-91554155D01*
X153987184Y-91506500D01*
X153963356Y-91435017D01*
X153915701Y-91387362D01*
X153868046Y-91363534D01*
X153772735Y-91339707D01*
X153701252Y-91339707D01*
X153605942Y-91363534D01*
X153558287Y-91387362D01*
X153510632Y-91435017D01*
X153486804Y-91506500D01*
X153486804Y-91554155D01*
X153510632Y-91625638D01*
X153534459Y-91649466D01*
X153987184Y-92126018D02*
X153987184Y-91840087D01*
X153987184Y-91983052D02*
X153486804Y-91983052D01*
X153558287Y-91935397D01*
X153605942Y-91887742D01*
X153629770Y-91840087D01*
X153534459Y-92316639D02*
X153510632Y-92340467D01*
X153486804Y-92388122D01*
X153486804Y-92507260D01*
X153510632Y-92554915D01*
X153534459Y-92578743D01*
X153582114Y-92602570D01*
X153629770Y-92602570D01*
X153701252Y-92578743D01*
X153987184Y-92292811D01*
X153987184Y-92602570D01*
X153288684Y-91069741D02*
X153288684Y-90783809D01*
X153288684Y-90926775D02*
X152788304Y-90926775D01*
X152859787Y-90879120D01*
X152907442Y-90831465D01*
X152931270Y-90783809D01*
X152788304Y-91379500D02*
X152788304Y-91427155D01*
X152812132Y-91474810D01*
X152835959Y-91498638D01*
X152883614Y-91522466D01*
X152978925Y-91546293D01*
X153098063Y-91546293D01*
X153193373Y-91522466D01*
X153241029Y-91498638D01*
X153264856Y-91474810D01*
X153288684Y-91427155D01*
X153288684Y-91379500D01*
X153264856Y-91331845D01*
X153241029Y-91308017D01*
X153193373Y-91284189D01*
X153098063Y-91260362D01*
X152978925Y-91260362D01*
X152883614Y-91284189D01*
X152835959Y-91308017D01*
X152812132Y-91331845D01*
X152788304Y-91379500D01*
X152788304Y-91856052D02*
X152788304Y-91903708D01*
X152812132Y-91951363D01*
X152835959Y-91975190D01*
X152883614Y-91999018D01*
X152978925Y-92022846D01*
X153098063Y-92022846D01*
X153193373Y-91999018D01*
X153241029Y-91975190D01*
X153264856Y-91951363D01*
X153288684Y-91903708D01*
X153288684Y-91856052D01*
X153264856Y-91808397D01*
X153241029Y-91784569D01*
X153193373Y-91760742D01*
X153098063Y-91736914D01*
X152978925Y-91736914D01*
X152883614Y-91760742D01*
X152835959Y-91784569D01*
X152812132Y-91808397D01*
X152788304Y-91856052D01*
X152955097Y-92237294D02*
X153288684Y-92237294D01*
X153002752Y-92237294D02*
X152978925Y-92261122D01*
X152955097Y-92308777D01*
X152955097Y-92380260D01*
X152978925Y-92427915D01*
X153026580Y-92451743D01*
X153288684Y-92451743D01*
X153026580Y-92856812D02*
X153026580Y-92690019D01*
X153288684Y-92690019D02*
X152788304Y-92690019D01*
X152788304Y-92928295D01*
%TO.C,C13*%
X151653529Y-83521466D02*
X151677356Y-83497638D01*
X151701184Y-83426155D01*
X151701184Y-83378500D01*
X151677356Y-83307017D01*
X151629701Y-83259362D01*
X151582046Y-83235534D01*
X151486735Y-83211707D01*
X151415252Y-83211707D01*
X151319942Y-83235534D01*
X151272287Y-83259362D01*
X151224632Y-83307017D01*
X151200804Y-83378500D01*
X151200804Y-83426155D01*
X151224632Y-83497638D01*
X151248459Y-83521466D01*
X151701184Y-83998018D02*
X151701184Y-83712087D01*
X151701184Y-83855052D02*
X151200804Y-83855052D01*
X151272287Y-83807397D01*
X151319942Y-83759742D01*
X151343770Y-83712087D01*
X151200804Y-84164811D02*
X151200804Y-84474570D01*
X151391425Y-84307777D01*
X151391425Y-84379260D01*
X151415252Y-84426915D01*
X151439080Y-84450743D01*
X151486735Y-84474570D01*
X151605873Y-84474570D01*
X151653529Y-84450743D01*
X151677356Y-84426915D01*
X151701184Y-84379260D01*
X151701184Y-84236294D01*
X151677356Y-84188639D01*
X151653529Y-84164811D01*
X151002684Y-82941741D02*
X151002684Y-82655809D01*
X151002684Y-82798775D02*
X150502304Y-82798775D01*
X150573787Y-82751120D01*
X150621442Y-82703465D01*
X150645270Y-82655809D01*
X150502304Y-83251500D02*
X150502304Y-83299155D01*
X150526132Y-83346810D01*
X150549959Y-83370638D01*
X150597614Y-83394466D01*
X150692925Y-83418293D01*
X150812063Y-83418293D01*
X150907373Y-83394466D01*
X150955029Y-83370638D01*
X150978856Y-83346810D01*
X151002684Y-83299155D01*
X151002684Y-83251500D01*
X150978856Y-83203845D01*
X150955029Y-83180017D01*
X150907373Y-83156189D01*
X150812063Y-83132362D01*
X150692925Y-83132362D01*
X150597614Y-83156189D01*
X150549959Y-83180017D01*
X150526132Y-83203845D01*
X150502304Y-83251500D01*
X150502304Y-83728052D02*
X150502304Y-83775708D01*
X150526132Y-83823363D01*
X150549959Y-83847190D01*
X150597614Y-83871018D01*
X150692925Y-83894846D01*
X150812063Y-83894846D01*
X150907373Y-83871018D01*
X150955029Y-83847190D01*
X150978856Y-83823363D01*
X151002684Y-83775708D01*
X151002684Y-83728052D01*
X150978856Y-83680397D01*
X150955029Y-83656569D01*
X150907373Y-83632742D01*
X150812063Y-83608914D01*
X150692925Y-83608914D01*
X150597614Y-83632742D01*
X150549959Y-83656569D01*
X150526132Y-83680397D01*
X150502304Y-83728052D01*
X150669097Y-84109294D02*
X151002684Y-84109294D01*
X150716752Y-84109294D02*
X150692925Y-84133122D01*
X150669097Y-84180777D01*
X150669097Y-84252260D01*
X150692925Y-84299915D01*
X150740580Y-84323743D01*
X151002684Y-84323743D01*
X150740580Y-84728812D02*
X150740580Y-84562019D01*
X151002684Y-84562019D02*
X150502304Y-84562019D01*
X150502304Y-84800295D01*
%TO.C,C14*%
X158257529Y-99650466D02*
X158281356Y-99626638D01*
X158305184Y-99555155D01*
X158305184Y-99507500D01*
X158281356Y-99436017D01*
X158233701Y-99388362D01*
X158186046Y-99364534D01*
X158090735Y-99340707D01*
X158019252Y-99340707D01*
X157923942Y-99364534D01*
X157876287Y-99388362D01*
X157828632Y-99436017D01*
X157804804Y-99507500D01*
X157804804Y-99555155D01*
X157828632Y-99626638D01*
X157852459Y-99650466D01*
X158305184Y-100127018D02*
X158305184Y-99841087D01*
X158305184Y-99984052D02*
X157804804Y-99984052D01*
X157876287Y-99936397D01*
X157923942Y-99888742D01*
X157947770Y-99841087D01*
X157971597Y-100555915D02*
X158305184Y-100555915D01*
X157780976Y-100436777D02*
X158138391Y-100317639D01*
X158138391Y-100627398D01*
X159003684Y-99324741D02*
X159003684Y-99038809D01*
X159003684Y-99181775D02*
X158503304Y-99181775D01*
X158574787Y-99134120D01*
X158622442Y-99086465D01*
X158646270Y-99038809D01*
X158503304Y-99634500D02*
X158503304Y-99682155D01*
X158527132Y-99729810D01*
X158550959Y-99753638D01*
X158598614Y-99777466D01*
X158693925Y-99801293D01*
X158813063Y-99801293D01*
X158908373Y-99777466D01*
X158956029Y-99753638D01*
X158979856Y-99729810D01*
X159003684Y-99682155D01*
X159003684Y-99634500D01*
X158979856Y-99586845D01*
X158956029Y-99563017D01*
X158908373Y-99539189D01*
X158813063Y-99515362D01*
X158693925Y-99515362D01*
X158598614Y-99539189D01*
X158550959Y-99563017D01*
X158527132Y-99586845D01*
X158503304Y-99634500D01*
X158503304Y-100111052D02*
X158503304Y-100158708D01*
X158527132Y-100206363D01*
X158550959Y-100230190D01*
X158598614Y-100254018D01*
X158693925Y-100277846D01*
X158813063Y-100277846D01*
X158908373Y-100254018D01*
X158956029Y-100230190D01*
X158979856Y-100206363D01*
X159003684Y-100158708D01*
X159003684Y-100111052D01*
X158979856Y-100063397D01*
X158956029Y-100039569D01*
X158908373Y-100015742D01*
X158813063Y-99991914D01*
X158693925Y-99991914D01*
X158598614Y-100015742D01*
X158550959Y-100039569D01*
X158527132Y-100063397D01*
X158503304Y-100111052D01*
X158670097Y-100492294D02*
X159003684Y-100492294D01*
X158717752Y-100492294D02*
X158693925Y-100516122D01*
X158670097Y-100563777D01*
X158670097Y-100635260D01*
X158693925Y-100682915D01*
X158741580Y-100706743D01*
X159003684Y-100706743D01*
X158741580Y-101111812D02*
X158741580Y-100945019D01*
X159003684Y-100945019D02*
X158503304Y-100945019D01*
X158503304Y-101183295D01*
%TO.C,C15*%
X136413529Y-89172966D02*
X136437356Y-89149138D01*
X136461184Y-89077655D01*
X136461184Y-89030000D01*
X136437356Y-88958517D01*
X136389701Y-88910862D01*
X136342046Y-88887034D01*
X136246735Y-88863207D01*
X136175252Y-88863207D01*
X136079942Y-88887034D01*
X136032287Y-88910862D01*
X135984632Y-88958517D01*
X135960804Y-89030000D01*
X135960804Y-89077655D01*
X135984632Y-89149138D01*
X136008459Y-89172966D01*
X136461184Y-89649518D02*
X136461184Y-89363587D01*
X136461184Y-89506552D02*
X135960804Y-89506552D01*
X136032287Y-89458897D01*
X136079942Y-89411242D01*
X136103770Y-89363587D01*
X135960804Y-90102243D02*
X135960804Y-89863967D01*
X136199080Y-89840139D01*
X136175252Y-89863967D01*
X136151425Y-89911622D01*
X136151425Y-90030760D01*
X136175252Y-90078415D01*
X136199080Y-90102243D01*
X136246735Y-90126070D01*
X136365873Y-90126070D01*
X136413529Y-90102243D01*
X136437356Y-90078415D01*
X136461184Y-90030760D01*
X136461184Y-89911622D01*
X136437356Y-89863967D01*
X136413529Y-89840139D01*
X135262304Y-88736207D02*
X135262304Y-89045966D01*
X135452925Y-88879172D01*
X135452925Y-88950655D01*
X135476752Y-88998310D01*
X135500580Y-89022138D01*
X135548235Y-89045966D01*
X135667373Y-89045966D01*
X135715029Y-89022138D01*
X135738856Y-88998310D01*
X135762684Y-88950655D01*
X135762684Y-88807689D01*
X135738856Y-88760034D01*
X135715029Y-88736207D01*
X135429097Y-89260414D02*
X135762684Y-89260414D01*
X135476752Y-89260414D02*
X135452925Y-89284242D01*
X135429097Y-89331897D01*
X135429097Y-89403380D01*
X135452925Y-89451035D01*
X135500580Y-89474863D01*
X135762684Y-89474863D01*
X135262304Y-89665484D02*
X135262304Y-89975243D01*
X135452925Y-89808449D01*
X135452925Y-89879932D01*
X135476752Y-89927588D01*
X135500580Y-89951415D01*
X135548235Y-89975243D01*
X135667373Y-89975243D01*
X135715029Y-89951415D01*
X135738856Y-89927588D01*
X135762684Y-89879932D01*
X135762684Y-89736967D01*
X135738856Y-89689311D01*
X135715029Y-89665484D01*
%TO.C,C16*%
X138318529Y-89045966D02*
X138342356Y-89022138D01*
X138366184Y-88950655D01*
X138366184Y-88903000D01*
X138342356Y-88831517D01*
X138294701Y-88783862D01*
X138247046Y-88760034D01*
X138151735Y-88736207D01*
X138080252Y-88736207D01*
X137984942Y-88760034D01*
X137937287Y-88783862D01*
X137889632Y-88831517D01*
X137865804Y-88903000D01*
X137865804Y-88950655D01*
X137889632Y-89022138D01*
X137913459Y-89045966D01*
X138366184Y-89522518D02*
X138366184Y-89236587D01*
X138366184Y-89379552D02*
X137865804Y-89379552D01*
X137937287Y-89331897D01*
X137984942Y-89284242D01*
X138008770Y-89236587D01*
X137865804Y-89951415D02*
X137865804Y-89856105D01*
X137889632Y-89808449D01*
X137913459Y-89784622D01*
X137984942Y-89736967D01*
X138080252Y-89713139D01*
X138270873Y-89713139D01*
X138318529Y-89736967D01*
X138342356Y-89760794D01*
X138366184Y-89808449D01*
X138366184Y-89903760D01*
X138342356Y-89951415D01*
X138318529Y-89975243D01*
X138270873Y-89999070D01*
X138151735Y-89999070D01*
X138104080Y-89975243D01*
X138080252Y-89951415D01*
X138056425Y-89903760D01*
X138056425Y-89808449D01*
X138080252Y-89760794D01*
X138104080Y-89736967D01*
X138151735Y-89713139D01*
X139064684Y-88720241D02*
X139064684Y-88434309D01*
X139064684Y-88577275D02*
X138564304Y-88577275D01*
X138635787Y-88529620D01*
X138683442Y-88481965D01*
X138707270Y-88434309D01*
X138564304Y-89030000D02*
X138564304Y-89077655D01*
X138588132Y-89125310D01*
X138611959Y-89149138D01*
X138659614Y-89172966D01*
X138754925Y-89196793D01*
X138874063Y-89196793D01*
X138969373Y-89172966D01*
X139017029Y-89149138D01*
X139040856Y-89125310D01*
X139064684Y-89077655D01*
X139064684Y-89030000D01*
X139040856Y-88982345D01*
X139017029Y-88958517D01*
X138969373Y-88934689D01*
X138874063Y-88910862D01*
X138754925Y-88910862D01*
X138659614Y-88934689D01*
X138611959Y-88958517D01*
X138588132Y-88982345D01*
X138564304Y-89030000D01*
X138564304Y-89506552D02*
X138564304Y-89554208D01*
X138588132Y-89601863D01*
X138611959Y-89625690D01*
X138659614Y-89649518D01*
X138754925Y-89673346D01*
X138874063Y-89673346D01*
X138969373Y-89649518D01*
X139017029Y-89625690D01*
X139040856Y-89601863D01*
X139064684Y-89554208D01*
X139064684Y-89506552D01*
X139040856Y-89458897D01*
X139017029Y-89435069D01*
X138969373Y-89411242D01*
X138874063Y-89387414D01*
X138754925Y-89387414D01*
X138659614Y-89411242D01*
X138611959Y-89435069D01*
X138588132Y-89458897D01*
X138564304Y-89506552D01*
X138731097Y-89887794D02*
X139064684Y-89887794D01*
X138778752Y-89887794D02*
X138754925Y-89911622D01*
X138731097Y-89959277D01*
X138731097Y-90030760D01*
X138754925Y-90078415D01*
X138802580Y-90102243D01*
X139064684Y-90102243D01*
X138802580Y-90507312D02*
X138802580Y-90340519D01*
X139064684Y-90340519D02*
X138564304Y-90340519D01*
X138564304Y-90578795D01*
%TO.C,C17*%
X143525529Y-88220466D02*
X143549356Y-88196638D01*
X143573184Y-88125155D01*
X143573184Y-88077500D01*
X143549356Y-88006017D01*
X143501701Y-87958362D01*
X143454046Y-87934534D01*
X143358735Y-87910707D01*
X143287252Y-87910707D01*
X143191942Y-87934534D01*
X143144287Y-87958362D01*
X143096632Y-88006017D01*
X143072804Y-88077500D01*
X143072804Y-88125155D01*
X143096632Y-88196638D01*
X143120459Y-88220466D01*
X143573184Y-88697018D02*
X143573184Y-88411087D01*
X143573184Y-88554052D02*
X143072804Y-88554052D01*
X143144287Y-88506397D01*
X143191942Y-88458742D01*
X143215770Y-88411087D01*
X143072804Y-88863811D02*
X143072804Y-89197398D01*
X143573184Y-88982949D01*
X142541097Y-88045810D02*
X142874684Y-88045810D01*
X142350476Y-87926672D02*
X142707891Y-87807534D01*
X142707891Y-88117293D01*
X142541097Y-88522363D02*
X142874684Y-88522363D01*
X142541097Y-88307914D02*
X142803201Y-88307914D01*
X142850856Y-88331742D01*
X142874684Y-88379397D01*
X142874684Y-88450880D01*
X142850856Y-88498535D01*
X142827029Y-88522363D01*
X142374304Y-88712984D02*
X142374304Y-89046570D01*
X142874684Y-88832122D01*
%TO.C,C18*%
X143271529Y-92728966D02*
X143295356Y-92705138D01*
X143319184Y-92633655D01*
X143319184Y-92586000D01*
X143295356Y-92514517D01*
X143247701Y-92466862D01*
X143200046Y-92443034D01*
X143104735Y-92419207D01*
X143033252Y-92419207D01*
X142937942Y-92443034D01*
X142890287Y-92466862D01*
X142842632Y-92514517D01*
X142818804Y-92586000D01*
X142818804Y-92633655D01*
X142842632Y-92705138D01*
X142866459Y-92728966D01*
X143319184Y-93205518D02*
X143319184Y-92919587D01*
X143319184Y-93062552D02*
X142818804Y-93062552D01*
X142890287Y-93014897D01*
X142937942Y-92967242D01*
X142961770Y-92919587D01*
X143033252Y-93491449D02*
X143009425Y-93443794D01*
X142985597Y-93419967D01*
X142937942Y-93396139D01*
X142914114Y-93396139D01*
X142866459Y-93419967D01*
X142842632Y-93443794D01*
X142818804Y-93491449D01*
X142818804Y-93586760D01*
X142842632Y-93634415D01*
X142866459Y-93658243D01*
X142914114Y-93682070D01*
X142937942Y-93682070D01*
X142985597Y-93658243D01*
X143009425Y-93634415D01*
X143033252Y-93586760D01*
X143033252Y-93491449D01*
X143057080Y-93443794D01*
X143080908Y-93419967D01*
X143128563Y-93396139D01*
X143223873Y-93396139D01*
X143271529Y-93419967D01*
X143295356Y-93443794D01*
X143319184Y-93491449D01*
X143319184Y-93586760D01*
X143295356Y-93634415D01*
X143271529Y-93658243D01*
X143223873Y-93682070D01*
X143128563Y-93682070D01*
X143080908Y-93658243D01*
X143057080Y-93634415D01*
X143033252Y-93586760D01*
X142167959Y-92316034D02*
X142144132Y-92339862D01*
X142120304Y-92387517D01*
X142120304Y-92506655D01*
X142144132Y-92554310D01*
X142167959Y-92578138D01*
X142215614Y-92601966D01*
X142263270Y-92601966D01*
X142334752Y-92578138D01*
X142620684Y-92292207D01*
X142620684Y-92601966D01*
X142287097Y-92816414D02*
X142620684Y-92816414D01*
X142334752Y-92816414D02*
X142310925Y-92840242D01*
X142287097Y-92887897D01*
X142287097Y-92959380D01*
X142310925Y-93007035D01*
X142358580Y-93030863D01*
X142620684Y-93030863D01*
X142167959Y-93245311D02*
X142144132Y-93269139D01*
X142120304Y-93316794D01*
X142120304Y-93435932D01*
X142144132Y-93483588D01*
X142167959Y-93507415D01*
X142215614Y-93531243D01*
X142263270Y-93531243D01*
X142334752Y-93507415D01*
X142620684Y-93221484D01*
X142620684Y-93531243D01*
%TO.C,C19*%
X153939529Y-87839466D02*
X153963356Y-87815638D01*
X153987184Y-87744155D01*
X153987184Y-87696500D01*
X153963356Y-87625017D01*
X153915701Y-87577362D01*
X153868046Y-87553534D01*
X153772735Y-87529707D01*
X153701252Y-87529707D01*
X153605942Y-87553534D01*
X153558287Y-87577362D01*
X153510632Y-87625017D01*
X153486804Y-87696500D01*
X153486804Y-87744155D01*
X153510632Y-87815638D01*
X153534459Y-87839466D01*
X153987184Y-88316018D02*
X153987184Y-88030087D01*
X153987184Y-88173052D02*
X153486804Y-88173052D01*
X153558287Y-88125397D01*
X153605942Y-88077742D01*
X153629770Y-88030087D01*
X153987184Y-88554294D02*
X153987184Y-88649605D01*
X153963356Y-88697260D01*
X153939529Y-88721088D01*
X153868046Y-88768743D01*
X153772735Y-88792570D01*
X153582114Y-88792570D01*
X153534459Y-88768743D01*
X153510632Y-88744915D01*
X153486804Y-88697260D01*
X153486804Y-88601949D01*
X153510632Y-88554294D01*
X153534459Y-88530467D01*
X153582114Y-88506639D01*
X153701252Y-88506639D01*
X153748908Y-88530467D01*
X153772735Y-88554294D01*
X153796563Y-88601949D01*
X153796563Y-88697260D01*
X153772735Y-88744915D01*
X153748908Y-88768743D01*
X153701252Y-88792570D01*
X153288684Y-86723619D02*
X153288684Y-86437688D01*
X153288684Y-86580654D02*
X152788304Y-86580654D01*
X152859787Y-86532999D01*
X152907442Y-86485343D01*
X152931270Y-86437688D01*
X152955097Y-86938068D02*
X153288684Y-86938068D01*
X153002752Y-86938068D02*
X152978925Y-86961896D01*
X152955097Y-87009551D01*
X152955097Y-87081034D01*
X152978925Y-87128689D01*
X153026580Y-87152517D01*
X153288684Y-87152517D01*
X153026580Y-87557586D02*
X153026580Y-87390793D01*
X153288684Y-87390793D02*
X152788304Y-87390793D01*
X152788304Y-87629069D01*
X152764476Y-88177104D02*
X153407822Y-87748207D01*
X153288684Y-88343898D02*
X152788304Y-88343898D01*
X153288684Y-88629829D01*
X152788304Y-88629829D01*
X153288684Y-88868105D02*
X152788304Y-88868105D01*
X152788304Y-89058726D01*
X152812132Y-89106381D01*
X152835959Y-89130209D01*
X152883614Y-89154037D01*
X152955097Y-89154037D01*
X153002752Y-89130209D01*
X153026580Y-89106381D01*
X153050408Y-89058726D01*
X153050408Y-88868105D01*
X152788304Y-89463796D02*
X152788304Y-89511451D01*
X152812132Y-89559106D01*
X152835959Y-89582934D01*
X152883614Y-89606761D01*
X152978925Y-89630589D01*
X153098063Y-89630589D01*
X153193373Y-89606761D01*
X153241029Y-89582934D01*
X153264856Y-89559106D01*
X153288684Y-89511451D01*
X153288684Y-89463796D01*
X153264856Y-89416140D01*
X153241029Y-89392313D01*
X153193373Y-89368485D01*
X153098063Y-89344658D01*
X152978925Y-89344658D01*
X152883614Y-89368485D01*
X152835959Y-89392313D01*
X152812132Y-89416140D01*
X152788304Y-89463796D01*
D12*
%TO.C,D1*%
X153171179Y-103836567D02*
X153171179Y-102312567D01*
X152808322Y-102312567D01*
X152590607Y-102385139D01*
X152445464Y-102530281D01*
X152372893Y-102675424D01*
X152300322Y-102965710D01*
X152300322Y-103183424D01*
X152372893Y-103473710D01*
X152445464Y-103618853D01*
X152590607Y-103763996D01*
X152808322Y-103836567D01*
X153171179Y-103836567D01*
X150848893Y-103836567D02*
X151719750Y-103836567D01*
X151284322Y-103836567D02*
X151284322Y-102312567D01*
X151429464Y-102530281D01*
X151574607Y-102675424D01*
X151719750Y-102747996D01*
D13*
X155464920Y-104830735D02*
X155226643Y-104830735D01*
X155512575Y-104973701D02*
X155345782Y-104473321D01*
X155178988Y-104973701D01*
X149177633Y-105072761D02*
X149177633Y-104572381D01*
X148891702Y-105072761D02*
X149106151Y-104786829D01*
X148891702Y-104572381D02*
X149177633Y-104858312D01*
D10*
%TO.C,R3*%
X151320184Y-96078742D02*
X151081908Y-95911949D01*
X151320184Y-95792810D02*
X150819804Y-95792810D01*
X150819804Y-95983431D01*
X150843632Y-96031087D01*
X150867459Y-96054914D01*
X150915114Y-96078742D01*
X150986597Y-96078742D01*
X151034252Y-96054914D01*
X151058080Y-96031087D01*
X151081908Y-95983431D01*
X151081908Y-95792810D01*
X150819804Y-96245535D02*
X150819804Y-96555294D01*
X151010425Y-96388501D01*
X151010425Y-96459984D01*
X151034252Y-96507639D01*
X151058080Y-96531467D01*
X151105735Y-96555294D01*
X151224873Y-96555294D01*
X151272529Y-96531467D01*
X151296356Y-96507639D01*
X151320184Y-96459984D01*
X151320184Y-96317018D01*
X151296356Y-96269363D01*
X151272529Y-96245535D01*
X152018684Y-95955552D02*
X152018684Y-95669620D01*
X152018684Y-95812586D02*
X151518304Y-95812586D01*
X151589787Y-95764931D01*
X151637442Y-95717276D01*
X151661270Y-95669620D01*
X151518304Y-96265311D02*
X151518304Y-96312966D01*
X151542132Y-96360621D01*
X151565959Y-96384449D01*
X151613614Y-96408277D01*
X151708925Y-96432104D01*
X151828063Y-96432104D01*
X151923373Y-96408277D01*
X151971029Y-96384449D01*
X151994856Y-96360621D01*
X152018684Y-96312966D01*
X152018684Y-96265311D01*
X151994856Y-96217656D01*
X151971029Y-96193828D01*
X151923373Y-96170000D01*
X151828063Y-96146173D01*
X151708925Y-96146173D01*
X151613614Y-96170000D01*
X151565959Y-96193828D01*
X151542132Y-96217656D01*
X151518304Y-96265311D01*
X151518304Y-96741863D02*
X151518304Y-96789519D01*
X151542132Y-96837174D01*
X151565959Y-96861001D01*
X151613614Y-96884829D01*
X151708925Y-96908657D01*
X151828063Y-96908657D01*
X151923373Y-96884829D01*
X151971029Y-96861001D01*
X151994856Y-96837174D01*
X152018684Y-96789519D01*
X152018684Y-96741863D01*
X151994856Y-96694208D01*
X151971029Y-96670380D01*
X151923373Y-96646553D01*
X151828063Y-96622725D01*
X151708925Y-96622725D01*
X151613614Y-96646553D01*
X151565959Y-96670380D01*
X151542132Y-96694208D01*
X151518304Y-96741863D01*
%TO.C,R4*%
X147129184Y-83759742D02*
X146890908Y-83592949D01*
X147129184Y-83473810D02*
X146628804Y-83473810D01*
X146628804Y-83664431D01*
X146652632Y-83712087D01*
X146676459Y-83735914D01*
X146724114Y-83759742D01*
X146795597Y-83759742D01*
X146843252Y-83735914D01*
X146867080Y-83712087D01*
X146890908Y-83664431D01*
X146890908Y-83473810D01*
X146795597Y-84188639D02*
X147129184Y-84188639D01*
X146604976Y-84069501D02*
X146962391Y-83950363D01*
X146962391Y-84260122D01*
X146430684Y-83382552D02*
X146430684Y-83096620D01*
X146430684Y-83239586D02*
X145930304Y-83239586D01*
X146001787Y-83191931D01*
X146049442Y-83144276D01*
X146073270Y-83096620D01*
X145930304Y-83692311D02*
X145930304Y-83739966D01*
X145954132Y-83787621D01*
X145977959Y-83811449D01*
X146025614Y-83835277D01*
X146120925Y-83859104D01*
X146240063Y-83859104D01*
X146335373Y-83835277D01*
X146383029Y-83811449D01*
X146406856Y-83787621D01*
X146430684Y-83739966D01*
X146430684Y-83692311D01*
X146406856Y-83644656D01*
X146383029Y-83620828D01*
X146335373Y-83597000D01*
X146240063Y-83573173D01*
X146120925Y-83573173D01*
X146025614Y-83597000D01*
X145977959Y-83620828D01*
X145954132Y-83644656D01*
X145930304Y-83692311D01*
X145930304Y-84168863D02*
X145930304Y-84216519D01*
X145954132Y-84264174D01*
X145977959Y-84288001D01*
X146025614Y-84311829D01*
X146120925Y-84335657D01*
X146240063Y-84335657D01*
X146335373Y-84311829D01*
X146383029Y-84288001D01*
X146406856Y-84264174D01*
X146430684Y-84216519D01*
X146430684Y-84168863D01*
X146406856Y-84121208D01*
X146383029Y-84097380D01*
X146335373Y-84073553D01*
X146240063Y-84049725D01*
X146120925Y-84049725D01*
X146025614Y-84073553D01*
X145977959Y-84097380D01*
X145954132Y-84121208D01*
X145930304Y-84168863D01*
%TO.C,R5*%
X152764718Y-99246001D02*
X152931512Y-99007725D01*
X153050650Y-99246001D02*
X153050650Y-98745621D01*
X152860029Y-98745621D01*
X152812373Y-98769449D01*
X152788546Y-98793276D01*
X152764718Y-98840931D01*
X152764718Y-98912414D01*
X152788546Y-98960069D01*
X152812373Y-98983897D01*
X152860029Y-99007725D01*
X153050650Y-99007725D01*
X152311993Y-98745621D02*
X152550270Y-98745621D01*
X152574097Y-98983897D01*
X152550270Y-98960069D01*
X152502614Y-98936242D01*
X152383476Y-98936242D01*
X152335821Y-98960069D01*
X152311993Y-98983897D01*
X152288166Y-99031552D01*
X152288166Y-99150690D01*
X152311993Y-99198346D01*
X152335821Y-99222173D01*
X152383476Y-99246001D01*
X152502614Y-99246001D01*
X152550270Y-99222173D01*
X152574097Y-99198346D01*
X152887908Y-99944501D02*
X153173840Y-99944501D01*
X153030874Y-99944501D02*
X153030874Y-99444121D01*
X153078529Y-99515604D01*
X153126184Y-99563259D01*
X153173840Y-99587087D01*
X152578149Y-99444121D02*
X152530494Y-99444121D01*
X152482839Y-99467949D01*
X152459011Y-99491776D01*
X152435183Y-99539431D01*
X152411356Y-99634742D01*
X152411356Y-99753880D01*
X152435183Y-99849190D01*
X152459011Y-99896846D01*
X152482839Y-99920673D01*
X152530494Y-99944501D01*
X152578149Y-99944501D01*
X152625804Y-99920673D01*
X152649632Y-99896846D01*
X152673460Y-99849190D01*
X152697287Y-99753880D01*
X152697287Y-99634742D01*
X152673460Y-99539431D01*
X152649632Y-99491776D01*
X152625804Y-99467949D01*
X152578149Y-99444121D01*
X152101597Y-99444121D02*
X152053942Y-99444121D01*
X152006286Y-99467949D01*
X151982459Y-99491776D01*
X151958631Y-99539431D01*
X151934803Y-99634742D01*
X151934803Y-99753880D01*
X151958631Y-99849190D01*
X151982459Y-99896846D01*
X152006286Y-99920673D01*
X152053942Y-99944501D01*
X152101597Y-99944501D01*
X152149252Y-99920673D01*
X152173080Y-99896846D01*
X152196907Y-99849190D01*
X152220735Y-99753880D01*
X152220735Y-99634742D01*
X152196907Y-99539431D01*
X152173080Y-99491776D01*
X152149252Y-99467949D01*
X152101597Y-99444121D01*
%TO.C,R6*%
X122602218Y-95436001D02*
X122769012Y-95197725D01*
X122888150Y-95436001D02*
X122888150Y-94935621D01*
X122697529Y-94935621D01*
X122649873Y-94959449D01*
X122626046Y-94983276D01*
X122602218Y-95030931D01*
X122602218Y-95102414D01*
X122626046Y-95150069D01*
X122649873Y-95173897D01*
X122697529Y-95197725D01*
X122888150Y-95197725D01*
X122173321Y-94935621D02*
X122268632Y-94935621D01*
X122316287Y-94959449D01*
X122340114Y-94983276D01*
X122387770Y-95054759D01*
X122411597Y-95150069D01*
X122411597Y-95340690D01*
X122387770Y-95388346D01*
X122363942Y-95412173D01*
X122316287Y-95436001D01*
X122220976Y-95436001D01*
X122173321Y-95412173D01*
X122149493Y-95388346D01*
X122125666Y-95340690D01*
X122125666Y-95221552D01*
X122149493Y-95173897D01*
X122173321Y-95150069D01*
X122220976Y-95126242D01*
X122316287Y-95126242D01*
X122363942Y-95150069D01*
X122387770Y-95173897D01*
X122411597Y-95221552D01*
X122773063Y-96134501D02*
X123058995Y-96134501D01*
X122916029Y-96134501D02*
X122916029Y-95634121D01*
X122963684Y-95705604D01*
X123011340Y-95753259D01*
X123058995Y-95777087D01*
X122463304Y-95634121D02*
X122415649Y-95634121D01*
X122367994Y-95657949D01*
X122344166Y-95681776D01*
X122320339Y-95729431D01*
X122296511Y-95824742D01*
X122296511Y-95943880D01*
X122320339Y-96039190D01*
X122344166Y-96086846D01*
X122367994Y-96110673D01*
X122415649Y-96134501D01*
X122463304Y-96134501D01*
X122510960Y-96110673D01*
X122534787Y-96086846D01*
X122558615Y-96039190D01*
X122582442Y-95943880D01*
X122582442Y-95824742D01*
X122558615Y-95729431D01*
X122534787Y-95681776D01*
X122510960Y-95657949D01*
X122463304Y-95634121D01*
X122082062Y-96134501D02*
X122082062Y-95634121D01*
X121915269Y-95991535D01*
X121748476Y-95634121D01*
X121748476Y-96134501D01*
%TO.C,R7*%
X131000184Y-85918742D02*
X130761908Y-85751949D01*
X131000184Y-85632810D02*
X130499804Y-85632810D01*
X130499804Y-85823431D01*
X130523632Y-85871087D01*
X130547459Y-85894914D01*
X130595114Y-85918742D01*
X130666597Y-85918742D01*
X130714252Y-85894914D01*
X130738080Y-85871087D01*
X130761908Y-85823431D01*
X130761908Y-85632810D01*
X130499804Y-86085535D02*
X130499804Y-86419122D01*
X131000184Y-86204673D01*
X131698684Y-85831293D02*
X131698684Y-85545362D01*
X131698684Y-85688328D02*
X131198304Y-85688328D01*
X131269787Y-85640672D01*
X131317442Y-85593017D01*
X131341270Y-85545362D01*
X131198304Y-86141052D02*
X131198304Y-86188708D01*
X131222132Y-86236363D01*
X131245959Y-86260190D01*
X131293614Y-86284018D01*
X131388925Y-86307846D01*
X131508063Y-86307846D01*
X131603373Y-86284018D01*
X131651029Y-86260190D01*
X131674856Y-86236363D01*
X131698684Y-86188708D01*
X131698684Y-86141052D01*
X131674856Y-86093397D01*
X131651029Y-86069569D01*
X131603373Y-86045742D01*
X131508063Y-86021914D01*
X131388925Y-86021914D01*
X131293614Y-86045742D01*
X131245959Y-86069569D01*
X131222132Y-86093397D01*
X131198304Y-86141052D01*
X131698684Y-86522294D02*
X131198304Y-86522294D01*
X131508063Y-86569949D02*
X131698684Y-86712915D01*
X131365097Y-86712915D02*
X131555718Y-86522294D01*
%TO.C,R8*%
X134175184Y-85855242D02*
X133936908Y-85688449D01*
X134175184Y-85569310D02*
X133674804Y-85569310D01*
X133674804Y-85759931D01*
X133698632Y-85807587D01*
X133722459Y-85831414D01*
X133770114Y-85855242D01*
X133841597Y-85855242D01*
X133889252Y-85831414D01*
X133913080Y-85807587D01*
X133936908Y-85759931D01*
X133936908Y-85569310D01*
X133889252Y-86141173D02*
X133865425Y-86093518D01*
X133841597Y-86069690D01*
X133793942Y-86045863D01*
X133770114Y-86045863D01*
X133722459Y-86069690D01*
X133698632Y-86093518D01*
X133674804Y-86141173D01*
X133674804Y-86236484D01*
X133698632Y-86284139D01*
X133722459Y-86307967D01*
X133770114Y-86331794D01*
X133793942Y-86331794D01*
X133841597Y-86307967D01*
X133865425Y-86284139D01*
X133889252Y-86236484D01*
X133889252Y-86141173D01*
X133913080Y-86093518D01*
X133936908Y-86069690D01*
X133984563Y-86045863D01*
X134079873Y-86045863D01*
X134127529Y-86069690D01*
X134151356Y-86093518D01*
X134175184Y-86141173D01*
X134175184Y-86236484D01*
X134151356Y-86284139D01*
X134127529Y-86307967D01*
X134079873Y-86331794D01*
X133984563Y-86331794D01*
X133936908Y-86307967D01*
X133913080Y-86284139D01*
X133889252Y-86236484D01*
X133476684Y-85752069D02*
X133476684Y-85466138D01*
X133476684Y-85609104D02*
X132976304Y-85609104D01*
X133047787Y-85561449D01*
X133095442Y-85513793D01*
X133119270Y-85466138D01*
X133476684Y-85966518D02*
X132976304Y-85966518D01*
X133286063Y-86014173D02*
X133476684Y-86157139D01*
X133143097Y-86157139D02*
X133333718Y-85966518D01*
%TO.C,R9*%
X134175184Y-89411242D02*
X133936908Y-89244449D01*
X134175184Y-89125310D02*
X133674804Y-89125310D01*
X133674804Y-89315931D01*
X133698632Y-89363587D01*
X133722459Y-89387414D01*
X133770114Y-89411242D01*
X133841597Y-89411242D01*
X133889252Y-89387414D01*
X133913080Y-89363587D01*
X133936908Y-89315931D01*
X133936908Y-89125310D01*
X134175184Y-89649518D02*
X134175184Y-89744829D01*
X134151356Y-89792484D01*
X134127529Y-89816311D01*
X134056046Y-89863967D01*
X133960735Y-89887794D01*
X133770114Y-89887794D01*
X133722459Y-89863967D01*
X133698632Y-89840139D01*
X133674804Y-89792484D01*
X133674804Y-89697173D01*
X133698632Y-89649518D01*
X133722459Y-89625690D01*
X133770114Y-89601863D01*
X133889252Y-89601863D01*
X133936908Y-89625690D01*
X133960735Y-89649518D01*
X133984563Y-89697173D01*
X133984563Y-89792484D01*
X133960735Y-89840139D01*
X133936908Y-89863967D01*
X133889252Y-89887794D01*
X133143097Y-89022138D02*
X133476684Y-89022138D01*
X132952476Y-88903000D02*
X133309891Y-88783862D01*
X133309891Y-89093621D01*
X133476684Y-89284242D02*
X132976304Y-89284242D01*
X133286063Y-89331897D02*
X133476684Y-89474863D01*
X133143097Y-89474863D02*
X133333718Y-89284242D01*
X132976304Y-89641656D02*
X132976304Y-89975243D01*
X133476684Y-89760794D01*
%TO.C,R10*%
X141033184Y-89045966D02*
X140794908Y-88879172D01*
X141033184Y-88760034D02*
X140532804Y-88760034D01*
X140532804Y-88950655D01*
X140556632Y-88998310D01*
X140580459Y-89022138D01*
X140628114Y-89045966D01*
X140699597Y-89045966D01*
X140747252Y-89022138D01*
X140771080Y-88998310D01*
X140794908Y-88950655D01*
X140794908Y-88760034D01*
X141033184Y-89522518D02*
X141033184Y-89236587D01*
X141033184Y-89379552D02*
X140532804Y-89379552D01*
X140604287Y-89331897D01*
X140651942Y-89284242D01*
X140675770Y-89236587D01*
X140532804Y-89832277D02*
X140532804Y-89879932D01*
X140556632Y-89927588D01*
X140580459Y-89951415D01*
X140628114Y-89975243D01*
X140723425Y-89999070D01*
X140842563Y-89999070D01*
X140937873Y-89975243D01*
X140985529Y-89951415D01*
X141009356Y-89927588D01*
X141033184Y-89879932D01*
X141033184Y-89832277D01*
X141009356Y-89784622D01*
X140985529Y-89760794D01*
X140937873Y-89736967D01*
X140842563Y-89713139D01*
X140723425Y-89713139D01*
X140628114Y-89736967D01*
X140580459Y-89760794D01*
X140556632Y-89784622D01*
X140532804Y-89832277D01*
X140334684Y-89181069D02*
X140334684Y-88895138D01*
X140334684Y-89038104D02*
X139834304Y-89038104D01*
X139905787Y-88990449D01*
X139953442Y-88942793D01*
X139977270Y-88895138D01*
X140334684Y-89395518D02*
X139834304Y-89395518D01*
X140144063Y-89443173D02*
X140334684Y-89586139D01*
X140001097Y-89586139D02*
X140191718Y-89395518D01*
%TO.C,R11*%
X141033184Y-92728966D02*
X140794908Y-92562172D01*
X141033184Y-92443034D02*
X140532804Y-92443034D01*
X140532804Y-92633655D01*
X140556632Y-92681310D01*
X140580459Y-92705138D01*
X140628114Y-92728966D01*
X140699597Y-92728966D01*
X140747252Y-92705138D01*
X140771080Y-92681310D01*
X140794908Y-92633655D01*
X140794908Y-92443034D01*
X141033184Y-93205518D02*
X141033184Y-92919587D01*
X141033184Y-93062552D02*
X140532804Y-93062552D01*
X140604287Y-93014897D01*
X140651942Y-92967242D01*
X140675770Y-92919587D01*
X141033184Y-93682070D02*
X141033184Y-93396139D01*
X141033184Y-93539105D02*
X140532804Y-93539105D01*
X140604287Y-93491449D01*
X140651942Y-93443794D01*
X140675770Y-93396139D01*
X140001097Y-92578138D02*
X140334684Y-92578138D01*
X139810476Y-92459000D02*
X140167891Y-92339862D01*
X140167891Y-92649621D01*
X140334684Y-92840242D02*
X139834304Y-92840242D01*
X140144063Y-92887897D02*
X140334684Y-93030863D01*
X140001097Y-93030863D02*
X140191718Y-92840242D01*
X139834304Y-93197656D02*
X139834304Y-93531243D01*
X140334684Y-93316794D01*
%TO.C,R12*%
X158940184Y-92030466D02*
X158701908Y-91863672D01*
X158940184Y-91744534D02*
X158439804Y-91744534D01*
X158439804Y-91935155D01*
X158463632Y-91982810D01*
X158487459Y-92006638D01*
X158535114Y-92030466D01*
X158606597Y-92030466D01*
X158654252Y-92006638D01*
X158678080Y-91982810D01*
X158701908Y-91935155D01*
X158701908Y-91744534D01*
X158940184Y-92507018D02*
X158940184Y-92221087D01*
X158940184Y-92364052D02*
X158439804Y-92364052D01*
X158511287Y-92316397D01*
X158558942Y-92268742D01*
X158582770Y-92221087D01*
X158487459Y-92697639D02*
X158463632Y-92721467D01*
X158439804Y-92769122D01*
X158439804Y-92888260D01*
X158463632Y-92935915D01*
X158487459Y-92959743D01*
X158535114Y-92983570D01*
X158582770Y-92983570D01*
X158654252Y-92959743D01*
X158940184Y-92673811D01*
X158940184Y-92983570D01*
X158241684Y-91927293D02*
X158241684Y-91641362D01*
X158241684Y-91784328D02*
X157741304Y-91784328D01*
X157812787Y-91736672D01*
X157860442Y-91689017D01*
X157884270Y-91641362D01*
X157741304Y-92237052D02*
X157741304Y-92284708D01*
X157765132Y-92332363D01*
X157788959Y-92356190D01*
X157836614Y-92380018D01*
X157931925Y-92403846D01*
X158051063Y-92403846D01*
X158146373Y-92380018D01*
X158194029Y-92356190D01*
X158217856Y-92332363D01*
X158241684Y-92284708D01*
X158241684Y-92237052D01*
X158217856Y-92189397D01*
X158194029Y-92165569D01*
X158146373Y-92141742D01*
X158051063Y-92117914D01*
X157931925Y-92117914D01*
X157836614Y-92141742D01*
X157788959Y-92165569D01*
X157765132Y-92189397D01*
X157741304Y-92237052D01*
X158241684Y-92618294D02*
X157741304Y-92618294D01*
X158051063Y-92665949D02*
X158241684Y-92808915D01*
X157908097Y-92808915D02*
X158098718Y-92618294D01*
%TO.C,R13*%
X156558994Y-89467001D02*
X156725788Y-89228725D01*
X156844926Y-89467001D02*
X156844926Y-88966621D01*
X156654305Y-88966621D01*
X156606650Y-88990449D01*
X156582822Y-89014276D01*
X156558994Y-89061931D01*
X156558994Y-89133414D01*
X156582822Y-89181069D01*
X156606650Y-89204897D01*
X156654305Y-89228725D01*
X156844926Y-89228725D01*
X156082442Y-89467001D02*
X156368373Y-89467001D01*
X156225408Y-89467001D02*
X156225408Y-88966621D01*
X156273063Y-89038104D01*
X156320718Y-89085759D01*
X156368373Y-89109587D01*
X155915649Y-88966621D02*
X155605890Y-88966621D01*
X155772683Y-89157242D01*
X155701200Y-89157242D01*
X155653545Y-89181069D01*
X155629717Y-89204897D01*
X155605890Y-89252552D01*
X155605890Y-89371690D01*
X155629717Y-89419346D01*
X155653545Y-89443173D01*
X155701200Y-89467001D01*
X155844166Y-89467001D01*
X155891821Y-89443173D01*
X155915649Y-89419346D01*
X156948098Y-88315776D02*
X156924271Y-88291949D01*
X156876615Y-88268121D01*
X156757477Y-88268121D01*
X156709822Y-88291949D01*
X156685994Y-88315776D01*
X156662167Y-88363431D01*
X156662167Y-88411087D01*
X156685994Y-88482569D01*
X156971926Y-88768501D01*
X156662167Y-88768501D01*
X156447718Y-88768501D02*
X156447718Y-88268121D01*
X156400063Y-88577880D02*
X156257097Y-88768501D01*
X156257097Y-88434914D02*
X156447718Y-88625535D01*
X156066476Y-88315776D02*
X156042649Y-88291949D01*
X155994993Y-88268121D01*
X155875855Y-88268121D01*
X155828200Y-88291949D01*
X155804372Y-88315776D01*
X155780545Y-88363431D01*
X155780545Y-88411087D01*
X155804372Y-88482569D01*
X156090304Y-88768501D01*
X155780545Y-88768501D01*
D11*
%TO.C,U1*%
X126773226Y-88629519D02*
X126773226Y-89439043D01*
X126725607Y-89534281D01*
X126677988Y-89581900D01*
X126582750Y-89629519D01*
X126392274Y-89629519D01*
X126297036Y-89581900D01*
X126249417Y-89534281D01*
X126201798Y-89439043D01*
X126201798Y-88629519D01*
X125201798Y-89629519D02*
X125773226Y-89629519D01*
X125487512Y-89629519D02*
X125487512Y-88629519D01*
X125582750Y-88772377D01*
X125677988Y-88867615D01*
X125773226Y-88915234D01*
%TO.C,U4*%
X153911702Y-82573234D02*
X154721226Y-82573234D01*
X154816464Y-82620853D01*
X154864083Y-82668472D01*
X154911702Y-82763710D01*
X154911702Y-82954186D01*
X154864083Y-83049424D01*
X154816464Y-83097043D01*
X154721226Y-83144662D01*
X153911702Y-83144662D01*
X154245036Y-84049424D02*
X154911702Y-84049424D01*
X153864083Y-83811329D02*
X154578369Y-83573234D01*
X154578369Y-84192281D01*
%TO.C,U5*%
X157888226Y-95614519D02*
X157888226Y-96424043D01*
X157840607Y-96519281D01*
X157792988Y-96566900D01*
X157697750Y-96614519D01*
X157507274Y-96614519D01*
X157412036Y-96566900D01*
X157364417Y-96519281D01*
X157316798Y-96424043D01*
X157316798Y-95614519D01*
X156364417Y-95614519D02*
X156840607Y-95614519D01*
X156888226Y-96090710D01*
X156840607Y-96043091D01*
X156745369Y-95995472D01*
X156507274Y-95995472D01*
X156412036Y-96043091D01*
X156364417Y-96090710D01*
X156316798Y-96185948D01*
X156316798Y-96424043D01*
X156364417Y-96519281D01*
X156412036Y-96566900D01*
X156507274Y-96614519D01*
X156745369Y-96614519D01*
X156840607Y-96566900D01*
X156888226Y-96519281D01*
D10*
%TO.C,R2*%
X131000184Y-91951242D02*
X130761908Y-91784449D01*
X131000184Y-91665310D02*
X130499804Y-91665310D01*
X130499804Y-91855931D01*
X130523632Y-91903587D01*
X130547459Y-91927414D01*
X130595114Y-91951242D01*
X130666597Y-91951242D01*
X130714252Y-91927414D01*
X130738080Y-91903587D01*
X130761908Y-91855931D01*
X130761908Y-91665310D01*
X130547459Y-92141863D02*
X130523632Y-92165690D01*
X130499804Y-92213346D01*
X130499804Y-92332484D01*
X130523632Y-92380139D01*
X130547459Y-92403967D01*
X130595114Y-92427794D01*
X130642770Y-92427794D01*
X130714252Y-92403967D01*
X131000184Y-92118035D01*
X131000184Y-92427794D01*
X131698684Y-91828052D02*
X131698684Y-91542120D01*
X131698684Y-91685086D02*
X131198304Y-91685086D01*
X131269787Y-91637431D01*
X131317442Y-91589776D01*
X131341270Y-91542120D01*
X131198304Y-92137811D02*
X131198304Y-92185466D01*
X131222132Y-92233121D01*
X131245959Y-92256949D01*
X131293614Y-92280777D01*
X131388925Y-92304604D01*
X131508063Y-92304604D01*
X131603373Y-92280777D01*
X131651029Y-92256949D01*
X131674856Y-92233121D01*
X131698684Y-92185466D01*
X131698684Y-92137811D01*
X131674856Y-92090156D01*
X131651029Y-92066328D01*
X131603373Y-92042500D01*
X131508063Y-92018673D01*
X131388925Y-92018673D01*
X131293614Y-92042500D01*
X131245959Y-92066328D01*
X131222132Y-92090156D01*
X131198304Y-92137811D01*
X131198304Y-92614363D02*
X131198304Y-92662019D01*
X131222132Y-92709674D01*
X131245959Y-92733501D01*
X131293614Y-92757329D01*
X131388925Y-92781157D01*
X131508063Y-92781157D01*
X131603373Y-92757329D01*
X131651029Y-92733501D01*
X131674856Y-92709674D01*
X131698684Y-92662019D01*
X131698684Y-92614363D01*
X131674856Y-92566708D01*
X131651029Y-92542880D01*
X131603373Y-92519053D01*
X131508063Y-92495225D01*
X131388925Y-92495225D01*
X131293614Y-92519053D01*
X131245959Y-92542880D01*
X131222132Y-92566708D01*
X131198304Y-92614363D01*
D11*
%TO.C,U2*%
X149125226Y-90661519D02*
X149125226Y-91471043D01*
X149077607Y-91566281D01*
X149029988Y-91613900D01*
X148934750Y-91661519D01*
X148744274Y-91661519D01*
X148649036Y-91613900D01*
X148601417Y-91566281D01*
X148553798Y-91471043D01*
X148553798Y-90661519D01*
X148125226Y-90756758D02*
X148077607Y-90709139D01*
X147982369Y-90661519D01*
X147744274Y-90661519D01*
X147649036Y-90709139D01*
X147601417Y-90756758D01*
X147553798Y-90851996D01*
X147553798Y-90947234D01*
X147601417Y-91090091D01*
X148172845Y-91661519D01*
X147553798Y-91661519D01*
%TO.C,R1*%
X160117702Y-82152472D02*
X159641512Y-81819139D01*
X160117702Y-81581043D02*
X159117702Y-81581043D01*
X159117702Y-81961996D01*
X159165322Y-82057234D01*
X159212941Y-82104853D01*
X159308179Y-82152472D01*
X159451036Y-82152472D01*
X159546274Y-82104853D01*
X159593893Y-82057234D01*
X159641512Y-81961996D01*
X159641512Y-81581043D01*
X160117702Y-83104853D02*
X160117702Y-82533424D01*
X160117702Y-82819139D02*
X159117702Y-82819139D01*
X159260560Y-82723900D01*
X159355798Y-82628662D01*
X159403417Y-82533424D01*
%TO.C,C2*%
X163198464Y-95995472D02*
X163246083Y-95947853D01*
X163293702Y-95804996D01*
X163293702Y-95709758D01*
X163246083Y-95566900D01*
X163150845Y-95471662D01*
X163055607Y-95424043D01*
X162865131Y-95376424D01*
X162722274Y-95376424D01*
X162531798Y-95424043D01*
X162436560Y-95471662D01*
X162341322Y-95566900D01*
X162293702Y-95709758D01*
X162293702Y-95804996D01*
X162341322Y-95947853D01*
X162388941Y-95995472D01*
X162388941Y-96376424D02*
X162341322Y-96424043D01*
X162293702Y-96519281D01*
X162293702Y-96757377D01*
X162341322Y-96852615D01*
X162388941Y-96900234D01*
X162484179Y-96947853D01*
X162579417Y-96947853D01*
X162722274Y-96900234D01*
X163293702Y-96328805D01*
X163293702Y-96947853D01*
%TO.C,C21*%
X146974179Y-109854281D02*
X147021798Y-109901900D01*
X147164655Y-109949519D01*
X147259893Y-109949519D01*
X147402750Y-109901900D01*
X147497988Y-109806662D01*
X147545607Y-109711424D01*
X147593226Y-109520948D01*
X147593226Y-109378091D01*
X147545607Y-109187615D01*
X147497988Y-109092377D01*
X147402750Y-108997139D01*
X147259893Y-108949519D01*
X147164655Y-108949519D01*
X147021798Y-108997139D01*
X146974179Y-109044758D01*
X146593226Y-109044758D02*
X146545607Y-108997139D01*
X146450369Y-108949519D01*
X146212274Y-108949519D01*
X146117036Y-108997139D01*
X146069417Y-109044758D01*
X146021798Y-109139996D01*
X146021798Y-109235234D01*
X146069417Y-109378091D01*
X146640845Y-109949519D01*
X146021798Y-109949519D01*
X145069417Y-109949519D02*
X145640845Y-109949519D01*
X145355131Y-109949519D02*
X145355131Y-108949519D01*
X145450369Y-109092377D01*
X145545607Y-109187615D01*
X145640845Y-109235234D01*
%TO.C,C22*%
X163198464Y-86629281D02*
X163246083Y-86581662D01*
X163293702Y-86438805D01*
X163293702Y-86343567D01*
X163246083Y-86200710D01*
X163150845Y-86105472D01*
X163055607Y-86057853D01*
X162865131Y-86010234D01*
X162722274Y-86010234D01*
X162531798Y-86057853D01*
X162436560Y-86105472D01*
X162341322Y-86200710D01*
X162293702Y-86343567D01*
X162293702Y-86438805D01*
X162341322Y-86581662D01*
X162388941Y-86629281D01*
X162388941Y-87010234D02*
X162341322Y-87057853D01*
X162293702Y-87153091D01*
X162293702Y-87391186D01*
X162341322Y-87486424D01*
X162388941Y-87534043D01*
X162484179Y-87581662D01*
X162579417Y-87581662D01*
X162722274Y-87534043D01*
X163293702Y-86962615D01*
X163293702Y-87581662D01*
X162388941Y-87962615D02*
X162341322Y-88010234D01*
X162293702Y-88105472D01*
X162293702Y-88343567D01*
X162341322Y-88438805D01*
X162388941Y-88486424D01*
X162484179Y-88534043D01*
X162579417Y-88534043D01*
X162722274Y-88486424D01*
X163293702Y-87914996D01*
X163293702Y-88534043D01*
%TO.C,C23*%
X163198464Y-101234281D02*
X163246083Y-101186662D01*
X163293702Y-101043805D01*
X163293702Y-100948567D01*
X163246083Y-100805710D01*
X163150845Y-100710472D01*
X163055607Y-100662853D01*
X162865131Y-100615234D01*
X162722274Y-100615234D01*
X162531798Y-100662853D01*
X162436560Y-100710472D01*
X162341322Y-100805710D01*
X162293702Y-100948567D01*
X162293702Y-101043805D01*
X162341322Y-101186662D01*
X162388941Y-101234281D01*
X162388941Y-101615234D02*
X162341322Y-101662853D01*
X162293702Y-101758091D01*
X162293702Y-101996186D01*
X162341322Y-102091424D01*
X162388941Y-102139043D01*
X162484179Y-102186662D01*
X162579417Y-102186662D01*
X162722274Y-102139043D01*
X163293702Y-101567615D01*
X163293702Y-102186662D01*
X162293702Y-102519996D02*
X162293702Y-103139043D01*
X162674655Y-102805710D01*
X162674655Y-102948567D01*
X162722274Y-103043805D01*
X162769893Y-103091424D01*
X162865131Y-103139043D01*
X163103226Y-103139043D01*
X163198464Y-103091424D01*
X163246083Y-103043805D01*
X163293702Y-102948567D01*
X163293702Y-102662853D01*
X163246083Y-102567615D01*
X163198464Y-102519996D01*
%TO.C,M6*%
X118948702Y-102232615D02*
X117948702Y-102232615D01*
X118662988Y-102565948D01*
X117948702Y-102899281D01*
X118948702Y-102899281D01*
X117948702Y-103804043D02*
X117948702Y-103613567D01*
X117996322Y-103518329D01*
X118043941Y-103470710D01*
X118186798Y-103375472D01*
X118377274Y-103327853D01*
X118758226Y-103327853D01*
X118853464Y-103375472D01*
X118901083Y-103423091D01*
X118948702Y-103518329D01*
X118948702Y-103708805D01*
X118901083Y-103804043D01*
X118853464Y-103851662D01*
X118758226Y-103899281D01*
X118520131Y-103899281D01*
X118424893Y-103851662D01*
X118377274Y-103804043D01*
X118329655Y-103708805D01*
X118329655Y-103518329D01*
X118377274Y-103423091D01*
X118424893Y-103375472D01*
X118520131Y-103327853D01*
%TO.C,C20*%
X124995322Y-98829139D02*
X126519322Y-98829139D01*
X124995322Y-97813139D02*
X124995322Y-98829139D01*
X124995322Y-95781139D02*
X124995322Y-96797139D01*
X126519322Y-95781139D02*
X124995322Y-95781139D01*
X126519322Y-96797139D02*
X126519322Y-95781139D01*
X126519322Y-98829139D02*
X126519322Y-97813139D01*
X126646322Y-95654139D02*
G75*
G03*
X126646322Y-95654139I-127000J0D01*
G01*
%TO.C,R15*%
X127281322Y-95844639D02*
X127281322Y-96860639D01*
X127281322Y-97876639D02*
X127281322Y-98892639D01*
X127281322Y-98892639D02*
X128805322Y-98892639D01*
X128805322Y-96860639D02*
X128805322Y-95844639D01*
X128805322Y-98892639D02*
X128805322Y-97876639D01*
X128805322Y-95844639D02*
X127281322Y-95844639D01*
X128932322Y-95717639D02*
G75*
G03*
X128932322Y-95717639I-127000J0D01*
G01*
D14*
%TO.C,U3*%
X131867322Y-98885139D02*
X131867322Y-97955139D01*
X131867322Y-95725139D02*
X131867322Y-96655139D01*
X131867322Y-95725139D02*
X130407322Y-95725139D01*
X131867322Y-98885139D02*
X129707322Y-98885139D01*
%TO.C,U6*%
X122076322Y-100282139D02*
X123536322Y-100282139D01*
X122076322Y-97122139D02*
X124236322Y-97122139D01*
X122076322Y-97122139D02*
X122076322Y-98052139D01*
X122076322Y-100282139D02*
X122076322Y-99352139D01*
D11*
%TO.C,C1*%
X140156582Y-98907879D02*
X146156062Y-98907879D01*
X140156582Y-102306399D02*
X146156062Y-102306399D01*
X147456542Y-98907879D02*
X147456542Y-102306399D01*
X148157582Y-97554059D02*
X148157582Y-98653879D01*
X148757022Y-98054439D02*
X147558142Y-98054439D01*
%TO.C,C3*%
X121693322Y-86446639D02*
X121693322Y-85430639D01*
X120169322Y-87462639D02*
X120169322Y-88478639D01*
X121693322Y-85430639D02*
X120169322Y-85430639D01*
X120169322Y-88478639D02*
X121693322Y-88478639D01*
X120169322Y-85430639D02*
X120169322Y-86446639D01*
X121693322Y-88478639D02*
X121693322Y-87462639D01*
X120296322Y-88605639D02*
G75*
G03*
X120296322Y-88605639I-127000J0D01*
G01*
%TO.C,C4*%
X146267822Y-104544139D02*
X146267822Y-103020139D01*
X146267822Y-103020139D02*
X145251822Y-103020139D01*
X144235822Y-103020139D02*
X143219822Y-103020139D01*
X143219822Y-104544139D02*
X144235822Y-104544139D01*
X143219822Y-103020139D02*
X143219822Y-104544139D01*
X145251822Y-104544139D02*
X146267822Y-104544139D01*
X146521822Y-104544139D02*
G75*
G03*
X146521822Y-104544139I-127000J0D01*
G01*
%TO.C,C5*%
X124042822Y-92225139D02*
X123026822Y-92225139D01*
X122010822Y-92225139D02*
X120994822Y-92225139D01*
X120994822Y-93749139D02*
X122010822Y-93749139D01*
X123026822Y-93749139D02*
X124042822Y-93749139D01*
X120994822Y-92225139D02*
X120994822Y-93749139D01*
X124042822Y-93749139D02*
X124042822Y-92225139D01*
X124296822Y-93749139D02*
G75*
G03*
X124296822Y-93749139I-127000J0D01*
G01*
%TO.C,C6*%
X136171322Y-92542639D02*
X136171322Y-91526639D01*
X134647322Y-94574639D02*
X136171322Y-94574639D01*
X136171322Y-94574639D02*
X136171322Y-93558639D01*
X136171322Y-91526639D02*
X134647322Y-91526639D01*
X134647322Y-91526639D02*
X134647322Y-92542639D01*
X134647322Y-93558639D02*
X134647322Y-94574639D01*
X136298322Y-91399639D02*
G75*
G03*
X136298322Y-91399639I-127000J0D01*
G01*
%TO.C,C7*%
X154967322Y-93495139D02*
X156491322Y-93495139D01*
X156491322Y-90447139D02*
X154967322Y-90447139D01*
X154967322Y-92479139D02*
X154967322Y-93495139D01*
X156491322Y-93495139D02*
X156491322Y-92479139D01*
X154967322Y-90447139D02*
X154967322Y-91463139D01*
X156491322Y-91463139D02*
X156491322Y-90447139D01*
X155094322Y-93622139D02*
G75*
G03*
X155094322Y-93622139I-127000J0D01*
G01*
%TO.C,C8*%
X148109322Y-84351139D02*
X148109322Y-85367139D01*
X148109322Y-82319139D02*
X148109322Y-83335139D01*
X149633322Y-83335139D02*
X149633322Y-82319139D01*
X149633322Y-82319139D02*
X148109322Y-82319139D01*
X148109322Y-85367139D02*
X149633322Y-85367139D01*
X149633322Y-85367139D02*
X149633322Y-84351139D01*
X148236322Y-85494139D02*
G75*
G03*
X148236322Y-85494139I-127000J0D01*
G01*
%TO.C,C9*%
X155094322Y-98448139D02*
X155094322Y-99464139D01*
X156618322Y-99464139D02*
X156618322Y-98448139D01*
X155094322Y-100480139D02*
X155094322Y-101496139D01*
X156618322Y-98448139D02*
X155094322Y-98448139D01*
X155094322Y-101496139D02*
X156618322Y-101496139D01*
X156618322Y-101496139D02*
X156618322Y-100480139D01*
X156745322Y-98321139D02*
G75*
G03*
X156745322Y-98321139I-127000J0D01*
G01*
%TO.C,C10*%
X125503322Y-92225139D02*
X124487322Y-92225139D01*
X127535322Y-93749139D02*
X127535322Y-92225139D01*
X127535322Y-92225139D02*
X126519322Y-92225139D01*
X124487322Y-92225139D02*
X124487322Y-93749139D01*
X124487322Y-93749139D02*
X125503322Y-93749139D01*
X126519322Y-93749139D02*
X127535322Y-93749139D01*
X127789322Y-93749139D02*
G75*
G03*
X127789322Y-93749139I-127000J0D01*
G01*
%TO.C,C11*%
X134139322Y-91526639D02*
X132615322Y-91526639D01*
X134139322Y-94574639D02*
X134139322Y-93558639D01*
X132615322Y-91526639D02*
X132615322Y-92542639D01*
X132615322Y-93558639D02*
X132615322Y-94574639D01*
X132615322Y-94574639D02*
X134139322Y-94574639D01*
X134139322Y-92542639D02*
X134139322Y-91526639D01*
X134266322Y-91399639D02*
G75*
G03*
X134266322Y-91399639I-127000J0D01*
G01*
%TO.C,C12*%
X154205322Y-91463139D02*
X154205322Y-90447139D01*
X152681322Y-92479139D02*
X152681322Y-93495139D01*
X154205322Y-90447139D02*
X152681322Y-90447139D01*
X154205322Y-93495139D02*
X154205322Y-92479139D01*
X152681322Y-90447139D02*
X152681322Y-91463139D01*
X152681322Y-93495139D02*
X154205322Y-93495139D01*
X152808322Y-93622139D02*
G75*
G03*
X152808322Y-93622139I-127000J0D01*
G01*
%TO.C,C13*%
X150395322Y-82319139D02*
X150395322Y-83335139D01*
X150395322Y-85367139D02*
X151919322Y-85367139D01*
X150395322Y-84351139D02*
X150395322Y-85367139D01*
X151919322Y-85367139D02*
X151919322Y-84351139D01*
X151919322Y-83335139D02*
X151919322Y-82319139D01*
X151919322Y-82319139D02*
X150395322Y-82319139D01*
X150522322Y-85494139D02*
G75*
G03*
X150522322Y-85494139I-127000J0D01*
G01*
%TO.C,C14*%
X157634322Y-100480139D02*
X157634322Y-101496139D01*
X159158322Y-101496139D02*
X159158322Y-100480139D01*
X157634322Y-101496139D02*
X159158322Y-101496139D01*
X157634322Y-98448139D02*
X157634322Y-99464139D01*
X159158322Y-99464139D02*
X159158322Y-98448139D01*
X159158322Y-98448139D02*
X157634322Y-98448139D01*
X159285322Y-98321139D02*
G75*
G03*
X159285322Y-98321139I-127000J0D01*
G01*
%TO.C,C15*%
X135155322Y-90002639D02*
X135155322Y-91018639D01*
X136679322Y-88986639D02*
X136679322Y-87970639D01*
X136679322Y-91018639D02*
X136679322Y-90002639D01*
X136679322Y-87970639D02*
X135155322Y-87970639D01*
X135155322Y-87970639D02*
X135155322Y-88986639D01*
X135155322Y-91018639D02*
X136679322Y-91018639D01*
X135282322Y-91145639D02*
G75*
G03*
X135282322Y-91145639I-127000J0D01*
G01*
%TO.C,C16*%
X139219322Y-90891639D02*
X139219322Y-89875639D01*
X137695322Y-90891639D02*
X139219322Y-90891639D01*
X139219322Y-87843639D02*
X137695322Y-87843639D01*
X137695322Y-87843639D02*
X137695322Y-88859639D01*
X139219322Y-88859639D02*
X139219322Y-87843639D01*
X137695322Y-89875639D02*
X137695322Y-90891639D01*
X139346322Y-87716639D02*
G75*
G03*
X139346322Y-87716639I-127000J0D01*
G01*
%TO.C,C17*%
X142267322Y-87018139D02*
X142267322Y-88034139D01*
X142267322Y-89050139D02*
X142267322Y-90066139D01*
X143791322Y-90066139D02*
X143791322Y-89050139D01*
X142267322Y-90066139D02*
X143791322Y-90066139D01*
X143791322Y-87018139D02*
X142267322Y-87018139D01*
X143791322Y-88034139D02*
X143791322Y-87018139D01*
X142394322Y-90193139D02*
G75*
G03*
X142394322Y-90193139I-127000J0D01*
G01*
%TO.C,C18*%
X143537322Y-94574639D02*
X143537322Y-93558639D01*
X143537322Y-92542639D02*
X143537322Y-91526639D01*
X142013322Y-94574639D02*
X143537322Y-94574639D01*
X142013322Y-93558639D02*
X142013322Y-94574639D01*
X142013322Y-91526639D02*
X142013322Y-92542639D01*
X143537322Y-91526639D02*
X142013322Y-91526639D01*
X142140322Y-94701639D02*
G75*
G03*
X142140322Y-94701639I-127000J0D01*
G01*
%TO.C,C19*%
X154205322Y-87653139D02*
X154205322Y-86637139D01*
X152681322Y-89685139D02*
X154205322Y-89685139D01*
X152681322Y-86637139D02*
X152681322Y-87653139D01*
X154205322Y-86637139D02*
X152681322Y-86637139D01*
X152681322Y-88669139D02*
X152681322Y-89685139D01*
X154205322Y-89685139D02*
X154205322Y-88669139D01*
X152808322Y-89812139D02*
G75*
G03*
X152808322Y-89812139I-127000J0D01*
G01*
%TO.C,D1*%
X149795882Y-101397079D02*
X149795882Y-101747599D01*
X154296762Y-104897199D02*
X149795882Y-104897199D01*
X154296762Y-101397079D02*
X149795882Y-101397079D01*
X150245462Y-101397079D02*
X150245462Y-101747599D01*
X150245462Y-104897199D02*
X150245462Y-104546679D01*
X154296762Y-104897199D02*
X154296762Y-104546679D01*
X149795882Y-104897199D02*
X149795882Y-104546679D01*
X154296762Y-101397079D02*
X154296762Y-101747599D01*
%TO.C,R3*%
X150649322Y-94638139D02*
X150649322Y-95654139D01*
X152173322Y-95654139D02*
X152173322Y-94638139D01*
X150649322Y-96670139D02*
X150649322Y-97686139D01*
X152173322Y-97686139D02*
X152173322Y-96670139D01*
X152173322Y-94638139D02*
X150649322Y-94638139D01*
X150649322Y-97686139D02*
X152173322Y-97686139D01*
X152300322Y-94511139D02*
G75*
G03*
X152300322Y-94511139I-127000J0D01*
G01*
%TO.C,R4*%
X147347322Y-82319139D02*
X145823322Y-82319139D01*
X147347322Y-83335139D02*
X147347322Y-82319139D01*
X147347322Y-85367139D02*
X147347322Y-84351139D01*
X145823322Y-82319139D02*
X145823322Y-83335139D01*
X145823322Y-85367139D02*
X147347322Y-85367139D01*
X145823322Y-84351139D02*
X145823322Y-85367139D01*
X145950322Y-85494139D02*
G75*
G03*
X145950322Y-85494139I-127000J0D01*
G01*
%TO.C,R5*%
X154205322Y-98575139D02*
X153189322Y-98575139D01*
X153189322Y-100099139D02*
X154205322Y-100099139D01*
X151157322Y-100099139D02*
X152173322Y-100099139D01*
X151157322Y-98575139D02*
X151157322Y-100099139D01*
X152173322Y-98575139D02*
X151157322Y-98575139D01*
X154205322Y-100099139D02*
X154205322Y-98575139D01*
X154459322Y-100099139D02*
G75*
G03*
X154459322Y-100099139I-127000J0D01*
G01*
%TO.C,R6*%
X124042822Y-96289139D02*
X124042822Y-94765139D01*
X124042822Y-94765139D02*
X123026822Y-94765139D01*
X122010822Y-94765139D02*
X120994822Y-94765139D01*
X120994822Y-94765139D02*
X120994822Y-96289139D01*
X123026822Y-96289139D02*
X124042822Y-96289139D01*
X120994822Y-96289139D02*
X122010822Y-96289139D01*
X124296822Y-96289139D02*
G75*
G03*
X124296822Y-96289139I-127000J0D01*
G01*
%TO.C,R7*%
X130329322Y-87526139D02*
X131853322Y-87526139D01*
X131853322Y-87526139D02*
X131853322Y-86510139D01*
X130329322Y-86510139D02*
X130329322Y-87526139D01*
X131853322Y-84478139D02*
X130329322Y-84478139D01*
X131853322Y-85494139D02*
X131853322Y-84478139D01*
X130329322Y-84478139D02*
X130329322Y-85494139D01*
X131980322Y-84351139D02*
G75*
G03*
X131980322Y-84351139I-127000J0D01*
G01*
%TO.C,R8*%
X132869322Y-86446639D02*
X132869322Y-87462639D01*
X134393322Y-84414639D02*
X132869322Y-84414639D01*
X134393322Y-87462639D02*
X134393322Y-86446639D01*
X134393322Y-85430639D02*
X134393322Y-84414639D01*
X132869322Y-87462639D02*
X134393322Y-87462639D01*
X132869322Y-84414639D02*
X132869322Y-85430639D01*
X132996322Y-87589639D02*
G75*
G03*
X132996322Y-87589639I-127000J0D01*
G01*
%TO.C,R9*%
X132869322Y-91018639D02*
X134393322Y-91018639D01*
X134393322Y-87970639D02*
X132869322Y-87970639D01*
X134393322Y-91018639D02*
X134393322Y-90002639D01*
X134393322Y-88986639D02*
X134393322Y-87970639D01*
X132869322Y-87970639D02*
X132869322Y-88986639D01*
X132869322Y-90002639D02*
X132869322Y-91018639D01*
X132996322Y-91145639D02*
G75*
G03*
X132996322Y-91145639I-127000J0D01*
G01*
%TO.C,R10*%
X141251322Y-90891639D02*
X141251322Y-89875639D01*
X141251322Y-87843639D02*
X139727322Y-87843639D01*
X139727322Y-87843639D02*
X139727322Y-88859639D01*
X139727322Y-89875639D02*
X139727322Y-90891639D01*
X141251322Y-88859639D02*
X141251322Y-87843639D01*
X139727322Y-90891639D02*
X141251322Y-90891639D01*
X139854322Y-91018639D02*
G75*
G03*
X139854322Y-91018639I-127000J0D01*
G01*
%TO.C,R11*%
X141251322Y-91526639D02*
X139727322Y-91526639D01*
X141251322Y-94574639D02*
X141251322Y-93558639D01*
X139727322Y-94574639D02*
X141251322Y-94574639D01*
X139727322Y-93558639D02*
X139727322Y-94574639D01*
X141251322Y-92542639D02*
X141251322Y-91526639D01*
X139727322Y-91526639D02*
X139727322Y-92542639D01*
X139854322Y-94701639D02*
G75*
G03*
X139854322Y-94701639I-127000J0D01*
G01*
%TO.C,R12*%
X159158322Y-91844139D02*
X159158322Y-90828139D01*
X157634322Y-92860139D02*
X157634322Y-93876139D01*
X157634322Y-93876139D02*
X159158322Y-93876139D01*
X159158322Y-90828139D02*
X157634322Y-90828139D01*
X159158322Y-93876139D02*
X159158322Y-92860139D01*
X157634322Y-90828139D02*
X157634322Y-91844139D01*
X157761322Y-94003139D02*
G75*
G03*
X157761322Y-94003139I-127000J0D01*
G01*
%TO.C,R13*%
X157761322Y-88161139D02*
X156745322Y-88161139D01*
X154713322Y-89685139D02*
X155729322Y-89685139D01*
X157761322Y-89685139D02*
X157761322Y-88161139D01*
X154713322Y-88161139D02*
X154713322Y-89685139D01*
X155729322Y-88161139D02*
X154713322Y-88161139D01*
X156745322Y-89685139D02*
X157761322Y-89685139D01*
X154713322Y-88161139D02*
G75*
G03*
X154713322Y-88161139I-127000J0D01*
G01*
%TO.C,U1*%
X123936322Y-86602139D02*
X123936322Y-86747139D01*
X128086322Y-91752139D02*
X128086322Y-91607139D01*
X123936322Y-91752139D02*
X128086322Y-91752139D01*
X123936322Y-91607139D02*
X122536322Y-91607139D01*
X128086322Y-86602139D02*
X128086322Y-86747139D01*
X123936322Y-86602139D02*
X128086322Y-86602139D01*
X123936322Y-91752139D02*
X123936322Y-91607139D01*
D14*
%TO.C,U4*%
X156069322Y-82435139D02*
X156069322Y-84885139D01*
X152849322Y-84235139D02*
X152849322Y-82435139D01*
%TO.C,U5*%
X158026322Y-97772139D02*
X155576322Y-97772139D01*
X156226322Y-94552139D02*
X158026322Y-94552139D01*
D11*
%TO.C,R2*%
X130329322Y-93558639D02*
X131853322Y-93558639D01*
X131853322Y-93558639D02*
X131853322Y-92542639D01*
X130329322Y-92542639D02*
X130329322Y-93558639D01*
X130329322Y-90510639D02*
X130329322Y-91526639D01*
X131853322Y-90510639D02*
X130329322Y-90510639D01*
X131853322Y-91526639D02*
X131853322Y-90510639D01*
X131980322Y-90383639D02*
G75*
G03*
X131980322Y-90383639I-127000J0D01*
G01*
%TO.C,U2*%
X146288322Y-93784139D02*
X150438322Y-93784139D01*
X150438322Y-88634139D02*
X150438322Y-88779139D01*
X146288322Y-88634139D02*
X150438322Y-88634139D01*
X146288322Y-93639139D02*
X144888322Y-93639139D01*
X150438322Y-93784139D02*
X150438322Y-93639139D01*
X146288322Y-93784139D02*
X146288322Y-93639139D01*
X146288322Y-88634139D02*
X146288322Y-88779139D01*
%TO.C,C2*%
X163603322Y-98194139D02*
X163476322Y-98194139D01*
X163603322Y-98194139D02*
X163603322Y-94130139D01*
X163603322Y-94130139D02*
X162079322Y-94130139D01*
X162079322Y-94130139D02*
X162079322Y-98194139D01*
X162079322Y-98194139D02*
X163603322Y-98194139D01*
%TO.C,C21*%
X144299322Y-110259139D02*
X144299322Y-110132139D01*
X144299322Y-108735139D02*
X144299322Y-110259139D01*
X148363322Y-108735139D02*
X144299322Y-108735139D01*
X144299322Y-110259139D02*
X148363322Y-110259139D01*
X148363322Y-110259139D02*
X148363322Y-108735139D01*
%TO.C,C22*%
X162079322Y-89304139D02*
X163603322Y-89304139D01*
X162079322Y-85240139D02*
X162206322Y-85240139D01*
X162079322Y-85240139D02*
X162079322Y-89304139D01*
X163603322Y-89304139D02*
X163603322Y-85240139D01*
X163603322Y-85240139D02*
X162079322Y-85240139D01*
%TO.C,C23*%
X163603322Y-99845139D02*
X162079322Y-99845139D01*
X162079322Y-103909139D02*
X163603322Y-103909139D01*
X163603322Y-103909139D02*
X163476322Y-103909139D01*
X163603322Y-103909139D02*
X163603322Y-99845139D01*
X162079322Y-99845139D02*
X162079322Y-103909139D01*
%TD*%
M02*
