  0
SECTION
  2
HEADER
  9
$ANGBASE
  50
0.0
  9
$ANGDIR
  70
1
  9
$MEASUREMENT
  70
0
  0
ENDSEC
  0
SECTION
  2
TABLES
  0
TABLE
  2
LTYPE
  70
4
  0
LTYPE
  5
40F
  2
CONTINUOUS
  70
0
  3
Solid line
  72
65
  73
0
  40
0.0
  0
LTYPE
  5
410
  2
DASHDOT
 70
0
  3
Dash Dot ____ _ ____ _
 72
65
 73
4
 40
2.0
 49
1.25
 49
-0.25
 49
0.25
 49
-0.25
  0
LTYPE
  5
411
  2
DASHED
 70
0
  3
Dashed __ __ __ __ __
 72
65
 73
2
 40
0.75
 49
0.5
 49
-0.25
  0
LTYPE
  5
43B
  2
DOTTED
 70
0
  3
Dotted .  .  .  .
 72
65
 73
2
 40
0.2
 49
0.0
 49
-0.2
  0
ENDTAB
  0
TABLE
  2
STYLE
  70
4
  0
STYLE
  2
KICAD
  70
0
  40
0
  41
1
  42
1
  50
0
  71
0
  3
isocp.shx
  0
STYLE
  2
KICADB
  70
0
  40
0
  41
1
  42
1
  50
0
  71
0
  3
isocp.shx
  0
STYLE
  2
KICADI
  70
0
  40
0
  41
1
  42
1
  50
15
  71
0
  3
isocp.shx
  0
STYLE
  2
KICADBI
  70
0
  40
0
  41
1
  42
1
  50
15
  71
0
  3
isocp.shx
  0
ENDTAB
  0
TABLE
  2
LAYER
  70
1
  0
LAYER
  2
BLACK
  70
0
  62
7
  6
CONTINUOUS
  0
ENDTAB
  0
ENDSEC
  0
SECTION
  2
ENTITIES
0
LINE
8
BLACK
6
CONTINUOUS
10
5.77486
20
-4.36997
11
5.7473
21
-4.36997
0
LINE
8
BLACK
6
CONTINUOUS
10
5.7473
20
-4.36997
11
5.7473
21
-4.25186
0
LINE
8
BLACK
6
CONTINUOUS
10
5.7473
20
-4.25186
11
5.77486
21
-4.25186
0
LINE
8
BLACK
6
CONTINUOUS
10
5.77486
20
-4.25186
11
5.77486
21
-4.36997
0
LINE
8
BLACK
6
CONTINUOUS
10
5.73352
20
-4.34044
11
5.68234
21
-4.34044
0
LINE
8
BLACK
6
CONTINUOUS
10
5.68234
20
-4.34044
11
5.68234
21
-4.28138
0
LINE
8
BLACK
6
CONTINUOUS
10
5.68234
20
-4.28138
11
5.73352
21
-4.28138
0
LINE
8
BLACK
6
CONTINUOUS
10
5.73352
20
-4.28138
11
5.73352
21
-4.34044
0
LINE
8
BLACK
6
CONTINUOUS
10
5.83982
20
-4.34044
11
5.78863
21
-4.34044
0
LINE
8
BLACK
6
CONTINUOUS
10
5.78863
20
-4.34044
11
5.78863
21
-4.28138
0
LINE
8
BLACK
6
CONTINUOUS
10
5.78863
20
-4.28138
11
5.83982
21
-4.28138
0
LINE
8
BLACK
6
CONTINUOUS
10
5.83982
20
-4.28138
11
5.83982
21
-4.34044
0
LINE
8
BLACK
6
CONTINUOUS
10
6.13332
20
-4.21091
11
5.98371
21
-4.21091
0
LINE
8
BLACK
6
CONTINUOUS
10
5.98371
20
-4.21091
11
5.98371
21
-4.17154
0
LINE
8
BLACK
6
CONTINUOUS
10
5.98371
20
-4.17154
11
6.13332
21
-4.17154
0
LINE
8
BLACK
6
CONTINUOUS
10
6.13332
20
-4.17154
11
6.13332
21
-4.21091
0
LINE
8
BLACK
6
CONTINUOUS
10
5.8971
20
-4.21091
11
5.74749
21
-4.21091
0
LINE
8
BLACK
6
CONTINUOUS
10
5.74749
20
-4.21091
11
5.74749
21
-4.17154
0
LINE
8
BLACK
6
CONTINUOUS
10
5.74749
20
-4.17154
11
5.8971
21
-4.17154
0
LINE
8
BLACK
6
CONTINUOUS
10
5.8971
20
-4.17154
11
5.8971
21
-4.21091
0
LINE
8
BLACK
6
CONTINUOUS
10
4.95222
20
-4.21091
11
4.80261
21
-4.21091
0
LINE
8
BLACK
6
CONTINUOUS
10
4.80261
20
-4.21091
11
4.80261
21
-4.17154
0
LINE
8
BLACK
6
CONTINUOUS
10
4.80261
20
-4.17154
11
4.95222
21
-4.17154
0
LINE
8
BLACK
6
CONTINUOUS
10
4.95222
20
-4.17154
11
4.95222
21
-4.21091
0
LINE
8
BLACK
6
CONTINUOUS
10
5.18844
20
-4.21091
11
5.03883
21
-4.21091
0
LINE
8
BLACK
6
CONTINUOUS
10
5.03883
20
-4.21091
11
5.03883
21
-4.17154
0
LINE
8
BLACK
6
CONTINUOUS
10
5.03883
20
-4.17154
11
5.18844
21
-4.17154
0
LINE
8
BLACK
6
CONTINUOUS
10
5.18844
20
-4.17154
11
5.18844
21
-4.21091
0
LINE
8
BLACK
6
CONTINUOUS
10
6.34986
20
-4.21091
11
6.21993
21
-4.21091
0
LINE
8
BLACK
6
CONTINUOUS
10
6.21993
20
-4.21091
11
6.21993
21
-4.11052
0
LINE
8
BLACK
6
CONTINUOUS
10
6.21993
20
-4.11052
11
6.34986
21
-4.11052
0
LINE
8
BLACK
6
CONTINUOUS
10
6.34986
20
-4.11052
11
6.34986
21
-4.21091
0
LINE
8
BLACK
6
CONTINUOUS
10
5.66088
20
-4.21091
11
5.51127
21
-4.21091
0
LINE
8
BLACK
6
CONTINUOUS
10
5.51127
20
-4.21091
11
5.51127
21
-4.17154
0
LINE
8
BLACK
6
CONTINUOUS
10
5.51127
20
-4.17154
11
5.66088
21
-4.17154
0
LINE
8
BLACK
6
CONTINUOUS
10
5.66088
20
-4.17154
11
5.66088
21
-4.21091
0
LINE
8
BLACK
6
CONTINUOUS
10
4.716
20
-4.21091
11
4.58608
21
-4.21091
0
LINE
8
BLACK
6
CONTINUOUS
10
4.58608
20
-4.21091
11
4.58608
21
-4.11052
0
LINE
8
BLACK
6
CONTINUOUS
10
4.58608
20
-4.11052
11
4.716
21
-4.11052
0
LINE
8
BLACK
6
CONTINUOUS
10
4.716
20
-4.11052
11
4.716
21
-4.21091
0
LINE
8
BLACK
6
CONTINUOUS
10
5.42466
20
-4.21091
11
5.27505
21
-4.21091
0
LINE
8
BLACK
6
CONTINUOUS
10
5.27505
20
-4.21091
11
5.27505
21
-4.17154
0
LINE
8
BLACK
6
CONTINUOUS
10
5.27505
20
-4.17154
11
5.42466
21
-4.17154
0
LINE
8
BLACK
6
CONTINUOUS
10
5.42466
20
-4.17154
11
5.42466
21
-4.21091
0
LINE
8
BLACK
6
CONTINUOUS
10
5.75358
20
-4.11341
11
5.71858
21
-4.11341
0
LINE
8
BLACK
6
CONTINUOUS
10
5.71858
20
-4.11341
11
5.71858
21
-4.05841
0
LINE
8
BLACK
6
CONTINUOUS
10
5.71858
20
-4.05841
11
5.75358
21
-4.05841
0
LINE
8
BLACK
6
CONTINUOUS
10
5.75358
20
-4.05841
11
5.75358
21
-4.11341
0
LINE
8
BLACK
6
CONTINUOUS
10
5.67858
20
-4.11341
11
5.64358
21
-4.11341
0
LINE
8
BLACK
6
CONTINUOUS
10
5.64358
20
-4.11341
11
5.64358
21
-4.05841
0
LINE
8
BLACK
6
CONTINUOUS
10
5.64358
20
-4.05841
11
5.67858
21
-4.05841
0
LINE
8
BLACK
6
CONTINUOUS
10
5.67858
20
-4.05841
11
5.67858
21
-4.11341
0
LINE
8
BLACK
6
CONTINUOUS
10
5.95658
20
-4.09636
11
5.85818
21
-4.09636
0
LINE
8
BLACK
6
CONTINUOUS
10
5.85818
20
-4.09636
11
5.85818
21
-4.02546
0
LINE
8
BLACK
6
CONTINUOUS
10
5.85818
20
-4.02546
11
5.95658
21
-4.02546
0
LINE
8
BLACK
6
CONTINUOUS
10
5.95658
20
-4.02546
11
5.95658
21
-4.09636
0
LINE
8
BLACK
6
CONTINUOUS
10
6.11398
20
-4.09636
11
6.01558
21
-4.09636
0
LINE
8
BLACK
6
CONTINUOUS
10
6.01558
20
-4.09636
11
6.01558
21
-4.02546
0
LINE
8
BLACK
6
CONTINUOUS
10
6.01558
20
-4.02546
11
6.11398
21
-4.02546
0
LINE
8
BLACK
6
CONTINUOUS
10
6.11398
20
-4.02546
11
6.11398
21
-4.09636
0
LINE
8
BLACK
6
CONTINUOUS
10
6.4406
20
-4.08965
11
6.38155
21
-4.08965
0
LINE
8
BLACK
6
CONTINUOUS
10
6.38155
20
-4.08965
11
6.38155
21
-4.03847
0
LINE
8
BLACK
6
CONTINUOUS
10
6.38155
20
-4.03847
11
6.4406
21
-4.03847
0
LINE
8
BLACK
6
CONTINUOUS
10
6.4406
20
-4.03847
11
6.4406
21
-4.08965
0
LINE
8
BLACK
6
CONTINUOUS
10
6.47013
20
-4.02469
11
6.35202
21
-4.02469
0
LINE
8
BLACK
6
CONTINUOUS
10
6.35202
20
-4.02469
11
6.35202
21
-3.99713
0
LINE
8
BLACK
6
CONTINUOUS
10
6.35202
20
-3.99713
11
6.47013
21
-3.99713
0
LINE
8
BLACK
6
CONTINUOUS
10
6.47013
20
-3.99713
11
6.47013
21
-4.02469
0
LINE
8
BLACK
6
CONTINUOUS
10
4.62545
20
-4.0239
11
4.58608
21
-4.0239
0
LINE
8
BLACK
6
CONTINUOUS
10
4.58608
20
-4.0239
11
4.58608
21
-3.8743
0
LINE
8
BLACK
6
CONTINUOUS
10
4.58608
20
-3.8743
11
4.62545
21
-3.8743
0
LINE
8
BLACK
6
CONTINUOUS
10
4.62545
20
-3.8743
11
4.62545
21
-4.0239
0
LINE
8
BLACK
6
CONTINUOUS
10
6.34986
20
-4.0239
11
6.31049
21
-4.0239
0
LINE
8
BLACK
6
CONTINUOUS
10
6.31049
20
-4.0239
11
6.31049
21
-3.8743
0
LINE
8
BLACK
6
CONTINUOUS
10
6.31049
20
-3.8743
11
6.34986
21
-3.8743
0
LINE
8
BLACK
6
CONTINUOUS
10
6.34986
20
-3.8743
11
6.34986
21
-4.0239
0
LINE
8
BLACK
6
CONTINUOUS
10
5.78568
20
-4.01011
11
5.68528
21
-4.01011
0
LINE
8
BLACK
6
CONTINUOUS
10
5.68528
20
-4.01011
11
5.68528
21
-3.91171
0
LINE
8
BLACK
6
CONTINUOUS
10
5.68528
20
-3.91171
11
5.78568
21
-3.91171
0
LINE
8
BLACK
6
CONTINUOUS
10
5.78568
20
-3.91171
11
5.78568
21
-4.01011
0
LINE
8
BLACK
6
CONTINUOUS
10
5.58688
20
-4.01011
11
5.48648
21
-4.01011
0
LINE
8
BLACK
6
CONTINUOUS
10
5.48648
20
-4.01011
11
5.48648
21
-3.91171
0
LINE
8
BLACK
6
CONTINUOUS
10
5.48648
20
-3.91171
11
5.58688
21
-3.91171
0
LINE
8
BLACK
6
CONTINUOUS
10
5.58688
20
-3.91171
11
5.58688
21
-4.01011
0
LINE
8
BLACK
6
CONTINUOUS
10
6.26358
20
-3.99091
11
6.20858
21
-3.99091
0
LINE
8
BLACK
6
CONTINUOUS
10
6.20858
20
-3.99091
11
6.20858
21
-3.95591
0
LINE
8
BLACK
6
CONTINUOUS
10
6.20858
20
-3.95591
11
6.26358
21
-3.95591
0
LINE
8
BLACK
6
CONTINUOUS
10
6.26358
20
-3.95591
11
6.26358
21
-3.99091
0
LINE
8
BLACK
6
CONTINUOUS
10
6.16358
20
-3.99091
11
6.10858
21
-3.99091
0
LINE
8
BLACK
6
CONTINUOUS
10
6.10858
20
-3.99091
11
6.10858
21
-3.95591
0
LINE
8
BLACK
6
CONTINUOUS
10
6.10858
20
-3.95591
11
6.16358
21
-3.95591
0
LINE
8
BLACK
6
CONTINUOUS
10
6.16358
20
-3.95591
11
6.16358
21
-3.99091
0
LINE
8
BLACK
6
CONTINUOUS
10
6.4406
20
-3.98335
11
6.38155
21
-3.98335
0
LINE
8
BLACK
6
CONTINUOUS
10
6.38155
20
-3.98335
11
6.38155
21
-3.93217
0
LINE
8
BLACK
6
CONTINUOUS
10
6.38155
20
-3.93217
11
6.4406
21
-3.93217
0
LINE
8
BLACK
6
CONTINUOUS
10
6.4406
20
-3.93217
11
6.4406
21
-3.98335
0
LINE
8
BLACK
6
CONTINUOUS
10
4.89316
20
-3.93906
11
4.85773
21
-3.93906
0
LINE
8
BLACK
6
CONTINUOUS
10
4.85773
20
-3.93906
11
4.85773
21
-3.90756
0
LINE
8
BLACK
6
CONTINUOUS
10
4.85773
20
-3.90756
11
4.89316
21
-3.90756
0
LINE
8
BLACK
6
CONTINUOUS
10
4.89316
20
-3.90756
11
4.89316
21
-3.93906
0
LINE
8
BLACK
6
CONTINUOUS
10
6.06608
20
-3.93841
11
6.03108
21
-3.93841
0
LINE
8
BLACK
6
CONTINUOUS
10
6.03108
20
-3.93841
11
6.03108
21
-3.88341
0
LINE
8
BLACK
6
CONTINUOUS
10
6.03108
20
-3.88341
11
6.06608
21
-3.88341
0
LINE
8
BLACK
6
CONTINUOUS
10
6.06608
20
-3.88341
11
6.06608
21
-3.93841
0
LINE
8
BLACK
6
CONTINUOUS
10
5.99108
20
-3.93841
11
5.95608
21
-3.93841
0
LINE
8
BLACK
6
CONTINUOUS
10
5.95608
20
-3.93841
11
5.95608
21
-3.88341
0
LINE
8
BLACK
6
CONTINUOUS
10
5.95608
20
-3.88341
11
5.99108
21
-3.88341
0
LINE
8
BLACK
6
CONTINUOUS
10
5.99108
20
-3.88341
11
5.99108
21
-3.93841
0
LINE
8
BLACK
6
CONTINUOUS
10
6.16358
20
-3.91591
11
6.10858
21
-3.91591
0
LINE
8
BLACK
6
CONTINUOUS
10
6.10858
20
-3.91591
11
6.10858
21
-3.88091
0
LINE
8
BLACK
6
CONTINUOUS
10
6.10858
20
-3.88091
11
6.16358
21
-3.88091
0
LINE
8
BLACK
6
CONTINUOUS
10
6.16358
20
-3.88091
11
6.16358
21
-3.91591
0
LINE
8
BLACK
6
CONTINUOUS
10
6.26358
20
-3.91591
11
6.20858
21
-3.91591
0
LINE
8
BLACK
6
CONTINUOUS
10
6.20858
20
-3.91591
11
6.20858
21
-3.88091
0
LINE
8
BLACK
6
CONTINUOUS
10
6.20858
20
-3.88091
11
6.26358
21
-3.88091
0
LINE
8
BLACK
6
CONTINUOUS
10
6.26358
20
-3.88091
11
6.26358
21
-3.91591
0
LINE
8
BLACK
6
CONTINUOUS
10
4.81442
20
-3.90166
11
4.77899
21
-3.90166
0
LINE
8
BLACK
6
CONTINUOUS
10
4.77899
20
-3.90166
11
4.77899
21
-3.87016
0
LINE
8
BLACK
6
CONTINUOUS
10
4.77899
20
-3.87016
11
4.81442
21
-3.87016
0
LINE
8
BLACK
6
CONTINUOUS
10
4.81442
20
-3.87016
11
4.81442
21
-3.90166
0
LINE
8
BLACK
6
CONTINUOUS
10
5.06858
20
-3.88841
11
5.01358
21
-3.88841
0
LINE
8
BLACK
6
CONTINUOUS
10
5.01358
20
-3.88841
11
5.01358
21
-3.85341
0
LINE
8
BLACK
6
CONTINUOUS
10
5.01358
20
-3.85341
11
5.06858
21
-3.85341
0
LINE
8
BLACK
6
CONTINUOUS
10
5.06858
20
-3.85341
11
5.06858
21
-3.88841
0
LINE
8
BLACK
6
CONTINUOUS
10
4.97858
20
-3.88591
11
4.92358
21
-3.88591
0
LINE
8
BLACK
6
CONTINUOUS
10
4.92358
20
-3.88591
11
4.92358
21
-3.85091
0
LINE
8
BLACK
6
CONTINUOUS
10
4.92358
20
-3.85091
11
4.97858
21
-3.85091
0
LINE
8
BLACK
6
CONTINUOUS
10
4.97858
20
-3.85091
11
4.97858
21
-3.88591
0
LINE
8
BLACK
6
CONTINUOUS
10
5.14005
20
-3.88406
11
5.10462
21
-3.88406
0
LINE
8
BLACK
6
CONTINUOUS
10
5.10462
20
-3.88406
11
5.10462
21
-3.85256
0
LINE
8
BLACK
6
CONTINUOUS
10
5.10462
20
-3.85256
11
5.14005
21
-3.85256
0
LINE
8
BLACK
6
CONTINUOUS
10
5.14005
20
-3.85256
11
5.14005
21
-3.88406
0
LINE
8
BLACK
6
CONTINUOUS
10
6.4406
20
-3.86465
11
6.38155
21
-3.86465
0
LINE
8
BLACK
6
CONTINUOUS
10
6.38155
20
-3.86465
11
6.38155
21
-3.81347
0
LINE
8
BLACK
6
CONTINUOUS
10
6.38155
20
-3.81347
11
6.4406
21
-3.81347
0
LINE
8
BLACK
6
CONTINUOUS
10
6.4406
20
-3.81347
11
6.4406
21
-3.86465
0
LINE
8
BLACK
6
CONTINUOUS
10
4.89316
20
-3.86426
11
4.85773
21
-3.86426
0
LINE
8
BLACK
6
CONTINUOUS
10
4.85773
20
-3.86426
11
4.85773
21
-3.83276
0
LINE
8
BLACK
6
CONTINUOUS
10
4.85773
20
-3.83276
11
4.89316
21
-3.83276
0
LINE
8
BLACK
6
CONTINUOUS
10
4.89316
20
-3.83276
11
4.89316
21
-3.86426
0
LINE
8
BLACK
6
CONTINUOUS
10
5.21879
20
-3.84666
11
5.18336
21
-3.84666
0
LINE
8
BLACK
6
CONTINUOUS
10
5.18336
20
-3.84666
11
5.18336
21
-3.81516
0
LINE
8
BLACK
6
CONTINUOUS
10
5.18336
20
-3.81516
11
5.21879
21
-3.81516
0
LINE
8
BLACK
6
CONTINUOUS
10
5.21879
20
-3.81516
11
5.21879
21
-3.84666
0
LINE
8
BLACK
6
CONTINUOUS
10
5.98858
20
-3.84091
11
5.93358
21
-3.84091
0
LINE
8
BLACK
6
CONTINUOUS
10
5.93358
20
-3.84091
11
5.93358
21
-3.80591
0
LINE
8
BLACK
6
CONTINUOUS
10
5.93358
20
-3.80591
11
5.98858
21
-3.80591
0
LINE
8
BLACK
6
CONTINUOUS
10
5.98858
20
-3.80591
11
5.98858
21
-3.84091
0
LINE
8
BLACK
6
CONTINUOUS
10
6.26993
20
-3.83611
11
6.20852
21
-3.83611
0
LINE
8
BLACK
6
CONTINUOUS
10
6.20852
20
-3.83611
11
6.20852
21
-3.81052
0
LINE
8
BLACK
6
CONTINUOUS
10
6.20852
20
-3.81052
11
6.26993
21
-3.81052
0
LINE
8
BLACK
6
CONTINUOUS
10
6.26993
20
-3.81052
11
6.26993
21
-3.83611
0
LINE
8
BLACK
6
CONTINUOUS
10
6.16363
20
-3.83611
11
6.10222
21
-3.83611
0
LINE
8
BLACK
6
CONTINUOUS
10
6.10222
20
-3.83611
11
6.10222
21
-3.81052
0
LINE
8
BLACK
6
CONTINUOUS
10
6.10222
20
-3.81052
11
6.16363
21
-3.81052
0
LINE
8
BLACK
6
CONTINUOUS
10
6.16363
20
-3.81052
11
6.16363
21
-3.83611
0
LINE
8
BLACK
6
CONTINUOUS
10
5.06858
20
-3.81341
11
5.01358
21
-3.81341
0
LINE
8
BLACK
6
CONTINUOUS
10
5.01358
20
-3.81341
11
5.01358
21
-3.77841
0
LINE
8
BLACK
6
CONTINUOUS
10
5.01358
20
-3.77841
11
5.06858
21
-3.77841
0
LINE
8
BLACK
6
CONTINUOUS
10
5.06858
20
-3.77841
11
5.06858
21
-3.81341
0
LINE
8
BLACK
6
CONTINUOUS
10
4.97858
20
-3.81091
11
4.92358
21
-3.81091
0
LINE
8
BLACK
6
CONTINUOUS
10
4.92358
20
-3.81091
11
4.92358
21
-3.77591
0
LINE
8
BLACK
6
CONTINUOUS
10
4.92358
20
-3.77591
11
4.97858
21
-3.77591
0
LINE
8
BLACK
6
CONTINUOUS
10
4.97858
20
-3.77591
11
4.97858
21
-3.81091
0
LINE
8
BLACK
6
CONTINUOUS
10
5.14005
20
-3.80926
11
5.10462
21
-3.80926
0
LINE
8
BLACK
6
CONTINUOUS
10
5.10462
20
-3.80926
11
5.10462
21
-3.77776
0
LINE
8
BLACK
6
CONTINUOUS
10
5.10462
20
-3.77776
11
5.14005
21
-3.77776
0
LINE
8
BLACK
6
CONTINUOUS
10
5.14005
20
-3.77776
11
5.14005
21
-3.80926
0
LINE
8
BLACK
6
CONTINUOUS
10
6.47013
20
-3.79969
11
6.35202
21
-3.79969
0
LINE
8
BLACK
6
CONTINUOUS
10
6.35202
20
-3.79969
11
6.35202
21
-3.77213
0
LINE
8
BLACK
6
CONTINUOUS
10
6.35202
20
-3.77213
11
6.47013
21
-3.77213
0
LINE
8
BLACK
6
CONTINUOUS
10
6.47013
20
-3.77213
11
6.47013
21
-3.79969
0
LINE
8
BLACK
6
CONTINUOUS
10
6.16363
20
-3.79871
11
6.10222
21
-3.79871
0
LINE
8
BLACK
6
CONTINUOUS
10
6.10222
20
-3.79871
11
6.10222
21
-3.77312
0
LINE
8
BLACK
6
CONTINUOUS
10
6.10222
20
-3.77312
11
6.16363
21
-3.77312
0
LINE
8
BLACK
6
CONTINUOUS
10
6.16363
20
-3.77312
11
6.16363
21
-3.79871
0
LINE
8
BLACK
6
CONTINUOUS
10
4.80358
20
-3.78841
11
4.76858
21
-3.78841
0
LINE
8
BLACK
6
CONTINUOUS
10
4.76858
20
-3.78841
11
4.76858
21
-3.73341
0
LINE
8
BLACK
6
CONTINUOUS
10
4.76858
20
-3.73341
11
4.80358
21
-3.73341
0
LINE
8
BLACK
6
CONTINUOUS
10
4.80358
20
-3.73341
11
4.80358
21
-3.78841
0
LINE
8
BLACK
6
CONTINUOUS
10
4.87858
20
-3.78841
11
4.84358
21
-3.78841
0
LINE
8
BLACK
6
CONTINUOUS
10
4.84358
20
-3.78841
11
4.84358
21
-3.73341
0
LINE
8
BLACK
6
CONTINUOUS
10
4.84358
20
-3.73341
11
4.87858
21
-3.73341
0
LINE
8
BLACK
6
CONTINUOUS
10
4.87858
20
-3.73341
11
4.87858
21
-3.78841
0
LINE
8
BLACK
6
CONTINUOUS
10
4.62545
20
-3.78768
11
4.58608
21
-3.78768
0
LINE
8
BLACK
6
CONTINUOUS
10
4.58608
20
-3.78768
11
4.58608
21
-3.63808
0
LINE
8
BLACK
6
CONTINUOUS
10
4.58608
20
-3.63808
11
4.62545
21
-3.63808
0
LINE
8
BLACK
6
CONTINUOUS
10
4.62545
20
-3.63808
11
4.62545
21
-3.78768
0
LINE
8
BLACK
6
CONTINUOUS
10
6.34986
20
-3.78768
11
6.31049
21
-3.78768
0
LINE
8
BLACK
6
CONTINUOUS
10
6.31049
20
-3.78768
11
6.31049
21
-3.63808
0
LINE
8
BLACK
6
CONTINUOUS
10
6.31049
20
-3.63808
11
6.34986
21
-3.63808
0
LINE
8
BLACK
6
CONTINUOUS
10
6.34986
20
-3.63808
11
6.34986
21
-3.78768
0
LINE
8
BLACK
6
CONTINUOUS
10
5.98858
20
-3.76591
11
5.93358
21
-3.76591
0
LINE
8
BLACK
6
CONTINUOUS
10
5.93358
20
-3.76591
11
5.93358
21
-3.73091
0
LINE
8
BLACK
6
CONTINUOUS
10
5.93358
20
-3.73091
11
5.98858
21
-3.73091
0
LINE
8
BLACK
6
CONTINUOUS
10
5.98858
20
-3.73091
11
5.98858
21
-3.76591
0
LINE
8
BLACK
6
CONTINUOUS
10
6.26993
20
-3.7613
11
6.20852
21
-3.7613
0
LINE
8
BLACK
6
CONTINUOUS
10
6.20852
20
-3.7613
11
6.20852
21
-3.73571
0
LINE
8
BLACK
6
CONTINUOUS
10
6.20852
20
-3.73571
11
6.26993
21
-3.73571
0
LINE
8
BLACK
6
CONTINUOUS
10
6.26993
20
-3.73571
11
6.26993
21
-3.7613
0
LINE
8
BLACK
6
CONTINUOUS
10
6.16363
20
-3.7613
11
6.10222
21
-3.7613
0
LINE
8
BLACK
6
CONTINUOUS
10
6.10222
20
-3.7613
11
6.10222
21
-3.73571
0
LINE
8
BLACK
6
CONTINUOUS
10
6.10222
20
-3.73571
11
6.16363
21
-3.73571
0
LINE
8
BLACK
6
CONTINUOUS
10
6.16363
20
-3.73571
11
6.16363
21
-3.7613
0
LINE
8
BLACK
6
CONTINUOUS
10
6.4406
20
-3.75835
11
6.38155
21
-3.75835
0
LINE
8
BLACK
6
CONTINUOUS
10
6.38155
20
-3.75835
11
6.38155
21
-3.70717
0
LINE
8
BLACK
6
CONTINUOUS
10
6.38155
20
-3.70717
11
6.4406
21
-3.70717
0
LINE
8
BLACK
6
CONTINUOUS
10
6.4406
20
-3.70717
11
6.4406
21
-3.75835
0
LINE
8
BLACK
6
CONTINUOUS
10
5.64858
20
-3.71841
11
5.59358
21
-3.71841
0
LINE
8
BLACK
6
CONTINUOUS
10
5.59358
20
-3.71841
11
5.59358
21
-3.68341
0
LINE
8
BLACK
6
CONTINUOUS
10
5.59358
20
-3.68341
11
5.64858
21
-3.68341
0
LINE
8
BLACK
6
CONTINUOUS
10
5.64858
20
-3.68341
11
5.64858
21
-3.71841
0
LINE
8
BLACK
6
CONTINUOUS
10
5.55858
20
-3.71841
11
5.50358
21
-3.71841
0
LINE
8
BLACK
6
CONTINUOUS
10
5.50358
20
-3.71841
11
5.50358
21
-3.68341
0
LINE
8
BLACK
6
CONTINUOUS
10
5.50358
20
-3.68341
11
5.55858
21
-3.68341
0
LINE
8
BLACK
6
CONTINUOUS
10
5.55858
20
-3.68341
11
5.55858
21
-3.71841
0
LINE
8
BLACK
6
CONTINUOUS
10
5.35858
20
-3.71841
11
5.30358
21
-3.71841
0
LINE
8
BLACK
6
CONTINUOUS
10
5.30358
20
-3.71841
11
5.30358
21
-3.68341
0
LINE
8
BLACK
6
CONTINUOUS
10
5.30358
20
-3.68341
11
5.35858
21
-3.68341
0
LINE
8
BLACK
6
CONTINUOUS
10
5.35858
20
-3.68341
11
5.35858
21
-3.71841
0
LINE
8
BLACK
6
CONTINUOUS
10
5.27858
20
-3.71841
11
5.22358
21
-3.71841
0
LINE
8
BLACK
6
CONTINUOUS
10
5.22358
20
-3.71841
11
5.22358
21
-3.68341
0
LINE
8
BLACK
6
CONTINUOUS
10
5.22358
20
-3.68341
11
5.27858
21
-3.68341
0
LINE
8
BLACK
6
CONTINUOUS
10
5.27858
20
-3.68341
11
5.27858
21
-3.71841
0
LINE
8
BLACK
6
CONTINUOUS
10
6.26358
20
-3.69091
11
6.20858
21
-3.69091
0
LINE
8
BLACK
6
CONTINUOUS
10
6.20858
20
-3.69091
11
6.20858
21
-3.65591
0
LINE
8
BLACK
6
CONTINUOUS
10
6.20858
20
-3.65591
11
6.26358
21
-3.65591
0
LINE
8
BLACK
6
CONTINUOUS
10
6.26358
20
-3.65591
11
6.26358
21
-3.69091
0
LINE
8
BLACK
6
CONTINUOUS
10
4.87858
20
-3.68841
11
4.84358
21
-3.68841
0
LINE
8
BLACK
6
CONTINUOUS
10
4.84358
20
-3.68841
11
4.84358
21
-3.63341
0
LINE
8
BLACK
6
CONTINUOUS
10
4.84358
20
-3.63341
11
4.87858
21
-3.63341
0
LINE
8
BLACK
6
CONTINUOUS
10
4.87858
20
-3.63341
11
4.87858
21
-3.68841
0
LINE
8
BLACK
6
CONTINUOUS
10
5.01608
20
-3.68841
11
4.98108
21
-3.68841
0
LINE
8
BLACK
6
CONTINUOUS
10
4.98108
20
-3.68841
11
4.98108
21
-3.63341
0
LINE
8
BLACK
6
CONTINUOUS
10
4.98108
20
-3.63341
11
5.01608
21
-3.63341
0
LINE
8
BLACK
6
CONTINUOUS
10
5.01608
20
-3.63341
11
5.01608
21
-3.68841
0
LINE
8
BLACK
6
CONTINUOUS
10
4.94108
20
-3.68841
11
4.90608
21
-3.68841
0
LINE
8
BLACK
6
CONTINUOUS
10
4.90608
20
-3.68841
11
4.90608
21
-3.63341
0
LINE
8
BLACK
6
CONTINUOUS
10
4.90608
20
-3.63341
11
4.94108
21
-3.63341
0
LINE
8
BLACK
6
CONTINUOUS
10
4.94108
20
-3.63341
11
4.94108
21
-3.68841
0
LINE
8
BLACK
6
CONTINUOUS
10
4.80358
20
-3.68841
11
4.76858
21
-3.68841
0
LINE
8
BLACK
6
CONTINUOUS
10
4.76858
20
-3.68841
11
4.76858
21
-3.63341
0
LINE
8
BLACK
6
CONTINUOUS
10
4.76858
20
-3.63341
11
4.80358
21
-3.63341
0
LINE
8
BLACK
6
CONTINUOUS
10
4.80358
20
-3.63341
11
4.80358
21
-3.68841
0
LINE
8
BLACK
6
CONTINUOUS
10
5.18858
20
-3.67841
11
5.13358
21
-3.67841
0
LINE
8
BLACK
6
CONTINUOUS
10
5.13358
20
-3.67841
11
5.13358
21
-3.64341
0
LINE
8
BLACK
6
CONTINUOUS
10
5.13358
20
-3.64341
11
5.18858
21
-3.64341
0
LINE
8
BLACK
6
CONTINUOUS
10
5.18858
20
-3.64341
11
5.18858
21
-3.67841
0
LINE
8
BLACK
6
CONTINUOUS
10
5.76529
20
-3.67772
11
5.70426
21
-3.67772
0
LINE
8
BLACK
6
CONTINUOUS
10
5.70426
20
-3.67772
11
5.70426
21
-3.6541
0
LINE
8
BLACK
6
CONTINUOUS
10
5.70426
20
-3.6541
11
5.76529
21
-3.6541
0
LINE
8
BLACK
6
CONTINUOUS
10
5.76529
20
-3.6541
11
5.76529
21
-3.67772
0
LINE
8
BLACK
6
CONTINUOUS
10
5.97789
20
-3.67772
11
5.91686
21
-3.67772
0
LINE
8
BLACK
6
CONTINUOUS
10
5.91686
20
-3.67772
11
5.91686
21
-3.6541
0
LINE
8
BLACK
6
CONTINUOUS
10
5.91686
20
-3.6541
11
5.97789
21
-3.6541
0
LINE
8
BLACK
6
CONTINUOUS
10
5.97789
20
-3.6541
11
5.97789
21
-3.67772
0
LINE
8
BLACK
6
CONTINUOUS
10
6.06858
20
-3.67591
11
6.01358
21
-3.67591
0
LINE
8
BLACK
6
CONTINUOUS
10
6.01358
20
-3.67591
11
6.01358
21
-3.64091
0
LINE
8
BLACK
6
CONTINUOUS
10
6.01358
20
-3.64091
11
6.06858
21
-3.64091
0
LINE
8
BLACK
6
CONTINUOUS
10
6.06858
20
-3.64091
11
6.06858
21
-3.67591
0
LINE
8
BLACK
6
CONTINUOUS
10
6.15858
20
-3.67591
11
6.10358
21
-3.67591
0
LINE
8
BLACK
6
CONTINUOUS
10
6.10358
20
-3.67591
11
6.10358
21
-3.64091
0
LINE
8
BLACK
6
CONTINUOUS
10
6.10358
20
-3.64091
11
6.15858
21
-3.64091
0
LINE
8
BLACK
6
CONTINUOUS
10
6.15858
20
-3.64091
11
6.15858
21
-3.67591
0
LINE
8
BLACK
6
CONTINUOUS
10
5.35858
20
-3.64341
11
5.30358
21
-3.64341
0
LINE
8
BLACK
6
CONTINUOUS
10
5.30358
20
-3.64341
11
5.30358
21
-3.60841
0
LINE
8
BLACK
6
CONTINUOUS
10
5.30358
20
-3.60841
11
5.35858
21
-3.60841
0
LINE
8
BLACK
6
CONTINUOUS
10
5.35858
20
-3.60841
11
5.35858
21
-3.64341
0
LINE
8
BLACK
6
CONTINUOUS
10
5.64858
20
-3.64341
11
5.59358
21
-3.64341
0
LINE
8
BLACK
6
CONTINUOUS
10
5.59358
20
-3.64341
11
5.59358
21
-3.60841
0
LINE
8
BLACK
6
CONTINUOUS
10
5.59358
20
-3.60841
11
5.64858
21
-3.60841
0
LINE
8
BLACK
6
CONTINUOUS
10
5.64858
20
-3.60841
11
5.64858
21
-3.64341
0
LINE
8
BLACK
6
CONTINUOUS
10
5.55858
20
-3.64341
11
5.50358
21
-3.64341
0
LINE
8
BLACK
6
CONTINUOUS
10
5.50358
20
-3.64341
11
5.50358
21
-3.60841
0
LINE
8
BLACK
6
CONTINUOUS
10
5.50358
20
-3.60841
11
5.55858
21
-3.60841
0
LINE
8
BLACK
6
CONTINUOUS
10
5.55858
20
-3.60841
11
5.55858
21
-3.64341
0
LINE
8
BLACK
6
CONTINUOUS
10
5.27858
20
-3.64341
11
5.22358
21
-3.64341
0
LINE
8
BLACK
6
CONTINUOUS
10
5.22358
20
-3.64341
11
5.22358
21
-3.60841
0
LINE
8
BLACK
6
CONTINUOUS
10
5.22358
20
-3.60841
11
5.27858
21
-3.60841
0
LINE
8
BLACK
6
CONTINUOUS
10
5.27858
20
-3.60841
11
5.27858
21
-3.64341
0
LINE
8
BLACK
6
CONTINUOUS
10
5.97789
20
-3.62772
11
5.91686
21
-3.62772
0
LINE
8
BLACK
6
CONTINUOUS
10
5.91686
20
-3.62772
11
5.91686
21
-3.6041
0
LINE
8
BLACK
6
CONTINUOUS
10
5.91686
20
-3.6041
11
5.97789
21
-3.6041
0
LINE
8
BLACK
6
CONTINUOUS
10
5.97789
20
-3.6041
11
5.97789
21
-3.62772
0
LINE
8
BLACK
6
CONTINUOUS
10
5.76529
20
-3.62772
11
5.70426
21
-3.62772
0
LINE
8
BLACK
6
CONTINUOUS
10
5.70426
20
-3.62772
11
5.70426
21
-3.6041
0
LINE
8
BLACK
6
CONTINUOUS
10
5.70426
20
-3.6041
11
5.76529
21
-3.6041
0
LINE
8
BLACK
6
CONTINUOUS
10
5.76529
20
-3.6041
11
5.76529
21
-3.62772
0
LINE
8
BLACK
6
CONTINUOUS
10
6.26358
20
-3.61591
11
6.20858
21
-3.61591
0
LINE
8
BLACK
6
CONTINUOUS
10
6.20858
20
-3.61591
11
6.20858
21
-3.58091
0
LINE
8
BLACK
6
CONTINUOUS
10
6.20858
20
-3.58091
11
6.26358
21
-3.58091
0
LINE
8
BLACK
6
CONTINUOUS
10
6.26358
20
-3.58091
11
6.26358
21
-3.61591
0
LINE
8
BLACK
6
CONTINUOUS
10
5.18858
20
-3.60341
11
5.13358
21
-3.60341
0
LINE
8
BLACK
6
CONTINUOUS
10
5.13358
20
-3.60341
11
5.13358
21
-3.56841
0
LINE
8
BLACK
6
CONTINUOUS
10
5.13358
20
-3.56841
11
5.18858
21
-3.56841
0
LINE
8
BLACK
6
CONTINUOUS
10
5.18858
20
-3.56841
11
5.18858
21
-3.60341
0
LINE
8
BLACK
6
CONTINUOUS
10
6.15858
20
-3.60091
11
6.10358
21
-3.60091
0
LINE
8
BLACK
6
CONTINUOUS
10
6.10358
20
-3.60091
11
6.10358
21
-3.56591
0
LINE
8
BLACK
6
CONTINUOUS
10
6.10358
20
-3.56591
11
6.15858
21
-3.56591
0
LINE
8
BLACK
6
CONTINUOUS
10
6.15858
20
-3.56591
11
6.15858
21
-3.60091
0
LINE
8
BLACK
6
CONTINUOUS
10
6.06858
20
-3.60091
11
6.01358
21
-3.60091
0
LINE
8
BLACK
6
CONTINUOUS
10
6.01358
20
-3.60091
11
6.01358
21
-3.56591
0
LINE
8
BLACK
6
CONTINUOUS
10
6.01358
20
-3.56591
11
6.06858
21
-3.56591
0
LINE
8
BLACK
6
CONTINUOUS
10
6.06858
20
-3.56591
11
6.06858
21
-3.60091
0
LINE
8
BLACK
6
CONTINUOUS
10
5.09789
20
-3.59772
11
5.03686
21
-3.59772
0
LINE
8
BLACK
6
CONTINUOUS
10
5.03686
20
-3.59772
11
5.03686
21
-3.5741
0
LINE
8
BLACK
6
CONTINUOUS
10
5.03686
20
-3.5741
11
5.09789
21
-3.5741
0
LINE
8
BLACK
6
CONTINUOUS
10
5.09789
20
-3.5741
11
5.09789
21
-3.59772
0
LINE
8
BLACK
6
CONTINUOUS
10
4.88529
20
-3.59772
11
4.82426
21
-3.59772
0
LINE
8
BLACK
6
CONTINUOUS
10
4.82426
20
-3.59772
11
4.82426
21
-3.5741
0
LINE
8
BLACK
6
CONTINUOUS
10
4.82426
20
-3.5741
11
4.88529
21
-3.5741
0
LINE
8
BLACK
6
CONTINUOUS
10
4.88529
20
-3.5741
11
4.88529
21
-3.59772
0
LINE
8
BLACK
6
CONTINUOUS
10
5.28858
20
-3.57841
11
5.23358
21
-3.57841
0
LINE
8
BLACK
6
CONTINUOUS
10
5.23358
20
-3.57841
11
5.23358
21
-3.54341
0
LINE
8
BLACK
6
CONTINUOUS
10
5.23358
20
-3.54341
11
5.28858
21
-3.54341
0
LINE
8
BLACK
6
CONTINUOUS
10
5.28858
20
-3.54341
11
5.28858
21
-3.57841
0
LINE
8
BLACK
6
CONTINUOUS
10
5.37858
20
-3.57841
11
5.32358
21
-3.57841
0
LINE
8
BLACK
6
CONTINUOUS
10
5.32358
20
-3.57841
11
5.32358
21
-3.54341
0
LINE
8
BLACK
6
CONTINUOUS
10
5.32358
20
-3.54341
11
5.37858
21
-3.54341
0
LINE
8
BLACK
6
CONTINUOUS
10
5.37858
20
-3.54341
11
5.37858
21
-3.57841
0
LINE
8
BLACK
6
CONTINUOUS
10
5.76529
20
-3.57772
11
5.70426
21
-3.57772
0
LINE
8
BLACK
6
CONTINUOUS
10
5.70426
20
-3.57772
11
5.70426
21
-3.5541
0
LINE
8
BLACK
6
CONTINUOUS
10
5.70426
20
-3.5541
11
5.76529
21
-3.5541
0
LINE
8
BLACK
6
CONTINUOUS
10
5.76529
20
-3.5541
11
5.76529
21
-3.57772
0
LINE
8
BLACK
6
CONTINUOUS
10
5.97789
20
-3.57772
11
5.91686
21
-3.57772
0
LINE
8
BLACK
6
CONTINUOUS
10
5.91686
20
-3.57772
11
5.91686
21
-3.5541
0
LINE
8
BLACK
6
CONTINUOUS
10
5.91686
20
-3.5541
11
5.97789
21
-3.5541
0
LINE
8
BLACK
6
CONTINUOUS
10
5.97789
20
-3.5541
11
5.97789
21
-3.57772
0
LINE
8
BLACK
6
CONTINUOUS
10
5.55858
20
-3.57341
11
5.50358
21
-3.57341
0
LINE
8
BLACK
6
CONTINUOUS
10
5.50358
20
-3.57341
11
5.50358
21
-3.53841
0
LINE
8
BLACK
6
CONTINUOUS
10
5.50358
20
-3.53841
11
5.55858
21
-3.53841
0
LINE
8
BLACK
6
CONTINUOUS
10
5.55858
20
-3.53841
11
5.55858
21
-3.57341
0
LINE
8
BLACK
6
CONTINUOUS
10
5.47858
20
-3.57341
11
5.42358
21
-3.57341
0
LINE
8
BLACK
6
CONTINUOUS
10
5.42358
20
-3.57341
11
5.42358
21
-3.53841
0
LINE
8
BLACK
6
CONTINUOUS
10
5.42358
20
-3.53841
11
5.47858
21
-3.53841
0
LINE
8
BLACK
6
CONTINUOUS
10
5.47858
20
-3.53841
11
5.47858
21
-3.57341
0
LINE
8
BLACK
6
CONTINUOUS
10
4.62545
20
-3.55146
11
4.58608
21
-3.55146
0
LINE
8
BLACK
6
CONTINUOUS
10
4.58608
20
-3.55146
11
4.58608
21
-3.40186
0
LINE
8
BLACK
6
CONTINUOUS
10
4.58608
20
-3.40186
11
4.62545
21
-3.40186
0
LINE
8
BLACK
6
CONTINUOUS
10
4.62545
20
-3.40186
11
4.62545
21
-3.55146
0
LINE
8
BLACK
6
CONTINUOUS
10
6.34986
20
-3.55146
11
6.31049
21
-3.55146
0
LINE
8
BLACK
6
CONTINUOUS
10
6.31049
20
-3.55146
11
6.31049
21
-3.40186
0
LINE
8
BLACK
6
CONTINUOUS
10
6.31049
20
-3.40186
11
6.34986
21
-3.40186
0
LINE
8
BLACK
6
CONTINUOUS
10
6.34986
20
-3.40186
11
6.34986
21
-3.55146
0
LINE
8
BLACK
6
CONTINUOUS
10
4.88529
20
-3.54772
11
4.82426
21
-3.54772
0
LINE
8
BLACK
6
CONTINUOUS
10
4.82426
20
-3.54772
11
4.82426
21
-3.5241
0
LINE
8
BLACK
6
CONTINUOUS
10
4.82426
20
-3.5241
11
4.88529
21
-3.5241
0
LINE
8
BLACK
6
CONTINUOUS
10
4.88529
20
-3.5241
11
4.88529
21
-3.54772
0
LINE
8
BLACK
6
CONTINUOUS
10
5.09789
20
-3.54772
11
5.03686
21
-3.54772
0
LINE
8
BLACK
6
CONTINUOUS
10
5.03686
20
-3.54772
11
5.03686
21
-3.5241
0
LINE
8
BLACK
6
CONTINUOUS
10
5.03686
20
-3.5241
11
5.09789
21
-3.5241
0
LINE
8
BLACK
6
CONTINUOUS
10
5.09789
20
-3.5241
11
5.09789
21
-3.54772
0
LINE
8
BLACK
6
CONTINUOUS
10
5.65858
20
-3.54091
11
5.60358
21
-3.54091
0
LINE
8
BLACK
6
CONTINUOUS
10
5.60358
20
-3.54091
11
5.60358
21
-3.50591
0
LINE
8
BLACK
6
CONTINUOUS
10
5.60358
20
-3.50591
11
5.65858
21
-3.50591
0
LINE
8
BLACK
6
CONTINUOUS
10
5.65858
20
-3.50591
11
5.65858
21
-3.54091
0
LINE
8
BLACK
6
CONTINUOUS
10
6.13108
20
-3.52841
11
6.09608
21
-3.52841
0
LINE
8
BLACK
6
CONTINUOUS
10
6.09608
20
-3.52841
11
6.09608
21
-3.47341
0
LINE
8
BLACK
6
CONTINUOUS
10
6.09608
20
-3.47341
11
6.13108
21
-3.47341
0
LINE
8
BLACK
6
CONTINUOUS
10
6.13108
20
-3.47341
11
6.13108
21
-3.52841
0
LINE
8
BLACK
6
CONTINUOUS
10
6.20608
20
-3.52841
11
6.17108
21
-3.52841
0
LINE
8
BLACK
6
CONTINUOUS
10
6.17108
20
-3.52841
11
6.17108
21
-3.47341
0
LINE
8
BLACK
6
CONTINUOUS
10
6.17108
20
-3.47341
11
6.20608
21
-3.47341
0
LINE
8
BLACK
6
CONTINUOUS
10
6.20608
20
-3.47341
11
6.20608
21
-3.52841
0
LINE
8
BLACK
6
CONTINUOUS
10
5.97789
20
-3.52772
11
5.91686
21
-3.52772
0
LINE
8
BLACK
6
CONTINUOUS
10
5.91686
20
-3.52772
11
5.91686
21
-3.5041
0
LINE
8
BLACK
6
CONTINUOUS
10
5.91686
20
-3.5041
11
5.97789
21
-3.5041
0
LINE
8
BLACK
6
CONTINUOUS
10
5.97789
20
-3.5041
11
5.97789
21
-3.52772
0
LINE
8
BLACK
6
CONTINUOUS
10
5.76529
20
-3.52772
11
5.70426
21
-3.52772
0
LINE
8
BLACK
6
CONTINUOUS
10
5.70426
20
-3.52772
11
5.70426
21
-3.5041
0
LINE
8
BLACK
6
CONTINUOUS
10
5.70426
20
-3.5041
11
5.76529
21
-3.5041
0
LINE
8
BLACK
6
CONTINUOUS
10
5.76529
20
-3.5041
11
5.76529
21
-3.52772
0
LINE
8
BLACK
6
CONTINUOUS
10
6.06858
20
-3.52591
11
6.01358
21
-3.52591
0
LINE
8
BLACK
6
CONTINUOUS
10
6.01358
20
-3.52591
11
6.01358
21
-3.49091
0
LINE
8
BLACK
6
CONTINUOUS
10
6.01358
20
-3.49091
11
6.06858
21
-3.49091
0
LINE
8
BLACK
6
CONTINUOUS
10
6.06858
20
-3.49091
11
6.06858
21
-3.52591
0
LINE
8
BLACK
6
CONTINUOUS
10
6.4406
20
-3.51465
11
6.38155
21
-3.51465
0
LINE
8
BLACK
6
CONTINUOUS
10
6.38155
20
-3.51465
11
6.38155
21
-3.46347
0
LINE
8
BLACK
6
CONTINUOUS
10
6.38155
20
-3.46347
11
6.4406
21
-3.46347
0
LINE
8
BLACK
6
CONTINUOUS
10
6.4406
20
-3.46347
11
6.4406
21
-3.51465
0
LINE
8
BLACK
6
CONTINUOUS
10
5.28858
20
-3.50341
11
5.23358
21
-3.50341
0
LINE
8
BLACK
6
CONTINUOUS
10
5.23358
20
-3.50341
11
5.23358
21
-3.46841
0
LINE
8
BLACK
6
CONTINUOUS
10
5.23358
20
-3.46841
11
5.28858
21
-3.46841
0
LINE
8
BLACK
6
CONTINUOUS
10
5.28858
20
-3.46841
11
5.28858
21
-3.50341
0
LINE
8
BLACK
6
CONTINUOUS
10
5.37858
20
-3.50341
11
5.32358
21
-3.50341
0
LINE
8
BLACK
6
CONTINUOUS
10
5.32358
20
-3.50341
11
5.32358
21
-3.46841
0
LINE
8
BLACK
6
CONTINUOUS
10
5.32358
20
-3.46841
11
5.37858
21
-3.46841
0
LINE
8
BLACK
6
CONTINUOUS
10
5.37858
20
-3.46841
11
5.37858
21
-3.50341
0
LINE
8
BLACK
6
CONTINUOUS
10
5.47858
20
-3.49841
11
5.42358
21
-3.49841
0
LINE
8
BLACK
6
CONTINUOUS
10
5.42358
20
-3.49841
11
5.42358
21
-3.46341
0
LINE
8
BLACK
6
CONTINUOUS
10
5.42358
20
-3.46341
11
5.47858
21
-3.46341
0
LINE
8
BLACK
6
CONTINUOUS
10
5.47858
20
-3.46341
11
5.47858
21
-3.49841
0
LINE
8
BLACK
6
CONTINUOUS
10
5.55858
20
-3.49841
11
5.50358
21
-3.49841
0
LINE
8
BLACK
6
CONTINUOUS
10
5.50358
20
-3.49841
11
5.50358
21
-3.46341
0
LINE
8
BLACK
6
CONTINUOUS
10
5.50358
20
-3.46341
11
5.55858
21
-3.46341
0
LINE
8
BLACK
6
CONTINUOUS
10
5.55858
20
-3.46341
11
5.55858
21
-3.49841
0
LINE
8
BLACK
6
CONTINUOUS
10
5.09789
20
-3.49772
11
5.03686
21
-3.49772
0
LINE
8
BLACK
6
CONTINUOUS
10
5.03686
20
-3.49772
11
5.03686
21
-3.4741
0
LINE
8
BLACK
6
CONTINUOUS
10
5.03686
20
-3.4741
11
5.09789
21
-3.4741
0
LINE
8
BLACK
6
CONTINUOUS
10
5.09789
20
-3.4741
11
5.09789
21
-3.49772
0
LINE
8
BLACK
6
CONTINUOUS
10
4.88529
20
-3.49772
11
4.82426
21
-3.49772
0
LINE
8
BLACK
6
CONTINUOUS
10
4.82426
20
-3.49772
11
4.82426
21
-3.4741
0
LINE
8
BLACK
6
CONTINUOUS
10
4.82426
20
-3.4741
11
4.88529
21
-3.4741
0
LINE
8
BLACK
6
CONTINUOUS
10
4.88529
20
-3.4741
11
4.88529
21
-3.49772
0
LINE
8
BLACK
6
CONTINUOUS
10
4.78858
20
-3.47841
11
4.73358
21
-3.47841
0
LINE
8
BLACK
6
CONTINUOUS
10
4.73358
20
-3.47841
11
4.73358
21
-3.44341
0
LINE
8
BLACK
6
CONTINUOUS
10
4.73358
20
-3.44341
11
4.78858
21
-3.44341
0
LINE
8
BLACK
6
CONTINUOUS
10
4.78858
20
-3.44341
11
4.78858
21
-3.47841
0
LINE
8
BLACK
6
CONTINUOUS
10
5.65858
20
-3.46591
11
5.60358
21
-3.46591
0
LINE
8
BLACK
6
CONTINUOUS
10
5.60358
20
-3.46591
11
5.60358
21
-3.43091
0
LINE
8
BLACK
6
CONTINUOUS
10
5.60358
20
-3.43091
11
5.65858
21
-3.43091
0
LINE
8
BLACK
6
CONTINUOUS
10
5.65858
20
-3.43091
11
5.65858
21
-3.46591
0
LINE
8
BLACK
6
CONTINUOUS
10
6.06858
20
-3.45091
11
6.01358
21
-3.45091
0
LINE
8
BLACK
6
CONTINUOUS
10
6.01358
20
-3.45091
11
6.01358
21
-3.41591
0
LINE
8
BLACK
6
CONTINUOUS
10
6.01358
20
-3.41591
11
6.06858
21
-3.41591
0
LINE
8
BLACK
6
CONTINUOUS
10
6.06858
20
-3.41591
11
6.06858
21
-3.45091
0
LINE
8
BLACK
6
CONTINUOUS
10
6.47013
20
-3.44969
11
6.35202
21
-3.44969
0
LINE
8
BLACK
6
CONTINUOUS
10
6.35202
20
-3.44969
11
6.35202
21
-3.42213
0
LINE
8
BLACK
6
CONTINUOUS
10
6.35202
20
-3.42213
11
6.47013
21
-3.42213
0
LINE
8
BLACK
6
CONTINUOUS
10
6.47013
20
-3.42213
11
6.47013
21
-3.44969
0
LINE
8
BLACK
6
CONTINUOUS
10
4.88529
20
-3.44772
11
4.82426
21
-3.44772
0
LINE
8
BLACK
6
CONTINUOUS
10
4.82426
20
-3.44772
11
4.82426
21
-3.4241
0
LINE
8
BLACK
6
CONTINUOUS
10
4.82426
20
-3.4241
11
4.88529
21
-3.4241
0
LINE
8
BLACK
6
CONTINUOUS
10
4.88529
20
-3.4241
11
4.88529
21
-3.44772
0
LINE
8
BLACK
6
CONTINUOUS
10
5.09789
20
-3.44772
11
5.03686
21
-3.44772
0
LINE
8
BLACK
6
CONTINUOUS
10
5.03686
20
-3.44772
11
5.03686
21
-3.4241
0
LINE
8
BLACK
6
CONTINUOUS
10
5.03686
20
-3.4241
11
5.09789
21
-3.4241
0
LINE
8
BLACK
6
CONTINUOUS
10
5.09789
20
-3.4241
11
5.09789
21
-3.44772
0
LINE
8
BLACK
6
CONTINUOUS
10
5.18858
20
-3.44091
11
5.13358
21
-3.44091
0
LINE
8
BLACK
6
CONTINUOUS
10
5.13358
20
-3.44091
11
5.13358
21
-3.40591
0
LINE
8
BLACK
6
CONTINUOUS
10
5.13358
20
-3.40591
11
5.18858
21
-3.40591
0
LINE
8
BLACK
6
CONTINUOUS
10
5.18858
20
-3.40591
11
5.18858
21
-3.44091
0
LINE
8
BLACK
6
CONTINUOUS
10
5.28858
20
-3.43841
11
5.23358
21
-3.43841
0
LINE
8
BLACK
6
CONTINUOUS
10
5.23358
20
-3.43841
11
5.23358
21
-3.40341
0
LINE
8
BLACK
6
CONTINUOUS
10
5.23358
20
-3.40341
11
5.28858
21
-3.40341
0
LINE
8
BLACK
6
CONTINUOUS
10
5.28858
20
-3.40341
11
5.28858
21
-3.43841
0
LINE
8
BLACK
6
CONTINUOUS
10
6.4406
20
-3.40835
11
6.38155
21
-3.40835
0
LINE
8
BLACK
6
CONTINUOUS
10
6.38155
20
-3.40835
11
6.38155
21
-3.35717
0
LINE
8
BLACK
6
CONTINUOUS
10
6.38155
20
-3.35717
11
6.4406
21
-3.35717
0
LINE
8
BLACK
6
CONTINUOUS
10
6.4406
20
-3.35717
11
6.4406
21
-3.40835
0
LINE
8
BLACK
6
CONTINUOUS
10
4.78858
20
-3.40341
11
4.73358
21
-3.40341
0
LINE
8
BLACK
6
CONTINUOUS
10
4.73358
20
-3.40341
11
4.73358
21
-3.36841
0
LINE
8
BLACK
6
CONTINUOUS
10
4.73358
20
-3.36841
11
4.78858
21
-3.36841
0
LINE
8
BLACK
6
CONTINUOUS
10
4.78858
20
-3.36841
11
4.78858
21
-3.40341
0
LINE
8
BLACK
6
CONTINUOUS
10
5.18858
20
-3.36591
11
5.13358
21
-3.36591
0
LINE
8
BLACK
6
CONTINUOUS
10
5.13358
20
-3.36591
11
5.13358
21
-3.33091
0
LINE
8
BLACK
6
CONTINUOUS
10
5.13358
20
-3.33091
11
5.18858
21
-3.33091
0
LINE
8
BLACK
6
CONTINUOUS
10
5.18858
20
-3.33091
11
5.18858
21
-3.36591
0
LINE
8
BLACK
6
CONTINUOUS
10
6.05647
20
-3.36477
11
6.03088
21
-3.36477
0
LINE
8
BLACK
6
CONTINUOUS
10
6.03088
20
-3.36477
11
6.03088
21
-3.30335
0
LINE
8
BLACK
6
CONTINUOUS
10
6.03088
20
-3.30335
11
6.05647
21
-3.30335
0
LINE
8
BLACK
6
CONTINUOUS
10
6.05647
20
-3.30335
11
6.05647
21
-3.36477
0
LINE
8
BLACK
6
CONTINUOUS
10
6.13127
20
-3.36477
11
6.10568
21
-3.36477
0
LINE
8
BLACK
6
CONTINUOUS
10
6.10568
20
-3.36477
11
6.10568
21
-3.30335
0
LINE
8
BLACK
6
CONTINUOUS
10
6.10568
20
-3.30335
11
6.13127
21
-3.30335
0
LINE
8
BLACK
6
CONTINUOUS
10
6.13127
20
-3.30335
11
6.13127
21
-3.36477
0
LINE
8
BLACK
6
CONTINUOUS
10
6.09387
20
-3.36477
11
6.06828
21
-3.36477
0
LINE
8
BLACK
6
CONTINUOUS
10
6.06828
20
-3.36477
11
6.06828
21
-3.30335
0
LINE
8
BLACK
6
CONTINUOUS
10
6.06828
20
-3.30335
11
6.09387
21
-3.30335
0
LINE
8
BLACK
6
CONTINUOUS
10
6.09387
20
-3.30335
11
6.09387
21
-3.36477
0
LINE
8
BLACK
6
CONTINUOUS
10
5.28858
20
-3.36341
11
5.23358
21
-3.36341
0
LINE
8
BLACK
6
CONTINUOUS
10
5.23358
20
-3.36341
11
5.23358
21
-3.32841
0
LINE
8
BLACK
6
CONTINUOUS
10
5.23358
20
-3.32841
11
5.28858
21
-3.32841
0
LINE
8
BLACK
6
CONTINUOUS
10
5.28858
20
-3.32841
11
5.28858
21
-3.36341
0
LINE
8
BLACK
6
CONTINUOUS
10
5.97858
20
-3.35591
11
5.92358
21
-3.35591
0
LINE
8
BLACK
6
CONTINUOUS
10
5.92358
20
-3.35591
11
5.92358
21
-3.32091
0
LINE
8
BLACK
6
CONTINUOUS
10
5.92358
20
-3.32091
11
5.97858
21
-3.32091
0
LINE
8
BLACK
6
CONTINUOUS
10
5.97858
20
-3.32091
11
5.97858
21
-3.35591
0
LINE
8
BLACK
6
CONTINUOUS
10
5.79858
20
-3.35591
11
5.74358
21
-3.35591
0
LINE
8
BLACK
6
CONTINUOUS
10
5.74358
20
-3.35591
11
5.74358
21
-3.32091
0
LINE
8
BLACK
6
CONTINUOUS
10
5.74358
20
-3.32091
11
5.79858
21
-3.32091
0
LINE
8
BLACK
6
CONTINUOUS
10
5.79858
20
-3.32091
11
5.79858
21
-3.35591
0
LINE
8
BLACK
6
CONTINUOUS
10
5.88858
20
-3.35591
11
5.83358
21
-3.35591
0
LINE
8
BLACK
6
CONTINUOUS
10
5.83358
20
-3.35591
11
5.83358
21
-3.32091
0
LINE
8
BLACK
6
CONTINUOUS
10
5.83358
20
-3.32091
11
5.88858
21
-3.32091
0
LINE
8
BLACK
6
CONTINUOUS
10
5.88858
20
-3.32091
11
5.88858
21
-3.35591
0
LINE
8
BLACK
6
CONTINUOUS
10
6.34986
20
-3.31524
11
6.31049
21
-3.31524
0
LINE
8
BLACK
6
CONTINUOUS
10
6.31049
20
-3.31524
11
6.31049
21
-3.16564
0
LINE
8
BLACK
6
CONTINUOUS
10
6.31049
20
-3.16564
11
6.34986
21
-3.16564
0
LINE
8
BLACK
6
CONTINUOUS
10
6.34986
20
-3.16564
11
6.34986
21
-3.31524
0
LINE
8
BLACK
6
CONTINUOUS
10
4.62545
20
-3.31524
11
4.58608
21
-3.31524
0
LINE
8
BLACK
6
CONTINUOUS
10
4.58608
20
-3.31524
11
4.58608
21
-3.16564
0
LINE
8
BLACK
6
CONTINUOUS
10
4.58608
20
-3.16564
11
4.62545
21
-3.16564
0
LINE
8
BLACK
6
CONTINUOUS
10
4.62545
20
-3.16564
11
4.62545
21
-3.31524
0
LINE
8
BLACK
6
CONTINUOUS
10
6.24863
20
-3.29611
11
6.19352
21
-3.29611
0
LINE
8
BLACK
6
CONTINUOUS
10
6.19352
20
-3.29611
11
6.19352
21
-3.26071
0
LINE
8
BLACK
6
CONTINUOUS
10
6.19352
20
-3.26071
11
6.24863
21
-3.26071
0
LINE
8
BLACK
6
CONTINUOUS
10
6.24863
20
-3.26071
11
6.24863
21
-3.29611
0
LINE
8
BLACK
6
CONTINUOUS
10
5.88858
20
-3.28091
11
5.83358
21
-3.28091
0
LINE
8
BLACK
6
CONTINUOUS
10
5.83358
20
-3.28091
11
5.83358
21
-3.24591
0
LINE
8
BLACK
6
CONTINUOUS
10
5.83358
20
-3.24591
11
5.88858
21
-3.24591
0
LINE
8
BLACK
6
CONTINUOUS
10
5.88858
20
-3.24591
11
5.88858
21
-3.28091
0
LINE
8
BLACK
6
CONTINUOUS
10
5.97858
20
-3.28091
11
5.92358
21
-3.28091
0
LINE
8
BLACK
6
CONTINUOUS
10
5.92358
20
-3.28091
11
5.92358
21
-3.24591
0
LINE
8
BLACK
6
CONTINUOUS
10
5.92358
20
-3.24591
11
5.97858
21
-3.24591
0
LINE
8
BLACK
6
CONTINUOUS
10
5.97858
20
-3.24591
11
5.97858
21
-3.28091
0
LINE
8
BLACK
6
CONTINUOUS
10
5.79858
20
-3.28091
11
5.74358
21
-3.28091
0
LINE
8
BLACK
6
CONTINUOUS
10
5.74358
20
-3.28091
11
5.74358
21
-3.24591
0
LINE
8
BLACK
6
CONTINUOUS
10
5.74358
20
-3.24591
11
5.79858
21
-3.24591
0
LINE
8
BLACK
6
CONTINUOUS
10
5.79858
20
-3.24591
11
5.79858
21
-3.28091
0
LINE
8
BLACK
6
CONTINUOUS
10
6.13127
20
-3.25847
11
6.10568
21
-3.25847
0
LINE
8
BLACK
6
CONTINUOUS
10
6.10568
20
-3.25847
11
6.10568
21
-3.19705
0
LINE
8
BLACK
6
CONTINUOUS
10
6.10568
20
-3.19705
11
6.13127
21
-3.19705
0
LINE
8
BLACK
6
CONTINUOUS
10
6.13127
20
-3.19705
11
6.13127
21
-3.25847
0
LINE
8
BLACK
6
CONTINUOUS
10
6.05647
20
-3.25847
11
6.03088
21
-3.25847
0
LINE
8
BLACK
6
CONTINUOUS
10
6.03088
20
-3.25847
11
6.03088
21
-3.19705
0
LINE
8
BLACK
6
CONTINUOUS
10
6.03088
20
-3.19705
11
6.05647
21
-3.19705
0
LINE
8
BLACK
6
CONTINUOUS
10
6.05647
20
-3.19705
11
6.05647
21
-3.25847
0
LINE
8
BLACK
6
CONTINUOUS
10
6.24863
20
-3.22091
11
6.19352
21
-3.22091
0
LINE
8
BLACK
6
CONTINUOUS
10
6.19352
20
-3.22091
11
6.19352
21
-3.18591
0
LINE
8
BLACK
6
CONTINUOUS
10
6.19352
20
-3.18591
11
6.24863
21
-3.18591
0
LINE
8
BLACK
6
CONTINUOUS
10
6.24863
20
-3.18591
11
6.24863
21
-3.22091
0
LINE
8
BLACK
6
CONTINUOUS
10
4.716
20
-3.07902
11
4.58608
21
-3.07902
0
LINE
8
BLACK
6
CONTINUOUS
10
4.58608
20
-3.07902
11
4.58608
21
-2.97863
0
LINE
8
BLACK
6
CONTINUOUS
10
4.58608
20
-2.97863
11
4.716
21
-2.97863
0
LINE
8
BLACK
6
CONTINUOUS
10
4.716
20
-2.97863
11
4.716
21
-3.07902
0
LINE
8
BLACK
6
CONTINUOUS
10
6.34986
20
-3.07902
11
6.21993
21
-3.07902
0
LINE
8
BLACK
6
CONTINUOUS
10
6.21993
20
-3.07902
11
6.21993
21
-2.97863
0
LINE
8
BLACK
6
CONTINUOUS
10
6.21993
20
-2.97863
11
6.34986
21
-2.97863
0
LINE
8
BLACK
6
CONTINUOUS
10
6.34986
20
-2.97863
11
6.34986
21
-3.07902
0
LINE
8
BLACK
6
CONTINUOUS
10
5.66088
20
-3.018
11
5.51127
21
-3.018
0
LINE
8
BLACK
6
CONTINUOUS
10
5.51127
20
-3.018
11
5.51127
21
-2.97863
0
LINE
8
BLACK
6
CONTINUOUS
10
5.51127
20
-2.97863
11
5.66088
21
-2.97863
0
LINE
8
BLACK
6
CONTINUOUS
10
5.66088
20
-2.97863
11
5.66088
21
-3.018
0
LINE
8
BLACK
6
CONTINUOUS
10
5.42466
20
-3.018
11
5.27505
21
-3.018
0
LINE
8
BLACK
6
CONTINUOUS
10
5.27505
20
-3.018
11
5.27505
21
-2.97863
0
LINE
8
BLACK
6
CONTINUOUS
10
5.27505
20
-2.97863
11
5.42466
21
-2.97863
0
LINE
8
BLACK
6
CONTINUOUS
10
5.42466
20
-2.97863
11
5.42466
21
-3.018
0
LINE
8
BLACK
6
CONTINUOUS
10
5.18844
20
-3.018
11
5.03883
21
-3.018
0
LINE
8
BLACK
6
CONTINUOUS
10
5.03883
20
-3.018
11
5.03883
21
-2.97863
0
LINE
8
BLACK
6
CONTINUOUS
10
5.03883
20
-2.97863
11
5.18844
21
-2.97863
0
LINE
8
BLACK
6
CONTINUOUS
10
5.18844
20
-2.97863
11
5.18844
21
-3.018
0
LINE
8
BLACK
6
CONTINUOUS
10
4.95222
20
-3.018
11
4.80261
21
-3.018
0
LINE
8
BLACK
6
CONTINUOUS
10
4.80261
20
-3.018
11
4.80261
21
-2.97863
0
LINE
8
BLACK
6
CONTINUOUS
10
4.80261
20
-2.97863
11
4.95222
21
-2.97863
0
LINE
8
BLACK
6
CONTINUOUS
10
4.95222
20
-2.97863
11
4.95222
21
-3.018
0
LINE
8
BLACK
6
CONTINUOUS
10
6.13332
20
-3.018
11
5.98371
21
-3.018
0
LINE
8
BLACK
6
CONTINUOUS
10
5.98371
20
-3.018
11
5.98371
21
-2.97863
0
LINE
8
BLACK
6
CONTINUOUS
10
5.98371
20
-2.97863
11
6.13332
21
-2.97863
0
LINE
8
BLACK
6
CONTINUOUS
10
6.13332
20
-2.97863
11
6.13332
21
-3.018
0
LINE
8
BLACK
6
CONTINUOUS
10
5.8971
20
-3.018
11
5.74749
21
-3.018
0
LINE
8
BLACK
6
CONTINUOUS
10
5.74749
20
-3.018
11
5.74749
21
-2.97863
0
LINE
8
BLACK
6
CONTINUOUS
10
5.74749
20
-2.97863
11
5.8971
21
-2.97863
0
LINE
8
BLACK
6
CONTINUOUS
10
5.8971
20
-2.97863
11
5.8971
21
-3.018
  0
ENDSEC
  0
EOF
