  0
SECTION
  2
HEADER
  9
$ANGBASE
  50
0.0
  9
$ANGDIR
  70
1
  9
$MEASUREMENT
  70
0
  0
ENDSEC
  0
SECTION
  2
TABLES
  0
TABLE
  2
LTYPE
  70
4
  0
LTYPE
  5
40F
  2
CONTINUOUS
  70
0
  3
Solid line
  72
65
  73
0
  40
0.0
  0
LTYPE
  5
410
  2
DASHDOT
 70
0
  3
Dash Dot ____ _ ____ _
 72
65
 73
4
 40
2.0
 49
1.25
 49
-0.25
 49
0.25
 49
-0.25
  0
LTYPE
  5
411
  2
DASHED
 70
0
  3
Dashed __ __ __ __ __
 72
65
 73
2
 40
0.75
 49
0.5
 49
-0.25
  0
LTYPE
  5
43B
  2
DOTTED
 70
0
  3
Dotted .  .  .  .
 72
65
 73
2
 40
0.2
 49
0.0
 49
-0.2
  0
ENDTAB
  0
TABLE
  2
STYLE
  70
4
  0
STYLE
  2
KICAD
  70
0
  40
0
  41
1
  42
1
  50
0
  71
0
  3
isocp.shx
  0
STYLE
  2
KICADB
  70
0
  40
0
  41
1
  42
1
  50
0
  71
0
  3
isocp.shx
  0
STYLE
  2
KICADI
  70
0
  40
0
  41
1
  42
1
  50
15
  71
0
  3
isocp.shx
  0
STYLE
  2
KICADBI
  70
0
  40
0
  41
1
  42
1
  50
15
  71
0
  3
isocp.shx
  0
ENDTAB
  0
TABLE
  2
LAYER
  70
1
  0
LAYER
  2
BLACK
  70
0
  62
7
  6
CONTINUOUS
  0
ENDTAB
  0
ENDSEC
  0
SECTION
  2
ENTITIES
0
LINE
8
BLACK
6
CONTINUOUS
10
4.34186
20
-2.89319
11
4.34398
21
-2.89136
0
LINE
8
BLACK
6
CONTINUOUS
10
4.34398
20
-2.89136
11
4.34604
21
-2.89091
0
LINE
8
BLACK
6
CONTINUOUS
10
4.34604
20
-2.89091
11
6.67612
21
-2.89091
0
LINE
8
BLACK
6
CONTINUOUS
10
6.67612
20
-2.89091
11
6.6788
21
-2.8917
0
LINE
8
BLACK
6
CONTINUOUS
10
6.6788
20
-2.8917
11
6.68063
21
-2.89381
0
LINE
8
BLACK
6
CONTINUOUS
10
6.68063
20
-2.89381
11
6.68108
21
-2.89587
0
LINE
8
BLACK
6
CONTINUOUS
10
6.68108
20
-2.89587
11
6.68108
21
-4.42595
0
LINE
8
BLACK
6
CONTINUOUS
10
6.68108
20
-4.42595
11
6.68029
21
-4.42863
0
LINE
8
BLACK
6
CONTINUOUS
10
6.68029
20
-4.42863
11
6.67818
21
-4.43046
0
LINE
8
BLACK
6
CONTINUOUS
10
6.67818
20
-4.43046
11
6.67612
21
-4.43091
0
LINE
8
BLACK
6
CONTINUOUS
10
6.67612
20
-4.43091
11
6.18899
21
-4.43091
0
LINE
8
BLACK
6
CONTINUOUS
10
6.18899
20
-4.43091
11
6.18631
21
-4.43012
0
LINE
8
BLACK
6
CONTINUOUS
10
6.18631
20
-4.43012
11
6.18448
21
-4.42801
0
LINE
8
BLACK
6
CONTINUOUS
10
6.18448
20
-4.42801
11
6.18408
21
-4.42524
0
LINE
8
BLACK
6
CONTINUOUS
10
6.18408
20
-4.42524
11
6.18435
21
-4.42421
0
LINE
8
BLACK
6
CONTINUOUS
10
6.18435
20
-4.42421
11
6.18572
21
-4.42055
0
LINE
8
BLACK
6
CONTINUOUS
10
6.18572
20
-4.42055
11
6.18583
21
-4.42025
0
LINE
8
BLACK
6
CONTINUOUS
10
6.18583
20
-4.42025
11
6.1861
21
-4.41781
0
LINE
8
BLACK
6
CONTINUOUS
10
6.1861
20
-4.41781
11
6.1861
21
-4.35402
0
LINE
8
BLACK
6
CONTINUOUS
10
6.1861
20
-4.35402
11
6.18583
21
-4.35157
0
LINE
8
BLACK
6
CONTINUOUS
10
6.18583
20
-4.35157
11
6.18382
21
-4.3462
0
LINE
8
BLACK
6
CONTINUOUS
10
6.18382
20
-4.3462
11
6.18038
21
-4.34161
0
LINE
8
BLACK
6
CONTINUOUS
10
6.18038
20
-4.34161
11
6.17807
21
-4.33988
0
LINE
8
BLACK
6
CONTINUOUS
10
6.17807
20
-4.33988
11
6.1764
21
-4.33764
0
LINE
8
BLACK
6
CONTINUOUS
10
6.1764
20
-4.33764
11
6.1762
21
-4.33485
0
LINE
8
BLACK
6
CONTINUOUS
10
6.1762
20
-4.33485
11
6.17754
21
-4.3324
0
LINE
8
BLACK
6
CONTINUOUS
10
6.17754
20
-4.3324
11
6.17807
21
-4.33194
0
LINE
8
BLACK
6
CONTINUOUS
10
6.17807
20
-4.33194
11
6.18009
21
-4.33042
0
LINE
8
BLACK
6
CONTINUOUS
10
6.18009
20
-4.33042
11
6.18038
21
-4.33021
0
LINE
8
BLACK
6
CONTINUOUS
10
6.18038
20
-4.33021
11
6.18382
21
-4.32562
0
LINE
8
BLACK
6
CONTINUOUS
10
6.18382
20
-4.32562
11
6.18583
21
-4.32025
0
LINE
8
BLACK
6
CONTINUOUS
10
6.18583
20
-4.32025
11
6.1861
21
-4.31781
0
LINE
8
BLACK
6
CONTINUOUS
10
6.1861
20
-4.31781
11
6.1861
21
-4.25402
0
LINE
8
BLACK
6
CONTINUOUS
10
6.1861
20
-4.25402
11
6.18583
21
-4.25157
0
LINE
8
BLACK
6
CONTINUOUS
10
6.18583
20
-4.25157
11
6.18382
21
-4.2462
0
LINE
8
BLACK
6
CONTINUOUS
10
6.18382
20
-4.2462
11
6.18038
21
-4.24161
0
LINE
8
BLACK
6
CONTINUOUS
10
6.18038
20
-4.24161
11
6.17579
21
-4.23817
0
LINE
8
BLACK
6
CONTINUOUS
10
6.17579
20
-4.23817
11
6.17042
21
-4.23616
0
LINE
8
BLACK
6
CONTINUOUS
10
6.17042
20
-4.23616
11
6.16797
21
-4.23589
0
LINE
8
BLACK
6
CONTINUOUS
10
6.16797
20
-4.23589
11
6.10418
21
-4.23589
0
LINE
8
BLACK
6
CONTINUOUS
10
6.10418
20
-4.23589
11
6.10173
21
-4.23616
0
LINE
8
BLACK
6
CONTINUOUS
10
6.10173
20
-4.23616
11
6.09636
21
-4.23817
0
LINE
8
BLACK
6
CONTINUOUS
10
6.09636
20
-4.23817
11
6.09177
21
-4.24161
0
LINE
8
BLACK
6
CONTINUOUS
10
6.09177
20
-4.24161
11
6.08833
21
-4.2462
0
LINE
8
BLACK
6
CONTINUOUS
10
6.08833
20
-4.2462
11
6.08632
21
-4.25157
0
LINE
8
BLACK
6
CONTINUOUS
10
6.08632
20
-4.25157
11
6.08606
21
-4.25402
0
LINE
8
BLACK
6
CONTINUOUS
10
6.08606
20
-4.25402
11
6.08606
21
-4.31781
0
LINE
8
BLACK
6
CONTINUOUS
10
6.08606
20
-4.31781
11
6.08632
21
-4.32025
0
LINE
8
BLACK
6
CONTINUOUS
10
6.08632
20
-4.32025
11
6.08833
21
-4.32562
0
LINE
8
BLACK
6
CONTINUOUS
10
6.08833
20
-4.32562
11
6.09177
21
-4.33021
0
LINE
8
BLACK
6
CONTINUOUS
10
6.09177
20
-4.33021
11
6.09206
21
-4.33042
0
LINE
8
BLACK
6
CONTINUOUS
10
6.09206
20
-4.33042
11
6.09408
21
-4.33194
0
LINE
8
BLACK
6
CONTINUOUS
10
6.09408
20
-4.33194
11
6.09575
21
-4.33418
0
LINE
8
BLACK
6
CONTINUOUS
10
6.09575
20
-4.33418
11
6.09595
21
-4.33697
0
LINE
8
BLACK
6
CONTINUOUS
10
6.09595
20
-4.33697
11
6.09461
21
-4.33942
0
LINE
8
BLACK
6
CONTINUOUS
10
6.09461
20
-4.33942
11
6.09408
21
-4.33988
0
LINE
8
BLACK
6
CONTINUOUS
10
6.09408
20
-4.33988
11
6.09177
21
-4.34161
0
LINE
8
BLACK
6
CONTINUOUS
10
6.09177
20
-4.34161
11
6.08833
21
-4.3462
0
LINE
8
BLACK
6
CONTINUOUS
10
6.08833
20
-4.3462
11
6.08632
21
-4.35157
0
LINE
8
BLACK
6
CONTINUOUS
10
6.08632
20
-4.35157
11
6.08606
21
-4.35402
0
LINE
8
BLACK
6
CONTINUOUS
10
6.08606
20
-4.35402
11
6.08606
21
-4.41781
0
LINE
8
BLACK
6
CONTINUOUS
10
6.08606
20
-4.41781
11
6.08632
21
-4.42025
0
LINE
8
BLACK
6
CONTINUOUS
10
6.08632
20
-4.42025
11
6.08643
21
-4.42055
0
LINE
8
BLACK
6
CONTINUOUS
10
6.08643
20
-4.42055
11
6.0878
21
-4.42421
0
LINE
8
BLACK
6
CONTINUOUS
10
6.0878
20
-4.42421
11
6.08801
21
-4.427
0
LINE
8
BLACK
6
CONTINUOUS
10
6.08801
20
-4.427
11
6.08667
21
-4.42945
0
LINE
8
BLACK
6
CONTINUOUS
10
6.08667
20
-4.42945
11
6.08422
21
-4.4308
0
LINE
8
BLACK
6
CONTINUOUS
10
6.08422
20
-4.4308
11
6.08316
21
-4.43091
0
LINE
8
BLACK
6
CONTINUOUS
10
6.08316
20
-4.43091
11
4.34604
21
-4.43091
0
LINE
8
BLACK
6
CONTINUOUS
10
4.34604
20
-4.43091
11
4.34335
21
-4.43012
0
LINE
8
BLACK
6
CONTINUOUS
10
4.34335
20
-4.43012
11
4.34152
21
-4.42801
0
LINE
8
BLACK
6
CONTINUOUS
10
4.34152
20
-4.42801
11
4.34108
21
-4.42595
0
LINE
8
BLACK
6
CONTINUOUS
10
4.34108
20
-4.42595
11
4.34108
21
-2.89587
0
LINE
8
BLACK
6
CONTINUOUS
10
4.34108
20
-2.89587
11
4.34186
21
-2.89319
0
LINE
8
BLACK
6
CONTINUOUS
10
5.78044
20
-4.09247
11
5.77799
21
-4.09273
0
LINE
8
BLACK
6
CONTINUOUS
10
5.77799
20
-4.09273
11
5.77262
21
-4.09475
0
LINE
8
BLACK
6
CONTINUOUS
10
5.77262
20
-4.09475
11
5.76803
21
-4.09818
0
LINE
8
BLACK
6
CONTINUOUS
10
5.76803
20
-4.09818
11
5.76459
21
-4.10277
0
LINE
8
BLACK
6
CONTINUOUS
10
5.76459
20
-4.10277
11
5.76258
21
-4.10814
0
LINE
8
BLACK
6
CONTINUOUS
10
5.76258
20
-4.10814
11
5.76232
21
-4.11059
0
LINE
8
BLACK
6
CONTINUOUS
10
5.76232
20
-4.11059
11
5.76232
21
-4.30539
0
LINE
8
BLACK
6
CONTINUOUS
10
5.76232
20
-4.30539
11
5.76436
21
-4.30743
0
LINE
8
BLACK
6
CONTINUOUS
10
5.76436
20
-4.30743
11
5.76488
21
-4.30813
0
LINE
8
BLACK
6
CONTINUOUS
10
5.76488
20
-4.30813
11
5.76502
21
-4.30825
0
LINE
8
BLACK
6
CONTINUOUS
10
5.76502
20
-4.30825
11
5.76505
21
-4.30836
0
LINE
8
BLACK
6
CONTINUOUS
10
5.76505
20
-4.30836
11
5.7652
21
-4.30856
0
LINE
8
BLACK
6
CONTINUOUS
10
5.7652
20
-4.30856
11
5.76546
21
-4.30975
0
LINE
8
BLACK
6
CONTINUOUS
10
5.76546
20
-4.30975
11
5.7658
21
-4.31091
0
LINE
8
BLACK
6
CONTINUOUS
10
5.7658
20
-4.31091
11
5.7658
21
-4.32066
0
LINE
8
BLACK
6
CONTINUOUS
10
5.7658
20
-4.32066
11
5.76803
21
-4.32364
0
LINE
8
BLACK
6
CONTINUOUS
10
5.76803
20
-4.32364
11
5.77262
21
-4.32708
0
LINE
8
BLACK
6
CONTINUOUS
10
5.77262
20
-4.32708
11
5.77799
21
-4.32909
0
LINE
8
BLACK
6
CONTINUOUS
10
5.77799
20
-4.32909
11
5.78044
21
-4.32936
0
LINE
8
BLACK
6
CONTINUOUS
10
5.78044
20
-4.32936
11
5.94171
21
-4.32936
0
LINE
8
BLACK
6
CONTINUOUS
10
5.94171
20
-4.32936
11
5.94416
21
-4.32909
0
LINE
8
BLACK
6
CONTINUOUS
10
5.94416
20
-4.32909
11
5.94953
21
-4.32708
0
LINE
8
BLACK
6
CONTINUOUS
10
5.94953
20
-4.32708
11
5.95412
21
-4.32364
0
LINE
8
BLACK
6
CONTINUOUS
10
5.95412
20
-4.32364
11
5.95756
21
-4.31905
0
LINE
8
BLACK
6
CONTINUOUS
10
5.95756
20
-4.31905
11
5.95957
21
-4.31368
0
LINE
8
BLACK
6
CONTINUOUS
10
5.95957
20
-4.31368
11
5.95984
21
-4.31123
0
LINE
8
BLACK
6
CONTINUOUS
10
5.95984
20
-4.31123
11
5.95984
21
-4.27609
0
LINE
8
BLACK
6
CONTINUOUS
10
5.95984
20
-4.27609
11
5.95857
21
-4.27589
0
LINE
8
BLACK
6
CONTINUOUS
10
5.95857
20
-4.27589
11
5.95418
21
-4.27365
0
LINE
8
BLACK
6
CONTINUOUS
10
5.95418
20
-4.27365
11
5.9507
21
-4.27017
0
LINE
8
BLACK
6
CONTINUOUS
10
5.9507
20
-4.27017
11
5.94846
21
-4.26578
0
LINE
8
BLACK
6
CONTINUOUS
10
5.94846
20
-4.26578
11
5.94769
21
-4.26091
0
LINE
8
BLACK
6
CONTINUOUS
10
5.94769
20
-4.26091
11
5.94846
21
-4.25604
0
LINE
8
BLACK
6
CONTINUOUS
10
5.94846
20
-4.25604
11
5.9507
21
-4.25165
0
LINE
8
BLACK
6
CONTINUOUS
10
5.9507
20
-4.25165
11
5.95418
21
-4.24817
0
LINE
8
BLACK
6
CONTINUOUS
10
5.95418
20
-4.24817
11
5.95852
21
-4.24596
0
LINE
8
BLACK
6
CONTINUOUS
10
5.95852
20
-4.24596
11
5.95852
21
-4.22586
0
LINE
8
BLACK
6
CONTINUOUS
10
5.95852
20
-4.22586
11
5.95418
21
-4.22365
0
LINE
8
BLACK
6
CONTINUOUS
10
5.95418
20
-4.22365
11
5.9507
21
-4.22017
0
LINE
8
BLACK
6
CONTINUOUS
10
5.9507
20
-4.22017
11
5.94846
21
-4.21578
0
LINE
8
BLACK
6
CONTINUOUS
10
5.94846
20
-4.21578
11
5.94769
21
-4.21091
0
LINE
8
BLACK
6
CONTINUOUS
10
5.94769
20
-4.21091
11
5.94846
21
-4.20604
0
LINE
8
BLACK
6
CONTINUOUS
10
5.94846
20
-4.20604
11
5.9507
21
-4.20165
0
LINE
8
BLACK
6
CONTINUOUS
10
5.9507
20
-4.20165
11
5.95418
21
-4.19817
0
LINE
8
BLACK
6
CONTINUOUS
10
5.95418
20
-4.19817
11
5.95857
21
-4.19593
0
LINE
8
BLACK
6
CONTINUOUS
10
5.95857
20
-4.19593
11
5.96344
21
-4.19516
0
LINE
8
BLACK
6
CONTINUOUS
10
5.96344
20
-4.19516
11
5.9683
21
-4.19593
0
LINE
8
BLACK
6
CONTINUOUS
10
5.9683
20
-4.19593
11
5.97269
21
-4.19817
0
LINE
8
BLACK
6
CONTINUOUS
10
5.97269
20
-4.19817
11
5.97618
21
-4.20165
0
LINE
8
BLACK
6
CONTINUOUS
10
5.97618
20
-4.20165
11
5.97633
21
-4.20195
0
LINE
8
BLACK
6
CONTINUOUS
10
5.97633
20
-4.20195
11
6.17759
21
-4.20195
0
LINE
8
BLACK
6
CONTINUOUS
10
6.17759
20
-4.20195
11
6.18027
21
-4.20274
0
LINE
8
BLACK
6
CONTINUOUS
10
6.18027
20
-4.20274
11
6.1821
21
-4.20485
0
LINE
8
BLACK
6
CONTINUOUS
10
6.1821
20
-4.20485
11
6.18224
21
-4.20517
0
LINE
8
BLACK
6
CONTINUOUS
10
6.18224
20
-4.20517
11
6.18381
21
-4.20936
0
LINE
8
BLACK
6
CONTINUOUS
10
6.18381
20
-4.20936
11
6.18725
21
-4.21395
0
LINE
8
BLACK
6
CONTINUOUS
10
6.18725
20
-4.21395
11
6.19184
21
-4.21739
0
LINE
8
BLACK
6
CONTINUOUS
10
6.19184
20
-4.21739
11
6.1972
21
-4.2194
0
LINE
8
BLACK
6
CONTINUOUS
10
6.1972
20
-4.2194
11
6.19965
21
-4.21967
0
LINE
8
BLACK
6
CONTINUOUS
10
6.19965
20
-4.21967
11
6.2625
21
-4.21967
0
LINE
8
BLACK
6
CONTINUOUS
10
6.2625
20
-4.21967
11
6.26495
21
-4.2194
0
LINE
8
BLACK
6
CONTINUOUS
10
6.26495
20
-4.2194
11
6.27032
21
-4.21739
0
LINE
8
BLACK
6
CONTINUOUS
10
6.27032
20
-4.21739
11
6.2749
21
-4.21395
0
LINE
8
BLACK
6
CONTINUOUS
10
6.2749
20
-4.21395
11
6.27834
21
-4.20936
0
LINE
8
BLACK
6
CONTINUOUS
10
6.27834
20
-4.20936
11
6.28036
21
-4.20399
0
LINE
8
BLACK
6
CONTINUOUS
10
6.28036
20
-4.20399
11
6.28062
21
-4.20155
0
LINE
8
BLACK
6
CONTINUOUS
10
6.28062
20
-4.20155
11
6.28062
21
-4.14658
0
LINE
8
BLACK
6
CONTINUOUS
10
6.28062
20
-4.14658
11
6.28036
21
-4.14413
0
LINE
8
BLACK
6
CONTINUOUS
10
6.28036
20
-4.14413
11
6.27834
21
-4.13876
0
LINE
8
BLACK
6
CONTINUOUS
10
6.27834
20
-4.13876
11
6.2753
21
-4.13469
0
LINE
8
BLACK
6
CONTINUOUS
10
6.2753
20
-4.13469
11
6.18686
21
-4.13469
0
LINE
8
BLACK
6
CONTINUOUS
10
6.18686
20
-4.13469
11
6.18381
21
-4.13876
0
LINE
8
BLACK
6
CONTINUOUS
10
6.18381
20
-4.13876
11
6.18368
21
-4.13909
0
LINE
8
BLACK
6
CONTINUOUS
10
6.18368
20
-4.13909
11
6.18224
21
-4.14295
0
LINE
8
BLACK
6
CONTINUOUS
10
6.18224
20
-4.14295
11
6.18056
21
-4.14518
0
LINE
8
BLACK
6
CONTINUOUS
10
6.18056
20
-4.14518
11
6.17794
21
-4.14615
0
LINE
8
BLACK
6
CONTINUOUS
10
6.17794
20
-4.14615
11
6.17759
21
-4.14617
0
LINE
8
BLACK
6
CONTINUOUS
10
6.17759
20
-4.14617
11
5.9648
21
-4.14617
0
LINE
8
BLACK
6
CONTINUOUS
10
5.9648
20
-4.14617
11
5.96211
21
-4.14538
0
LINE
8
BLACK
6
CONTINUOUS
10
5.96211
20
-4.14538
11
5.96028
21
-4.14327
0
LINE
8
BLACK
6
CONTINUOUS
10
5.96028
20
-4.14327
11
5.95984
21
-4.14121
0
LINE
8
BLACK
6
CONTINUOUS
10
5.95984
20
-4.14121
11
5.95984
21
-4.11059
0
LINE
8
BLACK
6
CONTINUOUS
10
5.95984
20
-4.11059
11
5.95957
21
-4.10814
0
LINE
8
BLACK
6
CONTINUOUS
10
5.95957
20
-4.10814
11
5.95756
21
-4.10277
0
LINE
8
BLACK
6
CONTINUOUS
10
5.95756
20
-4.10277
11
5.95412
21
-4.09818
0
LINE
8
BLACK
6
CONTINUOUS
10
5.95412
20
-4.09818
11
5.94953
21
-4.09475
0
LINE
8
BLACK
6
CONTINUOUS
10
5.94953
20
-4.09475
11
5.94416
21
-4.09273
0
LINE
8
BLACK
6
CONTINUOUS
10
5.94416
20
-4.09273
11
5.94171
21
-4.09247
0
LINE
8
BLACK
6
CONTINUOUS
10
5.94171
20
-4.09247
11
5.78044
21
-4.09247
0
LINE
8
BLACK
6
CONTINUOUS
10
6.46333
20
-3.95062
11
6.46677
21
-3.95521
0
LINE
8
BLACK
6
CONTINUOUS
10
6.46677
20
-3.95521
11
6.47136
21
-3.95865
0
LINE
8
BLACK
6
CONTINUOUS
10
6.47136
20
-3.95865
11
6.47673
21
-3.96066
0
LINE
8
BLACK
6
CONTINUOUS
10
6.47673
20
-3.96066
11
6.47918
21
-3.96093
0
LINE
8
BLACK
6
CONTINUOUS
10
6.47918
20
-3.96093
11
6.54297
21
-3.96093
0
LINE
8
BLACK
6
CONTINUOUS
10
6.54297
20
-3.96093
11
6.54542
21
-3.96066
0
LINE
8
BLACK
6
CONTINUOUS
10
6.54542
20
-3.96066
11
6.55079
21
-3.95865
0
LINE
8
BLACK
6
CONTINUOUS
10
6.55079
20
-3.95865
11
6.55538
21
-3.95521
0
LINE
8
BLACK
6
CONTINUOUS
10
6.55538
20
-3.95521
11
6.55711
21
-3.95291
0
LINE
8
BLACK
6
CONTINUOUS
10
6.55711
20
-3.95291
11
6.55934
21
-3.95123
0
LINE
8
BLACK
6
CONTINUOUS
10
6.55934
20
-3.95123
11
6.56213
21
-3.95103
0
LINE
8
BLACK
6
CONTINUOUS
10
6.56213
20
-3.95103
11
6.56459
21
-3.95238
0
LINE
8
BLACK
6
CONTINUOUS
10
6.56459
20
-3.95238
11
6.56505
21
-3.95291
0
LINE
8
BLACK
6
CONTINUOUS
10
6.56505
20
-3.95291
11
6.56677
21
-3.95521
0
LINE
8
BLACK
6
CONTINUOUS
10
6.56677
20
-3.95521
11
6.57136
21
-3.95865
0
LINE
8
BLACK
6
CONTINUOUS
10
6.57136
20
-3.95865
11
6.57673
21
-3.96066
0
LINE
8
BLACK
6
CONTINUOUS
10
6.57673
20
-3.96066
11
6.57918
21
-3.96093
0
LINE
8
BLACK
6
CONTINUOUS
10
6.57918
20
-3.96093
11
6.64297
21
-3.96093
0
LINE
8
BLACK
6
CONTINUOUS
10
6.64297
20
-3.96093
11
6.64542
21
-3.96066
0
LINE
8
BLACK
6
CONTINUOUS
10
6.64542
20
-3.96066
11
6.65079
21
-3.95865
0
LINE
8
BLACK
6
CONTINUOUS
10
6.65079
20
-3.95865
11
6.65538
21
-3.95521
0
LINE
8
BLACK
6
CONTINUOUS
10
6.65538
20
-3.95521
11
6.65882
21
-3.95062
0
LINE
8
BLACK
6
CONTINUOUS
10
6.65882
20
-3.95062
11
6.66083
21
-3.94525
0
LINE
8
BLACK
6
CONTINUOUS
10
6.66083
20
-3.94525
11
6.6611
21
-3.94281
0
LINE
8
BLACK
6
CONTINUOUS
10
6.6611
20
-3.94281
11
6.6611
21
-3.87902
0
LINE
8
BLACK
6
CONTINUOUS
10
6.6611
20
-3.87902
11
6.66083
21
-3.87657
0
LINE
8
BLACK
6
CONTINUOUS
10
6.66083
20
-3.87657
11
6.65882
21
-3.8712
0
LINE
8
BLACK
6
CONTINUOUS
10
6.65882
20
-3.8712
11
6.65538
21
-3.86661
0
LINE
8
BLACK
6
CONTINUOUS
10
6.65538
20
-3.86661
11
6.65079
21
-3.86317
0
LINE
8
BLACK
6
CONTINUOUS
10
6.65079
20
-3.86317
11
6.64542
21
-3.86116
0
LINE
8
BLACK
6
CONTINUOUS
10
6.64542
20
-3.86116
11
6.64297
21
-3.86089
0
LINE
8
BLACK
6
CONTINUOUS
10
6.64297
20
-3.86089
11
6.57918
21
-3.86089
0
LINE
8
BLACK
6
CONTINUOUS
10
6.57918
20
-3.86089
11
6.57673
21
-3.86116
0
LINE
8
BLACK
6
CONTINUOUS
10
6.57673
20
-3.86116
11
6.57136
21
-3.86317
0
LINE
8
BLACK
6
CONTINUOUS
10
6.57136
20
-3.86317
11
6.56677
21
-3.86661
0
LINE
8
BLACK
6
CONTINUOUS
10
6.56677
20
-3.86661
11
6.56656
21
-3.86689
0
LINE
8
BLACK
6
CONTINUOUS
10
6.56656
20
-3.86689
11
6.56505
21
-3.86892
0
LINE
8
BLACK
6
CONTINUOUS
10
6.56505
20
-3.86892
11
6.56281
21
-3.87059
0
LINE
8
BLACK
6
CONTINUOUS
10
6.56281
20
-3.87059
11
6.56002
21
-3.87079
0
LINE
8
BLACK
6
CONTINUOUS
10
6.56002
20
-3.87079
11
6.55757
21
-3.86945
0
LINE
8
BLACK
6
CONTINUOUS
10
6.55757
20
-3.86945
11
6.55711
21
-3.86892
0
LINE
8
BLACK
6
CONTINUOUS
10
6.55711
20
-3.86892
11
6.55559
21
-3.86689
0
LINE
8
BLACK
6
CONTINUOUS
10
6.55559
20
-3.86689
11
6.55538
21
-3.86661
0
LINE
8
BLACK
6
CONTINUOUS
10
6.55538
20
-3.86661
11
6.55079
21
-3.86317
0
LINE
8
BLACK
6
CONTINUOUS
10
6.55079
20
-3.86317
11
6.54542
21
-3.86116
0
LINE
8
BLACK
6
CONTINUOUS
10
6.54542
20
-3.86116
11
6.54297
21
-3.86089
0
LINE
8
BLACK
6
CONTINUOUS
10
6.54297
20
-3.86089
11
6.47918
21
-3.86089
0
LINE
8
BLACK
6
CONTINUOUS
10
6.47918
20
-3.86089
11
6.47673
21
-3.86116
0
LINE
8
BLACK
6
CONTINUOUS
10
6.47673
20
-3.86116
11
6.47136
21
-3.86317
0
LINE
8
BLACK
6
CONTINUOUS
10
6.47136
20
-3.86317
11
6.46677
21
-3.86661
0
LINE
8
BLACK
6
CONTINUOUS
10
6.46677
20
-3.86661
11
6.46333
21
-3.8712
0
LINE
8
BLACK
6
CONTINUOUS
10
6.46333
20
-3.8712
11
6.46132
21
-3.87657
0
LINE
8
BLACK
6
CONTINUOUS
10
6.46132
20
-3.87657
11
6.46106
21
-3.87902
0
LINE
8
BLACK
6
CONTINUOUS
10
6.46106
20
-3.87902
11
6.46106
21
-3.94281
0
LINE
8
BLACK
6
CONTINUOUS
10
6.46106
20
-3.94281
11
6.46132
21
-3.94525
0
LINE
8
BLACK
6
CONTINUOUS
10
6.46132
20
-3.94525
11
6.46333
21
-3.95062
0
LINE
8
BLACK
6
CONTINUOUS
10
6.05524
20
-3.43121
11
6.05673
21
-3.42991
0
LINE
8
BLACK
6
CONTINUOUS
10
6.05673
20
-3.42991
11
6.05696
21
-3.42971
0
LINE
8
BLACK
6
CONTINUOUS
10
6.05696
20
-3.42971
11
6.0584
21
-3.42766
0
LINE
8
BLACK
6
CONTINUOUS
10
6.0584
20
-3.42766
11
6.05856
21
-3.42745
0
LINE
8
BLACK
6
CONTINUOUS
10
6.05856
20
-3.42745
11
6.05993
21
-3.4257
0
LINE
8
BLACK
6
CONTINUOUS
10
6.05993
20
-3.4257
11
6.06011
21
-3.42547
0
LINE
8
BLACK
6
CONTINUOUS
10
6.06011
20
-3.42547
11
6.06023
21
-3.42519
0
LINE
8
BLACK
6
CONTINUOUS
10
6.06023
20
-3.42519
11
6.06029
21
-3.42511
0
LINE
8
BLACK
6
CONTINUOUS
10
6.06029
20
-3.42511
11
6.06062
21
-3.42453
0
LINE
8
BLACK
6
CONTINUOUS
10
6.06062
20
-3.42453
11
6.06067
21
-3.42443
0
LINE
8
BLACK
6
CONTINUOUS
10
6.06067
20
-3.42443
11
6.06084
21
-3.42419
0
LINE
8
BLACK
6
CONTINUOUS
10
6.06084
20
-3.42419
11
6.06095
21
-3.42391
0
LINE
8
BLACK
6
CONTINUOUS
10
6.06095
20
-3.42391
11
6.06095
21
-3.42391
0
LINE
8
BLACK
6
CONTINUOUS
10
6.06095
20
-3.42391
11
6.06175
21
-3.42185
0
LINE
8
BLACK
6
CONTINUOUS
10
6.06175
20
-3.42185
11
6.06185
21
-3.42161
0
LINE
8
BLACK
6
CONTINUOUS
10
6.06185
20
-3.42161
11
6.06289
21
-3.41931
0
LINE
8
BLACK
6
CONTINUOUS
10
6.06289
20
-3.41931
11
6.06294
21
-3.41902
0
LINE
8
BLACK
6
CONTINUOUS
10
6.06294
20
-3.41902
11
6.06297
21
-3.41892
0
LINE
8
BLACK
6
CONTINUOUS
10
6.06297
20
-3.41892
11
6.06316
21
-3.41828
0
LINE
8
BLACK
6
CONTINUOUS
10
6.06316
20
-3.41828
11
6.06318
21
-3.41818
0
LINE
8
BLACK
6
CONTINUOUS
10
6.06318
20
-3.41818
11
6.06329
21
-3.4179
0
LINE
8
BLACK
6
CONTINUOUS
10
6.06329
20
-3.4179
11
6.06362
21
-3.4154
0
LINE
8
BLACK
6
CONTINUOUS
10
6.06362
20
-3.4154
11
6.06366
21
-3.41515
0
LINE
8
BLACK
6
CONTINUOUS
10
6.06366
20
-3.41515
11
6.06406
21
-3.41297
0
LINE
8
BLACK
6
CONTINUOUS
10
6.06406
20
-3.41297
11
6.06412
21
-3.41268
0
LINE
8
BLACK
6
CONTINUOUS
10
6.06412
20
-3.41268
11
6.06398
21
-3.41023
0
LINE
8
BLACK
6
CONTINUOUS
10
6.06398
20
-3.41023
11
6.06397
21
-3.40994
0
LINE
8
BLACK
6
CONTINUOUS
10
6.06397
20
-3.40994
11
6.06397
21
-3.18527
0
LINE
8
BLACK
6
CONTINUOUS
10
6.06397
20
-3.18527
11
6.06476
21
-3.18259
0
LINE
8
BLACK
6
CONTINUOUS
10
6.06476
20
-3.18259
11
6.06492
21
-3.18236
0
LINE
8
BLACK
6
CONTINUOUS
10
6.06492
20
-3.18236
11
6.065
21
-3.18224
0
LINE
8
BLACK
6
CONTINUOUS
10
6.065
20
-3.18224
11
6.06517
21
-3.18205
0
LINE
8
BLACK
6
CONTINUOUS
10
6.06517
20
-3.18205
11
6.06893
21
-3.17554
0
LINE
8
BLACK
6
CONTINUOUS
10
6.06893
20
-3.17554
11
6.07125
21
-3.16839
0
LINE
8
BLACK
6
CONTINUOUS
10
6.07125
20
-3.16839
11
6.07204
21
-3.16091
0
LINE
8
BLACK
6
CONTINUOUS
10
6.07204
20
-3.16091
11
6.07125
21
-3.15343
0
LINE
8
BLACK
6
CONTINUOUS
10
6.07125
20
-3.15343
11
6.06893
21
-3.14628
0
LINE
8
BLACK
6
CONTINUOUS
10
6.06893
20
-3.14628
11
6.06517
21
-3.13977
0
LINE
8
BLACK
6
CONTINUOUS
10
6.06517
20
-3.13977
11
6.06353
21
-3.13795
0
LINE
8
BLACK
6
CONTINUOUS
10
6.06353
20
-3.13795
11
6.06031
21
-3.13438
0
LINE
8
BLACK
6
CONTINUOUS
10
6.06031
20
-3.13438
11
6.06031
21
-3.13438
0
LINE
8
BLACK
6
CONTINUOUS
10
6.06031
20
-3.13438
11
6.06014
21
-3.13418
0
LINE
8
BLACK
6
CONTINUOUS
10
6.06014
20
-3.13418
11
6.05406
21
-3.12976
0
LINE
8
BLACK
6
CONTINUOUS
10
6.05406
20
-3.12976
11
6.05382
21
-3.12966
0
LINE
8
BLACK
6
CONTINUOUS
10
6.05382
20
-3.12966
11
6.05382
21
-3.12966
0
LINE
8
BLACK
6
CONTINUOUS
10
6.05382
20
-3.12966
11
6.04743
21
-3.12681
0
LINE
8
BLACK
6
CONTINUOUS
10
6.04743
20
-3.12681
11
6.04743
21
-3.12681
0
LINE
8
BLACK
6
CONTINUOUS
10
6.04743
20
-3.12681
11
6.04719
21
-3.12671
0
LINE
8
BLACK
6
CONTINUOUS
10
6.04719
20
-3.12671
11
6.04351
21
-3.12592
0
LINE
8
BLACK
6
CONTINUOUS
10
6.04351
20
-3.12592
11
6.04009
21
-3.1252
0
LINE
8
BLACK
6
CONTINUOUS
10
6.04009
20
-3.1252
11
6.04009
21
-3.1252
0
LINE
8
BLACK
6
CONTINUOUS
10
6.04009
20
-3.1252
11
6.03984
21
-3.12514
0
LINE
8
BLACK
6
CONTINUOUS
10
6.03984
20
-3.12514
11
6.03232
21
-3.12514
0
LINE
8
BLACK
6
CONTINUOUS
10
6.03232
20
-3.12514
11
6.03206
21
-3.1252
0
LINE
8
BLACK
6
CONTINUOUS
10
6.03206
20
-3.1252
11
6.03206
21
-3.1252
0
LINE
8
BLACK
6
CONTINUOUS
10
6.03206
20
-3.1252
11
6.02864
21
-3.12592
0
LINE
8
BLACK
6
CONTINUOUS
10
6.02864
20
-3.12592
11
6.02496
21
-3.12671
0
LINE
8
BLACK
6
CONTINUOUS
10
6.02496
20
-3.12671
11
6.02472
21
-3.12681
0
LINE
8
BLACK
6
CONTINUOUS
10
6.02472
20
-3.12681
11
6.02472
21
-3.12681
0
LINE
8
BLACK
6
CONTINUOUS
10
6.02472
20
-3.12681
11
6.01833
21
-3.12966
0
LINE
8
BLACK
6
CONTINUOUS
10
6.01833
20
-3.12966
11
6.01833
21
-3.12966
0
LINE
8
BLACK
6
CONTINUOUS
10
6.01833
20
-3.12966
11
6.01809
21
-3.12976
0
LINE
8
BLACK
6
CONTINUOUS
10
6.01809
20
-3.12976
11
6.01201
21
-3.13418
0
LINE
8
BLACK
6
CONTINUOUS
10
6.01201
20
-3.13418
11
6.01184
21
-3.13438
0
LINE
8
BLACK
6
CONTINUOUS
10
6.01184
20
-3.13438
11
6.01184
21
-3.13438
0
LINE
8
BLACK
6
CONTINUOUS
10
6.01184
20
-3.13438
11
6.00862
21
-3.13795
0
LINE
8
BLACK
6
CONTINUOUS
10
6.00862
20
-3.13795
11
6.00698
21
-3.13977
0
LINE
8
BLACK
6
CONTINUOUS
10
6.00698
20
-3.13977
11
6.00322
21
-3.14628
0
LINE
8
BLACK
6
CONTINUOUS
10
6.00322
20
-3.14628
11
6.0009
21
-3.15343
0
LINE
8
BLACK
6
CONTINUOUS
10
6.0009
20
-3.15343
11
6.00011
21
-3.16091
0
LINE
8
BLACK
6
CONTINUOUS
10
6.00011
20
-3.16091
11
6.0009
21
-3.16839
0
LINE
8
BLACK
6
CONTINUOUS
10
6.0009
20
-3.16839
11
6.00322
21
-3.17554
0
LINE
8
BLACK
6
CONTINUOUS
10
6.00322
20
-3.17554
11
6.00698
21
-3.18205
0
LINE
8
BLACK
6
CONTINUOUS
10
6.00698
20
-3.18205
11
6.00715
21
-3.18224
0
LINE
8
BLACK
6
CONTINUOUS
10
6.00715
20
-3.18224
11
6.00723
21
-3.18236
0
LINE
8
BLACK
6
CONTINUOUS
10
6.00723
20
-3.18236
11
6.00817
21
-3.18499
0
LINE
8
BLACK
6
CONTINUOUS
10
6.00817
20
-3.18499
11
6.00818
21
-3.18527
0
LINE
8
BLACK
6
CONTINUOUS
10
6.00818
20
-3.18527
11
6.00818
21
-3.3973
0
LINE
8
BLACK
6
CONTINUOUS
10
6.00818
20
-3.3973
11
6.00739
21
-3.39998
0
LINE
8
BLACK
6
CONTINUOUS
10
6.00739
20
-3.39998
11
6.00673
21
-3.40081
0
LINE
8
BLACK
6
CONTINUOUS
10
6.00673
20
-3.40081
11
5.88346
21
-3.52408
0
LINE
8
BLACK
6
CONTINUOUS
10
5.88346
20
-3.52408
11
5.88098
21
-3.52543
0
LINE
8
BLACK
6
CONTINUOUS
10
5.88098
20
-3.52543
11
5.87496
21
-3.52671
0
LINE
8
BLACK
6
CONTINUOUS
10
5.87496
20
-3.52671
11
5.87472
21
-3.52681
0
LINE
8
BLACK
6
CONTINUOUS
10
5.87472
20
-3.52681
11
5.87472
21
-3.52681
0
LINE
8
BLACK
6
CONTINUOUS
10
5.87472
20
-3.52681
11
5.86833
21
-3.52966
0
LINE
8
BLACK
6
CONTINUOUS
10
5.86833
20
-3.52966
11
5.86833
21
-3.52966
0
LINE
8
BLACK
6
CONTINUOUS
10
5.86833
20
-3.52966
11
5.86809
21
-3.52976
0
LINE
8
BLACK
6
CONTINUOUS
10
5.86809
20
-3.52976
11
5.86201
21
-3.53418
0
LINE
8
BLACK
6
CONTINUOUS
10
5.86201
20
-3.53418
11
5.85698
21
-3.53977
0
LINE
8
BLACK
6
CONTINUOUS
10
5.85698
20
-3.53977
11
5.85322
21
-3.54628
0
LINE
8
BLACK
6
CONTINUOUS
10
5.85322
20
-3.54628
11
5.8509
21
-3.55343
0
LINE
8
BLACK
6
CONTINUOUS
10
5.8509
20
-3.55343
11
5.85087
21
-3.55369
0
LINE
8
BLACK
6
CONTINUOUS
10
5.85087
20
-3.55369
11
5.85087
21
-3.55369
0
LINE
8
BLACK
6
CONTINUOUS
10
5.85087
20
-3.55369
11
5.85069
21
-3.55542
0
LINE
8
BLACK
6
CONTINUOUS
10
5.85069
20
-3.55542
11
5.85011
21
-3.56091
0
LINE
8
BLACK
6
CONTINUOUS
10
5.85011
20
-3.56091
11
5.8509
21
-3.56839
0
LINE
8
BLACK
6
CONTINUOUS
10
5.8509
20
-3.56839
11
5.85322
21
-3.57554
0
LINE
8
BLACK
6
CONTINUOUS
10
5.85322
20
-3.57554
11
5.85698
21
-3.58205
0
LINE
8
BLACK
6
CONTINUOUS
10
5.85698
20
-3.58205
11
5.86201
21
-3.58764
0
LINE
8
BLACK
6
CONTINUOUS
10
5.86201
20
-3.58764
11
5.86809
21
-3.59206
0
LINE
8
BLACK
6
CONTINUOUS
10
5.86809
20
-3.59206
11
5.86833
21
-3.59216
0
LINE
8
BLACK
6
CONTINUOUS
10
5.86833
20
-3.59216
11
5.86833
21
-3.59216
0
LINE
8
BLACK
6
CONTINUOUS
10
5.86833
20
-3.59216
11
5.87472
21
-3.59501
0
LINE
8
BLACK
6
CONTINUOUS
10
5.87472
20
-3.59501
11
5.87496
21
-3.59512
0
LINE
8
BLACK
6
CONTINUOUS
10
5.87496
20
-3.59512
11
5.87864
21
-3.5959
0
LINE
8
BLACK
6
CONTINUOUS
10
5.87864
20
-3.5959
11
5.88206
21
-3.59662
0
LINE
8
BLACK
6
CONTINUOUS
10
5.88206
20
-3.59662
11
5.88206
21
-3.59662
0
LINE
8
BLACK
6
CONTINUOUS
10
5.88206
20
-3.59662
11
5.88232
21
-3.59668
0
LINE
8
BLACK
6
CONTINUOUS
10
5.88232
20
-3.59668
11
5.88983
21
-3.59668
0
LINE
8
BLACK
6
CONTINUOUS
10
5.88983
20
-3.59668
11
5.89009
21
-3.59662
0
LINE
8
BLACK
6
CONTINUOUS
10
5.89009
20
-3.59662
11
5.89009
21
-3.59662
0
LINE
8
BLACK
6
CONTINUOUS
10
5.89009
20
-3.59662
11
5.89351
21
-3.5959
0
LINE
8
BLACK
6
CONTINUOUS
10
5.89351
20
-3.5959
11
5.89719
21
-3.59512
0
LINE
8
BLACK
6
CONTINUOUS
10
5.89719
20
-3.59512
11
5.89743
21
-3.59501
0
LINE
8
BLACK
6
CONTINUOUS
10
5.89743
20
-3.59501
11
5.90382
21
-3.59216
0
LINE
8
BLACK
6
CONTINUOUS
10
5.90382
20
-3.59216
11
5.90382
21
-3.59216
0
LINE
8
BLACK
6
CONTINUOUS
10
5.90382
20
-3.59216
11
5.90406
21
-3.59206
0
LINE
8
BLACK
6
CONTINUOUS
10
5.90406
20
-3.59206
11
5.91014
21
-3.58764
0
LINE
8
BLACK
6
CONTINUOUS
10
5.91014
20
-3.58764
11
5.91517
21
-3.58205
0
LINE
8
BLACK
6
CONTINUOUS
10
5.91517
20
-3.58205
11
5.91893
21
-3.57554
0
LINE
8
BLACK
6
CONTINUOUS
10
5.91893
20
-3.57554
11
5.92125
21
-3.56839
0
LINE
8
BLACK
6
CONTINUOUS
10
5.92125
20
-3.56839
11
5.92145
21
-3.56655
0
LINE
8
BLACK
6
CONTINUOUS
10
5.92145
20
-3.56655
11
5.92251
21
-3.56397
0
LINE
8
BLACK
6
CONTINUOUS
10
5.92251
20
-3.56397
11
5.92287
21
-3.56356
0
LINE
8
BLACK
6
CONTINUOUS
10
5.92287
20
-3.56356
11
6.05499
21
-3.43144
0
LINE
8
BLACK
6
CONTINUOUS
10
6.05499
20
-3.43144
11
6.05524
21
-3.43121
0
LINE
8
BLACK
6
CONTINUOUS
10
5.13595
20
-3.76056
11
5.13625
21
-3.76349
0
LINE
8
BLACK
6
CONTINUOUS
10
5.13625
20
-3.76349
11
5.13858
21
-3.77064
0
LINE
8
BLACK
6
CONTINUOUS
10
5.13858
20
-3.77064
11
5.13871
21
-3.77087
0
LINE
8
BLACK
6
CONTINUOUS
10
5.13871
20
-3.77087
11
5.13871
21
-3.77087
0
LINE
8
BLACK
6
CONTINUOUS
10
5.13871
20
-3.77087
11
5.14004
21
-3.77318
0
LINE
8
BLACK
6
CONTINUOUS
10
5.14004
20
-3.77318
11
5.14234
21
-3.77715
0
LINE
8
BLACK
6
CONTINUOUS
10
5.14234
20
-3.77715
11
5.14737
21
-3.78274
0
LINE
8
BLACK
6
CONTINUOUS
10
5.14737
20
-3.78274
11
5.15345
21
-3.78716
0
LINE
8
BLACK
6
CONTINUOUS
10
5.15345
20
-3.78716
11
5.15369
21
-3.78726
0
LINE
8
BLACK
6
CONTINUOUS
10
5.15369
20
-3.78726
11
5.15369
21
-3.78726
0
LINE
8
BLACK
6
CONTINUOUS
10
5.15369
20
-3.78726
11
5.15703
21
-3.78875
0
LINE
8
BLACK
6
CONTINUOUS
10
5.15703
20
-3.78875
11
5.16032
21
-3.79022
0
LINE
8
BLACK
6
CONTINUOUS
10
5.16032
20
-3.79022
11
5.164
21
-3.791
0
LINE
8
BLACK
6
CONTINUOUS
10
5.164
20
-3.791
11
5.16742
21
-3.79173
0
LINE
8
BLACK
6
CONTINUOUS
10
5.16742
20
-3.79173
11
5.16742
21
-3.79173
0
LINE
8
BLACK
6
CONTINUOUS
10
5.16742
20
-3.79173
11
5.16767
21
-3.79178
0
LINE
8
BLACK
6
CONTINUOUS
10
5.16767
20
-3.79178
11
5.17519
21
-3.79178
0
LINE
8
BLACK
6
CONTINUOUS
10
5.17519
20
-3.79178
11
5.17545
21
-3.79173
0
LINE
8
BLACK
6
CONTINUOUS
10
5.17545
20
-3.79173
11
5.17545
21
-3.79173
0
LINE
8
BLACK
6
CONTINUOUS
10
5.17545
20
-3.79173
11
5.17887
21
-3.791
0
LINE
8
BLACK
6
CONTINUOUS
10
5.17887
20
-3.791
11
5.18255
21
-3.79022
0
LINE
8
BLACK
6
CONTINUOUS
10
5.18255
20
-3.79022
11
5.18583
21
-3.78875
0
LINE
8
BLACK
6
CONTINUOUS
10
5.18583
20
-3.78875
11
5.18918
21
-3.78726
0
LINE
8
BLACK
6
CONTINUOUS
10
5.18918
20
-3.78726
11
5.18918
21
-3.78726
0
LINE
8
BLACK
6
CONTINUOUS
10
5.18918
20
-3.78726
11
5.18941
21
-3.78716
0
LINE
8
BLACK
6
CONTINUOUS
10
5.18941
20
-3.78716
11
5.1955
21
-3.78274
0
LINE
8
BLACK
6
CONTINUOUS
10
5.1955
20
-3.78274
11
5.20053
21
-3.77715
0
LINE
8
BLACK
6
CONTINUOUS
10
5.20053
20
-3.77715
11
5.20282
21
-3.77318
0
LINE
8
BLACK
6
CONTINUOUS
10
5.20282
20
-3.77318
11
5.20416
21
-3.77087
0
LINE
8
BLACK
6
CONTINUOUS
10
5.20416
20
-3.77087
11
5.20416
21
-3.77087
0
LINE
8
BLACK
6
CONTINUOUS
10
5.20416
20
-3.77087
11
5.20429
21
-3.77064
0
LINE
8
BLACK
6
CONTINUOUS
10
5.20429
20
-3.77064
11
5.20661
21
-3.76349
0
LINE
8
BLACK
6
CONTINUOUS
10
5.20661
20
-3.76349
11
5.2068
21
-3.76165
0
LINE
8
BLACK
6
CONTINUOUS
10
5.2068
20
-3.76165
11
5.20787
21
-3.75907
0
LINE
8
BLACK
6
CONTINUOUS
10
5.20787
20
-3.75907
11
5.20823
21
-3.75866
0
LINE
8
BLACK
6
CONTINUOUS
10
5.20823
20
-3.75866
11
5.22999
21
-3.7369
0
LINE
8
BLACK
6
CONTINUOUS
10
5.22999
20
-3.7369
11
5.23024
21
-3.73667
0
LINE
8
BLACK
6
CONTINUOUS
10
5.23024
20
-3.73667
11
5.23088
21
-3.73611
0
LINE
8
BLACK
6
CONTINUOUS
10
5.23088
20
-3.73611
11
5.23196
21
-3.73517
0
LINE
8
BLACK
6
CONTINUOUS
10
5.23196
20
-3.73517
11
5.2334
21
-3.73311
0
LINE
8
BLACK
6
CONTINUOUS
10
5.2334
20
-3.73311
11
5.23356
21
-3.7329
0
LINE
8
BLACK
6
CONTINUOUS
10
5.23356
20
-3.7329
11
5.23493
21
-3.73116
0
LINE
8
BLACK
6
CONTINUOUS
10
5.23493
20
-3.73116
11
5.23511
21
-3.73092
0
LINE
8
BLACK
6
CONTINUOUS
10
5.23511
20
-3.73092
11
5.23523
21
-3.73065
0
LINE
8
BLACK
6
CONTINUOUS
10
5.23523
20
-3.73065
11
5.23529
21
-3.73056
0
LINE
8
BLACK
6
CONTINUOUS
10
5.23529
20
-3.73056
11
5.23562
21
-3.72998
0
LINE
8
BLACK
6
CONTINUOUS
10
5.23562
20
-3.72998
11
5.23567
21
-3.72989
0
LINE
8
BLACK
6
CONTINUOUS
10
5.23567
20
-3.72989
11
5.23584
21
-3.72965
0
LINE
8
BLACK
6
CONTINUOUS
10
5.23584
20
-3.72965
11
5.23595
21
-3.72937
0
LINE
8
BLACK
6
CONTINUOUS
10
5.23595
20
-3.72937
11
5.23595
21
-3.72937
0
LINE
8
BLACK
6
CONTINUOUS
10
5.23595
20
-3.72937
11
5.23675
21
-3.7273
0
LINE
8
BLACK
6
CONTINUOUS
10
5.23675
20
-3.7273
11
5.23685
21
-3.72706
0
LINE
8
BLACK
6
CONTINUOUS
10
5.23685
20
-3.72706
11
5.23777
21
-3.72504
0
LINE
8
BLACK
6
CONTINUOUS
10
5.23777
20
-3.72504
11
5.23789
21
-3.72477
0
LINE
8
BLACK
6
CONTINUOUS
10
5.23789
20
-3.72477
11
5.23794
21
-3.72448
0
LINE
8
BLACK
6
CONTINUOUS
10
5.23794
20
-3.72448
11
5.23797
21
-3.72438
0
LINE
8
BLACK
6
CONTINUOUS
10
5.23797
20
-3.72438
11
5.23816
21
-3.72374
0
LINE
8
BLACK
6
CONTINUOUS
10
5.23816
20
-3.72374
11
5.23818
21
-3.72364
0
LINE
8
BLACK
6
CONTINUOUS
10
5.23818
20
-3.72364
11
5.23829
21
-3.72336
0
LINE
8
BLACK
6
CONTINUOUS
10
5.23829
20
-3.72336
11
5.23862
21
-3.72086
0
LINE
8
BLACK
6
CONTINUOUS
10
5.23862
20
-3.72086
11
5.23866
21
-3.72061
0
LINE
8
BLACK
6
CONTINUOUS
10
5.23866
20
-3.72061
11
5.23906
21
-3.71843
0
LINE
8
BLACK
6
CONTINUOUS
10
5.23906
20
-3.71843
11
5.23912
21
-3.71813
0
LINE
8
BLACK
6
CONTINUOUS
10
5.23912
20
-3.71813
11
5.23898
21
-3.71568
0
LINE
8
BLACK
6
CONTINUOUS
10
5.23898
20
-3.71568
11
5.23897
21
-3.7154
0
LINE
8
BLACK
6
CONTINUOUS
10
5.23897
20
-3.7154
11
5.23897
21
-3.37527
0
LINE
8
BLACK
6
CONTINUOUS
10
5.23897
20
-3.37527
11
5.23976
21
-3.37259
0
LINE
8
BLACK
6
CONTINUOUS
10
5.23976
20
-3.37259
11
5.23992
21
-3.37236
0
LINE
8
BLACK
6
CONTINUOUS
10
5.23992
20
-3.37236
11
5.24
21
-3.37224
0
LINE
8
BLACK
6
CONTINUOUS
10
5.24
20
-3.37224
11
5.24017
21
-3.37205
0
LINE
8
BLACK
6
CONTINUOUS
10
5.24017
20
-3.37205
11
5.24087
21
-3.37085
0
LINE
8
BLACK
6
CONTINUOUS
10
5.24087
20
-3.37085
11
5.2438
21
-3.36576
0
LINE
8
BLACK
6
CONTINUOUS
10
5.2438
20
-3.36576
11
5.2438
21
-3.36576
0
LINE
8
BLACK
6
CONTINUOUS
10
5.2438
20
-3.36576
11
5.24393
21
-3.36554
0
LINE
8
BLACK
6
CONTINUOUS
10
5.24393
20
-3.36554
11
5.24625
21
-3.35839
0
LINE
8
BLACK
6
CONTINUOUS
10
5.24625
20
-3.35839
11
5.24704
21
-3.35091
0
LINE
8
BLACK
6
CONTINUOUS
10
5.24704
20
-3.35091
11
5.24625
21
-3.34343
0
LINE
8
BLACK
6
CONTINUOUS
10
5.24625
20
-3.34343
11
5.24393
21
-3.33628
0
LINE
8
BLACK
6
CONTINUOUS
10
5.24393
20
-3.33628
11
5.24017
21
-3.32977
0
LINE
8
BLACK
6
CONTINUOUS
10
5.24017
20
-3.32977
11
5.23514
21
-3.32418
0
LINE
8
BLACK
6
CONTINUOUS
10
5.23514
20
-3.32418
11
5.23033
21
-3.32069
0
LINE
8
BLACK
6
CONTINUOUS
10
5.23033
20
-3.32069
11
5.22927
21
-3.31992
0
LINE
8
BLACK
6
CONTINUOUS
10
5.22927
20
-3.31992
11
5.22927
21
-3.31992
0
LINE
8
BLACK
6
CONTINUOUS
10
5.22927
20
-3.31992
11
5.22906
21
-3.31976
0
LINE
8
BLACK
6
CONTINUOUS
10
5.22906
20
-3.31976
11
5.22882
21
-3.31966
0
LINE
8
BLACK
6
CONTINUOUS
10
5.22882
20
-3.31966
11
5.22882
21
-3.31966
0
LINE
8
BLACK
6
CONTINUOUS
10
5.22882
20
-3.31966
11
5.22243
21
-3.31681
0
LINE
8
BLACK
6
CONTINUOUS
10
5.22243
20
-3.31681
11
5.22243
21
-3.31681
0
LINE
8
BLACK
6
CONTINUOUS
10
5.22243
20
-3.31681
11
5.22219
21
-3.31671
0
LINE
8
BLACK
6
CONTINUOUS
10
5.22219
20
-3.31671
11
5.21851
21
-3.31592
0
LINE
8
BLACK
6
CONTINUOUS
10
5.21851
20
-3.31592
11
5.21509
21
-3.3152
0
LINE
8
BLACK
6
CONTINUOUS
10
5.21509
20
-3.3152
11
5.21509
21
-3.3152
0
LINE
8
BLACK
6
CONTINUOUS
10
5.21509
20
-3.3152
11
5.21483
21
-3.31514
0
LINE
8
BLACK
6
CONTINUOUS
10
5.21483
20
-3.31514
11
5.20732
21
-3.31514
0
LINE
8
BLACK
6
CONTINUOUS
10
5.20732
20
-3.31514
11
5.20706
21
-3.3152
0
LINE
8
BLACK
6
CONTINUOUS
10
5.20706
20
-3.3152
11
5.20706
21
-3.3152
0
LINE
8
BLACK
6
CONTINUOUS
10
5.20706
20
-3.3152
11
5.20364
21
-3.31592
0
LINE
8
BLACK
6
CONTINUOUS
10
5.20364
20
-3.31592
11
5.19996
21
-3.31671
0
LINE
8
BLACK
6
CONTINUOUS
10
5.19996
20
-3.31671
11
5.19972
21
-3.31681
0
LINE
8
BLACK
6
CONTINUOUS
10
5.19972
20
-3.31681
11
5.19972
21
-3.31681
0
LINE
8
BLACK
6
CONTINUOUS
10
5.19972
20
-3.31681
11
5.19333
21
-3.31966
0
LINE
8
BLACK
6
CONTINUOUS
10
5.19333
20
-3.31966
11
5.19333
21
-3.31966
0
LINE
8
BLACK
6
CONTINUOUS
10
5.19333
20
-3.31966
11
5.19309
21
-3.31976
0
LINE
8
BLACK
6
CONTINUOUS
10
5.19309
20
-3.31976
11
5.19288
21
-3.31992
0
LINE
8
BLACK
6
CONTINUOUS
10
5.19288
20
-3.31992
11
5.19288
21
-3.31992
0
LINE
8
BLACK
6
CONTINUOUS
10
5.19288
20
-3.31992
11
5.19182
21
-3.32069
0
LINE
8
BLACK
6
CONTINUOUS
10
5.19182
20
-3.32069
11
5.18701
21
-3.32418
0
LINE
8
BLACK
6
CONTINUOUS
10
5.18701
20
-3.32418
11
5.18198
21
-3.32977
0
LINE
8
BLACK
6
CONTINUOUS
10
5.18198
20
-3.32977
11
5.17822
21
-3.33628
0
LINE
8
BLACK
6
CONTINUOUS
10
5.17822
20
-3.33628
11
5.1759
21
-3.34343
0
LINE
8
BLACK
6
CONTINUOUS
10
5.1759
20
-3.34343
11
5.17511
21
-3.35091
0
LINE
8
BLACK
6
CONTINUOUS
10
5.17511
20
-3.35091
11
5.1759
21
-3.35839
0
LINE
8
BLACK
6
CONTINUOUS
10
5.1759
20
-3.35839
11
5.17822
21
-3.36554
0
LINE
8
BLACK
6
CONTINUOUS
10
5.17822
20
-3.36554
11
5.17835
21
-3.36576
0
LINE
8
BLACK
6
CONTINUOUS
10
5.17835
20
-3.36576
11
5.17835
21
-3.36576
0
LINE
8
BLACK
6
CONTINUOUS
10
5.17835
20
-3.36576
11
5.18129
21
-3.37085
0
LINE
8
BLACK
6
CONTINUOUS
10
5.18129
20
-3.37085
11
5.18198
21
-3.37205
0
LINE
8
BLACK
6
CONTINUOUS
10
5.18198
20
-3.37205
11
5.18215
21
-3.37224
0
LINE
8
BLACK
6
CONTINUOUS
10
5.18215
20
-3.37224
11
5.18223
21
-3.37236
0
LINE
8
BLACK
6
CONTINUOUS
10
5.18223
20
-3.37236
11
5.18317
21
-3.37499
0
LINE
8
BLACK
6
CONTINUOUS
10
5.18317
20
-3.37499
11
5.18318
21
-3.37527
0
LINE
8
BLACK
6
CONTINUOUS
10
5.18318
20
-3.37527
11
5.18318
21
-3.70276
0
LINE
8
BLACK
6
CONTINUOUS
10
5.18318
20
-3.70276
11
5.18239
21
-3.70544
0
LINE
8
BLACK
6
CONTINUOUS
10
5.18239
20
-3.70544
11
5.18173
21
-3.70627
0
LINE
8
BLACK
6
CONTINUOUS
10
5.18173
20
-3.70627
11
5.16881
21
-3.71918
0
LINE
8
BLACK
6
CONTINUOUS
10
5.16881
20
-3.71918
11
5.16634
21
-3.72053
0
LINE
8
BLACK
6
CONTINUOUS
10
5.16634
20
-3.72053
11
5.16426
21
-3.72097
0
LINE
8
BLACK
6
CONTINUOUS
10
5.16426
20
-3.72097
11
5.16032
21
-3.72181
0
LINE
8
BLACK
6
CONTINUOUS
10
5.16032
20
-3.72181
11
5.16008
21
-3.72191
0
LINE
8
BLACK
6
CONTINUOUS
10
5.16008
20
-3.72191
11
5.16008
21
-3.72191
0
LINE
8
BLACK
6
CONTINUOUS
10
5.16008
20
-3.72191
11
5.15369
21
-3.72476
0
LINE
8
BLACK
6
CONTINUOUS
10
5.15369
20
-3.72476
11
5.15369
21
-3.72476
0
LINE
8
BLACK
6
CONTINUOUS
10
5.15369
20
-3.72476
11
5.15345
21
-3.72487
0
LINE
8
BLACK
6
CONTINUOUS
10
5.15345
20
-3.72487
11
5.14737
21
-3.72928
0
LINE
8
BLACK
6
CONTINUOUS
10
5.14737
20
-3.72928
11
5.14719
21
-3.72948
0
LINE
8
BLACK
6
CONTINUOUS
10
5.14719
20
-3.72948
11
5.14719
21
-3.72948
0
LINE
8
BLACK
6
CONTINUOUS
10
5.14719
20
-3.72948
11
5.1465
21
-3.73025
0
LINE
8
BLACK
6
CONTINUOUS
10
5.1465
20
-3.73025
11
5.14234
21
-3.73487
0
LINE
8
BLACK
6
CONTINUOUS
10
5.14234
20
-3.73487
11
5.13858
21
-3.74138
0
LINE
8
BLACK
6
CONTINUOUS
10
5.13858
20
-3.74138
11
5.13625
21
-3.74853
0
LINE
8
BLACK
6
CONTINUOUS
10
5.13625
20
-3.74853
11
5.13623
21
-3.74879
0
LINE
8
BLACK
6
CONTINUOUS
10
5.13623
20
-3.74879
11
5.13623
21
-3.74879
0
LINE
8
BLACK
6
CONTINUOUS
10
5.13623
20
-3.74879
11
5.13607
21
-3.75029
0
LINE
8
BLACK
6
CONTINUOUS
10
5.13607
20
-3.75029
11
5.13547
21
-3.75601
0
LINE
8
BLACK
6
CONTINUOUS
10
5.13547
20
-3.75601
11
5.13549
21
-3.75627
0
LINE
8
BLACK
6
CONTINUOUS
10
5.13549
20
-3.75627
11
5.13595
21
-3.76056
0
LINE
8
BLACK
6
CONTINUOUS
10
6.46333
20
-3.75062
11
6.46677
21
-3.75521
0
LINE
8
BLACK
6
CONTINUOUS
10
6.46677
20
-3.75521
11
6.47136
21
-3.75865
0
LINE
8
BLACK
6
CONTINUOUS
10
6.47136
20
-3.75865
11
6.47673
21
-3.76066
0
LINE
8
BLACK
6
CONTINUOUS
10
6.47673
20
-3.76066
11
6.47918
21
-3.76093
0
LINE
8
BLACK
6
CONTINUOUS
10
6.47918
20
-3.76093
11
6.54297
21
-3.76093
0
LINE
8
BLACK
6
CONTINUOUS
10
6.54297
20
-3.76093
11
6.54542
21
-3.76066
0
LINE
8
BLACK
6
CONTINUOUS
10
6.54542
20
-3.76066
11
6.55079
21
-3.75865
0
LINE
8
BLACK
6
CONTINUOUS
10
6.55079
20
-3.75865
11
6.55538
21
-3.75521
0
LINE
8
BLACK
6
CONTINUOUS
10
6.55538
20
-3.75521
11
6.55711
21
-3.75291
0
LINE
8
BLACK
6
CONTINUOUS
10
6.55711
20
-3.75291
11
6.55934
21
-3.75123
0
LINE
8
BLACK
6
CONTINUOUS
10
6.55934
20
-3.75123
11
6.56213
21
-3.75103
0
LINE
8
BLACK
6
CONTINUOUS
10
6.56213
20
-3.75103
11
6.56459
21
-3.75238
0
LINE
8
BLACK
6
CONTINUOUS
10
6.56459
20
-3.75238
11
6.56505
21
-3.75291
0
LINE
8
BLACK
6
CONTINUOUS
10
6.56505
20
-3.75291
11
6.56677
21
-3.75521
0
LINE
8
BLACK
6
CONTINUOUS
10
6.56677
20
-3.75521
11
6.57136
21
-3.75865
0
LINE
8
BLACK
6
CONTINUOUS
10
6.57136
20
-3.75865
11
6.57673
21
-3.76066
0
LINE
8
BLACK
6
CONTINUOUS
10
6.57673
20
-3.76066
11
6.57918
21
-3.76093
0
LINE
8
BLACK
6
CONTINUOUS
10
6.57918
20
-3.76093
11
6.64297
21
-3.76093
0
LINE
8
BLACK
6
CONTINUOUS
10
6.64297
20
-3.76093
11
6.64542
21
-3.76066
0
LINE
8
BLACK
6
CONTINUOUS
10
6.64542
20
-3.76066
11
6.65079
21
-3.75865
0
LINE
8
BLACK
6
CONTINUOUS
10
6.65079
20
-3.75865
11
6.65538
21
-3.75521
0
LINE
8
BLACK
6
CONTINUOUS
10
6.65538
20
-3.75521
11
6.65882
21
-3.75062
0
LINE
8
BLACK
6
CONTINUOUS
10
6.65882
20
-3.75062
11
6.66083
21
-3.74525
0
LINE
8
BLACK
6
CONTINUOUS
10
6.66083
20
-3.74525
11
6.6611
21
-3.74281
0
LINE
8
BLACK
6
CONTINUOUS
10
6.6611
20
-3.74281
11
6.6611
21
-3.67902
0
LINE
8
BLACK
6
CONTINUOUS
10
6.6611
20
-3.67902
11
6.66083
21
-3.67657
0
LINE
8
BLACK
6
CONTINUOUS
10
6.66083
20
-3.67657
11
6.65882
21
-3.6712
0
LINE
8
BLACK
6
CONTINUOUS
10
6.65882
20
-3.6712
11
6.65538
21
-3.66661
0
LINE
8
BLACK
6
CONTINUOUS
10
6.65538
20
-3.66661
11
6.65079
21
-3.66317
0
LINE
8
BLACK
6
CONTINUOUS
10
6.65079
20
-3.66317
11
6.64542
21
-3.66116
0
LINE
8
BLACK
6
CONTINUOUS
10
6.64542
20
-3.66116
11
6.64297
21
-3.66089
0
LINE
8
BLACK
6
CONTINUOUS
10
6.64297
20
-3.66089
11
6.57918
21
-3.66089
0
LINE
8
BLACK
6
CONTINUOUS
10
6.57918
20
-3.66089
11
6.57673
21
-3.66116
0
LINE
8
BLACK
6
CONTINUOUS
10
6.57673
20
-3.66116
11
6.57136
21
-3.66317
0
LINE
8
BLACK
6
CONTINUOUS
10
6.57136
20
-3.66317
11
6.56677
21
-3.66661
0
LINE
8
BLACK
6
CONTINUOUS
10
6.56677
20
-3.66661
11
6.56656
21
-3.66689
0
LINE
8
BLACK
6
CONTINUOUS
10
6.56656
20
-3.66689
11
6.56505
21
-3.66892
0
LINE
8
BLACK
6
CONTINUOUS
10
6.56505
20
-3.66892
11
6.56281
21
-3.67059
0
LINE
8
BLACK
6
CONTINUOUS
10
6.56281
20
-3.67059
11
6.56002
21
-3.67079
0
LINE
8
BLACK
6
CONTINUOUS
10
6.56002
20
-3.67079
11
6.55757
21
-3.66945
0
LINE
8
BLACK
6
CONTINUOUS
10
6.55757
20
-3.66945
11
6.55711
21
-3.66892
0
LINE
8
BLACK
6
CONTINUOUS
10
6.55711
20
-3.66892
11
6.55559
21
-3.66689
0
LINE
8
BLACK
6
CONTINUOUS
10
6.55559
20
-3.66689
11
6.55538
21
-3.66661
0
LINE
8
BLACK
6
CONTINUOUS
10
6.55538
20
-3.66661
11
6.55079
21
-3.66317
0
LINE
8
BLACK
6
CONTINUOUS
10
6.55079
20
-3.66317
11
6.54542
21
-3.66116
0
LINE
8
BLACK
6
CONTINUOUS
10
6.54542
20
-3.66116
11
6.54297
21
-3.66089
0
LINE
8
BLACK
6
CONTINUOUS
10
6.54297
20
-3.66089
11
6.47918
21
-3.66089
0
LINE
8
BLACK
6
CONTINUOUS
10
6.47918
20
-3.66089
11
6.47673
21
-3.66116
0
LINE
8
BLACK
6
CONTINUOUS
10
6.47673
20
-3.66116
11
6.47136
21
-3.66317
0
LINE
8
BLACK
6
CONTINUOUS
10
6.47136
20
-3.66317
11
6.46677
21
-3.66661
0
LINE
8
BLACK
6
CONTINUOUS
10
6.46677
20
-3.66661
11
6.46333
21
-3.6712
0
LINE
8
BLACK
6
CONTINUOUS
10
6.46333
20
-3.6712
11
6.46132
21
-3.67657
0
LINE
8
BLACK
6
CONTINUOUS
10
6.46132
20
-3.67657
11
6.46106
21
-3.67902
0
LINE
8
BLACK
6
CONTINUOUS
10
6.46106
20
-3.67902
11
6.46106
21
-3.74281
0
LINE
8
BLACK
6
CONTINUOUS
10
6.46106
20
-3.74281
11
6.46132
21
-3.74525
0
LINE
8
BLACK
6
CONTINUOUS
10
6.46132
20
-3.74525
11
6.46333
21
-3.75062
0
LINE
8
BLACK
6
CONTINUOUS
10
6.46333
20
-3.55062
11
6.46677
21
-3.55521
0
LINE
8
BLACK
6
CONTINUOUS
10
6.46677
20
-3.55521
11
6.47136
21
-3.55865
0
LINE
8
BLACK
6
CONTINUOUS
10
6.47136
20
-3.55865
11
6.47673
21
-3.56066
0
LINE
8
BLACK
6
CONTINUOUS
10
6.47673
20
-3.56066
11
6.47918
21
-3.56093
0
LINE
8
BLACK
6
CONTINUOUS
10
6.47918
20
-3.56093
11
6.54297
21
-3.56093
0
LINE
8
BLACK
6
CONTINUOUS
10
6.54297
20
-3.56093
11
6.54542
21
-3.56066
0
LINE
8
BLACK
6
CONTINUOUS
10
6.54542
20
-3.56066
11
6.55079
21
-3.55865
0
LINE
8
BLACK
6
CONTINUOUS
10
6.55079
20
-3.55865
11
6.55538
21
-3.55521
0
LINE
8
BLACK
6
CONTINUOUS
10
6.55538
20
-3.55521
11
6.55711
21
-3.55291
0
LINE
8
BLACK
6
CONTINUOUS
10
6.55711
20
-3.55291
11
6.55934
21
-3.55123
0
LINE
8
BLACK
6
CONTINUOUS
10
6.55934
20
-3.55123
11
6.56213
21
-3.55103
0
LINE
8
BLACK
6
CONTINUOUS
10
6.56213
20
-3.55103
11
6.56459
21
-3.55238
0
LINE
8
BLACK
6
CONTINUOUS
10
6.56459
20
-3.55238
11
6.56505
21
-3.55291
0
LINE
8
BLACK
6
CONTINUOUS
10
6.56505
20
-3.55291
11
6.56677
21
-3.55521
0
LINE
8
BLACK
6
CONTINUOUS
10
6.56677
20
-3.55521
11
6.57136
21
-3.55865
0
LINE
8
BLACK
6
CONTINUOUS
10
6.57136
20
-3.55865
11
6.57673
21
-3.56066
0
LINE
8
BLACK
6
CONTINUOUS
10
6.57673
20
-3.56066
11
6.57918
21
-3.56093
0
LINE
8
BLACK
6
CONTINUOUS
10
6.57918
20
-3.56093
11
6.64297
21
-3.56093
0
LINE
8
BLACK
6
CONTINUOUS
10
6.64297
20
-3.56093
11
6.64542
21
-3.56066
0
LINE
8
BLACK
6
CONTINUOUS
10
6.64542
20
-3.56066
11
6.65079
21
-3.55865
0
LINE
8
BLACK
6
CONTINUOUS
10
6.65079
20
-3.55865
11
6.65538
21
-3.55521
0
LINE
8
BLACK
6
CONTINUOUS
10
6.65538
20
-3.55521
11
6.65882
21
-3.55062
0
LINE
8
BLACK
6
CONTINUOUS
10
6.65882
20
-3.55062
11
6.66083
21
-3.54525
0
LINE
8
BLACK
6
CONTINUOUS
10
6.66083
20
-3.54525
11
6.6611
21
-3.54281
0
LINE
8
BLACK
6
CONTINUOUS
10
6.6611
20
-3.54281
11
6.6611
21
-3.47902
0
LINE
8
BLACK
6
CONTINUOUS
10
6.6611
20
-3.47902
11
6.66083
21
-3.47657
0
LINE
8
BLACK
6
CONTINUOUS
10
6.66083
20
-3.47657
11
6.65882
21
-3.4712
0
LINE
8
BLACK
6
CONTINUOUS
10
6.65882
20
-3.4712
11
6.65538
21
-3.46661
0
LINE
8
BLACK
6
CONTINUOUS
10
6.65538
20
-3.46661
11
6.65079
21
-3.46317
0
LINE
8
BLACK
6
CONTINUOUS
10
6.65079
20
-3.46317
11
6.64542
21
-3.46116
0
LINE
8
BLACK
6
CONTINUOUS
10
6.64542
20
-3.46116
11
6.64297
21
-3.46089
0
LINE
8
BLACK
6
CONTINUOUS
10
6.64297
20
-3.46089
11
6.57918
21
-3.46089
0
LINE
8
BLACK
6
CONTINUOUS
10
6.57918
20
-3.46089
11
6.57673
21
-3.46116
0
LINE
8
BLACK
6
CONTINUOUS
10
6.57673
20
-3.46116
11
6.57136
21
-3.46317
0
LINE
8
BLACK
6
CONTINUOUS
10
6.57136
20
-3.46317
11
6.56677
21
-3.46661
0
LINE
8
BLACK
6
CONTINUOUS
10
6.56677
20
-3.46661
11
6.56656
21
-3.46689
0
LINE
8
BLACK
6
CONTINUOUS
10
6.56656
20
-3.46689
11
6.56505
21
-3.46892
0
LINE
8
BLACK
6
CONTINUOUS
10
6.56505
20
-3.46892
11
6.56281
21
-3.47059
0
LINE
8
BLACK
6
CONTINUOUS
10
6.56281
20
-3.47059
11
6.56002
21
-3.47079
0
LINE
8
BLACK
6
CONTINUOUS
10
6.56002
20
-3.47079
11
6.55757
21
-3.46945
0
LINE
8
BLACK
6
CONTINUOUS
10
6.55757
20
-3.46945
11
6.55711
21
-3.46892
0
LINE
8
BLACK
6
CONTINUOUS
10
6.55711
20
-3.46892
11
6.55559
21
-3.46689
0
LINE
8
BLACK
6
CONTINUOUS
10
6.55559
20
-3.46689
11
6.55538
21
-3.46661
0
LINE
8
BLACK
6
CONTINUOUS
10
6.55538
20
-3.46661
11
6.55079
21
-3.46317
0
LINE
8
BLACK
6
CONTINUOUS
10
6.55079
20
-3.46317
11
6.54542
21
-3.46116
0
LINE
8
BLACK
6
CONTINUOUS
10
6.54542
20
-3.46116
11
6.54297
21
-3.46089
0
LINE
8
BLACK
6
CONTINUOUS
10
6.54297
20
-3.46089
11
6.47918
21
-3.46089
0
LINE
8
BLACK
6
CONTINUOUS
10
6.47918
20
-3.46089
11
6.47673
21
-3.46116
0
LINE
8
BLACK
6
CONTINUOUS
10
6.47673
20
-3.46116
11
6.47136
21
-3.46317
0
LINE
8
BLACK
6
CONTINUOUS
10
6.47136
20
-3.46317
11
6.46677
21
-3.46661
0
LINE
8
BLACK
6
CONTINUOUS
10
6.46677
20
-3.46661
11
6.46333
21
-3.4712
0
LINE
8
BLACK
6
CONTINUOUS
10
6.46333
20
-3.4712
11
6.46132
21
-3.47657
0
LINE
8
BLACK
6
CONTINUOUS
10
6.46132
20
-3.47657
11
6.46106
21
-3.47902
0
LINE
8
BLACK
6
CONTINUOUS
10
6.46106
20
-3.47902
11
6.46106
21
-3.54281
0
LINE
8
BLACK
6
CONTINUOUS
10
6.46106
20
-3.54281
11
6.46132
21
-3.54525
0
LINE
8
BLACK
6
CONTINUOUS
10
6.46132
20
-3.54525
11
6.46333
21
-3.55062
0
LINE
8
BLACK
6
CONTINUOUS
10
5.11011
20
-3.26354
11
5.11207
21
-3.27085
0
LINE
8
BLACK
6
CONTINUOUS
10
5.11207
20
-3.27085
11
5.11232
21
-3.27178
0
LINE
8
BLACK
6
CONTINUOUS
10
5.11232
20
-3.27178
11
5.11241
21
-3.27198
0
LINE
8
BLACK
6
CONTINUOUS
10
5.11241
20
-3.27198
11
5.11241
21
-3.27198
0
LINE
8
BLACK
6
CONTINUOUS
10
5.11241
20
-3.27198
11
5.11593
21
-3.27952
0
LINE
8
BLACK
6
CONTINUOUS
10
5.11593
20
-3.27952
11
5.11593
21
-3.27952
0
LINE
8
BLACK
6
CONTINUOUS
10
5.11593
20
-3.27952
11
5.11602
21
-3.27972
0
LINE
8
BLACK
6
CONTINUOUS
10
5.11602
20
-3.27972
11
5.11614
21
-3.27989
0
LINE
8
BLACK
6
CONTINUOUS
10
5.11614
20
-3.27989
11
5.11614
21
-3.27989
0
LINE
8
BLACK
6
CONTINUOUS
10
5.11614
20
-3.27989
11
5.12091
21
-3.28671
0
LINE
8
BLACK
6
CONTINUOUS
10
5.12091
20
-3.28671
11
5.12104
21
-3.28689
0
LINE
8
BLACK
6
CONTINUOUS
10
5.12104
20
-3.28689
11
5.12723
21
-3.29308
0
LINE
8
BLACK
6
CONTINUOUS
10
5.12723
20
-3.29308
11
5.1274
21
-3.2932
0
LINE
8
BLACK
6
CONTINUOUS
10
5.1274
20
-3.2932
11
5.1274
21
-3.2932
0
LINE
8
BLACK
6
CONTINUOUS
10
5.1274
20
-3.2932
11
5.12881
21
-3.29418
0
LINE
8
BLACK
6
CONTINUOUS
10
5.12881
20
-3.29418
11
5.1344
21
-3.2981
0
LINE
8
BLACK
6
CONTINUOUS
10
5.1344
20
-3.2981
11
5.13459
21
-3.29819
0
LINE
8
BLACK
6
CONTINUOUS
10
5.13459
20
-3.29819
11
5.13459
21
-3.29819
0
LINE
8
BLACK
6
CONTINUOUS
10
5.13459
20
-3.29819
11
5.14208
21
-3.30168
0
LINE
8
BLACK
6
CONTINUOUS
10
5.14208
20
-3.30168
11
5.14233
21
-3.30179
0
LINE
8
BLACK
6
CONTINUOUS
10
5.14233
20
-3.30179
11
5.14254
21
-3.30185
0
LINE
8
BLACK
6
CONTINUOUS
10
5.14254
20
-3.30185
11
5.14254
21
-3.30185
0
LINE
8
BLACK
6
CONTINUOUS
10
5.14254
20
-3.30185
11
5.14513
21
-3.30254
0
LINE
8
BLACK
6
CONTINUOUS
10
5.14513
20
-3.30254
11
5.15078
21
-3.30406
0
LINE
8
BLACK
6
CONTINUOUS
10
5.15078
20
-3.30406
11
5.1595
21
-3.30482
0
LINE
8
BLACK
6
CONTINUOUS
10
5.1595
20
-3.30482
11
5.16822
21
-3.30406
0
LINE
8
BLACK
6
CONTINUOUS
10
5.16822
20
-3.30406
11
5.17387
21
-3.30254
0
LINE
8
BLACK
6
CONTINUOUS
10
5.17387
20
-3.30254
11
5.17646
21
-3.30185
0
LINE
8
BLACK
6
CONTINUOUS
10
5.17646
20
-3.30185
11
5.17646
21
-3.30185
0
LINE
8
BLACK
6
CONTINUOUS
10
5.17646
20
-3.30185
11
5.17667
21
-3.30179
0
LINE
8
BLACK
6
CONTINUOUS
10
5.17667
20
-3.30179
11
5.17692
21
-3.30168
0
LINE
8
BLACK
6
CONTINUOUS
10
5.17692
20
-3.30168
11
5.18441
21
-3.29819
0
LINE
8
BLACK
6
CONTINUOUS
10
5.18441
20
-3.29819
11
5.18441
21
-3.29819
0
LINE
8
BLACK
6
CONTINUOUS
10
5.18441
20
-3.29819
11
5.18461
21
-3.2981
0
LINE
8
BLACK
6
CONTINUOUS
10
5.18461
20
-3.2981
11
5.19019
21
-3.29418
0
LINE
8
BLACK
6
CONTINUOUS
10
5.19019
20
-3.29418
11
5.1916
21
-3.2932
0
LINE
8
BLACK
6
CONTINUOUS
10
5.1916
20
-3.2932
11
5.1916
21
-3.2932
0
LINE
8
BLACK
6
CONTINUOUS
10
5.1916
20
-3.2932
11
5.19178
21
-3.29308
0
LINE
8
BLACK
6
CONTINUOUS
10
5.19178
20
-3.29308
11
5.19796
21
-3.28689
0
LINE
8
BLACK
6
CONTINUOUS
10
5.19796
20
-3.28689
11
5.19809
21
-3.28671
0
LINE
8
BLACK
6
CONTINUOUS
10
5.19809
20
-3.28671
11
5.20286
21
-3.27989
0
LINE
8
BLACK
6
CONTINUOUS
10
5.20286
20
-3.27989
11
5.20286
21
-3.27989
0
LINE
8
BLACK
6
CONTINUOUS
10
5.20286
20
-3.27989
11
5.20298
21
-3.27972
0
LINE
8
BLACK
6
CONTINUOUS
10
5.20298
20
-3.27972
11
5.20308
21
-3.27952
0
LINE
8
BLACK
6
CONTINUOUS
10
5.20308
20
-3.27952
11
5.20308
21
-3.27952
0
LINE
8
BLACK
6
CONTINUOUS
10
5.20308
20
-3.27952
11
5.20659
21
-3.27198
0
LINE
8
BLACK
6
CONTINUOUS
10
5.20659
20
-3.27198
11
5.20659
21
-3.27198
0
LINE
8
BLACK
6
CONTINUOUS
10
5.20659
20
-3.27198
11
5.20668
21
-3.27178
0
LINE
8
BLACK
6
CONTINUOUS
10
5.20668
20
-3.27178
11
5.20693
21
-3.27085
0
LINE
8
BLACK
6
CONTINUOUS
10
5.20693
20
-3.27085
11
5.20889
21
-3.26354
0
LINE
8
BLACK
6
CONTINUOUS
10
5.20889
20
-3.26354
11
5.20895
21
-3.26333
0
LINE
8
BLACK
6
CONTINUOUS
10
5.20895
20
-3.26333
11
5.20971
21
-3.25461
0
LINE
8
BLACK
6
CONTINUOUS
10
5.20971
20
-3.25461
11
5.20895
21
-3.24589
0
LINE
8
BLACK
6
CONTINUOUS
10
5.20895
20
-3.24589
11
5.20668
21
-3.23744
0
LINE
8
BLACK
6
CONTINUOUS
10
5.20668
20
-3.23744
11
5.20659
21
-3.23724
0
LINE
8
BLACK
6
CONTINUOUS
10
5.20659
20
-3.23724
11
5.20308
21
-3.2297
0
LINE
8
BLACK
6
CONTINUOUS
10
5.20308
20
-3.2297
11
5.20308
21
-3.2297
0
LINE
8
BLACK
6
CONTINUOUS
10
5.20308
20
-3.2297
11
5.20298
21
-3.22951
0
LINE
8
BLACK
6
CONTINUOUS
10
5.20298
20
-3.22951
11
5.20281
21
-3.22925
0
LINE
8
BLACK
6
CONTINUOUS
10
5.20281
20
-3.22925
11
5.19809
21
-3.22251
0
LINE
8
BLACK
6
CONTINUOUS
10
5.19809
20
-3.22251
11
5.19809
21
-3.22251
0
LINE
8
BLACK
6
CONTINUOUS
10
5.19809
20
-3.22251
11
5.19796
21
-3.22234
0
LINE
8
BLACK
6
CONTINUOUS
10
5.19796
20
-3.22234
11
5.19178
21
-3.21615
0
LINE
8
BLACK
6
CONTINUOUS
10
5.19178
20
-3.21615
11
5.1916
21
-3.21602
0
LINE
8
BLACK
6
CONTINUOUS
10
5.1916
20
-3.21602
11
5.1916
21
-3.21602
0
LINE
8
BLACK
6
CONTINUOUS
10
5.1916
20
-3.21602
11
5.18862
21
-3.21394
0
LINE
8
BLACK
6
CONTINUOUS
10
5.18862
20
-3.21394
11
5.18461
21
-3.21113
0
LINE
8
BLACK
6
CONTINUOUS
10
5.18461
20
-3.21113
11
5.18441
21
-3.21104
0
LINE
8
BLACK
6
CONTINUOUS
10
5.18441
20
-3.21104
11
5.18441
21
-3.21104
0
LINE
8
BLACK
6
CONTINUOUS
10
5.18441
20
-3.21104
11
5.17687
21
-3.20752
0
LINE
8
BLACK
6
CONTINUOUS
10
5.17687
20
-3.20752
11
5.17687
21
-3.20752
0
LINE
8
BLACK
6
CONTINUOUS
10
5.17687
20
-3.20752
11
5.17667
21
-3.20743
0
LINE
8
BLACK
6
CONTINUOUS
10
5.17667
20
-3.20743
11
5.17646
21
-3.20737
0
LINE
8
BLACK
6
CONTINUOUS
10
5.17646
20
-3.20737
11
5.17646
21
-3.20737
0
LINE
8
BLACK
6
CONTINUOUS
10
5.17646
20
-3.20737
11
5.17044
21
-3.20576
0
LINE
8
BLACK
6
CONTINUOUS
10
5.17044
20
-3.20576
11
5.16822
21
-3.20516
0
LINE
8
BLACK
6
CONTINUOUS
10
5.16822
20
-3.20516
11
5.1595
21
-3.2044
0
LINE
8
BLACK
6
CONTINUOUS
10
5.1595
20
-3.2044
11
5.15078
21
-3.20516
0
LINE
8
BLACK
6
CONTINUOUS
10
5.15078
20
-3.20516
11
5.14856
21
-3.20576
0
LINE
8
BLACK
6
CONTINUOUS
10
5.14856
20
-3.20576
11
5.14254
21
-3.20737
0
LINE
8
BLACK
6
CONTINUOUS
10
5.14254
20
-3.20737
11
5.14254
21
-3.20737
0
LINE
8
BLACK
6
CONTINUOUS
10
5.14254
20
-3.20737
11
5.14233
21
-3.20743
0
LINE
8
BLACK
6
CONTINUOUS
10
5.14233
20
-3.20743
11
5.14213
21
-3.20752
0
LINE
8
BLACK
6
CONTINUOUS
10
5.14213
20
-3.20752
11
5.14213
21
-3.20752
0
LINE
8
BLACK
6
CONTINUOUS
10
5.14213
20
-3.20752
11
5.13459
21
-3.21104
0
LINE
8
BLACK
6
CONTINUOUS
10
5.13459
20
-3.21104
11
5.13459
21
-3.21104
0
LINE
8
BLACK
6
CONTINUOUS
10
5.13459
20
-3.21104
11
5.1344
21
-3.21113
0
LINE
8
BLACK
6
CONTINUOUS
10
5.1344
20
-3.21113
11
5.13422
21
-3.21125
0
LINE
8
BLACK
6
CONTINUOUS
10
5.13422
20
-3.21125
11
5.13422
21
-3.21125
0
LINE
8
BLACK
6
CONTINUOUS
10
5.13422
20
-3.21125
11
5.1274
21
-3.21602
0
LINE
8
BLACK
6
CONTINUOUS
10
5.1274
20
-3.21602
11
5.1274
21
-3.21602
0
LINE
8
BLACK
6
CONTINUOUS
10
5.1274
20
-3.21602
11
5.12723
21
-3.21615
0
LINE
8
BLACK
6
CONTINUOUS
10
5.12723
20
-3.21615
11
5.12104
21
-3.22234
0
LINE
8
BLACK
6
CONTINUOUS
10
5.12104
20
-3.22234
11
5.12091
21
-3.22251
0
LINE
8
BLACK
6
CONTINUOUS
10
5.12091
20
-3.22251
11
5.12091
21
-3.22251
0
LINE
8
BLACK
6
CONTINUOUS
10
5.12091
20
-3.22251
11
5.1162
21
-3.22925
0
LINE
8
BLACK
6
CONTINUOUS
10
5.1162
20
-3.22925
11
5.11602
21
-3.22951
0
LINE
8
BLACK
6
CONTINUOUS
10
5.11602
20
-3.22951
11
5.11593
21
-3.2297
0
LINE
8
BLACK
6
CONTINUOUS
10
5.11593
20
-3.2297
11
5.11593
21
-3.2297
0
LINE
8
BLACK
6
CONTINUOUS
10
5.11593
20
-3.2297
11
5.11241
21
-3.23724
0
LINE
8
BLACK
6
CONTINUOUS
10
5.11241
20
-3.23724
11
5.11232
21
-3.23744
0
LINE
8
BLACK
6
CONTINUOUS
10
5.11232
20
-3.23744
11
5.11005
21
-3.24589
0
LINE
8
BLACK
6
CONTINUOUS
10
5.11005
20
-3.24589
11
5.10929
21
-3.25461
0
LINE
8
BLACK
6
CONTINUOUS
10
5.10929
20
-3.25461
11
5.11005
21
-3.26333
0
LINE
8
BLACK
6
CONTINUOUS
10
5.11005
20
-3.26333
11
5.11011
21
-3.26354
0
LINE
8
BLACK
6
CONTINUOUS
10
5.78044
20
-2.91136
11
5.77799
21
-2.91163
0
LINE
8
BLACK
6
CONTINUOUS
10
5.77799
20
-2.91163
11
5.77262
21
-2.91364
0
LINE
8
BLACK
6
CONTINUOUS
10
5.77262
20
-2.91364
11
5.76803
21
-2.91708
0
LINE
8
BLACK
6
CONTINUOUS
10
5.76803
20
-2.91708
11
5.76459
21
-2.92167
0
LINE
8
BLACK
6
CONTINUOUS
10
5.76459
20
-2.92167
11
5.76258
21
-2.92704
0
LINE
8
BLACK
6
CONTINUOUS
10
5.76258
20
-2.92704
11
5.76255
21
-2.92735
0
LINE
8
BLACK
6
CONTINUOUS
10
5.76255
20
-2.92735
11
5.7625
21
-2.92755
0
LINE
8
BLACK
6
CONTINUOUS
10
5.7625
20
-2.92755
11
5.76111
21
-2.92998
0
LINE
8
BLACK
6
CONTINUOUS
10
5.76111
20
-2.92998
11
5.75864
21
-2.93127
0
LINE
8
BLACK
6
CONTINUOUS
10
5.75864
20
-2.93127
11
5.75767
21
-2.93136
0
LINE
8
BLACK
6
CONTINUOUS
10
5.75767
20
-2.93136
11
5.70359
21
-2.93136
0
LINE
8
BLACK
6
CONTINUOUS
10
5.70359
20
-2.93136
11
5.70114
21
-2.93163
0
LINE
8
BLACK
6
CONTINUOUS
10
5.70114
20
-2.93163
11
5.69577
21
-2.93364
0
LINE
8
BLACK
6
CONTINUOUS
10
5.69577
20
-2.93364
11
5.69171
21
-2.93669
0
LINE
8
BLACK
6
CONTINUOUS
10
5.69171
20
-2.93669
11
5.69171
21
-3.02513
0
LINE
8
BLACK
6
CONTINUOUS
10
5.69171
20
-3.02513
11
5.69577
21
-3.02818
0
LINE
8
BLACK
6
CONTINUOUS
10
5.69577
20
-3.02818
11
5.70114
21
-3.03019
0
LINE
8
BLACK
6
CONTINUOUS
10
5.70114
20
-3.03019
11
5.70359
21
-3.03046
0
LINE
8
BLACK
6
CONTINUOUS
10
5.70359
20
-3.03046
11
5.75736
21
-3.03046
0
LINE
8
BLACK
6
CONTINUOUS
10
5.75736
20
-3.03046
11
5.76004
21
-3.03125
0
LINE
8
BLACK
6
CONTINUOUS
10
5.76004
20
-3.03125
11
5.76187
21
-3.03336
0
LINE
8
BLACK
6
CONTINUOUS
10
5.76187
20
-3.03336
11
5.76232
21
-3.03542
0
LINE
8
BLACK
6
CONTINUOUS
10
5.76232
20
-3.03542
11
5.76232
21
-3.13013
0
LINE
8
BLACK
6
CONTINUOUS
10
5.76232
20
-3.13013
11
5.76258
21
-3.13258
0
LINE
8
BLACK
6
CONTINUOUS
10
5.76258
20
-3.13258
11
5.76459
21
-3.13795
0
LINE
8
BLACK
6
CONTINUOUS
10
5.76459
20
-3.13795
11
5.76803
21
-3.14254
0
LINE
8
BLACK
6
CONTINUOUS
10
5.76803
20
-3.14254
11
5.77262
21
-3.14597
0
LINE
8
BLACK
6
CONTINUOUS
10
5.77262
20
-3.14597
11
5.77799
21
-3.14799
0
LINE
8
BLACK
6
CONTINUOUS
10
5.77799
20
-3.14799
11
5.78044
21
-3.14825
0
LINE
8
BLACK
6
CONTINUOUS
10
5.78044
20
-3.14825
11
5.94171
21
-3.14825
0
LINE
8
BLACK
6
CONTINUOUS
10
5.94171
20
-3.14825
11
5.94416
21
-3.14799
0
LINE
8
BLACK
6
CONTINUOUS
10
5.94416
20
-3.14799
11
5.94953
21
-3.14597
0
LINE
8
BLACK
6
CONTINUOUS
10
5.94953
20
-3.14597
11
5.95412
21
-3.14254
0
LINE
8
BLACK
6
CONTINUOUS
10
5.95412
20
-3.14254
11
5.95756
21
-3.13795
0
LINE
8
BLACK
6
CONTINUOUS
10
5.95756
20
-3.13795
11
5.95957
21
-3.13258
0
LINE
8
BLACK
6
CONTINUOUS
10
5.95957
20
-3.13258
11
5.95984
21
-3.13013
0
LINE
8
BLACK
6
CONTINUOUS
10
5.95984
20
-3.13013
11
5.95984
21
-2.92949
0
LINE
8
BLACK
6
CONTINUOUS
10
5.95984
20
-2.92949
11
5.95957
21
-2.92704
0
LINE
8
BLACK
6
CONTINUOUS
10
5.95957
20
-2.92704
11
5.95756
21
-2.92167
0
LINE
8
BLACK
6
CONTINUOUS
10
5.95756
20
-2.92167
11
5.95412
21
-2.91708
0
LINE
8
BLACK
6
CONTINUOUS
10
5.95412
20
-2.91708
11
5.94953
21
-2.91364
0
LINE
8
BLACK
6
CONTINUOUS
10
5.94953
20
-2.91364
11
5.94416
21
-2.91163
0
LINE
8
BLACK
6
CONTINUOUS
10
5.94416
20
-2.91163
11
5.94171
21
-2.91136
0
LINE
8
BLACK
6
CONTINUOUS
10
5.94171
20
-2.91136
11
5.78044
21
-2.91136
0
LINE
8
BLACK
6
CONTINUOUS
10
5.58145
20
-3.02015
11
5.58488
21
-3.02474
0
LINE
8
BLACK
6
CONTINUOUS
10
5.58488
20
-3.02474
11
5.58947
21
-3.02818
0
LINE
8
BLACK
6
CONTINUOUS
10
5.58947
20
-3.02818
11
5.5898
21
-3.0283
0
LINE
8
BLACK
6
CONTINUOUS
10
5.5898
20
-3.0283
11
5.5898
21
-3.0283
0
LINE
8
BLACK
6
CONTINUOUS
10
5.5898
20
-3.0283
11
5.59234
21
-3.02925
0
LINE
8
BLACK
6
CONTINUOUS
10
5.59234
20
-3.02925
11
5.59457
21
-3.03093
0
LINE
8
BLACK
6
CONTINUOUS
10
5.59457
20
-3.03093
11
5.59554
21
-3.03355
0
LINE
8
BLACK
6
CONTINUOUS
10
5.59554
20
-3.03355
11
5.59494
21
-3.03628
0
LINE
8
BLACK
6
CONTINUOUS
10
5.59494
20
-3.03628
11
5.59428
21
-3.03722
0
LINE
8
BLACK
6
CONTINUOUS
10
5.59428
20
-3.03722
11
5.59198
21
-3.03977
0
LINE
8
BLACK
6
CONTINUOUS
10
5.59198
20
-3.03977
11
5.58822
21
-3.04628
0
LINE
8
BLACK
6
CONTINUOUS
10
5.58822
20
-3.04628
11
5.5859
21
-3.05343
0
LINE
8
BLACK
6
CONTINUOUS
10
5.5859
20
-3.05343
11
5.58511
21
-3.06091
0
LINE
8
BLACK
6
CONTINUOUS
10
5.58511
20
-3.06091
11
5.5859
21
-3.06839
0
LINE
8
BLACK
6
CONTINUOUS
10
5.5859
20
-3.06839
11
5.58822
21
-3.07554
0
LINE
8
BLACK
6
CONTINUOUS
10
5.58822
20
-3.07554
11
5.59198
21
-3.08205
0
LINE
8
BLACK
6
CONTINUOUS
10
5.59198
20
-3.08205
11
5.59701
21
-3.08764
0
LINE
8
BLACK
6
CONTINUOUS
10
5.59701
20
-3.08764
11
5.60309
21
-3.09206
0
LINE
8
BLACK
6
CONTINUOUS
10
5.60309
20
-3.09206
11
5.60333
21
-3.09216
0
LINE
8
BLACK
6
CONTINUOUS
10
5.60333
20
-3.09216
11
5.60333
21
-3.09216
0
LINE
8
BLACK
6
CONTINUOUS
10
5.60333
20
-3.09216
11
5.60972
21
-3.09501
0
LINE
8
BLACK
6
CONTINUOUS
10
5.60972
20
-3.09501
11
5.60996
21
-3.09512
0
LINE
8
BLACK
6
CONTINUOUS
10
5.60996
20
-3.09512
11
5.61364
21
-3.0959
0
LINE
8
BLACK
6
CONTINUOUS
10
5.61364
20
-3.0959
11
5.61706
21
-3.09662
0
LINE
8
BLACK
6
CONTINUOUS
10
5.61706
20
-3.09662
11
5.61706
21
-3.09662
0
LINE
8
BLACK
6
CONTINUOUS
10
5.61706
20
-3.09662
11
5.61732
21
-3.09668
0
LINE
8
BLACK
6
CONTINUOUS
10
5.61732
20
-3.09668
11
5.62484
21
-3.09668
0
LINE
8
BLACK
6
CONTINUOUS
10
5.62484
20
-3.09668
11
5.62509
21
-3.09662
0
LINE
8
BLACK
6
CONTINUOUS
10
5.62509
20
-3.09662
11
5.62509
21
-3.09662
0
LINE
8
BLACK
6
CONTINUOUS
10
5.62509
20
-3.09662
11
5.62851
21
-3.0959
0
LINE
8
BLACK
6
CONTINUOUS
10
5.62851
20
-3.0959
11
5.63219
21
-3.09512
0
LINE
8
BLACK
6
CONTINUOUS
10
5.63219
20
-3.09512
11
5.63243
21
-3.09501
0
LINE
8
BLACK
6
CONTINUOUS
10
5.63243
20
-3.09501
11
5.63882
21
-3.09216
0
LINE
8
BLACK
6
CONTINUOUS
10
5.63882
20
-3.09216
11
5.63882
21
-3.09216
0
LINE
8
BLACK
6
CONTINUOUS
10
5.63882
20
-3.09216
11
5.63906
21
-3.09206
0
LINE
8
BLACK
6
CONTINUOUS
10
5.63906
20
-3.09206
11
5.64514
21
-3.08764
0
LINE
8
BLACK
6
CONTINUOUS
10
5.64514
20
-3.08764
11
5.65017
21
-3.08205
0
LINE
8
BLACK
6
CONTINUOUS
10
5.65017
20
-3.08205
11
5.65393
21
-3.07554
0
LINE
8
BLACK
6
CONTINUOUS
10
5.65393
20
-3.07554
11
5.65625
21
-3.06839
0
LINE
8
BLACK
6
CONTINUOUS
10
5.65625
20
-3.06839
11
5.65704
21
-3.06091
0
LINE
8
BLACK
6
CONTINUOUS
10
5.65704
20
-3.06091
11
5.65625
21
-3.05343
0
LINE
8
BLACK
6
CONTINUOUS
10
5.65625
20
-3.05343
11
5.65393
21
-3.04628
0
LINE
8
BLACK
6
CONTINUOUS
10
5.65393
20
-3.04628
11
5.65333
21
-3.04525
0
LINE
8
BLACK
6
CONTINUOUS
10
5.65333
20
-3.04525
11
5.65267
21
-3.04277
0
LINE
8
BLACK
6
CONTINUOUS
10
5.65267
20
-3.04277
11
5.65267
21
-3.0344
0
LINE
8
BLACK
6
CONTINUOUS
10
5.65267
20
-3.0344
11
5.65346
21
-3.03171
0
LINE
8
BLACK
6
CONTINUOUS
10
5.65346
20
-3.03171
11
5.65557
21
-3.02988
0
LINE
8
BLACK
6
CONTINUOUS
10
5.65557
20
-3.02988
11
5.65589
21
-3.02975
0
LINE
8
BLACK
6
CONTINUOUS
10
5.65589
20
-3.02975
11
5.65975
21
-3.0283
0
LINE
8
BLACK
6
CONTINUOUS
10
5.65975
20
-3.0283
11
5.66008
21
-3.02818
0
LINE
8
BLACK
6
CONTINUOUS
10
5.66008
20
-3.02818
11
5.66415
21
-3.02513
0
LINE
8
BLACK
6
CONTINUOUS
10
5.66415
20
-3.02513
11
5.66415
21
-2.93669
0
LINE
8
BLACK
6
CONTINUOUS
10
5.66415
20
-2.93669
11
5.66008
21
-2.93364
0
LINE
8
BLACK
6
CONTINUOUS
10
5.66008
20
-2.93364
11
5.65471
21
-2.93163
0
LINE
8
BLACK
6
CONTINUOUS
10
5.65471
20
-2.93163
11
5.65226
21
-2.93136
0
LINE
8
BLACK
6
CONTINUOUS
10
5.65226
20
-2.93136
11
5.59729
21
-2.93136
0
LINE
8
BLACK
6
CONTINUOUS
10
5.59729
20
-2.93136
11
5.59484
21
-2.93163
0
LINE
8
BLACK
6
CONTINUOUS
10
5.59484
20
-2.93163
11
5.58947
21
-2.93364
0
LINE
8
BLACK
6
CONTINUOUS
10
5.58947
20
-2.93364
11
5.58488
21
-2.93708
0
LINE
8
BLACK
6
CONTINUOUS
10
5.58488
20
-2.93708
11
5.58145
21
-2.94167
0
LINE
8
BLACK
6
CONTINUOUS
10
5.58145
20
-2.94167
11
5.57943
21
-2.94704
0
LINE
8
BLACK
6
CONTINUOUS
10
5.57943
20
-2.94704
11
5.57917
21
-2.94949
0
LINE
8
BLACK
6
CONTINUOUS
10
5.57917
20
-2.94949
11
5.57917
21
-3.01233
0
LINE
8
BLACK
6
CONTINUOUS
10
5.57917
20
-3.01233
11
5.57943
21
-3.01478
0
LINE
8
BLACK
6
CONTINUOUS
10
5.57943
20
-3.01478
11
5.58145
21
-3.02015
0
LINE
8
BLACK
6
CONTINUOUS
10
5.82759
20
-3.71647
11
5.82747
21
-3.71541
0
LINE
8
BLACK
6
CONTINUOUS
10
5.82747
20
-3.71541
11
5.82747
21
-3.65527
0
LINE
8
BLACK
6
CONTINUOUS
10
5.82747
20
-3.65527
11
5.82826
21
-3.65259
0
LINE
8
BLACK
6
CONTINUOUS
10
5.82826
20
-3.65259
11
5.82842
21
-3.65236
0
LINE
8
BLACK
6
CONTINUOUS
10
5.82842
20
-3.65236
11
5.8285
21
-3.65224
0
LINE
8
BLACK
6
CONTINUOUS
10
5.8285
20
-3.65224
11
5.82868
21
-3.65205
0
LINE
8
BLACK
6
CONTINUOUS
10
5.82868
20
-3.65205
11
5.83244
21
-3.64554
0
LINE
8
BLACK
6
CONTINUOUS
10
5.83244
20
-3.64554
11
5.83476
21
-3.63839
0
LINE
8
BLACK
6
CONTINUOUS
10
5.83476
20
-3.63839
11
5.83554
21
-3.63091
0
LINE
8
BLACK
6
CONTINUOUS
10
5.83554
20
-3.63091
11
5.83476
21
-3.62343
0
LINE
8
BLACK
6
CONTINUOUS
10
5.83476
20
-3.62343
11
5.83244
21
-3.61628
0
LINE
8
BLACK
6
CONTINUOUS
10
5.83244
20
-3.61628
11
5.82868
21
-3.60977
0
LINE
8
BLACK
6
CONTINUOUS
10
5.82868
20
-3.60977
11
5.82364
21
-3.60418
0
LINE
8
BLACK
6
CONTINUOUS
10
5.82364
20
-3.60418
11
5.81756
21
-3.59976
0
LINE
8
BLACK
6
CONTINUOUS
10
5.81756
20
-3.59976
11
5.81732
21
-3.59966
0
LINE
8
BLACK
6
CONTINUOUS
10
5.81732
20
-3.59966
11
5.81732
21
-3.59966
0
LINE
8
BLACK
6
CONTINUOUS
10
5.81732
20
-3.59966
11
5.81093
21
-3.59681
0
LINE
8
BLACK
6
CONTINUOUS
10
5.81093
20
-3.59681
11
5.81093
21
-3.59681
0
LINE
8
BLACK
6
CONTINUOUS
10
5.81093
20
-3.59681
11
5.81069
21
-3.59671
0
LINE
8
BLACK
6
CONTINUOUS
10
5.81069
20
-3.59671
11
5.80702
21
-3.59592
0
LINE
8
BLACK
6
CONTINUOUS
10
5.80702
20
-3.59592
11
5.80359
21
-3.5952
0
LINE
8
BLACK
6
CONTINUOUS
10
5.80359
20
-3.5952
11
5.80359
21
-3.5952
0
LINE
8
BLACK
6
CONTINUOUS
10
5.80359
20
-3.5952
11
5.80334
21
-3.59514
0
LINE
8
BLACK
6
CONTINUOUS
10
5.80334
20
-3.59514
11
5.79582
21
-3.59514
0
LINE
8
BLACK
6
CONTINUOUS
10
5.79582
20
-3.59514
11
5.79557
21
-3.5952
0
LINE
8
BLACK
6
CONTINUOUS
10
5.79557
20
-3.5952
11
5.79557
21
-3.5952
0
LINE
8
BLACK
6
CONTINUOUS
10
5.79557
20
-3.5952
11
5.79214
21
-3.59592
0
LINE
8
BLACK
6
CONTINUOUS
10
5.79214
20
-3.59592
11
5.78847
21
-3.59671
0
LINE
8
BLACK
6
CONTINUOUS
10
5.78847
20
-3.59671
11
5.78823
21
-3.59681
0
LINE
8
BLACK
6
CONTINUOUS
10
5.78823
20
-3.59681
11
5.78823
21
-3.59681
0
LINE
8
BLACK
6
CONTINUOUS
10
5.78823
20
-3.59681
11
5.78183
21
-3.59966
0
LINE
8
BLACK
6
CONTINUOUS
10
5.78183
20
-3.59966
11
5.78183
21
-3.59966
0
LINE
8
BLACK
6
CONTINUOUS
10
5.78183
20
-3.59966
11
5.7816
21
-3.59976
0
LINE
8
BLACK
6
CONTINUOUS
10
5.7816
20
-3.59976
11
5.77551
21
-3.60418
0
LINE
8
BLACK
6
CONTINUOUS
10
5.77551
20
-3.60418
11
5.77048
21
-3.60977
0
LINE
8
BLACK
6
CONTINUOUS
10
5.77048
20
-3.60977
11
5.76672
21
-3.61628
0
LINE
8
BLACK
6
CONTINUOUS
10
5.76672
20
-3.61628
11
5.7644
21
-3.62343
0
LINE
8
BLACK
6
CONTINUOUS
10
5.7644
20
-3.62343
11
5.76428
21
-3.62461
0
LINE
8
BLACK
6
CONTINUOUS
10
5.76428
20
-3.62461
11
5.76574
21
-3.62893
0
LINE
8
BLACK
6
CONTINUOUS
10
5.76574
20
-3.62893
11
5.76599
21
-3.63032
0
LINE
8
BLACK
6
CONTINUOUS
10
5.76599
20
-3.63032
11
5.76597
21
-3.63041
0
LINE
8
BLACK
6
CONTINUOUS
10
5.76597
20
-3.63041
11
5.766
21
-3.63051
0
LINE
8
BLACK
6
CONTINUOUS
10
5.766
20
-3.63051
11
5.766
21
-3.6433
0
LINE
8
BLACK
6
CONTINUOUS
10
5.766
20
-3.6433
11
5.76672
21
-3.64554
0
LINE
8
BLACK
6
CONTINUOUS
10
5.76672
20
-3.64554
11
5.77048
21
-3.65205
0
LINE
8
BLACK
6
CONTINUOUS
10
5.77048
20
-3.65205
11
5.77066
21
-3.65224
0
LINE
8
BLACK
6
CONTINUOUS
10
5.77066
20
-3.65224
11
5.77074
21
-3.65236
0
LINE
8
BLACK
6
CONTINUOUS
10
5.77074
20
-3.65236
11
5.77168
21
-3.65499
0
LINE
8
BLACK
6
CONTINUOUS
10
5.77168
20
-3.65499
11
5.77169
21
-3.65527
0
LINE
8
BLACK
6
CONTINUOUS
10
5.77169
20
-3.65527
11
5.77169
21
-3.70952
0
LINE
8
BLACK
6
CONTINUOUS
10
5.77169
20
-3.70952
11
5.77382
21
-3.71165
0
LINE
8
BLACK
6
CONTINUOUS
10
5.77382
20
-3.71165
11
5.77605
21
-3.71604
0
LINE
8
BLACK
6
CONTINUOUS
10
5.77605
20
-3.71604
11
5.77682
21
-3.72091
0
LINE
8
BLACK
6
CONTINUOUS
10
5.77682
20
-3.72091
11
5.77605
21
-3.72578
0
LINE
8
BLACK
6
CONTINUOUS
10
5.77605
20
-3.72578
11
5.77382
21
-3.73017
0
LINE
8
BLACK
6
CONTINUOUS
10
5.77382
20
-3.73017
11
5.77181
21
-3.73217
0
LINE
8
BLACK
6
CONTINUOUS
10
5.77181
20
-3.73217
11
5.77195
21
-3.73297
0
LINE
8
BLACK
6
CONTINUOUS
10
5.77195
20
-3.73297
11
5.77199
21
-3.73323
0
LINE
8
BLACK
6
CONTINUOUS
10
5.77199
20
-3.73323
11
5.77229
21
-3.73572
0
LINE
8
BLACK
6
CONTINUOUS
10
5.77229
20
-3.73572
11
5.7724
21
-3.736
0
LINE
8
BLACK
6
CONTINUOUS
10
5.7724
20
-3.736
11
5.77242
21
-3.73611
0
LINE
8
BLACK
6
CONTINUOUS
10
5.77242
20
-3.73611
11
5.7726
21
-3.73675
0
LINE
8
BLACK
6
CONTINUOUS
10
5.7726
20
-3.73675
11
5.77263
21
-3.73685
0
LINE
8
BLACK
6
CONTINUOUS
10
5.77263
20
-3.73685
11
5.77268
21
-3.73714
0
LINE
8
BLACK
6
CONTINUOUS
10
5.77268
20
-3.73714
11
5.7728
21
-3.73742
0
LINE
8
BLACK
6
CONTINUOUS
10
5.7728
20
-3.73742
11
5.77369
21
-3.73945
0
LINE
8
BLACK
6
CONTINUOUS
10
5.77369
20
-3.73945
11
5.77379
21
-3.73969
0
LINE
8
BLACK
6
CONTINUOUS
10
5.77379
20
-3.73969
11
5.77468
21
-3.74204
0
LINE
8
BLACK
6
CONTINUOUS
10
5.77468
20
-3.74204
11
5.77485
21
-3.74229
0
LINE
8
BLACK
6
CONTINUOUS
10
5.77485
20
-3.74229
11
5.7749
21
-3.74238
0
LINE
8
BLACK
6
CONTINUOUS
10
5.7749
20
-3.74238
11
5.77522
21
-3.74296
0
LINE
8
BLACK
6
CONTINUOUS
10
5.77522
20
-3.74296
11
5.77527
21
-3.74305
0
LINE
8
BLACK
6
CONTINUOUS
10
5.77527
20
-3.74305
11
5.77539
21
-3.74332
0
LINE
8
BLACK
6
CONTINUOUS
10
5.77539
20
-3.74332
11
5.77664
21
-3.74494
0
LINE
8
BLACK
6
CONTINUOUS
10
5.77664
20
-3.74494
11
5.77693
21
-3.74532
0
LINE
8
BLACK
6
CONTINUOUS
10
5.77693
20
-3.74532
11
5.77708
21
-3.74553
0
LINE
8
BLACK
6
CONTINUOUS
10
5.77708
20
-3.74553
11
5.77833
21
-3.74736
0
LINE
8
BLACK
6
CONTINUOUS
10
5.77833
20
-3.74736
11
5.77833
21
-3.74736
0
LINE
8
BLACK
6
CONTINUOUS
10
5.77833
20
-3.74736
11
5.7785
21
-3.7476
0
LINE
8
BLACK
6
CONTINUOUS
10
5.7785
20
-3.7476
11
5.77873
21
-3.7478
0
LINE
8
BLACK
6
CONTINUOUS
10
5.77873
20
-3.7478
11
5.77873
21
-3.7478
0
LINE
8
BLACK
6
CONTINUOUS
10
5.77873
20
-3.7478
11
5.78033
21
-3.74924
0
LINE
8
BLACK
6
CONTINUOUS
10
5.78033
20
-3.74924
11
5.78054
21
-3.74943
0
LINE
8
BLACK
6
CONTINUOUS
10
5.78054
20
-3.74943
11
5.83173
21
-3.80062
0
LINE
8
BLACK
6
CONTINUOUS
10
5.83173
20
-3.80062
11
5.83307
21
-3.80307
0
LINE
8
BLACK
6
CONTINUOUS
10
5.83307
20
-3.80307
11
5.83318
21
-3.80413
0
LINE
8
BLACK
6
CONTINUOUS
10
5.83318
20
-3.80413
11
5.83318
21
-3.89573
0
LINE
8
BLACK
6
CONTINUOUS
10
5.83318
20
-3.89573
11
5.83445
21
-3.89593
0
LINE
8
BLACK
6
CONTINUOUS
10
5.83445
20
-3.89593
11
5.83884
21
-3.89817
0
LINE
8
BLACK
6
CONTINUOUS
10
5.83884
20
-3.89817
11
5.84232
21
-3.90165
0
LINE
8
BLACK
6
CONTINUOUS
10
5.84232
20
-3.90165
11
5.84456
21
-3.90604
0
LINE
8
BLACK
6
CONTINUOUS
10
5.84456
20
-3.90604
11
5.84533
21
-3.91091
0
LINE
8
BLACK
6
CONTINUOUS
10
5.84533
20
-3.91091
11
5.84456
21
-3.91578
0
LINE
8
BLACK
6
CONTINUOUS
10
5.84456
20
-3.91578
11
5.84232
21
-3.92017
0
LINE
8
BLACK
6
CONTINUOUS
10
5.84232
20
-3.92017
11
5.83884
21
-3.92365
0
LINE
8
BLACK
6
CONTINUOUS
10
5.83884
20
-3.92365
11
5.8345
21
-3.92586
0
LINE
8
BLACK
6
CONTINUOUS
10
5.8345
20
-3.92586
11
5.8345
21
-3.94977
0
LINE
8
BLACK
6
CONTINUOUS
10
5.8345
20
-3.94977
11
5.83519
21
-3.95134
0
LINE
8
BLACK
6
CONTINUOUS
10
5.83519
20
-3.95134
11
5.83529
21
-3.95158
0
LINE
8
BLACK
6
CONTINUOUS
10
5.83529
20
-3.95158
11
5.83617
21
-3.95393
0
LINE
8
BLACK
6
CONTINUOUS
10
5.83617
20
-3.95393
11
5.83634
21
-3.95418
0
LINE
8
BLACK
6
CONTINUOUS
10
5.83634
20
-3.95418
11
5.83639
21
-3.95427
0
LINE
8
BLACK
6
CONTINUOUS
10
5.83639
20
-3.95427
11
5.83672
21
-3.95485
0
LINE
8
BLACK
6
CONTINUOUS
10
5.83672
20
-3.95485
11
5.83677
21
-3.95494
0
LINE
8
BLACK
6
CONTINUOUS
10
5.83677
20
-3.95494
11
5.83689
21
-3.95521
0
LINE
8
BLACK
6
CONTINUOUS
10
5.83689
20
-3.95521
11
5.83707
21
-3.95545
0
LINE
8
BLACK
6
CONTINUOUS
10
5.83707
20
-3.95545
11
5.83842
21
-3.95721
0
LINE
8
BLACK
6
CONTINUOUS
10
5.83842
20
-3.95721
11
5.83857
21
-3.95742
0
LINE
8
BLACK
6
CONTINUOUS
10
5.83857
20
-3.95742
11
5.83983
21
-3.95925
0
LINE
8
BLACK
6
CONTINUOUS
10
5.83983
20
-3.95925
11
5.83983
21
-3.95925
0
LINE
8
BLACK
6
CONTINUOUS
10
5.83983
20
-3.95925
11
5.84
21
-3.95949
0
LINE
8
BLACK
6
CONTINUOUS
10
5.84
20
-3.95949
11
5.84022
21
-3.95969
0
LINE
8
BLACK
6
CONTINUOUS
10
5.84022
20
-3.95969
11
5.84022
21
-3.95969
0
LINE
8
BLACK
6
CONTINUOUS
10
5.84022
20
-3.95969
11
5.84183
21
-3.96112
0
LINE
8
BLACK
6
CONTINUOUS
10
5.84183
20
-3.96112
11
5.84204
21
-3.96132
0
LINE
8
BLACK
6
CONTINUOUS
10
5.84204
20
-3.96132
11
5.97055
21
-4.08983
0
LINE
8
BLACK
6
CONTINUOUS
10
5.97055
20
-4.08983
11
5.97078
21
-4.09008
0
LINE
8
BLACK
6
CONTINUOUS
10
5.97078
20
-4.09008
11
5.97227
21
-4.09179
0
LINE
8
BLACK
6
CONTINUOUS
10
5.97227
20
-4.09179
11
5.97433
21
-4.09324
0
LINE
8
BLACK
6
CONTINUOUS
10
5.97433
20
-4.09324
11
5.97454
21
-4.09339
0
LINE
8
BLACK
6
CONTINUOUS
10
5.97454
20
-4.09339
11
5.97652
21
-4.09495
0
LINE
8
BLACK
6
CONTINUOUS
10
5.97652
20
-4.09495
11
5.97679
21
-4.09507
0
LINE
8
BLACK
6
CONTINUOUS
10
5.97679
20
-4.09507
11
5.97688
21
-4.09512
0
LINE
8
BLACK
6
CONTINUOUS
10
5.97688
20
-4.09512
11
5.97746
21
-4.09545
0
LINE
8
BLACK
6
CONTINUOUS
10
5.97746
20
-4.09545
11
5.97755
21
-4.0955
0
LINE
8
BLACK
6
CONTINUOUS
10
5.97755
20
-4.0955
11
5.9778
21
-4.09567
0
LINE
8
BLACK
6
CONTINUOUS
10
5.9778
20
-4.09567
11
5.97808
21
-4.09578
0
LINE
8
BLACK
6
CONTINUOUS
10
5.97808
20
-4.09578
11
5.97808
21
-4.09578
0
LINE
8
BLACK
6
CONTINUOUS
10
5.97808
20
-4.09578
11
5.98014
21
-4.09659
0
LINE
8
BLACK
6
CONTINUOUS
10
5.98014
20
-4.09659
11
5.98038
21
-4.09669
0
LINE
8
BLACK
6
CONTINUOUS
10
5.98038
20
-4.09669
11
5.98267
21
-4.09772
0
LINE
8
BLACK
6
CONTINUOUS
10
5.98267
20
-4.09772
11
5.98297
21
-4.09778
0
LINE
8
BLACK
6
CONTINUOUS
10
5.98297
20
-4.09778
11
5.98307
21
-4.09781
0
LINE
8
BLACK
6
CONTINUOUS
10
5.98307
20
-4.09781
11
5.98371
21
-4.09799
0
LINE
8
BLACK
6
CONTINUOUS
10
5.98371
20
-4.09799
11
5.98381
21
-4.09802
0
LINE
8
BLACK
6
CONTINUOUS
10
5.98381
20
-4.09802
11
5.98409
21
-4.09813
0
LINE
8
BLACK
6
CONTINUOUS
10
5.98409
20
-4.09813
11
5.98438
21
-4.09817
0
LINE
8
BLACK
6
CONTINUOUS
10
5.98438
20
-4.09817
11
5.98658
21
-4.09846
0
LINE
8
BLACK
6
CONTINUOUS
10
5.98658
20
-4.09846
11
5.98684
21
-4.0985
0
LINE
8
BLACK
6
CONTINUOUS
10
5.98684
20
-4.0985
11
5.98835
21
-4.09878
0
LINE
8
BLACK
6
CONTINUOUS
10
5.98835
20
-4.09878
11
5.98931
21
-4.09895
0
LINE
8
BLACK
6
CONTINUOUS
10
5.98931
20
-4.09895
11
5.98961
21
-4.09894
0
LINE
8
BLACK
6
CONTINUOUS
10
5.98961
20
-4.09894
11
5.98961
21
-4.09894
0
LINE
8
BLACK
6
CONTINUOUS
10
5.98961
20
-4.09894
11
5.99176
21
-4.09881
0
LINE
8
BLACK
6
CONTINUOUS
10
5.99176
20
-4.09881
11
5.99205
21
-4.0988
0
LINE
8
BLACK
6
CONTINUOUS
10
5.99205
20
-4.0988
11
6.127
21
-4.0988
0
LINE
8
BLACK
6
CONTINUOUS
10
6.127
20
-4.0988
11
6.12969
21
-4.09959
0
LINE
8
BLACK
6
CONTINUOUS
10
6.12969
20
-4.09959
11
6.12992
21
-4.09975
0
LINE
8
BLACK
6
CONTINUOUS
10
6.12992
20
-4.09975
11
6.13309
21
-4.10206
0
LINE
8
BLACK
6
CONTINUOUS
10
6.13309
20
-4.10206
11
6.13333
21
-4.10216
0
LINE
8
BLACK
6
CONTINUOUS
10
6.13333
20
-4.10216
11
6.13333
21
-4.10216
0
LINE
8
BLACK
6
CONTINUOUS
10
6.13333
20
-4.10216
11
6.13972
21
-4.10501
0
LINE
8
BLACK
6
CONTINUOUS
10
6.13972
20
-4.10501
11
6.13996
21
-4.10512
0
LINE
8
BLACK
6
CONTINUOUS
10
6.13996
20
-4.10512
11
6.14364
21
-4.1059
0
LINE
8
BLACK
6
CONTINUOUS
10
6.14364
20
-4.1059
11
6.14706
21
-4.10662
0
LINE
8
BLACK
6
CONTINUOUS
10
6.14706
20
-4.10662
11
6.14706
21
-4.10662
0
LINE
8
BLACK
6
CONTINUOUS
10
6.14706
20
-4.10662
11
6.14732
21
-4.10668
0
LINE
8
BLACK
6
CONTINUOUS
10
6.14732
20
-4.10668
11
6.15484
21
-4.10668
0
LINE
8
BLACK
6
CONTINUOUS
10
6.15484
20
-4.10668
11
6.15509
21
-4.10662
0
LINE
8
BLACK
6
CONTINUOUS
10
6.15509
20
-4.10662
11
6.15509
21
-4.10662
0
LINE
8
BLACK
6
CONTINUOUS
10
6.15509
20
-4.10662
11
6.15851
21
-4.1059
0
LINE
8
BLACK
6
CONTINUOUS
10
6.15851
20
-4.1059
11
6.16219
21
-4.10512
0
LINE
8
BLACK
6
CONTINUOUS
10
6.16219
20
-4.10512
11
6.16243
21
-4.10501
0
LINE
8
BLACK
6
CONTINUOUS
10
6.16243
20
-4.10501
11
6.16882
21
-4.10216
0
LINE
8
BLACK
6
CONTINUOUS
10
6.16882
20
-4.10216
11
6.16882
21
-4.10216
0
LINE
8
BLACK
6
CONTINUOUS
10
6.16882
20
-4.10216
11
6.16906
21
-4.10206
0
LINE
8
BLACK
6
CONTINUOUS
10
6.16906
20
-4.10206
11
6.17508
21
-4.09768
0
LINE
8
BLACK
6
CONTINUOUS
10
6.17508
20
-4.09768
11
6.17771
21
-4.09674
0
LINE
8
BLACK
6
CONTINUOUS
10
6.17771
20
-4.09674
11
6.18044
21
-4.09738
0
LINE
8
BLACK
6
CONTINUOUS
10
6.18044
20
-4.09738
11
6.18238
21
-4.09938
0
LINE
8
BLACK
6
CONTINUOUS
10
6.18238
20
-4.09938
11
6.18264
21
-4.09995
0
LINE
8
BLACK
6
CONTINUOUS
10
6.18264
20
-4.09995
11
6.18381
21
-4.10306
0
LINE
8
BLACK
6
CONTINUOUS
10
6.18381
20
-4.10306
11
6.18686
21
-4.10713
0
LINE
8
BLACK
6
CONTINUOUS
10
6.18686
20
-4.10713
11
6.2753
21
-4.10713
0
LINE
8
BLACK
6
CONTINUOUS
10
6.2753
20
-4.10713
11
6.27834
21
-4.10306
0
LINE
8
BLACK
6
CONTINUOUS
10
6.27834
20
-4.10306
11
6.28036
21
-4.0977
0
LINE
8
BLACK
6
CONTINUOUS
10
6.28036
20
-4.0977
11
6.28062
21
-4.09525
0
LINE
8
BLACK
6
CONTINUOUS
10
6.28062
20
-4.09525
11
6.28062
21
-4.04028
0
LINE
8
BLACK
6
CONTINUOUS
10
6.28062
20
-4.04028
11
6.28036
21
-4.03783
0
LINE
8
BLACK
6
CONTINUOUS
10
6.28036
20
-4.03783
11
6.27834
21
-4.03246
0
LINE
8
BLACK
6
CONTINUOUS
10
6.27834
20
-4.03246
11
6.2749
21
-4.02787
0
LINE
8
BLACK
6
CONTINUOUS
10
6.2749
20
-4.02787
11
6.27032
21
-4.02443
0
LINE
8
BLACK
6
CONTINUOUS
10
6.27032
20
-4.02443
11
6.26495
21
-4.02242
0
LINE
8
BLACK
6
CONTINUOUS
10
6.26495
20
-4.02242
11
6.2625
21
-4.02215
0
LINE
8
BLACK
6
CONTINUOUS
10
6.2625
20
-4.02215
11
6.19965
21
-4.02215
0
LINE
8
BLACK
6
CONTINUOUS
10
6.19965
20
-4.02215
11
6.1972
21
-4.02242
0
LINE
8
BLACK
6
CONTINUOUS
10
6.1972
20
-4.02242
11
6.19184
21
-4.02443
0
LINE
8
BLACK
6
CONTINUOUS
10
6.19184
20
-4.02443
11
6.18725
21
-4.02787
0
LINE
8
BLACK
6
CONTINUOUS
10
6.18725
20
-4.02787
11
6.18381
21
-4.03246
0
LINE
8
BLACK
6
CONTINUOUS
10
6.18381
20
-4.03246
11
6.18368
21
-4.03279
0
LINE
8
BLACK
6
CONTINUOUS
10
6.18368
20
-4.03279
11
6.18224
21
-4.03665
0
LINE
8
BLACK
6
CONTINUOUS
10
6.18224
20
-4.03665
11
6.18056
21
-4.03888
0
LINE
8
BLACK
6
CONTINUOUS
10
6.18056
20
-4.03888
11
6.17794
21
-4.03986
0
LINE
8
BLACK
6
CONTINUOUS
10
6.17794
20
-4.03986
11
6.17759
21
-4.03987
0
LINE
8
BLACK
6
CONTINUOUS
10
6.17759
20
-4.03987
11
6.17034
21
-4.03987
0
LINE
8
BLACK
6
CONTINUOUS
10
6.17034
20
-4.03987
11
6.16833
21
-4.03944
0
LINE
8
BLACK
6
CONTINUOUS
10
6.16833
20
-4.03944
11
6.16243
21
-4.03681
0
LINE
8
BLACK
6
CONTINUOUS
10
6.16243
20
-4.03681
11
6.16243
21
-4.03681
0
LINE
8
BLACK
6
CONTINUOUS
10
6.16243
20
-4.03681
11
6.16219
21
-4.03671
0
LINE
8
BLACK
6
CONTINUOUS
10
6.16219
20
-4.03671
11
6.15851
21
-4.03592
0
LINE
8
BLACK
6
CONTINUOUS
10
6.15851
20
-4.03592
11
6.15509
21
-4.0352
0
LINE
8
BLACK
6
CONTINUOUS
10
6.15509
20
-4.0352
11
6.15509
21
-4.0352
0
LINE
8
BLACK
6
CONTINUOUS
10
6.15509
20
-4.0352
11
6.15484
21
-4.03514
0
LINE
8
BLACK
6
CONTINUOUS
10
6.15484
20
-4.03514
11
6.14732
21
-4.03514
0
LINE
8
BLACK
6
CONTINUOUS
10
6.14732
20
-4.03514
11
6.14706
21
-4.0352
0
LINE
8
BLACK
6
CONTINUOUS
10
6.14706
20
-4.0352
11
6.14706
21
-4.0352
0
LINE
8
BLACK
6
CONTINUOUS
10
6.14706
20
-4.0352
11
6.14364
21
-4.03592
0
LINE
8
BLACK
6
CONTINUOUS
10
6.14364
20
-4.03592
11
6.13996
21
-4.03671
0
LINE
8
BLACK
6
CONTINUOUS
10
6.13996
20
-4.03671
11
6.13972
21
-4.03681
0
LINE
8
BLACK
6
CONTINUOUS
10
6.13972
20
-4.03681
11
6.13972
21
-4.03681
0
LINE
8
BLACK
6
CONTINUOUS
10
6.13972
20
-4.03681
11
6.13333
21
-4.03966
0
LINE
8
BLACK
6
CONTINUOUS
10
6.13333
20
-4.03966
11
6.13333
21
-4.03966
0
LINE
8
BLACK
6
CONTINUOUS
10
6.13333
20
-4.03966
11
6.13309
21
-4.03976
0
LINE
8
BLACK
6
CONTINUOUS
10
6.13309
20
-4.03976
11
6.13288
21
-4.03992
0
LINE
8
BLACK
6
CONTINUOUS
10
6.13288
20
-4.03992
11
6.13288
21
-4.03992
0
LINE
8
BLACK
6
CONTINUOUS
10
6.13288
20
-4.03992
11
6.12992
21
-4.04207
0
LINE
8
BLACK
6
CONTINUOUS
10
6.12992
20
-4.04207
11
6.12729
21
-4.04301
0
LINE
8
BLACK
6
CONTINUOUS
10
6.12729
20
-4.04301
11
6.127
21
-4.04302
0
LINE
8
BLACK
6
CONTINUOUS
10
6.127
20
-4.04302
11
6.00468
21
-4.04302
0
LINE
8
BLACK
6
CONTINUOUS
10
6.00468
20
-4.04302
11
6.002
21
-4.04223
0
LINE
8
BLACK
6
CONTINUOUS
10
6.002
20
-4.04223
11
6.00118
21
-4.04156
0
LINE
8
BLACK
6
CONTINUOUS
10
6.00118
20
-4.04156
11
5.89042
21
-3.93081
0
LINE
8
BLACK
6
CONTINUOUS
10
5.89042
20
-3.93081
11
5.88908
21
-3.92836
0
LINE
8
BLACK
6
CONTINUOUS
10
5.88908
20
-3.92836
11
5.88897
21
-3.9273
0
LINE
8
BLACK
6
CONTINUOUS
10
5.88897
20
-3.9273
11
5.88897
21
-3.8808
0
LINE
8
BLACK
6
CONTINUOUS
10
5.88897
20
-3.8808
11
5.88834
21
-3.88017
0
LINE
8
BLACK
6
CONTINUOUS
10
5.88834
20
-3.88017
11
5.8861
21
-3.87578
0
LINE
8
BLACK
6
CONTINUOUS
10
5.8861
20
-3.87578
11
5.88533
21
-3.87091
0
LINE
8
BLACK
6
CONTINUOUS
10
5.88533
20
-3.87091
11
5.8861
21
-3.86604
0
LINE
8
BLACK
6
CONTINUOUS
10
5.8861
20
-3.86604
11
5.88834
21
-3.86165
0
LINE
8
BLACK
6
CONTINUOUS
10
5.88834
20
-3.86165
11
5.88897
21
-3.86102
0
LINE
8
BLACK
6
CONTINUOUS
10
5.88897
20
-3.86102
11
5.88897
21
-3.79166
0
LINE
8
BLACK
6
CONTINUOUS
10
5.88897
20
-3.79166
11
5.88898
21
-3.79132
0
LINE
8
BLACK
6
CONTINUOUS
10
5.88898
20
-3.79132
11
5.88912
21
-3.78935
0
LINE
8
BLACK
6
CONTINUOUS
10
5.88912
20
-3.78935
11
5.88912
21
-3.78934
0
LINE
8
BLACK
6
CONTINUOUS
10
5.88912
20
-3.78934
11
5.88914
21
-3.78905
0
LINE
8
BLACK
6
CONTINUOUS
10
5.88914
20
-3.78905
11
5.8887
21
-3.78657
0
LINE
8
BLACK
6
CONTINUOUS
10
5.8887
20
-3.78657
11
5.88867
21
-3.78631
0
LINE
8
BLACK
6
CONTINUOUS
10
5.88867
20
-3.78631
11
5.8884
21
-3.78411
0
LINE
8
BLACK
6
CONTINUOUS
10
5.8884
20
-3.78411
11
5.88836
21
-3.78381
0
LINE
8
BLACK
6
CONTINUOUS
10
5.88836
20
-3.78381
11
5.88826
21
-3.78354
0
LINE
8
BLACK
6
CONTINUOUS
10
5.88826
20
-3.78354
11
5.88823
21
-3.78343
0
LINE
8
BLACK
6
CONTINUOUS
10
5.88823
20
-3.78343
11
5.88806
21
-3.78279
0
LINE
8
BLACK
6
CONTINUOUS
10
5.88806
20
-3.78279
11
5.88803
21
-3.78269
0
LINE
8
BLACK
6
CONTINUOUS
10
5.88803
20
-3.78269
11
5.88797
21
-3.7824
0
LINE
8
BLACK
6
CONTINUOUS
10
5.88797
20
-3.7824
11
5.88696
21
-3.78009
0
LINE
8
BLACK
6
CONTINUOUS
10
5.88696
20
-3.78009
11
5.88687
21
-3.77985
0
LINE
8
BLACK
6
CONTINUOUS
10
5.88687
20
-3.77985
11
5.88608
21
-3.77778
0
LINE
8
BLACK
6
CONTINUOUS
10
5.88608
20
-3.77778
11
5.88608
21
-3.77778
0
LINE
8
BLACK
6
CONTINUOUS
10
5.88608
20
-3.77778
11
5.88598
21
-3.7775
0
LINE
8
BLACK
6
CONTINUOUS
10
5.88598
20
-3.7775
11
5.88581
21
-3.77725
0
LINE
8
BLACK
6
CONTINUOUS
10
5.88581
20
-3.77725
11
5.88576
21
-3.77716
0
LINE
8
BLACK
6
CONTINUOUS
10
5.88576
20
-3.77716
11
5.88544
21
-3.77658
0
LINE
8
BLACK
6
CONTINUOUS
10
5.88544
20
-3.77658
11
5.88538
21
-3.77649
0
LINE
8
BLACK
6
CONTINUOUS
10
5.88538
20
-3.77649
11
5.88526
21
-3.77621
0
LINE
8
BLACK
6
CONTINUOUS
10
5.88526
20
-3.77621
11
5.88508
21
-3.77598
0
LINE
8
BLACK
6
CONTINUOUS
10
5.88508
20
-3.77598
11
5.88508
21
-3.77598
0
LINE
8
BLACK
6
CONTINUOUS
10
5.88508
20
-3.77598
11
5.88373
21
-3.77422
0
LINE
8
BLACK
6
CONTINUOUS
10
5.88373
20
-3.77422
11
5.88358
21
-3.77401
0
LINE
8
BLACK
6
CONTINUOUS
10
5.88358
20
-3.77401
11
5.88232
21
-3.77218
0
LINE
8
BLACK
6
CONTINUOUS
10
5.88232
20
-3.77218
11
5.88232
21
-3.77218
0
LINE
8
BLACK
6
CONTINUOUS
10
5.88232
20
-3.77218
11
5.88215
21
-3.77194
0
LINE
8
BLACK
6
CONTINUOUS
10
5.88215
20
-3.77194
11
5.88032
21
-3.7703
0
LINE
8
BLACK
6
CONTINUOUS
10
5.88032
20
-3.7703
11
5.88011
21
-3.77011
0
LINE
8
BLACK
6
CONTINUOUS
10
5.88011
20
-3.77011
11
5.85281
21
-3.74281
0
LINE
8
BLACK
6
CONTINUOUS
10
5.85281
20
-3.74281
11
5.82893
21
-3.71892
0
LINE
8
BLACK
6
CONTINUOUS
10
5.82893
20
-3.71892
11
5.82759
21
-3.71647
0
LINE
8
BLACK
6
CONTINUOUS
10
5.6559
20
-3.81839
11
5.65822
21
-3.82554
0
LINE
8
BLACK
6
CONTINUOUS
10
5.65822
20
-3.82554
11
5.66198
21
-3.83205
0
LINE
8
BLACK
6
CONTINUOUS
10
5.66198
20
-3.83205
11
5.66701
21
-3.83764
0
LINE
8
BLACK
6
CONTINUOUS
10
5.66701
20
-3.83764
11
5.67309
21
-3.84206
0
LINE
8
BLACK
6
CONTINUOUS
10
5.67309
20
-3.84206
11
5.67333
21
-3.84216
0
LINE
8
BLACK
6
CONTINUOUS
10
5.67333
20
-3.84216
11
5.67333
21
-3.84216
0
LINE
8
BLACK
6
CONTINUOUS
10
5.67333
20
-3.84216
11
5.67972
21
-3.84501
0
LINE
8
BLACK
6
CONTINUOUS
10
5.67972
20
-3.84501
11
5.67996
21
-3.84512
0
LINE
8
BLACK
6
CONTINUOUS
10
5.67996
20
-3.84512
11
5.68364
21
-3.8459
0
LINE
8
BLACK
6
CONTINUOUS
10
5.68364
20
-3.8459
11
5.68706
21
-3.84662
0
LINE
8
BLACK
6
CONTINUOUS
10
5.68706
20
-3.84662
11
5.68706
21
-3.84662
0
LINE
8
BLACK
6
CONTINUOUS
10
5.68706
20
-3.84662
11
5.68732
21
-3.84668
0
LINE
8
BLACK
6
CONTINUOUS
10
5.68732
20
-3.84668
11
5.69484
21
-3.84668
0
LINE
8
BLACK
6
CONTINUOUS
10
5.69484
20
-3.84668
11
5.69509
21
-3.84662
0
LINE
8
BLACK
6
CONTINUOUS
10
5.69509
20
-3.84662
11
5.69509
21
-3.84662
0
LINE
8
BLACK
6
CONTINUOUS
10
5.69509
20
-3.84662
11
5.69851
21
-3.8459
0
LINE
8
BLACK
6
CONTINUOUS
10
5.69851
20
-3.8459
11
5.70219
21
-3.84512
0
LINE
8
BLACK
6
CONTINUOUS
10
5.70219
20
-3.84512
11
5.70243
21
-3.84501
0
LINE
8
BLACK
6
CONTINUOUS
10
5.70243
20
-3.84501
11
5.70882
21
-3.84216
0
LINE
8
BLACK
6
CONTINUOUS
10
5.70882
20
-3.84216
11
5.70882
21
-3.84216
0
LINE
8
BLACK
6
CONTINUOUS
10
5.70882
20
-3.84216
11
5.70906
21
-3.84206
0
LINE
8
BLACK
6
CONTINUOUS
10
5.70906
20
-3.84206
11
5.71514
21
-3.83764
0
LINE
8
BLACK
6
CONTINUOUS
10
5.71514
20
-3.83764
11
5.72017
21
-3.83205
0
LINE
8
BLACK
6
CONTINUOUS
10
5.72017
20
-3.83205
11
5.72393
21
-3.82554
0
LINE
8
BLACK
6
CONTINUOUS
10
5.72393
20
-3.82554
11
5.72625
21
-3.81839
0
LINE
8
BLACK
6
CONTINUOUS
10
5.72625
20
-3.81839
11
5.72684
21
-3.81279
0
LINE
8
BLACK
6
CONTINUOUS
10
5.72684
20
-3.81279
11
5.72704
21
-3.81091
0
LINE
8
BLACK
6
CONTINUOUS
10
5.72704
20
-3.81091
11
5.72687
21
-3.8093
0
LINE
8
BLACK
6
CONTINUOUS
10
5.72687
20
-3.8093
11
5.72684
21
-3.80878
0
LINE
8
BLACK
6
CONTINUOUS
10
5.72684
20
-3.80878
11
5.72684
21
-3.48109
0
LINE
8
BLACK
6
CONTINUOUS
10
5.72684
20
-3.48109
11
5.72558
21
-3.48089
0
LINE
8
BLACK
6
CONTINUOUS
10
5.72558
20
-3.48089
11
5.72119
21
-3.47865
0
LINE
8
BLACK
6
CONTINUOUS
10
5.72119
20
-3.47865
11
5.71771
21
-3.47517
0
LINE
8
BLACK
6
CONTINUOUS
10
5.71771
20
-3.47517
11
5.71547
21
-3.47078
0
LINE
8
BLACK
6
CONTINUOUS
10
5.71547
20
-3.47078
11
5.7147
21
-3.46591
0
LINE
8
BLACK
6
CONTINUOUS
10
5.7147
20
-3.46591
11
5.71547
21
-3.46104
0
LINE
8
BLACK
6
CONTINUOUS
10
5.71547
20
-3.46104
11
5.71771
21
-3.45665
0
LINE
8
BLACK
6
CONTINUOUS
10
5.71771
20
-3.45665
11
5.72119
21
-3.45317
0
LINE
8
BLACK
6
CONTINUOUS
10
5.72119
20
-3.45317
11
5.72558
21
-3.45093
0
LINE
8
BLACK
6
CONTINUOUS
10
5.72558
20
-3.45093
11
5.72684
21
-3.45073
0
LINE
8
BLACK
6
CONTINUOUS
10
5.72684
20
-3.45073
11
5.72684
21
-3.32305
0
LINE
8
BLACK
6
CONTINUOUS
10
5.72684
20
-3.32305
11
5.72687
21
-3.32253
0
LINE
8
BLACK
6
CONTINUOUS
10
5.72687
20
-3.32253
11
5.72701
21
-3.32117
0
LINE
8
BLACK
6
CONTINUOUS
10
5.72701
20
-3.32117
11
5.72704
21
-3.32091
0
LINE
8
BLACK
6
CONTINUOUS
10
5.72704
20
-3.32091
11
5.7266
21
-3.31671
0
LINE
8
BLACK
6
CONTINUOUS
10
5.7266
20
-3.31671
11
5.72628
21
-3.31369
0
LINE
8
BLACK
6
CONTINUOUS
10
5.72628
20
-3.31369
11
5.72628
21
-3.31369
0
LINE
8
BLACK
6
CONTINUOUS
10
5.72628
20
-3.31369
11
5.72625
21
-3.31343
0
LINE
8
BLACK
6
CONTINUOUS
10
5.72625
20
-3.31343
11
5.72393
21
-3.30628
0
LINE
8
BLACK
6
CONTINUOUS
10
5.72393
20
-3.30628
11
5.72357
21
-3.30566
0
LINE
8
BLACK
6
CONTINUOUS
10
5.72357
20
-3.30566
11
5.72137
21
-3.30185
0
LINE
8
BLACK
6
CONTINUOUS
10
5.72137
20
-3.30185
11
5.72017
21
-3.29977
0
LINE
8
BLACK
6
CONTINUOUS
10
5.72017
20
-3.29977
11
5.71514
21
-3.29418
0
LINE
8
BLACK
6
CONTINUOUS
10
5.71514
20
-3.29418
11
5.71053
21
-3.29083
0
LINE
8
BLACK
6
CONTINUOUS
10
5.71053
20
-3.29083
11
5.67162
21
-3.29083
0
LINE
8
BLACK
6
CONTINUOUS
10
5.67162
20
-3.29083
11
5.66701
21
-3.29418
0
LINE
8
BLACK
6
CONTINUOUS
10
5.66701
20
-3.29418
11
5.66198
21
-3.29977
0
LINE
8
BLACK
6
CONTINUOUS
10
5.66198
20
-3.29977
11
5.66078
21
-3.30185
0
LINE
8
BLACK
6
CONTINUOUS
10
5.66078
20
-3.30185
11
5.65858
21
-3.30566
0
LINE
8
BLACK
6
CONTINUOUS
10
5.65858
20
-3.30566
11
5.65822
21
-3.30628
0
LINE
8
BLACK
6
CONTINUOUS
10
5.65822
20
-3.30628
11
5.6559
21
-3.31343
0
LINE
8
BLACK
6
CONTINUOUS
10
5.6559
20
-3.31343
11
5.65587
21
-3.31369
0
LINE
8
BLACK
6
CONTINUOUS
10
5.65587
20
-3.31369
11
5.65587
21
-3.31369
0
LINE
8
BLACK
6
CONTINUOUS
10
5.65587
20
-3.31369
11
5.65555
21
-3.31671
0
LINE
8
BLACK
6
CONTINUOUS
10
5.65555
20
-3.31671
11
5.65511
21
-3.32091
0
LINE
8
BLACK
6
CONTINUOUS
10
5.65511
20
-3.32091
11
5.65514
21
-3.32117
0
LINE
8
BLACK
6
CONTINUOUS
10
5.65514
20
-3.32117
11
5.65528
21
-3.32253
0
LINE
8
BLACK
6
CONTINUOUS
10
5.65528
20
-3.32253
11
5.65531
21
-3.32305
0
LINE
8
BLACK
6
CONTINUOUS
10
5.65531
20
-3.32305
11
5.65531
21
-3.80878
0
LINE
8
BLACK
6
CONTINUOUS
10
5.65531
20
-3.80878
11
5.65528
21
-3.8093
0
LINE
8
BLACK
6
CONTINUOUS
10
5.65528
20
-3.8093
11
5.65511
21
-3.81091
0
LINE
8
BLACK
6
CONTINUOUS
10
5.65511
20
-3.81091
11
5.65531
21
-3.81279
0
LINE
8
BLACK
6
CONTINUOUS
10
5.65531
20
-3.81279
11
5.6559
21
-3.81839
0
LINE
8
BLACK
6
CONTINUOUS
10
4.90901
20
-3.3535
11
4.90923
21
-3.35723
0
LINE
8
BLACK
6
CONTINUOUS
10
4.90923
20
-3.35723
11
4.90951
21
-3.36208
0
LINE
8
BLACK
6
CONTINUOUS
10
4.90951
20
-3.36208
11
4.90955
21
-3.36228
0
LINE
8
BLACK
6
CONTINUOUS
10
4.90955
20
-3.36228
11
4.90955
21
-3.36228
0
LINE
8
BLACK
6
CONTINUOUS
10
4.90955
20
-3.36228
11
4.91023
21
-3.36529
0
LINE
8
BLACK
6
CONTINUOUS
10
4.91023
20
-3.36529
11
4.91144
21
-3.37066
0
LINE
8
BLACK
6
CONTINUOUS
10
4.91144
20
-3.37066
11
4.91475
21
-3.37881
0
LINE
8
BLACK
6
CONTINUOUS
10
4.91475
20
-3.37881
11
4.91934
21
-3.38631
0
LINE
8
BLACK
6
CONTINUOUS
10
4.91934
20
-3.38631
11
4.9251
21
-3.39296
0
LINE
8
BLACK
6
CONTINUOUS
10
4.9251
20
-3.39296
11
4.93187
21
-3.39857
0
LINE
8
BLACK
6
CONTINUOUS
10
4.93187
20
-3.39857
11
4.93946
21
-3.40301
0
LINE
8
BLACK
6
CONTINUOUS
10
4.93946
20
-3.40301
11
4.94662
21
-3.40574
0
LINE
8
BLACK
6
CONTINUOUS
10
4.94662
20
-3.40574
11
4.94831
21
-3.40242
0
LINE
8
BLACK
6
CONTINUOUS
10
4.94831
20
-3.40242
11
4.9518
21
-3.39894
0
LINE
8
BLACK
6
CONTINUOUS
10
4.9518
20
-3.39894
11
4.95619
21
-3.3967
0
LINE
8
BLACK
6
CONTINUOUS
10
4.95619
20
-3.3967
11
4.96105
21
-3.39593
0
LINE
8
BLACK
6
CONTINUOUS
10
4.96105
20
-3.39593
11
4.96592
21
-3.3967
0
LINE
8
BLACK
6
CONTINUOUS
10
4.96592
20
-3.3967
11
4.97031
21
-3.39894
0
LINE
8
BLACK
6
CONTINUOUS
10
4.97031
20
-3.39894
11
4.97379
21
-3.40242
0
LINE
8
BLACK
6
CONTINUOUS
10
4.97379
20
-3.40242
11
4.97587
21
-3.40649
0
LINE
8
BLACK
6
CONTINUOUS
10
4.97587
20
-3.40649
11
4.98204
21
-3.40464
0
LINE
8
BLACK
6
CONTINUOUS
10
4.98204
20
-3.40464
11
4.98204
21
-3.40464
0
LINE
8
BLACK
6
CONTINUOUS
10
4.98204
20
-3.40464
11
4.98223
21
-3.40458
0
LINE
8
BLACK
6
CONTINUOUS
10
4.98223
20
-3.40458
11
4.99013
21
-3.40071
0
LINE
8
BLACK
6
CONTINUOUS
10
4.99013
20
-3.40071
11
4.99729
21
-3.3956
0
LINE
8
BLACK
6
CONTINUOUS
10
4.99729
20
-3.3956
11
5.00352
21
-3.38939
0
LINE
8
BLACK
6
CONTINUOUS
10
5.00352
20
-3.38939
11
5.00586
21
-3.38613
0
LINE
8
BLACK
6
CONTINUOUS
10
5.00586
20
-3.38613
11
5.00853
21
-3.38242
0
LINE
8
BLACK
6
CONTINUOUS
10
5.00853
20
-3.38242
11
5.00865
21
-3.38225
0
LINE
8
BLACK
6
CONTINUOUS
10
5.00865
20
-3.38225
11
5.01255
21
-3.37437
0
LINE
8
BLACK
6
CONTINUOUS
10
5.01255
20
-3.37437
11
5.01511
21
-3.36595
0
LINE
8
BLACK
6
CONTINUOUS
10
5.01511
20
-3.36595
11
5.01625
21
-3.35723
0
LINE
8
BLACK
6
CONTINUOUS
10
5.01625
20
-3.35723
11
5.01632
21
-3.35461
0
LINE
8
BLACK
6
CONTINUOUS
10
5.01632
20
-3.35461
11
5.0156
21
-3.34585
0
LINE
8
BLACK
6
CONTINUOUS
10
5.0156
20
-3.34585
11
5.01345
21
-3.33732
0
LINE
8
BLACK
6
CONTINUOUS
10
5.01345
20
-3.33732
11
5.00995
21
-3.32925
0
LINE
8
BLACK
6
CONTINUOUS
10
5.00995
20
-3.32925
11
5.00839
21
-3.32685
0
LINE
8
BLACK
6
CONTINUOUS
10
5.00839
20
-3.32685
11
5.00528
21
-3.32204
0
LINE
8
BLACK
6
CONTINUOUS
10
5.00528
20
-3.32204
11
5.00528
21
-3.32204
0
LINE
8
BLACK
6
CONTINUOUS
10
5.00528
20
-3.32204
11
5.00517
21
-3.32187
0
LINE
8
BLACK
6
CONTINUOUS
10
5.00517
20
-3.32187
11
4.99925
21
-3.31536
0
LINE
8
BLACK
6
CONTINUOUS
10
4.99925
20
-3.31536
11
4.99909
21
-3.31524
0
LINE
8
BLACK
6
CONTINUOUS
10
4.99909
20
-3.31524
11
4.99909
21
-3.31524
0
LINE
8
BLACK
6
CONTINUOUS
10
4.99909
20
-3.31524
11
4.99251
21
-3.31004
0
LINE
8
BLACK
6
CONTINUOUS
10
4.99251
20
-3.31004
11
4.99251
21
-3.31004
0
LINE
8
BLACK
6
CONTINUOUS
10
4.99251
20
-3.31004
11
4.99235
21
-3.30991
0
LINE
8
BLACK
6
CONTINUOUS
10
4.99235
20
-3.30991
11
4.99072
21
-3.30901
0
LINE
8
BLACK
6
CONTINUOUS
10
4.99072
20
-3.30901
11
4.98876
21
-3.30703
0
LINE
8
BLACK
6
CONTINUOUS
10
4.98876
20
-3.30703
11
4.98817
21
-3.30429
0
LINE
8
BLACK
6
CONTINUOUS
10
4.98817
20
-3.30429
11
4.98916
21
-3.30168
0
LINE
8
BLACK
6
CONTINUOUS
10
4.98916
20
-3.30168
11
4.99024
21
-3.30063
0
LINE
8
BLACK
6
CONTINUOUS
10
4.99024
20
-3.30063
11
4.99197
21
-3.2994
0
LINE
8
BLACK
6
CONTINUOUS
10
4.99197
20
-3.2994
11
4.99729
21
-3.2956
0
LINE
8
BLACK
6
CONTINUOUS
10
4.99729
20
-3.2956
11
5.00352
21
-3.28939
0
LINE
8
BLACK
6
CONTINUOUS
10
5.00352
20
-3.28939
11
5.00586
21
-3.28613
0
LINE
8
BLACK
6
CONTINUOUS
10
5.00586
20
-3.28613
11
5.00853
21
-3.28242
0
LINE
8
BLACK
6
CONTINUOUS
10
5.00853
20
-3.28242
11
5.00865
21
-3.28225
0
LINE
8
BLACK
6
CONTINUOUS
10
5.00865
20
-3.28225
11
5.00982
21
-3.27989
0
LINE
8
BLACK
6
CONTINUOUS
10
5.00982
20
-3.27989
11
5.01246
21
-3.27455
0
LINE
8
BLACK
6
CONTINUOUS
10
5.01246
20
-3.27455
11
5.01246
21
-3.27455
0
LINE
8
BLACK
6
CONTINUOUS
10
5.01246
20
-3.27455
11
5.01255
21
-3.27437
0
LINE
8
BLACK
6
CONTINUOUS
10
5.01255
20
-3.27437
11
5.01511
21
-3.26595
0
LINE
8
BLACK
6
CONTINUOUS
10
5.01511
20
-3.26595
11
5.01625
21
-3.25723
0
LINE
8
BLACK
6
CONTINUOUS
10
5.01625
20
-3.25723
11
5.01632
21
-3.25461
0
LINE
8
BLACK
6
CONTINUOUS
10
5.01632
20
-3.25461
11
5.0156
21
-3.24585
0
LINE
8
BLACK
6
CONTINUOUS
10
5.0156
20
-3.24585
11
5.01345
21
-3.23732
0
LINE
8
BLACK
6
CONTINUOUS
10
5.01345
20
-3.23732
11
5.00995
21
-3.22925
0
LINE
8
BLACK
6
CONTINUOUS
10
5.00995
20
-3.22925
11
5.00517
21
-3.22187
0
LINE
8
BLACK
6
CONTINUOUS
10
5.00517
20
-3.22187
11
4.99925
21
-3.21536
0
LINE
8
BLACK
6
CONTINUOUS
10
4.99925
20
-3.21536
11
4.99909
21
-3.21524
0
LINE
8
BLACK
6
CONTINUOUS
10
4.99909
20
-3.21524
11
4.99909
21
-3.21524
0
LINE
8
BLACK
6
CONTINUOUS
10
4.99909
20
-3.21524
11
4.99251
21
-3.21004
0
LINE
8
BLACK
6
CONTINUOUS
10
4.99251
20
-3.21004
11
4.99251
21
-3.21004
0
LINE
8
BLACK
6
CONTINUOUS
10
4.99251
20
-3.21004
11
4.99235
21
-3.20991
0
LINE
8
BLACK
6
CONTINUOUS
10
4.99235
20
-3.20991
11
4.98465
21
-3.20566
0
LINE
8
BLACK
6
CONTINUOUS
10
4.98465
20
-3.20566
11
4.98446
21
-3.20559
0
LINE
8
BLACK
6
CONTINUOUS
10
4.98446
20
-3.20559
11
4.98446
21
-3.20559
0
LINE
8
BLACK
6
CONTINUOUS
10
4.98446
20
-3.20559
11
4.97655
21
-3.20279
0
LINE
8
BLACK
6
CONTINUOUS
10
4.97655
20
-3.20279
11
4.97655
21
-3.20279
0
LINE
8
BLACK
6
CONTINUOUS
10
4.97655
20
-3.20279
11
4.97636
21
-3.20272
0
LINE
8
BLACK
6
CONTINUOUS
10
4.97636
20
-3.20272
11
4.97616
21
-3.20269
0
LINE
8
BLACK
6
CONTINUOUS
10
4.97616
20
-3.20269
11
4.97616
21
-3.20269
0
LINE
8
BLACK
6
CONTINUOUS
10
4.97616
20
-3.20269
11
4.9679
21
-3.20122
0
LINE
8
BLACK
6
CONTINUOUS
10
4.9679
20
-3.20122
11
4.9679
21
-3.20122
0
LINE
8
BLACK
6
CONTINUOUS
10
4.9679
20
-3.20122
11
4.9677
21
-3.20118
0
LINE
8
BLACK
6
CONTINUOUS
10
4.9677
20
-3.20118
11
4.96479
21
-3.20115
0
LINE
8
BLACK
6
CONTINUOUS
10
4.96479
20
-3.20115
11
4.95911
21
-3.20108
0
LINE
8
BLACK
6
CONTINUOUS
10
4.95911
20
-3.20108
11
4.95911
21
-3.20108
0
LINE
8
BLACK
6
CONTINUOUS
10
4.95911
20
-3.20108
11
4.95891
21
-3.20107
0
LINE
8
BLACK
6
CONTINUOUS
10
4.95891
20
-3.20107
11
4.95021
21
-3.20241
0
LINE
8
BLACK
6
CONTINUOUS
10
4.95021
20
-3.20241
11
4.94185
21
-3.20514
0
LINE
8
BLACK
6
CONTINUOUS
10
4.94185
20
-3.20514
11
4.93405
21
-3.2092
0
LINE
8
BLACK
6
CONTINUOUS
10
4.93405
20
-3.2092
11
4.93389
21
-3.20932
0
LINE
8
BLACK
6
CONTINUOUS
10
4.93389
20
-3.20932
11
4.93389
21
-3.20932
0
LINE
8
BLACK
6
CONTINUOUS
10
4.93389
20
-3.20932
11
4.92718
21
-3.21436
0
LINE
8
BLACK
6
CONTINUOUS
10
4.92718
20
-3.21436
11
4.92702
21
-3.21448
0
LINE
8
BLACK
6
CONTINUOUS
10
4.92702
20
-3.21448
11
4.92094
21
-3.22084
0
LINE
8
BLACK
6
CONTINUOUS
10
4.92094
20
-3.22084
11
4.91599
21
-3.2281
0
LINE
8
BLACK
6
CONTINUOUS
10
4.91599
20
-3.2281
11
4.91228
21
-3.23608
0
LINE
8
BLACK
6
CONTINUOUS
10
4.91228
20
-3.23608
11
4.90993
21
-3.24456
0
LINE
8
BLACK
6
CONTINUOUS
10
4.90993
20
-3.24456
11
4.909
21
-3.2533
0
LINE
8
BLACK
6
CONTINUOUS
10
4.909
20
-3.2533
11
4.90901
21
-3.2535
0
LINE
8
BLACK
6
CONTINUOUS
10
4.90901
20
-3.2535
11
4.90901
21
-3.2535
0
LINE
8
BLACK
6
CONTINUOUS
10
4.90901
20
-3.2535
11
4.90923
21
-3.25723
0
LINE
8
BLACK
6
CONTINUOUS
10
4.90923
20
-3.25723
11
4.90951
21
-3.26208
0
LINE
8
BLACK
6
CONTINUOUS
10
4.90951
20
-3.26208
11
4.90955
21
-3.26228
0
LINE
8
BLACK
6
CONTINUOUS
10
4.90955
20
-3.26228
11
4.90955
21
-3.26228
0
LINE
8
BLACK
6
CONTINUOUS
10
4.90955
20
-3.26228
11
4.90983
21
-3.26354
0
LINE
8
BLACK
6
CONTINUOUS
10
4.90983
20
-3.26354
11
4.91144
21
-3.27066
0
LINE
8
BLACK
6
CONTINUOUS
10
4.91144
20
-3.27066
11
4.91475
21
-3.27881
0
LINE
8
BLACK
6
CONTINUOUS
10
4.91475
20
-3.27881
11
4.91485
21
-3.27898
0
LINE
8
BLACK
6
CONTINUOUS
10
4.91485
20
-3.27898
11
4.91863
21
-3.28514
0
LINE
8
BLACK
6
CONTINUOUS
10
4.91863
20
-3.28514
11
4.91934
21
-3.28631
0
LINE
8
BLACK
6
CONTINUOUS
10
4.91934
20
-3.28631
11
4.9251
21
-3.29296
0
LINE
8
BLACK
6
CONTINUOUS
10
4.9251
20
-3.29296
11
4.93187
21
-3.29857
0
LINE
8
BLACK
6
CONTINUOUS
10
4.93187
20
-3.29857
11
4.93359
21
-3.29958
0
LINE
8
BLACK
6
CONTINUOUS
10
4.93359
20
-3.29958
11
4.93475
21
-3.30026
0
LINE
8
BLACK
6
CONTINUOUS
10
4.93475
20
-3.30026
11
4.93667
21
-3.30229
0
LINE
8
BLACK
6
CONTINUOUS
10
4.93667
20
-3.30229
11
4.93719
21
-3.30504
0
LINE
8
BLACK
6
CONTINUOUS
10
4.93719
20
-3.30504
11
4.93614
21
-3.30763
0
LINE
8
BLACK
6
CONTINUOUS
10
4.93614
20
-3.30763
11
4.93454
21
-3.30894
0
LINE
8
BLACK
6
CONTINUOUS
10
4.93454
20
-3.30894
11
4.93405
21
-3.3092
0
LINE
8
BLACK
6
CONTINUOUS
10
4.93405
20
-3.3092
11
4.93389
21
-3.30932
0
LINE
8
BLACK
6
CONTINUOUS
10
4.93389
20
-3.30932
11
4.93389
21
-3.30932
0
LINE
8
BLACK
6
CONTINUOUS
10
4.93389
20
-3.30932
11
4.92718
21
-3.31436
0
LINE
8
BLACK
6
CONTINUOUS
10
4.92718
20
-3.31436
11
4.92702
21
-3.31448
0
LINE
8
BLACK
6
CONTINUOUS
10
4.92702
20
-3.31448
11
4.92094
21
-3.32084
0
LINE
8
BLACK
6
CONTINUOUS
10
4.92094
20
-3.32084
11
4.91599
21
-3.3281
0
LINE
8
BLACK
6
CONTINUOUS
10
4.91599
20
-3.3281
11
4.91228
21
-3.33608
0
LINE
8
BLACK
6
CONTINUOUS
10
4.91228
20
-3.33608
11
4.90993
21
-3.34456
0
LINE
8
BLACK
6
CONTINUOUS
10
4.90993
20
-3.34456
11
4.909
21
-3.3533
0
LINE
8
BLACK
6
CONTINUOUS
10
4.909
20
-3.3533
11
4.90901
21
-3.3535
0
LINE
8
BLACK
6
CONTINUOUS
10
4.90901
20
-3.3535
11
4.90901
21
-3.3535
0
LINE
8
BLACK
6
CONTINUOUS
10
5.93982
20
-4.16619
11
6.20155
21
-4.16619
0
LINE
8
BLACK
6
CONTINUOUS
10
6.20155
20
-4.16619
11
6.20155
21
-4.14847
0
LINE
8
BLACK
6
CONTINUOUS
10
6.20155
20
-4.14847
11
6.2606
21
-4.14847
0
LINE
8
BLACK
6
CONTINUOUS
10
6.2606
20
-4.14847
11
6.2606
21
-4.19965
0
LINE
8
BLACK
6
CONTINUOUS
10
6.2606
20
-4.19965
11
6.20155
21
-4.19965
0
LINE
8
BLACK
6
CONTINUOUS
10
6.20155
20
-4.19965
11
6.20155
21
-4.18193
0
LINE
8
BLACK
6
CONTINUOUS
10
6.20155
20
-4.18193
11
5.93982
21
-4.18193
0
LINE
8
BLACK
6
CONTINUOUS
10
5.93982
20
-4.18193
11
5.93982
21
-4.30934
0
LINE
8
BLACK
6
CONTINUOUS
10
5.93982
20
-4.30934
11
5.78234
21
-4.30934
0
LINE
8
BLACK
6
CONTINUOUS
10
5.78234
20
-4.30934
11
5.78234
21
-4.11249
0
LINE
8
BLACK
6
CONTINUOUS
10
5.78234
20
-4.11249
11
5.93982
21
-4.11249
0
LINE
8
BLACK
6
CONTINUOUS
10
5.93982
20
-4.11249
11
5.93982
21
-4.16619
0
LINE
8
BLACK
6
CONTINUOUS
10
6.54108
20
-3.94091
11
6.48108
21
-3.94091
0
LINE
8
BLACK
6
CONTINUOUS
10
6.48108
20
-3.94091
11
6.48108
21
-3.88091
0
LINE
8
BLACK
6
CONTINUOUS
10
6.48108
20
-3.88091
11
6.54108
21
-3.88091
0
LINE
8
BLACK
6
CONTINUOUS
10
6.54108
20
-3.88091
11
6.54108
21
-3.94091
0
LINE
8
BLACK
6
CONTINUOUS
10
6.64108
20
-3.94091
11
6.58108
21
-3.94091
0
LINE
8
BLACK
6
CONTINUOUS
10
6.58108
20
-3.94091
11
6.58108
21
-3.88091
0
LINE
8
BLACK
6
CONTINUOUS
10
6.58108
20
-3.88091
11
6.64108
21
-3.88091
0
LINE
8
BLACK
6
CONTINUOUS
10
6.64108
20
-3.88091
11
6.64108
21
-3.94091
0
LINE
8
BLACK
6
CONTINUOUS
10
6.04094
20
-3.14593
11
6.04533
21
-3.14817
0
LINE
8
BLACK
6
CONTINUOUS
10
6.04533
20
-3.14817
11
6.04882
21
-3.15165
0
LINE
8
BLACK
6
CONTINUOUS
10
6.04882
20
-3.15165
11
6.05105
21
-3.15604
0
LINE
8
BLACK
6
CONTINUOUS
10
6.05105
20
-3.15604
11
6.05182
21
-3.16091
0
LINE
8
BLACK
6
CONTINUOUS
10
6.05182
20
-3.16091
11
6.05105
21
-3.16578
0
LINE
8
BLACK
6
CONTINUOUS
10
6.05105
20
-3.16578
11
6.04882
21
-3.17017
0
LINE
8
BLACK
6
CONTINUOUS
10
6.04882
20
-3.17017
11
6.04533
21
-3.17365
0
LINE
8
BLACK
6
CONTINUOUS
10
6.04533
20
-3.17365
11
6.04395
21
-3.17436
0
LINE
8
BLACK
6
CONTINUOUS
10
6.04395
20
-3.17436
11
6.04395
21
-3.41092
0
LINE
8
BLACK
6
CONTINUOUS
10
6.04395
20
-3.41092
11
6.04365
21
-3.41221
0
LINE
8
BLACK
6
CONTINUOUS
10
6.04365
20
-3.41221
11
6.04351
21
-3.41351
0
LINE
8
BLACK
6
CONTINUOUS
10
6.04351
20
-3.41351
11
6.04327
21
-3.4139
0
LINE
8
BLACK
6
CONTINUOUS
10
6.04327
20
-3.4139
11
6.04316
21
-3.41434
0
LINE
8
BLACK
6
CONTINUOUS
10
6.04316
20
-3.41434
11
6.04234
21
-3.41537
0
LINE
8
BLACK
6
CONTINUOUS
10
6.04234
20
-3.41537
11
6.04164
21
-3.41648
0
LINE
8
BLACK
6
CONTINUOUS
10
6.04164
20
-3.41648
11
5.90119
21
-3.55693
0
LINE
8
BLACK
6
CONTINUOUS
10
5.90119
20
-3.55693
11
5.90182
21
-3.56091
0
LINE
8
BLACK
6
CONTINUOUS
10
5.90182
20
-3.56091
11
5.90105
21
-3.56578
0
LINE
8
BLACK
6
CONTINUOUS
10
5.90105
20
-3.56578
11
5.89882
21
-3.57017
0
LINE
8
BLACK
6
CONTINUOUS
10
5.89882
20
-3.57017
11
5.89533
21
-3.57365
0
LINE
8
BLACK
6
CONTINUOUS
10
5.89533
20
-3.57365
11
5.89094
21
-3.57589
0
LINE
8
BLACK
6
CONTINUOUS
10
5.89094
20
-3.57589
11
5.88608
21
-3.57666
0
LINE
8
BLACK
6
CONTINUOUS
10
5.88608
20
-3.57666
11
5.88121
21
-3.57589
0
LINE
8
BLACK
6
CONTINUOUS
10
5.88121
20
-3.57589
11
5.87682
21
-3.57365
0
LINE
8
BLACK
6
CONTINUOUS
10
5.87682
20
-3.57365
11
5.87334
21
-3.57017
0
LINE
8
BLACK
6
CONTINUOUS
10
5.87334
20
-3.57017
11
5.8711
21
-3.56578
0
LINE
8
BLACK
6
CONTINUOUS
10
5.8711
20
-3.56578
11
5.87033
21
-3.56091
0
LINE
8
BLACK
6
CONTINUOUS
10
5.87033
20
-3.56091
11
5.8711
21
-3.55604
0
LINE
8
BLACK
6
CONTINUOUS
10
5.8711
20
-3.55604
11
5.87334
21
-3.55165
0
LINE
8
BLACK
6
CONTINUOUS
10
5.87334
20
-3.55165
11
5.87682
21
-3.54817
0
LINE
8
BLACK
6
CONTINUOUS
10
5.87682
20
-3.54817
11
5.88121
21
-3.54593
0
LINE
8
BLACK
6
CONTINUOUS
10
5.88121
20
-3.54593
11
5.88608
21
-3.54516
0
LINE
8
BLACK
6
CONTINUOUS
10
5.88608
20
-3.54516
11
5.89006
21
-3.54579
0
LINE
8
BLACK
6
CONTINUOUS
10
5.89006
20
-3.54579
11
6.0282
21
-3.40765
0
LINE
8
BLACK
6
CONTINUOUS
10
6.0282
20
-3.40765
11
6.0282
21
-3.17436
0
LINE
8
BLACK
6
CONTINUOUS
10
6.0282
20
-3.17436
11
6.02682
21
-3.17365
0
LINE
8
BLACK
6
CONTINUOUS
10
6.02682
20
-3.17365
11
6.02334
21
-3.17017
0
LINE
8
BLACK
6
CONTINUOUS
10
6.02334
20
-3.17017
11
6.0211
21
-3.16578
0
LINE
8
BLACK
6
CONTINUOUS
10
6.0211
20
-3.16578
11
6.02033
21
-3.16091
0
LINE
8
BLACK
6
CONTINUOUS
10
6.02033
20
-3.16091
11
6.0211
21
-3.15604
0
LINE
8
BLACK
6
CONTINUOUS
10
6.0211
20
-3.15604
11
6.02334
21
-3.15165
0
LINE
8
BLACK
6
CONTINUOUS
10
6.02334
20
-3.15165
11
6.02682
21
-3.14817
0
LINE
8
BLACK
6
CONTINUOUS
10
6.02682
20
-3.14817
11
6.03121
21
-3.14593
0
LINE
8
BLACK
6
CONTINUOUS
10
6.03121
20
-3.14593
11
6.03608
21
-3.14516
0
LINE
8
BLACK
6
CONTINUOUS
10
6.03608
20
-3.14516
11
6.04094
21
-3.14593
0
LINE
8
BLACK
6
CONTINUOUS
10
5.21594
20
-3.33593
11
5.22033
21
-3.33817
0
LINE
8
BLACK
6
CONTINUOUS
10
5.22033
20
-3.33817
11
5.22382
21
-3.34165
0
LINE
8
BLACK
6
CONTINUOUS
10
5.22382
20
-3.34165
11
5.22605
21
-3.34604
0
LINE
8
BLACK
6
CONTINUOUS
10
5.22605
20
-3.34604
11
5.22682
21
-3.35091
0
LINE
8
BLACK
6
CONTINUOUS
10
5.22682
20
-3.35091
11
5.22605
21
-3.35578
0
LINE
8
BLACK
6
CONTINUOUS
10
5.22605
20
-3.35578
11
5.22382
21
-3.36017
0
LINE
8
BLACK
6
CONTINUOUS
10
5.22382
20
-3.36017
11
5.22033
21
-3.36365
0
LINE
8
BLACK
6
CONTINUOUS
10
5.22033
20
-3.36365
11
5.21895
21
-3.36436
0
LINE
8
BLACK
6
CONTINUOUS
10
5.21895
20
-3.36436
11
5.21895
21
-3.71638
0
LINE
8
BLACK
6
CONTINUOUS
10
5.21895
20
-3.71638
11
5.21865
21
-3.71766
0
LINE
8
BLACK
6
CONTINUOUS
10
5.21865
20
-3.71766
11
5.21851
21
-3.71897
0
LINE
8
BLACK
6
CONTINUOUS
10
5.21851
20
-3.71897
11
5.21827
21
-3.71935
0
LINE
8
BLACK
6
CONTINUOUS
10
5.21827
20
-3.71935
11
5.21816
21
-3.7198
0
LINE
8
BLACK
6
CONTINUOUS
10
5.21816
20
-3.7198
11
5.21734
21
-3.72082
0
LINE
8
BLACK
6
CONTINUOUS
10
5.21734
20
-3.72082
11
5.21664
21
-3.72194
0
LINE
8
BLACK
6
CONTINUOUS
10
5.21664
20
-3.72194
11
5.18655
21
-3.75203
0
LINE
8
BLACK
6
CONTINUOUS
10
5.18655
20
-3.75203
11
5.18718
21
-3.75601
0
LINE
8
BLACK
6
CONTINUOUS
10
5.18718
20
-3.75601
11
5.18641
21
-3.76088
0
LINE
8
BLACK
6
CONTINUOUS
10
5.18641
20
-3.76088
11
5.18417
21
-3.76527
0
LINE
8
BLACK
6
CONTINUOUS
10
5.18417
20
-3.76527
11
5.18069
21
-3.76875
0
LINE
8
BLACK
6
CONTINUOUS
10
5.18069
20
-3.76875
11
5.1763
21
-3.77099
0
LINE
8
BLACK
6
CONTINUOUS
10
5.1763
20
-3.77099
11
5.17143
21
-3.77176
0
LINE
8
BLACK
6
CONTINUOUS
10
5.17143
20
-3.77176
11
5.16657
21
-3.77099
0
LINE
8
BLACK
6
CONTINUOUS
10
5.16657
20
-3.77099
11
5.16218
21
-3.76875
0
LINE
8
BLACK
6
CONTINUOUS
10
5.16218
20
-3.76875
11
5.15869
21
-3.76527
0
LINE
8
BLACK
6
CONTINUOUS
10
5.15869
20
-3.76527
11
5.15646
21
-3.76088
0
LINE
8
BLACK
6
CONTINUOUS
10
5.15646
20
-3.76088
11
5.15568
21
-3.75601
0
LINE
8
BLACK
6
CONTINUOUS
10
5.15568
20
-3.75601
11
5.15646
21
-3.75115
0
LINE
8
BLACK
6
CONTINUOUS
10
5.15646
20
-3.75115
11
5.15869
21
-3.74676
0
LINE
8
BLACK
6
CONTINUOUS
10
5.15869
20
-3.74676
11
5.16218
21
-3.74327
0
LINE
8
BLACK
6
CONTINUOUS
10
5.16218
20
-3.74327
11
5.16657
21
-3.74103
0
LINE
8
BLACK
6
CONTINUOUS
10
5.16657
20
-3.74103
11
5.17143
21
-3.74026
0
LINE
8
BLACK
6
CONTINUOUS
10
5.17143
20
-3.74026
11
5.17541
21
-3.74089
0
LINE
8
BLACK
6
CONTINUOUS
10
5.17541
20
-3.74089
11
5.2032
21
-3.71311
0
LINE
8
BLACK
6
CONTINUOUS
10
5.2032
20
-3.71311
11
5.2032
21
-3.36436
0
LINE
8
BLACK
6
CONTINUOUS
10
5.2032
20
-3.36436
11
5.20182
21
-3.36365
0
LINE
8
BLACK
6
CONTINUOUS
10
5.20182
20
-3.36365
11
5.19834
21
-3.36017
0
LINE
8
BLACK
6
CONTINUOUS
10
5.19834
20
-3.36017
11
5.1961
21
-3.35578
0
LINE
8
BLACK
6
CONTINUOUS
10
5.1961
20
-3.35578
11
5.19533
21
-3.35091
0
LINE
8
BLACK
6
CONTINUOUS
10
5.19533
20
-3.35091
11
5.1961
21
-3.34604
0
LINE
8
BLACK
6
CONTINUOUS
10
5.1961
20
-3.34604
11
5.19834
21
-3.34165
0
LINE
8
BLACK
6
CONTINUOUS
10
5.19834
20
-3.34165
11
5.20182
21
-3.33817
0
LINE
8
BLACK
6
CONTINUOUS
10
5.20182
20
-3.33817
11
5.20621
21
-3.33593
0
LINE
8
BLACK
6
CONTINUOUS
10
5.20621
20
-3.33593
11
5.21108
21
-3.33516
0
LINE
8
BLACK
6
CONTINUOUS
10
5.21108
20
-3.33516
11
5.21594
21
-3.33593
0
LINE
8
BLACK
6
CONTINUOUS
10
6.54108
20
-3.74091
11
6.48108
21
-3.74091
0
LINE
8
BLACK
6
CONTINUOUS
10
6.48108
20
-3.74091
11
6.48108
21
-3.68091
0
LINE
8
BLACK
6
CONTINUOUS
10
6.48108
20
-3.68091
11
6.54108
21
-3.68091
0
LINE
8
BLACK
6
CONTINUOUS
10
6.54108
20
-3.68091
11
6.54108
21
-3.74091
0
LINE
8
BLACK
6
CONTINUOUS
10
6.64108
20
-3.74091
11
6.58108
21
-3.74091
0
LINE
8
BLACK
6
CONTINUOUS
10
6.58108
20
-3.74091
11
6.58108
21
-3.68091
0
LINE
8
BLACK
6
CONTINUOUS
10
6.58108
20
-3.68091
11
6.64108
21
-3.68091
0
LINE
8
BLACK
6
CONTINUOUS
10
6.64108
20
-3.68091
11
6.64108
21
-3.74091
0
LINE
8
BLACK
6
CONTINUOUS
10
6.54108
20
-3.54091
11
6.48108
21
-3.54091
0
LINE
8
BLACK
6
CONTINUOUS
10
6.48108
20
-3.54091
11
6.48108
21
-3.48091
0
LINE
8
BLACK
6
CONTINUOUS
10
6.48108
20
-3.48091
11
6.54108
21
-3.48091
0
LINE
8
BLACK
6
CONTINUOUS
10
6.54108
20
-3.48091
11
6.54108
21
-3.54091
0
LINE
8
BLACK
6
CONTINUOUS
10
6.64108
20
-3.54091
11
6.58108
21
-3.54091
0
LINE
8
BLACK
6
CONTINUOUS
10
6.58108
20
-3.54091
11
6.58108
21
-3.48091
0
LINE
8
BLACK
6
CONTINUOUS
10
6.58108
20
-3.48091
11
6.64108
21
-3.48091
0
LINE
8
BLACK
6
CONTINUOUS
10
6.64108
20
-3.48091
11
6.64108
21
-3.54091
0
LINE
8
BLACK
6
CONTINUOUS
10
5.16635
20
-3.2254
11
5.17265
21
-3.22765
0
LINE
8
BLACK
6
CONTINUOUS
10
5.17265
20
-3.22765
11
5.1783
21
-3.23123
0
LINE
8
BLACK
6
CONTINUOUS
10
5.1783
20
-3.23123
11
5.18301
21
-3.23598
0
LINE
8
BLACK
6
CONTINUOUS
10
5.18301
20
-3.23598
11
5.18656
21
-3.24165
0
LINE
8
BLACK
6
CONTINUOUS
10
5.18656
20
-3.24165
11
5.18876
21
-3.24797
0
LINE
8
BLACK
6
CONTINUOUS
10
5.18876
20
-3.24797
11
5.1895
21
-3.25461
0
LINE
8
BLACK
6
CONTINUOUS
10
5.1895
20
-3.25461
11
5.18949
21
-3.25545
0
LINE
8
BLACK
6
CONTINUOUS
10
5.18949
20
-3.25545
11
5.18856
21
-3.26207
0
LINE
8
BLACK
6
CONTINUOUS
10
5.18856
20
-3.26207
11
5.18618
21
-3.26832
0
LINE
8
BLACK
6
CONTINUOUS
10
5.18618
20
-3.26832
11
5.18248
21
-3.2739
0
LINE
8
BLACK
6
CONTINUOUS
10
5.18248
20
-3.2739
11
5.17764
21
-3.27851
0
LINE
8
BLACK
6
CONTINUOUS
10
5.17764
20
-3.27851
11
5.17189
21
-3.28193
0
LINE
8
BLACK
6
CONTINUOUS
10
5.17189
20
-3.28193
11
5.16553
21
-3.284
0
LINE
8
BLACK
6
CONTINUOUS
10
5.16553
20
-3.284
11
5.15887
21
-3.28461
0
LINE
8
BLACK
6
CONTINUOUS
10
5.15887
20
-3.28461
11
5.15224
21
-3.28372
0
LINE
8
BLACK
6
CONTINUOUS
10
5.15224
20
-3.28372
11
5.14597
21
-3.28139
0
LINE
8
BLACK
6
CONTINUOUS
10
5.14597
20
-3.28139
11
5.14038
21
-3.27773
0
LINE
8
BLACK
6
CONTINUOUS
10
5.14038
20
-3.27773
11
5.13573
21
-3.27292
0
LINE
8
BLACK
6
CONTINUOUS
10
5.13573
20
-3.27292
11
5.13227
21
-3.2672
0
LINE
8
BLACK
6
CONTINUOUS
10
5.13227
20
-3.2672
11
5.13016
21
-3.26085
0
LINE
8
BLACK
6
CONTINUOUS
10
5.13016
20
-3.26085
11
5.1295
21
-3.25419
0
LINE
8
BLACK
6
CONTINUOUS
10
5.1295
20
-3.25419
11
5.13034
21
-3.24756
0
LINE
8
BLACK
6
CONTINUOUS
10
5.13034
20
-3.24756
11
5.13263
21
-3.24127
0
LINE
8
BLACK
6
CONTINUOUS
10
5.13263
20
-3.24127
11
5.13625
21
-3.23565
0
LINE
8
BLACK
6
CONTINUOUS
10
5.13625
20
-3.23565
11
5.14103
21
-3.23097
0
LINE
8
BLACK
6
CONTINUOUS
10
5.14103
20
-3.23097
11
5.14673
21
-3.22747
0
LINE
8
BLACK
6
CONTINUOUS
10
5.14673
20
-3.22747
11
5.15306
21
-3.22531
0
LINE
8
BLACK
6
CONTINUOUS
10
5.15306
20
-3.22531
11
5.15971
21
-3.22461
0
LINE
8
BLACK
6
CONTINUOUS
10
5.15971
20
-3.22461
11
5.16635
21
-3.2254
0
LINE
8
BLACK
6
CONTINUOUS
10
5.93982
20
-3.12823
11
5.78234
21
-3.12823
0
LINE
8
BLACK
6
CONTINUOUS
10
5.78234
20
-3.12823
11
5.78234
21
-2.98879
0
LINE
8
BLACK
6
CONTINUOUS
10
5.78234
20
-2.98879
11
5.75667
21
-2.98879
0
LINE
8
BLACK
6
CONTINUOUS
10
5.75667
20
-2.98879
11
5.75667
21
-3.01044
0
LINE
8
BLACK
6
CONTINUOUS
10
5.75667
20
-3.01044
11
5.70549
21
-3.01044
0
LINE
8
BLACK
6
CONTINUOUS
10
5.70549
20
-3.01044
11
5.70549
21
-2.95138
0
LINE
8
BLACK
6
CONTINUOUS
10
5.70549
20
-2.95138
11
5.75667
21
-2.95138
0
LINE
8
BLACK
6
CONTINUOUS
10
5.75667
20
-2.95138
11
5.75667
21
-2.97304
0
LINE
8
BLACK
6
CONTINUOUS
10
5.75667
20
-2.97304
11
5.78234
21
-2.97304
0
LINE
8
BLACK
6
CONTINUOUS
10
5.78234
20
-2.97304
11
5.78234
21
-2.93138
0
LINE
8
BLACK
6
CONTINUOUS
10
5.78234
20
-2.93138
11
5.93982
21
-2.93138
0
LINE
8
BLACK
6
CONTINUOUS
10
5.93982
20
-2.93138
11
5.93982
21
-3.12823
0
LINE
8
BLACK
6
CONTINUOUS
10
5.65037
20
-3.01044
11
5.63265
21
-3.01044
0
LINE
8
BLACK
6
CONTINUOUS
10
5.63265
20
-3.01044
11
5.63265
21
-3.05049
0
LINE
8
BLACK
6
CONTINUOUS
10
5.63265
20
-3.05049
11
5.63382
21
-3.05165
0
LINE
8
BLACK
6
CONTINUOUS
10
5.63382
20
-3.05165
11
5.63605
21
-3.05604
0
LINE
8
BLACK
6
CONTINUOUS
10
5.63605
20
-3.05604
11
5.63682
21
-3.06091
0
LINE
8
BLACK
6
CONTINUOUS
10
5.63682
20
-3.06091
11
5.63605
21
-3.06578
0
LINE
8
BLACK
6
CONTINUOUS
10
5.63605
20
-3.06578
11
5.63382
21
-3.07017
0
LINE
8
BLACK
6
CONTINUOUS
10
5.63382
20
-3.07017
11
5.63033
21
-3.07365
0
LINE
8
BLACK
6
CONTINUOUS
10
5.63033
20
-3.07365
11
5.62594
21
-3.07589
0
LINE
8
BLACK
6
CONTINUOUS
10
5.62594
20
-3.07589
11
5.62108
21
-3.07666
0
LINE
8
BLACK
6
CONTINUOUS
10
5.62108
20
-3.07666
11
5.61621
21
-3.07589
0
LINE
8
BLACK
6
CONTINUOUS
10
5.61621
20
-3.07589
11
5.61182
21
-3.07365
0
LINE
8
BLACK
6
CONTINUOUS
10
5.61182
20
-3.07365
11
5.60834
21
-3.07017
0
LINE
8
BLACK
6
CONTINUOUS
10
5.60834
20
-3.07017
11
5.6061
21
-3.06578
0
LINE
8
BLACK
6
CONTINUOUS
10
5.6061
20
-3.06578
11
5.60533
21
-3.06091
0
LINE
8
BLACK
6
CONTINUOUS
10
5.60533
20
-3.06091
11
5.6061
21
-3.05604
0
LINE
8
BLACK
6
CONTINUOUS
10
5.6061
20
-3.05604
11
5.60834
21
-3.05165
0
LINE
8
BLACK
6
CONTINUOUS
10
5.60834
20
-3.05165
11
5.61182
21
-3.04817
0
LINE
8
BLACK
6
CONTINUOUS
10
5.61182
20
-3.04817
11
5.61621
21
-3.04593
0
LINE
8
BLACK
6
CONTINUOUS
10
5.61621
20
-3.04593
11
5.6169
21
-3.04582
0
LINE
8
BLACK
6
CONTINUOUS
10
5.6169
20
-3.04582
11
5.6169
21
-3.01044
0
LINE
8
BLACK
6
CONTINUOUS
10
5.6169
20
-3.01044
11
5.59919
21
-3.01044
0
LINE
8
BLACK
6
CONTINUOUS
10
5.59919
20
-3.01044
11
5.59919
21
-2.95138
0
LINE
8
BLACK
6
CONTINUOUS
10
5.59919
20
-2.95138
11
5.65037
21
-2.95138
0
LINE
8
BLACK
6
CONTINUOUS
10
5.65037
20
-2.95138
11
5.65037
21
-3.01044
0
LINE
8
BLACK
6
CONTINUOUS
10
6.13834
20
-4.06165
11
6.14182
21
-4.05817
0
LINE
8
BLACK
6
CONTINUOUS
10
6.14182
20
-4.05817
11
6.14621
21
-4.05593
0
LINE
8
BLACK
6
CONTINUOUS
10
6.14621
20
-4.05593
11
6.15108
21
-4.05516
0
LINE
8
BLACK
6
CONTINUOUS
10
6.15108
20
-4.05516
11
6.15594
21
-4.05593
0
LINE
8
BLACK
6
CONTINUOUS
10
6.15594
20
-4.05593
11
6.16033
21
-4.05817
0
LINE
8
BLACK
6
CONTINUOUS
10
6.16033
20
-4.05817
11
6.16205
21
-4.05989
0
LINE
8
BLACK
6
CONTINUOUS
10
6.16205
20
-4.05989
11
6.20155
21
-4.05989
0
LINE
8
BLACK
6
CONTINUOUS
10
6.20155
20
-4.05989
11
6.20155
21
-4.04217
0
LINE
8
BLACK
6
CONTINUOUS
10
6.20155
20
-4.04217
11
6.2606
21
-4.04217
0
LINE
8
BLACK
6
CONTINUOUS
10
6.2606
20
-4.04217
11
6.2606
21
-4.09335
0
LINE
8
BLACK
6
CONTINUOUS
10
6.2606
20
-4.09335
11
6.20155
21
-4.09335
0
LINE
8
BLACK
6
CONTINUOUS
10
6.20155
20
-4.09335
11
6.20155
21
-4.07564
0
LINE
8
BLACK
6
CONTINUOUS
10
6.20155
20
-4.07564
11
6.16608
21
-4.07564
0
LINE
8
BLACK
6
CONTINUOUS
10
6.16608
20
-4.07564
11
6.16605
21
-4.07578
0
LINE
8
BLACK
6
CONTINUOUS
10
6.16605
20
-4.07578
11
6.16382
21
-4.08017
0
LINE
8
BLACK
6
CONTINUOUS
10
6.16382
20
-4.08017
11
6.16033
21
-4.08365
0
LINE
8
BLACK
6
CONTINUOUS
10
6.16033
20
-4.08365
11
6.15594
21
-4.08589
0
LINE
8
BLACK
6
CONTINUOUS
10
6.15594
20
-4.08589
11
6.15108
21
-4.08666
0
LINE
8
BLACK
6
CONTINUOUS
10
6.15108
20
-4.08666
11
6.14621
21
-4.08589
0
LINE
8
BLACK
6
CONTINUOUS
10
6.14621
20
-4.08589
11
6.14182
21
-4.08365
0
LINE
8
BLACK
6
CONTINUOUS
10
6.14182
20
-4.08365
11
6.13834
21
-4.08017
0
LINE
8
BLACK
6
CONTINUOUS
10
6.13834
20
-4.08017
11
6.13763
21
-4.07878
0
LINE
8
BLACK
6
CONTINUOUS
10
6.13763
20
-4.07878
11
5.99106
21
-4.07878
0
LINE
8
BLACK
6
CONTINUOUS
10
5.99106
20
-4.07878
11
5.98978
21
-4.07849
0
LINE
8
BLACK
6
CONTINUOUS
10
5.98978
20
-4.07849
11
5.98847
21
-4.07834
0
LINE
8
BLACK
6
CONTINUOUS
10
5.98847
20
-4.07834
11
5.98809
21
-4.0781
0
LINE
8
BLACK
6
CONTINUOUS
10
5.98809
20
-4.0781
11
5.98765
21
-4.078
0
LINE
8
BLACK
6
CONTINUOUS
10
5.98765
20
-4.078
11
5.98662
21
-4.07718
0
LINE
8
BLACK
6
CONTINUOUS
10
5.98662
20
-4.07718
11
5.98551
21
-4.07648
0
LINE
8
BLACK
6
CONTINUOUS
10
5.98551
20
-4.07648
11
5.8555
21
-3.94647
0
LINE
8
BLACK
6
CONTINUOUS
10
5.8555
20
-3.94647
11
5.8548
21
-3.94535
0
LINE
8
BLACK
6
CONTINUOUS
10
5.8548
20
-3.94535
11
5.85398
21
-3.94433
0
LINE
8
BLACK
6
CONTINUOUS
10
5.85398
20
-3.94433
11
5.85388
21
-3.94388
0
LINE
8
BLACK
6
CONTINUOUS
10
5.85388
20
-3.94388
11
5.85364
21
-3.9435
0
LINE
8
BLACK
6
CONTINUOUS
10
5.85364
20
-3.9435
11
5.85349
21
-3.94219
0
LINE
8
BLACK
6
CONTINUOUS
10
5.85349
20
-3.94219
11
5.8532
21
-3.94091
0
LINE
8
BLACK
6
CONTINUOUS
10
5.8532
20
-3.94091
11
5.8532
21
-3.79378
0
LINE
8
BLACK
6
CONTINUOUS
10
5.8532
20
-3.79378
11
5.794
21
-3.73458
0
LINE
8
BLACK
6
CONTINUOUS
10
5.794
20
-3.73458
11
5.7933
21
-3.73346
0
LINE
8
BLACK
6
CONTINUOUS
10
5.7933
20
-3.73346
11
5.79248
21
-3.73244
0
LINE
8
BLACK
6
CONTINUOUS
10
5.79248
20
-3.73244
11
5.79238
21
-3.73199
0
LINE
8
BLACK
6
CONTINUOUS
10
5.79238
20
-3.73199
11
5.79214
21
-3.73161
0
LINE
8
BLACK
6
CONTINUOUS
10
5.79214
20
-3.73161
11
5.792
21
-3.7303
0
LINE
8
BLACK
6
CONTINUOUS
10
5.792
20
-3.7303
11
5.79171
21
-3.72902
0
LINE
8
BLACK
6
CONTINUOUS
10
5.79171
20
-3.72902
11
5.79171
21
-3.64436
0
LINE
8
BLACK
6
CONTINUOUS
10
5.79171
20
-3.64436
11
5.79032
21
-3.64365
0
LINE
8
BLACK
6
CONTINUOUS
10
5.79032
20
-3.64365
11
5.78684
21
-3.64017
0
LINE
8
BLACK
6
CONTINUOUS
10
5.78684
20
-3.64017
11
5.7846
21
-3.63578
0
LINE
8
BLACK
6
CONTINUOUS
10
5.7846
20
-3.63578
11
5.78383
21
-3.63091
0
LINE
8
BLACK
6
CONTINUOUS
10
5.78383
20
-3.63091
11
5.7846
21
-3.62604
0
LINE
8
BLACK
6
CONTINUOUS
10
5.7846
20
-3.62604
11
5.78684
21
-3.62165
0
LINE
8
BLACK
6
CONTINUOUS
10
5.78684
20
-3.62165
11
5.79032
21
-3.61817
0
LINE
8
BLACK
6
CONTINUOUS
10
5.79032
20
-3.61817
11
5.79471
21
-3.61593
0
LINE
8
BLACK
6
CONTINUOUS
10
5.79471
20
-3.61593
11
5.79958
21
-3.61516
0
LINE
8
BLACK
6
CONTINUOUS
10
5.79958
20
-3.61516
11
5.80445
21
-3.61593
0
LINE
8
BLACK
6
CONTINUOUS
10
5.80445
20
-3.61593
11
5.80884
21
-3.61817
0
LINE
8
BLACK
6
CONTINUOUS
10
5.80884
20
-3.61817
11
5.81232
21
-3.62165
0
LINE
8
BLACK
6
CONTINUOUS
10
5.81232
20
-3.62165
11
5.81456
21
-3.62604
0
LINE
8
BLACK
6
CONTINUOUS
10
5.81456
20
-3.62604
11
5.81533
21
-3.63091
0
LINE
8
BLACK
6
CONTINUOUS
10
5.81533
20
-3.63091
11
5.81456
21
-3.63578
0
LINE
8
BLACK
6
CONTINUOUS
10
5.81456
20
-3.63578
11
5.81232
21
-3.64017
0
LINE
8
BLACK
6
CONTINUOUS
10
5.81232
20
-3.64017
11
5.80884
21
-3.64365
0
LINE
8
BLACK
6
CONTINUOUS
10
5.80884
20
-3.64365
11
5.80745
21
-3.64436
0
LINE
8
BLACK
6
CONTINUOUS
10
5.80745
20
-3.64436
11
5.80745
21
-3.72576
0
LINE
8
BLACK
6
CONTINUOUS
10
5.80745
20
-3.72576
11
5.86665
21
-3.78496
0
LINE
8
BLACK
6
CONTINUOUS
10
5.86665
20
-3.78496
11
5.86735
21
-3.78607
0
LINE
8
BLACK
6
CONTINUOUS
10
5.86735
20
-3.78607
11
5.86817
21
-3.7871
0
LINE
8
BLACK
6
CONTINUOUS
10
5.86817
20
-3.7871
11
5.86827
21
-3.78754
0
LINE
8
BLACK
6
CONTINUOUS
10
5.86827
20
-3.78754
11
5.86851
21
-3.78793
0
LINE
8
BLACK
6
CONTINUOUS
10
5.86851
20
-3.78793
11
5.86866
21
-3.78924
0
LINE
8
BLACK
6
CONTINUOUS
10
5.86866
20
-3.78924
11
5.86895
21
-3.79052
0
LINE
8
BLACK
6
CONTINUOUS
10
5.86895
20
-3.79052
11
5.86895
21
-3.93765
0
LINE
8
BLACK
6
CONTINUOUS
10
5.86895
20
-3.93765
11
5.99434
21
-4.06304
0
LINE
8
BLACK
6
CONTINUOUS
10
5.99434
20
-4.06304
11
6.13763
21
-4.06304
0
LINE
8
BLACK
6
CONTINUOUS
10
6.13763
20
-4.06304
11
6.13834
21
-4.06165
0
LINE
8
BLACK
6
CONTINUOUS
10
5.69594
20
-3.30593
11
5.70033
21
-3.30817
0
LINE
8
BLACK
6
CONTINUOUS
10
5.70033
20
-3.30817
11
5.70382
21
-3.31165
0
LINE
8
BLACK
6
CONTINUOUS
10
5.70382
20
-3.31165
11
5.70605
21
-3.31604
0
LINE
8
BLACK
6
CONTINUOUS
10
5.70605
20
-3.31604
11
5.70682
21
-3.32091
0
LINE
8
BLACK
6
CONTINUOUS
10
5.70682
20
-3.32091
11
5.70682
21
-3.81091
0
LINE
8
BLACK
6
CONTINUOUS
10
5.70682
20
-3.81091
11
5.70605
21
-3.81578
0
LINE
8
BLACK
6
CONTINUOUS
10
5.70605
20
-3.81578
11
5.70382
21
-3.82017
0
LINE
8
BLACK
6
CONTINUOUS
10
5.70382
20
-3.82017
11
5.70033
21
-3.82365
0
LINE
8
BLACK
6
CONTINUOUS
10
5.70033
20
-3.82365
11
5.69594
21
-3.82589
0
LINE
8
BLACK
6
CONTINUOUS
10
5.69594
20
-3.82589
11
5.69108
21
-3.82666
0
LINE
8
BLACK
6
CONTINUOUS
10
5.69108
20
-3.82666
11
5.68621
21
-3.82589
0
LINE
8
BLACK
6
CONTINUOUS
10
5.68621
20
-3.82589
11
5.68182
21
-3.82365
0
LINE
8
BLACK
6
CONTINUOUS
10
5.68182
20
-3.82365
11
5.67834
21
-3.82017
0
LINE
8
BLACK
6
CONTINUOUS
10
5.67834
20
-3.82017
11
5.6761
21
-3.81578
0
LINE
8
BLACK
6
CONTINUOUS
10
5.6761
20
-3.81578
11
5.67533
21
-3.81091
0
LINE
8
BLACK
6
CONTINUOUS
10
5.67533
20
-3.81091
11
5.67533
21
-3.32091
0
LINE
8
BLACK
6
CONTINUOUS
10
5.67533
20
-3.32091
11
5.6761
21
-3.31604
0
LINE
8
BLACK
6
CONTINUOUS
10
5.6761
20
-3.31604
11
5.67834
21
-3.31165
0
LINE
8
BLACK
6
CONTINUOUS
10
5.67834
20
-3.31165
11
5.68182
21
-3.30817
0
LINE
8
BLACK
6
CONTINUOUS
10
5.68182
20
-3.30817
11
5.68621
21
-3.30593
0
LINE
8
BLACK
6
CONTINUOUS
10
5.68621
20
-3.30593
11
5.69108
21
-3.30516
0
LINE
8
BLACK
6
CONTINUOUS
10
5.69108
20
-3.30516
11
5.69594
21
-3.30593
0
LINE
8
BLACK
6
CONTINUOUS
10
4.97299
20
-3.32279
11
4.97938
21
-3.32563
0
LINE
8
BLACK
6
CONTINUOUS
10
4.97938
20
-3.32563
11
4.98504
21
-3.32974
0
LINE
8
BLACK
6
CONTINUOUS
10
4.98504
20
-3.32974
11
4.98972
21
-3.33494
0
LINE
8
BLACK
6
CONTINUOUS
10
4.98972
20
-3.33494
11
4.99322
21
-3.341
0
LINE
8
BLACK
6
CONTINUOUS
10
4.99322
20
-3.341
11
4.99538
21
-3.34765
0
LINE
8
BLACK
6
CONTINUOUS
10
4.99538
20
-3.34765
11
4.99612
21
-3.35461
0
LINE
8
BLACK
6
CONTINUOUS
10
4.99612
20
-3.35461
11
4.99538
21
-3.36157
0
LINE
8
BLACK
6
CONTINUOUS
10
4.99538
20
-3.36157
11
4.99322
21
-3.36822
0
LINE
8
BLACK
6
CONTINUOUS
10
4.99322
20
-3.36822
11
4.98972
21
-3.37428
0
LINE
8
BLACK
6
CONTINUOUS
10
4.98972
20
-3.37428
11
4.98504
21
-3.37948
0
LINE
8
BLACK
6
CONTINUOUS
10
4.98504
20
-3.37948
11
4.97938
21
-3.38359
0
LINE
8
BLACK
6
CONTINUOUS
10
4.97938
20
-3.38359
11
4.97299
21
-3.38644
0
LINE
8
BLACK
6
CONTINUOUS
10
4.97299
20
-3.38644
11
4.96615
21
-3.38789
0
LINE
8
BLACK
6
CONTINUOUS
10
4.96615
20
-3.38789
11
4.95915
21
-3.38789
0
LINE
8
BLACK
6
CONTINUOUS
10
4.95915
20
-3.38789
11
4.95231
21
-3.38644
0
LINE
8
BLACK
6
CONTINUOUS
10
4.95231
20
-3.38644
11
4.94592
21
-3.38359
0
LINE
8
BLACK
6
CONTINUOUS
10
4.94592
20
-3.38359
11
4.94026
21
-3.37948
0
LINE
8
BLACK
6
CONTINUOUS
10
4.94026
20
-3.37948
11
4.93558
21
-3.37428
0
LINE
8
BLACK
6
CONTINUOUS
10
4.93558
20
-3.37428
11
4.93208
21
-3.36822
0
LINE
8
BLACK
6
CONTINUOUS
10
4.93208
20
-3.36822
11
4.92992
21
-3.36157
0
LINE
8
BLACK
6
CONTINUOUS
10
4.92992
20
-3.36157
11
4.92919
21
-3.35461
0
LINE
8
BLACK
6
CONTINUOUS
10
4.92919
20
-3.35461
11
4.92992
21
-3.34765
0
LINE
8
BLACK
6
CONTINUOUS
10
4.92992
20
-3.34765
11
4.93208
21
-3.341
0
LINE
8
BLACK
6
CONTINUOUS
10
4.93208
20
-3.341
11
4.93558
21
-3.33494
0
LINE
8
BLACK
6
CONTINUOUS
10
4.93558
20
-3.33494
11
4.94026
21
-3.32974
0
LINE
8
BLACK
6
CONTINUOUS
10
4.94026
20
-3.32974
11
4.94592
21
-3.32563
0
LINE
8
BLACK
6
CONTINUOUS
10
4.94592
20
-3.32563
11
4.95231
21
-3.32279
0
LINE
8
BLACK
6
CONTINUOUS
10
4.95231
20
-3.32279
11
4.95915
21
-3.32133
0
LINE
8
BLACK
6
CONTINUOUS
10
4.95915
20
-3.32133
11
4.96615
21
-3.32133
0
LINE
8
BLACK
6
CONTINUOUS
10
4.96615
20
-3.32133
11
4.97299
21
-3.32279
0
LINE
8
BLACK
6
CONTINUOUS
10
4.97299
20
-3.22279
11
4.97938
21
-3.22563
0
LINE
8
BLACK
6
CONTINUOUS
10
4.97938
20
-3.22563
11
4.98504
21
-3.22974
0
LINE
8
BLACK
6
CONTINUOUS
10
4.98504
20
-3.22974
11
4.98972
21
-3.23494
0
LINE
8
BLACK
6
CONTINUOUS
10
4.98972
20
-3.23494
11
4.99322
21
-3.241
0
LINE
8
BLACK
6
CONTINUOUS
10
4.99322
20
-3.241
11
4.99538
21
-3.24765
0
LINE
8
BLACK
6
CONTINUOUS
10
4.99538
20
-3.24765
11
4.99612
21
-3.25461
0
LINE
8
BLACK
6
CONTINUOUS
10
4.99612
20
-3.25461
11
4.99538
21
-3.26157
0
LINE
8
BLACK
6
CONTINUOUS
10
4.99538
20
-3.26157
11
4.99322
21
-3.26822
0
LINE
8
BLACK
6
CONTINUOUS
10
4.99322
20
-3.26822
11
4.98972
21
-3.27428
0
LINE
8
BLACK
6
CONTINUOUS
10
4.98972
20
-3.27428
11
4.98504
21
-3.27948
0
LINE
8
BLACK
6
CONTINUOUS
10
4.98504
20
-3.27948
11
4.97938
21
-3.28359
0
LINE
8
BLACK
6
CONTINUOUS
10
4.97938
20
-3.28359
11
4.97299
21
-3.28644
0
LINE
8
BLACK
6
CONTINUOUS
10
4.97299
20
-3.28644
11
4.96615
21
-3.28789
0
LINE
8
BLACK
6
CONTINUOUS
10
4.96615
20
-3.28789
11
4.95915
21
-3.28789
0
LINE
8
BLACK
6
CONTINUOUS
10
4.95915
20
-3.28789
11
4.95231
21
-3.28644
0
LINE
8
BLACK
6
CONTINUOUS
10
4.95231
20
-3.28644
11
4.94592
21
-3.28359
0
LINE
8
BLACK
6
CONTINUOUS
10
4.94592
20
-3.28359
11
4.94026
21
-3.27948
0
LINE
8
BLACK
6
CONTINUOUS
10
4.94026
20
-3.27948
11
4.93558
21
-3.27428
0
LINE
8
BLACK
6
CONTINUOUS
10
4.93558
20
-3.27428
11
4.93208
21
-3.26822
0
LINE
8
BLACK
6
CONTINUOUS
10
4.93208
20
-3.26822
11
4.92992
21
-3.26157
0
LINE
8
BLACK
6
CONTINUOUS
10
4.92992
20
-3.26157
11
4.92919
21
-3.25461
0
LINE
8
BLACK
6
CONTINUOUS
10
4.92919
20
-3.25461
11
4.92992
21
-3.24765
0
LINE
8
BLACK
6
CONTINUOUS
10
4.92992
20
-3.24765
11
4.93208
21
-3.241
0
LINE
8
BLACK
6
CONTINUOUS
10
4.93208
20
-3.241
11
4.93558
21
-3.23494
0
LINE
8
BLACK
6
CONTINUOUS
10
4.93558
20
-3.23494
11
4.94026
21
-3.22974
0
LINE
8
BLACK
6
CONTINUOUS
10
4.94026
20
-3.22974
11
4.94592
21
-3.22563
0
LINE
8
BLACK
6
CONTINUOUS
10
4.94592
20
-3.22563
11
4.95231
21
-3.22279
0
LINE
8
BLACK
6
CONTINUOUS
10
4.95231
20
-3.22279
11
4.95915
21
-3.22133
0
LINE
8
BLACK
6
CONTINUOUS
10
4.95915
20
-3.22133
11
4.96615
21
-3.22133
0
LINE
8
BLACK
6
CONTINUOUS
10
4.96615
20
-3.22133
11
4.97299
21
-3.22279
0
LINE
8
BLACK
6
CONTINUOUS
10
6.16608
20
-4.41591
11
6.10608
21
-4.41591
0
LINE
8
BLACK
6
CONTINUOUS
10
6.10608
20
-4.41591
11
6.10608
21
-4.35591
0
LINE
8
BLACK
6
CONTINUOUS
10
6.10608
20
-4.35591
11
6.16608
21
-4.35591
0
LINE
8
BLACK
6
CONTINUOUS
10
6.16608
20
-4.35591
11
6.16608
21
-4.41591
0
LINE
8
BLACK
6
CONTINUOUS
10
6.16608
20
-4.31591
11
6.10608
21
-4.31591
0
LINE
8
BLACK
6
CONTINUOUS
10
6.10608
20
-4.31591
11
6.10608
21
-4.25591
0
LINE
8
BLACK
6
CONTINUOUS
10
6.10608
20
-4.25591
11
6.16608
21
-4.25591
0
LINE
8
BLACK
6
CONTINUOUS
10
6.16608
20
-4.25591
11
6.16608
21
-4.31591
0
CIRCLE
8
BLACK
10
5.01108
20
-3.96091
40
0.00787402
0
CIRCLE
8
BLACK
10
5.96344
20
-4.21091
40
0.00787402
0
CIRCLE
8
BLACK
10
5.76608
20
-3.46591
40
0.00787402
0
CIRCLE
8
BLACK
10
5.87108
20
-3.63091
40
0.00787402
0
CIRCLE
8
BLACK
10
5.33108
20
-3.38091
40
0.00787402
0
CIRCLE
8
BLACK
10
5.90108
20
-3.87091
40
0.00787402
0
CIRCLE
8
BLACK
10
5.86257
20
-3.51091
40
0.00787402
0
CIRCLE
8
BLACK
10
5.91108
20
-3.18591
40
0.00787402
0
CIRCLE
8
BLACK
10
5.49108
20
-3.76091
40
0.00787402
0
CIRCLE
8
BLACK
10
4.96108
20
-3.46091
40
0.00787402
0
CIRCLE
8
BLACK
10
5.53608
20
-4.03591
40
0.00787402
0
CIRCLE
8
BLACK
10
6.11108
20
-3.43591
40
0.00787402
0
CIRCLE
8
BLACK
10
5.73108
20
-3.13091
40
0.00787402
0
CIRCLE
8
BLACK
10
5.54108
20
-3.76091
40
0.00787402
0
CIRCLE
8
BLACK
10
5.03608
20
-3.73591
40
0.00787402
0
CIRCLE
8
BLACK
10
6.13608
20
-3.11091
40
0.00787402
0
CIRCLE
8
BLACK
10
5.41108
20
-3.43091
40
0.00787402
0
CIRCLE
8
BLACK
10
5.53608
20
-4.11091
40
0.00787402
0
CIRCLE
8
BLACK
10
5.63608
20
-3.98591
40
0.00787402
0
CIRCLE
8
BLACK
10
4.81108
20
-3.38591
40
0.00787402
0
CIRCLE
8
BLACK
10
5.66108
20
-3.13091
40
0.00787402
0
CIRCLE
8
BLACK
10
5.08608
20
-3.96091
40
0.00787402
0
CIRCLE
8
BLACK
10
5.63608
20
-3.86091
40
0.00787402
0
CIRCLE
8
BLACK
10
5.58608
20
-4.26091
40
0.00787402
0
CIRCLE
8
BLACK
10
5.58608
20
-4.11091
40
0.00787402
0
CIRCLE
8
BLACK
10
5.91108
20
-3.44241
40
0.00787402
0
CIRCLE
8
BLACK
10
4.93608
20
-3.18591
40
0.00787402
0
CIRCLE
8
BLACK
10
5.63608
20
-4.38591
40
0.00787402
0
CIRCLE
8
BLACK
10
5.08608
20
-3.36091
40
0.00787402
0
CIRCLE
8
BLACK
10
4.64108
20
-3.42091
40
0.00787402
0
CIRCLE
8
BLACK
10
5.03608
20
-3.36091
40
0.00787402
0
CIRCLE
8
BLACK
10
5.41108
20
-3.38091
40
0.00787402
0
CIRCLE
8
BLACK
10
5.26108
20
-3.76091
40
0.00787402
0
CIRCLE
8
BLACK
10
5.23608
20
-4.01091
40
0.00787402
0
CIRCLE
8
BLACK
10
5.76108
20
-3.41091
40
0.00787402
0
CIRCLE
8
BLACK
10
5.81108
20
-3.41091
40
0.00787402
0
CIRCLE
8
BLACK
10
6.45108
20
-3.31091
40
0.00787402
0
CIRCLE
8
BLACK
10
5.53608
20
-3.33591
40
0.00787402
0
CIRCLE
8
BLACK
10
4.86108
20
-3.31091
40
0.00787402
0
CIRCLE
8
BLACK
10
6.30108
20
-3.31091
40
0.00787402
0
CIRCLE
8
BLACK
10
6.28608
20
-4.26091
40
0.00787402
0
CIRCLE
8
BLACK
10
5.56108
20
-3.13091
40
0.00787402
0
CIRCLE
8
BLACK
10
5.76108
20
-3.86091
40
0.00787402
0
CIRCLE
8
BLACK
10
4.86108
20
-3.38591
40
0.00787402
0
CIRCLE
8
BLACK
10
5.96108
20
-3.18591
40
0.00787402
0
CIRCLE
8
BLACK
10
5.73045
20
-3.46591
40
0.00787402
0
CIRCLE
8
BLACK
10
4.96108
20
-3.51091
40
0.00787402
0
CIRCLE
8
BLACK
10
5.58608
20
-3.31091
40
0.00787402
0
CIRCLE
8
BLACK
10
4.75108
20
-3.59091
40
0.00787402
0
CIRCLE
8
BLACK
10
5.23608
20
-3.18591
40
0.00787402
0
CIRCLE
8
BLACK
10
5.31108
20
-3.76091
40
0.00787402
0
CIRCLE
8
BLACK
10
5.82958
20
-3.91091
40
0.00787402
0
CIRCLE
8
BLACK
10
5.58608
20
-4.38591
40
0.00787402
0
CIRCLE
8
BLACK
10
5.44608
20
-3.75091
40
0.00787402
0
CIRCLE
8
BLACK
10
5.76108
20
-4.38591
40
0.00787402
0
CIRCLE
8
BLACK
10
5.01108
20
-3.18591
40
0.00787402
0
CIRCLE
8
BLACK
10
5.87085
20
-3.47068
40
0.00787402
0
CIRCLE
8
BLACK
10
5.11108
20
-3.73591
40
0.00787402
0
CIRCLE
8
BLACK
10
4.75108
20
-3.54091
40
0.00787402
0
CIRCLE
8
BLACK
10
4.92108
20
-3.73091
40
0.00787402
0
CIRCLE
8
BLACK
10
5.68608
20
-4.38591
40
0.00787402
0
CIRCLE
8
BLACK
10
5.76108
20
-3.18091
40
0.00787402
0
CIRCLE
8
BLACK
10
5.08608
20
-3.31091
40
0.00787402
0
CIRCLE
8
BLACK
10
6.33608
20
-3.56091
40
0.00787402
0
CIRCLE
8
BLACK
10
5.13608
20
-4.01091
40
0.00787402
0
CIRCLE
8
BLACK
10
4.66108
20
-3.50091
40
0.00787402
0
CIRCLE
8
BLACK
10
4.96105
20
-3.41168
40
0.00787402
0
CIRCLE
8
BLACK
10
6.31108
20
-3.66091
40
0.00787402
0
CIRCLE
8
BLACK
10
4.96108
20
-3.58591
40
0.00787402
0
CIRCLE
8
BLACK
10
4.93608
20
-3.96091
40
0.00787402
0
CIRCLE
8
BLACK
10
5.76108
20
-3.75591
40
0.00787402
0
CIRCLE
8
BLACK
10
5.82958
20
-3.98591
40
0.00787402
0
CIRCLE
8
BLACK
10
5.08608
20
-3.18591
40
0.00787402
0
CIRCLE
8
BLACK
10
6.08608
20
-3.73591
40
0.00787402
0
CIRCLE
8
BLACK
10
5.88108
20
-3.69091
40
0.00787402
0
CIRCLE
8
BLACK
10
4.83608
20
-3.96091
40
0.00787402
0
CIRCLE
8
BLACK
10
6.03608
20
-3.98591
40
0.00787402
0
CIRCLE
8
BLACK
10
5.76108
20
-3.72091
40
0.00787402
0
CIRCLE
8
BLACK
10
4.76108
20
-3.96091
40
0.00787402
0
CIRCLE
8
BLACK
10
5.38608
20
-3.91091
40
0.00787402
0
CIRCLE
8
BLACK
10
5.33608
20
-3.98591
40
0.00787402
0
CIRCLE
8
BLACK
10
5.98608
20
-3.11091
40
0.00787402
0
CIRCLE
8
BLACK
10
6.37108
20
-3.30091
40
0.00787402
0
CIRCLE
8
BLACK
10
4.96108
20
-3.73591
40
0.00787402
0
CIRCLE
8
BLACK
10
5.59108
20
-3.76091
40
0.00787402
0
CIRCLE
8
BLACK
10
4.86108
20
-3.21091
40
0.00787402
0
CIRCLE
8
BLACK
10
5.33108
20
-3.43091
40
0.00787402
0
CIRCLE
8
BLACK
10
6.08108
20
-3.58091
40
0.00787402
0
CIRCLE
8
BLACK
10
6.08608
20
-3.11091
40
0.00787402
0
CIRCLE
8
BLACK
10
6.28608
20
-3.41091
40
0.00787402
0
CIRCLE
8
BLACK
10
5.58608
20
-3.38591
40
0.00787402
0
CIRCLE
8
BLACK
10
5.36108
20
-3.76091
40
0.00787402
0
CIRCLE
8
BLACK
10
5.63608
20
-3.91091
40
0.00787402
0
CIRCLE
8
BLACK
10
5.58608
20
-4.03591
40
0.00787402
0
CIRCLE
8
BLACK
10
5.44608
20
-3.65091
40
0.00787402
0
CIRCLE
8
BLACK
10
5.58608
20
-4.31091
40
0.00787402
0
CIRCLE
8
BLACK
10
5.06108
20
-3.66091
40
0.00787402
0
CIRCLE
8
BLACK
10
5.96344
20
-4.26091
40
0.00787402
0
CIRCLE
8
BLACK
10
5.66108
20
-3.23091
40
0.00787402
0
CIRCLE
8
BLACK
10
5.55108
20
-3.07091
40
0.00787402
0
CIRCLE
8
BLACK
10
5.83608
20
-3.18591
40
0.00787402
0
CIRCLE
8
BLACK
10
6.38608
20
-3.66091
40
0.00787402
0
CIRCLE
8
BLACK
10
5.44608
20
-3.70091
40
0.00787402
0
CIRCLE
8
BLACK
10
6.03608
20
-3.73591
40
0.00787402
0
CIRCLE
8
BLACK
10
5.28608
20
-3.18591
40
0.00787402
0
CIRCLE
8
BLACK
10
6.08608
20
-3.41091
40
0.00787402
0
CIRCLE
8
BLACK
10
5.69108
20
-3.81091
40
0.00787402
0
CIRCLE
8
BLACK
10
5.69108
20
-3.32091
40
0.00787402
0
CIRCLE
8
BLACK
10
5.62108
20
-3.06091
40
0.00787402
0
CIRCLE
8
BLACK
10
5.21108
20
-3.35091
40
0.00787402
0
CIRCLE
8
BLACK
10
6.15108
20
-4.07091
40
0.00787402
0
CIRCLE
8
BLACK
10
5.17143
20
-3.75601
40
0.00787402
0
CIRCLE
8
BLACK
10
5.79958
20
-3.63091
40
0.00787402
0
CIRCLE
8
BLACK
10
5.88608
20
-3.56091
40
0.00787402
0
CIRCLE
8
BLACK
10
6.03608
20
-3.16091
40
0.00787402
  0
ENDSEC
  0
EOF
