  0
SECTION
  2
HEADER
  9
$ANGBASE
  50
0.0
  9
$ANGDIR
  70
1
  9
$MEASUREMENT
  70
0
  0
ENDSEC
  0
SECTION
  2
TABLES
  0
TABLE
  2
LTYPE
  70
4
  0
LTYPE
  5
40F
  2
CONTINUOUS
  70
0
  3
Solid line
  72
65
  73
0
  40
0.0
  0
LTYPE
  5
410
  2
DASHDOT
 70
0
  3
Dash Dot ____ _ ____ _
 72
65
 73
4
 40
2.0
 49
1.25
 49
-0.25
 49
0.25
 49
-0.25
  0
LTYPE
  5
411
  2
DASHED
 70
0
  3
Dashed __ __ __ __ __
 72
65
 73
2
 40
0.75
 49
0.5
 49
-0.25
  0
LTYPE
  5
43B
  2
DOTTED
 70
0
  3
Dotted .  .  .  .
 72
65
 73
2
 40
0.2
 49
0.0
 49
-0.2
  0
ENDTAB
  0
TABLE
  2
STYLE
  70
4
  0
STYLE
  2
KICAD
  70
0
  40
0
  41
1
  42
1
  50
0
  71
0
  3
isocp.shx
  0
STYLE
  2
KICADB
  70
0
  40
0
  41
1
  42
1
  50
0
  71
0
  3
isocp.shx
  0
STYLE
  2
KICADI
  70
0
  40
0
  41
1
  42
1
  50
15
  71
0
  3
isocp.shx
  0
STYLE
  2
KICADBI
  70
0
  40
0
  41
1
  42
1
  50
15
  71
0
  3
isocp.shx
  0
ENDTAB
  0
TABLE
  2
LAYER
  70
1
  0
LAYER
  2
BLACK
  70
0
  62
7
  6
CONTINUOUS
  0
ENDTAB
  0
ENDSEC
  0
SECTION
  2
ENTITIES
0
LINE
8
BLACK
6
CONTINUOUS
10
6.28646
20
-4.23303
11
6.28659
21
-4.233
0
LINE
8
BLACK
6
CONTINUOUS
10
6.28659
20
-4.233
11
6.2867
21
-4.23307
0
LINE
8
BLACK
6
CONTINUOUS
10
6.2867
20
-4.23307
11
6.28709
21
-4.23314
0
LINE
8
BLACK
6
CONTINUOUS
10
6.28709
20
-4.23314
11
6.28767
21
-4.23363
0
LINE
8
BLACK
6
CONTINUOUS
10
6.28767
20
-4.23363
11
6.28834
21
-4.23401
0
LINE
8
BLACK
6
CONTINUOUS
10
6.28834
20
-4.23401
11
6.28843
21
-4.23426
0
LINE
8
BLACK
6
CONTINUOUS
10
6.28843
20
-4.23426
11
6.28863
21
-4.23443
0
LINE
8
BLACK
6
CONTINUOUS
10
6.28863
20
-4.23443
11
6.28877
21
-4.23519
0
LINE
8
BLACK
6
CONTINUOUS
10
6.28877
20
-4.23519
11
6.28903
21
-4.23591
0
LINE
8
BLACK
6
CONTINUOUS
10
6.28903
20
-4.23591
11
6.28903
21
-4.43591
0
LINE
8
BLACK
6
CONTINUOUS
10
6.28903
20
-4.43591
11
6.28896
21
-4.43629
0
LINE
8
BLACK
6
CONTINUOUS
10
6.28896
20
-4.43629
11
6.28898
21
-4.43642
0
LINE
8
BLACK
6
CONTINUOUS
10
6.28898
20
-4.43642
11
6.28892
21
-4.43654
0
LINE
8
BLACK
6
CONTINUOUS
10
6.28892
20
-4.43654
11
6.28885
21
-4.43692
0
LINE
8
BLACK
6
CONTINUOUS
10
6.28885
20
-4.43692
11
6.28836
21
-4.43751
0
LINE
8
BLACK
6
CONTINUOUS
10
6.28836
20
-4.43751
11
6.28797
21
-4.43817
0
LINE
8
BLACK
6
CONTINUOUS
10
6.28797
20
-4.43817
11
6.28772
21
-4.43826
0
LINE
8
BLACK
6
CONTINUOUS
10
6.28772
20
-4.43826
11
6.28755
21
-4.43847
0
LINE
8
BLACK
6
CONTINUOUS
10
6.28755
20
-4.43847
11
6.2868
21
-4.4386
0
LINE
8
BLACK
6
CONTINUOUS
10
6.2868
20
-4.4386
11
6.28608
21
-4.43886
0
LINE
8
BLACK
6
CONTINUOUS
10
6.28608
20
-4.43886
11
5.98608
21
-4.43886
0
LINE
8
BLACK
6
CONTINUOUS
10
5.98608
20
-4.43886
11
5.98569
21
-4.4388
0
LINE
8
BLACK
6
CONTINUOUS
10
5.98569
20
-4.4388
11
5.98556
21
-4.43882
0
LINE
8
BLACK
6
CONTINUOUS
10
5.98556
20
-4.43882
11
5.98545
21
-4.43875
0
LINE
8
BLACK
6
CONTINUOUS
10
5.98545
20
-4.43875
11
5.98507
21
-4.43869
0
LINE
8
BLACK
6
CONTINUOUS
10
5.98507
20
-4.43869
11
5.98448
21
-4.43819
0
LINE
8
BLACK
6
CONTINUOUS
10
5.98448
20
-4.43819
11
5.98381
21
-4.43781
0
LINE
8
BLACK
6
CONTINUOUS
10
5.98381
20
-4.43781
11
5.98372
21
-4.43756
0
LINE
8
BLACK
6
CONTINUOUS
10
5.98372
20
-4.43756
11
5.98352
21
-4.43739
0
LINE
8
BLACK
6
CONTINUOUS
10
5.98352
20
-4.43739
11
5.98339
21
-4.43663
0
LINE
8
BLACK
6
CONTINUOUS
10
5.98339
20
-4.43663
11
5.98312
21
-4.43591
0
LINE
8
BLACK
6
CONTINUOUS
10
5.98312
20
-4.43591
11
5.98312
21
-4.23591
0
LINE
8
BLACK
6
CONTINUOUS
10
5.98312
20
-4.23591
11
5.98319
21
-4.23553
0
LINE
8
BLACK
6
CONTINUOUS
10
5.98319
20
-4.23553
11
5.98317
21
-4.2354
0
LINE
8
BLACK
6
CONTINUOUS
10
5.98317
20
-4.2354
11
5.98323
21
-4.23528
0
LINE
8
BLACK
6
CONTINUOUS
10
5.98323
20
-4.23528
11
5.9833
21
-4.2349
0
LINE
8
BLACK
6
CONTINUOUS
10
5.9833
20
-4.2349
11
5.98379
21
-4.23431
0
LINE
8
BLACK
6
CONTINUOUS
10
5.98379
20
-4.23431
11
5.98418
21
-4.23365
0
LINE
8
BLACK
6
CONTINUOUS
10
5.98418
20
-4.23365
11
5.98443
21
-4.23356
0
LINE
8
BLACK
6
CONTINUOUS
10
5.98443
20
-4.23356
11
5.9846
21
-4.23335
0
LINE
8
BLACK
6
CONTINUOUS
10
5.9846
20
-4.23335
11
5.98535
21
-4.23322
0
LINE
8
BLACK
6
CONTINUOUS
10
5.98535
20
-4.23322
11
5.98608
21
-4.23296
0
LINE
8
BLACK
6
CONTINUOUS
10
5.98608
20
-4.23296
11
6.28608
21
-4.23296
0
LINE
8
BLACK
6
CONTINUOUS
10
6.28608
20
-4.23296
11
6.28646
21
-4.23303
0
LINE
8
BLACK
6
CONTINUOUS
10
5.98903
20
-4.23886
11
5.98903
21
-4.43296
0
LINE
8
BLACK
6
CONTINUOUS
10
5.98903
20
-4.43296
11
6.28312
21
-4.43296
0
LINE
8
BLACK
6
CONTINUOUS
10
6.28312
20
-4.43296
11
6.28312
21
-4.23886
0
LINE
8
BLACK
6
CONTINUOUS
10
6.28312
20
-4.23886
11
5.98903
21
-4.23886
0
LINE
8
BLACK
6
CONTINUOUS
10
4.78016
20
-4.22057
11
4.77958
21
-4.21918
0
LINE
8
BLACK
6
CONTINUOUS
10
4.77958
20
-4.21918
11
4.77958
21
-4.17686
0
LINE
8
BLACK
6
CONTINUOUS
10
4.77958
20
-4.17686
11
4.71009
21
-4.17686
0
LINE
8
BLACK
6
CONTINUOUS
10
4.71009
20
-4.17686
11
4.70971
21
-4.17679
0
LINE
8
BLACK
6
CONTINUOUS
10
4.70971
20
-4.17679
11
4.70958
21
-4.17681
0
LINE
8
BLACK
6
CONTINUOUS
10
4.70958
20
-4.17681
11
4.70947
21
-4.17675
0
LINE
8
BLACK
6
CONTINUOUS
10
4.70947
20
-4.17675
11
4.70908
21
-4.17668
0
LINE
8
BLACK
6
CONTINUOUS
10
4.70908
20
-4.17668
11
4.70849
21
-4.17618
0
LINE
8
BLACK
6
CONTINUOUS
10
4.70849
20
-4.17618
11
4.70783
21
-4.1758
0
LINE
8
BLACK
6
CONTINUOUS
10
4.70783
20
-4.1758
11
4.70774
21
-4.17555
0
LINE
8
BLACK
6
CONTINUOUS
10
4.70774
20
-4.17555
11
4.70753
21
-4.17538
0
LINE
8
BLACK
6
CONTINUOUS
10
4.70753
20
-4.17538
11
4.7074
21
-4.17462
0
LINE
8
BLACK
6
CONTINUOUS
10
4.7074
20
-4.17462
11
4.70714
21
-4.1739
0
LINE
8
BLACK
6
CONTINUOUS
10
4.70714
20
-4.1739
11
4.70714
21
-3.11091
0
LINE
8
BLACK
6
CONTINUOUS
10
4.70714
20
-3.11091
11
4.70721
21
-3.11053
0
LINE
8
BLACK
6
CONTINUOUS
10
4.70721
20
-3.11053
11
4.70718
21
-3.1104
0
LINE
8
BLACK
6
CONTINUOUS
10
4.70718
20
-3.1104
11
4.70725
21
-3.11028
0
LINE
8
BLACK
6
CONTINUOUS
10
4.70725
20
-3.11028
11
4.70732
21
-3.1099
0
LINE
8
BLACK
6
CONTINUOUS
10
4.70732
20
-3.1099
11
4.70781
21
-3.10931
0
LINE
8
BLACK
6
CONTINUOUS
10
4.70781
20
-3.10931
11
4.70819
21
-3.10865
0
LINE
8
BLACK
6
CONTINUOUS
10
4.70819
20
-3.10865
11
4.70844
21
-3.10856
0
LINE
8
BLACK
6
CONTINUOUS
10
4.70844
20
-3.10856
11
4.70862
21
-3.10835
0
LINE
8
BLACK
6
CONTINUOUS
10
4.70862
20
-3.10835
11
4.70937
21
-3.10822
0
LINE
8
BLACK
6
CONTINUOUS
10
4.70937
20
-3.10822
11
4.71009
21
-3.10796
0
LINE
8
BLACK
6
CONTINUOUS
10
4.71009
20
-3.10796
11
5.46206
21
-3.10796
0
LINE
8
BLACK
6
CONTINUOUS
10
5.46206
20
-3.10796
11
5.46244
21
-3.10803
0
LINE
8
BLACK
6
CONTINUOUS
10
5.46244
20
-3.10803
11
5.46257
21
-3.108
0
LINE
8
BLACK
6
CONTINUOUS
10
5.46257
20
-3.108
11
5.46269
21
-3.10807
0
LINE
8
BLACK
6
CONTINUOUS
10
5.46269
20
-3.10807
11
5.46307
21
-3.10814
0
LINE
8
BLACK
6
CONTINUOUS
10
5.46307
20
-3.10814
11
5.46366
21
-3.10863
0
LINE
8
BLACK
6
CONTINUOUS
10
5.46366
20
-3.10863
11
5.46432
21
-3.10901
0
LINE
8
BLACK
6
CONTINUOUS
10
5.46432
20
-3.10901
11
5.46441
21
-3.10926
0
LINE
8
BLACK
6
CONTINUOUS
10
5.46441
20
-3.10926
11
5.46462
21
-3.10943
0
LINE
8
BLACK
6
CONTINUOUS
10
5.46462
20
-3.10943
11
5.46475
21
-3.11019
0
LINE
8
BLACK
6
CONTINUOUS
10
5.46475
20
-3.11019
11
5.46501
21
-3.11091
0
LINE
8
BLACK
6
CONTINUOUS
10
5.46501
20
-3.11091
11
5.46501
21
-4.1739
0
LINE
8
BLACK
6
CONTINUOUS
10
5.46501
20
-4.1739
11
5.46495
21
-4.17429
0
LINE
8
BLACK
6
CONTINUOUS
10
5.46495
20
-4.17429
11
5.46497
21
-4.17442
0
LINE
8
BLACK
6
CONTINUOUS
10
5.46497
20
-4.17442
11
5.4649
21
-4.17453
0
LINE
8
BLACK
6
CONTINUOUS
10
5.4649
20
-4.17453
11
5.46483
21
-4.17491
0
LINE
8
BLACK
6
CONTINUOUS
10
5.46483
20
-4.17491
11
5.46434
21
-4.1755
0
LINE
8
BLACK
6
CONTINUOUS
10
5.46434
20
-4.1755
11
5.46396
21
-4.17617
0
LINE
8
BLACK
6
CONTINUOUS
10
5.46396
20
-4.17617
11
5.46371
21
-4.17626
0
LINE
8
BLACK
6
CONTINUOUS
10
5.46371
20
-4.17626
11
5.46354
21
-4.17646
0
LINE
8
BLACK
6
CONTINUOUS
10
5.46354
20
-4.17646
11
5.46278
21
-4.17659
0
LINE
8
BLACK
6
CONTINUOUS
10
5.46278
20
-4.17659
11
5.46206
21
-4.17686
0
LINE
8
BLACK
6
CONTINUOUS
10
5.46206
20
-4.17686
11
5.34257
21
-4.17686
0
LINE
8
BLACK
6
CONTINUOUS
10
5.34257
20
-4.17686
11
5.34257
21
-4.21918
0
LINE
8
BLACK
6
CONTINUOUS
10
5.34257
20
-4.21918
11
5.342
21
-4.22057
0
LINE
8
BLACK
6
CONTINUOUS
10
5.342
20
-4.22057
11
5.3406
21
-4.22115
0
LINE
8
BLACK
6
CONTINUOUS
10
5.3406
20
-4.22115
11
4.78155
21
-4.22115
0
LINE
8
BLACK
6
CONTINUOUS
10
4.78155
20
-4.22115
11
4.78016
21
-4.22057
0
LINE
8
BLACK
6
CONTINUOUS
10
4.78352
20
-4.17686
11
4.78352
21
-4.21721
0
LINE
8
BLACK
6
CONTINUOUS
10
4.78352
20
-4.21721
11
5.33863
21
-4.21721
0
LINE
8
BLACK
6
CONTINUOUS
10
5.33863
20
-4.21721
11
5.33863
21
-4.17686
0
LINE
8
BLACK
6
CONTINUOUS
10
5.33863
20
-4.17686
11
4.78352
21
-4.17686
0
LINE
8
BLACK
6
CONTINUOUS
10
5.34257
20
-3.15619
11
5.34257
21
-4.17095
0
LINE
8
BLACK
6
CONTINUOUS
10
5.34257
20
-4.17095
11
5.45911
21
-4.17095
0
LINE
8
BLACK
6
CONTINUOUS
10
5.45911
20
-4.17095
11
5.45911
21
-3.11386
0
LINE
8
BLACK
6
CONTINUOUS
10
5.45911
20
-3.11386
11
4.71304
21
-3.11386
0
LINE
8
BLACK
6
CONTINUOUS
10
4.71304
20
-3.11386
11
4.71304
21
-4.17095
0
LINE
8
BLACK
6
CONTINUOUS
10
4.71304
20
-4.17095
11
4.77958
21
-4.17095
0
LINE
8
BLACK
6
CONTINUOUS
10
4.77958
20
-4.17095
11
4.77958
21
-3.15619
0
LINE
8
BLACK
6
CONTINUOUS
10
4.77958
20
-3.15619
11
4.78016
21
-3.15479
0
LINE
8
BLACK
6
CONTINUOUS
10
4.78016
20
-3.15479
11
4.78155
21
-3.15422
0
LINE
8
BLACK
6
CONTINUOUS
10
4.78155
20
-3.15422
11
5.3406
21
-3.15422
0
LINE
8
BLACK
6
CONTINUOUS
10
5.3406
20
-3.15422
11
5.342
21
-3.15479
0
LINE
8
BLACK
6
CONTINUOUS
10
5.342
20
-3.15479
11
5.34257
21
-3.15619
0
LINE
8
BLACK
6
CONTINUOUS
10
4.78352
20
-3.15816
11
4.78352
21
-4.17095
0
LINE
8
BLACK
6
CONTINUOUS
10
4.78352
20
-4.17095
11
5.33863
21
-4.17095
0
LINE
8
BLACK
6
CONTINUOUS
10
5.33863
20
-4.17095
11
5.33863
21
-3.15816
0
LINE
8
BLACK
6
CONTINUOUS
10
5.33863
20
-3.15816
11
4.78352
21
-3.15816
0
LINE
8
BLACK
6
CONTINUOUS
10
4.82891
20
-3.99526
11
4.83046
21
-3.99655
0
LINE
8
BLACK
6
CONTINUOUS
10
4.83046
20
-3.99655
11
4.83081
21
-3.99854
0
LINE
8
BLACK
6
CONTINUOUS
10
4.83081
20
-3.99854
11
4.8298
21
-4.00029
0
LINE
8
BLACK
6
CONTINUOUS
10
4.8298
20
-4.00029
11
4.8279
21
-4.00098
0
LINE
8
BLACK
6
CONTINUOUS
10
4.8279
20
-4.00098
11
4.80184
21
-4.00098
0
LINE
8
BLACK
6
CONTINUOUS
10
4.80184
20
-4.00098
11
4.8179
21
-4.00848
0
LINE
8
BLACK
6
CONTINUOUS
10
4.8179
20
-4.00848
11
4.81822
21
-4.0087
0
LINE
8
BLACK
6
CONTINUOUS
10
4.81822
20
-4.0087
11
4.81835
21
-4.00874
0
LINE
8
BLACK
6
CONTINUOUS
10
4.81835
20
-4.00874
11
4.81842
21
-4.00884
0
LINE
8
BLACK
6
CONTINUOUS
10
4.81842
20
-4.00884
11
4.81874
21
-4.00907
0
LINE
8
BLACK
6
CONTINUOUS
10
4.81874
20
-4.00907
11
4.81907
21
-4.00976
0
LINE
8
BLACK
6
CONTINUOUS
10
4.81907
20
-4.00976
11
4.81951
21
-4.01039
0
LINE
8
BLACK
6
CONTINUOUS
10
4.81951
20
-4.01039
11
4.81948
21
-4.01066
0
LINE
8
BLACK
6
CONTINUOUS
10
4.81948
20
-4.01066
11
4.81959
21
-4.0109
0
LINE
8
BLACK
6
CONTINUOUS
10
4.81959
20
-4.0109
11
4.8194
21
-4.01164
0
LINE
8
BLACK
6
CONTINUOUS
10
4.8194
20
-4.01164
11
4.81933
21
-4.0124
0
LINE
8
BLACK
6
CONTINUOUS
10
4.81933
20
-4.0124
11
4.81914
21
-4.01259
0
LINE
8
BLACK
6
CONTINUOUS
10
4.81914
20
-4.01259
11
4.81907
21
-4.01285
0
LINE
8
BLACK
6
CONTINUOUS
10
4.81907
20
-4.01285
11
4.81844
21
-4.01329
0
LINE
8
BLACK
6
CONTINUOUS
10
4.81844
20
-4.01329
11
4.8179
21
-4.01383
0
LINE
8
BLACK
6
CONTINUOUS
10
4.8179
20
-4.01383
11
4.80184
21
-4.02133
0
LINE
8
BLACK
6
CONTINUOUS
10
4.80184
20
-4.02133
11
4.8279
21
-4.02133
0
LINE
8
BLACK
6
CONTINUOUS
10
4.8279
20
-4.02133
11
4.82891
21
-4.0215
0
LINE
8
BLACK
6
CONTINUOUS
10
4.82891
20
-4.0215
11
4.83046
21
-4.0228
0
LINE
8
BLACK
6
CONTINUOUS
10
4.83046
20
-4.0228
11
4.83081
21
-4.02479
0
LINE
8
BLACK
6
CONTINUOUS
10
4.83081
20
-4.02479
11
4.8298
21
-4.02654
0
LINE
8
BLACK
6
CONTINUOUS
10
4.8298
20
-4.02654
11
4.8279
21
-4.02723
0
LINE
8
BLACK
6
CONTINUOUS
10
4.8279
20
-4.02723
11
4.78853
21
-4.02723
0
LINE
8
BLACK
6
CONTINUOUS
10
4.78853
20
-4.02723
11
4.78752
21
-4.02705
0
LINE
8
BLACK
6
CONTINUOUS
10
4.78752
20
-4.02705
11
4.78722
21
-4.0268
0
LINE
8
BLACK
6
CONTINUOUS
10
4.78722
20
-4.0268
11
4.78684
21
-4.0267
0
LINE
8
BLACK
6
CONTINUOUS
10
4.78684
20
-4.0267
11
4.78647
21
-4.02617
0
LINE
8
BLACK
6
CONTINUOUS
10
4.78647
20
-4.02617
11
4.78597
21
-4.02575
0
LINE
8
BLACK
6
CONTINUOUS
10
4.78597
20
-4.02575
11
4.78591
21
-4.02537
0
LINE
8
BLACK
6
CONTINUOUS
10
4.78591
20
-4.02537
11
4.78568
21
-4.02504
0
LINE
8
BLACK
6
CONTINUOUS
10
4.78568
20
-4.02504
11
4.78574
21
-4.0244
0
LINE
8
BLACK
6
CONTINUOUS
10
4.78574
20
-4.0244
11
4.78562
21
-4.02377
0
LINE
8
BLACK
6
CONTINUOUS
10
4.78562
20
-4.02377
11
4.78582
21
-4.02342
0
LINE
8
BLACK
6
CONTINUOUS
10
4.78582
20
-4.02342
11
4.78586
21
-4.02303
0
LINE
8
BLACK
6
CONTINUOUS
10
4.78586
20
-4.02303
11
4.78631
21
-4.02257
0
LINE
8
BLACK
6
CONTINUOUS
10
4.78631
20
-4.02257
11
4.78663
21
-4.02202
0
LINE
8
BLACK
6
CONTINUOUS
10
4.78663
20
-4.02202
11
4.787
21
-4.02188
0
LINE
8
BLACK
6
CONTINUOUS
10
4.787
20
-4.02188
11
4.78728
21
-4.0216
0
LINE
8
BLACK
6
CONTINUOUS
10
4.78728
20
-4.0216
11
4.80967
21
-4.01115
0
LINE
8
BLACK
6
CONTINUOUS
10
4.80967
20
-4.01115
11
4.78728
21
-4.00071
0
LINE
8
BLACK
6
CONTINUOUS
10
4.78728
20
-4.00071
11
4.78644
21
-4.00012
0
LINE
8
BLACK
6
CONTINUOUS
10
4.78644
20
-4.00012
11
4.78628
21
-3.99976
0
LINE
8
BLACK
6
CONTINUOUS
10
4.78628
20
-3.99976
11
4.78597
21
-3.99951
0
LINE
8
BLACK
6
CONTINUOUS
10
4.78597
20
-3.99951
11
4.78586
21
-3.99887
0
LINE
8
BLACK
6
CONTINUOUS
10
4.78586
20
-3.99887
11
4.78559
21
-3.99829
0
LINE
8
BLACK
6
CONTINUOUS
10
4.78559
20
-3.99829
11
4.78569
21
-3.99791
0
LINE
8
BLACK
6
CONTINUOUS
10
4.78569
20
-3.99791
11
4.78562
21
-3.99752
0
LINE
8
BLACK
6
CONTINUOUS
10
4.78562
20
-3.99752
11
4.78595
21
-3.99696
0
LINE
8
BLACK
6
CONTINUOUS
10
4.78595
20
-3.99696
11
4.78611
21
-3.99634
0
LINE
8
BLACK
6
CONTINUOUS
10
4.78611
20
-3.99634
11
4.78644
21
-3.99611
0
LINE
8
BLACK
6
CONTINUOUS
10
4.78644
20
-3.99611
11
4.78663
21
-3.99577
0
LINE
8
BLACK
6
CONTINUOUS
10
4.78663
20
-3.99577
11
4.78724
21
-3.99555
0
LINE
8
BLACK
6
CONTINUOUS
10
4.78724
20
-3.99555
11
4.78777
21
-3.99518
0
LINE
8
BLACK
6
CONTINUOUS
10
4.78777
20
-3.99518
11
4.78816
21
-3.99521
0
LINE
8
BLACK
6
CONTINUOUS
10
4.78816
20
-3.99521
11
4.78853
21
-3.99508
0
LINE
8
BLACK
6
CONTINUOUS
10
4.78853
20
-3.99508
11
4.8279
21
-3.99508
0
LINE
8
BLACK
6
CONTINUOUS
10
4.8279
20
-3.99508
11
4.82891
21
-3.99526
0
LINE
8
BLACK
6
CONTINUOUS
10
4.82141
20
-3.95589
11
4.82155
21
-3.956
0
LINE
8
BLACK
6
CONTINUOUS
10
4.82155
20
-3.956
11
4.82172
21
-3.95602
0
LINE
8
BLACK
6
CONTINUOUS
10
4.82172
20
-3.95602
11
4.82547
21
-3.95789
0
LINE
8
BLACK
6
CONTINUOUS
10
4.82547
20
-3.95789
11
4.82618
21
-3.95842
0
LINE
8
BLACK
6
CONTINUOUS
10
4.82618
20
-3.95842
11
4.82624
21
-3.95845
0
LINE
8
BLACK
6
CONTINUOUS
10
4.82624
20
-3.95845
11
4.82811
21
-3.96032
0
LINE
8
BLACK
6
CONTINUOUS
10
4.82811
20
-3.96032
11
4.82862
21
-3.96105
0
LINE
8
BLACK
6
CONTINUOUS
10
4.82862
20
-3.96105
11
4.82867
21
-3.96109
0
LINE
8
BLACK
6
CONTINUOUS
10
4.82867
20
-3.96109
11
4.83054
21
-3.96484
0
LINE
8
BLACK
6
CONTINUOUS
10
4.83054
20
-3.96484
11
4.83084
21
-3.96582
0
LINE
8
BLACK
6
CONTINUOUS
10
4.83084
20
-3.96582
11
4.83079
21
-3.96599
0
LINE
8
BLACK
6
CONTINUOUS
10
4.83079
20
-3.96599
11
4.83085
21
-3.96616
0
LINE
8
BLACK
6
CONTINUOUS
10
4.83085
20
-3.96616
11
4.83085
21
-3.97553
0
LINE
8
BLACK
6
CONTINUOUS
10
4.83085
20
-3.97553
11
4.83068
21
-3.97654
0
LINE
8
BLACK
6
CONTINUOUS
10
4.83068
20
-3.97654
11
4.83056
21
-3.97668
0
LINE
8
BLACK
6
CONTINUOUS
10
4.83056
20
-3.97668
11
4.83054
21
-3.97685
0
LINE
8
BLACK
6
CONTINUOUS
10
4.83054
20
-3.97685
11
4.82867
21
-3.9806
0
LINE
8
BLACK
6
CONTINUOUS
10
4.82867
20
-3.9806
11
4.82814
21
-3.98131
0
LINE
8
BLACK
6
CONTINUOUS
10
4.82814
20
-3.98131
11
4.82811
21
-3.98137
0
LINE
8
BLACK
6
CONTINUOUS
10
4.82811
20
-3.98137
11
4.82624
21
-3.98325
0
LINE
8
BLACK
6
CONTINUOUS
10
4.82624
20
-3.98325
11
4.8254
21
-3.98383
0
LINE
8
BLACK
6
CONTINUOUS
10
4.8254
20
-3.98383
11
4.82339
21
-3.98401
0
LINE
8
BLACK
6
CONTINUOUS
10
4.82339
20
-3.98401
11
4.82173
21
-3.98285
0
LINE
8
BLACK
6
CONTINUOUS
10
4.82173
20
-3.98285
11
4.82121
21
-3.9809
0
LINE
8
BLACK
6
CONTINUOUS
10
4.82121
20
-3.9809
11
4.82206
21
-3.97907
0
LINE
8
BLACK
6
CONTINUOUS
10
4.82206
20
-3.97907
11
4.8236
21
-3.97753
0
LINE
8
BLACK
6
CONTINUOUS
10
4.8236
20
-3.97753
11
4.82495
21
-3.97484
0
LINE
8
BLACK
6
CONTINUOUS
10
4.82495
20
-3.97484
11
4.82495
21
-3.96686
0
LINE
8
BLACK
6
CONTINUOUS
10
4.82495
20
-3.96686
11
4.8236
21
-3.96416
0
LINE
8
BLACK
6
CONTINUOUS
10
4.8236
20
-3.96416
11
4.8224
21
-3.96296
0
LINE
8
BLACK
6
CONTINUOUS
10
4.8224
20
-3.96296
11
4.81971
21
-3.96161
0
LINE
8
BLACK
6
CONTINUOUS
10
4.81971
20
-3.96161
11
4.81173
21
-3.96161
0
LINE
8
BLACK
6
CONTINUOUS
10
4.81173
20
-3.96161
11
4.80903
21
-3.96296
0
LINE
8
BLACK
6
CONTINUOUS
10
4.80903
20
-3.96296
11
4.80783
21
-3.96416
0
LINE
8
BLACK
6
CONTINUOUS
10
4.80783
20
-3.96416
11
4.80648
21
-3.96686
0
LINE
8
BLACK
6
CONTINUOUS
10
4.80648
20
-3.96686
11
4.80648
21
-3.97484
0
LINE
8
BLACK
6
CONTINUOUS
10
4.80648
20
-3.97484
11
4.80783
21
-3.97753
0
LINE
8
BLACK
6
CONTINUOUS
10
4.80783
20
-3.97753
11
4.80937
21
-3.97907
0
LINE
8
BLACK
6
CONTINUOUS
10
4.80937
20
-3.97907
11
4.80996
21
-3.97991
0
LINE
8
BLACK
6
CONTINUOUS
10
4.80996
20
-3.97991
11
4.80996
21
-3.97993
0
LINE
8
BLACK
6
CONTINUOUS
10
4.80996
20
-3.97993
11
4.80997
21
-3.97994
0
LINE
8
BLACK
6
CONTINUOUS
10
4.80997
20
-3.97994
11
4.81004
21
-3.98093
0
LINE
8
BLACK
6
CONTINUOUS
10
4.81004
20
-3.98093
11
4.81013
21
-3.98192
0
LINE
8
BLACK
6
CONTINUOUS
10
4.81013
20
-3.98192
11
4.81012
21
-3.98194
0
LINE
8
BLACK
6
CONTINUOUS
10
4.81012
20
-3.98194
11
4.81012
21
-3.98196
0
LINE
8
BLACK
6
CONTINUOUS
10
4.81012
20
-3.98196
11
4.80954
21
-3.98276
0
LINE
8
BLACK
6
CONTINUOUS
10
4.80954
20
-3.98276
11
4.80897
21
-3.98358
0
LINE
8
BLACK
6
CONTINUOUS
10
4.80897
20
-3.98358
11
4.80895
21
-3.98358
0
LINE
8
BLACK
6
CONTINUOUS
10
4.80895
20
-3.98358
11
4.80894
21
-3.9836
0
LINE
8
BLACK
6
CONTINUOUS
10
4.80894
20
-3.9836
11
4.80798
21
-3.98384
0
LINE
8
BLACK
6
CONTINUOUS
10
4.80798
20
-3.98384
11
4.80702
21
-3.9841
0
LINE
8
BLACK
6
CONTINUOUS
10
4.80702
20
-3.9841
11
4.807
21
-3.98409
0
LINE
8
BLACK
6
CONTINUOUS
10
4.807
20
-3.98409
11
4.80699
21
-3.9841
0
LINE
8
BLACK
6
CONTINUOUS
10
4.80699
20
-3.9841
11
4.78824
21
-3.98222
0
LINE
8
BLACK
6
CONTINUOUS
10
4.78824
20
-3.98222
11
4.78809
21
-3.98218
0
LINE
8
BLACK
6
CONTINUOUS
10
4.78809
20
-3.98218
11
4.78802
21
-3.98219
0
LINE
8
BLACK
6
CONTINUOUS
10
4.78802
20
-3.98219
11
4.78791
21
-3.98213
0
LINE
8
BLACK
6
CONTINUOUS
10
4.78791
20
-3.98213
11
4.78725
21
-3.98194
0
LINE
8
BLACK
6
CONTINUOUS
10
4.78725
20
-3.98194
11
4.78681
21
-3.9815
0
LINE
8
BLACK
6
CONTINUOUS
10
4.78681
20
-3.9815
11
4.78627
21
-3.98118
0
LINE
8
BLACK
6
CONTINUOUS
10
4.78627
20
-3.98118
11
4.78613
21
-3.98079
0
LINE
8
BLACK
6
CONTINUOUS
10
4.78613
20
-3.98079
11
4.78584
21
-3.9805
0
LINE
8
BLACK
6
CONTINUOUS
10
4.78584
20
-3.9805
11
4.78579
21
-3.97987
0
LINE
8
BLACK
6
CONTINUOUS
10
4.78579
20
-3.97987
11
4.78558
21
-3.97928
0
LINE
8
BLACK
6
CONTINUOUS
10
4.78558
20
-3.97928
11
4.78558
21
-3.96054
0
LINE
8
BLACK
6
CONTINUOUS
10
4.78558
20
-3.96054
11
4.78576
21
-3.95953
0
LINE
8
BLACK
6
CONTINUOUS
10
4.78576
20
-3.95953
11
4.78706
21
-3.95798
0
LINE
8
BLACK
6
CONTINUOUS
10
4.78706
20
-3.95798
11
4.78904
21
-3.95763
0
LINE
8
BLACK
6
CONTINUOUS
10
4.78904
20
-3.95763
11
4.79079
21
-3.95864
0
LINE
8
BLACK
6
CONTINUOUS
10
4.79079
20
-3.95864
11
4.79148
21
-3.96054
0
LINE
8
BLACK
6
CONTINUOUS
10
4.79148
20
-3.96054
11
4.79148
21
-3.97661
0
LINE
8
BLACK
6
CONTINUOUS
10
4.79148
20
-3.97661
11
4.80126
21
-3.97759
0
LINE
8
BLACK
6
CONTINUOUS
10
4.80126
20
-3.97759
11
4.80089
21
-3.97685
0
LINE
8
BLACK
6
CONTINUOUS
10
4.80089
20
-3.97685
11
4.8006
21
-3.97587
0
LINE
8
BLACK
6
CONTINUOUS
10
4.8006
20
-3.97587
11
4.80064
21
-3.9757
0
LINE
8
BLACK
6
CONTINUOUS
10
4.80064
20
-3.9757
11
4.80058
21
-3.97553
0
LINE
8
BLACK
6
CONTINUOUS
10
4.80058
20
-3.97553
11
4.80058
21
-3.96616
0
LINE
8
BLACK
6
CONTINUOUS
10
4.80058
20
-3.96616
11
4.80076
21
-3.96515
0
LINE
8
BLACK
6
CONTINUOUS
10
4.80076
20
-3.96515
11
4.80087
21
-3.96502
0
LINE
8
BLACK
6
CONTINUOUS
10
4.80087
20
-3.96502
11
4.80089
21
-3.96484
0
LINE
8
BLACK
6
CONTINUOUS
10
4.80089
20
-3.96484
11
4.80276
21
-3.96109
0
LINE
8
BLACK
6
CONTINUOUS
10
4.80276
20
-3.96109
11
4.80329
21
-3.96038
0
LINE
8
BLACK
6
CONTINUOUS
10
4.80329
20
-3.96038
11
4.80332
21
-3.96032
0
LINE
8
BLACK
6
CONTINUOUS
10
4.80332
20
-3.96032
11
4.80519
21
-3.95845
0
LINE
8
BLACK
6
CONTINUOUS
10
4.80519
20
-3.95845
11
4.80591
21
-3.95794
0
LINE
8
BLACK
6
CONTINUOUS
10
4.80591
20
-3.95794
11
4.80596
21
-3.95789
0
LINE
8
BLACK
6
CONTINUOUS
10
4.80596
20
-3.95789
11
4.80971
21
-3.95602
0
LINE
8
BLACK
6
CONTINUOUS
10
4.80971
20
-3.95602
11
4.81069
21
-3.95573
0
LINE
8
BLACK
6
CONTINUOUS
10
4.81069
20
-3.95573
11
4.81086
21
-3.95577
0
LINE
8
BLACK
6
CONTINUOUS
10
4.81086
20
-3.95577
11
4.81103
21
-3.95571
0
LINE
8
BLACK
6
CONTINUOUS
10
4.81103
20
-3.95571
11
4.8204
21
-3.95571
0
LINE
8
BLACK
6
CONTINUOUS
10
4.8204
20
-3.95571
11
4.82141
21
-3.95589
0
LINE
8
BLACK
6
CONTINUOUS
10
4.96647
20
-3.53421
11
4.96661
21
-3.53433
0
LINE
8
BLACK
6
CONTINUOUS
10
4.96661
20
-3.53433
11
4.96678
21
-3.53435
0
LINE
8
BLACK
6
CONTINUOUS
10
4.96678
20
-3.53435
11
4.97053
21
-3.53622
0
LINE
8
BLACK
6
CONTINUOUS
10
4.97053
20
-3.53622
11
4.97124
21
-3.53675
0
LINE
8
BLACK
6
CONTINUOUS
10
4.97124
20
-3.53675
11
4.9713
21
-3.53678
0
LINE
8
BLACK
6
CONTINUOUS
10
4.9713
20
-3.53678
11
4.97317
21
-3.53865
0
LINE
8
BLACK
6
CONTINUOUS
10
4.97317
20
-3.53865
11
4.97368
21
-3.53937
0
LINE
8
BLACK
6
CONTINUOUS
10
4.97368
20
-3.53937
11
4.97373
21
-3.53942
0
LINE
8
BLACK
6
CONTINUOUS
10
4.97373
20
-3.53942
11
4.9756
21
-3.54317
0
LINE
8
BLACK
6
CONTINUOUS
10
4.9756
20
-3.54317
11
4.9759
21
-3.54415
0
LINE
8
BLACK
6
CONTINUOUS
10
4.9759
20
-3.54415
11
4.97585
21
-3.54432
0
LINE
8
BLACK
6
CONTINUOUS
10
4.97585
20
-3.54432
11
4.97591
21
-3.54449
0
LINE
8
BLACK
6
CONTINUOUS
10
4.97591
20
-3.54449
11
4.97591
21
-3.54824
0
LINE
8
BLACK
6
CONTINUOUS
10
4.97591
20
-3.54824
11
4.97576
21
-3.54911
0
LINE
8
BLACK
6
CONTINUOUS
10
4.97576
20
-3.54911
11
4.97576
21
-3.54917
0
LINE
8
BLACK
6
CONTINUOUS
10
4.97576
20
-3.54917
11
4.97389
21
-3.5548
0
LINE
8
BLACK
6
CONTINUOUS
10
4.97389
20
-3.5548
11
4.9734
21
-3.5557
0
LINE
8
BLACK
6
CONTINUOUS
10
4.9734
20
-3.5557
11
4.97325
21
-3.55579
0
LINE
8
BLACK
6
CONTINUOUS
10
4.97325
20
-3.55579
11
4.97317
21
-3.55595
0
LINE
8
BLACK
6
CONTINUOUS
10
4.97317
20
-3.55595
11
4.95572
21
-3.57341
0
LINE
8
BLACK
6
CONTINUOUS
10
4.95572
20
-3.57341
11
4.97296
21
-3.57341
0
LINE
8
BLACK
6
CONTINUOUS
10
4.97296
20
-3.57341
11
4.97397
21
-3.57358
0
LINE
8
BLACK
6
CONTINUOUS
10
4.97397
20
-3.57358
11
4.97552
21
-3.57488
0
LINE
8
BLACK
6
CONTINUOUS
10
4.97552
20
-3.57488
11
4.97587
21
-3.57687
0
LINE
8
BLACK
6
CONTINUOUS
10
4.97587
20
-3.57687
11
4.97486
21
-3.57862
0
LINE
8
BLACK
6
CONTINUOUS
10
4.97486
20
-3.57862
11
4.97296
21
-3.57931
0
LINE
8
BLACK
6
CONTINUOUS
10
4.97296
20
-3.57931
11
4.94859
21
-3.57931
0
LINE
8
BLACK
6
CONTINUOUS
10
4.94859
20
-3.57931
11
4.94795
21
-3.5792
0
LINE
8
BLACK
6
CONTINUOUS
10
4.94795
20
-3.5792
11
4.94783
21
-3.57921
0
LINE
8
BLACK
6
CONTINUOUS
10
4.94783
20
-3.57921
11
4.94776
21
-3.57917
0
LINE
8
BLACK
6
CONTINUOUS
10
4.94776
20
-3.57917
11
4.94758
21
-3.57913
0
LINE
8
BLACK
6
CONTINUOUS
10
4.94758
20
-3.57913
11
4.9469
21
-3.57856
0
LINE
8
BLACK
6
CONTINUOUS
10
4.9469
20
-3.57856
11
4.94617
21
-3.57805
0
LINE
8
BLACK
6
CONTINUOUS
10
4.94617
20
-3.57805
11
4.94614
21
-3.57792
0
LINE
8
BLACK
6
CONTINUOUS
10
4.94614
20
-3.57792
11
4.94603
21
-3.57784
0
LINE
8
BLACK
6
CONTINUOUS
10
4.94603
20
-3.57784
11
4.94588
21
-3.57696
0
LINE
8
BLACK
6
CONTINUOUS
10
4.94588
20
-3.57696
11
4.94565
21
-3.5761
0
LINE
8
BLACK
6
CONTINUOUS
10
4.94565
20
-3.5761
11
4.94571
21
-3.57598
0
LINE
8
BLACK
6
CONTINUOUS
10
4.94571
20
-3.57598
11
4.94568
21
-3.57585
0
LINE
8
BLACK
6
CONTINUOUS
10
4.94568
20
-3.57585
11
4.94613
21
-3.57508
0
LINE
8
BLACK
6
CONTINUOUS
10
4.94613
20
-3.57508
11
4.9465
21
-3.57427
0
LINE
8
BLACK
6
CONTINUOUS
10
4.9465
20
-3.57427
11
4.96851
21
-3.55227
0
LINE
8
BLACK
6
CONTINUOUS
10
4.96851
20
-3.55227
11
4.97001
21
-3.54776
0
LINE
8
BLACK
6
CONTINUOUS
10
4.97001
20
-3.54776
11
4.97001
21
-3.54519
0
LINE
8
BLACK
6
CONTINUOUS
10
4.97001
20
-3.54519
11
4.96866
21
-3.54249
0
LINE
8
BLACK
6
CONTINUOUS
10
4.96866
20
-3.54249
11
4.96746
21
-3.54129
0
LINE
8
BLACK
6
CONTINUOUS
10
4.96746
20
-3.54129
11
4.96477
21
-3.53994
0
LINE
8
BLACK
6
CONTINUOUS
10
4.96477
20
-3.53994
11
4.95679
21
-3.53994
0
LINE
8
BLACK
6
CONTINUOUS
10
4.95679
20
-3.53994
11
4.95409
21
-3.54129
0
LINE
8
BLACK
6
CONTINUOUS
10
4.95409
20
-3.54129
11
4.95255
21
-3.54283
0
LINE
8
BLACK
6
CONTINUOUS
10
4.95255
20
-3.54283
11
4.95171
21
-3.54341
0
LINE
8
BLACK
6
CONTINUOUS
10
4.95171
20
-3.54341
11
4.9497
21
-3.54359
0
LINE
8
BLACK
6
CONTINUOUS
10
4.9497
20
-3.54359
11
4.94805
21
-3.54243
0
LINE
8
BLACK
6
CONTINUOUS
10
4.94805
20
-3.54243
11
4.94752
21
-3.54048
0
LINE
8
BLACK
6
CONTINUOUS
10
4.94752
20
-3.54048
11
4.94838
21
-3.53865
0
LINE
8
BLACK
6
CONTINUOUS
10
4.94838
20
-3.53865
11
4.95025
21
-3.53678
0
LINE
8
BLACK
6
CONTINUOUS
10
4.95025
20
-3.53678
11
4.95097
21
-3.53627
0
LINE
8
BLACK
6
CONTINUOUS
10
4.95097
20
-3.53627
11
4.95102
21
-3.53622
0
LINE
8
BLACK
6
CONTINUOUS
10
4.95102
20
-3.53622
11
4.95477
21
-3.53435
0
LINE
8
BLACK
6
CONTINUOUS
10
4.95477
20
-3.53435
11
4.95575
21
-3.53406
0
LINE
8
BLACK
6
CONTINUOUS
10
4.95575
20
-3.53406
11
4.95592
21
-3.5341
0
LINE
8
BLACK
6
CONTINUOUS
10
4.95592
20
-3.5341
11
4.95609
21
-3.53404
0
LINE
8
BLACK
6
CONTINUOUS
10
4.95609
20
-3.53404
11
4.96546
21
-3.53404
0
LINE
8
BLACK
6
CONTINUOUS
10
4.96546
20
-3.53404
11
4.96647
21
-3.53421
0
LINE
8
BLACK
6
CONTINUOUS
10
5.16332
20
-3.53421
11
5.16346
21
-3.53433
0
LINE
8
BLACK
6
CONTINUOUS
10
5.16346
20
-3.53433
11
5.16363
21
-3.53435
0
LINE
8
BLACK
6
CONTINUOUS
10
5.16363
20
-3.53435
11
5.16738
21
-3.53622
0
LINE
8
BLACK
6
CONTINUOUS
10
5.16738
20
-3.53622
11
5.16809
21
-3.53675
0
LINE
8
BLACK
6
CONTINUOUS
10
5.16809
20
-3.53675
11
5.16815
21
-3.53678
0
LINE
8
BLACK
6
CONTINUOUS
10
5.16815
20
-3.53678
11
5.17003
21
-3.53865
0
LINE
8
BLACK
6
CONTINUOUS
10
5.17003
20
-3.53865
11
5.17053
21
-3.53937
0
LINE
8
BLACK
6
CONTINUOUS
10
5.17053
20
-3.53937
11
5.17058
21
-3.53942
0
LINE
8
BLACK
6
CONTINUOUS
10
5.17058
20
-3.53942
11
5.17245
21
-3.54317
0
LINE
8
BLACK
6
CONTINUOUS
10
5.17245
20
-3.54317
11
5.1726
21
-3.54366
0
LINE
8
BLACK
6
CONTINUOUS
10
5.1726
20
-3.54366
11
5.17268
21
-3.54377
0
LINE
8
BLACK
6
CONTINUOUS
10
5.17268
20
-3.54377
11
5.17455
21
-3.55127
0
LINE
8
BLACK
6
CONTINUOUS
10
5.17455
20
-3.55127
11
5.17459
21
-3.55186
0
LINE
8
BLACK
6
CONTINUOUS
10
5.17459
20
-3.55186
11
5.17464
21
-3.55199
0
LINE
8
BLACK
6
CONTINUOUS
10
5.17464
20
-3.55199
11
5.17464
21
-3.56136
0
LINE
8
BLACK
6
CONTINUOUS
10
5.17464
20
-3.56136
11
5.17454
21
-3.56194
0
LINE
8
BLACK
6
CONTINUOUS
10
5.17454
20
-3.56194
11
5.17455
21
-3.56208
0
LINE
8
BLACK
6
CONTINUOUS
10
5.17455
20
-3.56208
11
5.17268
21
-3.56958
0
LINE
8
BLACK
6
CONTINUOUS
10
5.17268
20
-3.56958
11
5.17247
21
-3.57004
0
LINE
8
BLACK
6
CONTINUOUS
10
5.17247
20
-3.57004
11
5.17245
21
-3.57018
0
LINE
8
BLACK
6
CONTINUOUS
10
5.17245
20
-3.57018
11
5.17058
21
-3.57393
0
LINE
8
BLACK
6
CONTINUOUS
10
5.17058
20
-3.57393
11
5.17005
21
-3.57464
0
LINE
8
BLACK
6
CONTINUOUS
10
5.17005
20
-3.57464
11
5.17003
21
-3.5747
0
LINE
8
BLACK
6
CONTINUOUS
10
5.17003
20
-3.5747
11
5.16815
21
-3.57657
0
LINE
8
BLACK
6
CONTINUOUS
10
5.16815
20
-3.57657
11
5.16743
21
-3.57708
0
LINE
8
BLACK
6
CONTINUOUS
10
5.16743
20
-3.57708
11
5.16738
21
-3.57713
0
LINE
8
BLACK
6
CONTINUOUS
10
5.16738
20
-3.57713
11
5.16363
21
-3.579
0
LINE
8
BLACK
6
CONTINUOUS
10
5.16363
20
-3.579
11
5.16265
21
-3.57929
0
LINE
8
BLACK
6
CONTINUOUS
10
5.16265
20
-3.57929
11
5.16248
21
-3.57925
0
LINE
8
BLACK
6
CONTINUOUS
10
5.16248
20
-3.57925
11
5.16231
21
-3.57931
0
LINE
8
BLACK
6
CONTINUOUS
10
5.16231
20
-3.57931
11
5.15856
21
-3.57931
0
LINE
8
BLACK
6
CONTINUOUS
10
5.15856
20
-3.57931
11
5.15755
21
-3.57913
0
LINE
8
BLACK
6
CONTINUOUS
10
5.15755
20
-3.57913
11
5.15742
21
-3.57902
0
LINE
8
BLACK
6
CONTINUOUS
10
5.15742
20
-3.57902
11
5.15724
21
-3.579
0
LINE
8
BLACK
6
CONTINUOUS
10
5.15724
20
-3.579
11
5.15349
21
-3.57713
0
LINE
8
BLACK
6
CONTINUOUS
10
5.15349
20
-3.57713
11
5.15278
21
-3.5766
0
LINE
8
BLACK
6
CONTINUOUS
10
5.15278
20
-3.5766
11
5.15273
21
-3.57657
0
LINE
8
BLACK
6
CONTINUOUS
10
5.15273
20
-3.57657
11
5.15085
21
-3.5747
0
LINE
8
BLACK
6
CONTINUOUS
10
5.15085
20
-3.5747
11
5.15034
21
-3.57397
0
LINE
8
BLACK
6
CONTINUOUS
10
5.15034
20
-3.57397
11
5.1503
21
-3.57393
0
LINE
8
BLACK
6
CONTINUOUS
10
5.1503
20
-3.57393
11
5.14842
21
-3.57018
0
LINE
8
BLACK
6
CONTINUOUS
10
5.14842
20
-3.57018
11
5.14828
21
-3.56969
0
LINE
8
BLACK
6
CONTINUOUS
10
5.14828
20
-3.56969
11
5.1482
21
-3.56958
0
LINE
8
BLACK
6
CONTINUOUS
10
5.1482
20
-3.56958
11
5.14633
21
-3.56208
0
LINE
8
BLACK
6
CONTINUOUS
10
5.14633
20
-3.56208
11
5.14628
21
-3.56149
0
LINE
8
BLACK
6
CONTINUOUS
10
5.14628
20
-3.56149
11
5.14624
21
-3.56136
0
LINE
8
BLACK
6
CONTINUOUS
10
5.14624
20
-3.56136
11
5.14624
21
-3.55199
0
LINE
8
BLACK
6
CONTINUOUS
10
5.14624
20
-3.55199
11
5.14634
21
-3.55141
0
LINE
8
BLACK
6
CONTINUOUS
10
5.14634
20
-3.55141
11
5.14633
21
-3.55127
0
LINE
8
BLACK
6
CONTINUOUS
10
5.14633
20
-3.55127
11
5.1482
21
-3.54377
0
LINE
8
BLACK
6
CONTINUOUS
10
5.1482
20
-3.54377
11
5.14841
21
-3.54331
0
LINE
8
BLACK
6
CONTINUOUS
10
5.14841
20
-3.54331
11
5.14842
21
-3.54317
0
LINE
8
BLACK
6
CONTINUOUS
10
5.14842
20
-3.54317
11
5.1503
21
-3.53942
0
LINE
8
BLACK
6
CONTINUOUS
10
5.1503
20
-3.53942
11
5.15082
21
-3.53871
0
LINE
8
BLACK
6
CONTINUOUS
10
5.15082
20
-3.53871
11
5.15085
21
-3.53865
0
LINE
8
BLACK
6
CONTINUOUS
10
5.15085
20
-3.53865
11
5.15273
21
-3.53678
0
LINE
8
BLACK
6
CONTINUOUS
10
5.15273
20
-3.53678
11
5.15345
21
-3.53627
0
LINE
8
BLACK
6
CONTINUOUS
10
5.15345
20
-3.53627
11
5.15349
21
-3.53622
0
LINE
8
BLACK
6
CONTINUOUS
10
5.15349
20
-3.53622
11
5.15724
21
-3.53435
0
LINE
8
BLACK
6
CONTINUOUS
10
5.15724
20
-3.53435
11
5.15823
21
-3.53406
0
LINE
8
BLACK
6
CONTINUOUS
10
5.15823
20
-3.53406
11
5.1584
21
-3.5341
0
LINE
8
BLACK
6
CONTINUOUS
10
5.1584
20
-3.5341
11
5.15856
21
-3.53404
0
LINE
8
BLACK
6
CONTINUOUS
10
5.15856
20
-3.53404
11
5.16231
21
-3.53404
0
LINE
8
BLACK
6
CONTINUOUS
10
5.16231
20
-3.53404
11
5.16332
21
-3.53421
0
LINE
8
BLACK
6
CONTINUOUS
10
5.15926
20
-3.53994
11
5.15656
21
-3.54129
0
LINE
8
BLACK
6
CONTINUOUS
10
5.15656
20
-3.54129
11
5.15537
21
-3.54249
0
LINE
8
BLACK
6
CONTINUOUS
10
5.15537
20
-3.54249
11
5.15385
21
-3.54552
0
LINE
8
BLACK
6
CONTINUOUS
10
5.15385
20
-3.54552
11
5.15214
21
-3.55235
0
LINE
8
BLACK
6
CONTINUOUS
10
5.15214
20
-3.55235
11
5.15214
21
-3.561
0
LINE
8
BLACK
6
CONTINUOUS
10
5.15214
20
-3.561
11
5.15385
21
-3.56783
0
LINE
8
BLACK
6
CONTINUOUS
10
5.15385
20
-3.56783
11
5.15537
21
-3.57086
0
LINE
8
BLACK
6
CONTINUOUS
10
5.15537
20
-3.57086
11
5.15656
21
-3.57206
0
LINE
8
BLACK
6
CONTINUOUS
10
5.15656
20
-3.57206
11
5.15926
21
-3.57341
0
LINE
8
BLACK
6
CONTINUOUS
10
5.15926
20
-3.57341
11
5.16162
21
-3.57341
0
LINE
8
BLACK
6
CONTINUOUS
10
5.16162
20
-3.57341
11
5.16431
21
-3.57206
0
LINE
8
BLACK
6
CONTINUOUS
10
5.16431
20
-3.57206
11
5.16551
21
-3.57086
0
LINE
8
BLACK
6
CONTINUOUS
10
5.16551
20
-3.57086
11
5.16703
21
-3.56783
0
LINE
8
BLACK
6
CONTINUOUS
10
5.16703
20
-3.56783
11
5.16873
21
-3.561
0
LINE
8
BLACK
6
CONTINUOUS
10
5.16873
20
-3.561
11
5.16873
21
-3.55235
0
LINE
8
BLACK
6
CONTINUOUS
10
5.16873
20
-3.55235
11
5.16703
21
-3.54552
0
LINE
8
BLACK
6
CONTINUOUS
10
5.16703
20
-3.54552
11
5.16551
21
-3.54249
0
LINE
8
BLACK
6
CONTINUOUS
10
5.16551
20
-3.54249
11
5.16431
21
-3.54129
0
LINE
8
BLACK
6
CONTINUOUS
10
5.16431
20
-3.54129
11
5.16162
21
-3.53994
0
LINE
8
BLACK
6
CONTINUOUS
10
5.16162
20
-3.53994
11
5.15926
21
-3.53994
0
LINE
8
BLACK
6
CONTINUOUS
10
4.93071
20
-3.53419
11
4.93078
21
-3.53419
0
LINE
8
BLACK
6
CONTINUOUS
10
4.93078
20
-3.53419
11
4.9364
21
-3.53606
0
LINE
8
BLACK
6
CONTINUOUS
10
4.9364
20
-3.53606
11
4.9373
21
-3.53655
0
LINE
8
BLACK
6
CONTINUOUS
10
4.9373
20
-3.53655
11
4.93836
21
-3.53827
0
LINE
8
BLACK
6
CONTINUOUS
10
4.93836
20
-3.53827
11
4.93806
21
-3.54027
0
LINE
8
BLACK
6
CONTINUOUS
10
4.93806
20
-3.54027
11
4.93655
21
-3.54161
0
LINE
8
BLACK
6
CONTINUOUS
10
4.93655
20
-3.54161
11
4.93453
21
-3.54166
0
LINE
8
BLACK
6
CONTINUOUS
10
4.93453
20
-3.54166
11
4.92936
21
-3.53994
0
LINE
8
BLACK
6
CONTINUOUS
10
4.92936
20
-3.53994
11
4.92117
21
-3.53994
0
LINE
8
BLACK
6
CONTINUOUS
10
4.92117
20
-3.53994
11
4.91847
21
-3.54129
0
LINE
8
BLACK
6
CONTINUOUS
10
4.91847
20
-3.54129
11
4.91727
21
-3.54249
0
LINE
8
BLACK
6
CONTINUOUS
10
4.91727
20
-3.54249
11
4.91592
21
-3.54519
0
LINE
8
BLACK
6
CONTINUOUS
10
4.91592
20
-3.54519
11
4.91592
21
-3.54754
0
LINE
8
BLACK
6
CONTINUOUS
10
4.91592
20
-3.54754
11
4.91727
21
-3.55024
0
LINE
8
BLACK
6
CONTINUOUS
10
4.91727
20
-3.55024
11
4.91847
21
-3.55144
0
LINE
8
BLACK
6
CONTINUOUS
10
4.91847
20
-3.55144
11
4.9215
21
-3.55295
0
LINE
8
BLACK
6
CONTINUOUS
10
4.9215
20
-3.55295
11
4.92868
21
-3.55475
0
LINE
8
BLACK
6
CONTINUOUS
10
4.92868
20
-3.55475
11
4.92915
21
-3.55495
0
LINE
8
BLACK
6
CONTINUOUS
10
4.92915
20
-3.55495
11
4.92929
21
-3.55497
0
LINE
8
BLACK
6
CONTINUOUS
10
4.92929
20
-3.55497
11
4.93304
21
-3.55685
0
LINE
8
BLACK
6
CONTINUOUS
10
4.93304
20
-3.55685
11
4.93375
21
-3.55737
0
LINE
8
BLACK
6
CONTINUOUS
10
4.93375
20
-3.55737
11
4.9338
21
-3.5574
0
LINE
8
BLACK
6
CONTINUOUS
10
4.9338
20
-3.5574
11
4.93568
21
-3.55927
0
LINE
8
BLACK
6
CONTINUOUS
10
4.93568
20
-3.55927
11
4.93619
21
-3.56
0
LINE
8
BLACK
6
CONTINUOUS
10
4.93619
20
-3.56
11
4.93623
21
-3.56004
0
LINE
8
BLACK
6
CONTINUOUS
10
4.93623
20
-3.56004
11
4.93811
21
-3.56379
0
LINE
8
BLACK
6
CONTINUOUS
10
4.93811
20
-3.56379
11
4.9384
21
-3.56477
0
LINE
8
BLACK
6
CONTINUOUS
10
4.9384
20
-3.56477
11
4.93836
21
-3.56494
0
LINE
8
BLACK
6
CONTINUOUS
10
4.93836
20
-3.56494
11
4.93842
21
-3.56511
0
LINE
8
BLACK
6
CONTINUOUS
10
4.93842
20
-3.56511
11
4.93842
21
-3.56886
0
LINE
8
BLACK
6
CONTINUOUS
10
4.93842
20
-3.56886
11
4.93824
21
-3.56987
0
LINE
8
BLACK
6
CONTINUOUS
10
4.93824
20
-3.56987
11
4.93813
21
-3.57001
0
LINE
8
BLACK
6
CONTINUOUS
10
4.93813
20
-3.57001
11
4.93811
21
-3.57018
0
LINE
8
BLACK
6
CONTINUOUS
10
4.93811
20
-3.57018
11
4.93623
21
-3.57393
0
LINE
8
BLACK
6
CONTINUOUS
10
4.93623
20
-3.57393
11
4.93571
21
-3.57464
0
LINE
8
BLACK
6
CONTINUOUS
10
4.93571
20
-3.57464
11
4.93568
21
-3.5747
0
LINE
8
BLACK
6
CONTINUOUS
10
4.93568
20
-3.5747
11
4.9338
21
-3.57657
0
LINE
8
BLACK
6
CONTINUOUS
10
4.9338
20
-3.57657
11
4.93308
21
-3.57708
0
LINE
8
BLACK
6
CONTINUOUS
10
4.93308
20
-3.57708
11
4.93304
21
-3.57713
0
LINE
8
BLACK
6
CONTINUOUS
10
4.93304
20
-3.57713
11
4.92929
21
-3.579
0
LINE
8
BLACK
6
CONTINUOUS
10
4.92929
20
-3.579
11
4.9283
21
-3.57929
0
LINE
8
BLACK
6
CONTINUOUS
10
4.9283
20
-3.57929
11
4.92813
21
-3.57925
0
LINE
8
BLACK
6
CONTINUOUS
10
4.92813
20
-3.57925
11
4.92797
21
-3.57931
0
LINE
8
BLACK
6
CONTINUOUS
10
4.92797
20
-3.57931
11
4.91859
21
-3.57931
0
LINE
8
BLACK
6
CONTINUOUS
10
4.91859
20
-3.57931
11
4.91772
21
-3.57916
0
LINE
8
BLACK
6
CONTINUOUS
10
4.91772
20
-3.57916
11
4.91766
21
-3.57916
0
LINE
8
BLACK
6
CONTINUOUS
10
4.91766
20
-3.57916
11
4.91204
21
-3.57729
0
LINE
8
BLACK
6
CONTINUOUS
10
4.91204
20
-3.57729
11
4.91113
21
-3.5768
0
LINE
8
BLACK
6
CONTINUOUS
10
4.91113
20
-3.5768
11
4.91008
21
-3.57508
0
LINE
8
BLACK
6
CONTINUOUS
10
4.91008
20
-3.57508
11
4.91037
21
-3.57308
0
LINE
8
BLACK
6
CONTINUOUS
10
4.91037
20
-3.57308
11
4.91188
21
-3.57174
0
LINE
8
BLACK
6
CONTINUOUS
10
4.91188
20
-3.57174
11
4.9139
21
-3.57168
0
LINE
8
BLACK
6
CONTINUOUS
10
4.9139
20
-3.57168
11
4.91907
21
-3.57341
0
LINE
8
BLACK
6
CONTINUOUS
10
4.91907
20
-3.57341
11
4.92727
21
-3.57341
0
LINE
8
BLACK
6
CONTINUOUS
10
4.92727
20
-3.57341
11
4.92997
21
-3.57206
0
LINE
8
BLACK
6
CONTINUOUS
10
4.92997
20
-3.57206
11
4.93116
21
-3.57086
0
LINE
8
BLACK
6
CONTINUOUS
10
4.93116
20
-3.57086
11
4.93251
21
-3.56816
0
LINE
8
BLACK
6
CONTINUOUS
10
4.93251
20
-3.56816
11
4.93251
21
-3.56581
0
LINE
8
BLACK
6
CONTINUOUS
10
4.93251
20
-3.56581
11
4.93116
21
-3.56311
0
LINE
8
BLACK
6
CONTINUOUS
10
4.93116
20
-3.56311
11
4.92997
21
-3.56191
0
LINE
8
BLACK
6
CONTINUOUS
10
4.92997
20
-3.56191
11
4.92694
21
-3.5604
0
LINE
8
BLACK
6
CONTINUOUS
10
4.92694
20
-3.5604
11
4.91975
21
-3.5586
0
LINE
8
BLACK
6
CONTINUOUS
10
4.91975
20
-3.5586
11
4.91929
21
-3.55839
0
LINE
8
BLACK
6
CONTINUOUS
10
4.91929
20
-3.55839
11
4.91915
21
-3.55838
0
LINE
8
BLACK
6
CONTINUOUS
10
4.91915
20
-3.55838
11
4.9154
21
-3.5565
0
LINE
8
BLACK
6
CONTINUOUS
10
4.9154
20
-3.5565
11
4.91469
21
-3.55598
0
LINE
8
BLACK
6
CONTINUOUS
10
4.91469
20
-3.55598
11
4.91463
21
-3.55595
0
LINE
8
BLACK
6
CONTINUOUS
10
4.91463
20
-3.55595
11
4.91276
21
-3.55408
0
LINE
8
BLACK
6
CONTINUOUS
10
4.91276
20
-3.55408
11
4.91225
21
-3.55335
0
LINE
8
BLACK
6
CONTINUOUS
10
4.91225
20
-3.55335
11
4.9122
21
-3.55331
0
LINE
8
BLACK
6
CONTINUOUS
10
4.9122
20
-3.55331
11
4.91033
21
-3.54956
0
LINE
8
BLACK
6
CONTINUOUS
10
4.91033
20
-3.54956
11
4.91004
21
-3.54858
0
LINE
8
BLACK
6
CONTINUOUS
10
4.91004
20
-3.54858
11
4.91008
21
-3.5484
0
LINE
8
BLACK
6
CONTINUOUS
10
4.91008
20
-3.5484
11
4.91002
21
-3.54824
0
LINE
8
BLACK
6
CONTINUOUS
10
4.91002
20
-3.54824
11
4.91002
21
-3.54449
0
LINE
8
BLACK
6
CONTINUOUS
10
4.91002
20
-3.54449
11
4.91019
21
-3.54348
0
LINE
8
BLACK
6
CONTINUOUS
10
4.91019
20
-3.54348
11
4.91031
21
-3.54334
0
LINE
8
BLACK
6
CONTINUOUS
10
4.91031
20
-3.54334
11
4.91033
21
-3.54317
0
LINE
8
BLACK
6
CONTINUOUS
10
4.91033
20
-3.54317
11
4.9122
21
-3.53942
0
LINE
8
BLACK
6
CONTINUOUS
10
4.9122
20
-3.53942
11
4.91273
21
-3.53871
0
LINE
8
BLACK
6
CONTINUOUS
10
4.91273
20
-3.53871
11
4.91276
21
-3.53865
0
LINE
8
BLACK
6
CONTINUOUS
10
4.91276
20
-3.53865
11
4.91463
21
-3.53678
0
LINE
8
BLACK
6
CONTINUOUS
10
4.91463
20
-3.53678
11
4.91535
21
-3.53627
0
LINE
8
BLACK
6
CONTINUOUS
10
4.91535
20
-3.53627
11
4.9154
21
-3.53622
0
LINE
8
BLACK
6
CONTINUOUS
10
4.9154
20
-3.53622
11
4.91915
21
-3.53435
0
LINE
8
BLACK
6
CONTINUOUS
10
4.91915
20
-3.53435
11
4.92013
21
-3.53406
0
LINE
8
BLACK
6
CONTINUOUS
10
4.92013
20
-3.53406
11
4.9203
21
-3.5341
0
LINE
8
BLACK
6
CONTINUOUS
10
4.9203
20
-3.5341
11
4.92047
21
-3.53404
0
LINE
8
BLACK
6
CONTINUOUS
10
4.92047
20
-3.53404
11
4.92984
21
-3.53404
0
LINE
8
BLACK
6
CONTINUOUS
10
4.92984
20
-3.53404
11
4.93071
21
-3.53419
0
LINE
8
BLACK
6
CONTINUOUS
10
5.20269
20
-3.53421
11
5.20283
21
-3.53433
0
LINE
8
BLACK
6
CONTINUOUS
10
5.20283
20
-3.53433
11
5.203
21
-3.53435
0
LINE
8
BLACK
6
CONTINUOUS
10
5.203
20
-3.53435
11
5.20675
21
-3.53622
0
LINE
8
BLACK
6
CONTINUOUS
10
5.20675
20
-3.53622
11
5.20746
21
-3.53675
0
LINE
8
BLACK
6
CONTINUOUS
10
5.20746
20
-3.53675
11
5.20752
21
-3.53678
0
LINE
8
BLACK
6
CONTINUOUS
10
5.20752
20
-3.53678
11
5.2094
21
-3.53865
0
LINE
8
BLACK
6
CONTINUOUS
10
5.2094
20
-3.53865
11
5.2099
21
-3.53937
0
LINE
8
BLACK
6
CONTINUOUS
10
5.2099
20
-3.53937
11
5.20995
21
-3.53942
0
LINE
8
BLACK
6
CONTINUOUS
10
5.20995
20
-3.53942
11
5.21182
21
-3.54317
0
LINE
8
BLACK
6
CONTINUOUS
10
5.21182
20
-3.54317
11
5.21212
21
-3.54415
0
LINE
8
BLACK
6
CONTINUOUS
10
5.21212
20
-3.54415
11
5.21207
21
-3.54432
0
LINE
8
BLACK
6
CONTINUOUS
10
5.21207
20
-3.54432
11
5.21213
21
-3.54449
0
LINE
8
BLACK
6
CONTINUOUS
10
5.21213
20
-3.54449
11
5.21213
21
-3.55949
0
LINE
8
BLACK
6
CONTINUOUS
10
5.21213
20
-3.55949
11
5.21203
21
-3.56007
0
LINE
8
BLACK
6
CONTINUOUS
10
5.21203
20
-3.56007
11
5.21205
21
-3.5602
0
LINE
8
BLACK
6
CONTINUOUS
10
5.21205
20
-3.5602
11
5.21017
21
-3.5677
0
LINE
8
BLACK
6
CONTINUOUS
10
5.21017
20
-3.5677
11
5.20977
21
-3.56861
0
LINE
8
BLACK
6
CONTINUOUS
10
5.20977
20
-3.56861
11
5.20976
21
-3.56862
0
LINE
8
BLACK
6
CONTINUOUS
10
5.20976
20
-3.56862
11
5.20601
21
-3.57425
0
LINE
8
BLACK
6
CONTINUOUS
10
5.20601
20
-3.57425
11
5.2057
21
-3.57457
0
LINE
8
BLACK
6
CONTINUOUS
10
5.2057
20
-3.57457
11
5.20565
21
-3.5747
0
LINE
8
BLACK
6
CONTINUOUS
10
5.20565
20
-3.5747
11
5.20377
21
-3.57657
0
LINE
8
BLACK
6
CONTINUOUS
10
5.20377
20
-3.57657
11
5.20305
21
-3.57708
0
LINE
8
BLACK
6
CONTINUOUS
10
5.20305
20
-3.57708
11
5.203
21
-3.57713
0
LINE
8
BLACK
6
CONTINUOUS
10
5.203
20
-3.57713
11
5.19925
21
-3.579
0
LINE
8
BLACK
6
CONTINUOUS
10
5.19925
20
-3.579
11
5.19827
21
-3.57929
0
LINE
8
BLACK
6
CONTINUOUS
10
5.19827
20
-3.57929
11
5.1981
21
-3.57925
0
LINE
8
BLACK
6
CONTINUOUS
10
5.1981
20
-3.57925
11
5.19793
21
-3.57931
0
LINE
8
BLACK
6
CONTINUOUS
10
5.19793
20
-3.57931
11
5.19043
21
-3.57931
0
LINE
8
BLACK
6
CONTINUOUS
10
5.19043
20
-3.57931
11
5.18942
21
-3.57913
0
LINE
8
BLACK
6
CONTINUOUS
10
5.18942
20
-3.57913
11
5.18788
21
-3.57784
0
LINE
8
BLACK
6
CONTINUOUS
10
5.18788
20
-3.57784
11
5.18753
21
-3.57585
0
LINE
8
BLACK
6
CONTINUOUS
10
5.18753
20
-3.57585
11
5.18854
21
-3.5741
0
LINE
8
BLACK
6
CONTINUOUS
10
5.18854
20
-3.5741
11
5.19043
21
-3.57341
0
LINE
8
BLACK
6
CONTINUOUS
10
5.19043
20
-3.57341
11
5.19724
21
-3.57341
0
LINE
8
BLACK
6
CONTINUOUS
10
5.19724
20
-3.57341
11
5.19993
21
-3.57206
0
LINE
8
BLACK
6
CONTINUOUS
10
5.19993
20
-3.57206
11
5.20126
21
-3.57073
0
LINE
8
BLACK
6
CONTINUOUS
10
5.20126
20
-3.57073
11
5.20457
21
-3.56577
0
LINE
8
BLACK
6
CONTINUOUS
10
5.20457
20
-3.56577
11
5.2053
21
-3.56286
0
LINE
8
BLACK
6
CONTINUOUS
10
5.2053
20
-3.56286
11
5.203
21
-3.564
0
LINE
8
BLACK
6
CONTINUOUS
10
5.203
20
-3.564
11
5.20202
21
-3.56429
0
LINE
8
BLACK
6
CONTINUOUS
10
5.20202
20
-3.56429
11
5.20185
21
-3.56425
0
LINE
8
BLACK
6
CONTINUOUS
10
5.20185
20
-3.56425
11
5.20168
21
-3.56431
0
LINE
8
BLACK
6
CONTINUOUS
10
5.20168
20
-3.56431
11
5.19418
21
-3.56431
0
LINE
8
BLACK
6
CONTINUOUS
10
5.19418
20
-3.56431
11
5.19317
21
-3.56414
0
LINE
8
BLACK
6
CONTINUOUS
10
5.19317
20
-3.56414
11
5.19304
21
-3.56402
0
LINE
8
BLACK
6
CONTINUOUS
10
5.19304
20
-3.56402
11
5.19286
21
-3.564
0
LINE
8
BLACK
6
CONTINUOUS
10
5.19286
20
-3.564
11
5.18911
21
-3.56213
0
LINE
8
BLACK
6
CONTINUOUS
10
5.18911
20
-3.56213
11
5.1884
21
-3.5616
0
LINE
8
BLACK
6
CONTINUOUS
10
5.1884
20
-3.5616
11
5.18835
21
-3.56157
0
LINE
8
BLACK
6
CONTINUOUS
10
5.18835
20
-3.56157
11
5.18647
21
-3.5597
0
LINE
8
BLACK
6
CONTINUOUS
10
5.18647
20
-3.5597
11
5.18597
21
-3.55898
0
LINE
8
BLACK
6
CONTINUOUS
10
5.18597
20
-3.55898
11
5.18592
21
-3.55893
0
LINE
8
BLACK
6
CONTINUOUS
10
5.18592
20
-3.55893
11
5.18404
21
-3.55518
0
LINE
8
BLACK
6
CONTINUOUS
10
5.18404
20
-3.55518
11
5.18375
21
-3.5542
0
LINE
8
BLACK
6
CONTINUOUS
10
5.18375
20
-3.5542
11
5.18379
21
-3.55403
0
LINE
8
BLACK
6
CONTINUOUS
10
5.18379
20
-3.55403
11
5.18373
21
-3.55386
0
LINE
8
BLACK
6
CONTINUOUS
10
5.18373
20
-3.55386
11
5.18373
21
-3.54449
0
LINE
8
BLACK
6
CONTINUOUS
10
5.18373
20
-3.54449
11
5.18391
21
-3.54348
0
LINE
8
BLACK
6
CONTINUOUS
10
5.18391
20
-3.54348
11
5.18402
21
-3.54334
0
LINE
8
BLACK
6
CONTINUOUS
10
5.18402
20
-3.54334
11
5.18404
21
-3.54317
0
LINE
8
BLACK
6
CONTINUOUS
10
5.18404
20
-3.54317
11
5.18592
21
-3.53942
0
LINE
8
BLACK
6
CONTINUOUS
10
5.18592
20
-3.53942
11
5.18644
21
-3.53871
0
LINE
8
BLACK
6
CONTINUOUS
10
5.18644
20
-3.53871
11
5.18647
21
-3.53865
0
LINE
8
BLACK
6
CONTINUOUS
10
5.18647
20
-3.53865
11
5.18835
21
-3.53678
0
LINE
8
BLACK
6
CONTINUOUS
10
5.18835
20
-3.53678
11
5.18907
21
-3.53627
0
LINE
8
BLACK
6
CONTINUOUS
10
5.18907
20
-3.53627
11
5.18911
21
-3.53622
0
LINE
8
BLACK
6
CONTINUOUS
10
5.18911
20
-3.53622
11
5.19286
21
-3.53435
0
LINE
8
BLACK
6
CONTINUOUS
10
5.19286
20
-3.53435
11
5.19385
21
-3.53406
0
LINE
8
BLACK
6
CONTINUOUS
10
5.19385
20
-3.53406
11
5.19402
21
-3.5341
0
LINE
8
BLACK
6
CONTINUOUS
10
5.19402
20
-3.5341
11
5.19418
21
-3.53404
0
LINE
8
BLACK
6
CONTINUOUS
10
5.19418
20
-3.53404
11
5.20168
21
-3.53404
0
LINE
8
BLACK
6
CONTINUOUS
10
5.20168
20
-3.53404
11
5.20269
21
-3.53421
0
LINE
8
BLACK
6
CONTINUOUS
10
5.19488
20
-3.53994
11
5.19218
21
-3.54129
0
LINE
8
BLACK
6
CONTINUOUS
10
5.19218
20
-3.54129
11
5.19099
21
-3.54249
0
LINE
8
BLACK
6
CONTINUOUS
10
5.19099
20
-3.54249
11
5.18964
21
-3.54519
0
LINE
8
BLACK
6
CONTINUOUS
10
5.18964
20
-3.54519
11
5.18964
21
-3.55316
0
LINE
8
BLACK
6
CONTINUOUS
10
5.18964
20
-3.55316
11
5.19099
21
-3.55586
0
LINE
8
BLACK
6
CONTINUOUS
10
5.19099
20
-3.55586
11
5.19218
21
-3.55706
0
LINE
8
BLACK
6
CONTINUOUS
10
5.19218
20
-3.55706
11
5.19488
21
-3.55841
0
LINE
8
BLACK
6
CONTINUOUS
10
5.19488
20
-3.55841
11
5.20099
21
-3.55841
0
LINE
8
BLACK
6
CONTINUOUS
10
5.20099
20
-3.55841
11
5.20368
21
-3.55706
0
LINE
8
BLACK
6
CONTINUOUS
10
5.20368
20
-3.55706
11
5.20488
21
-3.55586
0
LINE
8
BLACK
6
CONTINUOUS
10
5.20488
20
-3.55586
11
5.20623
21
-3.55316
0
LINE
8
BLACK
6
CONTINUOUS
10
5.20623
20
-3.55316
11
5.20623
21
-3.54519
0
LINE
8
BLACK
6
CONTINUOUS
10
5.20623
20
-3.54519
11
5.20488
21
-3.54249
0
LINE
8
BLACK
6
CONTINUOUS
10
5.20488
20
-3.54249
11
5.20368
21
-3.54129
0
LINE
8
BLACK
6
CONTINUOUS
10
5.20368
20
-3.54129
11
5.20099
21
-3.53994
0
LINE
8
BLACK
6
CONTINUOUS
10
5.20099
20
-3.53994
11
5.19488
21
-3.53994
0
LINE
8
BLACK
6
CONTINUOUS
10
5.01334
20
-3.53421
11
5.01361
21
-3.53444
0
LINE
8
BLACK
6
CONTINUOUS
10
5.01361
20
-3.53444
11
5.01395
21
-3.53452
0
LINE
8
BLACK
6
CONTINUOUS
10
5.01395
20
-3.53452
11
5.01436
21
-3.53507
0
LINE
8
BLACK
6
CONTINUOUS
10
5.01436
20
-3.53507
11
5.01489
21
-3.53551
0
LINE
8
BLACK
6
CONTINUOUS
10
5.01489
20
-3.53551
11
5.01495
21
-3.53586
0
LINE
8
BLACK
6
CONTINUOUS
10
5.01495
20
-3.53586
11
5.01516
21
-3.53614
0
LINE
8
BLACK
6
CONTINUOUS
10
5.01516
20
-3.53614
11
5.01512
21
-3.53682
0
LINE
8
BLACK
6
CONTINUOUS
10
5.01512
20
-3.53682
11
5.01524
21
-3.5375
0
LINE
8
BLACK
6
CONTINUOUS
10
5.01524
20
-3.5375
11
5.01507
21
-3.5378
0
LINE
8
BLACK
6
CONTINUOUS
10
5.01507
20
-3.5378
11
5.01505
21
-3.53815
0
LINE
8
BLACK
6
CONTINUOUS
10
5.01505
20
-3.53815
11
4.99817
21
-3.57752
0
LINE
8
BLACK
6
CONTINUOUS
10
4.99817
20
-3.57752
11
4.99761
21
-3.57838
0
LINE
8
BLACK
6
CONTINUOUS
10
4.99761
20
-3.57838
11
4.99581
21
-3.57929
0
LINE
8
BLACK
6
CONTINUOUS
10
4.99581
20
-3.57929
11
4.99384
21
-3.57883
0
LINE
8
BLACK
6
CONTINUOUS
10
4.99384
20
-3.57883
11
4.99263
21
-3.57721
0
LINE
8
BLACK
6
CONTINUOUS
10
4.99263
20
-3.57721
11
4.99274
21
-3.5752
0
LINE
8
BLACK
6
CONTINUOUS
10
4.99274
20
-3.5752
11
5.00785
21
-3.53994
0
LINE
8
BLACK
6
CONTINUOUS
10
5.00785
20
-3.53994
11
4.98609
21
-3.53994
0
LINE
8
BLACK
6
CONTINUOUS
10
4.98609
20
-3.53994
11
4.98508
21
-3.53976
0
LINE
8
BLACK
6
CONTINUOUS
10
4.98508
20
-3.53976
11
4.98353
21
-3.53847
0
LINE
8
BLACK
6
CONTINUOUS
10
4.98353
20
-3.53847
11
4.98318
21
-3.53648
0
LINE
8
BLACK
6
CONTINUOUS
10
4.98318
20
-3.53648
11
4.98419
21
-3.53473
0
LINE
8
BLACK
6
CONTINUOUS
10
4.98419
20
-3.53473
11
4.98609
21
-3.53404
0
LINE
8
BLACK
6
CONTINUOUS
10
4.98609
20
-3.53404
11
5.01233
21
-3.53404
0
LINE
8
BLACK
6
CONTINUOUS
10
5.01233
20
-3.53404
11
5.01334
21
-3.53421
0
LINE
8
BLACK
6
CONTINUOUS
10
5.03623
20
-3.53252
11
5.03757
21
-3.53403
0
LINE
8
BLACK
6
CONTINUOUS
10
5.03757
20
-3.53403
11
5.03763
21
-3.53605
0
LINE
8
BLACK
6
CONTINUOUS
10
5.03763
20
-3.53605
11
5.02955
21
-3.56028
0
LINE
8
BLACK
6
CONTINUOUS
10
5.02955
20
-3.56028
11
5.04125
21
-3.56028
0
LINE
8
BLACK
6
CONTINUOUS
10
5.04125
20
-3.56028
11
5.04125
21
-3.55011
0
LINE
8
BLACK
6
CONTINUOUS
10
5.04125
20
-3.55011
11
5.04143
21
-3.5491
0
LINE
8
BLACK
6
CONTINUOUS
10
5.04143
20
-3.5491
11
5.04273
21
-3.54756
0
LINE
8
BLACK
6
CONTINUOUS
10
5.04273
20
-3.54756
11
5.04472
21
-3.5472
0
LINE
8
BLACK
6
CONTINUOUS
10
5.04472
20
-3.5472
11
5.04646
21
-3.54821
0
LINE
8
BLACK
6
CONTINUOUS
10
5.04646
20
-3.54821
11
5.04716
21
-3.55011
0
LINE
8
BLACK
6
CONTINUOUS
10
5.04716
20
-3.55011
11
5.04716
21
-3.56028
0
LINE
8
BLACK
6
CONTINUOUS
10
5.04716
20
-3.56028
11
5.04983
21
-3.56028
0
LINE
8
BLACK
6
CONTINUOUS
10
5.04983
20
-3.56028
11
5.05084
21
-3.56046
0
LINE
8
BLACK
6
CONTINUOUS
10
5.05084
20
-3.56046
11
5.05238
21
-3.56176
0
LINE
8
BLACK
6
CONTINUOUS
10
5.05238
20
-3.56176
11
5.05273
21
-3.56375
0
LINE
8
BLACK
6
CONTINUOUS
10
5.05273
20
-3.56375
11
5.05173
21
-3.5655
0
LINE
8
BLACK
6
CONTINUOUS
10
5.05173
20
-3.5655
11
5.04983
21
-3.56619
0
LINE
8
BLACK
6
CONTINUOUS
10
5.04983
20
-3.56619
11
5.04716
21
-3.56619
0
LINE
8
BLACK
6
CONTINUOUS
10
5.04716
20
-3.56619
11
5.04716
21
-3.57636
0
LINE
8
BLACK
6
CONTINUOUS
10
5.04716
20
-3.57636
11
5.04698
21
-3.57737
0
LINE
8
BLACK
6
CONTINUOUS
10
5.04698
20
-3.57737
11
5.04568
21
-3.57892
0
LINE
8
BLACK
6
CONTINUOUS
10
5.04568
20
-3.57892
11
5.04369
21
-3.57927
0
LINE
8
BLACK
6
CONTINUOUS
10
5.04369
20
-3.57927
11
5.04194
21
-3.57826
0
LINE
8
BLACK
6
CONTINUOUS
10
5.04194
20
-3.57826
11
5.04125
21
-3.57636
0
LINE
8
BLACK
6
CONTINUOUS
10
5.04125
20
-3.57636
11
5.04125
21
-3.56619
0
LINE
8
BLACK
6
CONTINUOUS
10
5.04125
20
-3.56619
11
5.02546
21
-3.56619
0
LINE
8
BLACK
6
CONTINUOUS
10
5.02546
20
-3.56619
11
5.02445
21
-3.56601
0
LINE
8
BLACK
6
CONTINUOUS
10
5.02445
20
-3.56601
11
5.02427
21
-3.56587
0
LINE
8
BLACK
6
CONTINUOUS
10
5.02427
20
-3.56587
11
5.02405
21
-3.56583
0
LINE
8
BLACK
6
CONTINUOUS
10
5.02405
20
-3.56583
11
5.02351
21
-3.56523
0
LINE
8
BLACK
6
CONTINUOUS
10
5.02351
20
-3.56523
11
5.0229
21
-3.56471
0
LINE
8
BLACK
6
CONTINUOUS
10
5.0229
20
-3.56471
11
5.02286
21
-3.56449
0
LINE
8
BLACK
6
CONTINUOUS
10
5.02286
20
-3.56449
11
5.02271
21
-3.56432
0
LINE
8
BLACK
6
CONTINUOUS
10
5.02271
20
-3.56432
11
5.02269
21
-3.56352
0
LINE
8
BLACK
6
CONTINUOUS
10
5.02269
20
-3.56352
11
5.02255
21
-3.56272
0
LINE
8
BLACK
6
CONTINUOUS
10
5.02255
20
-3.56272
11
5.02266
21
-3.56253
0
LINE
8
BLACK
6
CONTINUOUS
10
5.02266
20
-3.56253
11
5.02265
21
-3.5623
0
LINE
8
BLACK
6
CONTINUOUS
10
5.02265
20
-3.5623
11
5.03203
21
-3.53418
0
LINE
8
BLACK
6
CONTINUOUS
10
5.03203
20
-3.53418
11
5.03252
21
-3.53328
0
LINE
8
BLACK
6
CONTINUOUS
10
5.03252
20
-3.53328
11
5.03424
21
-3.53222
0
LINE
8
BLACK
6
CONTINUOUS
10
5.03424
20
-3.53222
11
5.03623
21
-3.53252
0
LINE
8
BLACK
6
CONTINUOUS
10
5.07373
20
-3.53252
11
5.07507
21
-3.53403
0
LINE
8
BLACK
6
CONTINUOUS
10
5.07507
20
-3.53403
11
5.07513
21
-3.53605
0
LINE
8
BLACK
6
CONTINUOUS
10
5.07513
20
-3.53605
11
5.06705
21
-3.56028
0
LINE
8
BLACK
6
CONTINUOUS
10
5.06705
20
-3.56028
11
5.07875
21
-3.56028
0
LINE
8
BLACK
6
CONTINUOUS
10
5.07875
20
-3.56028
11
5.07875
21
-3.55011
0
LINE
8
BLACK
6
CONTINUOUS
10
5.07875
20
-3.55011
11
5.07892
21
-3.5491
0
LINE
8
BLACK
6
CONTINUOUS
10
5.07892
20
-3.5491
11
5.08022
21
-3.54756
0
LINE
8
BLACK
6
CONTINUOUS
10
5.08022
20
-3.54756
11
5.08221
21
-3.5472
0
LINE
8
BLACK
6
CONTINUOUS
10
5.08221
20
-3.5472
11
5.08396
21
-3.54821
0
LINE
8
BLACK
6
CONTINUOUS
10
5.08396
20
-3.54821
11
5.08465
21
-3.55011
0
LINE
8
BLACK
6
CONTINUOUS
10
5.08465
20
-3.55011
11
5.08465
21
-3.56028
0
LINE
8
BLACK
6
CONTINUOUS
10
5.08465
20
-3.56028
11
5.08732
21
-3.56028
0
LINE
8
BLACK
6
CONTINUOUS
10
5.08732
20
-3.56028
11
5.08833
21
-3.56046
0
LINE
8
BLACK
6
CONTINUOUS
10
5.08833
20
-3.56046
11
5.08988
21
-3.56176
0
LINE
8
BLACK
6
CONTINUOUS
10
5.08988
20
-3.56176
11
5.09023
21
-3.56375
0
LINE
8
BLACK
6
CONTINUOUS
10
5.09023
20
-3.56375
11
5.08922
21
-3.5655
0
LINE
8
BLACK
6
CONTINUOUS
10
5.08922
20
-3.5655
11
5.08732
21
-3.56619
0
LINE
8
BLACK
6
CONTINUOUS
10
5.08732
20
-3.56619
11
5.08465
21
-3.56619
0
LINE
8
BLACK
6
CONTINUOUS
10
5.08465
20
-3.56619
11
5.08465
21
-3.57636
0
LINE
8
BLACK
6
CONTINUOUS
10
5.08465
20
-3.57636
11
5.08447
21
-3.57737
0
LINE
8
BLACK
6
CONTINUOUS
10
5.08447
20
-3.57737
11
5.08317
21
-3.57892
0
LINE
8
BLACK
6
CONTINUOUS
10
5.08317
20
-3.57892
11
5.08119
21
-3.57927
0
LINE
8
BLACK
6
CONTINUOUS
10
5.08119
20
-3.57927
11
5.07944
21
-3.57826
0
LINE
8
BLACK
6
CONTINUOUS
10
5.07944
20
-3.57826
11
5.07875
21
-3.57636
0
LINE
8
BLACK
6
CONTINUOUS
10
5.07875
20
-3.57636
11
5.07875
21
-3.56619
0
LINE
8
BLACK
6
CONTINUOUS
10
5.07875
20
-3.56619
11
5.06295
21
-3.56619
0
LINE
8
BLACK
6
CONTINUOUS
10
5.06295
20
-3.56619
11
5.06194
21
-3.56601
0
LINE
8
BLACK
6
CONTINUOUS
10
5.06194
20
-3.56601
11
5.06177
21
-3.56587
0
LINE
8
BLACK
6
CONTINUOUS
10
5.06177
20
-3.56587
11
5.06154
21
-3.56583
0
LINE
8
BLACK
6
CONTINUOUS
10
5.06154
20
-3.56583
11
5.06101
21
-3.56523
0
LINE
8
BLACK
6
CONTINUOUS
10
5.06101
20
-3.56523
11
5.06039
21
-3.56471
0
LINE
8
BLACK
6
CONTINUOUS
10
5.06039
20
-3.56471
11
5.06035
21
-3.56449
0
LINE
8
BLACK
6
CONTINUOUS
10
5.06035
20
-3.56449
11
5.0602
21
-3.56432
0
LINE
8
BLACK
6
CONTINUOUS
10
5.0602
20
-3.56432
11
5.06018
21
-3.56352
0
LINE
8
BLACK
6
CONTINUOUS
10
5.06018
20
-3.56352
11
5.06004
21
-3.56272
0
LINE
8
BLACK
6
CONTINUOUS
10
5.06004
20
-3.56272
11
5.06016
21
-3.56253
0
LINE
8
BLACK
6
CONTINUOUS
10
5.06016
20
-3.56253
11
5.06015
21
-3.5623
0
LINE
8
BLACK
6
CONTINUOUS
10
5.06015
20
-3.5623
11
5.06952
21
-3.53418
0
LINE
8
BLACK
6
CONTINUOUS
10
5.06952
20
-3.53418
11
5.07001
21
-3.53328
0
LINE
8
BLACK
6
CONTINUOUS
10
5.07001
20
-3.53328
11
5.07173
21
-3.53222
0
LINE
8
BLACK
6
CONTINUOUS
10
5.07173
20
-3.53222
11
5.07373
21
-3.53252
0
LINE
8
BLACK
6
CONTINUOUS
10
5.13333
20
-3.55859
11
5.13487
21
-3.55988
0
LINE
8
BLACK
6
CONTINUOUS
10
5.13487
20
-3.55988
11
5.13522
21
-3.56187
0
LINE
8
BLACK
6
CONTINUOUS
10
5.13522
20
-3.56187
11
5.13421
21
-3.56362
0
LINE
8
BLACK
6
CONTINUOUS
10
5.13421
20
-3.56362
11
5.13232
21
-3.56431
0
LINE
8
BLACK
6
CONTINUOUS
10
5.13232
20
-3.56431
11
5.10232
21
-3.56431
0
LINE
8
BLACK
6
CONTINUOUS
10
5.10232
20
-3.56431
11
5.10131
21
-3.56414
0
LINE
8
BLACK
6
CONTINUOUS
10
5.10131
20
-3.56414
11
5.09976
21
-3.56284
0
LINE
8
BLACK
6
CONTINUOUS
10
5.09976
20
-3.56284
11
5.09941
21
-3.56085
0
LINE
8
BLACK
6
CONTINUOUS
10
5.09941
20
-3.56085
11
5.10042
21
-3.5591
0
LINE
8
BLACK
6
CONTINUOUS
10
5.10042
20
-3.5591
11
5.10232
21
-3.55841
0
LINE
8
BLACK
6
CONTINUOUS
10
5.10232
20
-3.55841
11
5.13232
21
-3.55841
0
LINE
8
BLACK
6
CONTINUOUS
10
5.13232
20
-3.55841
11
5.13333
21
-3.55859
0
LINE
8
BLACK
6
CONTINUOUS
10
5.04226
20
-3.43183
11
5.04232
21
-3.43183
0
LINE
8
BLACK
6
CONTINUOUS
10
5.04232
20
-3.43183
11
5.04795
21
-3.4337
0
LINE
8
BLACK
6
CONTINUOUS
10
5.04795
20
-3.4337
11
5.04885
21
-3.43419
0
LINE
8
BLACK
6
CONTINUOUS
10
5.04885
20
-3.43419
11
5.04894
21
-3.43434
0
LINE
8
BLACK
6
CONTINUOUS
10
5.04894
20
-3.43434
11
5.0491
21
-3.43441
0
LINE
8
BLACK
6
CONTINUOUS
10
5.0491
20
-3.43441
11
5.05285
21
-3.43816
0
LINE
8
BLACK
6
CONTINUOUS
10
5.05285
20
-3.43816
11
5.05336
21
-3.43889
0
LINE
8
BLACK
6
CONTINUOUS
10
5.05336
20
-3.43889
11
5.05341
21
-3.43893
0
LINE
8
BLACK
6
CONTINUOUS
10
5.05341
20
-3.43893
11
5.05528
21
-3.44268
0
LINE
8
BLACK
6
CONTINUOUS
10
5.05528
20
-3.44268
11
5.05543
21
-3.44317
0
LINE
8
BLACK
6
CONTINUOUS
10
5.05543
20
-3.44317
11
5.0555
21
-3.44328
0
LINE
8
BLACK
6
CONTINUOUS
10
5.0555
20
-3.44328
11
5.05738
21
-3.45078
0
LINE
8
BLACK
6
CONTINUOUS
10
5.05738
20
-3.45078
11
5.05742
21
-3.45137
0
LINE
8
BLACK
6
CONTINUOUS
10
5.05742
20
-3.45137
11
5.05747
21
-3.4515
0
LINE
8
BLACK
6
CONTINUOUS
10
5.05747
20
-3.4515
11
5.05747
21
-3.45712
0
LINE
8
BLACK
6
CONTINUOUS
10
5.05747
20
-3.45712
11
5.05736
21
-3.4577
0
LINE
8
BLACK
6
CONTINUOUS
10
5.05736
20
-3.4577
11
5.05738
21
-3.45784
0
LINE
8
BLACK
6
CONTINUOUS
10
5.05738
20
-3.45784
11
5.0555
21
-3.46534
0
LINE
8
BLACK
6
CONTINUOUS
10
5.0555
20
-3.46534
11
5.0553
21
-3.4658
0
LINE
8
BLACK
6
CONTINUOUS
10
5.0553
20
-3.4658
11
5.05528
21
-3.46594
0
LINE
8
BLACK
6
CONTINUOUS
10
5.05528
20
-3.46594
11
5.05341
21
-3.46969
0
LINE
8
BLACK
6
CONTINUOUS
10
5.05341
20
-3.46969
11
5.05288
21
-3.4704
0
LINE
8
BLACK
6
CONTINUOUS
10
5.05288
20
-3.4704
11
5.05285
21
-3.47046
0
LINE
8
BLACK
6
CONTINUOUS
10
5.05285
20
-3.47046
11
5.0491
21
-3.47421
0
LINE
8
BLACK
6
CONTINUOUS
10
5.0491
20
-3.47421
11
5.04826
21
-3.4748
0
LINE
8
BLACK
6
CONTINUOUS
10
5.04826
20
-3.4748
11
5.04809
21
-3.47481
0
LINE
8
BLACK
6
CONTINUOUS
10
5.04809
20
-3.47481
11
5.04795
21
-3.47492
0
LINE
8
BLACK
6
CONTINUOUS
10
5.04795
20
-3.47492
11
5.04232
21
-3.4768
0
LINE
8
BLACK
6
CONTINUOUS
10
5.04232
20
-3.4768
11
5.04145
21
-3.47693
0
LINE
8
BLACK
6
CONTINUOUS
10
5.04145
20
-3.47693
11
5.04139
21
-3.47695
0
LINE
8
BLACK
6
CONTINUOUS
10
5.04139
20
-3.47695
11
5.03202
21
-3.47695
0
LINE
8
BLACK
6
CONTINUOUS
10
5.03202
20
-3.47695
11
5.03163
21
-3.47688
0
LINE
8
BLACK
6
CONTINUOUS
10
5.03163
20
-3.47688
11
5.0315
21
-3.4769
0
LINE
8
BLACK
6
CONTINUOUS
10
5.0315
20
-3.4769
11
5.03139
21
-3.47684
0
LINE
8
BLACK
6
CONTINUOUS
10
5.03139
20
-3.47684
11
5.03101
21
-3.47677
0
LINE
8
BLACK
6
CONTINUOUS
10
5.03101
20
-3.47677
11
5.03042
21
-3.47628
0
LINE
8
BLACK
6
CONTINUOUS
10
5.03042
20
-3.47628
11
5.02975
21
-3.47589
0
LINE
8
BLACK
6
CONTINUOUS
10
5.02975
20
-3.47589
11
5.02966
21
-3.47564
0
LINE
8
BLACK
6
CONTINUOUS
10
5.02966
20
-3.47564
11
5.02946
21
-3.47547
0
LINE
8
BLACK
6
CONTINUOUS
10
5.02946
20
-3.47547
11
5.02933
21
-3.47472
0
LINE
8
BLACK
6
CONTINUOUS
10
5.02933
20
-3.47472
11
5.02906
21
-3.474
0
LINE
8
BLACK
6
CONTINUOUS
10
5.02906
20
-3.474
11
5.02906
21
-3.43463
0
LINE
8
BLACK
6
CONTINUOUS
10
5.02906
20
-3.43463
11
5.02913
21
-3.43424
0
LINE
8
BLACK
6
CONTINUOUS
10
5.02913
20
-3.43424
11
5.02911
21
-3.43411
0
LINE
8
BLACK
6
CONTINUOUS
10
5.02911
20
-3.43411
11
5.02917
21
-3.434
0
LINE
8
BLACK
6
CONTINUOUS
10
5.02917
20
-3.434
11
5.02924
21
-3.43362
0
LINE
8
BLACK
6
CONTINUOUS
10
5.02924
20
-3.43362
11
5.02974
21
-3.43303
0
LINE
8
BLACK
6
CONTINUOUS
10
5.02974
20
-3.43303
11
5.03012
21
-3.43236
0
LINE
8
BLACK
6
CONTINUOUS
10
5.03012
20
-3.43236
11
5.03037
21
-3.43227
0
LINE
8
BLACK
6
CONTINUOUS
10
5.03037
20
-3.43227
11
5.03054
21
-3.43207
0
LINE
8
BLACK
6
CONTINUOUS
10
5.03054
20
-3.43207
11
5.0313
21
-3.43194
0
LINE
8
BLACK
6
CONTINUOUS
10
5.0313
20
-3.43194
11
5.03202
21
-3.43167
0
LINE
8
BLACK
6
CONTINUOUS
10
5.03202
20
-3.43167
11
5.04139
21
-3.43167
0
LINE
8
BLACK
6
CONTINUOUS
10
5.04139
20
-3.43167
11
5.04226
21
-3.43183
0
LINE
8
BLACK
6
CONTINUOUS
10
5.03497
20
-3.43758
11
5.03497
21
-3.47104
0
LINE
8
BLACK
6
CONTINUOUS
10
5.03497
20
-3.47104
11
5.04091
21
-3.47104
0
LINE
8
BLACK
6
CONTINUOUS
10
5.04091
20
-3.47104
11
5.04542
21
-3.46954
0
LINE
8
BLACK
6
CONTINUOUS
10
5.04542
20
-3.46954
11
5.04834
21
-3.46662
0
LINE
8
BLACK
6
CONTINUOUS
10
5.04834
20
-3.46662
11
5.04985
21
-3.46359
0
LINE
8
BLACK
6
CONTINUOUS
10
5.04985
20
-3.46359
11
5.05156
21
-3.45676
0
LINE
8
BLACK
6
CONTINUOUS
10
5.05156
20
-3.45676
11
5.05156
21
-3.45186
0
LINE
8
BLACK
6
CONTINUOUS
10
5.05156
20
-3.45186
11
5.04985
21
-3.44503
0
LINE
8
BLACK
6
CONTINUOUS
10
5.04985
20
-3.44503
11
5.04834
21
-3.442
0
LINE
8
BLACK
6
CONTINUOUS
10
5.04834
20
-3.442
11
5.04542
21
-3.43908
0
LINE
8
BLACK
6
CONTINUOUS
10
5.04542
20
-3.43908
11
5.04091
21
-3.43758
0
LINE
8
BLACK
6
CONTINUOUS
10
5.04091
20
-3.43758
11
5.03497
21
-3.43758
0
LINE
8
BLACK
6
CONTINUOUS
10
5.08552
20
-3.43185
11
5.08566
21
-3.43197
0
LINE
8
BLACK
6
CONTINUOUS
10
5.08566
20
-3.43197
11
5.08583
21
-3.43199
0
LINE
8
BLACK
6
CONTINUOUS
10
5.08583
20
-3.43199
11
5.08958
21
-3.43386
0
LINE
8
BLACK
6
CONTINUOUS
10
5.08958
20
-3.43386
11
5.09029
21
-3.43439
0
LINE
8
BLACK
6
CONTINUOUS
10
5.09029
20
-3.43439
11
5.09035
21
-3.43441
0
LINE
8
BLACK
6
CONTINUOUS
10
5.09035
20
-3.43441
11
5.09222
21
-3.43629
0
LINE
8
BLACK
6
CONTINUOUS
10
5.09222
20
-3.43629
11
5.09273
21
-3.43701
0
LINE
8
BLACK
6
CONTINUOUS
10
5.09273
20
-3.43701
11
5.09278
21
-3.43706
0
LINE
8
BLACK
6
CONTINUOUS
10
5.09278
20
-3.43706
11
5.09465
21
-3.44081
0
LINE
8
BLACK
6
CONTINUOUS
10
5.09465
20
-3.44081
11
5.09494
21
-3.44179
0
LINE
8
BLACK
6
CONTINUOUS
10
5.09494
20
-3.44179
11
5.0949
21
-3.44196
0
LINE
8
BLACK
6
CONTINUOUS
10
5.0949
20
-3.44196
11
5.09496
21
-3.44213
0
LINE
8
BLACK
6
CONTINUOUS
10
5.09496
20
-3.44213
11
5.09496
21
-3.44588
0
LINE
8
BLACK
6
CONTINUOUS
10
5.09496
20
-3.44588
11
5.09481
21
-3.44674
0
LINE
8
BLACK
6
CONTINUOUS
10
5.09481
20
-3.44674
11
5.09481
21
-3.44681
0
LINE
8
BLACK
6
CONTINUOUS
10
5.09481
20
-3.44681
11
5.09294
21
-3.45243
0
LINE
8
BLACK
6
CONTINUOUS
10
5.09294
20
-3.45243
11
5.09245
21
-3.45334
0
LINE
8
BLACK
6
CONTINUOUS
10
5.09245
20
-3.45334
11
5.0923
21
-3.45343
0
LINE
8
BLACK
6
CONTINUOUS
10
5.0923
20
-3.45343
11
5.09222
21
-3.45359
0
LINE
8
BLACK
6
CONTINUOUS
10
5.09222
20
-3.45359
11
5.07477
21
-3.47104
0
LINE
8
BLACK
6
CONTINUOUS
10
5.07477
20
-3.47104
11
5.09201
21
-3.47104
0
LINE
8
BLACK
6
CONTINUOUS
10
5.09201
20
-3.47104
11
5.09302
21
-3.47122
0
LINE
8
BLACK
6
CONTINUOUS
10
5.09302
20
-3.47122
11
5.09457
21
-3.47252
0
LINE
8
BLACK
6
CONTINUOUS
10
5.09457
20
-3.47252
11
5.09492
21
-3.47451
0
LINE
8
BLACK
6
CONTINUOUS
10
5.09492
20
-3.47451
11
5.09391
21
-3.47626
0
LINE
8
BLACK
6
CONTINUOUS
10
5.09391
20
-3.47626
11
5.09201
21
-3.47695
0
LINE
8
BLACK
6
CONTINUOUS
10
5.09201
20
-3.47695
11
5.06764
21
-3.47695
0
LINE
8
BLACK
6
CONTINUOUS
10
5.06764
20
-3.47695
11
5.067
21
-3.47684
0
LINE
8
BLACK
6
CONTINUOUS
10
5.067
20
-3.47684
11
5.06687
21
-3.47685
0
LINE
8
BLACK
6
CONTINUOUS
10
5.06687
20
-3.47685
11
5.06681
21
-3.4768
0
LINE
8
BLACK
6
CONTINUOUS
10
5.06681
20
-3.4768
11
5.06663
21
-3.47677
0
LINE
8
BLACK
6
CONTINUOUS
10
5.06663
20
-3.47677
11
5.06595
21
-3.4762
0
LINE
8
BLACK
6
CONTINUOUS
10
5.06595
20
-3.4762
11
5.06522
21
-3.47569
0
LINE
8
BLACK
6
CONTINUOUS
10
5.06522
20
-3.47569
11
5.06518
21
-3.47556
0
LINE
8
BLACK
6
CONTINUOUS
10
5.06518
20
-3.47556
11
5.06508
21
-3.47547
0
LINE
8
BLACK
6
CONTINUOUS
10
5.06508
20
-3.47547
11
5.06493
21
-3.4746
0
LINE
8
BLACK
6
CONTINUOUS
10
5.06493
20
-3.4746
11
5.0647
21
-3.47374
0
LINE
8
BLACK
6
CONTINUOUS
10
5.0647
20
-3.47374
11
5.06475
21
-3.47362
0
LINE
8
BLACK
6
CONTINUOUS
10
5.06475
20
-3.47362
11
5.06473
21
-3.47348
0
LINE
8
BLACK
6
CONTINUOUS
10
5.06473
20
-3.47348
11
5.06517
21
-3.47271
0
LINE
8
BLACK
6
CONTINUOUS
10
5.06517
20
-3.47271
11
5.06555
21
-3.47191
0
LINE
8
BLACK
6
CONTINUOUS
10
5.06555
20
-3.47191
11
5.08755
21
-3.4499
0
LINE
8
BLACK
6
CONTINUOUS
10
5.08755
20
-3.4499
11
5.08906
21
-3.4454
0
LINE
8
BLACK
6
CONTINUOUS
10
5.08906
20
-3.4454
11
5.08906
21
-3.44282
0
LINE
8
BLACK
6
CONTINUOUS
10
5.08906
20
-3.44282
11
5.08771
21
-3.44013
0
LINE
8
BLACK
6
CONTINUOUS
10
5.08771
20
-3.44013
11
5.08651
21
-3.43893
0
LINE
8
BLACK
6
CONTINUOUS
10
5.08651
20
-3.43893
11
5.08381
21
-3.43758
0
LINE
8
BLACK
6
CONTINUOUS
10
5.08381
20
-3.43758
11
5.07583
21
-3.43758
0
LINE
8
BLACK
6
CONTINUOUS
10
5.07583
20
-3.43758
11
5.07314
21
-3.43893
0
LINE
8
BLACK
6
CONTINUOUS
10
5.07314
20
-3.43893
11
5.0716
21
-3.44046
0
LINE
8
BLACK
6
CONTINUOUS
10
5.0716
20
-3.44046
11
5.07076
21
-3.44105
0
LINE
8
BLACK
6
CONTINUOUS
10
5.07076
20
-3.44105
11
5.06875
21
-3.44123
0
LINE
8
BLACK
6
CONTINUOUS
10
5.06875
20
-3.44123
11
5.06709
21
-3.44007
0
LINE
8
BLACK
6
CONTINUOUS
10
5.06709
20
-3.44007
11
5.06657
21
-3.43812
0
LINE
8
BLACK
6
CONTINUOUS
10
5.06657
20
-3.43812
11
5.06742
21
-3.43629
0
LINE
8
BLACK
6
CONTINUOUS
10
5.06742
20
-3.43629
11
5.0693
21
-3.43441
0
LINE
8
BLACK
6
CONTINUOUS
10
5.0693
20
-3.43441
11
5.07002
21
-3.43391
0
LINE
8
BLACK
6
CONTINUOUS
10
5.07002
20
-3.43391
11
5.07007
21
-3.43386
0
LINE
8
BLACK
6
CONTINUOUS
10
5.07007
20
-3.43386
11
5.07382
21
-3.43199
0
LINE
8
BLACK
6
CONTINUOUS
10
5.07382
20
-3.43199
11
5.0748
21
-3.43169
0
LINE
8
BLACK
6
CONTINUOUS
10
5.0748
20
-3.43169
11
5.07497
21
-3.43173
0
LINE
8
BLACK
6
CONTINUOUS
10
5.07497
20
-3.43173
11
5.07514
21
-3.43167
0
LINE
8
BLACK
6
CONTINUOUS
10
5.07514
20
-3.43167
11
5.08451
21
-3.43167
0
LINE
8
BLACK
6
CONTINUOUS
10
5.08451
20
-3.43167
11
5.08552
21
-3.43185
0
LINE
8
BLACK
6
CONTINUOUS
10
5.20303
20
-3.28273
11
5.20372
21
-3.28463
0
LINE
8
BLACK
6
CONTINUOUS
10
5.20372
20
-3.28463
11
5.20372
21
-3.3
0
LINE
8
BLACK
6
CONTINUOUS
10
5.20372
20
-3.3
11
5.22117
21
-3.28254
0
LINE
8
BLACK
6
CONTINUOUS
10
5.22117
20
-3.28254
11
5.22201
21
-3.28195
0
LINE
8
BLACK
6
CONTINUOUS
10
5.22201
20
-3.28195
11
5.22403
21
-3.28177
0
LINE
8
BLACK
6
CONTINUOUS
10
5.22403
20
-3.28177
11
5.22568
21
-3.28293
0
LINE
8
BLACK
6
CONTINUOUS
10
5.22568
20
-3.28293
11
5.2262
21
-3.28488
0
LINE
8
BLACK
6
CONTINUOUS
10
5.2262
20
-3.28488
11
5.22535
21
-3.28671
0
LINE
8
BLACK
6
CONTINUOUS
10
5.22535
20
-3.28671
11
5.21029
21
-3.30178
0
LINE
8
BLACK
6
CONTINUOUS
10
5.21029
20
-3.30178
11
5.22562
21
-3.32223
0
LINE
8
BLACK
6
CONTINUOUS
10
5.22562
20
-3.32223
11
5.22609
21
-3.32314
0
LINE
8
BLACK
6
CONTINUOUS
10
5.22609
20
-3.32314
11
5.22598
21
-3.32516
0
LINE
8
BLACK
6
CONTINUOUS
10
5.22598
20
-3.32516
11
5.2246
21
-3.32663
0
LINE
8
BLACK
6
CONTINUOUS
10
5.2246
20
-3.32663
11
5.22259
21
-3.32687
0
LINE
8
BLACK
6
CONTINUOUS
10
5.22259
20
-3.32687
11
5.2209
21
-3.32577
0
LINE
8
BLACK
6
CONTINUOUS
10
5.2209
20
-3.32577
11
5.20607
21
-3.30599
0
LINE
8
BLACK
6
CONTINUOUS
10
5.20607
20
-3.30599
11
5.20372
21
-3.30835
0
LINE
8
BLACK
6
CONTINUOUS
10
5.20372
20
-3.30835
11
5.20372
21
-3.324
0
LINE
8
BLACK
6
CONTINUOUS
10
5.20372
20
-3.324
11
5.20354
21
-3.32501
0
LINE
8
BLACK
6
CONTINUOUS
10
5.20354
20
-3.32501
11
5.20224
21
-3.32655
0
LINE
8
BLACK
6
CONTINUOUS
10
5.20224
20
-3.32655
11
5.20025
21
-3.3269
0
LINE
8
BLACK
6
CONTINUOUS
10
5.20025
20
-3.3269
11
5.1985
21
-3.32589
0
LINE
8
BLACK
6
CONTINUOUS
10
5.1985
20
-3.32589
11
5.19781
21
-3.324
0
LINE
8
BLACK
6
CONTINUOUS
10
5.19781
20
-3.324
11
5.19781
21
-3.28463
0
LINE
8
BLACK
6
CONTINUOUS
10
5.19781
20
-3.28463
11
5.19799
21
-3.28362
0
LINE
8
BLACK
6
CONTINUOUS
10
5.19799
20
-3.28362
11
5.19929
21
-3.28207
0
LINE
8
BLACK
6
CONTINUOUS
10
5.19929
20
-3.28207
11
5.20128
21
-3.28172
0
LINE
8
BLACK
6
CONTINUOUS
10
5.20128
20
-3.28172
11
5.20303
21
-3.28273
0
LINE
8
BLACK
6
CONTINUOUS
10
5.08804
20
-3.22333
11
5.08861
21
-3.22473
0
LINE
8
BLACK
6
CONTINUOUS
10
5.08861
20
-3.22473
11
5.08861
21
-3.25426
0
LINE
8
BLACK
6
CONTINUOUS
10
5.08861
20
-3.25426
11
5.12214
21
-3.25426
0
LINE
8
BLACK
6
CONTINUOUS
10
5.12214
20
-3.25426
11
5.12354
21
-3.25483
0
LINE
8
BLACK
6
CONTINUOUS
10
5.12354
20
-3.25483
11
5.12411
21
-3.25623
0
LINE
8
BLACK
6
CONTINUOUS
10
5.12411
20
-3.25623
11
5.12354
21
-3.25762
0
LINE
8
BLACK
6
CONTINUOUS
10
5.12354
20
-3.25762
11
5.12214
21
-3.2582
0
LINE
8
BLACK
6
CONTINUOUS
10
5.12214
20
-3.2582
11
5.08861
21
-3.2582
0
LINE
8
BLACK
6
CONTINUOUS
10
5.08861
20
-3.2582
11
5.08861
21
-3.28773
0
LINE
8
BLACK
6
CONTINUOUS
10
5.08861
20
-3.28773
11
5.08804
21
-3.28912
0
LINE
8
BLACK
6
CONTINUOUS
10
5.08804
20
-3.28912
11
5.08664
21
-3.2897
0
LINE
8
BLACK
6
CONTINUOUS
10
5.08664
20
-3.2897
11
5.08525
21
-3.28912
0
LINE
8
BLACK
6
CONTINUOUS
10
5.08525
20
-3.28912
11
5.08468
21
-3.28773
0
LINE
8
BLACK
6
CONTINUOUS
10
5.08468
20
-3.28773
11
5.08468
21
-3.25986
0
LINE
8
BLACK
6
CONTINUOUS
10
5.08468
20
-3.25986
11
5.04242
21
-3.28738
0
LINE
8
BLACK
6
CONTINUOUS
10
5.04242
20
-3.28738
11
5.04186
21
-3.28748
0
LINE
8
BLACK
6
CONTINUOUS
10
5.04186
20
-3.28748
11
5.04134
21
-3.2877
0
LINE
8
BLACK
6
CONTINUOUS
10
5.04134
20
-3.2877
11
5.04115
21
-3.28761
0
LINE
8
BLACK
6
CONTINUOUS
10
5.04115
20
-3.28761
11
5.04094
21
-3.28765
0
LINE
8
BLACK
6
CONTINUOUS
10
5.04094
20
-3.28765
11
5.04047
21
-3.28733
0
LINE
8
BLACK
6
CONTINUOUS
10
5.04047
20
-3.28733
11
5.03995
21
-3.28712
0
LINE
8
BLACK
6
CONTINUOUS
10
5.03995
20
-3.28712
11
5.03987
21
-3.28692
0
LINE
8
BLACK
6
CONTINUOUS
10
5.03987
20
-3.28692
11
5.03969
21
-3.2868
0
LINE
8
BLACK
6
CONTINUOUS
10
5.03969
20
-3.2868
11
5.03959
21
-3.28625
0
LINE
8
BLACK
6
CONTINUOUS
10
5.03959
20
-3.28625
11
5.03938
21
-3.28573
0
LINE
8
BLACK
6
CONTINUOUS
10
5.03938
20
-3.28573
11
5.03938
21
-3.2582
0
LINE
8
BLACK
6
CONTINUOUS
10
5.03938
20
-3.2582
11
5.00204
21
-3.2582
0
LINE
8
BLACK
6
CONTINUOUS
10
5.00204
20
-3.2582
11
5.00065
21
-3.25762
0
LINE
8
BLACK
6
CONTINUOUS
10
5.00065
20
-3.25762
11
5.00008
21
-3.25623
0
LINE
8
BLACK
6
CONTINUOUS
10
5.00008
20
-3.25623
11
5.00065
21
-3.25483
0
LINE
8
BLACK
6
CONTINUOUS
10
5.00065
20
-3.25483
11
5.00204
21
-3.25426
0
LINE
8
BLACK
6
CONTINUOUS
10
5.00204
20
-3.25426
11
5.03938
21
-3.25426
0
LINE
8
BLACK
6
CONTINUOUS
10
5.03938
20
-3.25426
11
5.03938
21
-3.22473
0
LINE
8
BLACK
6
CONTINUOUS
10
5.03938
20
-3.22473
11
5.0396
21
-3.22418
0
LINE
8
BLACK
6
CONTINUOUS
10
5.0396
20
-3.22418
11
5.03973
21
-3.2236
0
LINE
8
BLACK
6
CONTINUOUS
10
5.03973
20
-3.2236
11
5.03988
21
-3.2235
0
LINE
8
BLACK
6
CONTINUOUS
10
5.03988
20
-3.2235
11
5.03995
21
-3.22333
0
LINE
8
BLACK
6
CONTINUOUS
10
5.03995
20
-3.22333
11
5.0405
21
-3.22311
0
LINE
8
BLACK
6
CONTINUOUS
10
5.0405
20
-3.22311
11
5.041
21
-3.22279
0
LINE
8
BLACK
6
CONTINUOUS
10
5.041
20
-3.22279
11
5.04117
21
-3.22283
0
LINE
8
BLACK
6
CONTINUOUS
10
5.04117
20
-3.22283
11
5.04134
21
-3.22276
0
LINE
8
BLACK
6
CONTINUOUS
10
5.04134
20
-3.22276
11
5.04189
21
-3.22298
0
LINE
8
BLACK
6
CONTINUOUS
10
5.04189
20
-3.22298
11
5.04247
21
-3.22311
0
LINE
8
BLACK
6
CONTINUOUS
10
5.04247
20
-3.22311
11
5.08468
21
-3.25246
0
LINE
8
BLACK
6
CONTINUOUS
10
5.08468
20
-3.25246
11
5.08468
21
-3.22473
0
LINE
8
BLACK
6
CONTINUOUS
10
5.08468
20
-3.22473
11
5.08525
21
-3.22333
0
LINE
8
BLACK
6
CONTINUOUS
10
5.08525
20
-3.22333
11
5.08664
21
-3.22276
0
LINE
8
BLACK
6
CONTINUOUS
10
5.08664
20
-3.22276
11
5.08804
21
-3.22333
0
LINE
8
BLACK
6
CONTINUOUS
10
5.04331
20
-3.2821
11
5.08312
21
-3.25617
0
LINE
8
BLACK
6
CONTINUOUS
10
5.08312
20
-3.25617
11
5.04331
21
-3.22849
0
LINE
8
BLACK
6
CONTINUOUS
10
5.04331
20
-3.22849
11
5.04331
21
-3.2821
0
LINE
8
BLACK
6
CONTINUOUS
10
6.66396
20
-4.06129
11
6.66398
21
-4.06142
0
LINE
8
BLACK
6
CONTINUOUS
10
6.66398
20
-4.06142
11
6.66392
21
-4.06154
0
LINE
8
BLACK
6
CONTINUOUS
10
6.66392
20
-4.06154
11
6.66385
21
-4.06192
0
LINE
8
BLACK
6
CONTINUOUS
10
6.66385
20
-4.06192
11
6.66336
21
-4.06251
0
LINE
8
BLACK
6
CONTINUOUS
10
6.66336
20
-4.06251
11
6.66297
21
-4.06317
0
LINE
8
BLACK
6
CONTINUOUS
10
6.66297
20
-4.06317
11
6.66272
21
-4.06326
0
LINE
8
BLACK
6
CONTINUOUS
10
6.66272
20
-4.06326
11
6.66255
21
-4.06347
0
LINE
8
BLACK
6
CONTINUOUS
10
6.66255
20
-4.06347
11
6.6618
21
-4.0636
0
LINE
8
BLACK
6
CONTINUOUS
10
6.6618
20
-4.0636
11
6.66108
21
-4.06386
0
LINE
8
BLACK
6
CONTINUOUS
10
6.66108
20
-4.06386
11
6.46108
21
-4.06386
0
LINE
8
BLACK
6
CONTINUOUS
10
6.46108
20
-4.06386
11
6.46069
21
-4.0638
0
LINE
8
BLACK
6
CONTINUOUS
10
6.46069
20
-4.0638
11
6.46056
21
-4.06382
0
LINE
8
BLACK
6
CONTINUOUS
10
6.46056
20
-4.06382
11
6.46045
21
-4.06375
0
LINE
8
BLACK
6
CONTINUOUS
10
6.46045
20
-4.06375
11
6.46007
21
-4.06369
0
LINE
8
BLACK
6
CONTINUOUS
10
6.46007
20
-4.06369
11
6.45948
21
-4.06319
0
LINE
8
BLACK
6
CONTINUOUS
10
6.45948
20
-4.06319
11
6.45881
21
-4.06281
0
LINE
8
BLACK
6
CONTINUOUS
10
6.45881
20
-4.06281
11
6.45872
21
-4.06256
0
LINE
8
BLACK
6
CONTINUOUS
10
6.45872
20
-4.06256
11
6.45852
21
-4.06239
0
LINE
8
BLACK
6
CONTINUOUS
10
6.45852
20
-4.06239
11
6.45839
21
-4.06163
0
LINE
8
BLACK
6
CONTINUOUS
10
6.45839
20
-4.06163
11
6.45812
21
-4.06091
0
LINE
8
BLACK
6
CONTINUOUS
10
6.45812
20
-4.06091
11
6.45812
21
-3.36091
0
LINE
8
BLACK
6
CONTINUOUS
10
6.45812
20
-3.36091
11
6.45819
21
-3.36053
0
LINE
8
BLACK
6
CONTINUOUS
10
6.45819
20
-3.36053
11
6.45817
21
-3.3604
0
LINE
8
BLACK
6
CONTINUOUS
10
6.45817
20
-3.3604
11
6.45823
21
-3.36028
0
LINE
8
BLACK
6
CONTINUOUS
10
6.45823
20
-3.36028
11
6.4583
21
-3.3599
0
LINE
8
BLACK
6
CONTINUOUS
10
6.4583
20
-3.3599
11
6.45879
21
-3.35931
0
LINE
8
BLACK
6
CONTINUOUS
10
6.45879
20
-3.35931
11
6.45918
21
-3.35865
0
LINE
8
BLACK
6
CONTINUOUS
10
6.45918
20
-3.35865
11
6.45943
21
-3.35856
0
LINE
8
BLACK
6
CONTINUOUS
10
6.45943
20
-3.35856
11
6.4596
21
-3.35835
0
LINE
8
BLACK
6
CONTINUOUS
10
6.4596
20
-3.35835
11
6.46035
21
-3.35822
0
LINE
8
BLACK
6
CONTINUOUS
10
6.46035
20
-3.35822
11
6.46108
21
-3.35796
0
LINE
8
BLACK
6
CONTINUOUS
10
6.46108
20
-3.35796
11
6.66108
21
-3.35796
0
LINE
8
BLACK
6
CONTINUOUS
10
6.66108
20
-3.35796
11
6.66146
21
-3.35803
0
LINE
8
BLACK
6
CONTINUOUS
10
6.66146
20
-3.35803
11
6.66159
21
-3.358
0
LINE
8
BLACK
6
CONTINUOUS
10
6.66159
20
-3.358
11
6.6617
21
-3.35807
0
LINE
8
BLACK
6
CONTINUOUS
10
6.6617
20
-3.35807
11
6.66209
21
-3.35814
0
LINE
8
BLACK
6
CONTINUOUS
10
6.66209
20
-3.35814
11
6.66267
21
-3.35863
0
LINE
8
BLACK
6
CONTINUOUS
10
6.66267
20
-3.35863
11
6.66334
21
-3.35901
0
LINE
8
BLACK
6
CONTINUOUS
10
6.66334
20
-3.35901
11
6.66343
21
-3.35926
0
LINE
8
BLACK
6
CONTINUOUS
10
6.66343
20
-3.35926
11
6.66363
21
-3.35943
0
LINE
8
BLACK
6
CONTINUOUS
10
6.66363
20
-3.35943
11
6.66377
21
-3.36019
0
LINE
8
BLACK
6
CONTINUOUS
10
6.66377
20
-3.36019
11
6.66403
21
-3.36091
0
LINE
8
BLACK
6
CONTINUOUS
10
6.66403
20
-3.36091
11
6.66403
21
-4.06091
0
LINE
8
BLACK
6
CONTINUOUS
10
6.66403
20
-4.06091
11
6.66396
21
-4.06129
0
LINE
8
BLACK
6
CONTINUOUS
10
6.46403
20
-3.96386
11
6.46403
21
-4.05796
0
LINE
8
BLACK
6
CONTINUOUS
10
6.46403
20
-4.05796
11
6.65812
21
-4.05796
0
LINE
8
BLACK
6
CONTINUOUS
10
6.65812
20
-4.05796
11
6.65812
21
-3.96386
0
LINE
8
BLACK
6
CONTINUOUS
10
6.65812
20
-3.96386
11
6.46403
21
-3.96386
0
LINE
8
BLACK
6
CONTINUOUS
10
6.46403
20
-3.86386
11
6.46403
21
-3.95796
0
LINE
8
BLACK
6
CONTINUOUS
10
6.46403
20
-3.95796
11
6.65812
21
-3.95796
0
LINE
8
BLACK
6
CONTINUOUS
10
6.65812
20
-3.95796
11
6.65812
21
-3.86386
0
LINE
8
BLACK
6
CONTINUOUS
10
6.65812
20
-3.86386
11
6.46403
21
-3.86386
0
LINE
8
BLACK
6
CONTINUOUS
10
6.46403
20
-3.76386
11
6.46403
21
-3.85796
0
LINE
8
BLACK
6
CONTINUOUS
10
6.46403
20
-3.85796
11
6.65812
21
-3.85796
0
LINE
8
BLACK
6
CONTINUOUS
10
6.65812
20
-3.85796
11
6.65812
21
-3.76386
0
LINE
8
BLACK
6
CONTINUOUS
10
6.65812
20
-3.76386
11
6.46403
21
-3.76386
0
LINE
8
BLACK
6
CONTINUOUS
10
6.46403
20
-3.66386
11
6.46403
21
-3.75796
0
LINE
8
BLACK
6
CONTINUOUS
10
6.46403
20
-3.75796
11
6.65812
21
-3.75796
0
LINE
8
BLACK
6
CONTINUOUS
10
6.65812
20
-3.75796
11
6.65812
21
-3.66386
0
LINE
8
BLACK
6
CONTINUOUS
10
6.65812
20
-3.66386
11
6.46403
21
-3.66386
0
LINE
8
BLACK
6
CONTINUOUS
10
6.46403
20
-3.56386
11
6.46403
21
-3.65796
0
LINE
8
BLACK
6
CONTINUOUS
10
6.46403
20
-3.65796
11
6.65812
21
-3.65796
0
LINE
8
BLACK
6
CONTINUOUS
10
6.65812
20
-3.65796
11
6.65812
21
-3.56386
0
LINE
8
BLACK
6
CONTINUOUS
10
6.65812
20
-3.56386
11
6.46403
21
-3.56386
0
LINE
8
BLACK
6
CONTINUOUS
10
6.46403
20
-3.46386
11
6.46403
21
-3.55796
0
LINE
8
BLACK
6
CONTINUOUS
10
6.46403
20
-3.55796
11
6.65812
21
-3.55796
0
LINE
8
BLACK
6
CONTINUOUS
10
6.65812
20
-3.55796
11
6.65812
21
-3.46386
0
LINE
8
BLACK
6
CONTINUOUS
10
6.65812
20
-3.46386
11
6.46403
21
-3.46386
0
LINE
8
BLACK
6
CONTINUOUS
10
6.46403
20
-3.36386
11
6.46403
21
-3.45796
0
LINE
8
BLACK
6
CONTINUOUS
10
6.46403
20
-3.45796
11
6.65812
21
-3.45796
0
LINE
8
BLACK
6
CONTINUOUS
10
6.65812
20
-3.45796
11
6.65812
21
-3.36386
0
LINE
8
BLACK
6
CONTINUOUS
10
6.65812
20
-3.36386
11
6.46403
21
-3.36386
0
LINE
8
BLACK
6
CONTINUOUS
10
5.89691
20
-3.76357
11
5.89878
21
-3.76544
0
LINE
8
BLACK
6
CONTINUOUS
10
5.89878
20
-3.76544
11
5.89937
21
-3.76628
0
LINE
8
BLACK
6
CONTINUOUS
10
5.89937
20
-3.76628
11
5.89939
21
-3.76646
0
LINE
8
BLACK
6
CONTINUOUS
10
5.89939
20
-3.76646
11
5.8995
21
-3.7666
0
LINE
8
BLACK
6
CONTINUOUS
10
5.8995
20
-3.7666
11
5.90137
21
-3.77222
0
LINE
8
BLACK
6
CONTINUOUS
10
5.90137
20
-3.77222
11
5.9015
21
-3.77309
0
LINE
8
BLACK
6
CONTINUOUS
10
5.9015
20
-3.77309
11
5.90152
21
-3.77315
0
LINE
8
BLACK
6
CONTINUOUS
10
5.90152
20
-3.77315
11
5.90152
21
-3.7769
0
LINE
8
BLACK
6
CONTINUOUS
10
5.90152
20
-3.7769
11
5.90137
21
-3.77777
0
LINE
8
BLACK
6
CONTINUOUS
10
5.90137
20
-3.77777
11
5.90137
21
-3.77784
0
LINE
8
BLACK
6
CONTINUOUS
10
5.90137
20
-3.77784
11
5.8995
21
-3.78346
0
LINE
8
BLACK
6
CONTINUOUS
10
5.8995
20
-3.78346
11
5.89901
21
-3.78436
0
LINE
8
BLACK
6
CONTINUOUS
10
5.89901
20
-3.78436
11
5.89886
21
-3.78445
0
LINE
8
BLACK
6
CONTINUOUS
10
5.89886
20
-3.78445
11
5.89878
21
-3.78461
0
LINE
8
BLACK
6
CONTINUOUS
10
5.89878
20
-3.78461
11
5.89503
21
-3.78836
0
LINE
8
BLACK
6
CONTINUOUS
10
5.89503
20
-3.78836
11
5.89431
21
-3.78887
0
LINE
8
BLACK
6
CONTINUOUS
10
5.89431
20
-3.78887
11
5.89427
21
-3.78892
0
LINE
8
BLACK
6
CONTINUOUS
10
5.89427
20
-3.78892
11
5.89052
21
-3.79079
0
LINE
8
BLACK
6
CONTINUOUS
10
5.89052
20
-3.79079
11
5.89003
21
-3.79094
0
LINE
8
BLACK
6
CONTINUOUS
10
5.89003
20
-3.79094
11
5.88991
21
-3.79102
0
LINE
8
BLACK
6
CONTINUOUS
10
5.88991
20
-3.79102
11
5.88241
21
-3.79289
0
LINE
8
BLACK
6
CONTINUOUS
10
5.88241
20
-3.79289
11
5.88183
21
-3.79293
0
LINE
8
BLACK
6
CONTINUOUS
10
5.88183
20
-3.79293
11
5.8817
21
-3.79298
0
LINE
8
BLACK
6
CONTINUOUS
10
5.8817
20
-3.79298
11
5.87607
21
-3.79298
0
LINE
8
BLACK
6
CONTINUOUS
10
5.87607
20
-3.79298
11
5.87549
21
-3.79288
0
LINE
8
BLACK
6
CONTINUOUS
10
5.87549
20
-3.79288
11
5.87536
21
-3.79289
0
LINE
8
BLACK
6
CONTINUOUS
10
5.87536
20
-3.79289
11
5.86786
21
-3.79102
0
LINE
8
BLACK
6
CONTINUOUS
10
5.86786
20
-3.79102
11
5.86739
21
-3.79081
0
LINE
8
BLACK
6
CONTINUOUS
10
5.86739
20
-3.79081
11
5.86725
21
-3.79079
0
LINE
8
BLACK
6
CONTINUOUS
10
5.86725
20
-3.79079
11
5.8635
21
-3.78892
0
LINE
8
BLACK
6
CONTINUOUS
10
5.8635
20
-3.78892
11
5.8628
21
-3.78839
0
LINE
8
BLACK
6
CONTINUOUS
10
5.8628
20
-3.78839
11
5.86274
21
-3.78836
0
LINE
8
BLACK
6
CONTINUOUS
10
5.86274
20
-3.78836
11
5.85899
21
-3.78461
0
LINE
8
BLACK
6
CONTINUOUS
10
5.85899
20
-3.78461
11
5.8584
21
-3.78377
0
LINE
8
BLACK
6
CONTINUOUS
10
5.8584
20
-3.78377
11
5.85838
21
-3.7836
0
LINE
8
BLACK
6
CONTINUOUS
10
5.85838
20
-3.7836
11
5.85827
21
-3.78346
0
LINE
8
BLACK
6
CONTINUOUS
10
5.85827
20
-3.78346
11
5.8564
21
-3.77784
0
LINE
8
BLACK
6
CONTINUOUS
10
5.8564
20
-3.77784
11
5.85627
21
-3.77696
0
LINE
8
BLACK
6
CONTINUOUS
10
5.85627
20
-3.77696
11
5.85625
21
-3.7769
0
LINE
8
BLACK
6
CONTINUOUS
10
5.85625
20
-3.7769
11
5.85625
21
-3.77315
0
LINE
8
BLACK
6
CONTINUOUS
10
5.85625
20
-3.77315
11
5.8564
21
-3.77228
0
LINE
8
BLACK
6
CONTINUOUS
10
5.8564
20
-3.77228
11
5.8564
21
-3.77222
0
LINE
8
BLACK
6
CONTINUOUS
10
5.8564
20
-3.77222
11
5.85827
21
-3.7666
0
LINE
8
BLACK
6
CONTINUOUS
10
5.85827
20
-3.7666
11
5.85876
21
-3.76569
0
LINE
8
BLACK
6
CONTINUOUS
10
5.85876
20
-3.76569
11
5.85891
21
-3.7656
0
LINE
8
BLACK
6
CONTINUOUS
10
5.85891
20
-3.7656
11
5.85899
21
-3.76544
0
LINE
8
BLACK
6
CONTINUOUS
10
5.85899
20
-3.76544
11
5.86086
21
-3.76357
0
LINE
8
BLACK
6
CONTINUOUS
10
5.86086
20
-3.76357
11
5.8617
21
-3.76298
0
LINE
8
BLACK
6
CONTINUOUS
10
5.8617
20
-3.76298
11
5.86371
21
-3.7628
0
LINE
8
BLACK
6
CONTINUOUS
10
5.86371
20
-3.7628
11
5.86537
21
-3.76396
0
LINE
8
BLACK
6
CONTINUOUS
10
5.86537
20
-3.76396
11
5.86589
21
-3.76591
0
LINE
8
BLACK
6
CONTINUOUS
10
5.86589
20
-3.76591
11
5.86504
21
-3.76774
0
LINE
8
BLACK
6
CONTINUOUS
10
5.86504
20
-3.76774
11
5.86366
21
-3.76912
0
LINE
8
BLACK
6
CONTINUOUS
10
5.86366
20
-3.76912
11
5.86215
21
-3.77363
0
LINE
8
BLACK
6
CONTINUOUS
10
5.86215
20
-3.77363
11
5.86215
21
-3.77642
0
LINE
8
BLACK
6
CONTINUOUS
10
5.86215
20
-3.77642
11
5.86366
21
-3.78093
0
LINE
8
BLACK
6
CONTINUOUS
10
5.86366
20
-3.78093
11
5.86657
21
-3.78385
0
LINE
8
BLACK
6
CONTINUOUS
10
5.86657
20
-3.78385
11
5.86961
21
-3.78537
0
LINE
8
BLACK
6
CONTINUOUS
10
5.86961
20
-3.78537
11
5.87644
21
-3.78707
0
LINE
8
BLACK
6
CONTINUOUS
10
5.87644
20
-3.78707
11
5.88133
21
-3.78707
0
LINE
8
BLACK
6
CONTINUOUS
10
5.88133
20
-3.78707
11
5.88817
21
-3.78537
0
LINE
8
BLACK
6
CONTINUOUS
10
5.88817
20
-3.78537
11
5.8912
21
-3.78385
0
LINE
8
BLACK
6
CONTINUOUS
10
5.8912
20
-3.78385
11
5.89412
21
-3.78093
0
LINE
8
BLACK
6
CONTINUOUS
10
5.89412
20
-3.78093
11
5.89562
21
-3.77642
0
LINE
8
BLACK
6
CONTINUOUS
10
5.89562
20
-3.77642
11
5.89562
21
-3.77363
0
LINE
8
BLACK
6
CONTINUOUS
10
5.89562
20
-3.77363
11
5.89412
21
-3.76912
0
LINE
8
BLACK
6
CONTINUOUS
10
5.89412
20
-3.76912
11
5.89273
21
-3.76774
0
LINE
8
BLACK
6
CONTINUOUS
10
5.89273
20
-3.76774
11
5.89215
21
-3.7669
0
LINE
8
BLACK
6
CONTINUOUS
10
5.89215
20
-3.7669
11
5.89197
21
-3.76489
0
LINE
8
BLACK
6
CONTINUOUS
10
5.89197
20
-3.76489
11
5.89313
21
-3.76324
0
LINE
8
BLACK
6
CONTINUOUS
10
5.89313
20
-3.76324
11
5.89508
21
-3.76271
0
LINE
8
BLACK
6
CONTINUOUS
10
5.89508
20
-3.76271
11
5.89691
21
-3.76357
0
LINE
8
BLACK
6
CONTINUOUS
10
5.89958
20
-3.72351
11
5.90113
21
-3.72481
0
LINE
8
BLACK
6
CONTINUOUS
10
5.90113
20
-3.72481
11
5.90148
21
-3.7268
0
LINE
8
BLACK
6
CONTINUOUS
10
5.90148
20
-3.7268
11
5.90047
21
-3.72855
0
LINE
8
BLACK
6
CONTINUOUS
10
5.90047
20
-3.72855
11
5.89857
21
-3.72924
0
LINE
8
BLACK
6
CONTINUOUS
10
5.89857
20
-3.72924
11
5.8809
21
-3.72924
0
LINE
8
BLACK
6
CONTINUOUS
10
5.8809
20
-3.72924
11
5.8809
21
-3.74583
0
LINE
8
BLACK
6
CONTINUOUS
10
5.8809
20
-3.74583
11
5.89857
21
-3.74583
0
LINE
8
BLACK
6
CONTINUOUS
10
5.89857
20
-3.74583
11
5.89958
21
-3.74601
0
LINE
8
BLACK
6
CONTINUOUS
10
5.89958
20
-3.74601
11
5.90113
21
-3.7473
0
LINE
8
BLACK
6
CONTINUOUS
10
5.90113
20
-3.7473
11
5.90148
21
-3.74929
0
LINE
8
BLACK
6
CONTINUOUS
10
5.90148
20
-3.74929
11
5.90047
21
-3.75104
0
LINE
8
BLACK
6
CONTINUOUS
10
5.90047
20
-3.75104
11
5.89857
21
-3.75173
0
LINE
8
BLACK
6
CONTINUOUS
10
5.89857
20
-3.75173
11
5.8592
21
-3.75173
0
LINE
8
BLACK
6
CONTINUOUS
10
5.8592
20
-3.75173
11
5.85819
21
-3.75156
0
LINE
8
BLACK
6
CONTINUOUS
10
5.85819
20
-3.75156
11
5.85664
21
-3.75026
0
LINE
8
BLACK
6
CONTINUOUS
10
5.85664
20
-3.75026
11
5.85629
21
-3.74827
0
LINE
8
BLACK
6
CONTINUOUS
10
5.85629
20
-3.74827
11
5.8573
21
-3.74652
0
LINE
8
BLACK
6
CONTINUOUS
10
5.8573
20
-3.74652
11
5.8592
21
-3.74583
0
LINE
8
BLACK
6
CONTINUOUS
10
5.8592
20
-3.74583
11
5.875
21
-3.74583
0
LINE
8
BLACK
6
CONTINUOUS
10
5.875
20
-3.74583
11
5.875
21
-3.72924
0
LINE
8
BLACK
6
CONTINUOUS
10
5.875
20
-3.72924
11
5.8592
21
-3.72924
0
LINE
8
BLACK
6
CONTINUOUS
10
5.8592
20
-3.72924
11
5.85819
21
-3.72906
0
LINE
8
BLACK
6
CONTINUOUS
10
5.85819
20
-3.72906
11
5.85664
21
-3.72776
0
LINE
8
BLACK
6
CONTINUOUS
10
5.85664
20
-3.72776
11
5.85629
21
-3.72577
0
LINE
8
BLACK
6
CONTINUOUS
10
5.85629
20
-3.72577
11
5.8573
21
-3.72402
0
LINE
8
BLACK
6
CONTINUOUS
10
5.8573
20
-3.72402
11
5.8592
21
-3.72333
0
LINE
8
BLACK
6
CONTINUOUS
10
5.8592
20
-3.72333
11
5.89857
21
-3.72333
0
LINE
8
BLACK
6
CONTINUOUS
10
5.89857
20
-3.72333
11
5.89958
21
-3.72351
0
LINE
8
BLACK
6
CONTINUOUS
10
5.87132
20
-3.68411
11
5.87138
21
-3.68411
0
LINE
8
BLACK
6
CONTINUOUS
10
5.87138
20
-3.68411
11
5.87701
21
-3.68599
0
LINE
8
BLACK
6
CONTINUOUS
10
5.87701
20
-3.68599
11
5.87791
21
-3.68648
0
LINE
8
BLACK
6
CONTINUOUS
10
5.87791
20
-3.68648
11
5.878
21
-3.68663
0
LINE
8
BLACK
6
CONTINUOUS
10
5.878
20
-3.68663
11
5.87816
21
-3.6867
0
LINE
8
BLACK
6
CONTINUOUS
10
5.87816
20
-3.6867
11
5.89562
21
-3.70416
0
LINE
8
BLACK
6
CONTINUOUS
10
5.89562
20
-3.70416
11
5.89562
21
-3.68691
0
LINE
8
BLACK
6
CONTINUOUS
10
5.89562
20
-3.68691
11
5.8958
21
-3.6859
0
LINE
8
BLACK
6
CONTINUOUS
10
5.8958
20
-3.6859
11
5.89709
21
-3.68436
0
LINE
8
BLACK
6
CONTINUOUS
10
5.89709
20
-3.68436
11
5.89908
21
-3.68401
0
LINE
8
BLACK
6
CONTINUOUS
10
5.89908
20
-3.68401
11
5.90083
21
-3.68502
0
LINE
8
BLACK
6
CONTINUOUS
10
5.90083
20
-3.68502
11
5.90152
21
-3.68691
0
LINE
8
BLACK
6
CONTINUOUS
10
5.90152
20
-3.68691
11
5.90152
21
-3.71129
0
LINE
8
BLACK
6
CONTINUOUS
10
5.90152
20
-3.71129
11
5.90141
21
-3.71192
0
LINE
8
BLACK
6
CONTINUOUS
10
5.90141
20
-3.71192
11
5.90142
21
-3.71205
0
LINE
8
BLACK
6
CONTINUOUS
10
5.90142
20
-3.71205
11
5.90138
21
-3.71212
0
LINE
8
BLACK
6
CONTINUOUS
10
5.90138
20
-3.71212
11
5.90135
21
-3.7123
0
LINE
8
BLACK
6
CONTINUOUS
10
5.90135
20
-3.7123
11
5.90077
21
-3.71298
0
LINE
8
BLACK
6
CONTINUOUS
10
5.90077
20
-3.71298
11
5.90026
21
-3.7137
0
LINE
8
BLACK
6
CONTINUOUS
10
5.90026
20
-3.7137
11
5.90013
21
-3.71374
0
LINE
8
BLACK
6
CONTINUOUS
10
5.90013
20
-3.71374
11
5.90005
21
-3.71384
0
LINE
8
BLACK
6
CONTINUOUS
10
5.90005
20
-3.71384
11
5.89917
21
-3.714
0
LINE
8
BLACK
6
CONTINUOUS
10
5.89917
20
-3.714
11
5.89831
21
-3.71423
0
LINE
8
BLACK
6
CONTINUOUS
10
5.89831
20
-3.71423
11
5.89819
21
-3.71417
0
LINE
8
BLACK
6
CONTINUOUS
10
5.89819
20
-3.71417
11
5.89806
21
-3.71419
0
LINE
8
BLACK
6
CONTINUOUS
10
5.89806
20
-3.71419
11
5.89729
21
-3.71375
0
LINE
8
BLACK
6
CONTINUOUS
10
5.89729
20
-3.71375
11
5.89648
21
-3.71337
0
LINE
8
BLACK
6
CONTINUOUS
10
5.89648
20
-3.71337
11
5.87448
21
-3.69137
0
LINE
8
BLACK
6
CONTINUOUS
10
5.87448
20
-3.69137
11
5.86997
21
-3.68987
0
LINE
8
BLACK
6
CONTINUOUS
10
5.86997
20
-3.68987
11
5.8674
21
-3.68987
0
LINE
8
BLACK
6
CONTINUOUS
10
5.8674
20
-3.68987
11
5.8647
21
-3.69122
0
LINE
8
BLACK
6
CONTINUOUS
10
5.8647
20
-3.69122
11
5.8635
21
-3.69241
0
LINE
8
BLACK
6
CONTINUOUS
10
5.8635
20
-3.69241
11
5.86215
21
-3.69511
0
LINE
8
BLACK
6
CONTINUOUS
10
5.86215
20
-3.69511
11
5.86215
21
-3.70309
0
LINE
8
BLACK
6
CONTINUOUS
10
5.86215
20
-3.70309
11
5.8635
21
-3.70579
0
LINE
8
BLACK
6
CONTINUOUS
10
5.8635
20
-3.70579
11
5.86504
21
-3.70732
0
LINE
8
BLACK
6
CONTINUOUS
10
5.86504
20
-3.70732
11
5.86563
21
-3.70816
0
LINE
8
BLACK
6
CONTINUOUS
10
5.86563
20
-3.70816
11
5.8658
21
-3.71018
0
LINE
8
BLACK
6
CONTINUOUS
10
5.8658
20
-3.71018
11
5.86464
21
-3.71183
0
LINE
8
BLACK
6
CONTINUOUS
10
5.86464
20
-3.71183
11
5.86269
21
-3.71235
0
LINE
8
BLACK
6
CONTINUOUS
10
5.86269
20
-3.71235
11
5.86086
21
-3.7115
0
LINE
8
BLACK
6
CONTINUOUS
10
5.86086
20
-3.7115
11
5.85899
21
-3.70962
0
LINE
8
BLACK
6
CONTINUOUS
10
5.85899
20
-3.70962
11
5.85848
21
-3.7089
0
LINE
8
BLACK
6
CONTINUOUS
10
5.85848
20
-3.7089
11
5.85843
21
-3.70886
0
LINE
8
BLACK
6
CONTINUOUS
10
5.85843
20
-3.70886
11
5.85656
21
-3.70511
0
LINE
8
BLACK
6
CONTINUOUS
10
5.85656
20
-3.70511
11
5.85627
21
-3.70412
0
LINE
8
BLACK
6
CONTINUOUS
10
5.85627
20
-3.70412
11
5.85631
21
-3.70395
0
LINE
8
BLACK
6
CONTINUOUS
10
5.85631
20
-3.70395
11
5.85625
21
-3.70379
0
LINE
8
BLACK
6
CONTINUOUS
10
5.85625
20
-3.70379
11
5.85625
21
-3.69441
0
LINE
8
BLACK
6
CONTINUOUS
10
5.85625
20
-3.69441
11
5.85643
21
-3.6934
0
LINE
8
BLACK
6
CONTINUOUS
10
5.85643
20
-3.6934
11
5.85654
21
-3.69327
0
LINE
8
BLACK
6
CONTINUOUS
10
5.85654
20
-3.69327
11
5.85656
21
-3.69309
0
LINE
8
BLACK
6
CONTINUOUS
10
5.85656
20
-3.69309
11
5.85843
21
-3.68934
0
LINE
8
BLACK
6
CONTINUOUS
10
5.85843
20
-3.68934
11
5.85896
21
-3.68863
0
LINE
8
BLACK
6
CONTINUOUS
10
5.85896
20
-3.68863
11
5.85899
21
-3.68858
0
LINE
8
BLACK
6
CONTINUOUS
10
5.85899
20
-3.68858
11
5.86086
21
-3.6867
0
LINE
8
BLACK
6
CONTINUOUS
10
5.86086
20
-3.6867
11
5.86159
21
-3.68619
0
LINE
8
BLACK
6
CONTINUOUS
10
5.86159
20
-3.68619
11
5.86163
21
-3.68615
0
LINE
8
BLACK
6
CONTINUOUS
10
5.86163
20
-3.68615
11
5.86538
21
-3.68427
0
LINE
8
BLACK
6
CONTINUOUS
10
5.86538
20
-3.68427
11
5.86636
21
-3.68398
0
LINE
8
BLACK
6
CONTINUOUS
10
5.86636
20
-3.68398
11
5.86653
21
-3.68402
0
LINE
8
BLACK
6
CONTINUOUS
10
5.86653
20
-3.68402
11
5.8667
21
-3.68396
0
LINE
8
BLACK
6
CONTINUOUS
10
5.8667
20
-3.68396
11
5.87045
21
-3.68396
0
LINE
8
BLACK
6
CONTINUOUS
10
5.87045
20
-3.68396
11
5.87132
21
-3.68411
0
LINE
8
BLACK
6
CONTINUOUS
10
5.86958
20
-3.64664
11
5.86972
21
-3.64676
0
LINE
8
BLACK
6
CONTINUOUS
10
5.86972
20
-3.64676
11
5.8699
21
-3.64678
0
LINE
8
BLACK
6
CONTINUOUS
10
5.8699
20
-3.64678
11
5.87364
21
-3.64865
0
LINE
8
BLACK
6
CONTINUOUS
10
5.87364
20
-3.64865
11
5.87435
21
-3.64918
0
LINE
8
BLACK
6
CONTINUOUS
10
5.87435
20
-3.64918
11
5.87441
21
-3.64921
0
LINE
8
BLACK
6
CONTINUOUS
10
5.87441
20
-3.64921
11
5.87607
21
-3.65087
0
LINE
8
BLACK
6
CONTINUOUS
10
5.87607
20
-3.65087
11
5.87774
21
-3.64921
0
LINE
8
BLACK
6
CONTINUOUS
10
5.87774
20
-3.64921
11
5.87846
21
-3.6487
0
LINE
8
BLACK
6
CONTINUOUS
10
5.87846
20
-3.6487
11
5.8785
21
-3.64865
0
LINE
8
BLACK
6
CONTINUOUS
10
5.8785
20
-3.64865
11
5.88225
21
-3.64678
0
LINE
8
BLACK
6
CONTINUOUS
10
5.88225
20
-3.64678
11
5.88324
21
-3.64649
0
LINE
8
BLACK
6
CONTINUOUS
10
5.88324
20
-3.64649
11
5.88341
21
-3.64653
0
LINE
8
BLACK
6
CONTINUOUS
10
5.88341
20
-3.64653
11
5.88357
21
-3.64647
0
LINE
8
BLACK
6
CONTINUOUS
10
5.88357
20
-3.64647
11
5.89107
21
-3.64647
0
LINE
8
BLACK
6
CONTINUOUS
10
5.89107
20
-3.64647
11
5.89208
21
-3.64664
0
LINE
8
BLACK
6
CONTINUOUS
10
5.89208
20
-3.64664
11
5.89222
21
-3.64676
0
LINE
8
BLACK
6
CONTINUOUS
10
5.89222
20
-3.64676
11
5.89239
21
-3.64678
0
LINE
8
BLACK
6
CONTINUOUS
10
5.89239
20
-3.64678
11
5.89614
21
-3.64865
0
LINE
8
BLACK
6
CONTINUOUS
10
5.89614
20
-3.64865
11
5.89685
21
-3.64918
0
LINE
8
BLACK
6
CONTINUOUS
10
5.89685
20
-3.64918
11
5.89691
21
-3.64921
0
LINE
8
BLACK
6
CONTINUOUS
10
5.89691
20
-3.64921
11
5.89878
21
-3.65108
0
LINE
8
BLACK
6
CONTINUOUS
10
5.89878
20
-3.65108
11
5.89929
21
-3.6518
0
LINE
8
BLACK
6
CONTINUOUS
10
5.89929
20
-3.6518
11
5.89934
21
-3.65185
0
LINE
8
BLACK
6
CONTINUOUS
10
5.89934
20
-3.65185
11
5.90121
21
-3.6556
0
LINE
8
BLACK
6
CONTINUOUS
10
5.90121
20
-3.6556
11
5.9015
21
-3.65658
0
LINE
8
BLACK
6
CONTINUOUS
10
5.9015
20
-3.65658
11
5.90146
21
-3.65675
0
LINE
8
BLACK
6
CONTINUOUS
10
5.90146
20
-3.65675
11
5.90152
21
-3.65692
0
LINE
8
BLACK
6
CONTINUOUS
10
5.90152
20
-3.65692
11
5.90152
21
-3.66442
0
LINE
8
BLACK
6
CONTINUOUS
10
5.90152
20
-3.66442
11
5.90135
21
-3.66543
0
LINE
8
BLACK
6
CONTINUOUS
10
5.90135
20
-3.66543
11
5.90123
21
-3.66556
0
LINE
8
BLACK
6
CONTINUOUS
10
5.90123
20
-3.66556
11
5.90121
21
-3.66574
0
LINE
8
BLACK
6
CONTINUOUS
10
5.90121
20
-3.66574
11
5.89934
21
-3.66949
0
LINE
8
BLACK
6
CONTINUOUS
10
5.89934
20
-3.66949
11
5.89881
21
-3.6702
0
LINE
8
BLACK
6
CONTINUOUS
10
5.89881
20
-3.6702
11
5.89878
21
-3.67025
0
LINE
8
BLACK
6
CONTINUOUS
10
5.89878
20
-3.67025
11
5.89691
21
-3.67213
0
LINE
8
BLACK
6
CONTINUOUS
10
5.89691
20
-3.67213
11
5.89619
21
-3.67264
0
LINE
8
BLACK
6
CONTINUOUS
10
5.89619
20
-3.67264
11
5.89614
21
-3.67268
0
LINE
8
BLACK
6
CONTINUOUS
10
5.89614
20
-3.67268
11
5.89239
21
-3.67456
0
LINE
8
BLACK
6
CONTINUOUS
10
5.89239
20
-3.67456
11
5.89141
21
-3.67485
0
LINE
8
BLACK
6
CONTINUOUS
10
5.89141
20
-3.67485
11
5.89124
21
-3.67481
0
LINE
8
BLACK
6
CONTINUOUS
10
5.89124
20
-3.67481
11
5.89107
21
-3.67487
0
LINE
8
BLACK
6
CONTINUOUS
10
5.89107
20
-3.67487
11
5.88357
21
-3.67487
0
LINE
8
BLACK
6
CONTINUOUS
10
5.88357
20
-3.67487
11
5.88256
21
-3.67469
0
LINE
8
BLACK
6
CONTINUOUS
10
5.88256
20
-3.67469
11
5.88243
21
-3.67458
0
LINE
8
BLACK
6
CONTINUOUS
10
5.88243
20
-3.67458
11
5.88225
21
-3.67456
0
LINE
8
BLACK
6
CONTINUOUS
10
5.88225
20
-3.67456
11
5.8785
21
-3.67268
0
LINE
8
BLACK
6
CONTINUOUS
10
5.8785
20
-3.67268
11
5.87779
21
-3.67216
0
LINE
8
BLACK
6
CONTINUOUS
10
5.87779
20
-3.67216
11
5.87774
21
-3.67213
0
LINE
8
BLACK
6
CONTINUOUS
10
5.87774
20
-3.67213
11
5.87607
21
-3.67047
0
LINE
8
BLACK
6
CONTINUOUS
10
5.87607
20
-3.67047
11
5.87441
21
-3.67213
0
LINE
8
BLACK
6
CONTINUOUS
10
5.87441
20
-3.67213
11
5.87369
21
-3.67264
0
LINE
8
BLACK
6
CONTINUOUS
10
5.87369
20
-3.67264
11
5.87364
21
-3.67268
0
LINE
8
BLACK
6
CONTINUOUS
10
5.87364
20
-3.67268
11
5.8699
21
-3.67456
0
LINE
8
BLACK
6
CONTINUOUS
10
5.8699
20
-3.67456
11
5.86891
21
-3.67485
0
LINE
8
BLACK
6
CONTINUOUS
10
5.86891
20
-3.67485
11
5.86874
21
-3.67481
0
LINE
8
BLACK
6
CONTINUOUS
10
5.86874
20
-3.67481
11
5.86857
21
-3.67487
0
LINE
8
BLACK
6
CONTINUOUS
10
5.86857
20
-3.67487
11
5.8667
21
-3.67487
0
LINE
8
BLACK
6
CONTINUOUS
10
5.8667
20
-3.67487
11
5.86569
21
-3.67469
0
LINE
8
BLACK
6
CONTINUOUS
10
5.86569
20
-3.67469
11
5.86555
21
-3.67458
0
LINE
8
BLACK
6
CONTINUOUS
10
5.86555
20
-3.67458
11
5.86538
21
-3.67456
0
LINE
8
BLACK
6
CONTINUOUS
10
5.86538
20
-3.67456
11
5.86163
21
-3.67268
0
LINE
8
BLACK
6
CONTINUOUS
10
5.86163
20
-3.67268
11
5.86092
21
-3.67216
0
LINE
8
BLACK
6
CONTINUOUS
10
5.86092
20
-3.67216
11
5.86086
21
-3.67213
0
LINE
8
BLACK
6
CONTINUOUS
10
5.86086
20
-3.67213
11
5.85899
21
-3.67025
0
LINE
8
BLACK
6
CONTINUOUS
10
5.85899
20
-3.67025
11
5.85848
21
-3.66953
0
LINE
8
BLACK
6
CONTINUOUS
10
5.85848
20
-3.66953
11
5.85843
21
-3.66949
0
LINE
8
BLACK
6
CONTINUOUS
10
5.85843
20
-3.66949
11
5.85656
21
-3.66574
0
LINE
8
BLACK
6
CONTINUOUS
10
5.85656
20
-3.66574
11
5.85627
21
-3.66475
0
LINE
8
BLACK
6
CONTINUOUS
10
5.85627
20
-3.66475
11
5.85631
21
-3.66458
0
LINE
8
BLACK
6
CONTINUOUS
10
5.85631
20
-3.66458
11
5.85625
21
-3.66442
0
LINE
8
BLACK
6
CONTINUOUS
10
5.85625
20
-3.66442
11
5.85625
21
-3.65692
0
LINE
8
BLACK
6
CONTINUOUS
10
5.85625
20
-3.65692
11
5.85643
21
-3.65591
0
LINE
8
BLACK
6
CONTINUOUS
10
5.85643
20
-3.65591
11
5.85654
21
-3.65577
0
LINE
8
BLACK
6
CONTINUOUS
10
5.85654
20
-3.65577
11
5.85656
21
-3.6556
0
LINE
8
BLACK
6
CONTINUOUS
10
5.85656
20
-3.6556
11
5.85843
21
-3.65185
0
LINE
8
BLACK
6
CONTINUOUS
10
5.85843
20
-3.65185
11
5.85896
21
-3.65114
0
LINE
8
BLACK
6
CONTINUOUS
10
5.85896
20
-3.65114
11
5.85899
21
-3.65108
0
LINE
8
BLACK
6
CONTINUOUS
10
5.85899
20
-3.65108
11
5.86086
21
-3.64921
0
LINE
8
BLACK
6
CONTINUOUS
10
5.86086
20
-3.64921
11
5.86159
21
-3.6487
0
LINE
8
BLACK
6
CONTINUOUS
10
5.86159
20
-3.6487
11
5.86163
21
-3.64865
0
LINE
8
BLACK
6
CONTINUOUS
10
5.86163
20
-3.64865
11
5.86538
21
-3.64678
0
LINE
8
BLACK
6
CONTINUOUS
10
5.86538
20
-3.64678
11
5.86636
21
-3.64649
0
LINE
8
BLACK
6
CONTINUOUS
10
5.86636
20
-3.64649
11
5.86653
21
-3.64653
0
LINE
8
BLACK
6
CONTINUOUS
10
5.86653
20
-3.64653
11
5.8667
21
-3.64647
0
LINE
8
BLACK
6
CONTINUOUS
10
5.8667
20
-3.64647
11
5.86857
21
-3.64647
0
LINE
8
BLACK
6
CONTINUOUS
10
5.86857
20
-3.64647
11
5.86958
21
-3.64664
0
LINE
8
BLACK
6
CONTINUOUS
10
5.88427
20
-3.65237
11
5.88157
21
-3.65372
0
LINE
8
BLACK
6
CONTINUOUS
10
5.88157
20
-3.65372
11
5.88038
21
-3.65492
0
LINE
8
BLACK
6
CONTINUOUS
10
5.88038
20
-3.65492
11
5.87903
21
-3.65761
0
LINE
8
BLACK
6
CONTINUOUS
10
5.87903
20
-3.65761
11
5.87903
21
-3.66372
0
LINE
8
BLACK
6
CONTINUOUS
10
5.87903
20
-3.66372
11
5.88038
21
-3.66642
0
LINE
8
BLACK
6
CONTINUOUS
10
5.88038
20
-3.66642
11
5.88157
21
-3.66761
0
LINE
8
BLACK
6
CONTINUOUS
10
5.88157
20
-3.66761
11
5.88427
21
-3.66896
0
LINE
8
BLACK
6
CONTINUOUS
10
5.88427
20
-3.66896
11
5.89037
21
-3.66896
0
LINE
8
BLACK
6
CONTINUOUS
10
5.89037
20
-3.66896
11
5.89307
21
-3.66761
0
LINE
8
BLACK
6
CONTINUOUS
10
5.89307
20
-3.66761
11
5.89427
21
-3.66642
0
LINE
8
BLACK
6
CONTINUOUS
10
5.89427
20
-3.66642
11
5.89562
21
-3.66372
0
LINE
8
BLACK
6
CONTINUOUS
10
5.89562
20
-3.66372
11
5.89562
21
-3.65761
0
LINE
8
BLACK
6
CONTINUOUS
10
5.89562
20
-3.65761
11
5.89427
21
-3.65492
0
LINE
8
BLACK
6
CONTINUOUS
10
5.89427
20
-3.65492
11
5.89307
21
-3.65372
0
LINE
8
BLACK
6
CONTINUOUS
10
5.89307
20
-3.65372
11
5.89037
21
-3.65237
0
LINE
8
BLACK
6
CONTINUOUS
10
5.89037
20
-3.65237
11
5.88427
21
-3.65237
0
LINE
8
BLACK
6
CONTINUOUS
10
5.8674
20
-3.65237
11
5.8647
21
-3.65372
0
LINE
8
BLACK
6
CONTINUOUS
10
5.8647
20
-3.65372
11
5.8635
21
-3.65492
0
LINE
8
BLACK
6
CONTINUOUS
10
5.8635
20
-3.65492
11
5.86215
21
-3.65761
0
LINE
8
BLACK
6
CONTINUOUS
10
5.86215
20
-3.65761
11
5.86215
21
-3.66372
0
LINE
8
BLACK
6
CONTINUOUS
10
5.86215
20
-3.66372
11
5.8635
21
-3.66642
0
LINE
8
BLACK
6
CONTINUOUS
10
5.8635
20
-3.66642
11
5.8647
21
-3.66761
0
LINE
8
BLACK
6
CONTINUOUS
10
5.8647
20
-3.66761
11
5.8674
21
-3.66896
0
LINE
8
BLACK
6
CONTINUOUS
10
5.8674
20
-3.66896
11
5.86788
21
-3.66896
0
LINE
8
BLACK
6
CONTINUOUS
10
5.86788
20
-3.66896
11
5.87058
21
-3.66761
0
LINE
8
BLACK
6
CONTINUOUS
10
5.87058
20
-3.66761
11
5.87177
21
-3.66642
0
LINE
8
BLACK
6
CONTINUOUS
10
5.87177
20
-3.66642
11
5.87312
21
-3.66372
0
LINE
8
BLACK
6
CONTINUOUS
10
5.87312
20
-3.66372
11
5.87312
21
-3.65761
0
LINE
8
BLACK
6
CONTINUOUS
10
5.87312
20
-3.65761
11
5.87177
21
-3.65492
0
LINE
8
BLACK
6
CONTINUOUS
10
5.87177
20
-3.65492
11
5.87058
21
-3.65372
0
LINE
8
BLACK
6
CONTINUOUS
10
5.87058
20
-3.65372
11
5.86788
21
-3.65237
0
LINE
8
BLACK
6
CONTINUOUS
10
5.86788
20
-3.65237
11
5.8674
21
-3.65237
0
LINE
8
BLACK
6
CONTINUOUS
10
5.88583
20
-3.60065
11
5.88653
21
-3.60255
0
LINE
8
BLACK
6
CONTINUOUS
10
5.88653
20
-3.60255
11
5.88653
21
-3.63255
0
LINE
8
BLACK
6
CONTINUOUS
10
5.88653
20
-3.63255
11
5.88635
21
-3.63356
0
LINE
8
BLACK
6
CONTINUOUS
10
5.88635
20
-3.63356
11
5.88505
21
-3.6351
0
LINE
8
BLACK
6
CONTINUOUS
10
5.88505
20
-3.6351
11
5.88306
21
-3.63545
0
LINE
8
BLACK
6
CONTINUOUS
10
5.88306
20
-3.63545
11
5.88131
21
-3.63444
0
LINE
8
BLACK
6
CONTINUOUS
10
5.88131
20
-3.63444
11
5.88062
21
-3.63255
0
LINE
8
BLACK
6
CONTINUOUS
10
5.88062
20
-3.63255
11
5.88062
21
-3.60255
0
LINE
8
BLACK
6
CONTINUOUS
10
5.88062
20
-3.60255
11
5.8808
21
-3.60154
0
LINE
8
BLACK
6
CONTINUOUS
10
5.8808
20
-3.60154
11
5.8821
21
-3.59999
0
LINE
8
BLACK
6
CONTINUOUS
10
5.8821
20
-3.59999
11
5.88409
21
-3.59964
0
LINE
8
BLACK
6
CONTINUOUS
10
5.88409
20
-3.59964
11
5.88583
21
-3.60065
0
LINE
8
BLACK
6
CONTINUOUS
10
5.87132
20
-3.56038
11
5.87138
21
-3.56038
0
LINE
8
BLACK
6
CONTINUOUS
10
5.87138
20
-3.56038
11
5.87701
21
-3.56225
0
LINE
8
BLACK
6
CONTINUOUS
10
5.87701
20
-3.56225
11
5.87791
21
-3.56274
0
LINE
8
BLACK
6
CONTINUOUS
10
5.87791
20
-3.56274
11
5.878
21
-3.56289
0
LINE
8
BLACK
6
CONTINUOUS
10
5.878
20
-3.56289
11
5.87816
21
-3.56297
0
LINE
8
BLACK
6
CONTINUOUS
10
5.87816
20
-3.56297
11
5.89562
21
-3.58042
0
LINE
8
BLACK
6
CONTINUOUS
10
5.89562
20
-3.58042
11
5.89562
21
-3.56318
0
LINE
8
BLACK
6
CONTINUOUS
10
5.89562
20
-3.56318
11
5.8958
21
-3.56217
0
LINE
8
BLACK
6
CONTINUOUS
10
5.8958
20
-3.56217
11
5.89709
21
-3.56062
0
LINE
8
BLACK
6
CONTINUOUS
10
5.89709
20
-3.56062
11
5.89908
21
-3.56027
0
LINE
8
BLACK
6
CONTINUOUS
10
5.89908
20
-3.56027
11
5.90083
21
-3.56128
0
LINE
8
BLACK
6
CONTINUOUS
10
5.90083
20
-3.56128
11
5.90152
21
-3.56318
0
LINE
8
BLACK
6
CONTINUOUS
10
5.90152
20
-3.56318
11
5.90152
21
-3.58755
0
LINE
8
BLACK
6
CONTINUOUS
10
5.90152
20
-3.58755
11
5.90141
21
-3.58819
0
LINE
8
BLACK
6
CONTINUOUS
10
5.90141
20
-3.58819
11
5.90142
21
-3.58832
0
LINE
8
BLACK
6
CONTINUOUS
10
5.90142
20
-3.58832
11
5.90138
21
-3.58838
0
LINE
8
BLACK
6
CONTINUOUS
10
5.90138
20
-3.58838
11
5.90135
21
-3.58856
0
LINE
8
BLACK
6
CONTINUOUS
10
5.90135
20
-3.58856
11
5.90077
21
-3.58924
0
LINE
8
BLACK
6
CONTINUOUS
10
5.90077
20
-3.58924
11
5.90026
21
-3.58997
0
LINE
8
BLACK
6
CONTINUOUS
10
5.90026
20
-3.58997
11
5.90013
21
-3.59001
0
LINE
8
BLACK
6
CONTINUOUS
10
5.90013
20
-3.59001
11
5.90005
21
-3.59011
0
LINE
8
BLACK
6
CONTINUOUS
10
5.90005
20
-3.59011
11
5.89917
21
-3.59026
0
LINE
8
BLACK
6
CONTINUOUS
10
5.89917
20
-3.59026
11
5.89831
21
-3.59049
0
LINE
8
BLACK
6
CONTINUOUS
10
5.89831
20
-3.59049
11
5.89819
21
-3.59044
0
LINE
8
BLACK
6
CONTINUOUS
10
5.89819
20
-3.59044
11
5.89806
21
-3.59046
0
LINE
8
BLACK
6
CONTINUOUS
10
5.89806
20
-3.59046
11
5.89729
21
-3.59001
0
LINE
8
BLACK
6
CONTINUOUS
10
5.89729
20
-3.59001
11
5.89648
21
-3.58964
0
LINE
8
BLACK
6
CONTINUOUS
10
5.89648
20
-3.58964
11
5.87448
21
-3.56764
0
LINE
8
BLACK
6
CONTINUOUS
10
5.87448
20
-3.56764
11
5.86997
21
-3.56613
0
LINE
8
BLACK
6
CONTINUOUS
10
5.86997
20
-3.56613
11
5.8674
21
-3.56613
0
LINE
8
BLACK
6
CONTINUOUS
10
5.8674
20
-3.56613
11
5.8647
21
-3.56748
0
LINE
8
BLACK
6
CONTINUOUS
10
5.8647
20
-3.56748
11
5.8635
21
-3.56868
0
LINE
8
BLACK
6
CONTINUOUS
10
5.8635
20
-3.56868
11
5.86215
21
-3.57138
0
LINE
8
BLACK
6
CONTINUOUS
10
5.86215
20
-3.57138
11
5.86215
21
-3.57936
0
LINE
8
BLACK
6
CONTINUOUS
10
5.86215
20
-3.57936
11
5.8635
21
-3.58205
0
LINE
8
BLACK
6
CONTINUOUS
10
5.8635
20
-3.58205
11
5.86504
21
-3.58359
0
LINE
8
BLACK
6
CONTINUOUS
10
5.86504
20
-3.58359
11
5.86563
21
-3.58443
0
LINE
8
BLACK
6
CONTINUOUS
10
5.86563
20
-3.58443
11
5.8658
21
-3.58644
0
LINE
8
BLACK
6
CONTINUOUS
10
5.8658
20
-3.58644
11
5.86464
21
-3.5881
0
LINE
8
BLACK
6
CONTINUOUS
10
5.86464
20
-3.5881
11
5.86269
21
-3.58862
0
LINE
8
BLACK
6
CONTINUOUS
10
5.86269
20
-3.58862
11
5.86086
21
-3.58776
0
LINE
8
BLACK
6
CONTINUOUS
10
5.86086
20
-3.58776
11
5.85899
21
-3.58589
0
LINE
8
BLACK
6
CONTINUOUS
10
5.85899
20
-3.58589
11
5.85848
21
-3.58517
0
LINE
8
BLACK
6
CONTINUOUS
10
5.85848
20
-3.58517
11
5.85843
21
-3.58512
0
LINE
8
BLACK
6
CONTINUOUS
10
5.85843
20
-3.58512
11
5.85656
21
-3.58137
0
LINE
8
BLACK
6
CONTINUOUS
10
5.85656
20
-3.58137
11
5.85627
21
-3.58039
0
LINE
8
BLACK
6
CONTINUOUS
10
5.85627
20
-3.58039
11
5.85631
21
-3.58022
0
LINE
8
BLACK
6
CONTINUOUS
10
5.85631
20
-3.58022
11
5.85625
21
-3.58005
0
LINE
8
BLACK
6
CONTINUOUS
10
5.85625
20
-3.58005
11
5.85625
21
-3.57068
0
LINE
8
BLACK
6
CONTINUOUS
10
5.85625
20
-3.57068
11
5.85643
21
-3.56967
0
LINE
8
BLACK
6
CONTINUOUS
10
5.85643
20
-3.56967
11
5.85654
21
-3.56953
0
LINE
8
BLACK
6
CONTINUOUS
10
5.85654
20
-3.56953
11
5.85656
21
-3.56936
0
LINE
8
BLACK
6
CONTINUOUS
10
5.85656
20
-3.56936
11
5.85843
21
-3.56561
0
LINE
8
BLACK
6
CONTINUOUS
10
5.85843
20
-3.56561
11
5.85896
21
-3.5649
0
LINE
8
BLACK
6
CONTINUOUS
10
5.85896
20
-3.5649
11
5.85899
21
-3.56484
0
LINE
8
BLACK
6
CONTINUOUS
10
5.85899
20
-3.56484
11
5.86086
21
-3.56297
0
LINE
8
BLACK
6
CONTINUOUS
10
5.86086
20
-3.56297
11
5.86159
21
-3.56246
0
LINE
8
BLACK
6
CONTINUOUS
10
5.86159
20
-3.56246
11
5.86163
21
-3.56241
0
LINE
8
BLACK
6
CONTINUOUS
10
5.86163
20
-3.56241
11
5.86538
21
-3.56054
0
LINE
8
BLACK
6
CONTINUOUS
10
5.86538
20
-3.56054
11
5.86636
21
-3.56025
0
LINE
8
BLACK
6
CONTINUOUS
10
5.86636
20
-3.56025
11
5.86653
21
-3.56029
0
LINE
8
BLACK
6
CONTINUOUS
10
5.86653
20
-3.56029
11
5.8667
21
-3.56023
0
LINE
8
BLACK
6
CONTINUOUS
10
5.8667
20
-3.56023
11
5.87045
21
-3.56023
0
LINE
8
BLACK
6
CONTINUOUS
10
5.87045
20
-3.56023
11
5.87132
21
-3.56038
0
LINE
8
BLACK
6
CONTINUOUS
10
5.88415
20
-3.52283
11
5.88429
21
-3.52282
0
LINE
8
BLACK
6
CONTINUOUS
10
5.88429
20
-3.52282
11
5.89179
21
-3.52469
0
LINE
8
BLACK
6
CONTINUOUS
10
5.89179
20
-3.52469
11
5.89225
21
-3.5249
0
LINE
8
BLACK
6
CONTINUOUS
10
5.89225
20
-3.5249
11
5.89239
21
-3.52492
0
LINE
8
BLACK
6
CONTINUOUS
10
5.89239
20
-3.52492
11
5.89614
21
-3.52679
0
LINE
8
BLACK
6
CONTINUOUS
10
5.89614
20
-3.52679
11
5.89685
21
-3.52732
0
LINE
8
BLACK
6
CONTINUOUS
10
5.89685
20
-3.52732
11
5.89691
21
-3.52735
0
LINE
8
BLACK
6
CONTINUOUS
10
5.89691
20
-3.52735
11
5.89878
21
-3.52922
0
LINE
8
BLACK
6
CONTINUOUS
10
5.89878
20
-3.52922
11
5.89929
21
-3.52994
0
LINE
8
BLACK
6
CONTINUOUS
10
5.89929
20
-3.52994
11
5.89934
21
-3.52999
0
LINE
8
BLACK
6
CONTINUOUS
10
5.89934
20
-3.52999
11
5.90121
21
-3.53374
0
LINE
8
BLACK
6
CONTINUOUS
10
5.90121
20
-3.53374
11
5.9015
21
-3.53472
0
LINE
8
BLACK
6
CONTINUOUS
10
5.9015
20
-3.53472
11
5.90146
21
-3.53489
0
LINE
8
BLACK
6
CONTINUOUS
10
5.90146
20
-3.53489
11
5.90152
21
-3.53506
0
LINE
8
BLACK
6
CONTINUOUS
10
5.90152
20
-3.53506
11
5.90152
21
-3.53881
0
LINE
8
BLACK
6
CONTINUOUS
10
5.90152
20
-3.53881
11
5.90135
21
-3.53982
0
LINE
8
BLACK
6
CONTINUOUS
10
5.90135
20
-3.53982
11
5.90123
21
-3.53995
0
LINE
8
BLACK
6
CONTINUOUS
10
5.90123
20
-3.53995
11
5.90121
21
-3.54013
0
LINE
8
BLACK
6
CONTINUOUS
10
5.90121
20
-3.54013
11
5.89934
21
-3.54388
0
LINE
8
BLACK
6
CONTINUOUS
10
5.89934
20
-3.54388
11
5.89881
21
-3.54459
0
LINE
8
BLACK
6
CONTINUOUS
10
5.89881
20
-3.54459
11
5.89878
21
-3.54464
0
LINE
8
BLACK
6
CONTINUOUS
10
5.89878
20
-3.54464
11
5.89691
21
-3.54652
0
LINE
8
BLACK
6
CONTINUOUS
10
5.89691
20
-3.54652
11
5.89619
21
-3.54703
0
LINE
8
BLACK
6
CONTINUOUS
10
5.89619
20
-3.54703
11
5.89614
21
-3.54707
0
LINE
8
BLACK
6
CONTINUOUS
10
5.89614
20
-3.54707
11
5.89239
21
-3.54895
0
LINE
8
BLACK
6
CONTINUOUS
10
5.89239
20
-3.54895
11
5.8919
21
-3.54909
0
LINE
8
BLACK
6
CONTINUOUS
10
5.8919
20
-3.54909
11
5.89179
21
-3.54917
0
LINE
8
BLACK
6
CONTINUOUS
10
5.89179
20
-3.54917
11
5.88429
21
-3.55105
0
LINE
8
BLACK
6
CONTINUOUS
10
5.88429
20
-3.55105
11
5.8837
21
-3.55109
0
LINE
8
BLACK
6
CONTINUOUS
10
5.8837
20
-3.55109
11
5.88357
21
-3.55113
0
LINE
8
BLACK
6
CONTINUOUS
10
5.88357
20
-3.55113
11
5.8742
21
-3.55113
0
LINE
8
BLACK
6
CONTINUOUS
10
5.8742
20
-3.55113
11
5.87362
21
-3.55103
0
LINE
8
BLACK
6
CONTINUOUS
10
5.87362
20
-3.55103
11
5.87348
21
-3.55105
0
LINE
8
BLACK
6
CONTINUOUS
10
5.87348
20
-3.55105
11
5.86598
21
-3.54917
0
LINE
8
BLACK
6
CONTINUOUS
10
5.86598
20
-3.54917
11
5.86552
21
-3.54896
0
LINE
8
BLACK
6
CONTINUOUS
10
5.86552
20
-3.54896
11
5.86538
21
-3.54895
0
LINE
8
BLACK
6
CONTINUOUS
10
5.86538
20
-3.54895
11
5.86163
21
-3.54707
0
LINE
8
BLACK
6
CONTINUOUS
10
5.86163
20
-3.54707
11
5.86092
21
-3.54655
0
LINE
8
BLACK
6
CONTINUOUS
10
5.86092
20
-3.54655
11
5.86086
21
-3.54652
0
LINE
8
BLACK
6
CONTINUOUS
10
5.86086
20
-3.54652
11
5.85899
21
-3.54464
0
LINE
8
BLACK
6
CONTINUOUS
10
5.85899
20
-3.54464
11
5.85848
21
-3.54392
0
LINE
8
BLACK
6
CONTINUOUS
10
5.85848
20
-3.54392
11
5.85843
21
-3.54388
0
LINE
8
BLACK
6
CONTINUOUS
10
5.85843
20
-3.54388
11
5.85656
21
-3.54013
0
LINE
8
BLACK
6
CONTINUOUS
10
5.85656
20
-3.54013
11
5.85627
21
-3.53915
0
LINE
8
BLACK
6
CONTINUOUS
10
5.85627
20
-3.53915
11
5.85631
21
-3.53897
0
LINE
8
BLACK
6
CONTINUOUS
10
5.85631
20
-3.53897
11
5.85625
21
-3.53881
0
LINE
8
BLACK
6
CONTINUOUS
10
5.85625
20
-3.53881
11
5.85625
21
-3.53506
0
LINE
8
BLACK
6
CONTINUOUS
10
5.85625
20
-3.53506
11
5.85643
21
-3.53405
0
LINE
8
BLACK
6
CONTINUOUS
10
5.85643
20
-3.53405
11
5.85654
21
-3.53391
0
LINE
8
BLACK
6
CONTINUOUS
10
5.85654
20
-3.53391
11
5.85656
21
-3.53374
0
LINE
8
BLACK
6
CONTINUOUS
10
5.85656
20
-3.53374
11
5.85843
21
-3.52999
0
LINE
8
BLACK
6
CONTINUOUS
10
5.85843
20
-3.52999
11
5.85896
21
-3.52928
0
LINE
8
BLACK
6
CONTINUOUS
10
5.85896
20
-3.52928
11
5.85899
21
-3.52922
0
LINE
8
BLACK
6
CONTINUOUS
10
5.85899
20
-3.52922
11
5.86086
21
-3.52735
0
LINE
8
BLACK
6
CONTINUOUS
10
5.86086
20
-3.52735
11
5.86159
21
-3.52684
0
LINE
8
BLACK
6
CONTINUOUS
10
5.86159
20
-3.52684
11
5.86163
21
-3.52679
0
LINE
8
BLACK
6
CONTINUOUS
10
5.86163
20
-3.52679
11
5.86538
21
-3.52492
0
LINE
8
BLACK
6
CONTINUOUS
10
5.86538
20
-3.52492
11
5.86587
21
-3.52477
0
LINE
8
BLACK
6
CONTINUOUS
10
5.86587
20
-3.52477
11
5.86598
21
-3.52469
0
LINE
8
BLACK
6
CONTINUOUS
10
5.86598
20
-3.52469
11
5.87348
21
-3.52282
0
LINE
8
BLACK
6
CONTINUOUS
10
5.87348
20
-3.52282
11
5.87407
21
-3.52278
0
LINE
8
BLACK
6
CONTINUOUS
10
5.87407
20
-3.52278
11
5.8742
21
-3.52273
0
LINE
8
BLACK
6
CONTINUOUS
10
5.8742
20
-3.52273
11
5.88357
21
-3.52273
0
LINE
8
BLACK
6
CONTINUOUS
10
5.88357
20
-3.52273
11
5.88415
21
-3.52283
0
LINE
8
BLACK
6
CONTINUOUS
10
5.87456
20
-3.52864
11
5.86773
21
-3.53034
0
LINE
8
BLACK
6
CONTINUOUS
10
5.86773
20
-3.53034
11
5.8647
21
-3.53186
0
LINE
8
BLACK
6
CONTINUOUS
10
5.8647
20
-3.53186
11
5.8635
21
-3.53306
0
LINE
8
BLACK
6
CONTINUOUS
10
5.8635
20
-3.53306
11
5.86215
21
-3.53576
0
LINE
8
BLACK
6
CONTINUOUS
10
5.86215
20
-3.53576
11
5.86215
21
-3.53811
0
LINE
8
BLACK
6
CONTINUOUS
10
5.86215
20
-3.53811
11
5.8635
21
-3.54081
0
LINE
8
BLACK
6
CONTINUOUS
10
5.8635
20
-3.54081
11
5.8647
21
-3.54201
0
LINE
8
BLACK
6
CONTINUOUS
10
5.8647
20
-3.54201
11
5.86773
21
-3.54352
0
LINE
8
BLACK
6
CONTINUOUS
10
5.86773
20
-3.54352
11
5.87456
21
-3.54523
0
LINE
8
BLACK
6
CONTINUOUS
10
5.87456
20
-3.54523
11
5.88321
21
-3.54523
0
LINE
8
BLACK
6
CONTINUOUS
10
5.88321
20
-3.54523
11
5.89004
21
-3.54352
0
LINE
8
BLACK
6
CONTINUOUS
10
5.89004
20
-3.54352
11
5.89307
21
-3.54201
0
LINE
8
BLACK
6
CONTINUOUS
10
5.89307
20
-3.54201
11
5.89427
21
-3.54081
0
LINE
8
BLACK
6
CONTINUOUS
10
5.89427
20
-3.54081
11
5.89562
21
-3.53811
0
LINE
8
BLACK
6
CONTINUOUS
10
5.89562
20
-3.53811
11
5.89562
21
-3.53575
0
LINE
8
BLACK
6
CONTINUOUS
10
5.89562
20
-3.53575
11
5.89427
21
-3.53306
0
LINE
8
BLACK
6
CONTINUOUS
10
5.89427
20
-3.53306
11
5.89307
21
-3.53186
0
LINE
8
BLACK
6
CONTINUOUS
10
5.89307
20
-3.53186
11
5.89004
21
-3.53034
0
LINE
8
BLACK
6
CONTINUOUS
10
5.89004
20
-3.53034
11
5.88321
21
-3.52864
0
LINE
8
BLACK
6
CONTINUOUS
10
5.88321
20
-3.52864
11
5.87456
21
-3.52864
0
LINE
8
BLACK
6
CONTINUOUS
10
5.89208
20
-3.48541
11
5.89222
21
-3.48553
0
LINE
8
BLACK
6
CONTINUOUS
10
5.89222
20
-3.48553
11
5.89239
21
-3.48555
0
LINE
8
BLACK
6
CONTINUOUS
10
5.89239
20
-3.48555
11
5.89614
21
-3.48742
0
LINE
8
BLACK
6
CONTINUOUS
10
5.89614
20
-3.48742
11
5.89685
21
-3.48795
0
LINE
8
BLACK
6
CONTINUOUS
10
5.89685
20
-3.48795
11
5.89691
21
-3.48798
0
LINE
8
BLACK
6
CONTINUOUS
10
5.89691
20
-3.48798
11
5.89878
21
-3.48985
0
LINE
8
BLACK
6
CONTINUOUS
10
5.89878
20
-3.48985
11
5.89929
21
-3.49057
0
LINE
8
BLACK
6
CONTINUOUS
10
5.89929
20
-3.49057
11
5.89934
21
-3.49062
0
LINE
8
BLACK
6
CONTINUOUS
10
5.89934
20
-3.49062
11
5.90121
21
-3.49437
0
LINE
8
BLACK
6
CONTINUOUS
10
5.90121
20
-3.49437
11
5.9015
21
-3.49535
0
LINE
8
BLACK
6
CONTINUOUS
10
5.9015
20
-3.49535
11
5.90146
21
-3.49552
0
LINE
8
BLACK
6
CONTINUOUS
10
5.90146
20
-3.49552
11
5.90152
21
-3.49569
0
LINE
8
BLACK
6
CONTINUOUS
10
5.90152
20
-3.49569
11
5.90152
21
-3.50694
0
LINE
8
BLACK
6
CONTINUOUS
10
5.90152
20
-3.50694
11
5.90135
21
-3.50795
0
LINE
8
BLACK
6
CONTINUOUS
10
5.90135
20
-3.50795
11
5.90123
21
-3.50808
0
LINE
8
BLACK
6
CONTINUOUS
10
5.90123
20
-3.50808
11
5.90121
21
-3.50826
0
LINE
8
BLACK
6
CONTINUOUS
10
5.90121
20
-3.50826
11
5.89934
21
-3.51201
0
LINE
8
BLACK
6
CONTINUOUS
10
5.89934
20
-3.51201
11
5.89881
21
-3.51272
0
LINE
8
BLACK
6
CONTINUOUS
10
5.89881
20
-3.51272
11
5.89878
21
-3.51277
0
LINE
8
BLACK
6
CONTINUOUS
10
5.89878
20
-3.51277
11
5.89691
21
-3.51465
0
LINE
8
BLACK
6
CONTINUOUS
10
5.89691
20
-3.51465
11
5.89607
21
-3.51524
0
LINE
8
BLACK
6
CONTINUOUS
10
5.89607
20
-3.51524
11
5.89406
21
-3.51541
0
LINE
8
BLACK
6
CONTINUOUS
10
5.89406
20
-3.51541
11
5.8924
21
-3.51425
0
LINE
8
BLACK
6
CONTINUOUS
10
5.8924
20
-3.51425
11
5.89188
21
-3.5123
0
LINE
8
BLACK
6
CONTINUOUS
10
5.89188
20
-3.5123
11
5.89273
21
-3.51047
0
LINE
8
BLACK
6
CONTINUOUS
10
5.89273
20
-3.51047
11
5.89427
21
-3.50894
0
LINE
8
BLACK
6
CONTINUOUS
10
5.89427
20
-3.50894
11
5.89562
21
-3.50624
0
LINE
8
BLACK
6
CONTINUOUS
10
5.89562
20
-3.50624
11
5.89562
21
-3.49638
0
LINE
8
BLACK
6
CONTINUOUS
10
5.89562
20
-3.49638
11
5.89427
21
-3.49369
0
LINE
8
BLACK
6
CONTINUOUS
10
5.89427
20
-3.49369
11
5.89307
21
-3.49249
0
LINE
8
BLACK
6
CONTINUOUS
10
5.89307
20
-3.49249
11
5.89037
21
-3.49114
0
LINE
8
BLACK
6
CONTINUOUS
10
5.89037
20
-3.49114
11
5.8824
21
-3.49114
0
LINE
8
BLACK
6
CONTINUOUS
10
5.8824
20
-3.49114
11
5.8797
21
-3.49249
0
LINE
8
BLACK
6
CONTINUOUS
10
5.8797
20
-3.49249
11
5.8785
21
-3.49369
0
LINE
8
BLACK
6
CONTINUOUS
10
5.8785
20
-3.49369
11
5.87715
21
-3.49638
0
LINE
8
BLACK
6
CONTINUOUS
10
5.87715
20
-3.49638
11
5.87715
21
-3.50131
0
LINE
8
BLACK
6
CONTINUOUS
10
5.87715
20
-3.50131
11
5.87707
21
-3.50175
0
LINE
8
BLACK
6
CONTINUOUS
10
5.87707
20
-3.50175
11
5.8771
21
-3.50189
0
LINE
8
BLACK
6
CONTINUOUS
10
5.8771
20
-3.50189
11
5.87703
21
-3.50199
0
LINE
8
BLACK
6
CONTINUOUS
10
5.87703
20
-3.50199
11
5.87697
21
-3.50232
0
LINE
8
BLACK
6
CONTINUOUS
10
5.87697
20
-3.50232
11
5.87646
21
-3.50293
0
LINE
8
BLACK
6
CONTINUOUS
10
5.87646
20
-3.50293
11
5.87605
21
-3.50361
0
LINE
8
BLACK
6
CONTINUOUS
10
5.87605
20
-3.50361
11
5.87583
21
-3.50369
0
LINE
8
BLACK
6
CONTINUOUS
10
5.87583
20
-3.50369
11
5.87568
21
-3.50387
0
LINE
8
BLACK
6
CONTINUOUS
10
5.87568
20
-3.50387
11
5.87489
21
-3.50401
0
LINE
8
BLACK
6
CONTINUOUS
10
5.87489
20
-3.50401
11
5.87414
21
-3.50426
0
LINE
8
BLACK
6
CONTINUOUS
10
5.87414
20
-3.50426
11
5.87392
21
-3.50418
0
LINE
8
BLACK
6
CONTINUOUS
10
5.87392
20
-3.50418
11
5.87369
21
-3.50422
0
LINE
8
BLACK
6
CONTINUOUS
10
5.87369
20
-3.50422
11
5.873
21
-3.50382
0
LINE
8
BLACK
6
CONTINUOUS
10
5.873
20
-3.50382
11
5.87225
21
-3.50353
0
LINE
8
BLACK
6
CONTINUOUS
10
5.87225
20
-3.50353
11
5.86215
21
-3.4947
0
LINE
8
BLACK
6
CONTINUOUS
10
5.86215
20
-3.4947
11
5.86215
21
-3.51256
0
LINE
8
BLACK
6
CONTINUOUS
10
5.86215
20
-3.51256
11
5.86198
21
-3.51357
0
LINE
8
BLACK
6
CONTINUOUS
10
5.86198
20
-3.51357
11
5.86068
21
-3.51512
0
LINE
8
BLACK
6
CONTINUOUS
10
5.86068
20
-3.51512
11
5.85869
21
-3.51547
0
LINE
8
BLACK
6
CONTINUOUS
10
5.85869
20
-3.51547
11
5.85694
21
-3.51446
0
LINE
8
BLACK
6
CONTINUOUS
10
5.85694
20
-3.51446
11
5.85625
21
-3.51256
0
LINE
8
BLACK
6
CONTINUOUS
10
5.85625
20
-3.51256
11
5.85625
21
-3.48819
0
LINE
8
BLACK
6
CONTINUOUS
10
5.85625
20
-3.48819
11
5.85633
21
-3.48775
0
LINE
8
BLACK
6
CONTINUOUS
10
5.85633
20
-3.48775
11
5.8563
21
-3.48762
0
LINE
8
BLACK
6
CONTINUOUS
10
5.8563
20
-3.48762
11
5.85637
21
-3.48751
0
LINE
8
BLACK
6
CONTINUOUS
10
5.85637
20
-3.48751
11
5.85643
21
-3.48718
0
LINE
8
BLACK
6
CONTINUOUS
10
5.85643
20
-3.48718
11
5.85694
21
-3.48657
0
LINE
8
BLACK
6
CONTINUOUS
10
5.85694
20
-3.48657
11
5.85735
21
-3.48589
0
LINE
8
BLACK
6
CONTINUOUS
10
5.85735
20
-3.48589
11
5.85757
21
-3.48581
0
LINE
8
BLACK
6
CONTINUOUS
10
5.85757
20
-3.48581
11
5.85772
21
-3.48563
0
LINE
8
BLACK
6
CONTINUOUS
10
5.85772
20
-3.48563
11
5.85851
21
-3.48549
0
LINE
8
BLACK
6
CONTINUOUS
10
5.85851
20
-3.48549
11
5.85926
21
-3.48524
0
LINE
8
BLACK
6
CONTINUOUS
10
5.85926
20
-3.48524
11
5.85948
21
-3.48532
0
LINE
8
BLACK
6
CONTINUOUS
10
5.85948
20
-3.48532
11
5.85971
21
-3.48528
0
LINE
8
BLACK
6
CONTINUOUS
10
5.85971
20
-3.48528
11
5.8604
21
-3.48568
0
LINE
8
BLACK
6
CONTINUOUS
10
5.8604
20
-3.48568
11
5.86115
21
-3.48597
0
LINE
8
BLACK
6
CONTINUOUS
10
5.86115
20
-3.48597
11
5.87138
21
-3.49492
0
LINE
8
BLACK
6
CONTINUOUS
10
5.87138
20
-3.49492
11
5.87142
21
-3.49468
0
LINE
8
BLACK
6
CONTINUOUS
10
5.87142
20
-3.49468
11
5.87154
21
-3.49454
0
LINE
8
BLACK
6
CONTINUOUS
10
5.87154
20
-3.49454
11
5.87156
21
-3.49437
0
LINE
8
BLACK
6
CONTINUOUS
10
5.87156
20
-3.49437
11
5.87343
21
-3.49062
0
LINE
8
BLACK
6
CONTINUOUS
10
5.87343
20
-3.49062
11
5.87396
21
-3.48991
0
LINE
8
BLACK
6
CONTINUOUS
10
5.87396
20
-3.48991
11
5.87399
21
-3.48985
0
LINE
8
BLACK
6
CONTINUOUS
10
5.87399
20
-3.48985
11
5.87586
21
-3.48798
0
LINE
8
BLACK
6
CONTINUOUS
10
5.87586
20
-3.48798
11
5.87658
21
-3.48747
0
LINE
8
BLACK
6
CONTINUOUS
10
5.87658
20
-3.48747
11
5.87663
21
-3.48742
0
LINE
8
BLACK
6
CONTINUOUS
10
5.87663
20
-3.48742
11
5.88038
21
-3.48555
0
LINE
8
BLACK
6
CONTINUOUS
10
5.88038
20
-3.48555
11
5.88136
21
-3.48526
0
LINE
8
BLACK
6
CONTINUOUS
10
5.88136
20
-3.48526
11
5.88153
21
-3.4853
0
LINE
8
BLACK
6
CONTINUOUS
10
5.88153
20
-3.4853
11
5.8817
21
-3.48524
0
LINE
8
BLACK
6
CONTINUOUS
10
5.8817
20
-3.48524
11
5.89107
21
-3.48524
0
LINE
8
BLACK
6
CONTINUOUS
10
5.89107
20
-3.48524
11
5.89208
21
-3.48541
0
LINE
8
BLACK
6
CONTINUOUS
10
5.87132
20
-3.44789
11
5.87138
21
-3.44789
0
LINE
8
BLACK
6
CONTINUOUS
10
5.87138
20
-3.44789
11
5.87701
21
-3.44977
0
LINE
8
BLACK
6
CONTINUOUS
10
5.87701
20
-3.44977
11
5.87791
21
-3.45026
0
LINE
8
BLACK
6
CONTINUOUS
10
5.87791
20
-3.45026
11
5.878
21
-3.45041
0
LINE
8
BLACK
6
CONTINUOUS
10
5.878
20
-3.45041
11
5.87816
21
-3.45048
0
LINE
8
BLACK
6
CONTINUOUS
10
5.87816
20
-3.45048
11
5.89562
21
-3.46794
0
LINE
8
BLACK
6
CONTINUOUS
10
5.89562
20
-3.46794
11
5.89562
21
-3.45069
0
LINE
8
BLACK
6
CONTINUOUS
10
5.89562
20
-3.45069
11
5.8958
21
-3.44968
0
LINE
8
BLACK
6
CONTINUOUS
10
5.8958
20
-3.44968
11
5.89709
21
-3.44814
0
LINE
8
BLACK
6
CONTINUOUS
10
5.89709
20
-3.44814
11
5.89908
21
-3.44779
0
LINE
8
BLACK
6
CONTINUOUS
10
5.89908
20
-3.44779
11
5.90083
21
-3.4488
0
LINE
8
BLACK
6
CONTINUOUS
10
5.90083
20
-3.4488
11
5.90152
21
-3.45069
0
LINE
8
BLACK
6
CONTINUOUS
10
5.90152
20
-3.45069
11
5.90152
21
-3.47507
0
LINE
8
BLACK
6
CONTINUOUS
10
5.90152
20
-3.47507
11
5.90141
21
-3.4757
0
LINE
8
BLACK
6
CONTINUOUS
10
5.90141
20
-3.4757
11
5.90142
21
-3.47583
0
LINE
8
BLACK
6
CONTINUOUS
10
5.90142
20
-3.47583
11
5.90138
21
-3.47589
0
LINE
8
BLACK
6
CONTINUOUS
10
5.90138
20
-3.47589
11
5.90135
21
-3.47608
0
LINE
8
BLACK
6
CONTINUOUS
10
5.90135
20
-3.47608
11
5.90077
21
-3.47676
0
LINE
8
BLACK
6
CONTINUOUS
10
5.90077
20
-3.47676
11
5.90026
21
-3.47748
0
LINE
8
BLACK
6
CONTINUOUS
10
5.90026
20
-3.47748
11
5.90013
21
-3.47752
0
LINE
8
BLACK
6
CONTINUOUS
10
5.90013
20
-3.47752
11
5.90005
21
-3.47762
0
LINE
8
BLACK
6
CONTINUOUS
10
5.90005
20
-3.47762
11
5.89917
21
-3.47778
0
LINE
8
BLACK
6
CONTINUOUS
10
5.89917
20
-3.47778
11
5.89831
21
-3.47801
0
LINE
8
BLACK
6
CONTINUOUS
10
5.89831
20
-3.47801
11
5.89819
21
-3.47795
0
LINE
8
BLACK
6
CONTINUOUS
10
5.89819
20
-3.47795
11
5.89806
21
-3.47797
0
LINE
8
BLACK
6
CONTINUOUS
10
5.89806
20
-3.47797
11
5.89729
21
-3.47753
0
LINE
8
BLACK
6
CONTINUOUS
10
5.89729
20
-3.47753
11
5.89648
21
-3.47715
0
LINE
8
BLACK
6
CONTINUOUS
10
5.89648
20
-3.47715
11
5.87448
21
-3.45515
0
LINE
8
BLACK
6
CONTINUOUS
10
5.87448
20
-3.45515
11
5.86997
21
-3.45365
0
LINE
8
BLACK
6
CONTINUOUS
10
5.86997
20
-3.45365
11
5.8674
21
-3.45365
0
LINE
8
BLACK
6
CONTINUOUS
10
5.8674
20
-3.45365
11
5.8647
21
-3.45499
0
LINE
8
BLACK
6
CONTINUOUS
10
5.8647
20
-3.45499
11
5.8635
21
-3.45619
0
LINE
8
BLACK
6
CONTINUOUS
10
5.8635
20
-3.45619
11
5.86215
21
-3.45889
0
LINE
8
BLACK
6
CONTINUOUS
10
5.86215
20
-3.45889
11
5.86215
21
-3.46687
0
LINE
8
BLACK
6
CONTINUOUS
10
5.86215
20
-3.46687
11
5.8635
21
-3.46957
0
LINE
8
BLACK
6
CONTINUOUS
10
5.8635
20
-3.46957
11
5.86504
21
-3.4711
0
LINE
8
BLACK
6
CONTINUOUS
10
5.86504
20
-3.4711
11
5.86563
21
-3.47194
0
LINE
8
BLACK
6
CONTINUOUS
10
5.86563
20
-3.47194
11
5.8658
21
-3.47395
0
LINE
8
BLACK
6
CONTINUOUS
10
5.8658
20
-3.47395
11
5.86464
21
-3.47561
0
LINE
8
BLACK
6
CONTINUOUS
10
5.86464
20
-3.47561
11
5.86269
21
-3.47613
0
LINE
8
BLACK
6
CONTINUOUS
10
5.86269
20
-3.47613
11
5.86086
21
-3.47528
0
LINE
8
BLACK
6
CONTINUOUS
10
5.86086
20
-3.47528
11
5.85899
21
-3.4734
0
LINE
8
BLACK
6
CONTINUOUS
10
5.85899
20
-3.4734
11
5.85848
21
-3.47268
0
LINE
8
BLACK
6
CONTINUOUS
10
5.85848
20
-3.47268
11
5.85843
21
-3.47264
0
LINE
8
BLACK
6
CONTINUOUS
10
5.85843
20
-3.47264
11
5.85656
21
-3.46889
0
LINE
8
BLACK
6
CONTINUOUS
10
5.85656
20
-3.46889
11
5.85627
21
-3.4679
0
LINE
8
BLACK
6
CONTINUOUS
10
5.85627
20
-3.4679
11
5.85631
21
-3.46773
0
LINE
8
BLACK
6
CONTINUOUS
10
5.85631
20
-3.46773
11
5.85625
21
-3.46757
0
LINE
8
BLACK
6
CONTINUOUS
10
5.85625
20
-3.46757
11
5.85625
21
-3.45819
0
LINE
8
BLACK
6
CONTINUOUS
10
5.85625
20
-3.45819
11
5.85643
21
-3.45718
0
LINE
8
BLACK
6
CONTINUOUS
10
5.85643
20
-3.45718
11
5.85654
21
-3.45705
0
LINE
8
BLACK
6
CONTINUOUS
10
5.85654
20
-3.45705
11
5.85656
21
-3.45687
0
LINE
8
BLACK
6
CONTINUOUS
10
5.85656
20
-3.45687
11
5.85843
21
-3.45312
0
LINE
8
BLACK
6
CONTINUOUS
10
5.85843
20
-3.45312
11
5.85896
21
-3.45241
0
LINE
8
BLACK
6
CONTINUOUS
10
5.85896
20
-3.45241
11
5.85899
21
-3.45236
0
LINE
8
BLACK
6
CONTINUOUS
10
5.85899
20
-3.45236
11
5.86086
21
-3.45048
0
LINE
8
BLACK
6
CONTINUOUS
10
5.86086
20
-3.45048
11
5.86159
21
-3.44997
0
LINE
8
BLACK
6
CONTINUOUS
10
5.86159
20
-3.44997
11
5.86163
21
-3.44993
0
LINE
8
BLACK
6
CONTINUOUS
10
5.86163
20
-3.44993
11
5.86538
21
-3.44805
0
LINE
8
BLACK
6
CONTINUOUS
10
5.86538
20
-3.44805
11
5.86636
21
-3.44776
0
LINE
8
BLACK
6
CONTINUOUS
10
5.86636
20
-3.44776
11
5.86653
21
-3.4478
0
LINE
8
BLACK
6
CONTINUOUS
10
5.86653
20
-3.4478
11
5.8667
21
-3.44774
0
LINE
8
BLACK
6
CONTINUOUS
10
5.8667
20
-3.44774
11
5.87045
21
-3.44774
0
LINE
8
BLACK
6
CONTINUOUS
10
5.87045
20
-3.44774
11
5.87132
21
-3.44789
  0
ENDSEC
  0
EOF
