  0
SECTION
  2
HEADER
  9
$ANGBASE
  50
0.0
  9
$ANGDIR
  70
1
  9
$MEASUREMENT
  70
0
  0
ENDSEC
  0
SECTION
  2
TABLES
  0
TABLE
  2
LTYPE
  70
4
  0
LTYPE
  5
40F
  2
CONTINUOUS
  70
0
  3
Solid line
  72
65
  73
0
  40
0.0
  0
LTYPE
  5
410
  2
DASHDOT
 70
0
  3
Dash Dot ____ _ ____ _
 72
65
 73
4
 40
2.0
 49
1.25
 49
-0.25
 49
0.25
 49
-0.25
  0
LTYPE
  5
411
  2
DASHED
 70
0
  3
Dashed __ __ __ __ __
 72
65
 73
2
 40
0.75
 49
0.5
 49
-0.25
  0
LTYPE
  5
43B
  2
DOTTED
 70
0
  3
Dotted .  .  .  .
 72
65
 73
2
 40
0.2
 49
0.0
 49
-0.2
  0
ENDTAB
  0
TABLE
  2
STYLE
  70
4
  0
STYLE
  2
KICAD
  70
0
  40
0
  41
1
  42
1
  50
0
  71
0
  3
isocp.shx
  0
STYLE
  2
KICADB
  70
0
  40
0
  41
1
  42
1
  50
0
  71
0
  3
isocp.shx
  0
STYLE
  2
KICADI
  70
0
  40
0
  41
1
  42
1
  50
15
  71
0
  3
isocp.shx
  0
STYLE
  2
KICADBI
  70
0
  40
0
  41
1
  42
1
  50
15
  71
0
  3
isocp.shx
  0
ENDTAB
  0
TABLE
  2
LAYER
  70
1
  0
LAYER
  2
BLACK
  70
0
  62
7
  6
CONTINUOUS
  0
ENDTAB
  0
ENDSEC
  0
SECTION
  2
ENTITIES
0
LINE
8
BLACK
6
CONTINUOUS
10
6.70167
20
-2.86717
11
6.70229
21
-2.86717
0
LINE
8
BLACK
6
CONTINUOUS
10
6.70229
20
-2.86717
11
6.7028
21
-2.86753
0
LINE
8
BLACK
6
CONTINUOUS
10
6.7028
20
-2.86753
11
6.70339
21
-2.86773
0
LINE
8
BLACK
6
CONTINUOUS
10
6.70339
20
-2.86773
11
6.70376
21
-2.86823
0
LINE
8
BLACK
6
CONTINUOUS
10
6.70376
20
-2.86823
11
6.70426
21
-2.8686
0
LINE
8
BLACK
6
CONTINUOUS
10
6.70426
20
-2.8686
11
6.70445
21
-2.86919
0
LINE
8
BLACK
6
CONTINUOUS
10
6.70445
20
-2.86919
11
6.70482
21
-2.86969
0
LINE
8
BLACK
6
CONTINUOUS
10
6.70482
20
-2.86969
11
6.70482
21
-2.87032
0
LINE
8
BLACK
6
CONTINUOUS
10
6.70482
20
-2.87032
11
6.70501
21
-2.87091
0
LINE
8
BLACK
6
CONTINUOUS
10
6.70501
20
-2.87091
11
6.70501
21
-4.45091
0
LINE
8
BLACK
6
CONTINUOUS
10
6.70501
20
-4.45091
11
6.70482
21
-4.4515
0
LINE
8
BLACK
6
CONTINUOUS
10
6.70482
20
-4.4515
11
6.70482
21
-4.45213
0
LINE
8
BLACK
6
CONTINUOUS
10
6.70482
20
-4.45213
11
6.70445
21
-4.45263
0
LINE
8
BLACK
6
CONTINUOUS
10
6.70445
20
-4.45263
11
6.70426
21
-4.45323
0
LINE
8
BLACK
6
CONTINUOUS
10
6.70426
20
-4.45323
11
6.70376
21
-4.45359
0
LINE
8
BLACK
6
CONTINUOUS
10
6.70376
20
-4.45359
11
6.70339
21
-4.4541
0
LINE
8
BLACK
6
CONTINUOUS
10
6.70339
20
-4.4541
11
6.7028
21
-4.45429
0
LINE
8
BLACK
6
CONTINUOUS
10
6.7028
20
-4.45429
11
6.70229
21
-4.45466
0
LINE
8
BLACK
6
CONTINUOUS
10
6.70229
20
-4.45466
11
6.70167
21
-4.45466
0
LINE
8
BLACK
6
CONTINUOUS
10
6.70167
20
-4.45466
11
6.70108
21
-4.45485
0
LINE
8
BLACK
6
CONTINUOUS
10
6.70108
20
-4.45485
11
4.32108
21
-4.45485
0
LINE
8
BLACK
6
CONTINUOUS
10
4.32108
20
-4.45485
11
4.32048
21
-4.45466
0
LINE
8
BLACK
6
CONTINUOUS
10
4.32048
20
-4.45466
11
4.31986
21
-4.45466
0
LINE
8
BLACK
6
CONTINUOUS
10
4.31986
20
-4.45466
11
4.31935
21
-4.45429
0
LINE
8
BLACK
6
CONTINUOUS
10
4.31935
20
-4.45429
11
4.31876
21
-4.4541
0
LINE
8
BLACK
6
CONTINUOUS
10
4.31876
20
-4.4541
11
4.31839
21
-4.45359
0
LINE
8
BLACK
6
CONTINUOUS
10
4.31839
20
-4.45359
11
4.31789
21
-4.45323
0
LINE
8
BLACK
6
CONTINUOUS
10
4.31789
20
-4.45323
11
4.3177
21
-4.45263
0
LINE
8
BLACK
6
CONTINUOUS
10
4.3177
20
-4.45263
11
4.31733
21
-4.45213
0
LINE
8
BLACK
6
CONTINUOUS
10
4.31733
20
-4.45213
11
4.31733
21
-4.4515
0
LINE
8
BLACK
6
CONTINUOUS
10
4.31733
20
-4.4515
11
4.31714
21
-4.45091
0
LINE
8
BLACK
6
CONTINUOUS
10
4.31714
20
-4.45091
11
4.31714
21
-2.87091
0
LINE
8
BLACK
6
CONTINUOUS
10
4.31714
20
-2.87091
11
4.31733
21
-2.87032
0
LINE
8
BLACK
6
CONTINUOUS
10
4.31733
20
-2.87032
11
4.31733
21
-2.86969
0
LINE
8
BLACK
6
CONTINUOUS
10
4.31733
20
-2.86969
11
4.3177
21
-2.86919
0
LINE
8
BLACK
6
CONTINUOUS
10
4.3177
20
-2.86919
11
4.31789
21
-2.8686
0
LINE
8
BLACK
6
CONTINUOUS
10
4.31789
20
-2.8686
11
4.31839
21
-2.86823
0
LINE
8
BLACK
6
CONTINUOUS
10
4.31839
20
-2.86823
11
4.31876
21
-2.86773
0
LINE
8
BLACK
6
CONTINUOUS
10
4.31876
20
-2.86773
11
4.31935
21
-2.86753
0
LINE
8
BLACK
6
CONTINUOUS
10
4.31935
20
-2.86753
11
4.31986
21
-2.86717
0
LINE
8
BLACK
6
CONTINUOUS
10
4.31986
20
-2.86717
11
4.32048
21
-2.86717
0
LINE
8
BLACK
6
CONTINUOUS
10
4.32048
20
-2.86717
11
4.32108
21
-2.86697
0
LINE
8
BLACK
6
CONTINUOUS
10
4.32108
20
-2.86697
11
6.70108
21
-2.86697
0
LINE
8
BLACK
6
CONTINUOUS
10
6.70108
20
-2.86697
11
6.70167
21
-2.86717
0
LINE
8
BLACK
6
CONTINUOUS
10
4.32501
20
-2.87485
11
4.32501
21
-4.44697
0
LINE
8
BLACK
6
CONTINUOUS
10
4.32501
20
-4.44697
11
6.69714
21
-4.44697
0
LINE
8
BLACK
6
CONTINUOUS
10
6.69714
20
-4.44697
11
6.69714
21
-2.87485
0
LINE
8
BLACK
6
CONTINUOUS
10
6.69714
20
-2.87485
11
4.32501
21
-2.87485
  0
ENDSEC
  0
EOF
