  0
SECTION
  2
HEADER
  9
$ANGBASE
  50
0.0
  9
$ANGDIR
  70
1
  9
$MEASUREMENT
  70
0
  0
ENDSEC
  0
SECTION
  2
TABLES
  0
TABLE
  2
LTYPE
  70
4
  0
LTYPE
  5
40F
  2
CONTINUOUS
  70
0
  3
Solid line
  72
65
  73
0
  40
0.0
  0
LTYPE
  5
410
  2
DASHDOT
 70
0
  3
Dash Dot ____ _ ____ _
 72
65
 73
4
 40
2.0
 49
1.25
 49
-0.25
 49
0.25
 49
-0.25
  0
LTYPE
  5
411
  2
DASHED
 70
0
  3
Dashed __ __ __ __ __
 72
65
 73
2
 40
0.75
 49
0.5
 49
-0.25
  0
LTYPE
  5
43B
  2
DOTTED
 70
0
  3
Dotted .  .  .  .
 72
65
 73
2
 40
0.2
 49
0.0
 49
-0.2
  0
ENDTAB
  0
TABLE
  2
STYLE
  70
4
  0
STYLE
  2
KICAD
  70
0
  40
0
  41
1
  42
1
  50
0
  71
0
  3
isocp.shx
  0
STYLE
  2
KICADB
  70
0
  40
0
  41
1
  42
1
  50
0
  71
0
  3
isocp.shx
  0
STYLE
  2
KICADI
  70
0
  40
0
  41
1
  42
1
  50
15
  71
0
  3
isocp.shx
  0
STYLE
  2
KICADBI
  70
0
  40
0
  41
1
  42
1
  50
15
  71
0
  3
isocp.shx
  0
ENDTAB
  0
TABLE
  2
LAYER
  70
1
  0
LAYER
  2
BLACK
  70
0
  62
7
  6
CONTINUOUS
  0
ENDTAB
  0
ENDSEC
  0
SECTION
  2
ENTITIES
0
LINE
8
BLACK
6
CONTINUOUS
10
5.50143
20
-4.21327
11
5.13903
21
-4.21327
0
LINE
8
BLACK
6
CONTINUOUS
10
5.13903
20
-4.21327
11
5.13903
21
-4.43591
0
LINE
8
BLACK
6
CONTINUOUS
10
5.13903
20
-4.43591
11
5.13896
21
-4.43629
0
LINE
8
BLACK
6
CONTINUOUS
10
5.13896
20
-4.43629
11
5.13898
21
-4.43642
0
LINE
8
BLACK
6
CONTINUOUS
10
5.13898
20
-4.43642
11
5.13892
21
-4.43654
0
LINE
8
BLACK
6
CONTINUOUS
10
5.13892
20
-4.43654
11
5.13885
21
-4.43692
0
LINE
8
BLACK
6
CONTINUOUS
10
5.13885
20
-4.43692
11
5.13836
21
-4.43751
0
LINE
8
BLACK
6
CONTINUOUS
10
5.13836
20
-4.43751
11
5.13797
21
-4.43817
0
LINE
8
BLACK
6
CONTINUOUS
10
5.13797
20
-4.43817
11
5.13772
21
-4.43826
0
LINE
8
BLACK
6
CONTINUOUS
10
5.13772
20
-4.43826
11
5.13755
21
-4.43847
0
LINE
8
BLACK
6
CONTINUOUS
10
5.13755
20
-4.43847
11
5.1368
21
-4.4386
0
LINE
8
BLACK
6
CONTINUOUS
10
5.1368
20
-4.4386
11
5.13608
21
-4.43886
0
LINE
8
BLACK
6
CONTINUOUS
10
5.13608
20
-4.43886
11
4.56108
21
-4.43886
0
LINE
8
BLACK
6
CONTINUOUS
10
4.56108
20
-4.43886
11
4.56069
21
-4.4388
0
LINE
8
BLACK
6
CONTINUOUS
10
4.56069
20
-4.4388
11
4.56056
21
-4.43882
0
LINE
8
BLACK
6
CONTINUOUS
10
4.56056
20
-4.43882
11
4.56045
21
-4.43875
0
LINE
8
BLACK
6
CONTINUOUS
10
4.56045
20
-4.43875
11
4.56007
21
-4.43869
0
LINE
8
BLACK
6
CONTINUOUS
10
4.56007
20
-4.43869
11
4.55948
21
-4.43819
0
LINE
8
BLACK
6
CONTINUOUS
10
4.55948
20
-4.43819
11
4.55881
21
-4.43781
0
LINE
8
BLACK
6
CONTINUOUS
10
4.55881
20
-4.43781
11
4.55872
21
-4.43756
0
LINE
8
BLACK
6
CONTINUOUS
10
4.55872
20
-4.43756
11
4.55852
21
-4.43739
0
LINE
8
BLACK
6
CONTINUOUS
10
4.55852
20
-4.43739
11
4.55839
21
-4.43663
0
LINE
8
BLACK
6
CONTINUOUS
10
4.55839
20
-4.43663
11
4.55812
21
-4.43591
0
LINE
8
BLACK
6
CONTINUOUS
10
4.55812
20
-4.43591
11
4.55812
21
-4.36903
0
LINE
8
BLACK
6
CONTINUOUS
10
4.55812
20
-4.36903
11
4.55225
21
-4.37161
0
LINE
8
BLACK
6
CONTINUOUS
10
4.55225
20
-4.37161
11
4.53925
21
-4.37561
0
LINE
8
BLACK
6
CONTINUOUS
10
4.53925
20
-4.37561
11
4.52588
21
-4.37809
0
LINE
8
BLACK
6
CONTINUOUS
10
4.52588
20
-4.37809
11
4.51231
21
-4.37901
0
LINE
8
BLACK
6
CONTINUOUS
10
4.51231
20
-4.37901
11
4.49873
21
-4.37837
0
LINE
8
BLACK
6
CONTINUOUS
10
4.49873
20
-4.37837
11
4.48531
21
-4.37618
0
LINE
8
BLACK
6
CONTINUOUS
10
4.48531
20
-4.37618
11
4.47223
21
-4.37245
0
LINE
8
BLACK
6
CONTINUOUS
10
4.47223
20
-4.37245
11
4.45967
21
-4.36725
0
LINE
8
BLACK
6
CONTINUOUS
10
4.45967
20
-4.36725
11
4.44779
21
-4.36063
0
LINE
8
BLACK
6
CONTINUOUS
10
4.44779
20
-4.36063
11
4.43675
21
-4.3527
0
LINE
8
BLACK
6
CONTINUOUS
10
4.43675
20
-4.3527
11
4.42669
21
-4.34355
0
LINE
8
BLACK
6
CONTINUOUS
10
4.42669
20
-4.34355
11
4.41775
21
-4.3333
0
LINE
8
BLACK
6
CONTINUOUS
10
4.41775
20
-4.3333
11
4.41005
21
-4.3221
0
LINE
8
BLACK
6
CONTINUOUS
10
4.41005
20
-4.3221
11
4.40369
21
-4.31008
0
LINE
8
BLACK
6
CONTINUOUS
10
4.40369
20
-4.31008
11
4.39875
21
-4.29741
0
LINE
8
BLACK
6
CONTINUOUS
10
4.39875
20
-4.29741
11
4.3953
21
-4.28426
0
LINE
8
BLACK
6
CONTINUOUS
10
4.3953
20
-4.28426
11
4.39338
21
-4.27079
0
LINE
8
BLACK
6
CONTINUOUS
10
4.39338
20
-4.27079
11
4.39302
21
-4.2572
0
LINE
8
BLACK
6
CONTINUOUS
10
4.39302
20
-4.2572
11
4.39423
21
-4.24366
0
LINE
8
BLACK
6
CONTINUOUS
10
4.39423
20
-4.24366
11
4.39699
21
-4.23034
0
LINE
8
BLACK
6
CONTINUOUS
10
4.39699
20
-4.23034
11
4.40126
21
-4.21743
0
LINE
8
BLACK
6
CONTINUOUS
10
4.40126
20
-4.21743
11
4.40698
21
-4.2051
0
LINE
8
BLACK
6
CONTINUOUS
10
4.40698
20
-4.2051
11
4.41409
21
-4.1935
0
LINE
8
BLACK
6
CONTINUOUS
10
4.41409
20
-4.1935
11
4.42248
21
-4.1828
0
LINE
8
BLACK
6
CONTINUOUS
10
4.42248
20
-4.1828
11
4.43204
21
-4.17314
0
LINE
8
BLACK
6
CONTINUOUS
10
4.43204
20
-4.17314
11
4.44266
21
-4.16464
0
LINE
8
BLACK
6
CONTINUOUS
10
4.44266
20
-4.16464
11
4.45418
21
-4.15741
0
LINE
8
BLACK
6
CONTINUOUS
10
4.45418
20
-4.15741
11
4.46645
21
-4.15156
0
LINE
8
BLACK
6
CONTINUOUS
10
4.46645
20
-4.15156
11
4.47931
21
-4.14715
0
LINE
8
BLACK
6
CONTINUOUS
10
4.47931
20
-4.14715
11
4.4926
21
-4.14425
0
LINE
8
BLACK
6
CONTINUOUS
10
4.4926
20
-4.14425
11
4.50613
21
-4.1429
0
LINE
8
BLACK
6
CONTINUOUS
10
4.50613
20
-4.1429
11
4.51973
21
-4.14312
0
LINE
8
BLACK
6
CONTINUOUS
10
4.51973
20
-4.14312
11
4.53321
21
-4.14489
0
LINE
8
BLACK
6
CONTINUOUS
10
4.53321
20
-4.14489
11
4.5464
21
-4.14821
0
LINE
8
BLACK
6
CONTINUOUS
10
4.5464
20
-4.14821
11
4.55812
21
-4.15264
0
LINE
8
BLACK
6
CONTINUOUS
10
4.55812
20
-4.15264
11
4.55812
21
-3.16903
0
LINE
8
BLACK
6
CONTINUOUS
10
4.55812
20
-3.16903
11
4.55225
21
-3.17161
0
LINE
8
BLACK
6
CONTINUOUS
10
4.55225
20
-3.17161
11
4.53925
21
-3.17561
0
LINE
8
BLACK
6
CONTINUOUS
10
4.53925
20
-3.17561
11
4.52588
21
-3.17809
0
LINE
8
BLACK
6
CONTINUOUS
10
4.52588
20
-3.17809
11
4.51231
21
-3.17901
0
LINE
8
BLACK
6
CONTINUOUS
10
4.51231
20
-3.17901
11
4.49873
21
-3.17837
0
LINE
8
BLACK
6
CONTINUOUS
10
4.49873
20
-3.17837
11
4.48531
21
-3.17618
0
LINE
8
BLACK
6
CONTINUOUS
10
4.48531
20
-3.17618
11
4.47223
21
-3.17245
0
LINE
8
BLACK
6
CONTINUOUS
10
4.47223
20
-3.17245
11
4.45967
21
-3.16725
0
LINE
8
BLACK
6
CONTINUOUS
10
4.45967
20
-3.16725
11
4.44779
21
-3.16063
0
LINE
8
BLACK
6
CONTINUOUS
10
4.44779
20
-3.16063
11
4.43675
21
-3.1527
0
LINE
8
BLACK
6
CONTINUOUS
10
4.43675
20
-3.1527
11
4.42669
21
-3.14355
0
LINE
8
BLACK
6
CONTINUOUS
10
4.42669
20
-3.14355
11
4.41775
21
-3.1333
0
LINE
8
BLACK
6
CONTINUOUS
10
4.41775
20
-3.1333
11
4.41005
21
-3.1221
0
LINE
8
BLACK
6
CONTINUOUS
10
4.41005
20
-3.1221
11
4.40369
21
-3.11008
0
LINE
8
BLACK
6
CONTINUOUS
10
4.40369
20
-3.11008
11
4.39875
21
-3.09741
0
LINE
8
BLACK
6
CONTINUOUS
10
4.39875
20
-3.09741
11
4.3953
21
-3.08426
0
LINE
8
BLACK
6
CONTINUOUS
10
4.3953
20
-3.08426
11
4.39338
21
-3.07079
0
LINE
8
BLACK
6
CONTINUOUS
10
4.39338
20
-3.07079
11
4.39302
21
-3.0572
0
LINE
8
BLACK
6
CONTINUOUS
10
4.39302
20
-3.0572
11
4.39423
21
-3.04366
0
LINE
8
BLACK
6
CONTINUOUS
10
4.39423
20
-3.04366
11
4.39699
21
-3.03034
0
LINE
8
BLACK
6
CONTINUOUS
10
4.39699
20
-3.03034
11
4.40126
21
-3.01743
0
LINE
8
BLACK
6
CONTINUOUS
10
4.40126
20
-3.01743
11
4.40698
21
-3.0051
0
LINE
8
BLACK
6
CONTINUOUS
10
4.40698
20
-3.0051
11
4.41409
21
-2.9935
0
LINE
8
BLACK
6
CONTINUOUS
10
4.41409
20
-2.9935
11
4.42248
21
-2.9828
0
LINE
8
BLACK
6
CONTINUOUS
10
4.42248
20
-2.9828
11
4.43204
21
-2.97314
0
LINE
8
BLACK
6
CONTINUOUS
10
4.43204
20
-2.97314
11
4.44266
21
-2.96464
0
LINE
8
BLACK
6
CONTINUOUS
10
4.44266
20
-2.96464
11
4.45418
21
-2.95741
0
LINE
8
BLACK
6
CONTINUOUS
10
4.45418
20
-2.95741
11
4.46645
21
-2.95156
0
LINE
8
BLACK
6
CONTINUOUS
10
4.46645
20
-2.95156
11
4.47931
21
-2.94715
0
LINE
8
BLACK
6
CONTINUOUS
10
4.47931
20
-2.94715
11
4.4926
21
-2.94425
0
LINE
8
BLACK
6
CONTINUOUS
10
4.4926
20
-2.94425
11
4.50613
21
-2.9429
0
LINE
8
BLACK
6
CONTINUOUS
10
4.50613
20
-2.9429
11
4.51973
21
-2.94312
0
LINE
8
BLACK
6
CONTINUOUS
10
4.51973
20
-2.94312
11
4.53321
21
-2.94489
0
LINE
8
BLACK
6
CONTINUOUS
10
4.53321
20
-2.94489
11
4.5464
21
-2.94821
0
LINE
8
BLACK
6
CONTINUOUS
10
4.5464
20
-2.94821
11
4.55812
21
-2.95264
0
LINE
8
BLACK
6
CONTINUOUS
10
4.55812
20
-2.95264
11
4.55812
21
-2.88591
0
LINE
8
BLACK
6
CONTINUOUS
10
4.55812
20
-2.88591
11
4.55819
21
-2.88553
0
LINE
8
BLACK
6
CONTINUOUS
10
4.55819
20
-2.88553
11
4.55817
21
-2.8854
0
LINE
8
BLACK
6
CONTINUOUS
10
4.55817
20
-2.8854
11
4.55823
21
-2.88528
0
LINE
8
BLACK
6
CONTINUOUS
10
4.55823
20
-2.88528
11
4.5583
21
-2.8849
0
LINE
8
BLACK
6
CONTINUOUS
10
4.5583
20
-2.8849
11
4.55879
21
-2.88431
0
LINE
8
BLACK
6
CONTINUOUS
10
4.55879
20
-2.88431
11
4.55918
21
-2.88365
0
LINE
8
BLACK
6
CONTINUOUS
10
4.55918
20
-2.88365
11
4.55943
21
-2.88356
0
LINE
8
BLACK
6
CONTINUOUS
10
4.55943
20
-2.88356
11
4.5596
21
-2.88335
0
LINE
8
BLACK
6
CONTINUOUS
10
4.5596
20
-2.88335
11
4.56035
21
-2.88322
0
LINE
8
BLACK
6
CONTINUOUS
10
4.56035
20
-2.88322
11
4.56108
21
-2.88296
0
LINE
8
BLACK
6
CONTINUOUS
10
4.56108
20
-2.88296
11
5.13608
21
-2.88296
0
LINE
8
BLACK
6
CONTINUOUS
10
5.13608
20
-2.88296
11
5.13646
21
-2.88303
0
LINE
8
BLACK
6
CONTINUOUS
10
5.13646
20
-2.88303
11
5.13659
21
-2.883
0
LINE
8
BLACK
6
CONTINUOUS
10
5.13659
20
-2.883
11
5.1367
21
-2.88307
0
LINE
8
BLACK
6
CONTINUOUS
10
5.1367
20
-2.88307
11
5.13709
21
-2.88314
0
LINE
8
BLACK
6
CONTINUOUS
10
5.13709
20
-2.88314
11
5.13767
21
-2.88363
0
LINE
8
BLACK
6
CONTINUOUS
10
5.13767
20
-2.88363
11
5.13834
21
-2.88401
0
LINE
8
BLACK
6
CONTINUOUS
10
5.13834
20
-2.88401
11
5.13843
21
-2.88426
0
LINE
8
BLACK
6
CONTINUOUS
10
5.13843
20
-2.88426
11
5.13863
21
-2.88443
0
LINE
8
BLACK
6
CONTINUOUS
10
5.13863
20
-2.88443
11
5.13877
21
-2.88519
0
LINE
8
BLACK
6
CONTINUOUS
10
5.13877
20
-2.88519
11
5.13903
21
-2.88591
0
LINE
8
BLACK
6
CONTINUOUS
10
5.13903
20
-2.88591
11
5.13903
21
-3.07154
0
LINE
8
BLACK
6
CONTINUOUS
10
5.13903
20
-3.07154
11
5.50143
21
-3.07154
0
LINE
8
BLACK
6
CONTINUOUS
10
5.50143
20
-3.07154
11
5.50143
21
-4.21327
0
LINE
8
BLACK
6
CONTINUOUS
10
5.13903
20
-3.15028
11
5.13903
21
-3.23293
0
LINE
8
BLACK
6
CONTINUOUS
10
5.13903
20
-3.23293
11
5.14103
21
-3.23097
0
LINE
8
BLACK
6
CONTINUOUS
10
5.14103
20
-3.23097
11
5.14673
21
-3.22747
0
LINE
8
BLACK
6
CONTINUOUS
10
5.14673
20
-3.22747
11
5.15306
21
-3.22531
0
LINE
8
BLACK
6
CONTINUOUS
10
5.15306
20
-3.22531
11
5.15971
21
-3.22461
0
LINE
8
BLACK
6
CONTINUOUS
10
5.15971
20
-3.22461
11
5.16635
21
-3.2254
0
LINE
8
BLACK
6
CONTINUOUS
10
5.16635
20
-3.2254
11
5.17265
21
-3.22765
0
LINE
8
BLACK
6
CONTINUOUS
10
5.17265
20
-3.22765
11
5.1783
21
-3.23123
0
LINE
8
BLACK
6
CONTINUOUS
10
5.1783
20
-3.23123
11
5.18301
21
-3.23598
0
LINE
8
BLACK
6
CONTINUOUS
10
5.18301
20
-3.23598
11
5.18656
21
-3.24165
0
LINE
8
BLACK
6
CONTINUOUS
10
5.18656
20
-3.24165
11
5.18876
21
-3.24797
0
LINE
8
BLACK
6
CONTINUOUS
10
5.18876
20
-3.24797
11
5.1895
21
-3.25461
0
LINE
8
BLACK
6
CONTINUOUS
10
5.1895
20
-3.25461
11
5.18949
21
-3.25545
0
LINE
8
BLACK
6
CONTINUOUS
10
5.18949
20
-3.25545
11
5.18856
21
-3.26207
0
LINE
8
BLACK
6
CONTINUOUS
10
5.18856
20
-3.26207
11
5.18618
21
-3.26832
0
LINE
8
BLACK
6
CONTINUOUS
10
5.18618
20
-3.26832
11
5.18248
21
-3.2739
0
LINE
8
BLACK
6
CONTINUOUS
10
5.18248
20
-3.2739
11
5.17764
21
-3.27851
0
LINE
8
BLACK
6
CONTINUOUS
10
5.17764
20
-3.27851
11
5.17189
21
-3.28193
0
LINE
8
BLACK
6
CONTINUOUS
10
5.17189
20
-3.28193
11
5.16553
21
-3.284
0
LINE
8
BLACK
6
CONTINUOUS
10
5.16553
20
-3.284
11
5.15887
21
-3.28461
0
LINE
8
BLACK
6
CONTINUOUS
10
5.15887
20
-3.28461
11
5.15224
21
-3.28372
0
LINE
8
BLACK
6
CONTINUOUS
10
5.15224
20
-3.28372
11
5.14597
21
-3.28139
0
LINE
8
BLACK
6
CONTINUOUS
10
5.14597
20
-3.28139
11
5.14038
21
-3.27773
0
LINE
8
BLACK
6
CONTINUOUS
10
5.14038
20
-3.27773
11
5.13903
21
-3.27633
0
LINE
8
BLACK
6
CONTINUOUS
10
5.13903
20
-3.27633
11
5.13903
21
-4.13453
0
LINE
8
BLACK
6
CONTINUOUS
10
5.13903
20
-4.13453
11
5.42269
21
-4.13453
0
LINE
8
BLACK
6
CONTINUOUS
10
5.42269
20
-4.13453
11
5.42269
21
-3.15028
0
LINE
8
BLACK
6
CONTINUOUS
10
5.42269
20
-3.15028
11
5.13903
21
-3.15028
0
LINE
8
BLACK
6
CONTINUOUS
10
6.26608
20
-4.41591
11
6.20608
21
-4.41591
0
LINE
8
BLACK
6
CONTINUOUS
10
6.20608
20
-4.41591
11
6.20608
21
-4.35591
0
LINE
8
BLACK
6
CONTINUOUS
10
6.20608
20
-4.35591
11
6.26608
21
-4.35591
0
LINE
8
BLACK
6
CONTINUOUS
10
6.26608
20
-4.35591
11
6.26608
21
-4.41591
0
LINE
8
BLACK
6
CONTINUOUS
10
6.16608
20
-4.41591
11
6.10608
21
-4.41591
0
LINE
8
BLACK
6
CONTINUOUS
10
6.10608
20
-4.41591
11
6.10608
21
-4.35591
0
LINE
8
BLACK
6
CONTINUOUS
10
6.10608
20
-4.35591
11
6.16608
21
-4.35591
0
LINE
8
BLACK
6
CONTINUOUS
10
6.16608
20
-4.35591
11
6.16608
21
-4.41591
0
LINE
8
BLACK
6
CONTINUOUS
10
6.06608
20
-4.41591
11
6.00608
21
-4.41591
0
LINE
8
BLACK
6
CONTINUOUS
10
6.00608
20
-4.41591
11
6.00608
21
-4.35591
0
LINE
8
BLACK
6
CONTINUOUS
10
6.00608
20
-4.35591
11
6.06608
21
-4.35591
0
LINE
8
BLACK
6
CONTINUOUS
10
6.06608
20
-4.35591
11
6.06608
21
-4.41591
0
LINE
8
BLACK
6
CONTINUOUS
10
6.51973
20
-4.14312
11
6.53321
21
-4.14489
0
LINE
8
BLACK
6
CONTINUOUS
10
6.53321
20
-4.14489
11
6.5464
21
-4.14821
0
LINE
8
BLACK
6
CONTINUOUS
10
6.5464
20
-4.14821
11
6.55912
21
-4.15301
0
LINE
8
BLACK
6
CONTINUOUS
10
6.55912
20
-4.15301
11
6.5712
21
-4.15925
0
LINE
8
BLACK
6
CONTINUOUS
10
6.5712
20
-4.15925
11
6.58249
21
-4.16683
0
LINE
8
BLACK
6
CONTINUOUS
10
6.58249
20
-4.16683
11
6.59282
21
-4.17566
0
LINE
8
BLACK
6
CONTINUOUS
10
6.59282
20
-4.17566
11
6.60208
21
-4.18562
0
LINE
8
BLACK
6
CONTINUOUS
10
6.60208
20
-4.18562
11
6.61013
21
-4.19658
0
LINE
8
BLACK
6
CONTINUOUS
10
6.61013
20
-4.19658
11
6.61687
21
-4.2084
0
LINE
8
BLACK
6
CONTINUOUS
10
6.61687
20
-4.2084
11
6.6222
21
-4.2209
0
LINE
8
BLACK
6
CONTINUOUS
10
6.6222
20
-4.2209
11
6.62607
21
-4.23394
0
LINE
8
BLACK
6
CONTINUOUS
10
6.62607
20
-4.23394
11
6.6284
21
-4.24734
0
LINE
8
BLACK
6
CONTINUOUS
10
6.6284
20
-4.24734
11
6.62919
21
-4.26091
0
LINE
8
BLACK
6
CONTINUOUS
10
6.62919
20
-4.26091
11
6.62895
21
-4.26833
0
LINE
8
BLACK
6
CONTINUOUS
10
6.62895
20
-4.26833
11
6.62732
21
-4.28183
0
LINE
8
BLACK
6
CONTINUOUS
10
6.62732
20
-4.28183
11
6.62414
21
-4.29505
0
LINE
8
BLACK
6
CONTINUOUS
10
6.62414
20
-4.29505
11
6.61947
21
-4.30782
0
LINE
8
BLACK
6
CONTINUOUS
10
6.61947
20
-4.30782
11
6.61336
21
-4.31997
0
LINE
8
BLACK
6
CONTINUOUS
10
6.61336
20
-4.31997
11
6.6059
21
-4.33133
0
LINE
8
BLACK
6
CONTINUOUS
10
6.6059
20
-4.33133
11
6.59717
21
-4.34176
0
LINE
8
BLACK
6
CONTINUOUS
10
6.59717
20
-4.34176
11
6.58731
21
-4.35112
0
LINE
8
BLACK
6
CONTINUOUS
10
6.58731
20
-4.35112
11
6.57644
21
-4.35929
0
LINE
8
BLACK
6
CONTINUOUS
10
6.57644
20
-4.35929
11
6.5647
21
-4.36615
0
LINE
8
BLACK
6
CONTINUOUS
10
6.5647
20
-4.36615
11
6.55225
21
-4.37161
0
LINE
8
BLACK
6
CONTINUOUS
10
6.55225
20
-4.37161
11
6.53925
21
-4.37561
0
LINE
8
BLACK
6
CONTINUOUS
10
6.53925
20
-4.37561
11
6.52588
21
-4.37809
0
LINE
8
BLACK
6
CONTINUOUS
10
6.52588
20
-4.37809
11
6.51231
21
-4.37901
0
LINE
8
BLACK
6
CONTINUOUS
10
6.51231
20
-4.37901
11
6.49873
21
-4.37837
0
LINE
8
BLACK
6
CONTINUOUS
10
6.49873
20
-4.37837
11
6.48531
21
-4.37618
0
LINE
8
BLACK
6
CONTINUOUS
10
6.48531
20
-4.37618
11
6.47223
21
-4.37245
0
LINE
8
BLACK
6
CONTINUOUS
10
6.47223
20
-4.37245
11
6.45967
21
-4.36725
0
LINE
8
BLACK
6
CONTINUOUS
10
6.45967
20
-4.36725
11
6.44779
21
-4.36063
0
LINE
8
BLACK
6
CONTINUOUS
10
6.44779
20
-4.36063
11
6.43675
21
-4.3527
0
LINE
8
BLACK
6
CONTINUOUS
10
6.43675
20
-4.3527
11
6.42669
21
-4.34355
0
LINE
8
BLACK
6
CONTINUOUS
10
6.42669
20
-4.34355
11
6.41775
21
-4.3333
0
LINE
8
BLACK
6
CONTINUOUS
10
6.41775
20
-4.3333
11
6.41005
21
-4.3221
0
LINE
8
BLACK
6
CONTINUOUS
10
6.41005
20
-4.3221
11
6.40369
21
-4.31008
0
LINE
8
BLACK
6
CONTINUOUS
10
6.40369
20
-4.31008
11
6.39875
21
-4.29741
0
LINE
8
BLACK
6
CONTINUOUS
10
6.39875
20
-4.29741
11
6.3953
21
-4.28426
0
LINE
8
BLACK
6
CONTINUOUS
10
6.3953
20
-4.28426
11
6.39338
21
-4.27079
0
LINE
8
BLACK
6
CONTINUOUS
10
6.39338
20
-4.27079
11
6.39302
21
-4.2572
0
LINE
8
BLACK
6
CONTINUOUS
10
6.39302
20
-4.2572
11
6.39423
21
-4.24366
0
LINE
8
BLACK
6
CONTINUOUS
10
6.39423
20
-4.24366
11
6.39699
21
-4.23034
0
LINE
8
BLACK
6
CONTINUOUS
10
6.39699
20
-4.23034
11
6.40126
21
-4.21743
0
LINE
8
BLACK
6
CONTINUOUS
10
6.40126
20
-4.21743
11
6.40698
21
-4.2051
0
LINE
8
BLACK
6
CONTINUOUS
10
6.40698
20
-4.2051
11
6.41409
21
-4.1935
0
LINE
8
BLACK
6
CONTINUOUS
10
6.41409
20
-4.1935
11
6.42248
21
-4.1828
0
LINE
8
BLACK
6
CONTINUOUS
10
6.42248
20
-4.1828
11
6.43204
21
-4.17314
0
LINE
8
BLACK
6
CONTINUOUS
10
6.43204
20
-4.17314
11
6.44266
21
-4.16464
0
LINE
8
BLACK
6
CONTINUOUS
10
6.44266
20
-4.16464
11
6.45418
21
-4.15741
0
LINE
8
BLACK
6
CONTINUOUS
10
6.45418
20
-4.15741
11
6.46645
21
-4.15156
0
LINE
8
BLACK
6
CONTINUOUS
10
6.46645
20
-4.15156
11
6.47931
21
-4.14715
0
LINE
8
BLACK
6
CONTINUOUS
10
6.47931
20
-4.14715
11
6.4926
21
-4.14425
0
LINE
8
BLACK
6
CONTINUOUS
10
6.4926
20
-4.14425
11
6.50613
21
-4.1429
0
LINE
8
BLACK
6
CONTINUOUS
10
6.50613
20
-4.1429
11
6.51973
21
-4.14312
0
LINE
8
BLACK
6
CONTINUOUS
10
6.26608
20
-4.31591
11
6.20608
21
-4.31591
0
LINE
8
BLACK
6
CONTINUOUS
10
6.20608
20
-4.31591
11
6.20608
21
-4.25591
0
LINE
8
BLACK
6
CONTINUOUS
10
6.20608
20
-4.25591
11
6.26608
21
-4.25591
0
LINE
8
BLACK
6
CONTINUOUS
10
6.26608
20
-4.25591
11
6.26608
21
-4.31591
0
LINE
8
BLACK
6
CONTINUOUS
10
6.16608
20
-4.31591
11
6.10608
21
-4.31591
0
LINE
8
BLACK
6
CONTINUOUS
10
6.10608
20
-4.31591
11
6.10608
21
-4.25591
0
LINE
8
BLACK
6
CONTINUOUS
10
6.10608
20
-4.25591
11
6.16608
21
-4.25591
0
LINE
8
BLACK
6
CONTINUOUS
10
6.16608
20
-4.25591
11
6.16608
21
-4.31591
0
LINE
8
BLACK
6
CONTINUOUS
10
6.06608
20
-4.31591
11
6.00608
21
-4.31591
0
LINE
8
BLACK
6
CONTINUOUS
10
6.00608
20
-4.31591
11
6.00608
21
-4.25591
0
LINE
8
BLACK
6
CONTINUOUS
10
6.00608
20
-4.25591
11
6.06608
21
-4.25591
0
LINE
8
BLACK
6
CONTINUOUS
10
6.06608
20
-4.25591
11
6.06608
21
-4.31591
0
LINE
8
BLACK
6
CONTINUOUS
10
5.93982
20
-4.30934
11
5.78234
21
-4.30934
0
LINE
8
BLACK
6
CONTINUOUS
10
5.78234
20
-4.30934
11
5.78234
21
-4.11249
0
LINE
8
BLACK
6
CONTINUOUS
10
5.78234
20
-4.11249
11
5.93982
21
-4.11249
0
LINE
8
BLACK
6
CONTINUOUS
10
5.93982
20
-4.11249
11
5.93982
21
-4.30934
0
LINE
8
BLACK
6
CONTINUOUS
10
6.2606
20
-4.19965
11
6.20155
21
-4.19965
0
LINE
8
BLACK
6
CONTINUOUS
10
6.20155
20
-4.19965
11
6.20155
21
-4.14847
0
LINE
8
BLACK
6
CONTINUOUS
10
6.20155
20
-4.14847
11
6.2606
21
-4.14847
0
LINE
8
BLACK
6
CONTINUOUS
10
6.2606
20
-4.14847
11
6.2606
21
-4.19965
0
LINE
8
BLACK
6
CONTINUOUS
10
6.29013
20
-4.13469
11
6.17202
21
-4.13469
0
LINE
8
BLACK
6
CONTINUOUS
10
6.17202
20
-4.13469
11
6.17202
21
-4.10713
0
LINE
8
BLACK
6
CONTINUOUS
10
6.17202
20
-4.10713
11
6.29013
21
-4.10713
0
LINE
8
BLACK
6
CONTINUOUS
10
6.29013
20
-4.10713
11
6.29013
21
-4.13469
0
LINE
8
BLACK
6
CONTINUOUS
10
6.2606
20
-4.09335
11
6.20155
21
-4.09335
0
LINE
8
BLACK
6
CONTINUOUS
10
6.20155
20
-4.09335
11
6.20155
21
-4.04217
0
LINE
8
BLACK
6
CONTINUOUS
10
6.20155
20
-4.04217
11
6.2606
21
-4.04217
0
LINE
8
BLACK
6
CONTINUOUS
10
6.2606
20
-4.04217
11
6.2606
21
-4.09335
0
LINE
8
BLACK
6
CONTINUOUS
10
6.64108
20
-4.04091
11
6.58108
21
-4.04091
0
LINE
8
BLACK
6
CONTINUOUS
10
6.58108
20
-4.04091
11
6.58108
21
-3.98091
0
LINE
8
BLACK
6
CONTINUOUS
10
6.58108
20
-3.98091
11
6.64108
21
-3.98091
0
LINE
8
BLACK
6
CONTINUOUS
10
6.64108
20
-3.98091
11
6.64108
21
-4.04091
0
LINE
8
BLACK
6
CONTINUOUS
10
6.54108
20
-4.04091
11
6.48108
21
-4.04091
0
LINE
8
BLACK
6
CONTINUOUS
10
6.48108
20
-4.04091
11
6.48108
21
-3.98091
0
LINE
8
BLACK
6
CONTINUOUS
10
6.48108
20
-3.98091
11
6.54108
21
-3.98091
0
LINE
8
BLACK
6
CONTINUOUS
10
6.54108
20
-3.98091
11
6.54108
21
-4.04091
0
LINE
8
BLACK
6
CONTINUOUS
10
6.64108
20
-3.94091
11
6.58108
21
-3.94091
0
LINE
8
BLACK
6
CONTINUOUS
10
6.58108
20
-3.94091
11
6.58108
21
-3.88091
0
LINE
8
BLACK
6
CONTINUOUS
10
6.58108
20
-3.88091
11
6.64108
21
-3.88091
0
LINE
8
BLACK
6
CONTINUOUS
10
6.64108
20
-3.88091
11
6.64108
21
-3.94091
0
LINE
8
BLACK
6
CONTINUOUS
10
6.54108
20
-3.94091
11
6.48108
21
-3.94091
0
LINE
8
BLACK
6
CONTINUOUS
10
6.48108
20
-3.94091
11
6.48108
21
-3.88091
0
LINE
8
BLACK
6
CONTINUOUS
10
6.48108
20
-3.88091
11
6.54108
21
-3.88091
0
LINE
8
BLACK
6
CONTINUOUS
10
6.54108
20
-3.88091
11
6.54108
21
-3.94091
0
LINE
8
BLACK
6
CONTINUOUS
10
6.54108
20
-3.84091
11
6.48108
21
-3.84091
0
LINE
8
BLACK
6
CONTINUOUS
10
6.48108
20
-3.84091
11
6.48108
21
-3.78091
0
LINE
8
BLACK
6
CONTINUOUS
10
6.48108
20
-3.78091
11
6.54108
21
-3.78091
0
LINE
8
BLACK
6
CONTINUOUS
10
6.54108
20
-3.78091
11
6.54108
21
-3.84091
0
LINE
8
BLACK
6
CONTINUOUS
10
6.64108
20
-3.84091
11
6.58108
21
-3.84091
0
LINE
8
BLACK
6
CONTINUOUS
10
6.58108
20
-3.84091
11
6.58108
21
-3.78091
0
LINE
8
BLACK
6
CONTINUOUS
10
6.58108
20
-3.78091
11
6.64108
21
-3.78091
0
LINE
8
BLACK
6
CONTINUOUS
10
6.64108
20
-3.78091
11
6.64108
21
-3.84091
0
LINE
8
BLACK
6
CONTINUOUS
10
6.64108
20
-3.74091
11
6.58108
21
-3.74091
0
LINE
8
BLACK
6
CONTINUOUS
10
6.58108
20
-3.74091
11
6.58108
21
-3.68091
0
LINE
8
BLACK
6
CONTINUOUS
10
6.58108
20
-3.68091
11
6.64108
21
-3.68091
0
LINE
8
BLACK
6
CONTINUOUS
10
6.64108
20
-3.68091
11
6.64108
21
-3.74091
0
LINE
8
BLACK
6
CONTINUOUS
10
6.54108
20
-3.74091
11
6.48108
21
-3.74091
0
LINE
8
BLACK
6
CONTINUOUS
10
6.48108
20
-3.74091
11
6.48108
21
-3.68091
0
LINE
8
BLACK
6
CONTINUOUS
10
6.48108
20
-3.68091
11
6.54108
21
-3.68091
0
LINE
8
BLACK
6
CONTINUOUS
10
6.54108
20
-3.68091
11
6.54108
21
-3.74091
0
LINE
8
BLACK
6
CONTINUOUS
10
6.54108
20
-3.64091
11
6.48108
21
-3.64091
0
LINE
8
BLACK
6
CONTINUOUS
10
6.48108
20
-3.64091
11
6.48108
21
-3.58091
0
LINE
8
BLACK
6
CONTINUOUS
10
6.48108
20
-3.58091
11
6.54108
21
-3.58091
0
LINE
8
BLACK
6
CONTINUOUS
10
6.54108
20
-3.58091
11
6.54108
21
-3.64091
0
LINE
8
BLACK
6
CONTINUOUS
10
6.64108
20
-3.64091
11
6.58108
21
-3.64091
0
LINE
8
BLACK
6
CONTINUOUS
10
6.58108
20
-3.64091
11
6.58108
21
-3.58091
0
LINE
8
BLACK
6
CONTINUOUS
10
6.58108
20
-3.58091
11
6.64108
21
-3.58091
0
LINE
8
BLACK
6
CONTINUOUS
10
6.64108
20
-3.58091
11
6.64108
21
-3.64091
0
LINE
8
BLACK
6
CONTINUOUS
10
6.64108
20
-3.54091
11
6.58108
21
-3.54091
0
LINE
8
BLACK
6
CONTINUOUS
10
6.58108
20
-3.54091
11
6.58108
21
-3.48091
0
LINE
8
BLACK
6
CONTINUOUS
10
6.58108
20
-3.48091
11
6.64108
21
-3.48091
0
LINE
8
BLACK
6
CONTINUOUS
10
6.64108
20
-3.48091
11
6.64108
21
-3.54091
0
LINE
8
BLACK
6
CONTINUOUS
10
6.54108
20
-3.54091
11
6.48108
21
-3.54091
0
LINE
8
BLACK
6
CONTINUOUS
10
6.48108
20
-3.54091
11
6.48108
21
-3.48091
0
LINE
8
BLACK
6
CONTINUOUS
10
6.48108
20
-3.48091
11
6.54108
21
-3.48091
0
LINE
8
BLACK
6
CONTINUOUS
10
6.54108
20
-3.48091
11
6.54108
21
-3.54091
0
LINE
8
BLACK
6
CONTINUOUS
10
6.54108
20
-3.44091
11
6.48108
21
-3.44091
0
LINE
8
BLACK
6
CONTINUOUS
10
6.48108
20
-3.44091
11
6.48108
21
-3.38091
0
LINE
8
BLACK
6
CONTINUOUS
10
6.48108
20
-3.38091
11
6.54108
21
-3.38091
0
LINE
8
BLACK
6
CONTINUOUS
10
6.54108
20
-3.38091
11
6.54108
21
-3.44091
0
LINE
8
BLACK
6
CONTINUOUS
10
6.64108
20
-3.44091
11
6.58108
21
-3.44091
0
LINE
8
BLACK
6
CONTINUOUS
10
6.58108
20
-3.44091
11
6.58108
21
-3.38091
0
LINE
8
BLACK
6
CONTINUOUS
10
6.58108
20
-3.38091
11
6.64108
21
-3.38091
0
LINE
8
BLACK
6
CONTINUOUS
10
6.64108
20
-3.38091
11
6.64108
21
-3.44091
0
LINE
8
BLACK
6
CONTINUOUS
10
6.51973
20
-2.94312
11
6.53321
21
-2.94489
0
LINE
8
BLACK
6
CONTINUOUS
10
6.53321
20
-2.94489
11
6.5464
21
-2.94821
0
LINE
8
BLACK
6
CONTINUOUS
10
6.5464
20
-2.94821
11
6.55912
21
-2.95301
0
LINE
8
BLACK
6
CONTINUOUS
10
6.55912
20
-2.95301
11
6.5712
21
-2.95925
0
LINE
8
BLACK
6
CONTINUOUS
10
6.5712
20
-2.95925
11
6.58249
21
-2.96683
0
LINE
8
BLACK
6
CONTINUOUS
10
6.58249
20
-2.96683
11
6.59282
21
-2.97566
0
LINE
8
BLACK
6
CONTINUOUS
10
6.59282
20
-2.97566
11
6.60208
21
-2.98562
0
LINE
8
BLACK
6
CONTINUOUS
10
6.60208
20
-2.98562
11
6.61013
21
-2.99658
0
LINE
8
BLACK
6
CONTINUOUS
10
6.61013
20
-2.99658
11
6.61687
21
-3.0084
0
LINE
8
BLACK
6
CONTINUOUS
10
6.61687
20
-3.0084
11
6.6222
21
-3.0209
0
LINE
8
BLACK
6
CONTINUOUS
10
6.6222
20
-3.0209
11
6.62607
21
-3.03394
0
LINE
8
BLACK
6
CONTINUOUS
10
6.62607
20
-3.03394
11
6.6284
21
-3.04734
0
LINE
8
BLACK
6
CONTINUOUS
10
6.6284
20
-3.04734
11
6.62919
21
-3.06091
0
LINE
8
BLACK
6
CONTINUOUS
10
6.62919
20
-3.06091
11
6.62895
21
-3.06833
0
LINE
8
BLACK
6
CONTINUOUS
10
6.62895
20
-3.06833
11
6.62732
21
-3.08183
0
LINE
8
BLACK
6
CONTINUOUS
10
6.62732
20
-3.08183
11
6.62414
21
-3.09505
0
LINE
8
BLACK
6
CONTINUOUS
10
6.62414
20
-3.09505
11
6.61947
21
-3.10782
0
LINE
8
BLACK
6
CONTINUOUS
10
6.61947
20
-3.10782
11
6.61336
21
-3.11997
0
LINE
8
BLACK
6
CONTINUOUS
10
6.61336
20
-3.11997
11
6.6059
21
-3.13133
0
LINE
8
BLACK
6
CONTINUOUS
10
6.6059
20
-3.13133
11
6.59717
21
-3.14176
0
LINE
8
BLACK
6
CONTINUOUS
10
6.59717
20
-3.14176
11
6.58731
21
-3.15112
0
LINE
8
BLACK
6
CONTINUOUS
10
6.58731
20
-3.15112
11
6.57644
21
-3.15929
0
LINE
8
BLACK
6
CONTINUOUS
10
6.57644
20
-3.15929
11
6.5647
21
-3.16615
0
LINE
8
BLACK
6
CONTINUOUS
10
6.5647
20
-3.16615
11
6.55225
21
-3.17161
0
LINE
8
BLACK
6
CONTINUOUS
10
6.55225
20
-3.17161
11
6.53925
21
-3.17561
0
LINE
8
BLACK
6
CONTINUOUS
10
6.53925
20
-3.17561
11
6.52588
21
-3.17809
0
LINE
8
BLACK
6
CONTINUOUS
10
6.52588
20
-3.17809
11
6.51231
21
-3.17901
0
LINE
8
BLACK
6
CONTINUOUS
10
6.51231
20
-3.17901
11
6.49873
21
-3.17837
0
LINE
8
BLACK
6
CONTINUOUS
10
6.49873
20
-3.17837
11
6.48531
21
-3.17618
0
LINE
8
BLACK
6
CONTINUOUS
10
6.48531
20
-3.17618
11
6.47223
21
-3.17245
0
LINE
8
BLACK
6
CONTINUOUS
10
6.47223
20
-3.17245
11
6.45967
21
-3.16725
0
LINE
8
BLACK
6
CONTINUOUS
10
6.45967
20
-3.16725
11
6.44779
21
-3.16063
0
LINE
8
BLACK
6
CONTINUOUS
10
6.44779
20
-3.16063
11
6.43675
21
-3.1527
0
LINE
8
BLACK
6
CONTINUOUS
10
6.43675
20
-3.1527
11
6.42669
21
-3.14355
0
LINE
8
BLACK
6
CONTINUOUS
10
6.42669
20
-3.14355
11
6.41775
21
-3.1333
0
LINE
8
BLACK
6
CONTINUOUS
10
6.41775
20
-3.1333
11
6.41005
21
-3.1221
0
LINE
8
BLACK
6
CONTINUOUS
10
6.41005
20
-3.1221
11
6.40369
21
-3.11008
0
LINE
8
BLACK
6
CONTINUOUS
10
6.40369
20
-3.11008
11
6.39875
21
-3.09741
0
LINE
8
BLACK
6
CONTINUOUS
10
6.39875
20
-3.09741
11
6.3953
21
-3.08426
0
LINE
8
BLACK
6
CONTINUOUS
10
6.3953
20
-3.08426
11
6.39338
21
-3.07079
0
LINE
8
BLACK
6
CONTINUOUS
10
6.39338
20
-3.07079
11
6.39302
21
-3.0572
0
LINE
8
BLACK
6
CONTINUOUS
10
6.39302
20
-3.0572
11
6.39423
21
-3.04366
0
LINE
8
BLACK
6
CONTINUOUS
10
6.39423
20
-3.04366
11
6.39699
21
-3.03034
0
LINE
8
BLACK
6
CONTINUOUS
10
6.39699
20
-3.03034
11
6.40126
21
-3.01743
0
LINE
8
BLACK
6
CONTINUOUS
10
6.40126
20
-3.01743
11
6.40698
21
-3.0051
0
LINE
8
BLACK
6
CONTINUOUS
10
6.40698
20
-3.0051
11
6.41409
21
-2.9935
0
LINE
8
BLACK
6
CONTINUOUS
10
6.41409
20
-2.9935
11
6.42248
21
-2.9828
0
LINE
8
BLACK
6
CONTINUOUS
10
6.42248
20
-2.9828
11
6.43204
21
-2.97314
0
LINE
8
BLACK
6
CONTINUOUS
10
6.43204
20
-2.97314
11
6.44266
21
-2.96464
0
LINE
8
BLACK
6
CONTINUOUS
10
6.44266
20
-2.96464
11
6.45418
21
-2.95741
0
LINE
8
BLACK
6
CONTINUOUS
10
6.45418
20
-2.95741
11
6.46645
21
-2.95156
0
LINE
8
BLACK
6
CONTINUOUS
10
6.46645
20
-2.95156
11
6.47931
21
-2.94715
0
LINE
8
BLACK
6
CONTINUOUS
10
6.47931
20
-2.94715
11
6.4926
21
-2.94425
0
LINE
8
BLACK
6
CONTINUOUS
10
6.4926
20
-2.94425
11
6.50613
21
-2.9429
0
LINE
8
BLACK
6
CONTINUOUS
10
6.50613
20
-2.9429
11
6.51973
21
-2.94312
0
LINE
8
BLACK
6
CONTINUOUS
10
5.93982
20
-3.12823
11
5.78234
21
-3.12823
0
LINE
8
BLACK
6
CONTINUOUS
10
5.78234
20
-3.12823
11
5.78234
21
-2.93138
0
LINE
8
BLACK
6
CONTINUOUS
10
5.78234
20
-2.93138
11
5.93982
21
-2.93138
0
LINE
8
BLACK
6
CONTINUOUS
10
5.93982
20
-2.93138
11
5.93982
21
-3.12823
0
LINE
8
BLACK
6
CONTINUOUS
10
5.69171
20
-3.03997
11
5.66415
21
-3.03997
0
LINE
8
BLACK
6
CONTINUOUS
10
5.66415
20
-3.03997
11
5.66415
21
-2.92186
0
LINE
8
BLACK
6
CONTINUOUS
10
5.66415
20
-2.92186
11
5.69171
21
-2.92186
0
LINE
8
BLACK
6
CONTINUOUS
10
5.69171
20
-2.92186
11
5.69171
21
-3.03997
0
LINE
8
BLACK
6
CONTINUOUS
10
5.65037
20
-3.01044
11
5.59919
21
-3.01044
0
LINE
8
BLACK
6
CONTINUOUS
10
5.59919
20
-3.01044
11
5.59919
21
-2.95138
0
LINE
8
BLACK
6
CONTINUOUS
10
5.59919
20
-2.95138
11
5.65037
21
-2.95138
0
LINE
8
BLACK
6
CONTINUOUS
10
5.65037
20
-2.95138
11
5.65037
21
-3.01044
0
LINE
8
BLACK
6
CONTINUOUS
10
5.75667
20
-3.01044
11
5.70549
21
-3.01044
0
LINE
8
BLACK
6
CONTINUOUS
10
5.70549
20
-3.01044
11
5.70549
21
-2.95138
0
LINE
8
BLACK
6
CONTINUOUS
10
5.70549
20
-2.95138
11
5.75667
21
-2.95138
0
LINE
8
BLACK
6
CONTINUOUS
10
5.75667
20
-2.95138
11
5.75667
21
-3.01044
  0
ENDSEC
  0
EOF
