<?xml version='1.0' encoding='ASCII' standalone='yes'?>
<svg xmlns:svg="http://www.w3.org/2000/svg" xmlns="http://www.w3.org/2000/svg" xmlns:xlink="http://www.w3.org/1999/xlink" version="1.1" width="29.700220cm" height="21.000720cm" viewBox="0 0 2970022 2100072">
<title>SVG Picture created as PCRD04B-B_Fab.svg date 2023/02/14 07:58:16 </title>
  <desc>Picture generated by PCBNEW </desc>
<g style="fill:#000084; fill-opacity:1.000000;stroke:#000084; stroke-opacity:1.000000; stroke-linecap:round; stroke-linejoin:round;" transform="translate(0 0) scale(1 1)">
</g>
<g style="fill:#000084; fill-opacity:0.0;  stroke:#000084; stroke-width:0.000000; stroke-opacity:1;  stroke-linecap:round; stroke-linejoin:round;">
</g>
<g style="fill:#000084; fill-opacity:0.01;  stroke:#000084; stroke-width:6460.173141; stroke-opacity:1;  stroke-linecap:round; stroke-linejoin:round;">
<text x="1067274.653065" y="1133458.351677" transform="scale(-1 1) translate(-2134549.306130 0)" textLength="920636.216557" font-size="57423.746900" lengthAdjust="spacingAndGlyphs" text-anchor="middle" opacity="0.01" style="font-family:monospace">ISL21080DIH312Z-TK  1V25</text>
<g class="stroked-text"><desc>ISL21080DIH312Z-TK  1V25</desc>
<path d="M1521537 1131407 L1521537 1088339 "/>
<path d="M1503079 1129356 L1496927 1131407 L1486673 1131407 L1482571 1129356 L1480520 1127305 L1478469 1123204 L1478469 1119102 L1480520 1115000 L1482571 1112949 L1486673 1110898 L1494876 1108848 L1498978 1106797 L1501029 1104746 L1503079 1100644 L1503079 1096543 L1501029 1092441 L1498978 1090390 L1494876 1088339 L1484622 1088339 L1478469 1090390 "/>
<path d="M1439503 1131407 L1460012 1131407 L1460012 1088339 "/>
<path d="M1427198 1092441 L1425147 1090390 L1421046 1088339 L1410791 1088339 L1406690 1090390 L1404639 1092441 L1402588 1096543 L1402588 1100644 L1404639 1106797 L1429249 1131407 L1402588 1131407 "/>
<path d="M1361571 1131407 L1386181 1131407 "/>
<path d="M1373876 1131407 L1373876 1088339 L1377978 1094492 L1382079 1098593 L1386181 1100644 "/>
<path d="M1334910 1088339 L1330808 1088339 L1326706 1090390 L1324656 1092441 L1322605 1096543 L1320554 1104746 L1320554 1115000 L1322605 1123204 L1324656 1127305 L1326706 1129356 L1330808 1131407 L1334910 1131407 L1339012 1129356 L1341062 1127305 L1343113 1123204 L1345164 1115000 L1345164 1104746 L1343113 1096543 L1341062 1092441 L1339012 1090390 L1334910 1088339 "/>
<path d="M1295944 1106797 L1300045 1104746 L1302096 1102695 L1304147 1098593 L1304147 1096543 L1302096 1092441 L1300045 1090390 L1295944 1088339 L1287740 1088339 L1283639 1090390 L1281588 1092441 L1279537 1096543 L1279537 1098593 L1281588 1102695 L1283639 1104746 L1287740 1106797 L1295944 1106797 L1300045 1108848 L1302096 1110898 L1304147 1115000 L1304147 1123204 L1302096 1127305 L1300045 1129356 L1295944 1131407 L1287740 1131407 L1283639 1129356 L1281588 1127305 L1279537 1123204 L1279537 1115000 L1281588 1110898 L1283639 1108848 L1287740 1106797 "/>
<path d="M1252876 1088339 L1248774 1088339 L1244673 1090390 L1242622 1092441 L1240571 1096543 L1238520 1104746 L1238520 1115000 L1240571 1123204 L1242622 1127305 L1244673 1129356 L1248774 1131407 L1252876 1131407 L1256978 1129356 L1259028 1127305 L1261079 1123204 L1263130 1115000 L1263130 1104746 L1261079 1096543 L1259028 1092441 L1256978 1090390 L1252876 1088339 "/>
<path d="M1220062 1131407 L1220062 1088339 L1209808 1088339 L1203656 1090390 L1199554 1094492 L1197503 1098593 L1195452 1106797 L1195452 1112949 L1197503 1121153 L1199554 1125254 L1203656 1129356 L1209808 1131407 L1220062 1131407 "/>
<path d="M1176995 1131407 L1176995 1088339 "/>
<path d="M1156486 1131407 L1156486 1088339 "/>
<path d="M1156486 1108848 L1131876 1108848 "/>
<path d="M1131876 1131407 L1131876 1088339 "/>
<path d="M1115469 1088339 L1088808 1088339 L1103164 1104746 L1097011 1104746 L1092910 1106797 L1090859 1108848 L1088808 1112949 L1088808 1123204 L1090859 1127305 L1092910 1129356 L1097011 1131407 L1109317 1131407 L1113418 1129356 L1115469 1127305 "/>
<path d="M1047791 1131407 L1072401 1131407 "/>
<path d="M1060096 1131407 L1060096 1088339 L1064198 1094492 L1068300 1098593 L1072401 1100644 "/>
<path d="M1031384 1092441 L1029333 1090390 L1025232 1088339 L1014978 1088339 L1010876 1090390 L1008825 1092441 L1006774 1096543 L1006774 1100644 L1008825 1106797 L1033435 1131407 L1006774 1131407 "/>
<path d="M992418 1088339 L963706 1088339 L992418 1131407 L963706 1131407 "/>
<path d="M947299 1115000 L914486 1115000 "/>
<path d="M900130 1088339 L875520 1088339 "/>
<path d="M887825 1131407 L887825 1088339 "/>
<path d="M861164 1131407 L861164 1088339 "/>
<path d="M836554 1131407 L855011 1106797 "/>
<path d="M836554 1088339 L861164 1112949 "/>
<path d="M729910 1131407 L754520 1131407 "/>
<path d="M742215 1131407 L742215 1088339 L746316 1094492 L750418 1098593 L754520 1100644 "/>
<path d="M717604 1088339 L703249 1131407 L688893 1088339 "/>
<path d="M676587 1092441 L674537 1090390 L670435 1088339 L660181 1088339 L656079 1090390 L654028 1092441 L651977 1096543 L651977 1100644 L654028 1106797 L678638 1131407 L651977 1131407 "/>
<path d="M613011 1088339 L633520 1088339 L635570 1108848 L633520 1106797 L629418 1104746 L619164 1104746 L615062 1106797 L613011 1108848 L610960 1112949 L610960 1123204 L613011 1127305 L615062 1129356 L619164 1131407 L629418 1131407 L633520 1129356 L635570 1127305 "/>
</g></g>
<g style="fill:#000084; fill-opacity:0.0;  stroke:#000084; stroke-width:3230.086571; stroke-opacity:1;  stroke-linecap:round; stroke-linejoin:round;">
<g transform="rotate(-90.000000 1067274.653065 1219593.993562)">
<text x="1067274.653065" y="1230360.948797" transform="scale(-1 1) translate(-2134549.306130 0)" textLength="34669.595859" font-size="28711.851916" lengthAdjust="spacingAndGlyphs" text-anchor="middle" opacity="0.01" style="font-family:monospace">U3</text>
</g>
<g class="stroked-text"><desc>U3</desc>
<path d="M1055482 1203187 L1072914 1203187 L1074965 1204212 L1075990 1205238 L1077016 1207288 L1077016 1211390 L1075990 1213441 L1074965 1214466 L1072914 1215492 L1055482 1215492 "/>
<path d="M1055482 1223695 L1055482 1237026 L1063685 1229848 L1063685 1232924 L1064711 1234975 L1065736 1236000 L1067787 1237026 L1072914 1237026 L1074965 1236000 L1075990 1234975 L1077016 1232924 L1077016 1226771 L1075990 1224721 L1074965 1223695 "/>
</g></g>
<g style="fill:#000084; fill-opacity:0.01;  stroke:#000084; stroke-width:6460.173141; stroke-opacity:1;  stroke-linecap:round; stroke-linejoin:round;">
<text x="711060.706051" y="1408963.202245" transform="scale(-1 1) translate(-1422121.412102 0)" textLength="969953.996607" font-size="57423.746900" lengthAdjust="spacingAndGlyphs" text-anchor="middle" opacity="0.01" style="font-family:monospace">LM4041CIM3-1.2(neosazovat)</text>
<g class="stroked-text"><desc>LM4041CIM3-1.2(neosazovat)</desc>
<path d="M1167374 1406912 L1187882 1406912 L1187882 1363844 "/>
<path d="M1153018 1406912 L1153018 1363844 L1138662 1394607 L1124306 1363844 L1124306 1406912 "/>
<path d="M1085340 1378200 L1085340 1406912 "/>
<path d="M1095594 1361793 L1105849 1392556 L1079188 1392556 "/>
<path d="M1054577 1363844 L1050476 1363844 L1046374 1365895 L1044323 1367946 L1042272 1372047 L1040221 1380251 L1040221 1390505 L1042272 1398708 L1044323 1402810 L1046374 1404861 L1050476 1406912 L1054577 1406912 L1058679 1404861 L1060730 1402810 L1062781 1398708 L1064832 1390505 L1064832 1380251 L1062781 1372047 L1060730 1367946 L1058679 1365895 L1054577 1363844 "/>
<path d="M1003306 1378200 L1003306 1406912 "/>
<path d="M1013560 1361793 L1023815 1392556 L997154 1392556 "/>
<path d="M958187 1406912 L982798 1406912 "/>
<path d="M970493 1406912 L970493 1363844 L974594 1369997 L978696 1374098 L982798 1376149 "/>
<path d="M915120 1402810 L917170 1404861 L923323 1406912 L927425 1406912 L933577 1404861 L937679 1400759 L939730 1396658 L941781 1388454 L941781 1382302 L939730 1374098 L937679 1369997 L933577 1365895 L927425 1363844 L923323 1363844 L917170 1365895 L915120 1367946 "/>
<path d="M896662 1406912 L896662 1363844 "/>
<path d="M876154 1406912 L876154 1363844 L861798 1394607 L847442 1363844 L847442 1406912 "/>
<path d="M831035 1363844 L804374 1363844 L818730 1380251 L812577 1380251 L808475 1382302 L806425 1384353 L804374 1388454 L804374 1398708 L806425 1402810 L808475 1404861 L812577 1406912 L824882 1406912 L828984 1404861 L831035 1402810 "/>
<path d="M785916 1390505 L753103 1390505 "/>
<path d="M710035 1406912 L734645 1406912 "/>
<path d="M722340 1406912 L722340 1363844 L726442 1369997 L730543 1374098 L734645 1376149 "/>
<path d="M691577 1402810 L689526 1404861 L691577 1406912 L693628 1404861 L691577 1402810 L691577 1406912 "/>
<path d="M673119 1367946 L671069 1365895 L666967 1363844 L656713 1363844 L652611 1365895 L650560 1367946 L648509 1372047 L648509 1376149 L650560 1382302 L675170 1406912 L648509 1406912 "/>
<path d="M617747 1423319 L619797 1421268 L623899 1415115 L625950 1411014 L628001 1404861 L630052 1394607 L630052 1386403 L628001 1376149 L625950 1369997 L623899 1365895 L619797 1359742 L617747 1357691 "/>
<path d="M601340 1378200 L601340 1406912 "/>
<path d="M601340 1382302 L599289 1380251 L595187 1378200 L589035 1378200 L584933 1380251 L582882 1384353 L582882 1406912 "/>
<path d="M545967 1404861 L550069 1406912 L558272 1406912 L562374 1404861 L564425 1400759 L564425 1384353 L562374 1380251 L558272 1378200 L550069 1378200 L545967 1380251 L543916 1384353 L543916 1388454 L564425 1392556 "/>
<path d="M519306 1406912 L523408 1404861 L525458 1402810 L527509 1398708 L527509 1386403 L525458 1382302 L523408 1380251 L519306 1378200 L513153 1378200 L509052 1380251 L507001 1382302 L504950 1386403 L504950 1398708 L507001 1402810 L509052 1404861 L513153 1406912 L519306 1406912 "/>
<path d="M488543 1404861 L484441 1406912 L476238 1406912 L472136 1404861 L470085 1400759 L470085 1398708 L472136 1394607 L476238 1392556 L482391 1392556 L486492 1390505 L488543 1386403 L488543 1384353 L486492 1380251 L482391 1378200 L476238 1378200 L472136 1380251 "/>
<path d="M433170 1406912 L433170 1384353 L435221 1380251 L439323 1378200 L447526 1378200 L451628 1380251 "/>
<path d="M433170 1404861 L437272 1406912 L447526 1406912 L451628 1404861 L453679 1400759 L453679 1396658 L451628 1392556 L447526 1390505 L437272 1390505 L433170 1388454 "/>
<path d="M416763 1378200 L394204 1378200 L416763 1406912 L394204 1406912 "/>
<path d="M371645 1406912 L375746 1404861 L377797 1402810 L379848 1398708 L379848 1386403 L377797 1382302 L375746 1380251 L371645 1378200 L365492 1378200 L361391 1380251 L359340 1382302 L357289 1386403 L357289 1398708 L359340 1402810 L361391 1404861 L365492 1406912 L371645 1406912 "/>
<path d="M342933 1378200 L332679 1406912 L322424 1378200 "/>
<path d="M287560 1406912 L287560 1384353 L289611 1380251 L293712 1378200 L301916 1378200 L306018 1380251 "/>
<path d="M287560 1404861 L291662 1406912 L301916 1406912 L306018 1404861 L308068 1400759 L308068 1396658 L306018 1392556 L301916 1390505 L291662 1390505 L287560 1388454 "/>
<path d="M273204 1378200 L256797 1378200 "/>
<path d="M267051 1363844 L267051 1400759 L265001 1404861 L260899 1406912 L256797 1406912 "/>
<path d="M246543 1423319 L244492 1421268 L240390 1415115 L238340 1411014 L236289 1404861 L234238 1394607 L234238 1386403 L236289 1376149 L238340 1369997 L240390 1365895 L244492 1359742 L246543 1357691 "/>
</g></g>
<g style="fill:#000084; fill-opacity:0.0;  stroke:#000084; stroke-width:3230.086571; stroke-opacity:1;  stroke-linecap:round; stroke-linejoin:round;">
<g transform="rotate(-90.000000 711060.706051 1279759.739418)">
<text x="711060.706051" y="1290526.694653" transform="scale(-1 1) translate(-1422121.412102 0)" textLength="34669.595859" font-size="28711.851916" lengthAdjust="spacingAndGlyphs" text-anchor="middle" opacity="0.01" style="font-family:monospace">U6</text>
</g>
<g class="stroked-text"><desc>U6</desc>
<path d="M699268 1263352 L716700 1263352 L718751 1264378 L719776 1265403 L720802 1267454 L720802 1271556 L719776 1273607 L718751 1274632 L716700 1275658 L699268 1275658 "/>
<path d="M699268 1295141 L699268 1291039 L700293 1288988 L701319 1287963 L704395 1285912 L708497 1284886 L716700 1284886 L718751 1285912 L719776 1286937 L720802 1288988 L720802 1293090 L719776 1295141 L718751 1296166 L716700 1297191 L711573 1297191 L709522 1296166 L708497 1295141 L707471 1293090 L707471 1288988 L708497 1286937 L709522 1285912 L711573 1284886 "/>
</g></g>
<g style="fill:#000084; fill-opacity:0.0;  stroke:#000084; stroke-width:6460.173141; stroke-opacity:1;  stroke-linecap:round; stroke-linejoin:round;">
<g transform="rotate(-90.000000 1948097.726976 617936.534998)">
<text x="1948097.726976" y="639470.445469" transform="scale(-1 1) translate(-3896195.453952 0)" textLength="233699.347457" font-size="57423.746900" lengthAdjust="spacingAndGlyphs" text-anchor="middle" opacity="0.01" style="font-family:monospace">TS7211</text>
</g>
<g class="stroked-text"><desc>TS7211</desc>
<path d="M1924512 503088 L1924512 527699 "/>
<path d="M1967580 515394 L1924512 515394 "/>
<path d="M1965529 540004 L1967580 546156 L1967580 556411 L1965529 560512 L1963479 562563 L1959377 564614 L1955275 564614 L1951173 562563 L1949123 560512 L1947072 556411 L1945021 548207 L1942970 544105 L1940919 542055 L1936818 540004 L1932716 540004 L1928614 542055 L1926563 544105 L1924512 548207 L1924512 558461 L1926563 564614 "/>
<path d="M1924512 578970 L1924512 607682 L1967580 589224 "/>
<path d="M1928614 622038 L1926563 624089 L1924512 628190 L1924512 638445 L1926563 642546 L1928614 644597 L1932716 646648 L1936818 646648 L1942970 644597 L1967580 619987 L1967580 646648 "/>
<path d="M1967580 687665 L1967580 663055 "/>
<path d="M1967580 675360 L1924512 675360 L1930665 671258 L1934767 667156 L1936818 663055 "/>
<path d="M1967580 728682 L1967580 704072 "/>
<path d="M1967580 716377 L1924512 716377 L1930665 712275 L1934767 708173 L1936818 704072 "/>
</g></g>
<g style="fill:#000084; fill-opacity:0.01;  stroke:#000084; stroke-width:3230.086571; stroke-opacity:1;  stroke-linecap:round; stroke-linejoin:round;">
<text x="2072994.407709" y="628703.490234" transform="scale(-1 1) translate(-4145988.815417 0)" textLength="34669.595859" font-size="28711.851916" lengthAdjust="spacingAndGlyphs" text-anchor="middle" opacity="0.01" style="font-family:monospace">U4</text>
<g class="stroked-text"><desc>U4</desc>
<path d="M2089401 606144 L2089401 623576 L2088375 625627 L2087350 626652 L2085299 627678 L2081197 627678 L2079146 626652 L2078121 625627 L2077096 623576 L2077096 606144 "/>
<path d="M2057613 613322 L2057613 627678 "/>
<path d="M2062740 605118 L2067867 620500 L2054536 620500 "/>
</g></g>
<g style="fill:#000084; fill-opacity:0.01;  stroke:#000084; stroke-width:6460.173141; stroke-opacity:1;  stroke-linecap:round; stroke-linejoin:round;">
<text x="2187856.286162" y="1067004.703963" transform="scale(-1 1) translate(-4375712.572323 0)" textLength="311631.560012" font-size="57423.746900" lengthAdjust="spacingAndGlyphs" text-anchor="middle" opacity="0.01" style="font-family:monospace">TS5A4594</text>
<g class="stroked-text"><desc>TS5A4594</desc>
<path d="M2341669 1021885 L2317059 1021885 "/>
<path d="M2329364 1064953 L2329364 1021885 "/>
<path d="M2304754 1062902 L2298602 1064953 L2288347 1064953 L2284246 1062902 L2282195 1060852 L2280144 1056750 L2280144 1052648 L2282195 1048547 L2284246 1046496 L2288347 1044445 L2296551 1042394 L2300652 1040343 L2302703 1038292 L2304754 1034191 L2304754 1030089 L2302703 1025987 L2300652 1023936 L2296551 1021885 L2286297 1021885 L2280144 1023936 "/>
<path d="M2241178 1021885 L2261686 1021885 L2263737 1042394 L2261686 1040343 L2257585 1038292 L2247330 1038292 L2243229 1040343 L2241178 1042394 L2239127 1046496 L2239127 1056750 L2241178 1060852 L2243229 1062902 L2247330 1064953 L2257585 1064953 L2261686 1062902 L2263737 1060852 "/>
<path d="M2222720 1052648 L2202212 1052648 "/>
<path d="M2226822 1064953 L2212466 1021885 L2198110 1064953 "/>
<path d="M2165296 1036241 L2165296 1064953 "/>
<path d="M2175551 1019835 L2185805 1050597 L2159144 1050597 "/>
<path d="M2122229 1021885 L2142737 1021885 L2144788 1042394 L2142737 1040343 L2138635 1038292 L2128381 1038292 L2124279 1040343 L2122229 1042394 L2120178 1046496 L2120178 1056750 L2122229 1060852 L2124279 1062902 L2128381 1064953 L2138635 1064953 L2142737 1062902 L2144788 1060852 "/>
<path d="M2099669 1064953 L2091466 1064953 L2087364 1062902 L2085313 1060852 L2081212 1054699 L2079161 1046496 L2079161 1030089 L2081212 1025987 L2083262 1023936 L2087364 1021885 L2095568 1021885 L2099669 1023936 L2101720 1025987 L2103771 1030089 L2103771 1040343 L2101720 1044445 L2099669 1046496 L2095568 1048547 L2087364 1048547 L2083262 1046496 L2081212 1044445 L2079161 1040343 "/>
<path d="M2042246 1036241 L2042246 1064953 "/>
<path d="M2052500 1019835 L2062754 1050597 L2036093 1050597 "/>
</g></g>
<g style="fill:#000084; fill-opacity:0.0;  stroke:#000084; stroke-width:3230.086571; stroke-opacity:1;  stroke-linecap:round; stroke-linejoin:round;">
<g transform="rotate(-90.000000 2187856.286162 1170367.474225)">
<text x="2187856.286162" y="1181134.429460" transform="scale(-1 1) translate(-4375712.572323 0)" textLength="34669.595859" font-size="28711.851916" lengthAdjust="spacingAndGlyphs" text-anchor="middle" opacity="0.01" style="font-family:monospace">U5</text>
</g>
<g class="stroked-text"><desc>U5</desc>
<path d="M2176063 1153960 L2193496 1153960 L2195546 1154986 L2196572 1156011 L2197597 1158062 L2197597 1162164 L2196572 1164214 L2195546 1165240 L2193496 1166265 L2176063 1166265 "/>
<path d="M2176063 1186774 L2176063 1176520 L2186318 1175494 L2185292 1176520 L2184267 1178570 L2184267 1183697 L2185292 1185748 L2186318 1186774 L2188368 1187799 L2193496 1187799 L2195546 1186774 L2196572 1185748 L2197597 1183697 L2197597 1178570 L2196572 1176520 L2195546 1175494 "/>
</g></g>
<g style="fill:#000084; fill-opacity:0.0;  stroke:#000084; stroke-width:3445.425675; stroke-opacity:1;  stroke-linecap:round; stroke-linejoin:round;">
<g transform="rotate(-90.000000 2226143.578979 574179.628921)">
<text x="2226143.578979" y="584946.584156" transform="scale(-1 1) translate(-4452287.157959 0)" textLength="37843.263584" font-size="28711.851916" lengthAdjust="spacingAndGlyphs" text-anchor="middle" opacity="0.01" style="font-family:monospace">R1</text>
</g>
<g class="stroked-text"><desc>R1</desc>
<path d="M2235885 570590 L2225630 563412 "/>
<path d="M2235885 558285 L2214351 558285 L2214351 566488 L2215376 568539 L2216402 569565 L2218452 570590 L2221529 570590 L2223580 569565 L2224605 568539 L2225630 566488 L2225630 558285 "/>
<path d="M2235885 591099 L2235885 578794 "/>
<path d="M2235885 584946 L2214351 584946 L2217427 582895 L2219478 580844 L2220503 578794 "/>
</g></g>
<g style="fill:#000084; fill-opacity:0.01;  stroke:#000084; stroke-width:6460.173141; stroke-opacity:1;  stroke-linecap:round; stroke-linejoin:round;">
<text x="437580.043068" y="1678352.422239" transform="scale(-1 1) translate(-875160.086136 0)" textLength="469266.976987" font-size="57423.746900" lengthAdjust="spacingAndGlyphs" text-anchor="middle" opacity="0.01" style="font-family:monospace">BMI-S-210-F</text>
<g class="stroked-text"><desc>BMI-S-210-F</desc>
<path d="M649842 1653742 L643690 1655793 L641639 1657843 L639588 1661945 L639588 1668098 L641639 1672199 L643690 1674250 L647792 1676301 L664198 1676301 L664198 1633233 L649842 1633233 L645741 1635284 L643690 1637335 L641639 1641437 L641639 1645538 L643690 1649640 L645741 1651691 L649842 1653742 L664198 1653742 "/>
<path d="M621130 1676301 L621130 1633233 L606775 1663996 L592419 1633233 L592419 1676301 "/>
<path d="M571910 1676301 L571910 1633233 "/>
<path d="M551402 1659894 L518588 1659894 "/>
<path d="M500130 1674250 L493978 1676301 L483724 1676301 L479622 1674250 L477571 1672199 L475520 1668098 L475520 1663996 L477571 1659894 L479622 1657843 L483724 1655793 L491927 1653742 L496029 1651691 L498080 1649640 L500130 1645538 L500130 1641437 L498080 1637335 L496029 1635284 L491927 1633233 L481673 1633233 L475520 1635284 "/>
<path d="M457063 1659894 L424249 1659894 "/>
<path d="M405791 1637335 L403741 1635284 L399639 1633233 L389385 1633233 L385283 1635284 L383232 1637335 L381181 1641437 L381181 1645538 L383232 1651691 L407842 1676301 L381181 1676301 "/>
<path d="M340164 1676301 L364774 1676301 "/>
<path d="M352469 1676301 L352469 1633233 L356571 1639386 L360673 1643487 L364774 1645538 "/>
<path d="M313503 1633233 L309401 1633233 L305300 1635284 L303249 1637335 L301198 1641437 L299147 1649640 L299147 1659894 L301198 1668098 L303249 1672199 L305300 1674250 L309401 1676301 L313503 1676301 L317605 1674250 L319656 1672199 L321707 1668098 L323757 1659894 L323757 1649640 L321707 1641437 L319656 1637335 L317605 1635284 L313503 1633233 "/>
<path d="M280690 1659894 L247876 1659894 "/>
<path d="M213012 1653742 L227368 1653742 "/>
<path d="M227368 1676301 L227368 1633233 L206859 1633233 "/>
</g><g transform="rotate(-90.000000 601668.440858 1471196.203506)">
<text x="601668.440858" y="1492730.113977" transform="scale(-1 1) translate(-1203336.881716 0)" textLength="81839.109932" font-size="57423.746900" lengthAdjust="spacingAndGlyphs" text-anchor="middle" opacity="0.01" style="font-family:monospace">M6</text>
</g>
<g class="stroked-text"><desc>M6</desc>
<path d="M621151 1436331 L578083 1436331 L608846 1450687 L578083 1465043 L621151 1465043 "/>
<path d="M578083 1504009 L578083 1495806 L580134 1491704 L582185 1489653 L588337 1485552 L596541 1483501 L612948 1483501 L617049 1485552 L619100 1487602 L621151 1491704 L621151 1499908 L619100 1504009 L617049 1506060 L612948 1508111 L602693 1508111 L598592 1506060 L596541 1504009 L594490 1499908 L594490 1491704 L596541 1487602 L598592 1485552 L602693 1483501 "/>
</g></g>
<g style="fill:#000084; fill-opacity:0.0;  stroke:#000084; stroke-width:4306.782094; stroke-opacity:1;  stroke-linecap:round; stroke-linejoin:round;">
<path d="M1060814 1285057 L1097422 1285057 "/>
<path d="M1037127 1260508 L1037127 1154992 "/>
<path d="M1097422 1285057 L1097422 1154130 "/>
<path d="M1037127 1154130 L1097422 1154130 "/>
<path d="M1037127 1260508 L1060814 1285057 "/>
<path d="M741208 1238845 L741208 1344361 "/>
<path d="M680913 1214296 L680913 1345222 "/>
<path d="M741208 1345222 L680913 1345222 "/>
<path d="M717520 1214296 L680913 1214296 "/>
<path d="M741208 1238845 L717520 1214296 "/>
<path d="M2111755 656697 L2139749 628703 "/>
<path d="M2006239 579175 L2006239 656697 "/>
<path d="M2139749 579175 L2006239 579175 "/>
<path d="M2111755 656697 L2006239 656697 "/>
<path d="M2139749 579175 L2139749 628703 "/>
<path d="M2226617 1237122 L2226617 1103612 "/>
<path d="M2149095 1209128 L2149095 1103612 "/>
<path d="M2149095 1209128 L2177089 1237122 "/>
<path d="M2226617 1103612 L2149095 1103612 "/>
<path d="M2226617 1237122 L2177089 1237122 "/>
<path d="M2251984 617247 L2251984 531111 "/>
<path d="M2251984 531111 L2200302 531111 "/>
<path d="M2200302 617247 L2251984 617247 "/>
<path d="M2200302 531111 L2200302 617247 "/>
</g>
<g style="fill:#000084; fill-opacity:0.0;  stroke:#000084; stroke-width:6460.173141; stroke-opacity:1;  stroke-linecap:round; stroke-linejoin:round;">
<path d="M459113 1613750 L2354098 1613750 "/>
<path d="M459113 300182 L459113 1613750 "/>
<path d="M2354098 300182 L459113 300182 "/>
<path d="M2354098 1613750 L2354098 300182 "/>
<g>
</g>
<g>
</g>
<g>
</g>
<g>
</g>
<g>
</g>
<g>
</g>
<g>
</g>
<g>
</g>
<g>
</g>
<g>
</g>
<g>
</g>
<g>
</g>
<g>
</g>
<g>
</g>
<g>
</g>
<g>
</g>
<g>
</g>
<g>
</g>
<g>
</g>
<g>
</g>
<g>
</g>
<g>
</g>
<g>
</g>
<g>
</g>
<g>
</g>
<g>
</g>
<g>
</g>
<g>
</g>
<g>
</g>
<g>
</g>
<g>
</g>
<g>
</g>
<g>
</g>
<g>
</g>
<g>
</g>
<g>
</g>
<g>
</g>
<g>
</g>
<g>
</g>
<g>
</g>
<g>
</g>
<g>
</g>
<g>
</g>
<g>
</g>
<g>
</g>
<g>
</g>
<g>
</g>
<g>
</g>
<g>
</g>
<g>
</g>
<g>
</g>
<g>
</g>
<g>
</g>
<g>
</g>
<g>
</g>
<g>
</g>
<g>
</g>
<g>
</g>
<g>
</g>
<g>
</g>
<g>
</g>
<g>
</g>
<g>
</g>
<g>
</g>
<g>
</g>
</g> 
<svg:g><svg:g><svg:title>SVG Picture created as PCRD04B-Edge_Cuts.svg date 2023/02/14 07:58:16 </svg:title>
  <svg:desc>Picture generated by PCBNEW </svg:desc>
<svg:g style="fill:#C2C200; fill-opacity:1.000000;stroke:#C2C200; stroke-opacity:1.000000; stroke-linecap:round; stroke-linejoin:round;" transform="translate(0 0) scale(1 1)">
</svg:g>
<svg:g style="fill:#C2C200; fill-opacity:0.0;  stroke:#C2C200; stroke-width:0.000000; stroke-opacity:1;  stroke-linecap:round; stroke-linejoin:round;">
</svg:g>
<svg:g style="fill:#C2C200; fill-opacity:0.0;  stroke:#C2C200; stroke-width:8613.564188; stroke-opacity:1;  stroke-linecap:round; stroke-linejoin:round;">
<svg:path d="M147690 169428 L2751226 169428 "/>
<svg:path d="M2751226 1897826 L2751226 169428 "/>
<svg:path d="M147690 1897826 L2751226 1897826 "/>
<svg:path d="M147690 1897826 L147690 169428 "/>
<svg:g>
</svg:g>
<svg:g>
</svg:g>
<svg:g>
</svg:g>
<svg:g>
</svg:g>
<svg:g>
</svg:g>
<svg:g>
</svg:g>
<svg:g>
</svg:g>
<svg:g>
</svg:g>
<svg:g>
</svg:g>
<svg:g>
</svg:g>
<svg:g>
</svg:g>
<svg:g>
</svg:g>
<svg:g>
</svg:g>
<svg:g>
</svg:g>
<svg:g>
</svg:g>
<svg:g>
</svg:g>
<svg:g>
</svg:g>
<svg:g>
</svg:g>
<svg:g>
</svg:g>
<svg:g>
</svg:g>
<svg:g>
</svg:g>
<svg:g>
</svg:g>
<svg:g>
</svg:g>
<svg:g>
</svg:g>
<svg:g>
</svg:g>
<svg:g>
</svg:g>
<svg:g>
</svg:g>
<svg:g>
</svg:g>
<svg:g>
</svg:g>
<svg:g>
</svg:g>
<svg:g>
</svg:g>
<svg:g>
</svg:g>
<svg:g>
</svg:g>
<svg:g>
</svg:g>
<svg:g>
</svg:g>
<svg:g>
</svg:g>
<svg:g>
</svg:g>
<svg:g>
</svg:g>
<svg:g>
</svg:g>
<svg:g>
</svg:g>
<svg:g>
</svg:g>
<svg:g>
</svg:g>
<svg:g>
</svg:g>
<svg:g>
</svg:g>
<svg:g>
</svg:g>
<svg:g>
</svg:g>
<svg:g>
</svg:g>
<svg:g>
</svg:g>
<svg:g>
</svg:g>
<svg:g>
</svg:g>
<svg:g>
</svg:g>
<svg:g>
</svg:g>
<svg:g>
</svg:g>
<svg:g>
</svg:g>
<svg:g>
</svg:g>
<svg:g>
</svg:g>
<svg:g>
</svg:g>
<svg:g>
</svg:g>
<svg:g>
</svg:g>
<svg:g>
</svg:g>
<svg:g>
</svg:g>
<svg:g>
</svg:g>
<svg:g>
</svg:g>
<svg:g>
</svg:g>
<svg:g>
</svg:g>
</svg:g> 
</svg:g></svg:g></svg>
