<?xml version='1.0' encoding='ASCII' standalone='yes'?>
<svg xmlns:svg="http://www.w3.org/2000/svg" xmlns="http://www.w3.org/2000/svg" xmlns:xlink="http://www.w3.org/1999/xlink" version="1.1" width="29.700220cm" height="21.000720cm" viewBox="0 0 2970022 2100072">
<title>SVG Picture created as PCRD04B-B_Fab.svg date 2023/05/25 08:42:51 </title>
  <desc>Picture generated by PCBNEW </desc>
<g style="fill:#000084; fill-opacity:1.000000;stroke:#000084; stroke-opacity:1.000000; stroke-linecap:round; stroke-linejoin:round;" transform="translate(0 0) scale(1 1)">
</g>
<g style="fill:#000084; fill-opacity:0.0;  stroke:#000084; stroke-width:0.000000; stroke-opacity:1;  stroke-linecap:round; stroke-linejoin:round;">
</g>
<g style="fill:#000084; fill-opacity:0.01;  stroke:#000084; stroke-width:7345.182352; stroke-opacity:1;  stroke-linecap:round; stroke-linejoin:round;">
<text x="1050470.029842" y="1163543.529809" transform="scale(-1 1) translate(-2100940.059685 0)" textLength="1046758.460232" font-size="65290.493471" lengthAdjust="spacingAndGlyphs" text-anchor="middle" opacity="0.01" style="font-family:monospace">ISL21080DIH312Z-TK  1V25</text>
<g class="stroked-text"><desc>ISL21080DIH312Z-TK  1V25</desc>
<path d="M1566964 1161211 L1566964 1112243 "/>
<path d="M1545978 1158879 L1538982 1161211 L1527323 1161211 L1522660 1158879 L1520328 1156548 L1517996 1151884 L1517996 1147220 L1520328 1142557 L1522660 1140225 L1527323 1137893 L1536651 1135561 L1541314 1133230 L1543646 1130898 L1545978 1126234 L1545978 1121571 L1543646 1116907 L1541314 1114575 L1536651 1112243 L1524992 1112243 L1517996 1114575 "/>
<path d="M1473692 1161211 L1497010 1161211 L1497010 1112243 "/>
<path d="M1459701 1116907 L1457369 1114575 L1452706 1112243 L1441047 1112243 L1436383 1114575 L1434051 1116907 L1431719 1121571 L1431719 1126234 L1434051 1133230 L1462033 1161211 L1431719 1161211 "/>
<path d="M1385083 1161211 L1413065 1161211 "/>
<path d="M1399074 1161211 L1399074 1112243 L1403738 1119239 L1408401 1123902 L1413065 1126234 "/>
<path d="M1354770 1112243 L1350106 1112243 L1345443 1114575 L1343111 1116907 L1340779 1121571 L1338447 1130898 L1338447 1142557 L1340779 1151884 L1343111 1156548 L1345443 1158879 L1350106 1161211 L1354770 1161211 L1359434 1158879 L1361765 1156548 L1364097 1151884 L1366429 1142557 L1366429 1130898 L1364097 1121571 L1361765 1116907 L1359434 1114575 L1354770 1112243 "/>
<path d="M1310466 1133230 L1315129 1130898 L1317461 1128566 L1319793 1123902 L1319793 1121571 L1317461 1116907 L1315129 1114575 L1310466 1112243 L1301138 1112243 L1296475 1114575 L1294143 1116907 L1291811 1121571 L1291811 1123902 L1294143 1128566 L1296475 1130898 L1301138 1133230 L1310466 1133230 L1315129 1135561 L1317461 1137893 L1319793 1142557 L1319793 1151884 L1317461 1156548 L1315129 1158879 L1310466 1161211 L1301138 1161211 L1296475 1158879 L1294143 1156548 L1291811 1151884 L1291811 1142557 L1294143 1137893 L1296475 1135561 L1301138 1133230 "/>
<path d="M1261498 1112243 L1256834 1112243 L1252171 1114575 L1249839 1116907 L1247507 1121571 L1245175 1130898 L1245175 1142557 L1247507 1151884 L1249839 1156548 L1252171 1158879 L1256834 1161211 L1261498 1161211 L1266161 1158879 L1268493 1156548 L1270825 1151884 L1273157 1142557 L1273157 1130898 L1270825 1121571 L1268493 1116907 L1266161 1114575 L1261498 1112243 "/>
<path d="M1224189 1161211 L1224189 1112243 L1212530 1112243 L1205534 1114575 L1200871 1119239 L1198539 1123902 L1196207 1133230 L1196207 1140225 L1198539 1149552 L1200871 1154216 L1205534 1158879 L1212530 1161211 L1224189 1161211 "/>
<path d="M1175221 1161211 L1175221 1112243 "/>
<path d="M1151903 1161211 L1151903 1112243 "/>
<path d="M1151903 1135561 L1123921 1135561 "/>
<path d="M1123921 1161211 L1123921 1112243 "/>
<path d="M1105267 1112243 L1074953 1112243 L1091276 1130898 L1084281 1130898 L1079617 1133230 L1077285 1135561 L1074953 1140225 L1074953 1151884 L1077285 1156548 L1079617 1158879 L1084281 1161211 L1098271 1161211 L1102935 1158879 L1105267 1156548 "/>
<path d="M1028317 1161211 L1056299 1161211 "/>
<path d="M1042308 1161211 L1042308 1112243 L1046972 1119239 L1051635 1123902 L1056299 1126234 "/>
<path d="M1009663 1116907 L1007331 1114575 L1002668 1112243 L991009 1112243 L986345 1114575 L984013 1116907 L981681 1121571 L981681 1126234 L984013 1133230 L1011995 1161211 L981681 1161211 "/>
<path d="M965359 1112243 L932713 1112243 L965359 1161211 L932713 1161211 "/>
<path d="M914059 1142557 L876750 1142557 "/>
<path d="M860427 1112243 L832446 1112243 "/>
<path d="M846437 1161211 L846437 1112243 "/>
<path d="M816123 1161211 L816123 1112243 "/>
<path d="M788142 1161211 L809128 1133230 "/>
<path d="M788142 1112243 L816123 1140225 "/>
<path d="M666888 1161211 L694869 1161211 "/>
<path d="M680879 1161211 L680879 1112243 L685542 1119239 L690206 1123902 L694869 1126234 "/>
<path d="M652897 1112243 L636574 1161211 L620252 1112243 "/>
<path d="M606261 1116907 L603929 1114575 L599265 1112243 L587606 1112243 L582943 1114575 L580611 1116907 L578279 1121571 L578279 1126234 L580611 1133230 L608593 1161211 L578279 1161211 "/>
<path d="M533975 1112243 L557293 1112243 L559625 1135561 L557293 1133230 L552629 1130898 L540970 1130898 L536307 1133230 L533975 1135561 L531643 1140225 L531643 1151884 L533975 1156548 L536307 1158879 L540970 1161211 L552629 1161211 L557293 1158879 L559625 1156548 "/>
</g></g>
<g style="fill:#000084; fill-opacity:0.0;  stroke:#000084; stroke-width:3672.591176; stroke-opacity:1;  stroke-linecap:round; stroke-linejoin:round;">
<g transform="rotate(-90.000000 1050470.029842 1261479.294500)">
<text x="1050470.029842" y="1273721.265086" transform="scale(-1 1) translate(-2100940.059685 0)" textLength="39419.145288" font-size="32645.222252" lengthAdjust="spacingAndGlyphs" text-anchor="middle" opacity="0.01" style="font-family:monospace">U3</text>
</g>
<g class="stroked-text"><desc>U3</desc>
<path d="M1037062 1242824 L1056882 1242824 L1059214 1243990 L1060380 1245156 L1061546 1247488 L1061546 1252152 L1060380 1254483 L1059214 1255649 L1056882 1256815 L1037062 1256815 "/>
<path d="M1037062 1266142 L1037062 1281299 L1046389 1273138 L1046389 1276635 L1047555 1278967 L1048721 1280133 L1051052 1281299 L1056882 1281299 L1059214 1280133 L1060380 1278967 L1061546 1276635 L1061546 1269640 L1060380 1267308 L1059214 1266142 "/>
</g></g>
<g style="fill:#000084; fill-opacity:0.01;  stroke:#000084; stroke-width:7345.182352; stroke-opacity:1;  stroke-linecap:round; stroke-linejoin:round;">
<text x="645456.674965" y="1476791.073172" transform="scale(-1 1) translate(-1290913.349931 0)" textLength="1102832.512695" font-size="65290.493471" lengthAdjust="spacingAndGlyphs" text-anchor="middle" opacity="0.01" style="font-family:monospace">LM4041CIM3-1.2(neosazovat)</text>
<g class="stroked-text"><desc>LM4041CIM3-1.2(neosazovat)</desc>
<path d="M1164283 1474459 L1187601 1474459 L1187601 1425491 "/>
<path d="M1147960 1474459 L1147960 1425491 L1131637 1460468 L1115315 1425491 L1115315 1474459 "/>
<path d="M1071010 1441814 L1071010 1474459 "/>
<path d="M1082669 1423159 L1094328 1458136 L1064015 1458136 "/>
<path d="M1036033 1425491 L1031370 1425491 L1026706 1427823 L1024374 1430154 L1022042 1434818 L1019711 1444145 L1019711 1455804 L1022042 1465132 L1024374 1469795 L1026706 1472127 L1031370 1474459 L1036033 1474459 L1040697 1472127 L1043029 1469795 L1045361 1465132 L1047692 1455804 L1047692 1444145 L1045361 1434818 L1043029 1430154 L1040697 1427823 L1036033 1425491 "/>
<path d="M977738 1441814 L977738 1474459 "/>
<path d="M989397 1423159 L1001056 1458136 L970743 1458136 "/>
<path d="M926439 1474459 L954420 1474459 "/>
<path d="M940429 1474459 L940429 1425491 L945093 1432486 L949757 1437150 L954420 1439482 "/>
<path d="M877471 1469795 L879802 1472127 L886798 1474459 L891461 1474459 L898457 1472127 L903120 1467463 L905452 1462800 L907784 1453473 L907784 1446477 L905452 1437150 L903120 1432486 L898457 1427823 L891461 1425491 L886798 1425491 L879802 1427823 L877471 1430154 "/>
<path d="M856484 1474459 L856484 1425491 "/>
<path d="M833166 1474459 L833166 1425491 L816844 1460468 L800521 1425491 L800521 1474459 "/>
<path d="M781867 1425491 L751553 1425491 L767876 1444145 L760880 1444145 L756217 1446477 L753885 1448809 L751553 1453473 L751553 1465132 L753885 1469795 L756217 1472127 L760880 1474459 L774871 1474459 L779535 1472127 L781867 1469795 "/>
<path d="M730567 1455804 L693258 1455804 "/>
<path d="M644290 1474459 L672272 1474459 "/>
<path d="M658281 1474459 L658281 1425491 L662945 1432486 L667608 1437150 L672272 1439482 "/>
<path d="M623304 1469795 L620972 1472127 L623304 1474459 L625636 1472127 L623304 1469795 L623304 1474459 "/>
<path d="M602318 1430154 L599986 1427823 L595322 1425491 L583663 1425491 L579000 1427823 L576668 1430154 L574336 1434818 L574336 1439482 L576668 1446477 L604650 1474459 L574336 1474459 "/>
<path d="M539359 1493113 L541691 1490781 L546354 1483786 L548686 1479122 L551018 1472127 L553350 1460468 L553350 1451141 L551018 1439482 L548686 1432486 L546354 1427823 L541691 1420827 L539359 1418495 "/>
<path d="M520705 1441814 L520705 1474459 "/>
<path d="M520705 1446477 L518373 1444145 L513709 1441814 L506714 1441814 L502050 1444145 L499718 1448809 L499718 1474459 "/>
<path d="M457746 1472127 L462410 1474459 L471737 1474459 L476400 1472127 L478732 1467463 L478732 1448809 L476400 1444145 L471737 1441814 L462410 1441814 L457746 1444145 L455414 1448809 L455414 1453473 L478732 1458136 "/>
<path d="M427433 1474459 L432096 1472127 L434428 1469795 L436760 1465132 L436760 1451141 L434428 1446477 L432096 1444145 L427433 1441814 L420437 1441814 L415773 1444145 L413442 1446477 L411110 1451141 L411110 1465132 L413442 1469795 L415773 1472127 L420437 1474459 L427433 1474459 "/>
<path d="M392455 1472127 L387792 1474459 L378465 1474459 L373801 1472127 L371469 1467463 L371469 1465132 L373801 1460468 L378465 1458136 L385460 1458136 L390124 1455804 L392455 1451141 L392455 1448809 L390124 1444145 L385460 1441814 L378465 1441814 L373801 1444145 "/>
<path d="M329497 1474459 L329497 1448809 L331829 1444145 L336492 1441814 L345819 1441814 L350483 1444145 "/>
<path d="M329497 1472127 L334160 1474459 L345819 1474459 L350483 1472127 L352815 1467463 L352815 1462800 L350483 1458136 L345819 1455804 L334160 1455804 L329497 1453473 "/>
<path d="M310842 1441814 L285192 1441814 L310842 1474459 L285192 1474459 "/>
<path d="M259543 1474459 L264206 1472127 L266538 1469795 L268870 1465132 L268870 1451141 L266538 1446477 L264206 1444145 L259543 1441814 L252547 1441814 L247884 1444145 L245552 1446477 L243220 1451141 L243220 1465132 L245552 1469795 L247884 1472127 L252547 1474459 L259543 1474459 "/>
<path d="M226897 1441814 L215238 1474459 L203579 1441814 "/>
<path d="M163939 1474459 L163939 1448809 L166270 1444145 L170934 1441814 L180261 1441814 L184925 1444145 "/>
<path d="M163939 1472127 L168602 1474459 L180261 1474459 L184925 1472127 L187257 1467463 L187257 1462800 L184925 1458136 L180261 1455804 L168602 1455804 L163939 1453473 "/>
<path d="M147616 1441814 L128962 1441814 "/>
<path d="M140621 1425491 L140621 1467463 L138289 1472127 L133625 1474459 L128962 1474459 "/>
<path d="M117303 1493113 L114971 1490781 L110307 1483786 L107975 1479122 L105644 1472127 L103312 1460468 L103312 1451141 L105644 1439482 L107975 1432486 L110307 1427823 L114971 1420827 L117303 1418495 "/>
</g></g>
<g style="fill:#000084; fill-opacity:0.0;  stroke:#000084; stroke-width:3672.591176; stroke-opacity:1;  stroke-linecap:round; stroke-linejoin:round;">
<g transform="rotate(-90.000000 645456.674965 1329887.426136)">
<text x="645456.674965" y="1342129.396722" transform="scale(-1 1) translate(-1290913.349931 0)" textLength="39419.145288" font-size="32645.222252" lengthAdjust="spacingAndGlyphs" text-anchor="middle" opacity="0.01" style="font-family:monospace">U6</text>
</g>
<g class="stroked-text"><desc>U6</desc>
<path d="M632048 1311232 L651869 1311232 L654200 1312398 L655366 1313564 L656532 1315896 L656532 1320560 L655366 1322891 L654200 1324057 L651869 1325223 L632048 1325223 "/>
<path d="M632048 1347375 L632048 1342712 L633214 1340380 L634380 1339214 L637878 1336882 L642541 1335716 L651869 1335716 L654200 1336882 L655366 1338048 L656532 1340380 L656532 1345044 L655366 1347375 L654200 1348541 L651869 1349707 L646039 1349707 L643707 1348541 L642541 1347375 L641375 1345044 L641375 1340380 L642541 1338048 L643707 1336882 L646039 1335716 "/>
</g></g>
<g style="fill:#000084; fill-opacity:0.0;  stroke:#000084; stroke-width:7345.182352; stroke-opacity:1;  stroke-linecap:round; stroke-linejoin:round;">
<g transform="rotate(-90.000000 2051961.159566 577397.978138)">
<text x="2051961.159566" y="601881.919310" transform="scale(-1 1) translate(-4103922.319132 0)" textLength="265714.909648" font-size="65290.493471" lengthAdjust="spacingAndGlyphs" text-anchor="middle" opacity="0.01" style="font-family:monospace">TS7211</text>
</g>
<g class="stroked-text"><desc>TS7211</desc>
<path d="M2025145 446816 L2025145 474798 "/>
<path d="M2074113 460807 L2025145 460807 "/>
<path d="M2071781 488789 L2074113 495784 L2074113 507443 L2071781 512107 L2069449 514439 L2064786 516771 L2060122 516771 L2055458 514439 L2053127 512107 L2050795 507443 L2048463 498116 L2046131 493453 L2043799 491121 L2039136 488789 L2034472 488789 L2029809 491121 L2027477 493453 L2025145 498116 L2025145 509775 L2027477 516771 "/>
<path d="M2025145 533093 L2025145 565738 L2074113 544752 "/>
<path d="M2029809 582061 L2027477 584393 L2025145 589056 L2025145 600715 L2027477 605379 L2029809 607711 L2034472 610043 L2039136 610043 L2046131 607711 L2074113 579729 L2074113 610043 "/>
<path d="M2074113 656679 L2074113 628697 "/>
<path d="M2074113 642688 L2025145 642688 L2032140 638024 L2036804 633361 L2039136 628697 "/>
<path d="M2074113 703315 L2074113 675333 "/>
<path d="M2074113 689324 L2025145 689324 L2032140 684660 L2036804 679997 L2039136 675333 "/>
</g></g>
<g style="fill:#000084; fill-opacity:0.01;  stroke:#000084; stroke-width:3672.591176; stroke-opacity:1;  stroke-linecap:round; stroke-linejoin:round;">
<text x="2193968.018367" y="589639.948724" transform="scale(-1 1) translate(-4387936.036734 0)" textLength="39419.145288" font-size="32645.222252" lengthAdjust="spacingAndGlyphs" text-anchor="middle" opacity="0.01" style="font-family:monospace">U4</text>
<g class="stroked-text"><desc>U4</desc>
<path d="M2212622 563990 L2212622 583810 L2211456 586142 L2210290 587308 L2207958 588474 L2203295 588474 L2200963 587308 L2199797 586142 L2198631 583810 L2198631 563990 "/>
<path d="M2176479 572151 L2176479 588474 "/>
<path d="M2182308 562824 L2188138 580312 L2172981 580312 "/>
</g></g>
<g style="fill:#000084; fill-opacity:0.01;  stroke:#000084; stroke-width:7345.182352; stroke-opacity:1;  stroke-linecap:round; stroke-linejoin:round;">
<text x="2324565.360582" y="1087986.087351" transform="scale(-1 1) translate(-4649130.721163 0)" textLength="354323.419013" font-size="65290.493471" lengthAdjust="spacingAndGlyphs" text-anchor="middle" opacity="0.01" style="font-family:monospace">TS5A4594</text>
<g class="stroked-text"><desc>TS5A4594</desc>
<path d="M2499450 1036686 L2471469 1036686 "/>
<path d="M2485459 1085654 L2485459 1036686 "/>
<path d="M2457478 1083322 L2450482 1085654 L2438823 1085654 L2434160 1083322 L2431828 1080990 L2429496 1076327 L2429496 1071663 L2431828 1066999 L2434160 1064668 L2438823 1062336 L2448150 1060004 L2452814 1057672 L2455146 1055340 L2457478 1050677 L2457478 1046013 L2455146 1041350 L2452814 1039018 L2448150 1036686 L2436491 1036686 L2429496 1039018 "/>
<path d="M2385192 1036686 L2408510 1036686 L2410842 1060004 L2408510 1057672 L2403846 1055340 L2392187 1055340 L2387524 1057672 L2385192 1060004 L2382860 1064668 L2382860 1076327 L2385192 1080990 L2387524 1083322 L2392187 1085654 L2403846 1085654 L2408510 1083322 L2410842 1080990 "/>
<path d="M2364205 1071663 L2340887 1071663 "/>
<path d="M2368869 1085654 L2352546 1036686 L2336224 1085654 "/>
<path d="M2298915 1053009 L2298915 1085654 "/>
<path d="M2310574 1034354 L2322233 1069331 L2291920 1069331 "/>
<path d="M2249947 1036686 L2273265 1036686 L2275597 1060004 L2273265 1057672 L2268602 1055340 L2256943 1055340 L2252279 1057672 L2249947 1060004 L2247615 1064668 L2247615 1076327 L2249947 1080990 L2252279 1083322 L2256943 1085654 L2268602 1085654 L2273265 1083322 L2275597 1080990 "/>
<path d="M2224297 1085654 L2214970 1085654 L2210306 1083322 L2207975 1080990 L2203311 1073995 L2200979 1064668 L2200979 1046013 L2203311 1041350 L2205643 1039018 L2210306 1036686 L2219634 1036686 L2224297 1039018 L2226629 1041350 L2228961 1046013 L2228961 1057672 L2226629 1062336 L2224297 1064668 L2219634 1066999 L2210306 1066999 L2205643 1064668 L2203311 1062336 L2200979 1057672 "/>
<path d="M2159007 1053009 L2159007 1085654 "/>
<path d="M2170666 1034354 L2182325 1069331 L2152011 1069331 "/>
</g></g>
<g style="fill:#000084; fill-opacity:0.0;  stroke:#000084; stroke-width:3672.591176; stroke-opacity:1;  stroke-linecap:round; stroke-linejoin:round;">
<g transform="rotate(-90.000000 2324565.360582 1205509.004979)">
<text x="2324565.360582" y="1217750.975566" transform="scale(-1 1) translate(-4649130.721163 0)" textLength="39419.145288" font-size="32645.222252" lengthAdjust="spacingAndGlyphs" text-anchor="middle" opacity="0.01" style="font-family:monospace">U5</text>
</g>
<g class="stroked-text"><desc>U5</desc>
<path d="M2311157 1186854 L2330977 1186854 L2333309 1188020 L2334475 1189186 L2335641 1191518 L2335641 1196181 L2334475 1198513 L2333309 1199679 L2330977 1200845 L2311157 1200845 "/>
<path d="M2311157 1224163 L2311157 1212504 L2322816 1211338 L2321650 1212504 L2320484 1214836 L2320484 1220665 L2321650 1222997 L2322816 1224163 L2325148 1225329 L2330977 1225329 L2333309 1224163 L2334475 1222997 L2335641 1220665 L2335641 1214836 L2334475 1212504 L2333309 1211338 "/>
</g></g>
<g style="fill:#000084; fill-opacity:0.0;  stroke:#000084; stroke-width:3917.430588; stroke-opacity:1;  stroke-linecap:round; stroke-linejoin:round;">
<g transform="rotate(-90.000000 2368097.807987 527646.609675)">
<text x="2368097.807987" y="539888.580261" transform="scale(-1 1) translate(-4736195.615973 0)" textLength="43027.588538" font-size="32645.222252" lengthAdjust="spacingAndGlyphs" text-anchor="middle" opacity="0.01" style="font-family:monospace">R1</text>
</g>
<g class="stroked-text"><desc>R1</desc>
<path d="M2379173 523565 L2367514 515404 "/>
<path d="M2379173 509575 L2354689 509575 L2354689 518902 L2355855 521234 L2357021 522400 L2359353 523565 L2362851 523565 L2365183 522400 L2366348 521234 L2367514 518902 L2367514 509575 "/>
<path d="M2379173 546883 L2379173 532893 "/>
<path d="M2379173 539888 L2354689 539888 L2358187 537556 L2360519 535224 L2361685 532893 "/>
</g></g>
<g style="fill:#000084; fill-opacity:0.01;  stroke:#000084; stroke-width:7345.182352; stroke-opacity:1;  stroke-linecap:round; stroke-linejoin:round;">
<text x="334510.622073" y="1783085.177241" transform="scale(-1 1) translate(-669021.244147 0)" textLength="533554.046033" font-size="65290.493471" lengthAdjust="spacingAndGlyphs" text-anchor="middle" opacity="0.01" style="font-family:monospace">BMI-S-210-F</text>
<g class="stroked-text"><desc>BMI-S-210-F</desc>
<path d="M575852 1755103 L568856 1757435 L566525 1759767 L564193 1764430 L564193 1771426 L566525 1776089 L568856 1778421 L573520 1780753 L592174 1780753 L592174 1731785 L575852 1731785 L571188 1734117 L568856 1736449 L566525 1741112 L566525 1745776 L568856 1750439 L571188 1752771 L575852 1755103 L592174 1755103 "/>
<path d="M543207 1780753 L543207 1731785 L526884 1766762 L510561 1731785 L510561 1780753 "/>
<path d="M487243 1780753 L487243 1731785 "/>
<path d="M463925 1762098 L426616 1762098 "/>
<path d="M405630 1778421 L398635 1780753 L386976 1780753 L382312 1778421 L379980 1776089 L377648 1771426 L377648 1766762 L379980 1762098 L382312 1759767 L386976 1757435 L396303 1755103 L400966 1752771 L403298 1750439 L405630 1745776 L405630 1741112 L403298 1736449 L400966 1734117 L396303 1731785 L384644 1731785 L377648 1734117 "/>
<path d="M356662 1762098 L319353 1762098 "/>
<path d="M298367 1736449 L296035 1734117 L291372 1731785 L279713 1731785 L275049 1734117 L272717 1736449 L270386 1741112 L270386 1745776 L272717 1752771 L300699 1780753 L270386 1780753 "/>
<path d="M223749 1780753 L251731 1780753 "/>
<path d="M237740 1780753 L237740 1731785 L242404 1738780 L247067 1743444 L251731 1745776 "/>
<path d="M193436 1731785 L188772 1731785 L184109 1734117 L181777 1736449 L179445 1741112 L177113 1750439 L177113 1762098 L179445 1771426 L181777 1776089 L184109 1778421 L188772 1780753 L193436 1780753 L198100 1778421 L200431 1776089 L202763 1771426 L205095 1762098 L205095 1750439 L202763 1741112 L200431 1736449 L198100 1734117 L193436 1731785 "/>
<path d="M156127 1762098 L118818 1762098 "/>
<path d="M79178 1755103 L95500 1755103 "/>
<path d="M95500 1780753 L95500 1731785 L72182 1731785 "/>
</g><g transform="rotate(-90.000000 521078.253809 1547549.663160)">
<text x="521078.253809" y="1572033.604333" transform="scale(-1 1) translate(-1042156.507617 0)" textLength="93050.630812" font-size="65290.493471" lengthAdjust="spacingAndGlyphs" text-anchor="middle" opacity="0.01" style="font-family:monospace">M6</text>
</g>
<g class="stroked-text"><desc>M6</desc>
<path d="M543230 1507908 L494262 1507908 L529239 1524231 L494262 1540554 L543230 1540554 "/>
<path d="M494262 1584858 L494262 1575531 L496594 1570867 L498926 1568535 L505921 1563872 L515248 1561540 L533903 1561540 L538566 1563872 L540898 1566204 L543230 1570867 L543230 1580194 L540898 1584858 L538566 1587190 L533903 1589522 L522244 1589522 L517580 1587190 L515248 1584858 L512916 1580194 L512916 1570867 L515248 1566204 L517580 1563872 L522244 1561540 "/>
</g></g>
<g style="fill:#000084; fill-opacity:0.0;  stroke:#000084; stroke-width:4896.788235; stroke-opacity:1;  stroke-linecap:round; stroke-linejoin:round;">
<path d="M1043124 1335910 L1084747 1335910 "/>
<path d="M1016192 1307998 L1016192 1188027 "/>
<path d="M1084747 1335910 L1084747 1187048 "/>
<path d="M1016192 1187048 L1084747 1187048 "/>
<path d="M1016192 1307998 L1043124 1335910 "/>
<path d="M679734 1283367 L679734 1403339 "/>
<path d="M611179 1255456 L611179 1404318 "/>
<path d="M679734 1404318 L611179 1404318 "/>
<path d="M652801 1255456 L611179 1255456 "/>
<path d="M679734 1283367 L652801 1255456 "/>
<path d="M2238039 621469 L2269868 589639 "/>
<path d="M2118067 533326 L2118067 621469 "/>
<path d="M2269868 533326 L2118067 533326 "/>
<path d="M2238039 621469 L2118067 621469 "/>
<path d="M2269868 533326 L2269868 589639 "/>
<path d="M2368636 1281409 L2368636 1129608 "/>
<path d="M2280494 1249580 L2280494 1129608 "/>
<path d="M2280494 1249580 L2312323 1281409 "/>
<path d="M2368636 1129608 L2280494 1129608 "/>
<path d="M2368636 1281409 L2312323 1281409 "/>
<path d="M2397478 576614 L2397478 478678 "/>
<path d="M2397478 478678 L2338717 478678 "/>
<path d="M2338717 576614 L2397478 576614 "/>
<path d="M2338717 478678 L2338717 576614 "/>
</g>
<g style="fill:#000084; fill-opacity:0.0;  stroke:#000084; stroke-width:7345.182352; stroke-opacity:1;  stroke-linecap:round; stroke-linejoin:round;">
<path d="M358994 1709633 L2513581 1709633 "/>
<path d="M358994 216112 L358994 1709633 "/>
<path d="M2513581 216112 L358994 216112 "/>
<path d="M2513581 1709633 L2513581 216112 "/>
<g>
</g>
<g>
</g>
<g>
</g>
<g>
</g>
<g>
</g>
<g>
</g>
<g>
</g>
<g>
</g>
<g>
</g>
<g>
</g>
<g>
</g>
<g>
</g>
<g>
</g>
<g>
</g>
<g>
</g>
<g>
</g>
<g>
</g>
<g>
</g>
<g>
</g>
<g>
</g>
<g>
</g>
<g>
</g>
<g>
</g>
<g>
</g>
<g>
</g>
<g>
</g>
<g>
</g>
<g>
</g>
<g>
</g>
<g>
</g>
<g>
</g>
<g>
</g>
<g>
</g>
<g>
</g>
<g>
</g>
<g>
</g>
<g>
</g>
<g>
</g>
<g>
</g>
<g>
</g>
<g>
</g>
<g>
</g>
<g>
</g>
<g>
</g>
<g>
</g>
<g>
</g>
<g>
</g>
<g>
</g>
<g>
</g>
<g>
</g>
<g>
</g>
<g>
</g>
<g>
</g>
<g>
</g>
<g>
</g>
<g>
</g>
<g>
</g>
<g>
</g>
<g>
</g>
<g>
</g>
<g>
</g>
<g>
</g>
<g>
</g>
<g>
</g>
<g>
</g>
</g> 
<svg:g><svg:g><svg:title>SVG Picture created as PCRD04B-Edge_Cuts.svg date 2023/05/25 08:42:51 </svg:title>
  <svg:desc>Picture generated by PCBNEW </svg:desc>
<svg:g style="fill:#C2C200; fill-opacity:1.000000;stroke:#C2C200; stroke-opacity:1.000000; stroke-linecap:round; stroke-linejoin:round;" transform="translate(0 0) scale(1 1)">
</svg:g>
<svg:g style="fill:#C2C200; fill-opacity:0.0;  stroke:#C2C200; stroke-width:0.000000; stroke-opacity:1;  stroke-linecap:round; stroke-linejoin:round;">
</svg:g>
<svg:g style="fill:#C2C200; fill-opacity:0.0;  stroke:#C2C200; stroke-width:9793.576469; stroke-opacity:1;  stroke-linecap:round; stroke-linejoin:round;">
<svg:path d="M4907 67446 L2965114 67446 "/>
<svg:path d="M2965114 2032625 L2965114 67446 "/>
<svg:path d="M4907 2032625 L2965114 2032625 "/>
<svg:path d="M4907 2032625 L4907 67446 "/>
<svg:g>
</svg:g>
<svg:g>
</svg:g>
<svg:g>
</svg:g>
<svg:g>
</svg:g>
<svg:g>
</svg:g>
<svg:g>
</svg:g>
<svg:g>
</svg:g>
<svg:g>
</svg:g>
<svg:g>
</svg:g>
<svg:g>
</svg:g>
<svg:g>
</svg:g>
<svg:g>
</svg:g>
<svg:g>
</svg:g>
<svg:g>
</svg:g>
<svg:g>
</svg:g>
<svg:g>
</svg:g>
<svg:g>
</svg:g>
<svg:g>
</svg:g>
<svg:g>
</svg:g>
<svg:g>
</svg:g>
<svg:g>
</svg:g>
<svg:g>
</svg:g>
<svg:g>
</svg:g>
<svg:g>
</svg:g>
<svg:g>
</svg:g>
<svg:g>
</svg:g>
<svg:g>
</svg:g>
<svg:g>
</svg:g>
<svg:g>
</svg:g>
<svg:g>
</svg:g>
<svg:g>
</svg:g>
<svg:g>
</svg:g>
<svg:g>
</svg:g>
<svg:g>
</svg:g>
<svg:g>
</svg:g>
<svg:g>
</svg:g>
<svg:g>
</svg:g>
<svg:g>
</svg:g>
<svg:g>
</svg:g>
<svg:g>
</svg:g>
<svg:g>
</svg:g>
<svg:g>
</svg:g>
<svg:g>
</svg:g>
<svg:g>
</svg:g>
<svg:g>
</svg:g>
<svg:g>
</svg:g>
<svg:g>
</svg:g>
<svg:g>
</svg:g>
<svg:g>
</svg:g>
<svg:g>
</svg:g>
<svg:g>
</svg:g>
<svg:g>
</svg:g>
<svg:g>
</svg:g>
<svg:g>
</svg:g>
<svg:g>
</svg:g>
<svg:g>
</svg:g>
<svg:g>
</svg:g>
<svg:g>
</svg:g>
<svg:g>
</svg:g>
<svg:g>
</svg:g>
<svg:g>
</svg:g>
<svg:g>
</svg:g>
<svg:g>
</svg:g>
<svg:g>
</svg:g>
<svg:g>
</svg:g>
</svg:g> 
</svg:g></svg:g></svg>
